%TF.GenerationSoftware,KiCad,Pcbnew,9.0.2*%
%TF.CreationDate,2026-07-16T14:58:55+03:00*%
%TF.ProjectId,sim7080g,73696d37-3038-4306-972e-6b696361645f,rev?*%
%TF.SameCoordinates,Original*%
%TF.FileFunction,Legend,Top*%
%TF.FilePolarity,Positive*%
%FSLAX46Y46*%
G04 Gerber Fmt 4.6, Leading zero omitted, Abs format (unit mm)*
G04 Created by KiCad (PCBNEW 9.0.2) date 2026-07-16 14:58:55*
%MOMM*%
%LPD*%
G01*
G04 APERTURE LIST*
G04 Aperture macros list*
%AMRoundRect*
0 Rectangle with rounded corners*
0 $1 Rounding radius*
0 $2 $3 $4 $5 $6 $7 $8 $9 X,Y pos of 4 corners*
0 Add a 4 corners polygon primitive as box body*
4,1,4,$2,$3,$4,$5,$6,$7,$8,$9,$2,$3,0*
0 Add four circle primitives for the rounded corners*
1,1,$1+$1,$2,$3*
1,1,$1+$1,$4,$5*
1,1,$1+$1,$6,$7*
1,1,$1+$1,$8,$9*
0 Add four rect primitives between the rounded corners*
20,1,$1+$1,$2,$3,$4,$5,0*
20,1,$1+$1,$4,$5,$6,$7,0*
20,1,$1+$1,$6,$7,$8,$9,0*
20,1,$1+$1,$8,$9,$2,$3,0*%
G04 Aperture macros list end*
%ADD10C,0.300000*%
%ADD11C,0.120000*%
%ADD12C,0.000000*%
%ADD13C,0.250000*%
%ADD14C,0.127000*%
%ADD15C,0.200000*%
%ADD16C,0.010000*%
%ADD17RoundRect,0.062500X-0.062500X0.117500X-0.062500X-0.117500X0.062500X-0.117500X0.062500X0.117500X0*%
%ADD18RoundRect,0.050000X-0.250000X-0.070000X0.250000X-0.070000X0.250000X0.070000X-0.250000X0.070000X0*%
%ADD19RoundRect,0.050000X-0.070000X0.250000X-0.070000X-0.250000X0.070000X-0.250000X0.070000X0.250000X0*%
%ADD20RoundRect,0.050000X-1.475000X0.975000X-1.475000X-0.975000X1.475000X-0.975000X1.475000X0.975000X0*%
%ADD21RoundRect,0.250000X-0.450000X0.262500X-0.450000X-0.262500X0.450000X-0.262500X0.450000X0.262500X0*%
%ADD22RoundRect,0.150000X-0.587500X-0.150000X0.587500X-0.150000X0.587500X0.150000X-0.587500X0.150000X0*%
%ADD23RoundRect,0.250000X-0.475000X0.250000X-0.475000X-0.250000X0.475000X-0.250000X0.475000X0.250000X0*%
%ADD24RoundRect,0.250000X-0.262500X-0.450000X0.262500X-0.450000X0.262500X0.450000X-0.262500X0.450000X0*%
%ADD25RoundRect,0.150000X-0.150000X0.512500X-0.150000X-0.512500X0.150000X-0.512500X0.150000X0.512500X0*%
%ADD26RoundRect,0.250000X0.250000X0.475000X-0.250000X0.475000X-0.250000X-0.475000X0.250000X-0.475000X0*%
%ADD27RoundRect,0.250000X-0.250000X-0.475000X0.250000X-0.475000X0.250000X0.475000X-0.250000X0.475000X0*%
%ADD28R,0.900000X1.200000*%
%ADD29R,1.300000X1.800000*%
%ADD30RoundRect,0.250000X-0.250000X0.275000X-0.250000X-0.275000X0.250000X-0.275000X0.250000X0.275000X0*%
%ADD31RoundRect,0.250000X-0.275000X0.850000X-0.275000X-0.850000X0.275000X-0.850000X0.275000X0.850000X0*%
%ADD32O,1.804000X0.804000*%
%ADD33O,0.804000X1.804000*%
%ADD34RoundRect,0.102000X-0.550000X-0.450000X0.550000X-0.450000X0.550000X0.450000X-0.550000X0.450000X0*%
%ADD35RoundRect,0.102000X-0.450000X-0.550000X0.450000X-0.550000X0.450000X0.550000X-0.450000X0.550000X0*%
%ADD36RoundRect,0.102000X-1.300000X-1.550000X1.300000X-1.550000X1.300000X1.550000X-1.300000X1.550000X0*%
%ADD37RoundRect,0.243750X0.456250X-0.243750X0.456250X0.243750X-0.456250X0.243750X-0.456250X-0.243750X0*%
%ADD38RoundRect,0.250000X0.450000X-0.262500X0.450000X0.262500X-0.450000X0.262500X-0.450000X-0.262500X0*%
%ADD39RoundRect,0.250000X0.475000X-0.250000X0.475000X0.250000X-0.475000X0.250000X-0.475000X-0.250000X0*%
%ADD40RoundRect,0.150000X0.587500X0.150000X-0.587500X0.150000X-0.587500X-0.150000X0.587500X-0.150000X0*%
%ADD41RoundRect,0.250000X0.325000X0.650000X-0.325000X0.650000X-0.325000X-0.650000X0.325000X-0.650000X0*%
%ADD42RoundRect,0.250000X0.262500X0.450000X-0.262500X0.450000X-0.262500X-0.450000X0.262500X-0.450000X0*%
%ADD43RoundRect,0.062500X-0.117500X-0.062500X0.117500X-0.062500X0.117500X0.062500X-0.117500X0.062500X0*%
%ADD44R,1.700000X1.700000*%
%ADD45C,1.700000*%
G04 APERTURE END LIST*
D10*
X97783082Y-76700828D02*
X97783082Y-77772257D01*
X97783082Y-77772257D02*
X97711653Y-77986542D01*
X97711653Y-77986542D02*
X97568796Y-78129400D01*
X97568796Y-78129400D02*
X97354510Y-78200828D01*
X97354510Y-78200828D02*
X97211653Y-78200828D01*
X99211653Y-78200828D02*
X98497367Y-78200828D01*
X98497367Y-78200828D02*
X98497367Y-76700828D01*
X100568796Y-78057971D02*
X100497368Y-78129400D01*
X100497368Y-78129400D02*
X100283082Y-78200828D01*
X100283082Y-78200828D02*
X100140225Y-78200828D01*
X100140225Y-78200828D02*
X99925939Y-78129400D01*
X99925939Y-78129400D02*
X99783082Y-77986542D01*
X99783082Y-77986542D02*
X99711653Y-77843685D01*
X99711653Y-77843685D02*
X99640225Y-77557971D01*
X99640225Y-77557971D02*
X99640225Y-77343685D01*
X99640225Y-77343685D02*
X99711653Y-77057971D01*
X99711653Y-77057971D02*
X99783082Y-76915114D01*
X99783082Y-76915114D02*
X99925939Y-76772257D01*
X99925939Y-76772257D02*
X100140225Y-76700828D01*
X100140225Y-76700828D02*
X100283082Y-76700828D01*
X100283082Y-76700828D02*
X100497368Y-76772257D01*
X100497368Y-76772257D02*
X100568796Y-76843685D01*
X101640225Y-76700828D02*
X101640225Y-77772257D01*
X101640225Y-77772257D02*
X101568796Y-77986542D01*
X101568796Y-77986542D02*
X101425939Y-78129400D01*
X101425939Y-78129400D02*
X101211653Y-78200828D01*
X101211653Y-78200828D02*
X101068796Y-78200828D01*
X103068796Y-78200828D02*
X102354510Y-78200828D01*
X102354510Y-78200828D02*
X102354510Y-76700828D01*
X104425939Y-78057971D02*
X104354511Y-78129400D01*
X104354511Y-78129400D02*
X104140225Y-78200828D01*
X104140225Y-78200828D02*
X103997368Y-78200828D01*
X103997368Y-78200828D02*
X103783082Y-78129400D01*
X103783082Y-78129400D02*
X103640225Y-77986542D01*
X103640225Y-77986542D02*
X103568796Y-77843685D01*
X103568796Y-77843685D02*
X103497368Y-77557971D01*
X103497368Y-77557971D02*
X103497368Y-77343685D01*
X103497368Y-77343685D02*
X103568796Y-77057971D01*
X103568796Y-77057971D02*
X103640225Y-76915114D01*
X103640225Y-76915114D02*
X103783082Y-76772257D01*
X103783082Y-76772257D02*
X103997368Y-76700828D01*
X103997368Y-76700828D02*
X104140225Y-76700828D01*
X104140225Y-76700828D02*
X104354511Y-76772257D01*
X104354511Y-76772257D02*
X104425939Y-76843685D01*
X105497368Y-76700828D02*
X105497368Y-77772257D01*
X105497368Y-77772257D02*
X105425939Y-77986542D01*
X105425939Y-77986542D02*
X105283082Y-78129400D01*
X105283082Y-78129400D02*
X105068796Y-78200828D01*
X105068796Y-78200828D02*
X104925939Y-78200828D01*
X106925939Y-78200828D02*
X106211653Y-78200828D01*
X106211653Y-78200828D02*
X106211653Y-76700828D01*
X108283082Y-78057971D02*
X108211654Y-78129400D01*
X108211654Y-78129400D02*
X107997368Y-78200828D01*
X107997368Y-78200828D02*
X107854511Y-78200828D01*
X107854511Y-78200828D02*
X107640225Y-78129400D01*
X107640225Y-78129400D02*
X107497368Y-77986542D01*
X107497368Y-77986542D02*
X107425939Y-77843685D01*
X107425939Y-77843685D02*
X107354511Y-77557971D01*
X107354511Y-77557971D02*
X107354511Y-77343685D01*
X107354511Y-77343685D02*
X107425939Y-77057971D01*
X107425939Y-77057971D02*
X107497368Y-76915114D01*
X107497368Y-76915114D02*
X107640225Y-76772257D01*
X107640225Y-76772257D02*
X107854511Y-76700828D01*
X107854511Y-76700828D02*
X107997368Y-76700828D01*
X107997368Y-76700828D02*
X108211654Y-76772257D01*
X108211654Y-76772257D02*
X108283082Y-76843685D01*
X109354511Y-76700828D02*
X109354511Y-77772257D01*
X109354511Y-77772257D02*
X109283082Y-77986542D01*
X109283082Y-77986542D02*
X109140225Y-78129400D01*
X109140225Y-78129400D02*
X108925939Y-78200828D01*
X108925939Y-78200828D02*
X108783082Y-78200828D01*
X110783082Y-78200828D02*
X110068796Y-78200828D01*
X110068796Y-78200828D02*
X110068796Y-76700828D01*
X112140225Y-78057971D02*
X112068797Y-78129400D01*
X112068797Y-78129400D02*
X111854511Y-78200828D01*
X111854511Y-78200828D02*
X111711654Y-78200828D01*
X111711654Y-78200828D02*
X111497368Y-78129400D01*
X111497368Y-78129400D02*
X111354511Y-77986542D01*
X111354511Y-77986542D02*
X111283082Y-77843685D01*
X111283082Y-77843685D02*
X111211654Y-77557971D01*
X111211654Y-77557971D02*
X111211654Y-77343685D01*
X111211654Y-77343685D02*
X111283082Y-77057971D01*
X111283082Y-77057971D02*
X111354511Y-76915114D01*
X111354511Y-76915114D02*
X111497368Y-76772257D01*
X111497368Y-76772257D02*
X111711654Y-76700828D01*
X111711654Y-76700828D02*
X111854511Y-76700828D01*
X111854511Y-76700828D02*
X112068797Y-76772257D01*
X112068797Y-76772257D02*
X112140225Y-76843685D01*
D11*
%TO.C,D1*%
X115200000Y-82180000D02*
X115200000Y-83540000D01*
X115200000Y-83540000D02*
X116000000Y-83540000D01*
X116000000Y-82180000D02*
X116000000Y-83540000D01*
%TO.C,U1*%
X98890000Y-98800000D02*
X98890000Y-98100000D01*
X98890000Y-99600000D02*
X98890000Y-100310000D01*
X98890000Y-100310000D02*
X99100000Y-100310000D01*
X98895000Y-96590000D02*
X99105000Y-96590000D01*
X98895000Y-97300000D02*
X98895000Y-96590000D01*
X103610000Y-96590000D02*
X103400000Y-96590000D01*
X103610000Y-97300000D02*
X103610000Y-96590000D01*
X103610000Y-99600000D02*
X103610000Y-100310000D01*
X103610000Y-100310000D02*
X103400000Y-100310000D01*
X103610000Y-98380000D02*
X103610000Y-98100000D01*
X103890000Y-98100000D01*
X103610000Y-98380000D01*
G36*
X103610000Y-98380000D02*
G01*
X103610000Y-98100000D01*
X103890000Y-98100000D01*
X103610000Y-98380000D01*
G37*
%TO.C,R1*%
X114865000Y-79285436D02*
X114865000Y-79739564D01*
X116335000Y-79285436D02*
X116335000Y-79739564D01*
%TO.C,R5*%
X109465000Y-104517936D02*
X109465000Y-104972064D01*
X110935000Y-104517936D02*
X110935000Y-104972064D01*
%TO.C,Q2*%
X94400000Y-93040000D02*
X93750000Y-93040000D01*
X94400000Y-93040000D02*
X95050000Y-93040000D01*
X94400000Y-96160000D02*
X93750000Y-96160000D01*
X94400000Y-96160000D02*
X95050000Y-96160000D01*
X93237500Y-93090000D02*
X92997500Y-92760000D01*
X93477500Y-92760000D01*
X93237500Y-93090000D01*
G36*
X93237500Y-93090000D02*
G01*
X92997500Y-92760000D01*
X93477500Y-92760000D01*
X93237500Y-93090000D01*
G37*
D12*
%TO.C,kibuzzard-6A58AA08*%
G36*
X96119178Y-71605479D02*
G01*
X96123288Y-71605479D01*
X96246575Y-70650000D01*
X96505479Y-70650000D01*
X96581507Y-72150000D01*
X96361644Y-72150000D01*
X96330822Y-70876027D01*
X96328767Y-70876027D01*
X96201370Y-71800685D01*
X96006164Y-71800685D01*
X95889041Y-70876027D01*
X95882877Y-70876027D01*
X95847945Y-72150000D01*
X95646575Y-72150000D01*
X95724658Y-70650000D01*
X95993836Y-70650000D01*
X96119178Y-71605479D01*
G37*
G36*
X94304281Y-70640753D02*
G01*
X94430137Y-70674658D01*
X94430137Y-70859589D01*
X94299144Y-70822603D01*
X94173288Y-70810274D01*
X94026884Y-70842894D01*
X93924658Y-70940753D01*
X93880137Y-71048630D01*
X93853425Y-71198288D01*
X93844521Y-71389726D01*
X93852968Y-71585616D01*
X93878311Y-71740411D01*
X93920548Y-71854110D01*
X94013014Y-71958904D01*
X94138356Y-71993836D01*
X94261644Y-71969178D01*
X94261644Y-71430822D01*
X94002740Y-71430822D01*
X94002740Y-71256164D01*
X94481507Y-71256164D01*
X94481507Y-72098630D01*
X94371461Y-72138584D01*
X94255023Y-72162557D01*
X94132192Y-72170548D01*
X94011794Y-72158348D01*
X93907449Y-72121747D01*
X93819157Y-72060745D01*
X93746918Y-71975342D01*
X93690732Y-71865539D01*
X93650599Y-71731336D01*
X93626520Y-71572731D01*
X93618493Y-71389726D01*
X93627162Y-71205693D01*
X93653168Y-71048116D01*
X93696511Y-70916995D01*
X93757192Y-70812329D01*
X93865068Y-70710731D01*
X94003767Y-70649772D01*
X94173288Y-70629452D01*
X94304281Y-70640753D01*
G37*
G36*
X95231963Y-70636301D02*
G01*
X95347032Y-70656849D01*
X95457534Y-70691096D01*
X95457534Y-70896575D01*
X95298801Y-70830308D01*
X95139041Y-70808219D01*
X95049144Y-70821575D01*
X94980822Y-70861644D01*
X94937671Y-70925342D01*
X94923288Y-71009589D01*
X94941553Y-71113927D01*
X94996347Y-71196804D01*
X95087671Y-71258219D01*
X95227626Y-71328767D01*
X95335160Y-71400685D01*
X95410274Y-71473973D01*
X95476541Y-71600856D01*
X95498630Y-71759589D01*
X95480959Y-71907534D01*
X95427945Y-72022603D01*
X95339589Y-72104795D01*
X95215890Y-72154110D01*
X95056849Y-72170548D01*
X94929452Y-72159589D01*
X94813014Y-72126712D01*
X94707534Y-72071918D01*
X94707534Y-71858219D01*
X94815982Y-71932420D01*
X94930365Y-71976941D01*
X95050685Y-71991781D01*
X95142123Y-71977654D01*
X95210959Y-71935274D01*
X95254110Y-71865668D01*
X95268493Y-71769863D01*
X95257449Y-71678425D01*
X95224315Y-71605479D01*
X95165497Y-71545377D01*
X95077397Y-71492466D01*
X94951484Y-71426712D01*
X94853196Y-71358219D01*
X94782534Y-71286986D01*
X94718579Y-71165753D01*
X94697260Y-71019863D01*
X94724229Y-70855479D01*
X94805137Y-70732192D01*
X94887215Y-70675114D01*
X94989612Y-70640868D01*
X95112329Y-70629452D01*
X95231963Y-70636301D01*
G37*
D11*
%TO.C,R3*%
X107225000Y-99972936D02*
X107225000Y-100427064D01*
X108695000Y-99972936D02*
X108695000Y-100427064D01*
%TO.C,C6*%
X105065000Y-99938748D02*
X105065000Y-100461252D01*
X106535000Y-99938748D02*
X106535000Y-100461252D01*
%TO.C,R7*%
X98460436Y-71665000D02*
X98914564Y-71665000D01*
X98460436Y-73135000D02*
X98914564Y-73135000D01*
%TO.C,D2*%
X109440000Y-100462500D02*
X109440000Y-99662500D01*
X109440000Y-100462500D02*
X109440000Y-101262500D01*
X112560000Y-100462500D02*
X112560000Y-99662500D01*
X112560000Y-100462500D02*
X112560000Y-101262500D01*
X112840000Y-99402500D02*
X112510000Y-99162500D01*
X112840000Y-98922500D01*
X112840000Y-99402500D01*
G36*
X112840000Y-99402500D02*
G01*
X112510000Y-99162500D01*
X112840000Y-98922500D01*
X112840000Y-99402500D01*
G37*
%TO.C,C11*%
X104411252Y-69565000D02*
X103888748Y-69565000D01*
X104411252Y-71035000D02*
X103888748Y-71035000D01*
%TO.C,R9*%
X114965000Y-87172936D02*
X114965000Y-87627064D01*
X116435000Y-87172936D02*
X116435000Y-87627064D01*
%TO.C,C5*%
X100288748Y-104965000D02*
X100811252Y-104965000D01*
X100288748Y-106435000D02*
X100811252Y-106435000D01*
%TO.C,R4*%
X107265000Y-104517936D02*
X107265000Y-104972064D01*
X108735000Y-104517936D02*
X108735000Y-104972064D01*
%TO.C,C1*%
X106561252Y-96065000D02*
X106038748Y-96065000D01*
X106561252Y-97535000D02*
X106038748Y-97535000D01*
D13*
%TO.C,U3*%
X98850000Y-107492500D02*
X98850000Y-110872500D01*
X98850000Y-113132500D02*
X98850000Y-119672500D01*
X98850000Y-121932500D02*
X98850000Y-121972500D01*
X98850000Y-121972500D02*
X111550000Y-121972500D01*
X101350000Y-107492500D02*
X98850000Y-107492500D01*
X111550000Y-107492500D02*
X109060000Y-107492500D01*
X111550000Y-110872500D02*
X111550000Y-107492500D01*
X111550000Y-119672500D02*
X111550000Y-113132500D01*
X111550000Y-121972500D02*
X111550000Y-121932500D01*
D11*
%TO.C,J4*%
X112800000Y-67815000D02*
X113440000Y-67815000D01*
X114960000Y-67815000D02*
X114960000Y-67185000D01*
X115550000Y-70535000D02*
X112850000Y-70535000D01*
X115600000Y-67815000D02*
X114960000Y-67815000D01*
%TO.C,C3*%
X103161252Y-72165000D02*
X102638748Y-72165000D01*
X103161252Y-73635000D02*
X102638748Y-73635000D01*
D12*
%TO.C,kibuzzard-6A58AA2C*%
G36*
X115093836Y-70939041D02*
G01*
X114625342Y-70939041D01*
X114625342Y-71366438D01*
X115073288Y-71366438D01*
X115073288Y-71541096D01*
X114625342Y-71541096D01*
X114625342Y-72260274D01*
X114395205Y-72260274D01*
X114395205Y-70760274D01*
X115093836Y-70760274D01*
X115093836Y-70939041D01*
G37*
G36*
X113803995Y-70751712D02*
G01*
X113923516Y-70787671D01*
X114014041Y-70847603D01*
X114077397Y-70933333D01*
X114115411Y-71046689D01*
X114128082Y-71187671D01*
X114113699Y-71322003D01*
X114070548Y-71431164D01*
X113998630Y-71515154D01*
X113897945Y-71573973D01*
X113897945Y-71578082D01*
X113976027Y-71679795D01*
X114041781Y-71841096D01*
X114169178Y-72260274D01*
X113932877Y-72260274D01*
X113813699Y-71828767D01*
X113780051Y-71735531D01*
X113740753Y-71677740D01*
X113616438Y-71637671D01*
X113536301Y-71637671D01*
X113536301Y-72260274D01*
X113306164Y-72260274D01*
X113306164Y-70934932D01*
X113536301Y-70934932D01*
X113536301Y-71458904D01*
X113616438Y-71458904D01*
X113750000Y-71443493D01*
X113838356Y-71397260D01*
X113887671Y-71314041D01*
X113904110Y-71187671D01*
X113888699Y-71066695D01*
X113842466Y-70983219D01*
X113764897Y-70934675D01*
X113655479Y-70918493D01*
X113536301Y-70934932D01*
X113306164Y-70934932D01*
X113306164Y-70780822D01*
X113420776Y-70757991D01*
X113537215Y-70744292D01*
X113655479Y-70739726D01*
X113803995Y-70751712D01*
G37*
D11*
%TO.C,C8*%
X111665000Y-104463748D02*
X111665000Y-104986252D01*
X113135000Y-104463748D02*
X113135000Y-104986252D01*
D14*
%TO.C,U2*%
X96750000Y-75700000D02*
X99550000Y-75700000D01*
X96750000Y-77800000D02*
X96750000Y-75700000D01*
X96750000Y-93300000D02*
X96750000Y-91200000D01*
X99550000Y-93300000D02*
X96750000Y-93300000D01*
X109650000Y-75700000D02*
X112450000Y-75700000D01*
X109650000Y-93300000D02*
X112450000Y-93300000D01*
X112450000Y-75700000D02*
X112450000Y-77800000D01*
X112450000Y-93300000D02*
X112450000Y-91200000D01*
D15*
X95250000Y-77950000D02*
G75*
G02*
X95050000Y-77950000I-100000J0D01*
G01*
X95050000Y-77950000D02*
G75*
G02*
X95250000Y-77950000I100000J0D01*
G01*
D11*
%TO.C,D4*%
X110440000Y-95200000D02*
X110440000Y-97885000D01*
X110440000Y-97885000D02*
X112360000Y-97885000D01*
X112360000Y-97885000D02*
X112360000Y-95200000D01*
%TO.C,R2*%
X92865000Y-82127064D02*
X92865000Y-81672936D01*
X94335000Y-82127064D02*
X94335000Y-81672936D01*
%TO.C,J1*%
X93800000Y-67815000D02*
X94440000Y-67815000D01*
X95960000Y-67815000D02*
X95960000Y-67185000D01*
X96550000Y-70535000D02*
X93850000Y-70535000D01*
X96600000Y-67815000D02*
X95960000Y-67815000D01*
%TO.C,C2*%
X102665000Y-103161252D02*
X102665000Y-102638748D01*
X104135000Y-103161252D02*
X104135000Y-102638748D01*
%TO.C,Q3*%
X114800000Y-93340000D02*
X114150000Y-93340000D01*
X114800000Y-93340000D02*
X115450000Y-93340000D01*
X114800000Y-96460000D02*
X114150000Y-96460000D01*
X114800000Y-96460000D02*
X115450000Y-96460000D01*
X116202500Y-96740000D02*
X115722500Y-96740000D01*
X115962500Y-96410000D01*
X116202500Y-96740000D01*
G36*
X116202500Y-96740000D02*
G01*
X115722500Y-96740000D01*
X115962500Y-96410000D01*
X116202500Y-96740000D01*
G37*
%TO.C,C12*%
X107688748Y-67365000D02*
X108211252Y-67365000D01*
X107688748Y-68835000D02*
X108211252Y-68835000D01*
%TO.C,C9*%
X108011252Y-71890000D02*
X106588748Y-71890000D01*
X108011252Y-73710000D02*
X106588748Y-73710000D01*
%TO.C,R8*%
X96165000Y-105527064D02*
X96165000Y-105072936D01*
X97635000Y-105527064D02*
X97635000Y-105072936D01*
%TO.C,Q1*%
X94900000Y-72440000D02*
X94250000Y-72440000D01*
X94900000Y-72440000D02*
X95550000Y-72440000D01*
X94900000Y-75560000D02*
X94250000Y-75560000D01*
X94900000Y-75560000D02*
X95550000Y-75560000D01*
X93737500Y-72490000D02*
X93497500Y-72160000D01*
X93977500Y-72160000D01*
X93737500Y-72490000D01*
G36*
X93737500Y-72490000D02*
G01*
X93497500Y-72160000D01*
X93977500Y-72160000D01*
X93737500Y-72490000D01*
G37*
%TO.C,R12*%
X115227064Y-97265000D02*
X114772936Y-97265000D01*
X115227064Y-98735000D02*
X114772936Y-98735000D01*
%TO.C,R11*%
X96165000Y-101727064D02*
X96165000Y-101272936D01*
X97635000Y-101727064D02*
X97635000Y-101272936D01*
%TO.C,D3*%
X98940000Y-68200000D02*
X98940000Y-70885000D01*
X98940000Y-70885000D02*
X100860000Y-70885000D01*
X100860000Y-70885000D02*
X100860000Y-68200000D01*
%TO.C,C10*%
X107688748Y-69565000D02*
X108211252Y-69565000D01*
X107688748Y-71035000D02*
X108211252Y-71035000D01*
%TO.C,R6*%
X92865000Y-78227064D02*
X92865000Y-77772936D01*
X94335000Y-78227064D02*
X94335000Y-77772936D01*
%TO.C,D5*%
X93280000Y-91300000D02*
X94640000Y-91300000D01*
X93280000Y-92100000D02*
X94640000Y-92100000D01*
X94640000Y-92100000D02*
X94640000Y-91300000D01*
%TO.C,C7*%
X105065000Y-104463748D02*
X105065000Y-104986252D01*
X106535000Y-104463748D02*
X106535000Y-104986252D01*
%TO.C,C13*%
X104411252Y-67365000D02*
X103888748Y-67365000D01*
X104411252Y-68835000D02*
X103888748Y-68835000D01*
%TO.C,R10*%
X114965000Y-91327064D02*
X114965000Y-90872936D01*
X116435000Y-91327064D02*
X116435000Y-90872936D01*
%TD*%
%LPC*%
%TO.C,J4*%
G36*
X115140000Y-68185000D02*
G01*
X113260000Y-68185000D01*
X113260000Y-70275000D01*
X115140000Y-70275000D01*
X115140000Y-68185000D01*
G37*
D16*
%TO.C,U2*%
X103100000Y-82750000D02*
X100300000Y-82750000D01*
X100300000Y-80480000D01*
X101330000Y-79450000D01*
X103100000Y-79450000D01*
X103100000Y-82750000D01*
G36*
X103100000Y-82750000D02*
G01*
X100300000Y-82750000D01*
X100300000Y-80480000D01*
X101330000Y-79450000D01*
X103100000Y-79450000D01*
X103100000Y-82750000D01*
G37*
%TO.C,J1*%
G36*
X96140000Y-68185000D02*
G01*
X94260000Y-68185000D01*
X94260000Y-70275000D01*
X96140000Y-70275000D01*
X96140000Y-68185000D01*
G37*
%TD*%
D17*
%TO.C,D1*%
X115600000Y-83100000D03*
X115600000Y-82260000D03*
%TD*%
D18*
%TO.C,U1*%
X103400000Y-97700000D03*
D19*
X103000000Y-96800000D03*
X102500000Y-96800000D03*
X102000000Y-96800000D03*
X101500000Y-96800000D03*
X101000000Y-96800000D03*
X100500000Y-96800000D03*
X100000000Y-96800000D03*
X99500000Y-96800000D03*
D18*
X99100000Y-97700000D03*
X99100000Y-99200000D03*
D19*
X99500000Y-100100000D03*
X100000000Y-100100000D03*
X100500000Y-100100000D03*
X101000000Y-100100000D03*
X101500000Y-100100000D03*
X102000000Y-100100000D03*
X102500000Y-100100000D03*
X103000000Y-100100000D03*
D18*
X103400000Y-99200000D03*
D20*
X101250000Y-98450000D03*
%TD*%
D21*
%TO.C,R1*%
X115600000Y-78600000D03*
X115600000Y-80425000D03*
%TD*%
%TO.C,R5*%
X110200000Y-103832500D03*
X110200000Y-105657500D03*
%TD*%
D22*
%TO.C,Q2*%
X93462500Y-93650000D03*
X93462500Y-95550000D03*
X95337500Y-94600000D03*
%TD*%
D21*
%TO.C,R3*%
X107960000Y-99287500D03*
X107960000Y-101112500D03*
%TD*%
D23*
%TO.C,C6*%
X105800000Y-99250000D03*
X105800000Y-101150000D03*
%TD*%
D24*
%TO.C,R7*%
X97775000Y-72400000D03*
X99600000Y-72400000D03*
%TD*%
D25*
%TO.C,D2*%
X111950000Y-99325000D03*
X111000000Y-99325000D03*
X110050000Y-99325000D03*
X110050000Y-101600000D03*
X111950000Y-101600000D03*
%TD*%
D26*
%TO.C,C11*%
X105100000Y-70300000D03*
X103200000Y-70300000D03*
%TD*%
D21*
%TO.C,R9*%
X115700000Y-86487500D03*
X115700000Y-88312500D03*
%TD*%
D27*
%TO.C,C5*%
X99600000Y-105700000D03*
X101500000Y-105700000D03*
%TD*%
D21*
%TO.C,R4*%
X108000000Y-103832500D03*
X108000000Y-105657500D03*
%TD*%
D26*
%TO.C,C1*%
X107250000Y-96800000D03*
X105350000Y-96800000D03*
%TD*%
D28*
%TO.C,U3*%
X102030000Y-107902500D03*
X104570000Y-107902500D03*
X107110000Y-107902500D03*
X103300000Y-107902500D03*
X105840000Y-107902500D03*
X108380000Y-107902500D03*
D29*
X99350000Y-112002500D03*
X99350000Y-120802500D03*
X111050000Y-120802500D03*
X111050000Y-112002500D03*
%TD*%
D30*
%TO.C,J4*%
X114200000Y-67650000D03*
D31*
X115675000Y-69175000D03*
X112725000Y-69175000D03*
%TD*%
D26*
%TO.C,C3*%
X103850000Y-72900000D03*
X101950000Y-72900000D03*
%TD*%
D23*
%TO.C,C8*%
X112400000Y-103775000D03*
X112400000Y-105675000D03*
%TD*%
D32*
%TO.C,U2*%
X96750000Y-78450000D03*
X96750000Y-79550000D03*
X96750000Y-80650000D03*
X96750000Y-81750000D03*
X96750000Y-82850000D03*
X96750000Y-83950000D03*
X96750000Y-85050000D03*
X96750000Y-86150000D03*
X96750000Y-87250000D03*
X96750000Y-88350000D03*
X96750000Y-89450000D03*
X96750000Y-90550000D03*
D33*
X100200000Y-93300000D03*
X101300000Y-93300000D03*
X102400000Y-93300000D03*
X103500000Y-93300000D03*
X104600000Y-93300000D03*
X105700000Y-93300000D03*
X106800000Y-93300000D03*
X107900000Y-93300000D03*
X109000000Y-93300000D03*
D32*
X112450000Y-90550000D03*
X112450000Y-89450000D03*
X112450000Y-88350000D03*
X112450000Y-87250000D03*
X112450000Y-86150000D03*
X112450000Y-85050000D03*
X112450000Y-83950000D03*
X112450000Y-82850000D03*
X112450000Y-81750000D03*
X112450000Y-80650000D03*
X112450000Y-79550000D03*
X112450000Y-78450000D03*
D33*
X109000000Y-75700000D03*
X107900000Y-75700000D03*
X106800000Y-75700000D03*
X105700000Y-75700000D03*
X104600000Y-75700000D03*
X103500000Y-75700000D03*
X102400000Y-75700000D03*
X101300000Y-75700000D03*
X100200000Y-75700000D03*
D34*
X99250000Y-79600000D03*
X99250000Y-81000000D03*
X99250000Y-82400000D03*
X99250000Y-83800000D03*
X99250000Y-85200000D03*
X99250000Y-86600000D03*
X99250000Y-88000000D03*
X99250000Y-89400000D03*
D35*
X100400000Y-90800000D03*
X101800000Y-90800000D03*
X103200000Y-90800000D03*
X104600000Y-90800000D03*
X106000000Y-90800000D03*
X107400000Y-90800000D03*
X108800000Y-90800000D03*
D34*
X109950000Y-89400000D03*
X109950000Y-88000000D03*
X109950000Y-86600000D03*
X109950000Y-85200000D03*
X109950000Y-83800000D03*
D35*
X107400000Y-78200000D03*
X106000000Y-78200000D03*
X104600000Y-78200000D03*
X103200000Y-78200000D03*
X101800000Y-78200000D03*
X100400000Y-78200000D03*
D36*
X101700000Y-84500000D03*
X101700000Y-87900000D03*
X104600000Y-87900000D03*
X107500000Y-87900000D03*
X107500000Y-84500000D03*
X107500000Y-81100000D03*
X104600000Y-81100000D03*
X104600000Y-84500000D03*
%TD*%
D37*
%TO.C,D4*%
X111400000Y-97137500D03*
X111400000Y-95262500D03*
%TD*%
D38*
%TO.C,R2*%
X93600000Y-82812500D03*
X93600000Y-80987500D03*
%TD*%
D30*
%TO.C,J1*%
X95200000Y-67650000D03*
D31*
X96675000Y-69175000D03*
X93725000Y-69175000D03*
%TD*%
D39*
%TO.C,C2*%
X103400000Y-103850000D03*
X103400000Y-101950000D03*
%TD*%
D40*
%TO.C,Q3*%
X115737500Y-95850000D03*
X115737500Y-93950000D03*
X113862500Y-94900000D03*
%TD*%
D27*
%TO.C,C12*%
X107000000Y-68100000D03*
X108900000Y-68100000D03*
%TD*%
D41*
%TO.C,C9*%
X108775000Y-72800000D03*
X105825000Y-72800000D03*
%TD*%
D38*
%TO.C,R8*%
X96900000Y-106212500D03*
X96900000Y-104387500D03*
%TD*%
D22*
%TO.C,Q1*%
X93962500Y-73050000D03*
X93962500Y-74950000D03*
X95837500Y-74000000D03*
%TD*%
D42*
%TO.C,R12*%
X115912500Y-98000000D03*
X114087500Y-98000000D03*
%TD*%
D38*
%TO.C,R11*%
X96900000Y-102412500D03*
X96900000Y-100587500D03*
%TD*%
D37*
%TO.C,D3*%
X99900000Y-70137500D03*
X99900000Y-68262500D03*
%TD*%
D27*
%TO.C,C10*%
X107000000Y-70300000D03*
X108900000Y-70300000D03*
%TD*%
D38*
%TO.C,R6*%
X93600000Y-78912500D03*
X93600000Y-77087500D03*
%TD*%
D43*
%TO.C,D5*%
X94200000Y-91700000D03*
X93360000Y-91700000D03*
%TD*%
D23*
%TO.C,C7*%
X105800000Y-103775000D03*
X105800000Y-105675000D03*
%TD*%
D26*
%TO.C,C13*%
X105100000Y-68100000D03*
X103200000Y-68100000D03*
%TD*%
D38*
%TO.C,R10*%
X115700000Y-92012500D03*
X115700000Y-90187500D03*
%TD*%
D44*
%TO.C,J2*%
X93300000Y-101510000D03*
D45*
X93300000Y-104050000D03*
X93300000Y-106590000D03*
X93300000Y-109130000D03*
X93300000Y-111670000D03*
X93300000Y-114210000D03*
X93300000Y-116750000D03*
X93300000Y-119290000D03*
%TD*%
D44*
%TO.C,J3*%
X116160000Y-101510000D03*
D45*
X116160000Y-104050000D03*
X116160000Y-106590000D03*
X116160000Y-109130000D03*
X116160000Y-111670000D03*
X116160000Y-114210000D03*
X116160000Y-116750000D03*
X116160000Y-119290000D03*
%TD*%
%LPD*%
M02*
