%TF.GenerationSoftware,KiCad,Pcbnew,9.0.2*%
%TF.CreationDate,2026-07-16T14:58:56+03:00*%
%TF.ProjectId,sim7080g,73696d37-3038-4306-972e-6b696361645f,rev?*%
%TF.SameCoordinates,Original*%
%TF.FileFunction,Copper,L4,Bot*%
%TF.FilePolarity,Positive*%
%FSLAX46Y46*%
G04 Gerber Fmt 4.6, Leading zero omitted, Abs format (unit mm)*
G04 Created by KiCad (PCBNEW 9.0.2) date 2026-07-16 14:58:56*
%MOMM*%
%LPD*%
G01*
G04 APERTURE LIST*
G04 Aperture macros list*
%AMFreePoly0*
4,1,23,0.500000,-0.750000,0.000000,-0.750000,0.000000,-0.745722,-0.065263,-0.745722,-0.191342,-0.711940,-0.304381,-0.646677,-0.396677,-0.554381,-0.461940,-0.441342,-0.495722,-0.315263,-0.495722,-0.250000,-0.500000,-0.250000,-0.500000,0.250000,-0.495722,0.250000,-0.495722,0.315263,-0.461940,0.441342,-0.396677,0.554381,-0.304381,0.646677,-0.191342,0.711940,-0.065263,0.745722,0.000000,0.745722,
0.000000,0.750000,0.500000,0.750000,0.500000,-0.750000,0.500000,-0.750000,$1*%
%AMFreePoly1*
4,1,23,0.000000,0.745722,0.065263,0.745722,0.191342,0.711940,0.304381,0.646677,0.396677,0.554381,0.461940,0.441342,0.495722,0.315263,0.495722,0.250000,0.500000,0.250000,0.500000,-0.250000,0.495722,-0.250000,0.495722,-0.315263,0.461940,-0.441342,0.396677,-0.554381,0.304381,-0.646677,0.191342,-0.711940,0.065263,-0.745722,0.000000,-0.745722,0.000000,-0.750000,-0.500000,-0.750000,
-0.500000,0.750000,0.000000,0.750000,0.000000,0.745722,0.000000,0.745722,$1*%
G04 Aperture macros list end*
%TA.AperFunction,SMDPad,CuDef*%
%ADD10FreePoly0,0.000000*%
%TD*%
%TA.AperFunction,SMDPad,CuDef*%
%ADD11FreePoly1,0.000000*%
%TD*%
%TA.AperFunction,SMDPad,CuDef*%
%ADD12FreePoly0,270.000000*%
%TD*%
%TA.AperFunction,SMDPad,CuDef*%
%ADD13FreePoly1,270.000000*%
%TD*%
%TA.AperFunction,ComponentPad*%
%ADD14R,1.700000X1.700000*%
%TD*%
%TA.AperFunction,ComponentPad*%
%ADD15C,1.700000*%
%TD*%
%TA.AperFunction,ViaPad*%
%ADD16C,0.500000*%
%TD*%
%TA.AperFunction,ViaPad*%
%ADD17C,0.250000*%
%TD*%
%TA.AperFunction,Conductor*%
%ADD18C,0.200000*%
%TD*%
G04 APERTURE END LIST*
D10*
%TO.P,JP2,1,A*%
%TO.N,Net-(JP2-A)*%
X105800000Y-97100000D03*
D11*
%TO.P,JP2,2,B*%
%TO.N,SIM7080G_RTS*%
X107100000Y-97100000D03*
%TD*%
D12*
%TO.P,JP1,1,A*%
%TO.N,Net-(D1-A2)*%
X115600000Y-85000000D03*
D13*
%TO.P,JP1,2,B*%
%TO.N,Net-(JP1-B)*%
X115600000Y-86300000D03*
%TD*%
D14*
%TO.P,J2,1,Pin_1*%
%TO.N,SIM7080G_DTR*%
X93300000Y-101510000D03*
D15*
%TO.P,J2,2,Pin_2*%
%TO.N,SIM7080G_PWR*%
X93300000Y-104050000D03*
%TO.P,J2,3,Pin_3*%
%TO.N,SIM7080G_RTS*%
X93300000Y-106590000D03*
%TO.P,J2,4,Pin_4*%
%TO.N,unconnected-(J2-Pin_4-Pad4)*%
X93300000Y-109130000D03*
%TO.P,J2,5,Pin_5*%
%TO.N,unconnected-(J2-Pin_5-Pad5)*%
X93300000Y-111670000D03*
%TO.P,J2,6,Pin_6*%
%TO.N,unconnected-(J2-Pin_6-Pad6)*%
X93300000Y-114210000D03*
%TO.P,J2,7,Pin_7*%
%TO.N,+3V3*%
X93300000Y-116750000D03*
%TO.P,J2,8,Pin_8*%
%TO.N,GND*%
X93300000Y-119290000D03*
%TD*%
D14*
%TO.P,J3,1,Pin_1*%
%TO.N,SIM7080G_RING*%
X116160000Y-101510000D03*
D15*
%TO.P,J3,2,Pin_2*%
%TO.N,SIM7080G_CTS*%
X116160000Y-104050000D03*
%TO.P,J3,3,Pin_3*%
%TO.N,SIM7080G_TX*%
X116160000Y-106590000D03*
%TO.P,J3,4,Pin_4*%
%TO.N,SIM7080G_RX*%
X116160000Y-109130000D03*
%TO.P,J3,5,Pin_5*%
%TO.N,unconnected-(J3-Pin_5-Pad5)*%
X116160000Y-111670000D03*
%TO.P,J3,6,Pin_6*%
%TO.N,unconnected-(J3-Pin_6-Pad6)*%
X116160000Y-114210000D03*
%TO.P,J3,7,Pin_7*%
%TO.N,unconnected-(J3-Pin_7-Pad7)*%
X116160000Y-116750000D03*
%TO.P,J3,8,Pin_8*%
%TO.N,GND*%
X116160000Y-119290000D03*
%TD*%
D10*
%TO.P,JP3,1,A*%
%TO.N,Net-(JP3-A)*%
X105800000Y-99800000D03*
D11*
%TO.P,JP3,2,B*%
%TO.N,SIM7080G_CTS*%
X107100000Y-99800000D03*
%TD*%
D16*
%TO.N,GND*%
X101800000Y-78200000D03*
X101700000Y-87900000D03*
X96900000Y-100587500D03*
X103200000Y-70300000D03*
X94200000Y-91700000D03*
X93725000Y-69175000D03*
X107500000Y-81100000D03*
X112450000Y-80650000D03*
X103850000Y-72900000D03*
X108900000Y-70300000D03*
X103300000Y-107902500D03*
X100200000Y-93300000D03*
X105825000Y-72800000D03*
X105800000Y-103775000D03*
X111000000Y-99325000D03*
X99350000Y-120802500D03*
X106800000Y-93300000D03*
X107400000Y-78200000D03*
X99300000Y-98400000D03*
X107500000Y-84500000D03*
X95837500Y-74000000D03*
X108900000Y-68100000D03*
X113862500Y-94900000D03*
X112450000Y-78450000D03*
X105300000Y-98671000D03*
X111050000Y-112002500D03*
X107700000Y-96100000D03*
X112400000Y-103775000D03*
X104600000Y-87900000D03*
X111050000Y-120802500D03*
X101700000Y-81100000D03*
X105700000Y-75700000D03*
X96750000Y-86150000D03*
X112450000Y-85050000D03*
X96675000Y-69175000D03*
X115600000Y-83100000D03*
X99600000Y-105700000D03*
X95337500Y-94600000D03*
X104600000Y-81100000D03*
X115700000Y-90187500D03*
X109000000Y-93300000D03*
X112725000Y-69175000D03*
X101700000Y-84500000D03*
X93600000Y-77087500D03*
X103200000Y-68100000D03*
X99350000Y-112002500D03*
X107500000Y-87900000D03*
X104600000Y-84500000D03*
X103400000Y-103850000D03*
X99250000Y-82400000D03*
X115675000Y-69175000D03*
%TO.N,+1V8*%
X105000000Y-95900000D03*
X102300000Y-74100000D03*
X103000000Y-94400000D03*
X102300000Y-75100000D03*
X103000000Y-92200000D03*
X102500000Y-95500000D03*
%TO.N,+3V3*%
X103100000Y-100200000D03*
X109800000Y-92600000D03*
X101100000Y-107200000D03*
X104600000Y-94600000D03*
X109900000Y-76300000D03*
X103100000Y-102300000D03*
X114100000Y-76300000D03*
X110900000Y-76300000D03*
%TO.N,SIM_VDD*%
X102300000Y-105700000D03*
X111800000Y-99300000D03*
X103600000Y-106200000D03*
X111200000Y-92500000D03*
%TO.N,Net-(U3-RST)*%
X105400000Y-101600000D03*
X104700000Y-102300000D03*
%TO.N,Net-(D1-A2)*%
X115500000Y-84900000D03*
%TO.N,SIM_CLK*%
X108300000Y-102500000D03*
X111200000Y-102300000D03*
X108800000Y-96600000D03*
X111700000Y-98100000D03*
X105100000Y-92200000D03*
X108300000Y-103500000D03*
%TO.N,SIM_DATA*%
X110800000Y-101100000D03*
X102500000Y-94800000D03*
X106700000Y-95300000D03*
X109300000Y-99600000D03*
X111500000Y-102900000D03*
X110800000Y-103600000D03*
%TO.N,SIM_RST*%
X109500000Y-99000000D03*
X108500000Y-99000000D03*
%TO.N,PWRKEY*%
X94300000Y-84500000D03*
X93500000Y-91800000D03*
X101900000Y-77200000D03*
X93500000Y-92800000D03*
%TO.N,GNSS_ANT*%
X100100000Y-77800000D03*
X98900000Y-76300000D03*
D17*
%TO.N,SIM7080G_DTR*%
X101000000Y-100100000D03*
D16*
X100200000Y-100900000D03*
%TO.N,SIM7080G_RTS*%
X103800000Y-104900000D03*
%TO.N,SIM7080G_RING*%
X106600000Y-104700000D03*
X111100000Y-104700000D03*
X103000000Y-105000000D03*
%TO.N,SIM7080G_TX*%
X106600000Y-94600000D03*
X103500000Y-98300000D03*
X114800000Y-101900000D03*
%TO.N,SIM7080G_CTS*%
X107100000Y-100200000D03*
%TO.N,Net-(JP1-B)*%
X114500000Y-86700000D03*
D17*
%TO.N,Net-(JP2-A)*%
X102000000Y-100100000D03*
D16*
%TO.N,Net-(JP3-A)*%
X103600000Y-102900000D03*
%TO.N,Net-(Q2-B)*%
X96900000Y-103700000D03*
X96900000Y-102700000D03*
%TO.N,NETLIGHT*%
X111400000Y-83400000D03*
X113500000Y-83400000D03*
%TO.N,SIM_DTR*%
X100000000Y-95000000D03*
X101000000Y-95000000D03*
%TO.N,SIM_TX*%
X97900000Y-84600000D03*
X104000000Y-94400000D03*
%TO.N,SIM_RX*%
X94300000Y-83800000D03*
X95100000Y-81600000D03*
X102500000Y-96200000D03*
X99500000Y-96100000D03*
%TO.N,SIM_CTS*%
X101400000Y-95900000D03*
X100000000Y-95700000D03*
%TO.N,SIM_RTS*%
X97900000Y-94400000D03*
X100800000Y-94400000D03*
%TD*%
D18*
%TO.N,+1V8*%
X102300000Y-75100000D02*
X102300000Y-74100000D01*
X102500000Y-95500000D02*
X102700000Y-95500000D01*
X103000000Y-94400000D02*
X103000000Y-92200000D01*
X102700000Y-95500000D02*
X103100000Y-95900000D01*
X103100000Y-95900000D02*
X105000000Y-95900000D01*
%TO.N,+3V3*%
X114100000Y-76300000D02*
X109900000Y-76300000D01*
X101100000Y-104700000D02*
X101100000Y-107200000D01*
X103100000Y-102300000D02*
X103100000Y-102700000D01*
X104500000Y-92000000D02*
X105000000Y-91500000D01*
X104500000Y-92300000D02*
X104500000Y-92000000D01*
X103000000Y-100300000D02*
X103100000Y-100200000D01*
X103000000Y-100700000D02*
X103000000Y-100300000D01*
X103100000Y-102300000D02*
X103100000Y-100800000D01*
X105000000Y-91500000D02*
X108700000Y-91500000D01*
X104600000Y-94600000D02*
X104600000Y-92400000D01*
X108700000Y-91500000D02*
X109800000Y-92600000D01*
X103100000Y-102700000D02*
X101100000Y-104700000D01*
X104600000Y-92400000D02*
X104500000Y-92300000D01*
X103100000Y-100800000D02*
X103000000Y-100700000D01*
%TO.N,SIM_VDD*%
X103300000Y-105700000D02*
X102300000Y-105700000D01*
X111600000Y-101100000D02*
X105400000Y-107300000D01*
X111200000Y-92500000D02*
X111200000Y-98700000D01*
X111600000Y-99300000D02*
X111800000Y-99300000D01*
X103736000Y-106136000D02*
X103700000Y-106100000D01*
X104900000Y-107300000D02*
X103300000Y-105700000D01*
X111200000Y-98700000D02*
X111600000Y-99100000D01*
X111600000Y-99100000D02*
X111600000Y-101100000D01*
X105400000Y-107300000D02*
X104900000Y-107300000D01*
X103700000Y-106100000D02*
X103600000Y-106200000D01*
%TO.N,Net-(U3-RST)*%
X105400000Y-101600000D02*
X104700000Y-102300000D01*
%TO.N,Net-(D1-A2)*%
X115500000Y-84900000D02*
X115600000Y-85000000D01*
%TO.N,SIM_CLK*%
X108300000Y-102500000D02*
X108300000Y-103500000D01*
X111200000Y-102300000D02*
X111200000Y-102000000D01*
X108300000Y-95500000D02*
X106600000Y-93800000D01*
X105100000Y-92400000D02*
X105100000Y-92200000D01*
X106600000Y-93800000D02*
X106500000Y-93800000D01*
X112400000Y-98800000D02*
X111700000Y-98100000D01*
X106500000Y-93800000D02*
X105100000Y-92400000D01*
X111200000Y-102000000D02*
X112400000Y-100800000D01*
X112400000Y-100800000D02*
X112400000Y-98800000D01*
X108800000Y-96600000D02*
X108300000Y-96100000D01*
X108300000Y-96100000D02*
X108300000Y-95500000D01*
%TO.N,SIM_DATA*%
X103000000Y-95300000D02*
X102500000Y-94800000D01*
X106700000Y-95300000D02*
X103000000Y-95300000D01*
X110800000Y-101100000D02*
X109300000Y-99600000D01*
X111500000Y-102900000D02*
X110800000Y-103600000D01*
%TO.N,SIM_RST*%
X108500000Y-99000000D02*
X109500000Y-99000000D01*
%TO.N,PWRKEY*%
X94500000Y-84500000D02*
X101800000Y-77200000D01*
X93500000Y-91800000D02*
X93500000Y-92800000D01*
X94300000Y-84500000D02*
X94500000Y-84500000D01*
%TO.N,GNSS_ANT*%
X98900000Y-76600000D02*
X98900000Y-76300000D01*
X100100000Y-77800000D02*
X98900000Y-76600000D01*
%TO.N,SIM7080G_DTR*%
X101000000Y-100100000D02*
X100200000Y-100900000D01*
%TO.N,SIM7080G_RTS*%
X107900000Y-99300000D02*
X107900000Y-100800000D01*
X107100000Y-98500000D02*
X107900000Y-99300000D01*
X107100000Y-97100000D02*
X107100000Y-98500000D01*
X107900000Y-100800000D02*
X103800000Y-104900000D01*
%TO.N,SIM7080G_RING*%
X114100000Y-101300000D02*
X116000000Y-101300000D01*
X111800000Y-104000000D02*
X111800000Y-103600000D01*
X103600000Y-105500000D02*
X105800000Y-105500000D01*
X105800000Y-105500000D02*
X106600000Y-104700000D01*
X103100000Y-105000000D02*
X103600000Y-105500000D01*
X111800000Y-103600000D02*
X114100000Y-101300000D01*
X111100000Y-104700000D02*
X111800000Y-104000000D01*
%TO.N,SIM7080G_TX*%
X107300000Y-95100000D02*
X106800000Y-94600000D01*
X114800000Y-102100000D02*
X114000000Y-102900000D01*
X105700000Y-95900000D02*
X106900000Y-95900000D01*
X103500000Y-98300000D02*
X105000000Y-96800000D01*
X107300000Y-95500000D02*
X107300000Y-95100000D01*
X106800000Y-94600000D02*
X106600000Y-94600000D01*
X114000000Y-104400000D02*
X116200000Y-106600000D01*
X114800000Y-101900000D02*
X114800000Y-102100000D01*
X105000000Y-96800000D02*
X105000000Y-96600000D01*
X105000000Y-96600000D02*
X105700000Y-95900000D01*
X106900000Y-95900000D02*
X107300000Y-95500000D01*
X114000000Y-102900000D02*
X114000000Y-104400000D01*
%TO.N,SIM7080G_CTS*%
X107100000Y-100200000D02*
X107100000Y-99800000D01*
%TO.N,Net-(JP1-B)*%
X115600000Y-86300000D02*
X114900000Y-86300000D01*
X114900000Y-86300000D02*
X114500000Y-86700000D01*
%TO.N,Net-(JP2-A)*%
X105500000Y-97100000D02*
X105800000Y-97100000D01*
X102000000Y-100100000D02*
X102500000Y-100100000D01*
X102500000Y-100100000D02*
X105500000Y-97100000D01*
%TO.N,Net-(JP3-A)*%
X103600000Y-102500000D02*
X105800000Y-100300000D01*
X105800000Y-100300000D02*
X105800000Y-99800000D01*
X103600000Y-102900000D02*
X103600000Y-102500000D01*
%TO.N,Net-(Q2-B)*%
X96900000Y-102700000D02*
X96900000Y-103700000D01*
%TO.N,NETLIGHT*%
X113500000Y-83400000D02*
X111400000Y-83400000D01*
%TO.N,SIM_DTR*%
X101000000Y-95000000D02*
X100000000Y-95000000D01*
%TO.N,SIM_TX*%
X104000000Y-92400000D02*
X98700000Y-87100000D01*
X98700000Y-87100000D02*
X98700000Y-85400000D01*
X98700000Y-85400000D02*
X97900000Y-84600000D01*
X104000000Y-94400000D02*
X104000000Y-92400000D01*
%TO.N,SIM_RX*%
X94300000Y-83800000D02*
X94300000Y-82400000D01*
X99900000Y-96500000D02*
X99500000Y-96100000D01*
X101900000Y-96200000D02*
X101600000Y-96500000D01*
X101600000Y-96500000D02*
X99900000Y-96500000D01*
X102500000Y-96200000D02*
X101900000Y-96200000D01*
X94300000Y-82400000D02*
X95100000Y-81600000D01*
%TO.N,SIM_CTS*%
X101400000Y-95900000D02*
X101200000Y-95700000D01*
X101200000Y-95700000D02*
X100000000Y-95700000D01*
%TO.N,SIM_RTS*%
X100800000Y-94400000D02*
X97900000Y-94400000D01*
%TD*%
%TA.AperFunction,Conductor*%
%TO.N,GND*%
G36*
X116858691Y-66519407D02*
G01*
X116894655Y-66568907D01*
X116899500Y-66599500D01*
X116899500Y-100260500D01*
X116880593Y-100318691D01*
X116831093Y-100354655D01*
X116800500Y-100359500D01*
X115265139Y-100359500D01*
X115265136Y-100359501D01*
X115240009Y-100362414D01*
X115137235Y-100407794D01*
X115057794Y-100487235D01*
X115012414Y-100590011D01*
X115009500Y-100615130D01*
X115009500Y-100800500D01*
X114990593Y-100858691D01*
X114941093Y-100894655D01*
X114910500Y-100899500D01*
X114152727Y-100899500D01*
X114047273Y-100899500D01*
X113986092Y-100915893D01*
X113945407Y-100926794D01*
X113854091Y-100979516D01*
X113854090Y-100979517D01*
X112152935Y-102680670D01*
X112098418Y-102708447D01*
X112037986Y-102698876D01*
X111997195Y-102660166D01*
X111940512Y-102561989D01*
X111940510Y-102561987D01*
X111940509Y-102561985D01*
X111838015Y-102459491D01*
X111838012Y-102459489D01*
X111838010Y-102459487D01*
X111800000Y-102437542D01*
X111759059Y-102392072D01*
X111750500Y-102351806D01*
X111750500Y-102227524D01*
X111750499Y-102227522D01*
X111739646Y-102187017D01*
X111720570Y-102115826D01*
X111723771Y-102054725D01*
X111746190Y-102020201D01*
X112720480Y-101045913D01*
X112756419Y-100983666D01*
X112773205Y-100954592D01*
X112773205Y-100954590D01*
X112773207Y-100954588D01*
X112800500Y-100852727D01*
X112800500Y-100747273D01*
X112800500Y-98747273D01*
X112773207Y-98645413D01*
X112745995Y-98598281D01*
X112720480Y-98554087D01*
X112645913Y-98479519D01*
X112645913Y-98479520D01*
X112279496Y-98113103D01*
X112251719Y-98058586D01*
X112250500Y-98043099D01*
X112250500Y-98027525D01*
X112234130Y-97966433D01*
X112212984Y-97887515D01*
X112212982Y-97887512D01*
X112212982Y-97887510D01*
X112140512Y-97761989D01*
X112140510Y-97761987D01*
X112140509Y-97761985D01*
X112038015Y-97659491D01*
X112038012Y-97659489D01*
X112038010Y-97659487D01*
X111912488Y-97587017D01*
X111912489Y-97587017D01*
X111799498Y-97556741D01*
X111772475Y-97549500D01*
X111699500Y-97549500D01*
X111641309Y-97530593D01*
X111605345Y-97481093D01*
X111600500Y-97450500D01*
X111600500Y-92919031D01*
X111619407Y-92860840D01*
X111629490Y-92849033D01*
X111640509Y-92838015D01*
X111640512Y-92838010D01*
X111712982Y-92712489D01*
X111712982Y-92712487D01*
X111712984Y-92712485D01*
X111750500Y-92572475D01*
X111750500Y-92427525D01*
X111712984Y-92287515D01*
X111712982Y-92287512D01*
X111712982Y-92287510D01*
X111640512Y-92161989D01*
X111640510Y-92161987D01*
X111640509Y-92161985D01*
X111538015Y-92059491D01*
X111538012Y-92059489D01*
X111538010Y-92059487D01*
X111412488Y-91987017D01*
X111412489Y-91987017D01*
X111326671Y-91964022D01*
X111272475Y-91949500D01*
X111127525Y-91949500D01*
X111073329Y-91964022D01*
X110987510Y-91987017D01*
X110861989Y-92059487D01*
X110759487Y-92161989D01*
X110687017Y-92287510D01*
X110667455Y-92360516D01*
X110649500Y-92427525D01*
X110649500Y-92572475D01*
X110653529Y-92587510D01*
X110687017Y-92712489D01*
X110759487Y-92838010D01*
X110759489Y-92838012D01*
X110759491Y-92838015D01*
X110770505Y-92849029D01*
X110798281Y-92903544D01*
X110799500Y-92919031D01*
X110799500Y-98647273D01*
X110799500Y-98752727D01*
X110823570Y-98842559D01*
X110826794Y-98854592D01*
X110879516Y-98945908D01*
X110879518Y-98945910D01*
X110879520Y-98945913D01*
X111170505Y-99236898D01*
X111198281Y-99291413D01*
X111199500Y-99306900D01*
X111199500Y-100523515D01*
X111180593Y-100581706D01*
X111131093Y-100617670D01*
X111069907Y-100617670D01*
X111051001Y-100609252D01*
X111012488Y-100587017D01*
X111012485Y-100587016D01*
X110872475Y-100549500D01*
X110872474Y-100549500D01*
X110856901Y-100549500D01*
X110798710Y-100530593D01*
X110786897Y-100520504D01*
X109879496Y-99613103D01*
X109851719Y-99558586D01*
X109851582Y-99557694D01*
X109850500Y-99550434D01*
X109850500Y-99527525D01*
X109842805Y-99498808D01*
X109841974Y-99493233D01*
X109846146Y-99468359D01*
X109847466Y-99443163D01*
X109851385Y-99437127D01*
X109852096Y-99432891D01*
X109857727Y-99427360D01*
X109869887Y-99408636D01*
X109940509Y-99338015D01*
X109982149Y-99265893D01*
X110012982Y-99212489D01*
X110012982Y-99212487D01*
X110012984Y-99212485D01*
X110050500Y-99072475D01*
X110050500Y-98927525D01*
X110012984Y-98787515D01*
X110012982Y-98787512D01*
X110012982Y-98787510D01*
X109940512Y-98661989D01*
X109940510Y-98661987D01*
X109940509Y-98661985D01*
X109838015Y-98559491D01*
X109838012Y-98559489D01*
X109838010Y-98559487D01*
X109712488Y-98487017D01*
X109712489Y-98487017D01*
X109682896Y-98479087D01*
X109572475Y-98449500D01*
X109427525Y-98449500D01*
X109365790Y-98466041D01*
X109287510Y-98487017D01*
X109161989Y-98559487D01*
X109161988Y-98559488D01*
X109161985Y-98559490D01*
X109161985Y-98559491D01*
X109150970Y-98570505D01*
X109143855Y-98574130D01*
X109139160Y-98580593D01*
X109117111Y-98587756D01*
X109096456Y-98598281D01*
X109080969Y-98599500D01*
X108919031Y-98599500D01*
X108860840Y-98580593D01*
X108849033Y-98570509D01*
X108838015Y-98559491D01*
X108838012Y-98559489D01*
X108838010Y-98559487D01*
X108712488Y-98487017D01*
X108712489Y-98487017D01*
X108682896Y-98479087D01*
X108572475Y-98449500D01*
X108427525Y-98449500D01*
X108365790Y-98466041D01*
X108287510Y-98487017D01*
X108161989Y-98559487D01*
X108059487Y-98661989D01*
X108039407Y-98696770D01*
X107993938Y-98737711D01*
X107933087Y-98744107D01*
X107883667Y-98717274D01*
X107529496Y-98363103D01*
X107525869Y-98355985D01*
X107519407Y-98351290D01*
X107512243Y-98329241D01*
X107501719Y-98308586D01*
X107500500Y-98293099D01*
X107500500Y-98106039D01*
X107519407Y-98047848D01*
X107550001Y-98020302D01*
X107559757Y-98014670D01*
X107623028Y-97966120D01*
X107716120Y-97873028D01*
X107764670Y-97809757D01*
X107830496Y-97695743D01*
X107861015Y-97622064D01*
X107895090Y-97494897D01*
X107905500Y-97415826D01*
X107905500Y-96784174D01*
X107895090Y-96705103D01*
X107861015Y-96577936D01*
X107848314Y-96547273D01*
X107830498Y-96504261D01*
X107830496Y-96504257D01*
X107764670Y-96390243D01*
X107748298Y-96368907D01*
X107716125Y-96326978D01*
X107716123Y-96326976D01*
X107716120Y-96326972D01*
X107623028Y-96233880D01*
X107623023Y-96233876D01*
X107623021Y-96233874D01*
X107559760Y-96185332D01*
X107537489Y-96172474D01*
X107445743Y-96119504D01*
X107445738Y-96119501D01*
X107442016Y-96117960D01*
X107395490Y-96078223D01*
X107381207Y-96018728D01*
X107404622Y-95962200D01*
X107409882Y-95956509D01*
X107620480Y-95745913D01*
X107635557Y-95719799D01*
X107673207Y-95654587D01*
X107674256Y-95650669D01*
X107680018Y-95641795D01*
X107681674Y-95631340D01*
X107696305Y-95616708D01*
X107707573Y-95599354D01*
X107717454Y-95595559D01*
X107724939Y-95588075D01*
X107745375Y-95584838D01*
X107764692Y-95577421D01*
X107774916Y-95580159D01*
X107785371Y-95578504D01*
X107803808Y-95587897D01*
X107823794Y-95593251D01*
X107839888Y-95606281D01*
X107870504Y-95636897D01*
X107898281Y-95691414D01*
X107899500Y-95706901D01*
X107899500Y-96047273D01*
X107899500Y-96152727D01*
X107921243Y-96233874D01*
X107926794Y-96254592D01*
X107979516Y-96345908D01*
X107979520Y-96345913D01*
X108220503Y-96586895D01*
X108248281Y-96641412D01*
X108249500Y-96656899D01*
X108249500Y-96672475D01*
X108269178Y-96745912D01*
X108287017Y-96812489D01*
X108359487Y-96938010D01*
X108359489Y-96938012D01*
X108359491Y-96938015D01*
X108461985Y-97040509D01*
X108461987Y-97040510D01*
X108461989Y-97040512D01*
X108587511Y-97112982D01*
X108587512Y-97112982D01*
X108587515Y-97112984D01*
X108727525Y-97150500D01*
X108727526Y-97150500D01*
X108872474Y-97150500D01*
X108872475Y-97150500D01*
X109012485Y-97112984D01*
X109012487Y-97112982D01*
X109012489Y-97112982D01*
X109138010Y-97040512D01*
X109138010Y-97040511D01*
X109138015Y-97040509D01*
X109240509Y-96938015D01*
X109240512Y-96938010D01*
X109312982Y-96812489D01*
X109312982Y-96812487D01*
X109312984Y-96812485D01*
X109350500Y-96672475D01*
X109350500Y-96527525D01*
X109312984Y-96387515D01*
X109312982Y-96387512D01*
X109312982Y-96387510D01*
X109240512Y-96261989D01*
X109240510Y-96261987D01*
X109240509Y-96261985D01*
X109138015Y-96159491D01*
X109138012Y-96159489D01*
X109138010Y-96159487D01*
X109012488Y-96087017D01*
X109012489Y-96087017D01*
X108945178Y-96068981D01*
X108872475Y-96049500D01*
X108872474Y-96049500D01*
X108856901Y-96049500D01*
X108849303Y-96047031D01*
X108841414Y-96048281D01*
X108820758Y-96037756D01*
X108798710Y-96030593D01*
X108786897Y-96020504D01*
X108729496Y-95963103D01*
X108701719Y-95908586D01*
X108700500Y-95893099D01*
X108700500Y-95447274D01*
X108700499Y-95447270D01*
X108693321Y-95420479D01*
X108693321Y-95420480D01*
X108673207Y-95345412D01*
X108673205Y-95345409D01*
X108673205Y-95345407D01*
X108620483Y-95254091D01*
X108620481Y-95254089D01*
X108620480Y-95254087D01*
X106845913Y-93479520D01*
X106845910Y-93479518D01*
X106845908Y-93479516D01*
X106754591Y-93426794D01*
X106754587Y-93426792D01*
X106696334Y-93411183D01*
X106651954Y-93385561D01*
X105667325Y-92400932D01*
X105639548Y-92346415D01*
X105641702Y-92305305D01*
X105650500Y-92272475D01*
X105650500Y-92127525D01*
X105623061Y-92025122D01*
X105626263Y-91964022D01*
X105664769Y-91916472D01*
X105718688Y-91900500D01*
X108493099Y-91900500D01*
X108551290Y-91919407D01*
X108563103Y-91929496D01*
X109220504Y-92586897D01*
X109248281Y-92641414D01*
X109249500Y-92656901D01*
X109249500Y-92672474D01*
X109287017Y-92812489D01*
X109359487Y-92938010D01*
X109359489Y-92938012D01*
X109359491Y-92938015D01*
X109461985Y-93040509D01*
X109461987Y-93040510D01*
X109461989Y-93040512D01*
X109587511Y-93112982D01*
X109587512Y-93112982D01*
X109587515Y-93112984D01*
X109727525Y-93150500D01*
X109727526Y-93150500D01*
X109872474Y-93150500D01*
X109872475Y-93150500D01*
X110012485Y-93112984D01*
X110012487Y-93112982D01*
X110012489Y-93112982D01*
X110138010Y-93040512D01*
X110138010Y-93040511D01*
X110138015Y-93040509D01*
X110240509Y-92938015D01*
X110240512Y-92938010D01*
X110312982Y-92812489D01*
X110312982Y-92812487D01*
X110312984Y-92812485D01*
X110350500Y-92672475D01*
X110350500Y-92527525D01*
X110312984Y-92387515D01*
X110312982Y-92387512D01*
X110312982Y-92387510D01*
X110240512Y-92261989D01*
X110240510Y-92261987D01*
X110240509Y-92261985D01*
X110138015Y-92159491D01*
X110138012Y-92159489D01*
X110138010Y-92159487D01*
X110012488Y-92087017D01*
X110012489Y-92087017D01*
X109909761Y-92059491D01*
X109872475Y-92049500D01*
X109872474Y-92049500D01*
X109856901Y-92049500D01*
X109798710Y-92030593D01*
X109786897Y-92020504D01*
X109390323Y-91623930D01*
X108945913Y-91179520D01*
X108945910Y-91179518D01*
X108945909Y-91179517D01*
X108945908Y-91179516D01*
X108854591Y-91126794D01*
X108854593Y-91126794D01*
X108815070Y-91116204D01*
X108752727Y-91099500D01*
X105052727Y-91099500D01*
X104947273Y-91099500D01*
X104857440Y-91123570D01*
X104845408Y-91126794D01*
X104799750Y-91153156D01*
X104770800Y-91169870D01*
X104754086Y-91179520D01*
X104679519Y-91254086D01*
X104679520Y-91254087D01*
X104179516Y-91754091D01*
X104149212Y-91806578D01*
X104103742Y-91847518D01*
X104042892Y-91853912D01*
X103993473Y-91827080D01*
X99129496Y-86963103D01*
X99101719Y-86908586D01*
X99100500Y-86893099D01*
X99100500Y-86627525D01*
X113949500Y-86627525D01*
X113949500Y-86772474D01*
X113987017Y-86912489D01*
X114059487Y-87038010D01*
X114059489Y-87038012D01*
X114059491Y-87038015D01*
X114161985Y-87140509D01*
X114161987Y-87140510D01*
X114161989Y-87140512D01*
X114287511Y-87212982D01*
X114287512Y-87212982D01*
X114287515Y-87212984D01*
X114427525Y-87250500D01*
X114427526Y-87250500D01*
X114572474Y-87250500D01*
X114572475Y-87250500D01*
X114712485Y-87212984D01*
X114712487Y-87212982D01*
X114712489Y-87212982D01*
X114838010Y-87140512D01*
X114838010Y-87140511D01*
X114838015Y-87140509D01*
X114917723Y-87060800D01*
X114972237Y-87033024D01*
X115025610Y-87039340D01*
X115077936Y-87061015D01*
X115205103Y-87095090D01*
X115284174Y-87105500D01*
X115284175Y-87105500D01*
X115915825Y-87105500D01*
X115915826Y-87105500D01*
X115994897Y-87095090D01*
X116122064Y-87061015D01*
X116195743Y-87030496D01*
X116309757Y-86964670D01*
X116373028Y-86916120D01*
X116466120Y-86823028D01*
X116514670Y-86759757D01*
X116580496Y-86645743D01*
X116611015Y-86572064D01*
X116645090Y-86444897D01*
X116655500Y-86365826D01*
X116655500Y-85800000D01*
X116654197Y-85771812D01*
X116628600Y-85681849D01*
X116630860Y-85620706D01*
X116631714Y-85618971D01*
X116631557Y-85618910D01*
X116634871Y-85610356D01*
X116655500Y-85500000D01*
X116655500Y-84934175D01*
X116655500Y-84934174D01*
X116645090Y-84855103D01*
X116611015Y-84727936D01*
X116580496Y-84654257D01*
X116514670Y-84540243D01*
X116466120Y-84476972D01*
X116373028Y-84383880D01*
X116373023Y-84383876D01*
X116373021Y-84383874D01*
X116309760Y-84335332D01*
X116195738Y-84269501D01*
X116122063Y-84238984D01*
X116052576Y-84220365D01*
X115994897Y-84204910D01*
X115994892Y-84204909D01*
X115994891Y-84204909D01*
X115915827Y-84194500D01*
X115915826Y-84194500D01*
X115284174Y-84194500D01*
X115284172Y-84194500D01*
X115205108Y-84204909D01*
X115205105Y-84204909D01*
X115205103Y-84204910D01*
X115172856Y-84213550D01*
X115077936Y-84238984D01*
X115004261Y-84269501D01*
X114890239Y-84335332D01*
X114826978Y-84383874D01*
X114733874Y-84476978D01*
X114685332Y-84540239D01*
X114619501Y-84654261D01*
X114588984Y-84727936D01*
X114569649Y-84800097D01*
X114559490Y-84838013D01*
X114554909Y-84855108D01*
X114544500Y-84934172D01*
X114544500Y-85500004D01*
X114545802Y-85528183D01*
X114545803Y-85528187D01*
X114571400Y-85618150D01*
X114569139Y-85679294D01*
X114568300Y-85681033D01*
X114568443Y-85681089D01*
X114565129Y-85689642D01*
X114544500Y-85799999D01*
X114544500Y-86048099D01*
X114542031Y-86055696D01*
X114543281Y-86063586D01*
X114532756Y-86084241D01*
X114525593Y-86106290D01*
X114515504Y-86118103D01*
X114513103Y-86120504D01*
X114458586Y-86148281D01*
X114443099Y-86149500D01*
X114427525Y-86149500D01*
X114365790Y-86166041D01*
X114287510Y-86187017D01*
X114161989Y-86259487D01*
X114059487Y-86361989D01*
X113987017Y-86487510D01*
X113949500Y-86627525D01*
X99100500Y-86627525D01*
X99100500Y-85347274D01*
X99100499Y-85347270D01*
X99093321Y-85320479D01*
X99093321Y-85320480D01*
X99073207Y-85245412D01*
X99073205Y-85245409D01*
X99073205Y-85245407D01*
X99020483Y-85154091D01*
X99020482Y-85154090D01*
X99020481Y-85154089D01*
X99020480Y-85154087D01*
X98479496Y-84613103D01*
X98451719Y-84558586D01*
X98450500Y-84543099D01*
X98450500Y-84527525D01*
X98436954Y-84476972D01*
X98412984Y-84387515D01*
X98412982Y-84387512D01*
X98412982Y-84387510D01*
X98340512Y-84261989D01*
X98340510Y-84261987D01*
X98340509Y-84261985D01*
X98238015Y-84159491D01*
X98238012Y-84159489D01*
X98238010Y-84159487D01*
X98112488Y-84087017D01*
X98112489Y-84087017D01*
X98082896Y-84079087D01*
X97972475Y-84049500D01*
X97827525Y-84049500D01*
X97765790Y-84066041D01*
X97687510Y-84087017D01*
X97561989Y-84159487D01*
X97459487Y-84261989D01*
X97387017Y-84387510D01*
X97349500Y-84527525D01*
X97349500Y-84672474D01*
X97387017Y-84812489D01*
X97459487Y-84938010D01*
X97459489Y-84938012D01*
X97459491Y-84938015D01*
X97561985Y-85040509D01*
X97561987Y-85040510D01*
X97561989Y-85040512D01*
X97687511Y-85112982D01*
X97687512Y-85112982D01*
X97687515Y-85112984D01*
X97827525Y-85150500D01*
X97843099Y-85150500D01*
X97901290Y-85169407D01*
X97913103Y-85179496D01*
X98270504Y-85536897D01*
X98298281Y-85591414D01*
X98299500Y-85606901D01*
X98299500Y-87047273D01*
X98299500Y-87152727D01*
X98323570Y-87242559D01*
X98326794Y-87254592D01*
X98379516Y-87345908D01*
X98379518Y-87345910D01*
X98379520Y-87345913D01*
X102657539Y-91623932D01*
X102685315Y-91678447D01*
X102675744Y-91738879D01*
X102657538Y-91763937D01*
X102559491Y-91861984D01*
X102559487Y-91861989D01*
X102487017Y-91987510D01*
X102476939Y-92025123D01*
X102449500Y-92127525D01*
X102449500Y-92272475D01*
X102469312Y-92346415D01*
X102487017Y-92412489D01*
X102559487Y-92538010D01*
X102559489Y-92538012D01*
X102559491Y-92538015D01*
X102570505Y-92549029D01*
X102598281Y-92603544D01*
X102599500Y-92619031D01*
X102599500Y-93980968D01*
X102580593Y-94039159D01*
X102570506Y-94050969D01*
X102559492Y-94061983D01*
X102559487Y-94061989D01*
X102487017Y-94187511D01*
X102484534Y-94193507D01*
X102481746Y-94192352D01*
X102455156Y-94233255D01*
X102418515Y-94251913D01*
X102287515Y-94287015D01*
X102287511Y-94287017D01*
X102161989Y-94359487D01*
X102059487Y-94461989D01*
X101987017Y-94587510D01*
X101964251Y-94672474D01*
X101949500Y-94727525D01*
X101949500Y-94872475D01*
X101962516Y-94921050D01*
X101987016Y-95012486D01*
X102037831Y-95100500D01*
X102050552Y-95160349D01*
X102037831Y-95199500D01*
X101987016Y-95287513D01*
X101949500Y-95427525D01*
X101949500Y-95431969D01*
X101930593Y-95490160D01*
X101881093Y-95526124D01*
X101819907Y-95526124D01*
X101780498Y-95501974D01*
X101738015Y-95459491D01*
X101738012Y-95459489D01*
X101738010Y-95459487D01*
X101612488Y-95387017D01*
X101612486Y-95387016D01*
X101563670Y-95373935D01*
X101512356Y-95340610D01*
X101490431Y-95283488D01*
X101503560Y-95228806D01*
X101512984Y-95212485D01*
X101550500Y-95072475D01*
X101550500Y-94927525D01*
X101512984Y-94787515D01*
X101512982Y-94787512D01*
X101512982Y-94787510D01*
X101440512Y-94661989D01*
X101440510Y-94661987D01*
X101440509Y-94661985D01*
X101369886Y-94591362D01*
X101342111Y-94536848D01*
X101344266Y-94495736D01*
X101350500Y-94472475D01*
X101350500Y-94327525D01*
X101312984Y-94187515D01*
X101312982Y-94187511D01*
X101312982Y-94187510D01*
X101240512Y-94061989D01*
X101240510Y-94061987D01*
X101240509Y-94061985D01*
X101138015Y-93959491D01*
X101138012Y-93959489D01*
X101138010Y-93959487D01*
X101012488Y-93887017D01*
X101012489Y-93887017D01*
X100982896Y-93879087D01*
X100872475Y-93849500D01*
X100727525Y-93849500D01*
X100665790Y-93866041D01*
X100587510Y-93887017D01*
X100461989Y-93959487D01*
X100461988Y-93959488D01*
X100461985Y-93959490D01*
X100461985Y-93959491D01*
X100450970Y-93970505D01*
X100396456Y-93998281D01*
X100380969Y-93999500D01*
X98319031Y-93999500D01*
X98260840Y-93980593D01*
X98249033Y-93970509D01*
X98238015Y-93959491D01*
X98238012Y-93959489D01*
X98238010Y-93959487D01*
X98112488Y-93887017D01*
X98112489Y-93887017D01*
X98082896Y-93879087D01*
X97972475Y-93849500D01*
X97827525Y-93849500D01*
X97765790Y-93866041D01*
X97687510Y-93887017D01*
X97561989Y-93959487D01*
X97459487Y-94061989D01*
X97387017Y-94187510D01*
X97360355Y-94287015D01*
X97349500Y-94327525D01*
X97349500Y-94472475D01*
X97355732Y-94495733D01*
X97387017Y-94612489D01*
X97459487Y-94738010D01*
X97459489Y-94738012D01*
X97459491Y-94738015D01*
X97561985Y-94840509D01*
X97561987Y-94840510D01*
X97561989Y-94840512D01*
X97687511Y-94912982D01*
X97687512Y-94912982D01*
X97687515Y-94912984D01*
X97827525Y-94950500D01*
X97827526Y-94950500D01*
X97972474Y-94950500D01*
X97972475Y-94950500D01*
X98112485Y-94912984D01*
X98112487Y-94912982D01*
X98112489Y-94912982D01*
X98238010Y-94840512D01*
X98238010Y-94840511D01*
X98238015Y-94840509D01*
X98249029Y-94829494D01*
X98303544Y-94801719D01*
X98319031Y-94800500D01*
X99354517Y-94800500D01*
X99412708Y-94819407D01*
X99448672Y-94868907D01*
X99450036Y-94921050D01*
X99450347Y-94921091D01*
X99450088Y-94923052D01*
X99450143Y-94925125D01*
X99449500Y-94927525D01*
X99449500Y-95072475D01*
X99467062Y-95138015D01*
X99487016Y-95212486D01*
X99537831Y-95300500D01*
X99541981Y-95320028D01*
X99550381Y-95338138D01*
X99548149Y-95349047D01*
X99550552Y-95360349D01*
X99538582Y-95398175D01*
X99538181Y-95398894D01*
X99487016Y-95487515D01*
X99485344Y-95493751D01*
X99479379Y-95504462D01*
X99465487Y-95517362D01*
X99455156Y-95533255D01*
X99440141Y-95540900D01*
X99434545Y-95546098D01*
X99428502Y-95546827D01*
X99418515Y-95551913D01*
X99287515Y-95587015D01*
X99287511Y-95587017D01*
X99161989Y-95659487D01*
X99059487Y-95761989D01*
X98987017Y-95887510D01*
X98968533Y-95956492D01*
X98949500Y-96027525D01*
X98949500Y-96172475D01*
X98979087Y-96282896D01*
X98987017Y-96312489D01*
X99059487Y-96438010D01*
X99059489Y-96438012D01*
X99059491Y-96438015D01*
X99161985Y-96540509D01*
X99161987Y-96540510D01*
X99161989Y-96540512D01*
X99287511Y-96612982D01*
X99287512Y-96612982D01*
X99287515Y-96612984D01*
X99427525Y-96650500D01*
X99443099Y-96650500D01*
X99501290Y-96669407D01*
X99513103Y-96679496D01*
X99579520Y-96745913D01*
X99579519Y-96745913D01*
X99617779Y-96784172D01*
X99654087Y-96820480D01*
X99745413Y-96873207D01*
X99847273Y-96900500D01*
X99847275Y-96900500D01*
X101652725Y-96900500D01*
X101652727Y-96900500D01*
X101754588Y-96873207D01*
X101754590Y-96873205D01*
X101754592Y-96873205D01*
X101845908Y-96820483D01*
X101845908Y-96820482D01*
X101845913Y-96820480D01*
X102023932Y-96642460D01*
X102078447Y-96614684D01*
X102138879Y-96624255D01*
X102156472Y-96637037D01*
X102156839Y-96636560D01*
X102161989Y-96640512D01*
X102287511Y-96712982D01*
X102287512Y-96712982D01*
X102287515Y-96712984D01*
X102427525Y-96750500D01*
X102427526Y-96750500D01*
X102572474Y-96750500D01*
X102572475Y-96750500D01*
X102712485Y-96712984D01*
X102712487Y-96712982D01*
X102712489Y-96712982D01*
X102838010Y-96640512D01*
X102838010Y-96640511D01*
X102838015Y-96640509D01*
X102940509Y-96538015D01*
X102946566Y-96527525D01*
X102962040Y-96500720D01*
X103012984Y-96412485D01*
X103019676Y-96387510D01*
X103023330Y-96373876D01*
X103056654Y-96322562D01*
X103113776Y-96300636D01*
X103118956Y-96300500D01*
X104538985Y-96300500D01*
X104597176Y-96319407D01*
X104633140Y-96368907D01*
X104636085Y-96418802D01*
X104632896Y-96434839D01*
X104626793Y-96445412D01*
X104606679Y-96520480D01*
X104599500Y-96547273D01*
X104599500Y-96602843D01*
X104597600Y-96612401D01*
X104587183Y-96631006D01*
X104580593Y-96651290D01*
X104570504Y-96663103D01*
X103513103Y-97720504D01*
X103458586Y-97748281D01*
X103443099Y-97749500D01*
X103427525Y-97749500D01*
X103380931Y-97761985D01*
X103287510Y-97787017D01*
X103161989Y-97859487D01*
X103059487Y-97961989D01*
X102987017Y-98087510D01*
X102949500Y-98227525D01*
X102949500Y-98372474D01*
X102987017Y-98512489D01*
X103059487Y-98638010D01*
X103059489Y-98638012D01*
X103059491Y-98638015D01*
X103157538Y-98736062D01*
X103185314Y-98790577D01*
X103175743Y-98851009D01*
X103157537Y-98876067D01*
X102363103Y-99670503D01*
X102355986Y-99674129D01*
X102351290Y-99680593D01*
X102329239Y-99687757D01*
X102308586Y-99698281D01*
X102293099Y-99699500D01*
X102162354Y-99699500D01*
X102136732Y-99696127D01*
X102056018Y-99674500D01*
X101943982Y-99674500D01*
X101894506Y-99687757D01*
X101835758Y-99703498D01*
X101738739Y-99759513D01*
X101659513Y-99838739D01*
X101603498Y-99935758D01*
X101595627Y-99965136D01*
X101562303Y-100016450D01*
X101505181Y-100038377D01*
X101446081Y-100022541D01*
X101407576Y-99974991D01*
X101404373Y-99965136D01*
X101397106Y-99938015D01*
X101396503Y-99935763D01*
X101396501Y-99935760D01*
X101396501Y-99935758D01*
X101340486Y-99838739D01*
X101340485Y-99838737D01*
X101261263Y-99759515D01*
X101261260Y-99759513D01*
X101164240Y-99703498D01*
X101164242Y-99703498D01*
X101105494Y-99687757D01*
X101056018Y-99674500D01*
X100943982Y-99674500D01*
X100894506Y-99687757D01*
X100835758Y-99703498D01*
X100738739Y-99759513D01*
X100659513Y-99838739D01*
X100617736Y-99911099D01*
X100602004Y-99931601D01*
X100213104Y-100320503D01*
X100158587Y-100348281D01*
X100143100Y-100349500D01*
X100127525Y-100349500D01*
X100079330Y-100362414D01*
X99987510Y-100387017D01*
X99861989Y-100459487D01*
X99759487Y-100561989D01*
X99687017Y-100687510D01*
X99687016Y-100687515D01*
X99649500Y-100827525D01*
X99649500Y-100972475D01*
X99663441Y-101024504D01*
X99687017Y-101112489D01*
X99759487Y-101238010D01*
X99759489Y-101238012D01*
X99759491Y-101238015D01*
X99861985Y-101340509D01*
X99861987Y-101340510D01*
X99861989Y-101340512D01*
X99987511Y-101412982D01*
X99987512Y-101412982D01*
X99987515Y-101412984D01*
X100127525Y-101450500D01*
X100127526Y-101450500D01*
X100272474Y-101450500D01*
X100272475Y-101450500D01*
X100412485Y-101412984D01*
X100412487Y-101412982D01*
X100412489Y-101412982D01*
X100538010Y-101340512D01*
X100538010Y-101340511D01*
X100538015Y-101340509D01*
X100640509Y-101238015D01*
X100685846Y-101159490D01*
X100712982Y-101112489D01*
X100712982Y-101112487D01*
X100712984Y-101112485D01*
X100750500Y-100972475D01*
X100750500Y-100956899D01*
X100769407Y-100898708D01*
X100779490Y-100886902D01*
X101168399Y-100497992D01*
X101188894Y-100482266D01*
X101261263Y-100440485D01*
X101340485Y-100361263D01*
X101396503Y-100264237D01*
X101404373Y-100234862D01*
X101437697Y-100183549D01*
X101494818Y-100161622D01*
X101553919Y-100177457D01*
X101592424Y-100225007D01*
X101595627Y-100234864D01*
X101603498Y-100264240D01*
X101659513Y-100361260D01*
X101659515Y-100361263D01*
X101738737Y-100440485D01*
X101738739Y-100440486D01*
X101835759Y-100496501D01*
X101835757Y-100496501D01*
X101835761Y-100496502D01*
X101835763Y-100496503D01*
X101943982Y-100525500D01*
X101943984Y-100525500D01*
X102056016Y-100525500D01*
X102056018Y-100525500D01*
X102136732Y-100503872D01*
X102162354Y-100500500D01*
X102500500Y-100500500D01*
X102558691Y-100519407D01*
X102594655Y-100568907D01*
X102599500Y-100599500D01*
X102599500Y-100647273D01*
X102599500Y-100752727D01*
X102615260Y-100811544D01*
X102626794Y-100854592D01*
X102682764Y-100951533D01*
X102681507Y-100952258D01*
X102699466Y-101002957D01*
X102699500Y-101005557D01*
X102699500Y-101880968D01*
X102680593Y-101939159D01*
X102670506Y-101950969D01*
X102659492Y-101961983D01*
X102659487Y-101961989D01*
X102587017Y-102087510D01*
X102562369Y-102179496D01*
X102549500Y-102227525D01*
X102549500Y-102372475D01*
X102580325Y-102487515D01*
X102587017Y-102512487D01*
X102598118Y-102531714D01*
X102610840Y-102591562D01*
X102585954Y-102647458D01*
X102582386Y-102651219D01*
X100779517Y-104454090D01*
X100779516Y-104454091D01*
X100726794Y-104545407D01*
X100704791Y-104627522D01*
X100704791Y-104627525D01*
X100699500Y-104647273D01*
X100699500Y-104647275D01*
X100699500Y-106780968D01*
X100680593Y-106839159D01*
X100670506Y-106850969D01*
X100659492Y-106861983D01*
X100659487Y-106861989D01*
X100587017Y-106987510D01*
X100549500Y-107127525D01*
X100549500Y-107272474D01*
X100587017Y-107412489D01*
X100659487Y-107538010D01*
X100659489Y-107538012D01*
X100659491Y-107538015D01*
X100761985Y-107640509D01*
X100761987Y-107640510D01*
X100761989Y-107640512D01*
X100887511Y-107712982D01*
X100887512Y-107712982D01*
X100887515Y-107712984D01*
X101027525Y-107750500D01*
X101027526Y-107750500D01*
X101172474Y-107750500D01*
X101172475Y-107750500D01*
X101312485Y-107712984D01*
X101312487Y-107712982D01*
X101312489Y-107712982D01*
X101438010Y-107640512D01*
X101438010Y-107640511D01*
X101438015Y-107640509D01*
X101540509Y-107538015D01*
X101544346Y-107531369D01*
X101612982Y-107412489D01*
X101612982Y-107412487D01*
X101612984Y-107412485D01*
X101650500Y-107272475D01*
X101650500Y-107127525D01*
X101612984Y-106987515D01*
X101612982Y-106987512D01*
X101612982Y-106987510D01*
X101540512Y-106861989D01*
X101540507Y-106861983D01*
X101529494Y-106850969D01*
X101501718Y-106796452D01*
X101500500Y-106780968D01*
X101500500Y-104906900D01*
X101519407Y-104848709D01*
X101529490Y-104836902D01*
X103073932Y-103292459D01*
X103128447Y-103264684D01*
X103188879Y-103274255D01*
X103213934Y-103292458D01*
X103261985Y-103340509D01*
X103261987Y-103340510D01*
X103261989Y-103340512D01*
X103387511Y-103412982D01*
X103387512Y-103412982D01*
X103387515Y-103412984D01*
X103527525Y-103450500D01*
X103527526Y-103450500D01*
X103672474Y-103450500D01*
X103672475Y-103450500D01*
X103812485Y-103412984D01*
X103812487Y-103412982D01*
X103812489Y-103412982D01*
X103938010Y-103340512D01*
X103938010Y-103340511D01*
X103938015Y-103340509D01*
X104040509Y-103238015D01*
X104051897Y-103218290D01*
X104112982Y-103112489D01*
X104112982Y-103112487D01*
X104112984Y-103112485D01*
X104150500Y-102972475D01*
X104150500Y-102827525D01*
X104136867Y-102776646D01*
X104140069Y-102715547D01*
X104178574Y-102667997D01*
X104237675Y-102652161D01*
X104294796Y-102674087D01*
X104302487Y-102681011D01*
X104361985Y-102740509D01*
X104361987Y-102740510D01*
X104361989Y-102740512D01*
X104487511Y-102812982D01*
X104487512Y-102812982D01*
X104487515Y-102812984D01*
X104627525Y-102850500D01*
X104627526Y-102850500D01*
X104772474Y-102850500D01*
X104772475Y-102850500D01*
X104912485Y-102812984D01*
X104912487Y-102812982D01*
X104912489Y-102812982D01*
X105038010Y-102740512D01*
X105038010Y-102740511D01*
X105038015Y-102740509D01*
X105140509Y-102638015D01*
X105140512Y-102638010D01*
X105212982Y-102512489D01*
X105212982Y-102512487D01*
X105212984Y-102512485D01*
X105250500Y-102372475D01*
X105250500Y-102356901D01*
X105252968Y-102349303D01*
X105251719Y-102341414D01*
X105262243Y-102320758D01*
X105269407Y-102298710D01*
X105279496Y-102286897D01*
X105386897Y-102179496D01*
X105441414Y-102151719D01*
X105456901Y-102150500D01*
X105472474Y-102150500D01*
X105472475Y-102150500D01*
X105612485Y-102112984D01*
X105612487Y-102112982D01*
X105612489Y-102112982D01*
X105738010Y-102040512D01*
X105738010Y-102040511D01*
X105738015Y-102040509D01*
X105840509Y-101938015D01*
X105867146Y-101891879D01*
X105912982Y-101812489D01*
X105912982Y-101812487D01*
X105912984Y-101812485D01*
X105950500Y-101672475D01*
X105950500Y-101527525D01*
X105912984Y-101387515D01*
X105912982Y-101387512D01*
X105912982Y-101387510D01*
X105840512Y-101261989D01*
X105840510Y-101261987D01*
X105840509Y-101261985D01*
X105738015Y-101159491D01*
X105703227Y-101139406D01*
X105684402Y-101118498D01*
X105664518Y-101098614D01*
X105664095Y-101095945D01*
X105662287Y-101093937D01*
X105659346Y-101065958D01*
X105654947Y-101038182D01*
X105656173Y-101035774D01*
X105655891Y-101033087D01*
X105682723Y-100983669D01*
X105781897Y-100884496D01*
X105836414Y-100856719D01*
X105851900Y-100855500D01*
X106300005Y-100855500D01*
X106314094Y-100854848D01*
X106328188Y-100854197D01*
X106418150Y-100828600D01*
X106479292Y-100830860D01*
X106481029Y-100831707D01*
X106481088Y-100831557D01*
X106489641Y-100834870D01*
X106600000Y-100855500D01*
X107039099Y-100855500D01*
X107097290Y-100874407D01*
X107133254Y-100923907D01*
X107133254Y-100985093D01*
X107109103Y-101024504D01*
X103813103Y-104320504D01*
X103758586Y-104348281D01*
X103743099Y-104349500D01*
X103727525Y-104349500D01*
X103680935Y-104361984D01*
X103587510Y-104387017D01*
X103461989Y-104459487D01*
X103461984Y-104459491D01*
X103406926Y-104514549D01*
X103352409Y-104542326D01*
X103291977Y-104532754D01*
X103287423Y-104530281D01*
X103212488Y-104487017D01*
X103212489Y-104487017D01*
X103109761Y-104459491D01*
X103072475Y-104449500D01*
X102927525Y-104449500D01*
X102890239Y-104459491D01*
X102787510Y-104487017D01*
X102661989Y-104559487D01*
X102559487Y-104661989D01*
X102487017Y-104787510D01*
X102449500Y-104927525D01*
X102449500Y-105050500D01*
X102430593Y-105108691D01*
X102381093Y-105144655D01*
X102350500Y-105149500D01*
X102227525Y-105149500D01*
X102165790Y-105166041D01*
X102087510Y-105187017D01*
X101961989Y-105259487D01*
X101859487Y-105361989D01*
X101787017Y-105487510D01*
X101749500Y-105627525D01*
X101749500Y-105772474D01*
X101787017Y-105912489D01*
X101859487Y-106038010D01*
X101859489Y-106038012D01*
X101859491Y-106038015D01*
X101961985Y-106140509D01*
X101961987Y-106140510D01*
X101961989Y-106140512D01*
X102087511Y-106212982D01*
X102087512Y-106212982D01*
X102087515Y-106212984D01*
X102227525Y-106250500D01*
X102227526Y-106250500D01*
X102372474Y-106250500D01*
X102372475Y-106250500D01*
X102512485Y-106212984D01*
X102512487Y-106212982D01*
X102512489Y-106212982D01*
X102638010Y-106140512D01*
X102638010Y-106140511D01*
X102638015Y-106140509D01*
X102649029Y-106129494D01*
X102703544Y-106101719D01*
X102719031Y-106100500D01*
X102950500Y-106100500D01*
X103008691Y-106119407D01*
X103044655Y-106168907D01*
X103049500Y-106199500D01*
X103049500Y-106272474D01*
X103087017Y-106412489D01*
X103159487Y-106538010D01*
X103159489Y-106538012D01*
X103159491Y-106538015D01*
X103261985Y-106640509D01*
X103261987Y-106640510D01*
X103261989Y-106640512D01*
X103387511Y-106712982D01*
X103387512Y-106712982D01*
X103387515Y-106712984D01*
X103527525Y-106750500D01*
X103527526Y-106750500D01*
X103672475Y-106750500D01*
X103705304Y-106741703D01*
X103766404Y-106744904D01*
X103800932Y-106767325D01*
X104579518Y-107545910D01*
X104579520Y-107545913D01*
X104654087Y-107620480D01*
X104685031Y-107638345D01*
X104715974Y-107656211D01*
X104715975Y-107656211D01*
X104745413Y-107673207D01*
X104847270Y-107700500D01*
X104847272Y-107700501D01*
X104847273Y-107700501D01*
X104958790Y-107700501D01*
X104958806Y-107700500D01*
X105452725Y-107700500D01*
X105452727Y-107700500D01*
X105554588Y-107673207D01*
X105554590Y-107673205D01*
X105554592Y-107673205D01*
X105645908Y-107620483D01*
X105645908Y-107620482D01*
X105645913Y-107620480D01*
X110623932Y-102642459D01*
X110678447Y-102614684D01*
X110738879Y-102624255D01*
X110763934Y-102642458D01*
X110861985Y-102740509D01*
X110896771Y-102760593D01*
X110915595Y-102781499D01*
X110935479Y-102801383D01*
X110935901Y-102804051D01*
X110937711Y-102806061D01*
X110940652Y-102834044D01*
X110945051Y-102861815D01*
X110943824Y-102864222D01*
X110944107Y-102866911D01*
X110917274Y-102916331D01*
X110813103Y-103020503D01*
X110758586Y-103048281D01*
X110743099Y-103049500D01*
X110727525Y-103049500D01*
X110702730Y-103056144D01*
X110587510Y-103087017D01*
X110461989Y-103159487D01*
X110359487Y-103261989D01*
X110287017Y-103387510D01*
X110249500Y-103527525D01*
X110249500Y-103672474D01*
X110287017Y-103812489D01*
X110359487Y-103938010D01*
X110359489Y-103938012D01*
X110359491Y-103938015D01*
X110461985Y-104040509D01*
X110461987Y-104040510D01*
X110461989Y-104040512D01*
X110587511Y-104112982D01*
X110587509Y-104112982D01*
X110587513Y-104112983D01*
X110587515Y-104112984D01*
X110675033Y-104136434D01*
X110726345Y-104169757D01*
X110748272Y-104226878D01*
X110732437Y-104285979D01*
X110719412Y-104302063D01*
X110659491Y-104361984D01*
X110659487Y-104361989D01*
X110587017Y-104487510D01*
X110563837Y-104574019D01*
X110549500Y-104627525D01*
X110549500Y-104772475D01*
X110566762Y-104836896D01*
X110587017Y-104912489D01*
X110659487Y-105038010D01*
X110659489Y-105038012D01*
X110659491Y-105038015D01*
X110761985Y-105140509D01*
X110761987Y-105140510D01*
X110761989Y-105140512D01*
X110887511Y-105212982D01*
X110887512Y-105212982D01*
X110887515Y-105212984D01*
X111027525Y-105250500D01*
X111027526Y-105250500D01*
X111172474Y-105250500D01*
X111172475Y-105250500D01*
X111312485Y-105212984D01*
X111312487Y-105212982D01*
X111312489Y-105212982D01*
X111438010Y-105140512D01*
X111438010Y-105140511D01*
X111438015Y-105140509D01*
X111540509Y-105038015D01*
X111542832Y-105033992D01*
X111612982Y-104912489D01*
X111612982Y-104912487D01*
X111612984Y-104912485D01*
X111650500Y-104772475D01*
X111650500Y-104756900D01*
X111669407Y-104698709D01*
X111679490Y-104686902D01*
X112120480Y-104245913D01*
X112120769Y-104245412D01*
X112173207Y-104154587D01*
X112200500Y-104052727D01*
X112200500Y-103806901D01*
X112219407Y-103748710D01*
X112229496Y-103736897D01*
X114080496Y-101885897D01*
X114135013Y-101858120D01*
X114195445Y-101867691D01*
X114238710Y-101910956D01*
X114248223Y-101940051D01*
X114249500Y-101947924D01*
X114249500Y-101972475D01*
X114259589Y-102010130D01*
X114260392Y-102015078D01*
X114256444Y-102040614D01*
X114255092Y-102066409D01*
X114251634Y-102071733D01*
X114251045Y-102075545D01*
X114245590Y-102081040D01*
X114232673Y-102100931D01*
X113679520Y-102654086D01*
X113679516Y-102654091D01*
X113626794Y-102745409D01*
X113626790Y-102745417D01*
X113619542Y-102772473D01*
X113619542Y-102772474D01*
X113617124Y-102781499D01*
X113599500Y-102847273D01*
X113599500Y-104347273D01*
X113599500Y-104452727D01*
X113616065Y-104514549D01*
X113626794Y-104554592D01*
X113679516Y-104645908D01*
X113679517Y-104645909D01*
X113679518Y-104645910D01*
X113679520Y-104645913D01*
X114395592Y-105361985D01*
X115072841Y-106039234D01*
X115100618Y-106093751D01*
X115094608Y-106144536D01*
X115094991Y-106144661D01*
X115094365Y-106146585D01*
X115094302Y-106147123D01*
X115093787Y-106148365D01*
X115037828Y-106320593D01*
X115009500Y-106499450D01*
X115009500Y-106680549D01*
X115037828Y-106859406D01*
X115093788Y-107031637D01*
X115142645Y-107127525D01*
X115176004Y-107192994D01*
X115282447Y-107339501D01*
X115410499Y-107467553D01*
X115557006Y-107573996D01*
X115718361Y-107656211D01*
X115890591Y-107712171D01*
X115962136Y-107723502D01*
X116069451Y-107740500D01*
X116069454Y-107740500D01*
X116250549Y-107740500D01*
X116339977Y-107726335D01*
X116429409Y-107712171D01*
X116601639Y-107656211D01*
X116601642Y-107656209D01*
X116601646Y-107656208D01*
X116755555Y-107577787D01*
X116815987Y-107568215D01*
X116870503Y-107595992D01*
X116898281Y-107650509D01*
X116899500Y-107665996D01*
X116899500Y-108054003D01*
X116880593Y-108112194D01*
X116831093Y-108148158D01*
X116769907Y-108148158D01*
X116755555Y-108142213D01*
X116601637Y-108063788D01*
X116429406Y-108007828D01*
X116250549Y-107979500D01*
X116250546Y-107979500D01*
X116069454Y-107979500D01*
X116069451Y-107979500D01*
X115890593Y-108007828D01*
X115718362Y-108063788D01*
X115557008Y-108146002D01*
X115491667Y-108193475D01*
X115410499Y-108252447D01*
X115282447Y-108380499D01*
X115229225Y-108453752D01*
X115176002Y-108527008D01*
X115093788Y-108688362D01*
X115037828Y-108860593D01*
X115009500Y-109039450D01*
X115009500Y-109220549D01*
X115037828Y-109399406D01*
X115037829Y-109399409D01*
X115093789Y-109571639D01*
X115176004Y-109732994D01*
X115282447Y-109879501D01*
X115410499Y-110007553D01*
X115557006Y-110113996D01*
X115718361Y-110196211D01*
X115890591Y-110252171D01*
X115962136Y-110263502D01*
X116069451Y-110280500D01*
X116069454Y-110280500D01*
X116250549Y-110280500D01*
X116339977Y-110266335D01*
X116429409Y-110252171D01*
X116601639Y-110196211D01*
X116601642Y-110196209D01*
X116601646Y-110196208D01*
X116755555Y-110117787D01*
X116815987Y-110108215D01*
X116870503Y-110135992D01*
X116898281Y-110190509D01*
X116899500Y-110205996D01*
X116899500Y-110594003D01*
X116880593Y-110652194D01*
X116831093Y-110688158D01*
X116769907Y-110688158D01*
X116755555Y-110682213D01*
X116601637Y-110603788D01*
X116429406Y-110547828D01*
X116250549Y-110519500D01*
X116250546Y-110519500D01*
X116069454Y-110519500D01*
X116069451Y-110519500D01*
X115890593Y-110547828D01*
X115718362Y-110603788D01*
X115557008Y-110686002D01*
X115491667Y-110733475D01*
X115410499Y-110792447D01*
X115282447Y-110920499D01*
X115229225Y-110993752D01*
X115176002Y-111067008D01*
X115093788Y-111228362D01*
X115037828Y-111400593D01*
X115009500Y-111579450D01*
X115009500Y-111760549D01*
X115037828Y-111939406D01*
X115037829Y-111939409D01*
X115093789Y-112111639D01*
X115176004Y-112272994D01*
X115282447Y-112419501D01*
X115410499Y-112547553D01*
X115557006Y-112653996D01*
X115718361Y-112736211D01*
X115890591Y-112792171D01*
X115962136Y-112803502D01*
X116069451Y-112820500D01*
X116069454Y-112820500D01*
X116250549Y-112820500D01*
X116339977Y-112806335D01*
X116429409Y-112792171D01*
X116601639Y-112736211D01*
X116601642Y-112736209D01*
X116601646Y-112736208D01*
X116755555Y-112657787D01*
X116815987Y-112648215D01*
X116870503Y-112675992D01*
X116898281Y-112730509D01*
X116899500Y-112745996D01*
X116899500Y-113134003D01*
X116880593Y-113192194D01*
X116831093Y-113228158D01*
X116769907Y-113228158D01*
X116755555Y-113222213D01*
X116601637Y-113143788D01*
X116429406Y-113087828D01*
X116250549Y-113059500D01*
X116250546Y-113059500D01*
X116069454Y-113059500D01*
X116069451Y-113059500D01*
X115890593Y-113087828D01*
X115718362Y-113143788D01*
X115557008Y-113226002D01*
X115491667Y-113273475D01*
X115410499Y-113332447D01*
X115282447Y-113460499D01*
X115229225Y-113533752D01*
X115176002Y-113607008D01*
X115093788Y-113768362D01*
X115037828Y-113940593D01*
X115009500Y-114119450D01*
X115009500Y-114300549D01*
X115037828Y-114479406D01*
X115037829Y-114479409D01*
X115093789Y-114651639D01*
X115176004Y-114812994D01*
X115282447Y-114959501D01*
X115410499Y-115087553D01*
X115557006Y-115193996D01*
X115718361Y-115276211D01*
X115890591Y-115332171D01*
X115962136Y-115343502D01*
X116069451Y-115360500D01*
X116069454Y-115360500D01*
X116250549Y-115360500D01*
X116339977Y-115346335D01*
X116429409Y-115332171D01*
X116601639Y-115276211D01*
X116601642Y-115276209D01*
X116601646Y-115276208D01*
X116755555Y-115197787D01*
X116815987Y-115188215D01*
X116870503Y-115215992D01*
X116898281Y-115270509D01*
X116899500Y-115285996D01*
X116899500Y-115674003D01*
X116880593Y-115732194D01*
X116831093Y-115768158D01*
X116769907Y-115768158D01*
X116755555Y-115762213D01*
X116601637Y-115683788D01*
X116429406Y-115627828D01*
X116250549Y-115599500D01*
X116250546Y-115599500D01*
X116069454Y-115599500D01*
X116069451Y-115599500D01*
X115890593Y-115627828D01*
X115718362Y-115683788D01*
X115557008Y-115766002D01*
X115491667Y-115813475D01*
X115410499Y-115872447D01*
X115282447Y-116000499D01*
X115229225Y-116073752D01*
X115176002Y-116147008D01*
X115093788Y-116308362D01*
X115037828Y-116480593D01*
X115009500Y-116659450D01*
X115009500Y-116840549D01*
X115037828Y-117019406D01*
X115037829Y-117019409D01*
X115093789Y-117191639D01*
X115176004Y-117352994D01*
X115282447Y-117499501D01*
X115410499Y-117627553D01*
X115557006Y-117733996D01*
X115718361Y-117816211D01*
X115729483Y-117819824D01*
X115732983Y-117820962D01*
X115782483Y-117856926D01*
X115801391Y-117915116D01*
X115782484Y-117973307D01*
X115732985Y-118009271D01*
X115732984Y-118009272D01*
X115641784Y-118038904D01*
X115452446Y-118135376D01*
X115452442Y-118135378D01*
X115398282Y-118174728D01*
X116030591Y-118807037D01*
X115967007Y-118824075D01*
X115852993Y-118889901D01*
X115759901Y-118982993D01*
X115694075Y-119097007D01*
X115677037Y-119160591D01*
X115044728Y-118528282D01*
X115005378Y-118582442D01*
X115005376Y-118582446D01*
X114908904Y-118771784D01*
X114843240Y-118973878D01*
X114810000Y-119183749D01*
X114810000Y-119396250D01*
X114843240Y-119606121D01*
X114908904Y-119808215D01*
X115005376Y-119997553D01*
X115005380Y-119997559D01*
X115044728Y-120051716D01*
X115044729Y-120051716D01*
X115677037Y-119419407D01*
X115694075Y-119482993D01*
X115759901Y-119597007D01*
X115852993Y-119690099D01*
X115967007Y-119755925D01*
X116030590Y-119772962D01*
X115398282Y-120405269D01*
X115398282Y-120405270D01*
X115452440Y-120444619D01*
X115452446Y-120444623D01*
X115641784Y-120541095D01*
X115843878Y-120606759D01*
X116053750Y-120640000D01*
X116266250Y-120640000D01*
X116476121Y-120606759D01*
X116678217Y-120541094D01*
X116755554Y-120501689D01*
X116815986Y-120492117D01*
X116870503Y-120519894D01*
X116898281Y-120574410D01*
X116899500Y-120589898D01*
X116899500Y-122550500D01*
X116880593Y-122608691D01*
X116831093Y-122644655D01*
X116800500Y-122649500D01*
X92599500Y-122649500D01*
X92541309Y-122630593D01*
X92505345Y-122581093D01*
X92500500Y-122550500D01*
X92500500Y-120559327D01*
X92519407Y-120501136D01*
X92568907Y-120465172D01*
X92630093Y-120465172D01*
X92644445Y-120471117D01*
X92781784Y-120541095D01*
X92983878Y-120606759D01*
X93193750Y-120640000D01*
X93406250Y-120640000D01*
X93616121Y-120606759D01*
X93818215Y-120541095D01*
X94007556Y-120444620D01*
X94061716Y-120405270D01*
X93429408Y-119772962D01*
X93492993Y-119755925D01*
X93607007Y-119690099D01*
X93700099Y-119597007D01*
X93765925Y-119482993D01*
X93782962Y-119419408D01*
X94415270Y-120051716D01*
X94454620Y-119997556D01*
X94551095Y-119808215D01*
X94616759Y-119606121D01*
X94650000Y-119396250D01*
X94650000Y-119183749D01*
X94616759Y-118973878D01*
X94551095Y-118771784D01*
X94454623Y-118582446D01*
X94454619Y-118582440D01*
X94415270Y-118528282D01*
X94415269Y-118528282D01*
X93782962Y-119160589D01*
X93765925Y-119097007D01*
X93700099Y-118982993D01*
X93607007Y-118889901D01*
X93492993Y-118824075D01*
X93429407Y-118807037D01*
X94061716Y-118174729D01*
X94061716Y-118174728D01*
X94007559Y-118135380D01*
X94007553Y-118135376D01*
X93818215Y-118038904D01*
X93727015Y-118009272D01*
X93677515Y-117973308D01*
X93658608Y-117915117D01*
X93677515Y-117856926D01*
X93727013Y-117820962D01*
X93727017Y-117820962D01*
X93727018Y-117820962D01*
X93741633Y-117816213D01*
X93741633Y-117816212D01*
X93741639Y-117816211D01*
X93902994Y-117733996D01*
X94049501Y-117627553D01*
X94177553Y-117499501D01*
X94283996Y-117352994D01*
X94366211Y-117191639D01*
X94422171Y-117019409D01*
X94450500Y-116840546D01*
X94450500Y-116659454D01*
X94450500Y-116659450D01*
X94422171Y-116480593D01*
X94422171Y-116480591D01*
X94366211Y-116308361D01*
X94283996Y-116147006D01*
X94177553Y-116000499D01*
X94049501Y-115872447D01*
X93902994Y-115766004D01*
X93902993Y-115766003D01*
X93902991Y-115766002D01*
X93741637Y-115683788D01*
X93569406Y-115627828D01*
X93390549Y-115599500D01*
X93390546Y-115599500D01*
X93209454Y-115599500D01*
X93209451Y-115599500D01*
X93030593Y-115627828D01*
X92858362Y-115683788D01*
X92697006Y-115766003D01*
X92697002Y-115766005D01*
X92657690Y-115794568D01*
X92599499Y-115813475D01*
X92541309Y-115794567D01*
X92505345Y-115745067D01*
X92500500Y-115714475D01*
X92500500Y-115245524D01*
X92519407Y-115187333D01*
X92568907Y-115151369D01*
X92630093Y-115151369D01*
X92657690Y-115165431D01*
X92697006Y-115193996D01*
X92858361Y-115276211D01*
X93030591Y-115332171D01*
X93102136Y-115343502D01*
X93209451Y-115360500D01*
X93209454Y-115360500D01*
X93390549Y-115360500D01*
X93479977Y-115346335D01*
X93569409Y-115332171D01*
X93741639Y-115276211D01*
X93902994Y-115193996D01*
X94049501Y-115087553D01*
X94177553Y-114959501D01*
X94283996Y-114812994D01*
X94366211Y-114651639D01*
X94422171Y-114479409D01*
X94450500Y-114300546D01*
X94450500Y-114119454D01*
X94450500Y-114119450D01*
X94422171Y-113940593D01*
X94422171Y-113940591D01*
X94366211Y-113768361D01*
X94283996Y-113607006D01*
X94177553Y-113460499D01*
X94049501Y-113332447D01*
X93902994Y-113226004D01*
X93902993Y-113226003D01*
X93902991Y-113226002D01*
X93741637Y-113143788D01*
X93569406Y-113087828D01*
X93390549Y-113059500D01*
X93390546Y-113059500D01*
X93209454Y-113059500D01*
X93209451Y-113059500D01*
X93030593Y-113087828D01*
X92858362Y-113143788D01*
X92697006Y-113226003D01*
X92697002Y-113226005D01*
X92657690Y-113254568D01*
X92599499Y-113273475D01*
X92541309Y-113254567D01*
X92505345Y-113205067D01*
X92500500Y-113174475D01*
X92500500Y-112705524D01*
X92519407Y-112647333D01*
X92568907Y-112611369D01*
X92630093Y-112611369D01*
X92657690Y-112625431D01*
X92697006Y-112653996D01*
X92858361Y-112736211D01*
X93030591Y-112792171D01*
X93102136Y-112803502D01*
X93209451Y-112820500D01*
X93209454Y-112820500D01*
X93390549Y-112820500D01*
X93479977Y-112806335D01*
X93569409Y-112792171D01*
X93741639Y-112736211D01*
X93902994Y-112653996D01*
X94049501Y-112547553D01*
X94177553Y-112419501D01*
X94283996Y-112272994D01*
X94366211Y-112111639D01*
X94422171Y-111939409D01*
X94450500Y-111760546D01*
X94450500Y-111579454D01*
X94450500Y-111579450D01*
X94422171Y-111400593D01*
X94422171Y-111400591D01*
X94366211Y-111228361D01*
X94283996Y-111067006D01*
X94177553Y-110920499D01*
X94049501Y-110792447D01*
X93902994Y-110686004D01*
X93902993Y-110686003D01*
X93902991Y-110686002D01*
X93741637Y-110603788D01*
X93569406Y-110547828D01*
X93390549Y-110519500D01*
X93390546Y-110519500D01*
X93209454Y-110519500D01*
X93209451Y-110519500D01*
X93030593Y-110547828D01*
X92858362Y-110603788D01*
X92697006Y-110686003D01*
X92697002Y-110686005D01*
X92657690Y-110714568D01*
X92599499Y-110733475D01*
X92541309Y-110714567D01*
X92505345Y-110665067D01*
X92500500Y-110634475D01*
X92500500Y-110165524D01*
X92519407Y-110107333D01*
X92568907Y-110071369D01*
X92630093Y-110071369D01*
X92657690Y-110085431D01*
X92697006Y-110113996D01*
X92858361Y-110196211D01*
X93030591Y-110252171D01*
X93102136Y-110263502D01*
X93209451Y-110280500D01*
X93209454Y-110280500D01*
X93390549Y-110280500D01*
X93479977Y-110266335D01*
X93569409Y-110252171D01*
X93741639Y-110196211D01*
X93902994Y-110113996D01*
X94049501Y-110007553D01*
X94177553Y-109879501D01*
X94283996Y-109732994D01*
X94366211Y-109571639D01*
X94422171Y-109399409D01*
X94450500Y-109220546D01*
X94450500Y-109039454D01*
X94450500Y-109039450D01*
X94422171Y-108860593D01*
X94422171Y-108860591D01*
X94366211Y-108688361D01*
X94283996Y-108527006D01*
X94177553Y-108380499D01*
X94049501Y-108252447D01*
X93902994Y-108146004D01*
X93902993Y-108146003D01*
X93902991Y-108146002D01*
X93741637Y-108063788D01*
X93569406Y-108007828D01*
X93390549Y-107979500D01*
X93390546Y-107979500D01*
X93209454Y-107979500D01*
X93209451Y-107979500D01*
X93030593Y-108007828D01*
X92858362Y-108063788D01*
X92697006Y-108146003D01*
X92697002Y-108146005D01*
X92657690Y-108174568D01*
X92599499Y-108193475D01*
X92541309Y-108174567D01*
X92505345Y-108125067D01*
X92500500Y-108094475D01*
X92500500Y-107625524D01*
X92519407Y-107567333D01*
X92568907Y-107531369D01*
X92630093Y-107531369D01*
X92657690Y-107545431D01*
X92697006Y-107573996D01*
X92858361Y-107656211D01*
X93030591Y-107712171D01*
X93102136Y-107723502D01*
X93209451Y-107740500D01*
X93209454Y-107740500D01*
X93390549Y-107740500D01*
X93479977Y-107726335D01*
X93569409Y-107712171D01*
X93741639Y-107656211D01*
X93902994Y-107573996D01*
X94049501Y-107467553D01*
X94177553Y-107339501D01*
X94283996Y-107192994D01*
X94366211Y-107031639D01*
X94422171Y-106859409D01*
X94436756Y-106767325D01*
X94450500Y-106680549D01*
X94450500Y-106499450D01*
X94422171Y-106320593D01*
X94422171Y-106320591D01*
X94366211Y-106148361D01*
X94283996Y-105987006D01*
X94177553Y-105840499D01*
X94049501Y-105712447D01*
X93902994Y-105606004D01*
X93902993Y-105606003D01*
X93902991Y-105606002D01*
X93741637Y-105523788D01*
X93569406Y-105467828D01*
X93390549Y-105439500D01*
X93390546Y-105439500D01*
X93209454Y-105439500D01*
X93209451Y-105439500D01*
X93030593Y-105467828D01*
X92858362Y-105523788D01*
X92697006Y-105606003D01*
X92697002Y-105606005D01*
X92657690Y-105634568D01*
X92599499Y-105653475D01*
X92541309Y-105634567D01*
X92505345Y-105585067D01*
X92500500Y-105554475D01*
X92500500Y-105085524D01*
X92519407Y-105027333D01*
X92568907Y-104991369D01*
X92630093Y-104991369D01*
X92657690Y-105005431D01*
X92697006Y-105033996D01*
X92858361Y-105116211D01*
X93030591Y-105172171D01*
X93102136Y-105183502D01*
X93209451Y-105200500D01*
X93209454Y-105200500D01*
X93390549Y-105200500D01*
X93479977Y-105186335D01*
X93569409Y-105172171D01*
X93741639Y-105116211D01*
X93902994Y-105033996D01*
X94049501Y-104927553D01*
X94177553Y-104799501D01*
X94283996Y-104652994D01*
X94366211Y-104491639D01*
X94422171Y-104319409D01*
X94439724Y-104208586D01*
X94450500Y-104140549D01*
X94450500Y-103959450D01*
X94422171Y-103780593D01*
X94422171Y-103780591D01*
X94366211Y-103608361D01*
X94283996Y-103447006D01*
X94177553Y-103300499D01*
X94049501Y-103172447D01*
X93902994Y-103066004D01*
X93902993Y-103066003D01*
X93902991Y-103066002D01*
X93741637Y-102983788D01*
X93569406Y-102927828D01*
X93390549Y-102899500D01*
X93390546Y-102899500D01*
X93209454Y-102899500D01*
X93209451Y-102899500D01*
X93030593Y-102927828D01*
X92858362Y-102983788D01*
X92697006Y-103066003D01*
X92697002Y-103066005D01*
X92657690Y-103094568D01*
X92599499Y-103113475D01*
X92541309Y-103094567D01*
X92505345Y-103045067D01*
X92500500Y-103014475D01*
X92500500Y-102759499D01*
X92519407Y-102701308D01*
X92568907Y-102665344D01*
X92599500Y-102660499D01*
X94194861Y-102660499D01*
X94194864Y-102660499D01*
X94219991Y-102657585D01*
X94288071Y-102627525D01*
X96349500Y-102627525D01*
X96349500Y-102772475D01*
X96370012Y-102849027D01*
X96387017Y-102912489D01*
X96459487Y-103038010D01*
X96459489Y-103038012D01*
X96459491Y-103038015D01*
X96470505Y-103049029D01*
X96474130Y-103056144D01*
X96480593Y-103060840D01*
X96487756Y-103082888D01*
X96498281Y-103103544D01*
X96499500Y-103119031D01*
X96499500Y-103280968D01*
X96480593Y-103339159D01*
X96470506Y-103350969D01*
X96459492Y-103361983D01*
X96459487Y-103361989D01*
X96387017Y-103487510D01*
X96387016Y-103487515D01*
X96349500Y-103627525D01*
X96349500Y-103772475D01*
X96367060Y-103838010D01*
X96387017Y-103912489D01*
X96459487Y-104038010D01*
X96459489Y-104038012D01*
X96459491Y-104038015D01*
X96561985Y-104140509D01*
X96561987Y-104140510D01*
X96561989Y-104140512D01*
X96687511Y-104212982D01*
X96687512Y-104212982D01*
X96687515Y-104212984D01*
X96827525Y-104250500D01*
X96827526Y-104250500D01*
X96972474Y-104250500D01*
X96972475Y-104250500D01*
X97112485Y-104212984D01*
X97112487Y-104212982D01*
X97112489Y-104212982D01*
X97238010Y-104140512D01*
X97238010Y-104140511D01*
X97238015Y-104140509D01*
X97340509Y-104038015D01*
X97385210Y-103960591D01*
X97412982Y-103912489D01*
X97412982Y-103912487D01*
X97412984Y-103912485D01*
X97450500Y-103772475D01*
X97450500Y-103627525D01*
X97412984Y-103487515D01*
X97412982Y-103487512D01*
X97412982Y-103487510D01*
X97340512Y-103361989D01*
X97340507Y-103361983D01*
X97329494Y-103350969D01*
X97325868Y-103343853D01*
X97319407Y-103339159D01*
X97312242Y-103317109D01*
X97301718Y-103296452D01*
X97300500Y-103280968D01*
X97300500Y-103119031D01*
X97319407Y-103060840D01*
X97329490Y-103049033D01*
X97340509Y-103038015D01*
X97354100Y-103014475D01*
X97412982Y-102912489D01*
X97412982Y-102912487D01*
X97412984Y-102912485D01*
X97450500Y-102772475D01*
X97450500Y-102627525D01*
X97412984Y-102487515D01*
X97412982Y-102487512D01*
X97412982Y-102487510D01*
X97340512Y-102361989D01*
X97340510Y-102361987D01*
X97340509Y-102361985D01*
X97238015Y-102259491D01*
X97238012Y-102259489D01*
X97238010Y-102259487D01*
X97112488Y-102187017D01*
X97112489Y-102187017D01*
X97082896Y-102179087D01*
X96972475Y-102149500D01*
X96827525Y-102149500D01*
X96780931Y-102161985D01*
X96687510Y-102187017D01*
X96561989Y-102259487D01*
X96459487Y-102361989D01*
X96387017Y-102487510D01*
X96364251Y-102572474D01*
X96349500Y-102627525D01*
X94288071Y-102627525D01*
X94322765Y-102612206D01*
X94402206Y-102532765D01*
X94447585Y-102429991D01*
X94450500Y-102404865D01*
X94450499Y-100615136D01*
X94447585Y-100590009D01*
X94402206Y-100487235D01*
X94322765Y-100407794D01*
X94219991Y-100362415D01*
X94219990Y-100362414D01*
X94219988Y-100362414D01*
X94194869Y-100359500D01*
X94194865Y-100359500D01*
X92599500Y-100359500D01*
X92541309Y-100340593D01*
X92505345Y-100291093D01*
X92500500Y-100260500D01*
X92500500Y-91727525D01*
X92949500Y-91727525D01*
X92949500Y-91872475D01*
X92970139Y-91949500D01*
X92987017Y-92012489D01*
X93059487Y-92138010D01*
X93059489Y-92138012D01*
X93059491Y-92138015D01*
X93070505Y-92149029D01*
X93074130Y-92156144D01*
X93080593Y-92160840D01*
X93087756Y-92182888D01*
X93098281Y-92203544D01*
X93099500Y-92219031D01*
X93099500Y-92380968D01*
X93080593Y-92439159D01*
X93070506Y-92450969D01*
X93059492Y-92461983D01*
X93059487Y-92461989D01*
X92987017Y-92587510D01*
X92949500Y-92727525D01*
X92949500Y-92872474D01*
X92987017Y-93012489D01*
X93059487Y-93138010D01*
X93059489Y-93138012D01*
X93059491Y-93138015D01*
X93161985Y-93240509D01*
X93161987Y-93240510D01*
X93161989Y-93240512D01*
X93287511Y-93312982D01*
X93287512Y-93312982D01*
X93287515Y-93312984D01*
X93427525Y-93350500D01*
X93427526Y-93350500D01*
X93572474Y-93350500D01*
X93572475Y-93350500D01*
X93712485Y-93312984D01*
X93712487Y-93312982D01*
X93712489Y-93312982D01*
X93838010Y-93240512D01*
X93838010Y-93240511D01*
X93838015Y-93240509D01*
X93940509Y-93138015D01*
X93959051Y-93105900D01*
X94012982Y-93012489D01*
X94012982Y-93012487D01*
X94012984Y-93012485D01*
X94050500Y-92872475D01*
X94050500Y-92727525D01*
X94012984Y-92587515D01*
X94012982Y-92587512D01*
X94012982Y-92587510D01*
X93940512Y-92461989D01*
X93940507Y-92461983D01*
X93929494Y-92450969D01*
X93925868Y-92443853D01*
X93919407Y-92439159D01*
X93912242Y-92417109D01*
X93901718Y-92396452D01*
X93900500Y-92380968D01*
X93900500Y-92219031D01*
X93919407Y-92160840D01*
X93929490Y-92149033D01*
X93940509Y-92138015D01*
X93940512Y-92138010D01*
X94012982Y-92012489D01*
X94012982Y-92012487D01*
X94012984Y-92012485D01*
X94050500Y-91872475D01*
X94050500Y-91727525D01*
X94012984Y-91587515D01*
X94012982Y-91587512D01*
X94012982Y-91587510D01*
X93940512Y-91461989D01*
X93940510Y-91461987D01*
X93940509Y-91461985D01*
X93838015Y-91359491D01*
X93838012Y-91359489D01*
X93838010Y-91359487D01*
X93712488Y-91287017D01*
X93712489Y-91287017D01*
X93682896Y-91279087D01*
X93572475Y-91249500D01*
X93427525Y-91249500D01*
X93365790Y-91266041D01*
X93287510Y-91287017D01*
X93161989Y-91359487D01*
X93059487Y-91461989D01*
X92987017Y-91587510D01*
X92953794Y-91711500D01*
X92949500Y-91727525D01*
X92500500Y-91727525D01*
X92500500Y-83727525D01*
X93749500Y-83727525D01*
X93749500Y-83872475D01*
X93768258Y-83942480D01*
X93787016Y-84012486D01*
X93837831Y-84100500D01*
X93850552Y-84160349D01*
X93837831Y-84199500D01*
X93787016Y-84287513D01*
X93774204Y-84335330D01*
X93749500Y-84427525D01*
X93749500Y-84572475D01*
X93771414Y-84654257D01*
X93787017Y-84712489D01*
X93859487Y-84838010D01*
X93859489Y-84838012D01*
X93859491Y-84838015D01*
X93961985Y-84940509D01*
X93961987Y-84940510D01*
X93961989Y-84940512D01*
X94087511Y-85012982D01*
X94087512Y-85012982D01*
X94087515Y-85012984D01*
X94227525Y-85050500D01*
X94227526Y-85050500D01*
X94372474Y-85050500D01*
X94372475Y-85050500D01*
X94512485Y-85012984D01*
X94512487Y-85012982D01*
X94512489Y-85012982D01*
X94638010Y-84940512D01*
X94638010Y-84940511D01*
X94638015Y-84940509D01*
X94740509Y-84838015D01*
X94750564Y-84820598D01*
X94766290Y-84800101D01*
X96238866Y-83327525D01*
X110849500Y-83327525D01*
X110849500Y-83472475D01*
X110868947Y-83545050D01*
X110887017Y-83612489D01*
X110959487Y-83738010D01*
X110959489Y-83738012D01*
X110959491Y-83738015D01*
X111061985Y-83840509D01*
X111061987Y-83840510D01*
X111061989Y-83840512D01*
X111187511Y-83912982D01*
X111187512Y-83912982D01*
X111187515Y-83912984D01*
X111327525Y-83950500D01*
X111327526Y-83950500D01*
X111472474Y-83950500D01*
X111472475Y-83950500D01*
X111612485Y-83912984D01*
X111612487Y-83912982D01*
X111612489Y-83912982D01*
X111738010Y-83840512D01*
X111738010Y-83840511D01*
X111738015Y-83840509D01*
X111749029Y-83829494D01*
X111803544Y-83801719D01*
X111819031Y-83800500D01*
X113080969Y-83800500D01*
X113139160Y-83819407D01*
X113150966Y-83829490D01*
X113161985Y-83840509D01*
X113161987Y-83840510D01*
X113161989Y-83840512D01*
X113287511Y-83912982D01*
X113287512Y-83912982D01*
X113287515Y-83912984D01*
X113427525Y-83950500D01*
X113427526Y-83950500D01*
X113572474Y-83950500D01*
X113572475Y-83950500D01*
X113712485Y-83912984D01*
X113712487Y-83912982D01*
X113712489Y-83912982D01*
X113838010Y-83840512D01*
X113838010Y-83840511D01*
X113838015Y-83840509D01*
X113940509Y-83738015D01*
X113940512Y-83738010D01*
X114012982Y-83612489D01*
X114012982Y-83612487D01*
X114012984Y-83612485D01*
X114050500Y-83472475D01*
X114050500Y-83327525D01*
X114012984Y-83187515D01*
X114012982Y-83187512D01*
X114012982Y-83187510D01*
X113940512Y-83061989D01*
X113940510Y-83061987D01*
X113940509Y-83061985D01*
X113838015Y-82959491D01*
X113838012Y-82959489D01*
X113838010Y-82959487D01*
X113712488Y-82887017D01*
X113712489Y-82887017D01*
X113682896Y-82879087D01*
X113572475Y-82849500D01*
X113427525Y-82849500D01*
X113365790Y-82866041D01*
X113287510Y-82887017D01*
X113161989Y-82959487D01*
X113161988Y-82959488D01*
X113161985Y-82959490D01*
X113161985Y-82959491D01*
X113150970Y-82970505D01*
X113096456Y-82998281D01*
X113080969Y-82999500D01*
X111819031Y-82999500D01*
X111760840Y-82980593D01*
X111749033Y-82970509D01*
X111738015Y-82959491D01*
X111738012Y-82959489D01*
X111738010Y-82959487D01*
X111612488Y-82887017D01*
X111612489Y-82887017D01*
X111582896Y-82879087D01*
X111472475Y-82849500D01*
X111327525Y-82849500D01*
X111265790Y-82866041D01*
X111187510Y-82887017D01*
X111061989Y-82959487D01*
X110959487Y-83061989D01*
X110887017Y-83187510D01*
X110887016Y-83187515D01*
X110849500Y-83327525D01*
X96238866Y-83327525D01*
X101786896Y-77779496D01*
X101841413Y-77751719D01*
X101856900Y-77750500D01*
X101972474Y-77750500D01*
X101972475Y-77750500D01*
X102112485Y-77712984D01*
X102112487Y-77712982D01*
X102112489Y-77712982D01*
X102238010Y-77640512D01*
X102238010Y-77640511D01*
X102238015Y-77640509D01*
X102340509Y-77538015D01*
X102412984Y-77412485D01*
X102450500Y-77272475D01*
X102450500Y-77127525D01*
X102412984Y-76987515D01*
X102412982Y-76987511D01*
X102412982Y-76987510D01*
X102340512Y-76861989D01*
X102340510Y-76861987D01*
X102340509Y-76861985D01*
X102238015Y-76759491D01*
X102238012Y-76759489D01*
X102238010Y-76759487D01*
X102112488Y-76687017D01*
X102112489Y-76687017D01*
X102043480Y-76668526D01*
X101972475Y-76649500D01*
X101827525Y-76649500D01*
X101765790Y-76666041D01*
X101687510Y-76687017D01*
X101561989Y-76759487D01*
X101459487Y-76861989D01*
X101387017Y-76987511D01*
X101387015Y-76987515D01*
X101372258Y-77042589D01*
X101346636Y-77086969D01*
X100783495Y-77650111D01*
X100728978Y-77677888D01*
X100668546Y-77668317D01*
X100625281Y-77625052D01*
X100617864Y-77605729D01*
X100612984Y-77587515D01*
X100612982Y-77587511D01*
X100540512Y-77461989D01*
X100540510Y-77461987D01*
X100540509Y-77461985D01*
X100438015Y-77359491D01*
X100438012Y-77359489D01*
X100438010Y-77359487D01*
X100312488Y-77287017D01*
X100312489Y-77287017D01*
X100258214Y-77272474D01*
X100172475Y-77249500D01*
X100172474Y-77249500D01*
X100156901Y-77249500D01*
X100098710Y-77230593D01*
X100086897Y-77220504D01*
X99446192Y-76579799D01*
X99418415Y-76525282D01*
X99420569Y-76484174D01*
X99450500Y-76372475D01*
X99450500Y-76227525D01*
X109349500Y-76227525D01*
X109349500Y-76372474D01*
X109387017Y-76512489D01*
X109459487Y-76638010D01*
X109459489Y-76638012D01*
X109459491Y-76638015D01*
X109561985Y-76740509D01*
X109561987Y-76740510D01*
X109561989Y-76740512D01*
X109687511Y-76812982D01*
X109687512Y-76812982D01*
X109687515Y-76812984D01*
X109827525Y-76850500D01*
X109827526Y-76850500D01*
X109972474Y-76850500D01*
X109972475Y-76850500D01*
X110112485Y-76812984D01*
X110112487Y-76812982D01*
X110112489Y-76812982D01*
X110238010Y-76740512D01*
X110238010Y-76740511D01*
X110238015Y-76740509D01*
X110249029Y-76729494D01*
X110256144Y-76725869D01*
X110260840Y-76719407D01*
X110282888Y-76712243D01*
X110303544Y-76701719D01*
X110319031Y-76700500D01*
X110480969Y-76700500D01*
X110539160Y-76719407D01*
X110550966Y-76729490D01*
X110561985Y-76740509D01*
X110561987Y-76740510D01*
X110561989Y-76740512D01*
X110687511Y-76812982D01*
X110687512Y-76812982D01*
X110687515Y-76812984D01*
X110827525Y-76850500D01*
X110827526Y-76850500D01*
X110972474Y-76850500D01*
X110972475Y-76850500D01*
X111112485Y-76812984D01*
X111112487Y-76812982D01*
X111112489Y-76812982D01*
X111238010Y-76740512D01*
X111238010Y-76740511D01*
X111238015Y-76740509D01*
X111249029Y-76729494D01*
X111303544Y-76701719D01*
X111319031Y-76700500D01*
X113680969Y-76700500D01*
X113739160Y-76719407D01*
X113750966Y-76729490D01*
X113761985Y-76740509D01*
X113761987Y-76740510D01*
X113761989Y-76740512D01*
X113887511Y-76812982D01*
X113887512Y-76812982D01*
X113887515Y-76812984D01*
X114027525Y-76850500D01*
X114027526Y-76850500D01*
X114172474Y-76850500D01*
X114172475Y-76850500D01*
X114312485Y-76812984D01*
X114312487Y-76812982D01*
X114312489Y-76812982D01*
X114438010Y-76740512D01*
X114438010Y-76740511D01*
X114438015Y-76740509D01*
X114540509Y-76638015D01*
X114574120Y-76579799D01*
X114612982Y-76512489D01*
X114612982Y-76512487D01*
X114612984Y-76512485D01*
X114650500Y-76372475D01*
X114650500Y-76227525D01*
X114612984Y-76087515D01*
X114612982Y-76087512D01*
X114612982Y-76087510D01*
X114540512Y-75961989D01*
X114540510Y-75961987D01*
X114540509Y-75961985D01*
X114438015Y-75859491D01*
X114438012Y-75859489D01*
X114438010Y-75859487D01*
X114312488Y-75787017D01*
X114312489Y-75787017D01*
X114282896Y-75779087D01*
X114172475Y-75749500D01*
X114027525Y-75749500D01*
X113965790Y-75766041D01*
X113887510Y-75787017D01*
X113761989Y-75859487D01*
X113761988Y-75859488D01*
X113761985Y-75859490D01*
X113761985Y-75859491D01*
X113750970Y-75870505D01*
X113696456Y-75898281D01*
X113680969Y-75899500D01*
X111319031Y-75899500D01*
X111260840Y-75880593D01*
X111249033Y-75870509D01*
X111238015Y-75859491D01*
X111238012Y-75859489D01*
X111238010Y-75859487D01*
X111112488Y-75787017D01*
X111112489Y-75787017D01*
X111082896Y-75779087D01*
X110972475Y-75749500D01*
X110827525Y-75749500D01*
X110765790Y-75766041D01*
X110687510Y-75787017D01*
X110561989Y-75859487D01*
X110561988Y-75859488D01*
X110561985Y-75859490D01*
X110561985Y-75859491D01*
X110550970Y-75870505D01*
X110543855Y-75874130D01*
X110539160Y-75880593D01*
X110517111Y-75887756D01*
X110496456Y-75898281D01*
X110480969Y-75899500D01*
X110319031Y-75899500D01*
X110260840Y-75880593D01*
X110249033Y-75870509D01*
X110238015Y-75859491D01*
X110238012Y-75859489D01*
X110238010Y-75859487D01*
X110112488Y-75787017D01*
X110112489Y-75787017D01*
X110082896Y-75779087D01*
X109972475Y-75749500D01*
X109827525Y-75749500D01*
X109765790Y-75766041D01*
X109687510Y-75787017D01*
X109561989Y-75859487D01*
X109459487Y-75961989D01*
X109387017Y-76087510D01*
X109349500Y-76227525D01*
X99450500Y-76227525D01*
X99412984Y-76087515D01*
X99412982Y-76087512D01*
X99412982Y-76087510D01*
X99340512Y-75961989D01*
X99340510Y-75961987D01*
X99340509Y-75961985D01*
X99238015Y-75859491D01*
X99238012Y-75859489D01*
X99238010Y-75859487D01*
X99112488Y-75787017D01*
X99112489Y-75787017D01*
X99082896Y-75779087D01*
X98972475Y-75749500D01*
X98827525Y-75749500D01*
X98765790Y-75766041D01*
X98687510Y-75787017D01*
X98561989Y-75859487D01*
X98459487Y-75961989D01*
X98387017Y-76087510D01*
X98349500Y-76227525D01*
X98349500Y-76372474D01*
X98387017Y-76512489D01*
X98459487Y-76638010D01*
X98459488Y-76638011D01*
X98459489Y-76638012D01*
X98459491Y-76638015D01*
X98490002Y-76668526D01*
X98515623Y-76712904D01*
X98526793Y-76754589D01*
X98526794Y-76754591D01*
X98579516Y-76845908D01*
X98579518Y-76845910D01*
X98579520Y-76845913D01*
X99520505Y-77786898D01*
X99548281Y-77841413D01*
X99549500Y-77856900D01*
X99549500Y-77872474D01*
X99587017Y-78012489D01*
X99659487Y-78138010D01*
X99659489Y-78138012D01*
X99659491Y-78138015D01*
X99761985Y-78240509D01*
X99761987Y-78240510D01*
X99761989Y-78240512D01*
X99887511Y-78312982D01*
X99887512Y-78312982D01*
X99887515Y-78312984D01*
X99905730Y-78317864D01*
X99957044Y-78351188D01*
X99978971Y-78408309D01*
X99963136Y-78467410D01*
X99950111Y-78483495D01*
X94916332Y-83517273D01*
X94895110Y-83528085D01*
X94875658Y-83541825D01*
X94868336Y-83541726D01*
X94861815Y-83545050D01*
X94838293Y-83541324D01*
X94814478Y-83541006D01*
X94809266Y-83536727D01*
X94801383Y-83535479D01*
X94765464Y-83504383D01*
X94762854Y-83500688D01*
X94740509Y-83461985D01*
X94723517Y-83444993D01*
X94718636Y-83438082D01*
X94711955Y-83416546D01*
X94701718Y-83396452D01*
X94700500Y-83380968D01*
X94700500Y-82606901D01*
X94719407Y-82548710D01*
X94729496Y-82536897D01*
X95086897Y-82179496D01*
X95141414Y-82151719D01*
X95156901Y-82150500D01*
X95172474Y-82150500D01*
X95172475Y-82150500D01*
X95312485Y-82112984D01*
X95312487Y-82112982D01*
X95312489Y-82112982D01*
X95438010Y-82040512D01*
X95438010Y-82040511D01*
X95438015Y-82040509D01*
X95540509Y-81938015D01*
X95612984Y-81812485D01*
X95650500Y-81672475D01*
X95650500Y-81527525D01*
X95612984Y-81387515D01*
X95612982Y-81387512D01*
X95612982Y-81387510D01*
X95540512Y-81261989D01*
X95540510Y-81261987D01*
X95540509Y-81261985D01*
X95438015Y-81159491D01*
X95438012Y-81159489D01*
X95438010Y-81159487D01*
X95312488Y-81087017D01*
X95312489Y-81087017D01*
X95282896Y-81079087D01*
X95172475Y-81049500D01*
X95027525Y-81049500D01*
X94965790Y-81066041D01*
X94887510Y-81087017D01*
X94761989Y-81159487D01*
X94659487Y-81261989D01*
X94587017Y-81387510D01*
X94549500Y-81527525D01*
X94549500Y-81543099D01*
X94530593Y-81601290D01*
X94520504Y-81613103D01*
X93979516Y-82154091D01*
X93926793Y-82245411D01*
X93926792Y-82245411D01*
X93926793Y-82245412D01*
X93899500Y-82347273D01*
X93899500Y-83380968D01*
X93880593Y-83439159D01*
X93870506Y-83450969D01*
X93859492Y-83461983D01*
X93859487Y-83461989D01*
X93787017Y-83587510D01*
X93787016Y-83587515D01*
X93749500Y-83727525D01*
X92500500Y-83727525D01*
X92500500Y-74027525D01*
X101749500Y-74027525D01*
X101749500Y-74172474D01*
X101787017Y-74312489D01*
X101859487Y-74438010D01*
X101859489Y-74438012D01*
X101859491Y-74438015D01*
X101870505Y-74449029D01*
X101874130Y-74456144D01*
X101880593Y-74460840D01*
X101887756Y-74482888D01*
X101898281Y-74503544D01*
X101899500Y-74519031D01*
X101899500Y-74680968D01*
X101880593Y-74739159D01*
X101870506Y-74750969D01*
X101859492Y-74761983D01*
X101859487Y-74761989D01*
X101787017Y-74887510D01*
X101749500Y-75027525D01*
X101749500Y-75172474D01*
X101787017Y-75312489D01*
X101859487Y-75438010D01*
X101859489Y-75438012D01*
X101859491Y-75438015D01*
X101961985Y-75540509D01*
X101961987Y-75540510D01*
X101961989Y-75540512D01*
X102087511Y-75612982D01*
X102087512Y-75612982D01*
X102087515Y-75612984D01*
X102227525Y-75650500D01*
X102227526Y-75650500D01*
X102372474Y-75650500D01*
X102372475Y-75650500D01*
X102512485Y-75612984D01*
X102512487Y-75612982D01*
X102512489Y-75612982D01*
X102638010Y-75540512D01*
X102638010Y-75540511D01*
X102638015Y-75540509D01*
X102740509Y-75438015D01*
X102812984Y-75312485D01*
X102850500Y-75172475D01*
X102850500Y-75027525D01*
X102812984Y-74887515D01*
X102812982Y-74887512D01*
X102812982Y-74887510D01*
X102740512Y-74761989D01*
X102740507Y-74761983D01*
X102729494Y-74750969D01*
X102725868Y-74743853D01*
X102719407Y-74739159D01*
X102712242Y-74717109D01*
X102701718Y-74696452D01*
X102700500Y-74680968D01*
X102700500Y-74519031D01*
X102719407Y-74460840D01*
X102729490Y-74449033D01*
X102740509Y-74438015D01*
X102812984Y-74312485D01*
X102850500Y-74172475D01*
X102850500Y-74027525D01*
X102812984Y-73887515D01*
X102812982Y-73887512D01*
X102812982Y-73887510D01*
X102740512Y-73761989D01*
X102740510Y-73761987D01*
X102740509Y-73761985D01*
X102638015Y-73659491D01*
X102638012Y-73659489D01*
X102638010Y-73659487D01*
X102512488Y-73587017D01*
X102512489Y-73587017D01*
X102482896Y-73579087D01*
X102372475Y-73549500D01*
X102227525Y-73549500D01*
X102165790Y-73566041D01*
X102087510Y-73587017D01*
X101961989Y-73659487D01*
X101859487Y-73761989D01*
X101787017Y-73887510D01*
X101749500Y-74027525D01*
X92500500Y-74027525D01*
X92500500Y-70275000D01*
X94250000Y-70275000D01*
X94250001Y-70275000D01*
X96149999Y-70275000D01*
X96150000Y-70275000D01*
X113250000Y-70275000D01*
X113250001Y-70275000D01*
X115149999Y-70275000D01*
X115150000Y-70275000D01*
X115150000Y-68185000D01*
X113250000Y-68185000D01*
X113250000Y-70275000D01*
X96150000Y-70275000D01*
X96150000Y-68185000D01*
X94250000Y-68185000D01*
X94250000Y-70275000D01*
X92500500Y-70275000D01*
X92500500Y-66599500D01*
X92519407Y-66541309D01*
X92568907Y-66505345D01*
X92599500Y-66500500D01*
X116800500Y-66500500D01*
X116858691Y-66519407D01*
G37*
%TD.AperFunction*%
%TA.AperFunction,Conductor*%
G36*
X108685977Y-99539660D02*
G01*
X108733528Y-99578165D01*
X108749500Y-99632085D01*
X108749500Y-99672475D01*
X108772797Y-99759421D01*
X108787017Y-99812489D01*
X108859487Y-99938010D01*
X108859489Y-99938012D01*
X108859491Y-99938015D01*
X108961985Y-100040509D01*
X108961987Y-100040510D01*
X108961989Y-100040512D01*
X109087511Y-100112982D01*
X109087512Y-100112982D01*
X109087515Y-100112984D01*
X109227525Y-100150500D01*
X109243099Y-100150500D01*
X109301290Y-100169407D01*
X109313103Y-100179496D01*
X110220504Y-101086897D01*
X110248281Y-101141414D01*
X110249500Y-101156901D01*
X110249500Y-101172475D01*
X110279087Y-101282896D01*
X110287017Y-101312489D01*
X110359487Y-101438010D01*
X110359489Y-101438012D01*
X110359491Y-101438015D01*
X110457538Y-101536062D01*
X110485314Y-101590577D01*
X110475743Y-101651009D01*
X110457537Y-101676068D01*
X108916332Y-103217273D01*
X108895110Y-103228085D01*
X108875658Y-103241825D01*
X108868336Y-103241726D01*
X108861815Y-103245050D01*
X108838293Y-103241324D01*
X108814478Y-103241006D01*
X108809266Y-103236727D01*
X108801383Y-103235479D01*
X108765464Y-103204383D01*
X108762854Y-103200688D01*
X108740509Y-103161985D01*
X108723517Y-103144993D01*
X108718636Y-103138082D01*
X108711955Y-103116546D01*
X108701718Y-103096452D01*
X108700500Y-103080968D01*
X108700500Y-102919031D01*
X108719407Y-102860840D01*
X108729490Y-102849033D01*
X108740509Y-102838015D01*
X108746564Y-102827527D01*
X108812982Y-102712489D01*
X108812982Y-102712487D01*
X108812984Y-102712485D01*
X108850500Y-102572475D01*
X108850500Y-102427525D01*
X108812984Y-102287515D01*
X108812982Y-102287512D01*
X108812982Y-102287510D01*
X108740512Y-102161989D01*
X108740510Y-102161987D01*
X108740509Y-102161985D01*
X108638015Y-102059491D01*
X108638012Y-102059489D01*
X108638010Y-102059487D01*
X108512488Y-101987017D01*
X108512489Y-101987017D01*
X108458218Y-101972475D01*
X108372475Y-101949500D01*
X108227525Y-101949500D01*
X108180931Y-101961985D01*
X108087510Y-101987017D01*
X107961989Y-102059487D01*
X107859487Y-102161989D01*
X107787017Y-102287510D01*
X107764251Y-102372474D01*
X107749500Y-102427525D01*
X107749500Y-102572475D01*
X107775095Y-102667997D01*
X107787017Y-102712489D01*
X107859487Y-102838010D01*
X107859489Y-102838012D01*
X107859491Y-102838015D01*
X107870505Y-102849029D01*
X107874130Y-102856144D01*
X107880593Y-102860840D01*
X107887756Y-102882888D01*
X107898281Y-102903544D01*
X107899500Y-102919031D01*
X107899500Y-103080968D01*
X107880593Y-103139159D01*
X107870506Y-103150969D01*
X107859492Y-103161983D01*
X107859487Y-103161989D01*
X107787017Y-103287510D01*
X107749500Y-103427525D01*
X107749500Y-103572474D01*
X107787017Y-103712489D01*
X107859487Y-103838010D01*
X107859489Y-103838012D01*
X107859491Y-103838015D01*
X107961985Y-103940509D01*
X107996770Y-103960592D01*
X108037710Y-104006061D01*
X108044106Y-104066911D01*
X108017273Y-104116332D01*
X107319504Y-104814102D01*
X107264987Y-104841879D01*
X107204555Y-104832308D01*
X107161290Y-104789043D01*
X107150500Y-104744098D01*
X107150500Y-104627525D01*
X107130956Y-104554588D01*
X107112984Y-104487515D01*
X107112982Y-104487512D01*
X107112982Y-104487510D01*
X107040512Y-104361989D01*
X107040510Y-104361987D01*
X107040509Y-104361985D01*
X106938015Y-104259491D01*
X106938012Y-104259489D01*
X106938010Y-104259487D01*
X106812488Y-104187017D01*
X106812489Y-104187017D01*
X106748074Y-104169757D01*
X106672475Y-104149500D01*
X106527525Y-104149500D01*
X106465790Y-104166041D01*
X106387510Y-104187017D01*
X106261989Y-104259487D01*
X106159487Y-104361989D01*
X106087017Y-104487510D01*
X106049500Y-104627525D01*
X106049500Y-104643099D01*
X106030593Y-104701290D01*
X106020504Y-104713103D01*
X105663103Y-105070504D01*
X105608586Y-105098281D01*
X105593099Y-105099500D01*
X104445483Y-105099500D01*
X104387292Y-105080593D01*
X104351328Y-105031093D01*
X104346901Y-104991418D01*
X104347674Y-104983018D01*
X104350500Y-104972475D01*
X104350500Y-104952354D01*
X104350918Y-104947817D01*
X104361288Y-104923695D01*
X104369407Y-104898708D01*
X104374690Y-104892522D01*
X104375084Y-104891606D01*
X104375873Y-104891136D01*
X104379490Y-104886901D01*
X108145910Y-101120481D01*
X108145913Y-101120480D01*
X108220480Y-101045913D01*
X108273207Y-100954587D01*
X108275665Y-100945412D01*
X108300501Y-100852727D01*
X108300501Y-100747273D01*
X108300501Y-100741211D01*
X108300500Y-100741193D01*
X108300500Y-99645483D01*
X108319407Y-99587292D01*
X108368907Y-99551328D01*
X108421050Y-99549963D01*
X108421091Y-99549653D01*
X108423052Y-99549911D01*
X108425125Y-99549857D01*
X108427525Y-99550500D01*
X108572476Y-99550500D01*
X108572476Y-99550499D01*
X108624876Y-99536459D01*
X108685977Y-99539660D01*
G37*
%TD.AperFunction*%
%TA.AperFunction,Conductor*%
G36*
X105287130Y-97976004D02*
G01*
X105302449Y-97985669D01*
X105340243Y-98014670D01*
X105454257Y-98080496D01*
X105454258Y-98080496D01*
X105454261Y-98080498D01*
X105471190Y-98087510D01*
X105527936Y-98111015D01*
X105655103Y-98145090D01*
X105734174Y-98155500D01*
X105734175Y-98155500D01*
X106300005Y-98155500D01*
X106314094Y-98154848D01*
X106328188Y-98154197D01*
X106418150Y-98128599D01*
X106464434Y-98126698D01*
X106482071Y-98130183D01*
X106489641Y-98134870D01*
X106600000Y-98155500D01*
X106610188Y-98155500D01*
X106619692Y-98157378D01*
X106638357Y-98167800D01*
X106658691Y-98174407D01*
X106664494Y-98182394D01*
X106673113Y-98187207D01*
X106682086Y-98206608D01*
X106694655Y-98223907D01*
X106697032Y-98238921D01*
X106698799Y-98242740D01*
X106698154Y-98246002D01*
X106699500Y-98254500D01*
X106699500Y-98447273D01*
X106699500Y-98552727D01*
X106717492Y-98619878D01*
X106714290Y-98680979D01*
X106675785Y-98728529D01*
X106639742Y-98742873D01*
X106630879Y-98744500D01*
X106600000Y-98744500D01*
X106571812Y-98745803D01*
X106477304Y-98772693D01*
X106472632Y-98773551D01*
X106446776Y-98770102D01*
X106420704Y-98769138D01*
X106418967Y-98768298D01*
X106418912Y-98768443D01*
X106410358Y-98765129D01*
X106300000Y-98744500D01*
X105734174Y-98744500D01*
X105734172Y-98744500D01*
X105655108Y-98754909D01*
X105655105Y-98754909D01*
X105655103Y-98754910D01*
X105622856Y-98763550D01*
X105527936Y-98788984D01*
X105454261Y-98819501D01*
X105340239Y-98885332D01*
X105276978Y-98933874D01*
X105183874Y-99026978D01*
X105135332Y-99090239D01*
X105069501Y-99204261D01*
X105038984Y-99277936D01*
X105004909Y-99405108D01*
X104996582Y-99468359D01*
X104994500Y-99484174D01*
X104994500Y-100115826D01*
X105004910Y-100194897D01*
X105020365Y-100252576D01*
X105038984Y-100322063D01*
X105064211Y-100382964D01*
X105069012Y-100443961D01*
X105042751Y-100490854D01*
X103669504Y-101864102D01*
X103614987Y-101891879D01*
X103554555Y-101882308D01*
X103511290Y-101839043D01*
X103500500Y-101794098D01*
X103500500Y-100747274D01*
X103500499Y-100747269D01*
X103479526Y-100668996D01*
X103482728Y-100607899D01*
X103505149Y-100573373D01*
X103540509Y-100538015D01*
X103564477Y-100496501D01*
X103612982Y-100412489D01*
X103612982Y-100412487D01*
X103612984Y-100412485D01*
X103650500Y-100272475D01*
X103650500Y-100127525D01*
X103612984Y-99987515D01*
X103612982Y-99987512D01*
X103612982Y-99987510D01*
X103540512Y-99861989D01*
X103540510Y-99861987D01*
X103540509Y-99861985D01*
X103492459Y-99813935D01*
X103464684Y-99759421D01*
X103474255Y-99698989D01*
X103492458Y-99673933D01*
X105172183Y-97994208D01*
X105226698Y-97966433D01*
X105287130Y-97976004D01*
G37*
%TD.AperFunction*%
%TD*%
M02*
