%TF.GenerationSoftware,KiCad,Pcbnew,9.0.2*%
%TF.CreationDate,2026-08-05T13:40:56+03:00*%
%TF.ProjectId,sim7080g,73696d37-3038-4306-972e-6b696361645f,rev?*%
%TF.SameCoordinates,Original*%
%TF.FileFunction,Soldermask,Top*%
%TF.FilePolarity,Negative*%
%FSLAX46Y46*%
G04 Gerber Fmt 4.6, Leading zero omitted, Abs format (unit mm)*
G04 Created by KiCad (PCBNEW 9.0.2) date 2026-08-05 13:40:56*
%MOMM*%
%LPD*%
G01*
G04 APERTURE LIST*
G04 Aperture macros list*
%AMRoundRect*
0 Rectangle with rounded corners*
0 $1 Rounding radius*
0 $2 $3 $4 $5 $6 $7 $8 $9 X,Y pos of 4 corners*
0 Add a 4 corners polygon primitive as box body*
4,1,4,$2,$3,$4,$5,$6,$7,$8,$9,$2,$3,0*
0 Add four circle primitives for the rounded corners*
1,1,$1+$1,$2,$3*
1,1,$1+$1,$4,$5*
1,1,$1+$1,$6,$7*
1,1,$1+$1,$8,$9*
0 Add four rect primitives between the rounded corners*
20,1,$1+$1,$2,$3,$4,$5,0*
20,1,$1+$1,$4,$5,$6,$7,0*
20,1,$1+$1,$6,$7,$8,$9,0*
20,1,$1+$1,$8,$9,$2,$3,0*%
G04 Aperture macros list end*
%ADD10C,0.010000*%
%ADD11RoundRect,0.062500X-0.062500X0.117500X-0.062500X-0.117500X0.062500X-0.117500X0.062500X0.117500X0*%
%ADD12RoundRect,0.050000X-0.250000X-0.070000X0.250000X-0.070000X0.250000X0.070000X-0.250000X0.070000X0*%
%ADD13RoundRect,0.050000X-0.070000X0.250000X-0.070000X-0.250000X0.070000X-0.250000X0.070000X0.250000X0*%
%ADD14RoundRect,0.050000X-1.475000X0.975000X-1.475000X-0.975000X1.475000X-0.975000X1.475000X0.975000X0*%
%ADD15RoundRect,0.250000X-0.450000X0.262500X-0.450000X-0.262500X0.450000X-0.262500X0.450000X0.262500X0*%
%ADD16RoundRect,0.150000X-0.587500X-0.150000X0.587500X-0.150000X0.587500X0.150000X-0.587500X0.150000X0*%
%ADD17RoundRect,0.250000X-0.475000X0.250000X-0.475000X-0.250000X0.475000X-0.250000X0.475000X0.250000X0*%
%ADD18RoundRect,0.250000X-0.262500X-0.450000X0.262500X-0.450000X0.262500X0.450000X-0.262500X0.450000X0*%
%ADD19RoundRect,0.150000X-0.150000X0.512500X-0.150000X-0.512500X0.150000X-0.512500X0.150000X0.512500X0*%
%ADD20RoundRect,0.250000X0.250000X0.475000X-0.250000X0.475000X-0.250000X-0.475000X0.250000X-0.475000X0*%
%ADD21RoundRect,0.250000X-0.250000X-0.475000X0.250000X-0.475000X0.250000X0.475000X-0.250000X0.475000X0*%
%ADD22R,0.900000X1.200000*%
%ADD23R,1.300000X1.800000*%
%ADD24RoundRect,0.250000X-0.250000X0.275000X-0.250000X-0.275000X0.250000X-0.275000X0.250000X0.275000X0*%
%ADD25RoundRect,0.250000X-0.275000X0.850000X-0.275000X-0.850000X0.275000X-0.850000X0.275000X0.850000X0*%
%ADD26O,1.804000X0.804000*%
%ADD27O,0.804000X1.804000*%
%ADD28RoundRect,0.102000X-0.550000X-0.450000X0.550000X-0.450000X0.550000X0.450000X-0.550000X0.450000X0*%
%ADD29RoundRect,0.102000X-0.450000X-0.550000X0.450000X-0.550000X0.450000X0.550000X-0.450000X0.550000X0*%
%ADD30RoundRect,0.102000X-1.300000X-1.550000X1.300000X-1.550000X1.300000X1.550000X-1.300000X1.550000X0*%
%ADD31RoundRect,0.243750X0.456250X-0.243750X0.456250X0.243750X-0.456250X0.243750X-0.456250X-0.243750X0*%
%ADD32RoundRect,0.250000X0.450000X-0.262500X0.450000X0.262500X-0.450000X0.262500X-0.450000X-0.262500X0*%
%ADD33RoundRect,0.250000X0.475000X-0.250000X0.475000X0.250000X-0.475000X0.250000X-0.475000X-0.250000X0*%
%ADD34RoundRect,0.150000X0.587500X0.150000X-0.587500X0.150000X-0.587500X-0.150000X0.587500X-0.150000X0*%
%ADD35RoundRect,0.250000X0.325000X0.650000X-0.325000X0.650000X-0.325000X-0.650000X0.325000X-0.650000X0*%
%ADD36RoundRect,0.250000X0.262500X0.450000X-0.262500X0.450000X-0.262500X-0.450000X0.262500X-0.450000X0*%
%ADD37RoundRect,0.062500X-0.117500X-0.062500X0.117500X-0.062500X0.117500X0.062500X-0.117500X0.062500X0*%
%ADD38R,1.700000X1.700000*%
%ADD39C,1.700000*%
G04 APERTURE END LIST*
%TO.C,J4*%
G36*
X115140000Y-68185000D02*
G01*
X113260000Y-68185000D01*
X113260000Y-70275000D01*
X115140000Y-70275000D01*
X115140000Y-68185000D01*
G37*
D10*
%TO.C,U2*%
X103100000Y-82750000D02*
X100300000Y-82750000D01*
X100300000Y-80480000D01*
X101330000Y-79450000D01*
X103100000Y-79450000D01*
X103100000Y-82750000D01*
G36*
X103100000Y-82750000D02*
G01*
X100300000Y-82750000D01*
X100300000Y-80480000D01*
X101330000Y-79450000D01*
X103100000Y-79450000D01*
X103100000Y-82750000D01*
G37*
%TO.C,J1*%
G36*
X96140000Y-68185000D02*
G01*
X94260000Y-68185000D01*
X94260000Y-70275000D01*
X96140000Y-70275000D01*
X96140000Y-68185000D01*
G37*
%TD*%
D11*
%TO.C,D1*%
X115600000Y-83100000D03*
X115600000Y-82260000D03*
%TD*%
D12*
%TO.C,U1*%
X103400000Y-97700000D03*
D13*
X103000000Y-96800000D03*
X102500000Y-96800000D03*
X102000000Y-96800000D03*
X101500000Y-96800000D03*
X101000000Y-96800000D03*
X100500000Y-96800000D03*
X100000000Y-96800000D03*
X99500000Y-96800000D03*
D12*
X99100000Y-97700000D03*
X99100000Y-99200000D03*
D13*
X99500000Y-100100000D03*
X100000000Y-100100000D03*
X100500000Y-100100000D03*
X101000000Y-100100000D03*
X101500000Y-100100000D03*
X102000000Y-100100000D03*
X102500000Y-100100000D03*
X103000000Y-100100000D03*
D12*
X103400000Y-99200000D03*
D14*
X101250000Y-98450000D03*
%TD*%
D15*
%TO.C,R1*%
X115600000Y-78600000D03*
X115600000Y-80425000D03*
%TD*%
%TO.C,R5*%
X110200000Y-103832500D03*
X110200000Y-105657500D03*
%TD*%
D16*
%TO.C,Q2*%
X93462500Y-93650000D03*
X93462500Y-95550000D03*
X95337500Y-94600000D03*
%TD*%
D15*
%TO.C,R3*%
X107960000Y-99287500D03*
X107960000Y-101112500D03*
%TD*%
D17*
%TO.C,C6*%
X105800000Y-99250000D03*
X105800000Y-101150000D03*
%TD*%
D18*
%TO.C,R7*%
X97775000Y-72400000D03*
X99600000Y-72400000D03*
%TD*%
D19*
%TO.C,D2*%
X111950000Y-99325000D03*
X111000000Y-99325000D03*
X110050000Y-99325000D03*
X110050000Y-101600000D03*
X111950000Y-101600000D03*
%TD*%
D20*
%TO.C,C11*%
X105100000Y-70300000D03*
X103200000Y-70300000D03*
%TD*%
D15*
%TO.C,R9*%
X115700000Y-86487500D03*
X115700000Y-88312500D03*
%TD*%
D21*
%TO.C,C5*%
X99600000Y-105700000D03*
X101500000Y-105700000D03*
%TD*%
D15*
%TO.C,R4*%
X108000000Y-103832500D03*
X108000000Y-105657500D03*
%TD*%
D20*
%TO.C,C1*%
X107250000Y-96800000D03*
X105350000Y-96800000D03*
%TD*%
D22*
%TO.C,U3*%
X102030000Y-107902500D03*
X104570000Y-107902500D03*
X107110000Y-107902500D03*
X103300000Y-107902500D03*
X105840000Y-107902500D03*
X108380000Y-107902500D03*
D23*
X99350000Y-112002500D03*
X99350000Y-120802500D03*
X111050000Y-120802500D03*
X111050000Y-112002500D03*
%TD*%
D24*
%TO.C,J4*%
X114200000Y-67650000D03*
D25*
X115675000Y-69175000D03*
X112725000Y-69175000D03*
%TD*%
D20*
%TO.C,C3*%
X103850000Y-72900000D03*
X101950000Y-72900000D03*
%TD*%
D17*
%TO.C,C8*%
X112400000Y-103775000D03*
X112400000Y-105675000D03*
%TD*%
D26*
%TO.C,U2*%
X96750000Y-78450000D03*
X96750000Y-79550000D03*
X96750000Y-80650000D03*
X96750000Y-81750000D03*
X96750000Y-82850000D03*
X96750000Y-83950000D03*
X96750000Y-85050000D03*
X96750000Y-86150000D03*
X96750000Y-87250000D03*
X96750000Y-88350000D03*
X96750000Y-89450000D03*
X96750000Y-90550000D03*
D27*
X100200000Y-93300000D03*
X101300000Y-93300000D03*
X102400000Y-93300000D03*
X103500000Y-93300000D03*
X104600000Y-93300000D03*
X105700000Y-93300000D03*
X106800000Y-93300000D03*
X107900000Y-93300000D03*
X109000000Y-93300000D03*
D26*
X112450000Y-90550000D03*
X112450000Y-89450000D03*
X112450000Y-88350000D03*
X112450000Y-87250000D03*
X112450000Y-86150000D03*
X112450000Y-85050000D03*
X112450000Y-83950000D03*
X112450000Y-82850000D03*
X112450000Y-81750000D03*
X112450000Y-80650000D03*
X112450000Y-79550000D03*
X112450000Y-78450000D03*
D27*
X109000000Y-75700000D03*
X107900000Y-75700000D03*
X106800000Y-75700000D03*
X105700000Y-75700000D03*
X104600000Y-75700000D03*
X103500000Y-75700000D03*
X102400000Y-75700000D03*
X101300000Y-75700000D03*
X100200000Y-75700000D03*
D28*
X99250000Y-79600000D03*
X99250000Y-81000000D03*
X99250000Y-82400000D03*
X99250000Y-83800000D03*
X99250000Y-85200000D03*
X99250000Y-86600000D03*
X99250000Y-88000000D03*
X99250000Y-89400000D03*
D29*
X100400000Y-90800000D03*
X101800000Y-90800000D03*
X103200000Y-90800000D03*
X104600000Y-90800000D03*
X106000000Y-90800000D03*
X107400000Y-90800000D03*
X108800000Y-90800000D03*
D28*
X109950000Y-89400000D03*
X109950000Y-88000000D03*
X109950000Y-86600000D03*
X109950000Y-85200000D03*
X109950000Y-83800000D03*
D29*
X107400000Y-78200000D03*
X106000000Y-78200000D03*
X104600000Y-78200000D03*
X103200000Y-78200000D03*
X101800000Y-78200000D03*
X100400000Y-78200000D03*
D30*
X101700000Y-84500000D03*
X101700000Y-87900000D03*
X104600000Y-87900000D03*
X107500000Y-87900000D03*
X107500000Y-84500000D03*
X107500000Y-81100000D03*
X104600000Y-81100000D03*
X104600000Y-84500000D03*
%TD*%
D31*
%TO.C,D4*%
X111400000Y-97137500D03*
X111400000Y-95262500D03*
%TD*%
D32*
%TO.C,R2*%
X93600000Y-82812500D03*
X93600000Y-80987500D03*
%TD*%
D24*
%TO.C,J1*%
X95200000Y-67650000D03*
D25*
X96675000Y-69175000D03*
X93725000Y-69175000D03*
%TD*%
D33*
%TO.C,C2*%
X103400000Y-103850000D03*
X103400000Y-101950000D03*
%TD*%
D34*
%TO.C,Q3*%
X115737500Y-95850000D03*
X115737500Y-93950000D03*
X113862500Y-94900000D03*
%TD*%
D21*
%TO.C,C12*%
X107000000Y-68100000D03*
X108900000Y-68100000D03*
%TD*%
D35*
%TO.C,C9*%
X108775000Y-72800000D03*
X105825000Y-72800000D03*
%TD*%
D32*
%TO.C,R8*%
X96900000Y-106212500D03*
X96900000Y-104387500D03*
%TD*%
D16*
%TO.C,Q1*%
X93962500Y-73050000D03*
X93962500Y-74950000D03*
X95837500Y-74000000D03*
%TD*%
D36*
%TO.C,R12*%
X115912500Y-98000000D03*
X114087500Y-98000000D03*
%TD*%
D32*
%TO.C,R11*%
X96900000Y-102412500D03*
X96900000Y-100587500D03*
%TD*%
D31*
%TO.C,D3*%
X99900000Y-70137500D03*
X99900000Y-68262500D03*
%TD*%
D21*
%TO.C,C10*%
X107000000Y-70300000D03*
X108900000Y-70300000D03*
%TD*%
D32*
%TO.C,R6*%
X93600000Y-78912500D03*
X93600000Y-77087500D03*
%TD*%
D37*
%TO.C,D5*%
X94200000Y-91700000D03*
X93360000Y-91700000D03*
%TD*%
D17*
%TO.C,C7*%
X105800000Y-103775000D03*
X105800000Y-105675000D03*
%TD*%
D20*
%TO.C,C13*%
X105100000Y-68100000D03*
X103200000Y-68100000D03*
%TD*%
D32*
%TO.C,R10*%
X115700000Y-92012500D03*
X115700000Y-90187500D03*
%TD*%
D38*
%TO.C,J2*%
X93300000Y-101510000D03*
D39*
X93300000Y-104050000D03*
X93300000Y-106590000D03*
X93300000Y-109130000D03*
X93300000Y-111670000D03*
X93300000Y-114210000D03*
X93300000Y-116750000D03*
X93300000Y-119290000D03*
%TD*%
D38*
%TO.C,J3*%
X116160000Y-101510000D03*
D39*
X116160000Y-104050000D03*
X116160000Y-106590000D03*
X116160000Y-109130000D03*
X116160000Y-111670000D03*
X116160000Y-114210000D03*
X116160000Y-116750000D03*
X116160000Y-119290000D03*
%TD*%
M02*
