M48
; DRILL file {KiCad 9.0.2} date 2026-07-16T14:58:56+0300
; FORMAT={-:-/ absolute / inch / decimal}
; #@! TF.CreationDate,2026-07-16T14:58:56+03:00
; #@! TF.GenerationSoftware,Kicad,Pcbnew,9.0.2
; #@! TF.FileFunction,Plated,1,4,PTH
FMAT,2
INCH
; #@! TA.AperFunction,Plated,PTH,ViaDrill
T1C0.0059
; #@! TA.AperFunction,Plated,PTH,ViaDrill
T2C0.0118
; #@! TA.AperFunction,Plated,PTH,ComponentDrill
T3C0.0394
%
G90
G05
T1
X3.9764Y-3.9409
X4.0157Y-3.9409
T2
X3.6811Y-3.6142
X3.6811Y-3.6535
X3.685Y-3.0349
X3.69Y-2.7234
X3.7087Y-3.6102
X3.7126Y-3.2992
X3.7126Y-3.3268
X3.7441Y-3.2126
X3.7534Y-3.7244
X3.7731Y-2.9134
X3.8061Y-2.7234
X3.8091Y-3.3917
X3.815Y-3.9601
X3.815Y-4.0433
X3.815Y-4.0827
X3.8543Y-3.3307
X3.8543Y-3.7165
X3.8937Y-3.0039
X3.9075Y-3.2441
X3.9094Y-3.874
X3.9114Y-4.4095
X3.9114Y-4.756
X3.9173Y-3.7835
X3.9213Y-4.1614
X3.937Y-3.7402
X3.937Y-3.7677
X3.9409Y-3.063
X3.9449Y-3.6732
X3.9449Y-3.9724
X3.9685Y-3.7165
X3.9764Y-3.7402
X3.9803Y-4.2205
X3.9921Y-3.7756
X4.0039Y-3.1929
X4.0039Y-3.3268
X4.0039Y-3.4606
X4.0079Y-3.0787
X4.0118Y-3.0394
X4.0276Y-2.9173
X4.0276Y-2.9567
X4.0276Y-4.1614
X4.0354Y-3.7323
X4.0354Y-3.7598
X4.0354Y-3.7874
X4.0551Y-3.6299
X4.0551Y-3.7165
X4.0551Y-4.1339
X4.0591Y-3.9449
X4.0591Y-4.0276
X4.063Y-2.6811
X4.063Y-2.7677
X4.0669Y-4.2481
X4.0709Y-4.0886
X4.0748Y-3.8701
X4.0787Y-4.0512
X4.0787Y-4.1811
X4.0866Y-4.1299
X4.0886Y-2.8701
X4.0945Y-3.7165
X4.1181Y-3.1929
X4.1181Y-3.3268
X4.1181Y-3.4606
X4.1181Y-3.7244
X4.122Y-4.0276
X4.1339Y-3.7756
X4.1378Y-3.6299
X4.1457Y-3.8847
X4.1496Y-4.0
X4.1614Y-2.9803
X4.1654Y-4.0856
X4.1663Y-2.8661
X4.1969Y-3.7244
X4.1969Y-4.122
X4.2008Y-3.752
X4.2047Y-3.6732
X4.2165Y-3.9449
X4.2283Y-3.0787
X4.2323Y-3.1929
X4.2323Y-3.3268
X4.2323Y-3.4606
X4.2402Y-3.7835
X4.2638Y-4.0354
X4.2638Y-4.0748
X4.2717Y-3.8976
X4.2835Y-3.8031
X4.2874Y-2.6811
X4.2874Y-2.7677
X4.2913Y-3.6732
X4.3031Y-3.9213
X4.311Y-3.8976
X4.3228Y-3.6457
X4.3268Y-3.0039
X4.3622Y-3.9803
X4.3622Y-4.0787
X4.3661Y-3.0039
X4.3701Y-3.9104
X4.372Y-4.4095
X4.372Y-4.756
X4.374Y-4.122
X4.378Y-3.6417
X4.378Y-4.0276
X4.3858Y-3.2835
X4.3898Y-4.0512
X4.3976Y-3.8622
X4.4016Y-3.9094
X4.4252Y-4.0856
X4.4272Y-3.0886
X4.4272Y-3.1752
X4.4272Y-3.3484
X4.438Y-2.7234
X4.4685Y-3.2835
X4.4828Y-3.7362
X4.4921Y-3.0039
X4.5079Y-3.4134
X4.5197Y-4.0118
X4.5472Y-3.3425
X4.5512Y-3.2717
X4.5541Y-2.7234
X4.5551Y-3.5507
T3
X3.6732Y-3.9965
X3.6732Y-4.0965
X3.6732Y-4.1965
X3.6732Y-4.2965
X3.6732Y-4.3965
X3.6732Y-4.4965
X3.6732Y-4.5965
X3.6732Y-4.6965
X4.5732Y-3.9965
X4.5732Y-4.0965
X4.5732Y-4.1965
X4.5732Y-4.2965
X4.5732Y-4.3965
X4.5732Y-4.4965
X4.5732Y-4.5965
X4.5732Y-4.6965
M30
