%TF.GenerationSoftware,KiCad,Pcbnew,9.0.2*%
%TF.CreationDate,2026-07-16T14:58:55+03:00*%
%TF.ProjectId,sim7080g,73696d37-3038-4306-972e-6b696361645f,rev?*%
%TF.SameCoordinates,Original*%
%TF.FileFunction,Copper,L3,Inr*%
%TF.FilePolarity,Positive*%
%FSLAX46Y46*%
G04 Gerber Fmt 4.6, Leading zero omitted, Abs format (unit mm)*
G04 Created by KiCad (PCBNEW 9.0.2) date 2026-07-16 14:58:55*
%MOMM*%
%LPD*%
G01*
G04 APERTURE LIST*
%TA.AperFunction,ComponentPad*%
%ADD10R,1.700000X1.700000*%
%TD*%
%TA.AperFunction,ComponentPad*%
%ADD11C,1.700000*%
%TD*%
%TA.AperFunction,ViaPad*%
%ADD12C,0.500000*%
%TD*%
%TA.AperFunction,ViaPad*%
%ADD13C,0.250000*%
%TD*%
G04 APERTURE END LIST*
D10*
%TO.N,SIM7080G_DTR*%
%TO.C,J2*%
X93300000Y-101510000D03*
D11*
%TO.N,SIM7080G_PWR*%
X93300000Y-104050000D03*
%TO.N,SIM7080G_RTS*%
X93300000Y-106590000D03*
%TO.N,unconnected-(J2-Pin_4-Pad4)*%
X93300000Y-109130000D03*
%TO.N,unconnected-(J2-Pin_5-Pad5)*%
X93300000Y-111670000D03*
%TO.N,unconnected-(J2-Pin_6-Pad6)*%
X93300000Y-114210000D03*
%TO.N,+3V3*%
X93300000Y-116750000D03*
%TO.N,GND*%
X93300000Y-119290000D03*
%TD*%
D10*
%TO.N,SIM7080G_RING*%
%TO.C,J3*%
X116160000Y-101510000D03*
D11*
%TO.N,SIM7080G_CTS*%
X116160000Y-104050000D03*
%TO.N,SIM7080G_TX*%
X116160000Y-106590000D03*
%TO.N,SIM7080G_RX*%
X116160000Y-109130000D03*
%TO.N,unconnected-(J3-Pin_5-Pad5)*%
X116160000Y-111670000D03*
%TO.N,unconnected-(J3-Pin_6-Pad6)*%
X116160000Y-114210000D03*
%TO.N,unconnected-(J3-Pin_7-Pad7)*%
X116160000Y-116750000D03*
%TO.N,GND*%
X116160000Y-119290000D03*
%TD*%
D12*
%TO.N,GND*%
X101800000Y-78200000D03*
X101700000Y-87900000D03*
X96900000Y-100587500D03*
X103200000Y-70300000D03*
X94200000Y-91700000D03*
X93725000Y-69175000D03*
X107500000Y-81100000D03*
X112450000Y-80650000D03*
X103850000Y-72900000D03*
X108900000Y-70300000D03*
X103300000Y-107902500D03*
X100200000Y-93300000D03*
X105825000Y-72800000D03*
X105800000Y-103775000D03*
X111000000Y-99325000D03*
X99350000Y-120802500D03*
X106800000Y-93300000D03*
X107400000Y-78200000D03*
X99300000Y-98400000D03*
X107500000Y-84500000D03*
X95837500Y-74000000D03*
X108900000Y-68100000D03*
X113862500Y-94900000D03*
X112450000Y-78450000D03*
X105300000Y-98671000D03*
X111050000Y-112002500D03*
X107700000Y-96100000D03*
X112400000Y-103775000D03*
X104600000Y-87900000D03*
X111050000Y-120802500D03*
X101700000Y-81100000D03*
X105700000Y-75700000D03*
X96750000Y-86150000D03*
X112450000Y-85050000D03*
X96675000Y-69175000D03*
X115600000Y-83100000D03*
X99600000Y-105700000D03*
X95337500Y-94600000D03*
X104600000Y-81100000D03*
X115700000Y-90187500D03*
X109000000Y-93300000D03*
X112725000Y-69175000D03*
X101700000Y-84500000D03*
X93600000Y-77087500D03*
X103200000Y-68100000D03*
X99350000Y-112002500D03*
X107500000Y-87900000D03*
X104600000Y-84500000D03*
X103400000Y-103850000D03*
X99250000Y-82400000D03*
X115675000Y-69175000D03*
%TO.N,+1V8*%
X105000000Y-95900000D03*
X102300000Y-74100000D03*
X103000000Y-94400000D03*
X102300000Y-75100000D03*
X103000000Y-92200000D03*
X102500000Y-95500000D03*
%TO.N,+3V3*%
X103100000Y-100200000D03*
X109800000Y-92600000D03*
X101100000Y-107200000D03*
X104600000Y-94600000D03*
X109900000Y-76300000D03*
X103100000Y-102300000D03*
X114100000Y-76300000D03*
X110900000Y-76300000D03*
%TO.N,SIM_VDD*%
X102300000Y-105700000D03*
X111800000Y-99300000D03*
X103600000Y-106200000D03*
X111200000Y-92500000D03*
%TO.N,Net-(U3-RST)*%
X105400000Y-101600000D03*
X104700000Y-102300000D03*
%TO.N,Net-(D1-A2)*%
X115500000Y-84900000D03*
%TO.N,SIM_CLK*%
X108300000Y-102500000D03*
X111200000Y-102300000D03*
X108800000Y-96600000D03*
X111700000Y-98100000D03*
X105100000Y-92200000D03*
X108300000Y-103500000D03*
%TO.N,SIM_DATA*%
X110800000Y-101100000D03*
X102500000Y-94800000D03*
X106700000Y-95300000D03*
X109300000Y-99600000D03*
X111500000Y-102900000D03*
X110800000Y-103600000D03*
%TO.N,SIM_RST*%
X109500000Y-99000000D03*
X108500000Y-99000000D03*
%TO.N,PWRKEY*%
X94300000Y-84500000D03*
X93500000Y-91800000D03*
X101900000Y-77200000D03*
X93500000Y-92800000D03*
%TO.N,GNSS_ANT*%
X100100000Y-77800000D03*
X98900000Y-76300000D03*
D13*
%TO.N,SIM7080G_DTR*%
X101000000Y-100100000D03*
D12*
X100200000Y-100900000D03*
%TO.N,SIM7080G_RTS*%
X103800000Y-104900000D03*
%TO.N,SIM7080G_RING*%
X106600000Y-104700000D03*
X111100000Y-104700000D03*
X103000000Y-105000000D03*
%TO.N,SIM7080G_TX*%
X106600000Y-94600000D03*
X103500000Y-98300000D03*
X114800000Y-101900000D03*
%TO.N,SIM7080G_CTS*%
X107100000Y-100200000D03*
%TO.N,Net-(JP1-B)*%
X114500000Y-86700000D03*
D13*
%TO.N,Net-(JP2-A)*%
X102000000Y-100100000D03*
D12*
%TO.N,Net-(JP3-A)*%
X103600000Y-102900000D03*
%TO.N,Net-(Q2-B)*%
X96900000Y-103700000D03*
X96900000Y-102700000D03*
%TO.N,NETLIGHT*%
X111400000Y-83400000D03*
X113500000Y-83400000D03*
%TO.N,SIM_DTR*%
X100000000Y-95000000D03*
X101000000Y-95000000D03*
%TO.N,SIM_TX*%
X97900000Y-84600000D03*
X104000000Y-94400000D03*
%TO.N,SIM_RX*%
X94300000Y-83800000D03*
X95100000Y-81600000D03*
X102500000Y-96200000D03*
X99500000Y-96100000D03*
%TO.N,SIM_CTS*%
X101400000Y-95900000D03*
X100000000Y-95700000D03*
%TO.N,SIM_RTS*%
X97900000Y-94400000D03*
X100800000Y-94400000D03*
%TD*%
%TA.AperFunction,Conductor*%
%TO.N,GND*%
G36*
X116858691Y-66519407D02*
G01*
X116894655Y-66568907D01*
X116899500Y-66599500D01*
X116899500Y-100260500D01*
X116880593Y-100318691D01*
X116831093Y-100354655D01*
X116800500Y-100359500D01*
X115265139Y-100359500D01*
X115265136Y-100359501D01*
X115240009Y-100362414D01*
X115137235Y-100407794D01*
X115057794Y-100487235D01*
X115012414Y-100590011D01*
X115009500Y-100615130D01*
X115009500Y-101257196D01*
X114990593Y-101315387D01*
X114941093Y-101351351D01*
X114884879Y-101352823D01*
X114872477Y-101349500D01*
X114872475Y-101349500D01*
X114727525Y-101349500D01*
X114715124Y-101352823D01*
X114587510Y-101387017D01*
X114461989Y-101459487D01*
X114359487Y-101561989D01*
X114287017Y-101687510D01*
X114260354Y-101787016D01*
X114249500Y-101827525D01*
X114249500Y-101972475D01*
X114253397Y-101987017D01*
X114287017Y-102112489D01*
X114359487Y-102238010D01*
X114359489Y-102238012D01*
X114359491Y-102238015D01*
X114461985Y-102340509D01*
X114461987Y-102340510D01*
X114461989Y-102340512D01*
X114587511Y-102412982D01*
X114587512Y-102412982D01*
X114587515Y-102412984D01*
X114727525Y-102450500D01*
X114727526Y-102450500D01*
X114872476Y-102450500D01*
X114872476Y-102450499D01*
X114923778Y-102436753D01*
X114984879Y-102439954D01*
X115032430Y-102478459D01*
X115039966Y-102492390D01*
X115057793Y-102532763D01*
X115057794Y-102532765D01*
X115137235Y-102612206D01*
X115240009Y-102657585D01*
X115265135Y-102660500D01*
X116800500Y-102660499D01*
X116858691Y-102679406D01*
X116894655Y-102728906D01*
X116899500Y-102759499D01*
X116899500Y-102974003D01*
X116880593Y-103032194D01*
X116831093Y-103068158D01*
X116769907Y-103068158D01*
X116755555Y-103062213D01*
X116601637Y-102983788D01*
X116429406Y-102927828D01*
X116250549Y-102899500D01*
X116250546Y-102899500D01*
X116069454Y-102899500D01*
X116069451Y-102899500D01*
X115890593Y-102927828D01*
X115718362Y-102983788D01*
X115557008Y-103066002D01*
X115491667Y-103113475D01*
X115410499Y-103172447D01*
X115282447Y-103300499D01*
X115253378Y-103340509D01*
X115176002Y-103447008D01*
X115093788Y-103608362D01*
X115037828Y-103780593D01*
X115009500Y-103959450D01*
X115009500Y-104140549D01*
X115037828Y-104319406D01*
X115093788Y-104491637D01*
X115163026Y-104627525D01*
X115176004Y-104652994D01*
X115282447Y-104799501D01*
X115410499Y-104927553D01*
X115557006Y-105033996D01*
X115718361Y-105116211D01*
X115890591Y-105172171D01*
X115962136Y-105183502D01*
X116069451Y-105200500D01*
X116069454Y-105200500D01*
X116250549Y-105200500D01*
X116339977Y-105186335D01*
X116429409Y-105172171D01*
X116601639Y-105116211D01*
X116601642Y-105116209D01*
X116601646Y-105116208D01*
X116755555Y-105037787D01*
X116815987Y-105028215D01*
X116870503Y-105055992D01*
X116898281Y-105110509D01*
X116899500Y-105125996D01*
X116899500Y-105514003D01*
X116880593Y-105572194D01*
X116831093Y-105608158D01*
X116769907Y-105608158D01*
X116755555Y-105602213D01*
X116601637Y-105523788D01*
X116429406Y-105467828D01*
X116250549Y-105439500D01*
X116250546Y-105439500D01*
X116069454Y-105439500D01*
X116069451Y-105439500D01*
X115890593Y-105467828D01*
X115718362Y-105523788D01*
X115557008Y-105606002D01*
X115491667Y-105653475D01*
X115410499Y-105712447D01*
X115282447Y-105840499D01*
X115266837Y-105861985D01*
X115176002Y-105987008D01*
X115093788Y-106148362D01*
X115037828Y-106320593D01*
X115009500Y-106499450D01*
X115009500Y-106680549D01*
X115037828Y-106859406D01*
X115093788Y-107031637D01*
X115142645Y-107127525D01*
X115176004Y-107192994D01*
X115282447Y-107339501D01*
X115410499Y-107467553D01*
X115557006Y-107573996D01*
X115718361Y-107656211D01*
X115890591Y-107712171D01*
X115962136Y-107723502D01*
X116069451Y-107740500D01*
X116069454Y-107740500D01*
X116250549Y-107740500D01*
X116339977Y-107726335D01*
X116429409Y-107712171D01*
X116601639Y-107656211D01*
X116601642Y-107656209D01*
X116601646Y-107656208D01*
X116755555Y-107577787D01*
X116815987Y-107568215D01*
X116870503Y-107595992D01*
X116898281Y-107650509D01*
X116899500Y-107665996D01*
X116899500Y-108054003D01*
X116880593Y-108112194D01*
X116831093Y-108148158D01*
X116769907Y-108148158D01*
X116755555Y-108142213D01*
X116601637Y-108063788D01*
X116429406Y-108007828D01*
X116250549Y-107979500D01*
X116250546Y-107979500D01*
X116069454Y-107979500D01*
X116069451Y-107979500D01*
X115890593Y-108007828D01*
X115718362Y-108063788D01*
X115557008Y-108146002D01*
X115491667Y-108193475D01*
X115410499Y-108252447D01*
X115282447Y-108380499D01*
X115229225Y-108453752D01*
X115176002Y-108527008D01*
X115093788Y-108688362D01*
X115037828Y-108860593D01*
X115009500Y-109039450D01*
X115009500Y-109220549D01*
X115037828Y-109399406D01*
X115037829Y-109399409D01*
X115093789Y-109571639D01*
X115176004Y-109732994D01*
X115282447Y-109879501D01*
X115410499Y-110007553D01*
X115557006Y-110113996D01*
X115718361Y-110196211D01*
X115890591Y-110252171D01*
X115962136Y-110263502D01*
X116069451Y-110280500D01*
X116069454Y-110280500D01*
X116250549Y-110280500D01*
X116339977Y-110266335D01*
X116429409Y-110252171D01*
X116601639Y-110196211D01*
X116601642Y-110196209D01*
X116601646Y-110196208D01*
X116755555Y-110117787D01*
X116815987Y-110108215D01*
X116870503Y-110135992D01*
X116898281Y-110190509D01*
X116899500Y-110205996D01*
X116899500Y-110594003D01*
X116880593Y-110652194D01*
X116831093Y-110688158D01*
X116769907Y-110688158D01*
X116755555Y-110682213D01*
X116601637Y-110603788D01*
X116429406Y-110547828D01*
X116250549Y-110519500D01*
X116250546Y-110519500D01*
X116069454Y-110519500D01*
X116069451Y-110519500D01*
X115890593Y-110547828D01*
X115718362Y-110603788D01*
X115557008Y-110686002D01*
X115491667Y-110733475D01*
X115410499Y-110792447D01*
X115282447Y-110920499D01*
X115229225Y-110993752D01*
X115176002Y-111067008D01*
X115093788Y-111228362D01*
X115037828Y-111400593D01*
X115009500Y-111579450D01*
X115009500Y-111760549D01*
X115037828Y-111939406D01*
X115037829Y-111939409D01*
X115093789Y-112111639D01*
X115176004Y-112272994D01*
X115282447Y-112419501D01*
X115410499Y-112547553D01*
X115557006Y-112653996D01*
X115718361Y-112736211D01*
X115890591Y-112792171D01*
X115962136Y-112803502D01*
X116069451Y-112820500D01*
X116069454Y-112820500D01*
X116250549Y-112820500D01*
X116339977Y-112806335D01*
X116429409Y-112792171D01*
X116601639Y-112736211D01*
X116601642Y-112736209D01*
X116601646Y-112736208D01*
X116755555Y-112657787D01*
X116815987Y-112648215D01*
X116870503Y-112675992D01*
X116898281Y-112730509D01*
X116899500Y-112745996D01*
X116899500Y-113134003D01*
X116880593Y-113192194D01*
X116831093Y-113228158D01*
X116769907Y-113228158D01*
X116755555Y-113222213D01*
X116601637Y-113143788D01*
X116429406Y-113087828D01*
X116250549Y-113059500D01*
X116250546Y-113059500D01*
X116069454Y-113059500D01*
X116069451Y-113059500D01*
X115890593Y-113087828D01*
X115718362Y-113143788D01*
X115557008Y-113226002D01*
X115491667Y-113273475D01*
X115410499Y-113332447D01*
X115282447Y-113460499D01*
X115229225Y-113533752D01*
X115176002Y-113607008D01*
X115093788Y-113768362D01*
X115037828Y-113940593D01*
X115009500Y-114119450D01*
X115009500Y-114300549D01*
X115037828Y-114479406D01*
X115037829Y-114479409D01*
X115093789Y-114651639D01*
X115176004Y-114812994D01*
X115282447Y-114959501D01*
X115410499Y-115087553D01*
X115557006Y-115193996D01*
X115718361Y-115276211D01*
X115890591Y-115332171D01*
X115962136Y-115343502D01*
X116069451Y-115360500D01*
X116069454Y-115360500D01*
X116250549Y-115360500D01*
X116339977Y-115346335D01*
X116429409Y-115332171D01*
X116601639Y-115276211D01*
X116601642Y-115276209D01*
X116601646Y-115276208D01*
X116755555Y-115197787D01*
X116815987Y-115188215D01*
X116870503Y-115215992D01*
X116898281Y-115270509D01*
X116899500Y-115285996D01*
X116899500Y-115674003D01*
X116880593Y-115732194D01*
X116831093Y-115768158D01*
X116769907Y-115768158D01*
X116755555Y-115762213D01*
X116601637Y-115683788D01*
X116429406Y-115627828D01*
X116250549Y-115599500D01*
X116250546Y-115599500D01*
X116069454Y-115599500D01*
X116069451Y-115599500D01*
X115890593Y-115627828D01*
X115718362Y-115683788D01*
X115557008Y-115766002D01*
X115491667Y-115813475D01*
X115410499Y-115872447D01*
X115282447Y-116000499D01*
X115229225Y-116073752D01*
X115176002Y-116147008D01*
X115093788Y-116308362D01*
X115037828Y-116480593D01*
X115009500Y-116659450D01*
X115009500Y-116840549D01*
X115037828Y-117019406D01*
X115037829Y-117019409D01*
X115093789Y-117191639D01*
X115176004Y-117352994D01*
X115282447Y-117499501D01*
X115410499Y-117627553D01*
X115557006Y-117733996D01*
X115718361Y-117816211D01*
X115729483Y-117819824D01*
X115732983Y-117820962D01*
X115782483Y-117856926D01*
X115801391Y-117915116D01*
X115782484Y-117973307D01*
X115732985Y-118009271D01*
X115732984Y-118009272D01*
X115641784Y-118038904D01*
X115452446Y-118135376D01*
X115452442Y-118135378D01*
X115398282Y-118174728D01*
X116030591Y-118807037D01*
X115967007Y-118824075D01*
X115852993Y-118889901D01*
X115759901Y-118982993D01*
X115694075Y-119097007D01*
X115677037Y-119160591D01*
X115044728Y-118528282D01*
X115005378Y-118582442D01*
X115005376Y-118582446D01*
X114908904Y-118771784D01*
X114843240Y-118973878D01*
X114810000Y-119183749D01*
X114810000Y-119396250D01*
X114843240Y-119606121D01*
X114908904Y-119808215D01*
X115005376Y-119997553D01*
X115005380Y-119997559D01*
X115044728Y-120051716D01*
X115044729Y-120051716D01*
X115677037Y-119419407D01*
X115694075Y-119482993D01*
X115759901Y-119597007D01*
X115852993Y-119690099D01*
X115967007Y-119755925D01*
X116030590Y-119772962D01*
X115398282Y-120405269D01*
X115398282Y-120405270D01*
X115452440Y-120444619D01*
X115452446Y-120444623D01*
X115641784Y-120541095D01*
X115843878Y-120606759D01*
X116053750Y-120640000D01*
X116266250Y-120640000D01*
X116476121Y-120606759D01*
X116678217Y-120541094D01*
X116755554Y-120501689D01*
X116815986Y-120492117D01*
X116870503Y-120519894D01*
X116898281Y-120574410D01*
X116899500Y-120589898D01*
X116899500Y-122550500D01*
X116880593Y-122608691D01*
X116831093Y-122644655D01*
X116800500Y-122649500D01*
X92599500Y-122649500D01*
X92541309Y-122630593D01*
X92505345Y-122581093D01*
X92500500Y-122550500D01*
X92500500Y-120559327D01*
X92519407Y-120501136D01*
X92568907Y-120465172D01*
X92630093Y-120465172D01*
X92644445Y-120471117D01*
X92781784Y-120541095D01*
X92983878Y-120606759D01*
X93193750Y-120640000D01*
X93406250Y-120640000D01*
X93616121Y-120606759D01*
X93818215Y-120541095D01*
X94007556Y-120444620D01*
X94061716Y-120405270D01*
X93429408Y-119772962D01*
X93492993Y-119755925D01*
X93607007Y-119690099D01*
X93700099Y-119597007D01*
X93765925Y-119482993D01*
X93782962Y-119419408D01*
X94415270Y-120051716D01*
X94454620Y-119997556D01*
X94551095Y-119808215D01*
X94616759Y-119606121D01*
X94650000Y-119396250D01*
X94650000Y-119183749D01*
X94616759Y-118973878D01*
X94551095Y-118771784D01*
X94454623Y-118582446D01*
X94454619Y-118582440D01*
X94415270Y-118528282D01*
X94415269Y-118528282D01*
X93782962Y-119160589D01*
X93765925Y-119097007D01*
X93700099Y-118982993D01*
X93607007Y-118889901D01*
X93492993Y-118824075D01*
X93429407Y-118807037D01*
X94061716Y-118174729D01*
X94061716Y-118174728D01*
X94007559Y-118135380D01*
X94007553Y-118135376D01*
X93818215Y-118038904D01*
X93727015Y-118009272D01*
X93677515Y-117973308D01*
X93658608Y-117915117D01*
X93677515Y-117856926D01*
X93727013Y-117820962D01*
X93727017Y-117820962D01*
X93727018Y-117820962D01*
X93741633Y-117816213D01*
X93741633Y-117816212D01*
X93741639Y-117816211D01*
X93902994Y-117733996D01*
X94049501Y-117627553D01*
X94177553Y-117499501D01*
X94283996Y-117352994D01*
X94366211Y-117191639D01*
X94422171Y-117019409D01*
X94450500Y-116840546D01*
X94450500Y-116659454D01*
X94450500Y-116659450D01*
X94422171Y-116480593D01*
X94422171Y-116480591D01*
X94366211Y-116308361D01*
X94283996Y-116147006D01*
X94177553Y-116000499D01*
X94049501Y-115872447D01*
X93902994Y-115766004D01*
X93902993Y-115766003D01*
X93902991Y-115766002D01*
X93741637Y-115683788D01*
X93569406Y-115627828D01*
X93390549Y-115599500D01*
X93390546Y-115599500D01*
X93209454Y-115599500D01*
X93209451Y-115599500D01*
X93030593Y-115627828D01*
X92858362Y-115683788D01*
X92697006Y-115766003D01*
X92697002Y-115766005D01*
X92657690Y-115794568D01*
X92599499Y-115813475D01*
X92541309Y-115794567D01*
X92505345Y-115745067D01*
X92500500Y-115714475D01*
X92500500Y-115245524D01*
X92519407Y-115187333D01*
X92568907Y-115151369D01*
X92630093Y-115151369D01*
X92657690Y-115165431D01*
X92697006Y-115193996D01*
X92858361Y-115276211D01*
X93030591Y-115332171D01*
X93102136Y-115343502D01*
X93209451Y-115360500D01*
X93209454Y-115360500D01*
X93390549Y-115360500D01*
X93479977Y-115346335D01*
X93569409Y-115332171D01*
X93741639Y-115276211D01*
X93902994Y-115193996D01*
X94049501Y-115087553D01*
X94177553Y-114959501D01*
X94283996Y-114812994D01*
X94366211Y-114651639D01*
X94422171Y-114479409D01*
X94450500Y-114300546D01*
X94450500Y-114119454D01*
X94450500Y-114119450D01*
X94422171Y-113940593D01*
X94422171Y-113940591D01*
X94366211Y-113768361D01*
X94283996Y-113607006D01*
X94177553Y-113460499D01*
X94049501Y-113332447D01*
X93902994Y-113226004D01*
X93902993Y-113226003D01*
X93902991Y-113226002D01*
X93741637Y-113143788D01*
X93569406Y-113087828D01*
X93390549Y-113059500D01*
X93390546Y-113059500D01*
X93209454Y-113059500D01*
X93209451Y-113059500D01*
X93030593Y-113087828D01*
X92858362Y-113143788D01*
X92697006Y-113226003D01*
X92697002Y-113226005D01*
X92657690Y-113254568D01*
X92599499Y-113273475D01*
X92541309Y-113254567D01*
X92505345Y-113205067D01*
X92500500Y-113174475D01*
X92500500Y-112705524D01*
X92519407Y-112647333D01*
X92568907Y-112611369D01*
X92630093Y-112611369D01*
X92657690Y-112625431D01*
X92697006Y-112653996D01*
X92858361Y-112736211D01*
X93030591Y-112792171D01*
X93102136Y-112803502D01*
X93209451Y-112820500D01*
X93209454Y-112820500D01*
X93390549Y-112820500D01*
X93479977Y-112806335D01*
X93569409Y-112792171D01*
X93741639Y-112736211D01*
X93902994Y-112653996D01*
X94049501Y-112547553D01*
X94177553Y-112419501D01*
X94283996Y-112272994D01*
X94366211Y-112111639D01*
X94422171Y-111939409D01*
X94450500Y-111760546D01*
X94450500Y-111579454D01*
X94450500Y-111579450D01*
X94422171Y-111400593D01*
X94422171Y-111400591D01*
X94366211Y-111228361D01*
X94283996Y-111067006D01*
X94177553Y-110920499D01*
X94049501Y-110792447D01*
X93902994Y-110686004D01*
X93902993Y-110686003D01*
X93902991Y-110686002D01*
X93741637Y-110603788D01*
X93569406Y-110547828D01*
X93390549Y-110519500D01*
X93390546Y-110519500D01*
X93209454Y-110519500D01*
X93209451Y-110519500D01*
X93030593Y-110547828D01*
X92858362Y-110603788D01*
X92697006Y-110686003D01*
X92697002Y-110686005D01*
X92657690Y-110714568D01*
X92599499Y-110733475D01*
X92541309Y-110714567D01*
X92505345Y-110665067D01*
X92500500Y-110634475D01*
X92500500Y-110165524D01*
X92519407Y-110107333D01*
X92568907Y-110071369D01*
X92630093Y-110071369D01*
X92657690Y-110085431D01*
X92697006Y-110113996D01*
X92858361Y-110196211D01*
X93030591Y-110252171D01*
X93102136Y-110263502D01*
X93209451Y-110280500D01*
X93209454Y-110280500D01*
X93390549Y-110280500D01*
X93479977Y-110266335D01*
X93569409Y-110252171D01*
X93741639Y-110196211D01*
X93902994Y-110113996D01*
X94049501Y-110007553D01*
X94177553Y-109879501D01*
X94283996Y-109732994D01*
X94366211Y-109571639D01*
X94422171Y-109399409D01*
X94450500Y-109220546D01*
X94450500Y-109039454D01*
X94450500Y-109039450D01*
X94422171Y-108860593D01*
X94422171Y-108860591D01*
X94366211Y-108688361D01*
X94283996Y-108527006D01*
X94177553Y-108380499D01*
X94049501Y-108252447D01*
X93902994Y-108146004D01*
X93902993Y-108146003D01*
X93902991Y-108146002D01*
X93741637Y-108063788D01*
X93569406Y-108007828D01*
X93390549Y-107979500D01*
X93390546Y-107979500D01*
X93209454Y-107979500D01*
X93209451Y-107979500D01*
X93030593Y-108007828D01*
X92858362Y-108063788D01*
X92697006Y-108146003D01*
X92697002Y-108146005D01*
X92657690Y-108174568D01*
X92599499Y-108193475D01*
X92541309Y-108174567D01*
X92505345Y-108125067D01*
X92500500Y-108094475D01*
X92500500Y-107625524D01*
X92519407Y-107567333D01*
X92568907Y-107531369D01*
X92630093Y-107531369D01*
X92657690Y-107545431D01*
X92697006Y-107573996D01*
X92858361Y-107656211D01*
X93030591Y-107712171D01*
X93102136Y-107723502D01*
X93209451Y-107740500D01*
X93209454Y-107740500D01*
X93390549Y-107740500D01*
X93479977Y-107726335D01*
X93569409Y-107712171D01*
X93741639Y-107656211D01*
X93902994Y-107573996D01*
X94049501Y-107467553D01*
X94177553Y-107339501D01*
X94283996Y-107192994D01*
X94317354Y-107127525D01*
X100549500Y-107127525D01*
X100549500Y-107272474D01*
X100587017Y-107412489D01*
X100659487Y-107538010D01*
X100659489Y-107538012D01*
X100659491Y-107538015D01*
X100761985Y-107640509D01*
X100761987Y-107640510D01*
X100761989Y-107640512D01*
X100887511Y-107712982D01*
X100887512Y-107712982D01*
X100887515Y-107712984D01*
X101027525Y-107750500D01*
X101027526Y-107750500D01*
X101172474Y-107750500D01*
X101172475Y-107750500D01*
X101312485Y-107712984D01*
X101312487Y-107712982D01*
X101312489Y-107712982D01*
X101438010Y-107640512D01*
X101438010Y-107640511D01*
X101438015Y-107640509D01*
X101540509Y-107538015D01*
X101544346Y-107531369D01*
X101612982Y-107412489D01*
X101612982Y-107412487D01*
X101612984Y-107412485D01*
X101650500Y-107272475D01*
X101650500Y-107127525D01*
X101612984Y-106987515D01*
X101612982Y-106987512D01*
X101612982Y-106987510D01*
X101540512Y-106861989D01*
X101540510Y-106861987D01*
X101540509Y-106861985D01*
X101438015Y-106759491D01*
X101438012Y-106759489D01*
X101438010Y-106759487D01*
X101312488Y-106687017D01*
X101312489Y-106687017D01*
X101282896Y-106679087D01*
X101172475Y-106649500D01*
X101027525Y-106649500D01*
X100965790Y-106666041D01*
X100887510Y-106687017D01*
X100761989Y-106759487D01*
X100659487Y-106861989D01*
X100587017Y-106987510D01*
X100549500Y-107127525D01*
X94317354Y-107127525D01*
X94366211Y-107031639D01*
X94422171Y-106859409D01*
X94437997Y-106759487D01*
X94450500Y-106680549D01*
X94450500Y-106499450D01*
X94422171Y-106320593D01*
X94422171Y-106320591D01*
X94366211Y-106148361D01*
X94283996Y-105987006D01*
X94177553Y-105840499D01*
X94049501Y-105712447D01*
X93932615Y-105627525D01*
X101749500Y-105627525D01*
X101749500Y-105772475D01*
X101779087Y-105882896D01*
X101787017Y-105912489D01*
X101859487Y-106038010D01*
X101859489Y-106038012D01*
X101859491Y-106038015D01*
X101961985Y-106140509D01*
X101961987Y-106140510D01*
X101961989Y-106140512D01*
X102087511Y-106212982D01*
X102087512Y-106212982D01*
X102087515Y-106212984D01*
X102227525Y-106250500D01*
X102227526Y-106250500D01*
X102372474Y-106250500D01*
X102372475Y-106250500D01*
X102512485Y-106212984D01*
X102512487Y-106212982D01*
X102512489Y-106212982D01*
X102638010Y-106140512D01*
X102638010Y-106140511D01*
X102638015Y-106140509D01*
X102650999Y-106127525D01*
X103049500Y-106127525D01*
X103049500Y-106272474D01*
X103087017Y-106412489D01*
X103159487Y-106538010D01*
X103159489Y-106538012D01*
X103159491Y-106538015D01*
X103261985Y-106640509D01*
X103261987Y-106640510D01*
X103261989Y-106640512D01*
X103387511Y-106712982D01*
X103387512Y-106712982D01*
X103387515Y-106712984D01*
X103527525Y-106750500D01*
X103527526Y-106750500D01*
X103672474Y-106750500D01*
X103672475Y-106750500D01*
X103812485Y-106712984D01*
X103812487Y-106712982D01*
X103812489Y-106712982D01*
X103938010Y-106640512D01*
X103938010Y-106640511D01*
X103938015Y-106640509D01*
X104040509Y-106538015D01*
X104112984Y-106412485D01*
X104150500Y-106272475D01*
X104150500Y-106127525D01*
X104112984Y-105987515D01*
X104112982Y-105987512D01*
X104112982Y-105987510D01*
X104040512Y-105861989D01*
X104040510Y-105861987D01*
X104040509Y-105861985D01*
X103938015Y-105759491D01*
X103938012Y-105759489D01*
X103938010Y-105759487D01*
X103812488Y-105687017D01*
X103812489Y-105687017D01*
X103782896Y-105679087D01*
X103672475Y-105649500D01*
X103527525Y-105649500D01*
X103465790Y-105666041D01*
X103387510Y-105687017D01*
X103261989Y-105759487D01*
X103159487Y-105861989D01*
X103087017Y-105987510D01*
X103049500Y-106127525D01*
X102650999Y-106127525D01*
X102740509Y-106038015D01*
X102812984Y-105912485D01*
X102850500Y-105772475D01*
X102850500Y-105649500D01*
X102869407Y-105591309D01*
X102918907Y-105555345D01*
X102949500Y-105550500D01*
X103072474Y-105550500D01*
X103072475Y-105550500D01*
X103212485Y-105512984D01*
X103212487Y-105512982D01*
X103212489Y-105512982D01*
X103338010Y-105440512D01*
X103338010Y-105440511D01*
X103338015Y-105440509D01*
X103393074Y-105385449D01*
X103447588Y-105357673D01*
X103508020Y-105367244D01*
X103512565Y-105369711D01*
X103587515Y-105412984D01*
X103727525Y-105450500D01*
X103727526Y-105450500D01*
X103872474Y-105450500D01*
X103872475Y-105450500D01*
X104012485Y-105412984D01*
X104012487Y-105412982D01*
X104012489Y-105412982D01*
X104138010Y-105340512D01*
X104138010Y-105340511D01*
X104138015Y-105340509D01*
X104240509Y-105238015D01*
X104254962Y-105212982D01*
X104312982Y-105112489D01*
X104312982Y-105112487D01*
X104312984Y-105112485D01*
X104350500Y-104972475D01*
X104350500Y-104827525D01*
X104312984Y-104687515D01*
X104312982Y-104687512D01*
X104312982Y-104687510D01*
X104303182Y-104670536D01*
X104278349Y-104627525D01*
X106049500Y-104627525D01*
X106049500Y-104772474D01*
X106087017Y-104912489D01*
X106159487Y-105038010D01*
X106159489Y-105038012D01*
X106159491Y-105038015D01*
X106261985Y-105140509D01*
X106261987Y-105140510D01*
X106261989Y-105140512D01*
X106387511Y-105212982D01*
X106387512Y-105212982D01*
X106387515Y-105212984D01*
X106527525Y-105250500D01*
X106527526Y-105250500D01*
X106672474Y-105250500D01*
X106672475Y-105250500D01*
X106812485Y-105212984D01*
X106812487Y-105212982D01*
X106812489Y-105212982D01*
X106938010Y-105140512D01*
X106938010Y-105140511D01*
X106938015Y-105140509D01*
X107040509Y-105038015D01*
X107078349Y-104972474D01*
X107112982Y-104912489D01*
X107112982Y-104912487D01*
X107112984Y-104912485D01*
X107150500Y-104772475D01*
X107150500Y-104627525D01*
X107112984Y-104487515D01*
X107112982Y-104487512D01*
X107112982Y-104487510D01*
X107040512Y-104361989D01*
X107040510Y-104361987D01*
X107040509Y-104361985D01*
X106938015Y-104259491D01*
X106938012Y-104259489D01*
X106938010Y-104259487D01*
X106812488Y-104187017D01*
X106812489Y-104187017D01*
X106724969Y-104163566D01*
X106672475Y-104149500D01*
X106527525Y-104149500D01*
X106475031Y-104163566D01*
X106387510Y-104187017D01*
X106261989Y-104259487D01*
X106159487Y-104361989D01*
X106087017Y-104487510D01*
X106049500Y-104627525D01*
X104278349Y-104627525D01*
X104240512Y-104561989D01*
X104240510Y-104561987D01*
X104240509Y-104561985D01*
X104138015Y-104459491D01*
X104138012Y-104459489D01*
X104138010Y-104459487D01*
X104012488Y-104387017D01*
X104012489Y-104387017D01*
X103982896Y-104379087D01*
X103872475Y-104349500D01*
X103727525Y-104349500D01*
X103680935Y-104361984D01*
X103587510Y-104387017D01*
X103461989Y-104459487D01*
X103461984Y-104459491D01*
X103406926Y-104514549D01*
X103352409Y-104542326D01*
X103291977Y-104532754D01*
X103287423Y-104530281D01*
X103212488Y-104487017D01*
X103212489Y-104487017D01*
X103109761Y-104459491D01*
X103072475Y-104449500D01*
X102927525Y-104449500D01*
X102890239Y-104459491D01*
X102787510Y-104487017D01*
X102661989Y-104559487D01*
X102559487Y-104661989D01*
X102487017Y-104787510D01*
X102449500Y-104927525D01*
X102449500Y-105050500D01*
X102430593Y-105108691D01*
X102381093Y-105144655D01*
X102350500Y-105149500D01*
X102227525Y-105149500D01*
X102165790Y-105166041D01*
X102087510Y-105187017D01*
X101961989Y-105259487D01*
X101859487Y-105361989D01*
X101787017Y-105487510D01*
X101777296Y-105523789D01*
X101749500Y-105627525D01*
X93932615Y-105627525D01*
X93902994Y-105606004D01*
X93902993Y-105606003D01*
X93902991Y-105606002D01*
X93741637Y-105523788D01*
X93569406Y-105467828D01*
X93390549Y-105439500D01*
X93390546Y-105439500D01*
X93209454Y-105439500D01*
X93209451Y-105439500D01*
X93030593Y-105467828D01*
X92858362Y-105523788D01*
X92697006Y-105606003D01*
X92697002Y-105606005D01*
X92657690Y-105634568D01*
X92599499Y-105653475D01*
X92541309Y-105634567D01*
X92505345Y-105585067D01*
X92500500Y-105554475D01*
X92500500Y-105085524D01*
X92519407Y-105027333D01*
X92568907Y-104991369D01*
X92630093Y-104991369D01*
X92657690Y-105005431D01*
X92697006Y-105033996D01*
X92858361Y-105116211D01*
X93030591Y-105172171D01*
X93102136Y-105183502D01*
X93209451Y-105200500D01*
X93209454Y-105200500D01*
X93390549Y-105200500D01*
X93479977Y-105186335D01*
X93569409Y-105172171D01*
X93741639Y-105116211D01*
X93902994Y-105033996D01*
X94049501Y-104927553D01*
X94177553Y-104799501D01*
X94283996Y-104652994D01*
X94366211Y-104491639D01*
X94422171Y-104319409D01*
X94443140Y-104187016D01*
X94450500Y-104140549D01*
X94450500Y-103959450D01*
X94422171Y-103780593D01*
X94422171Y-103780591D01*
X94366211Y-103608361D01*
X94283996Y-103447006D01*
X94177553Y-103300499D01*
X94049501Y-103172447D01*
X93902994Y-103066004D01*
X93902993Y-103066003D01*
X93902991Y-103066002D01*
X93741637Y-102983788D01*
X93569406Y-102927828D01*
X93390549Y-102899500D01*
X93390546Y-102899500D01*
X93209454Y-102899500D01*
X93209451Y-102899500D01*
X93030593Y-102927828D01*
X92858362Y-102983788D01*
X92697006Y-103066003D01*
X92697002Y-103066005D01*
X92657690Y-103094568D01*
X92599499Y-103113475D01*
X92541309Y-103094567D01*
X92505345Y-103045067D01*
X92500500Y-103014475D01*
X92500500Y-102759499D01*
X92519407Y-102701308D01*
X92568907Y-102665344D01*
X92599500Y-102660499D01*
X94194861Y-102660499D01*
X94194864Y-102660499D01*
X94219991Y-102657585D01*
X94288071Y-102627525D01*
X96349500Y-102627525D01*
X96349500Y-102772475D01*
X96364251Y-102827525D01*
X96387017Y-102912489D01*
X96459487Y-103038010D01*
X96459489Y-103038012D01*
X96459491Y-103038015D01*
X96551474Y-103129998D01*
X96579250Y-103184513D01*
X96569679Y-103244945D01*
X96551475Y-103270000D01*
X96480967Y-103340509D01*
X96459488Y-103361988D01*
X96459487Y-103361989D01*
X96387017Y-103487510D01*
X96349500Y-103627525D01*
X96349500Y-103772474D01*
X96387017Y-103912489D01*
X96459487Y-104038010D01*
X96459489Y-104038012D01*
X96459491Y-104038015D01*
X96561985Y-104140509D01*
X96561987Y-104140510D01*
X96561989Y-104140512D01*
X96687511Y-104212982D01*
X96687512Y-104212982D01*
X96687515Y-104212984D01*
X96827525Y-104250500D01*
X96827526Y-104250500D01*
X96972474Y-104250500D01*
X96972475Y-104250500D01*
X97112485Y-104212984D01*
X97112487Y-104212982D01*
X97112489Y-104212982D01*
X97238010Y-104140512D01*
X97238010Y-104140511D01*
X97238015Y-104140509D01*
X97340509Y-104038015D01*
X97363649Y-103997935D01*
X97412982Y-103912489D01*
X97412982Y-103912487D01*
X97412984Y-103912485D01*
X97450500Y-103772475D01*
X97450500Y-103627525D01*
X97412984Y-103487515D01*
X97412982Y-103487512D01*
X97412982Y-103487510D01*
X97340512Y-103361989D01*
X97340510Y-103361987D01*
X97340509Y-103361985D01*
X97248525Y-103270001D01*
X97220750Y-103215487D01*
X97230321Y-103155055D01*
X97248524Y-103129999D01*
X97340509Y-103038015D01*
X97362457Y-103000000D01*
X97412982Y-102912489D01*
X97412982Y-102912487D01*
X97412984Y-102912485D01*
X97450500Y-102772475D01*
X97450500Y-102627525D01*
X97412984Y-102487515D01*
X97412982Y-102487512D01*
X97412982Y-102487510D01*
X97340512Y-102361989D01*
X97340510Y-102361987D01*
X97340509Y-102361985D01*
X97238015Y-102259491D01*
X97238012Y-102259489D01*
X97238010Y-102259487D01*
X97182650Y-102227525D01*
X102549500Y-102227525D01*
X102549500Y-102372475D01*
X102566935Y-102437542D01*
X102587017Y-102512489D01*
X102659487Y-102638010D01*
X102659489Y-102638012D01*
X102659491Y-102638015D01*
X102761985Y-102740509D01*
X102761987Y-102740510D01*
X102761989Y-102740512D01*
X102887511Y-102812982D01*
X102887509Y-102812982D01*
X102887513Y-102812983D01*
X102887515Y-102812984D01*
X102976124Y-102836727D01*
X103027437Y-102870050D01*
X103049364Y-102927172D01*
X103049500Y-102932353D01*
X103049500Y-102972475D01*
X103075633Y-103070004D01*
X103087017Y-103112489D01*
X103159487Y-103238010D01*
X103159489Y-103238012D01*
X103159491Y-103238015D01*
X103261985Y-103340509D01*
X103261987Y-103340510D01*
X103261989Y-103340512D01*
X103387511Y-103412982D01*
X103387512Y-103412982D01*
X103387515Y-103412984D01*
X103527525Y-103450500D01*
X103527526Y-103450500D01*
X103672474Y-103450500D01*
X103672475Y-103450500D01*
X103812485Y-103412984D01*
X103812487Y-103412982D01*
X103812489Y-103412982D01*
X103938010Y-103340512D01*
X103938010Y-103340511D01*
X103938015Y-103340509D01*
X104040509Y-103238015D01*
X104062457Y-103200000D01*
X104112982Y-103112489D01*
X104112982Y-103112487D01*
X104112984Y-103112485D01*
X104150500Y-102972475D01*
X104150500Y-102827525D01*
X104136867Y-102776646D01*
X104140069Y-102715547D01*
X104178574Y-102667997D01*
X104237675Y-102652161D01*
X104294796Y-102674087D01*
X104302487Y-102681011D01*
X104361985Y-102740509D01*
X104361987Y-102740510D01*
X104361989Y-102740512D01*
X104487511Y-102812982D01*
X104487512Y-102812982D01*
X104487515Y-102812984D01*
X104627525Y-102850500D01*
X104627526Y-102850500D01*
X104772474Y-102850500D01*
X104772475Y-102850500D01*
X104912485Y-102812984D01*
X104912487Y-102812982D01*
X104912489Y-102812982D01*
X105038010Y-102740512D01*
X105038010Y-102740511D01*
X105038015Y-102740509D01*
X105140509Y-102638015D01*
X105140512Y-102638010D01*
X105212982Y-102512489D01*
X105212982Y-102512487D01*
X105212984Y-102512485D01*
X105235749Y-102427525D01*
X107749500Y-102427525D01*
X107749500Y-102572475D01*
X107775095Y-102667997D01*
X107787017Y-102712489D01*
X107859487Y-102838010D01*
X107859489Y-102838012D01*
X107859491Y-102838015D01*
X107951474Y-102929998D01*
X107979250Y-102984513D01*
X107969679Y-103044945D01*
X107951475Y-103070000D01*
X107891480Y-103129996D01*
X107859488Y-103161988D01*
X107859487Y-103161989D01*
X107787017Y-103287510D01*
X107749500Y-103427525D01*
X107749500Y-103572474D01*
X107787017Y-103712489D01*
X107859487Y-103838010D01*
X107859489Y-103838012D01*
X107859491Y-103838015D01*
X107961985Y-103940509D01*
X107961987Y-103940510D01*
X107961989Y-103940512D01*
X108087511Y-104012982D01*
X108087512Y-104012982D01*
X108087515Y-104012984D01*
X108227525Y-104050500D01*
X108227526Y-104050500D01*
X108372474Y-104050500D01*
X108372475Y-104050500D01*
X108512485Y-104012984D01*
X108512487Y-104012982D01*
X108512489Y-104012982D01*
X108638010Y-103940512D01*
X108638010Y-103940511D01*
X108638015Y-103940509D01*
X108740509Y-103838015D01*
X108740512Y-103838010D01*
X108812982Y-103712489D01*
X108812982Y-103712487D01*
X108812984Y-103712485D01*
X108850500Y-103572475D01*
X108850500Y-103427525D01*
X108812984Y-103287515D01*
X108812982Y-103287512D01*
X108812982Y-103287510D01*
X108740512Y-103161989D01*
X108740510Y-103161987D01*
X108740509Y-103161985D01*
X108648525Y-103070001D01*
X108620750Y-103015487D01*
X108630321Y-102955055D01*
X108648524Y-102929999D01*
X108740509Y-102838015D01*
X108746564Y-102827527D01*
X108812982Y-102712489D01*
X108812982Y-102712487D01*
X108812984Y-102712485D01*
X108850500Y-102572475D01*
X108850500Y-102427525D01*
X108812984Y-102287515D01*
X108812982Y-102287512D01*
X108812982Y-102287510D01*
X108740512Y-102161989D01*
X108740510Y-102161987D01*
X108740509Y-102161985D01*
X108638015Y-102059491D01*
X108638012Y-102059489D01*
X108638010Y-102059487D01*
X108512488Y-101987017D01*
X108512489Y-101987017D01*
X108458214Y-101972474D01*
X108372475Y-101949500D01*
X108227525Y-101949500D01*
X108180931Y-101961985D01*
X108087510Y-101987017D01*
X107961989Y-102059487D01*
X107859487Y-102161989D01*
X107787017Y-102287510D01*
X107766717Y-102363272D01*
X107749500Y-102427525D01*
X105235749Y-102427525D01*
X105250500Y-102372475D01*
X105250500Y-102246752D01*
X105250652Y-102244014D01*
X105260759Y-102217923D01*
X105269407Y-102191309D01*
X105271721Y-102189627D01*
X105272755Y-102186960D01*
X105296263Y-102171796D01*
X105318907Y-102155345D01*
X105322700Y-102154744D01*
X105324172Y-102153795D01*
X105327520Y-102153980D01*
X105349500Y-102150500D01*
X105472474Y-102150500D01*
X105472475Y-102150500D01*
X105612485Y-102112984D01*
X105612487Y-102112982D01*
X105612489Y-102112982D01*
X105738010Y-102040512D01*
X105738010Y-102040511D01*
X105738015Y-102040509D01*
X105840509Y-101938015D01*
X105885846Y-101859489D01*
X105912982Y-101812489D01*
X105912982Y-101812487D01*
X105912984Y-101812485D01*
X105950500Y-101672475D01*
X105950500Y-101527525D01*
X105912984Y-101387515D01*
X105912982Y-101387512D01*
X105912982Y-101387510D01*
X105840512Y-101261989D01*
X105840510Y-101261987D01*
X105840509Y-101261985D01*
X105738015Y-101159491D01*
X105738012Y-101159489D01*
X105738010Y-101159487D01*
X105646708Y-101106773D01*
X105646705Y-101106773D01*
X105612486Y-101087016D01*
X105542480Y-101068258D01*
X105472475Y-101049500D01*
X105327525Y-101049500D01*
X105265790Y-101066041D01*
X105187510Y-101087017D01*
X105061989Y-101159487D01*
X104959487Y-101261989D01*
X104887017Y-101387510D01*
X104849500Y-101527525D01*
X104849500Y-101650500D01*
X104830593Y-101708691D01*
X104781093Y-101744655D01*
X104750500Y-101749500D01*
X104627525Y-101749500D01*
X104565790Y-101766041D01*
X104487510Y-101787017D01*
X104361989Y-101859487D01*
X104259487Y-101961989D01*
X104187017Y-102087510D01*
X104149500Y-102227525D01*
X104149500Y-102372475D01*
X104149499Y-102372475D01*
X104163132Y-102423352D01*
X104159929Y-102484453D01*
X104121424Y-102532003D01*
X104062323Y-102547838D01*
X104005202Y-102525911D01*
X103997511Y-102518987D01*
X103938015Y-102459491D01*
X103938012Y-102459489D01*
X103938010Y-102459487D01*
X103812488Y-102387017D01*
X103812484Y-102387015D01*
X103723876Y-102363272D01*
X103672562Y-102329948D01*
X103650636Y-102272826D01*
X103650500Y-102267646D01*
X103650500Y-102227525D01*
X103639646Y-102187017D01*
X103612984Y-102087515D01*
X103612982Y-102087512D01*
X103612982Y-102087510D01*
X103540512Y-101961989D01*
X103540510Y-101961987D01*
X103540509Y-101961985D01*
X103438015Y-101859491D01*
X103438012Y-101859489D01*
X103438010Y-101859487D01*
X103312488Y-101787017D01*
X103312489Y-101787017D01*
X103277691Y-101777693D01*
X103172475Y-101749500D01*
X103027525Y-101749500D01*
X102965790Y-101766041D01*
X102887510Y-101787017D01*
X102761989Y-101859487D01*
X102659487Y-101961989D01*
X102587017Y-102087510D01*
X102564433Y-102171796D01*
X102549500Y-102227525D01*
X97182650Y-102227525D01*
X97112488Y-102187017D01*
X97112489Y-102187017D01*
X97055684Y-102171796D01*
X96972475Y-102149500D01*
X96827525Y-102149500D01*
X96780931Y-102161985D01*
X96687510Y-102187017D01*
X96561989Y-102259487D01*
X96459487Y-102361989D01*
X96387017Y-102487510D01*
X96364251Y-102572474D01*
X96349500Y-102627525D01*
X94288071Y-102627525D01*
X94322765Y-102612206D01*
X94402206Y-102532765D01*
X94447585Y-102429991D01*
X94450500Y-102404865D01*
X94450499Y-100827525D01*
X99649500Y-100827525D01*
X99649500Y-100972474D01*
X99687017Y-101112489D01*
X99759487Y-101238010D01*
X99759489Y-101238012D01*
X99759491Y-101238015D01*
X99861985Y-101340509D01*
X99861987Y-101340510D01*
X99861989Y-101340512D01*
X99987511Y-101412982D01*
X99987512Y-101412982D01*
X99987515Y-101412984D01*
X100127525Y-101450500D01*
X100127526Y-101450500D01*
X100272474Y-101450500D01*
X100272475Y-101450500D01*
X100412485Y-101412984D01*
X100412487Y-101412982D01*
X100412489Y-101412982D01*
X100538010Y-101340512D01*
X100538010Y-101340511D01*
X100538015Y-101340509D01*
X100640509Y-101238015D01*
X100685845Y-101159491D01*
X100712982Y-101112489D01*
X100712982Y-101112487D01*
X100712984Y-101112485D01*
X100735749Y-101027525D01*
X110249500Y-101027525D01*
X110249500Y-101172475D01*
X110279087Y-101282896D01*
X110287017Y-101312489D01*
X110359487Y-101438010D01*
X110359489Y-101438012D01*
X110359491Y-101438015D01*
X110461985Y-101540509D01*
X110461987Y-101540510D01*
X110461989Y-101540512D01*
X110587511Y-101612982D01*
X110587512Y-101612982D01*
X110587515Y-101612984D01*
X110727525Y-101650500D01*
X110727526Y-101650500D01*
X110854494Y-101650500D01*
X110912685Y-101669407D01*
X110948649Y-101718907D01*
X110948649Y-101780093D01*
X110912685Y-101829593D01*
X110903995Y-101835236D01*
X110861987Y-101859489D01*
X110759487Y-101961989D01*
X110687017Y-102087510D01*
X110664433Y-102171796D01*
X110649500Y-102227525D01*
X110649500Y-102372475D01*
X110666935Y-102437542D01*
X110687017Y-102512489D01*
X110759487Y-102638010D01*
X110759489Y-102638012D01*
X110759491Y-102638015D01*
X110861985Y-102740509D01*
X110900001Y-102762457D01*
X110913848Y-102777836D01*
X110930593Y-102790002D01*
X110933862Y-102800064D01*
X110940941Y-102807926D01*
X110949500Y-102848193D01*
X110949500Y-102950500D01*
X110930593Y-103008691D01*
X110881093Y-103044655D01*
X110850500Y-103049500D01*
X110727525Y-103049500D01*
X110690239Y-103059491D01*
X110587510Y-103087017D01*
X110461989Y-103159487D01*
X110359487Y-103261989D01*
X110287017Y-103387510D01*
X110249500Y-103527525D01*
X110249500Y-103672474D01*
X110287017Y-103812489D01*
X110359487Y-103938010D01*
X110359489Y-103938012D01*
X110359491Y-103938015D01*
X110461985Y-104040509D01*
X110461987Y-104040510D01*
X110461989Y-104040512D01*
X110587511Y-104112982D01*
X110587509Y-104112982D01*
X110587513Y-104112983D01*
X110587515Y-104112984D01*
X110675033Y-104136434D01*
X110726345Y-104169757D01*
X110748272Y-104226878D01*
X110732437Y-104285979D01*
X110719412Y-104302063D01*
X110659491Y-104361984D01*
X110659487Y-104361989D01*
X110587017Y-104487510D01*
X110549500Y-104627525D01*
X110549500Y-104772474D01*
X110587017Y-104912489D01*
X110659487Y-105038010D01*
X110659489Y-105038012D01*
X110659491Y-105038015D01*
X110761985Y-105140509D01*
X110761987Y-105140510D01*
X110761989Y-105140512D01*
X110887511Y-105212982D01*
X110887512Y-105212982D01*
X110887515Y-105212984D01*
X111027525Y-105250500D01*
X111027526Y-105250500D01*
X111172474Y-105250500D01*
X111172475Y-105250500D01*
X111312485Y-105212984D01*
X111312487Y-105212982D01*
X111312489Y-105212982D01*
X111438010Y-105140512D01*
X111438010Y-105140511D01*
X111438015Y-105140509D01*
X111540509Y-105038015D01*
X111578349Y-104972474D01*
X111612982Y-104912489D01*
X111612982Y-104912487D01*
X111612984Y-104912485D01*
X111650500Y-104772475D01*
X111650500Y-104627525D01*
X111612984Y-104487515D01*
X111612982Y-104487512D01*
X111612982Y-104487510D01*
X111540512Y-104361989D01*
X111540510Y-104361987D01*
X111540509Y-104361985D01*
X111438015Y-104259491D01*
X111438012Y-104259489D01*
X111438010Y-104259487D01*
X111312488Y-104187017D01*
X111312489Y-104187017D01*
X111298593Y-104183293D01*
X111224967Y-104163565D01*
X111173653Y-104130241D01*
X111151727Y-104073120D01*
X111167563Y-104014019D01*
X111180583Y-103997940D01*
X111240509Y-103938015D01*
X111240512Y-103938010D01*
X111312982Y-103812489D01*
X111312982Y-103812487D01*
X111312984Y-103812485D01*
X111350500Y-103672475D01*
X111350500Y-103549500D01*
X111369407Y-103491309D01*
X111418907Y-103455345D01*
X111449500Y-103450500D01*
X111572474Y-103450500D01*
X111572475Y-103450500D01*
X111712485Y-103412984D01*
X111712487Y-103412982D01*
X111712489Y-103412982D01*
X111838010Y-103340512D01*
X111838010Y-103340511D01*
X111838015Y-103340509D01*
X111940509Y-103238015D01*
X111962457Y-103200000D01*
X112012982Y-103112489D01*
X112012982Y-103112487D01*
X112012984Y-103112485D01*
X112050500Y-102972475D01*
X112050500Y-102827525D01*
X112012984Y-102687515D01*
X112012982Y-102687512D01*
X112012982Y-102687510D01*
X111940512Y-102561989D01*
X111940510Y-102561987D01*
X111940509Y-102561985D01*
X111838015Y-102459491D01*
X111838012Y-102459489D01*
X111838010Y-102459487D01*
X111800000Y-102437542D01*
X111759059Y-102392072D01*
X111750500Y-102351806D01*
X111750500Y-102227525D01*
X111739646Y-102187017D01*
X111712984Y-102087515D01*
X111712982Y-102087512D01*
X111712982Y-102087510D01*
X111640512Y-101961989D01*
X111640510Y-101961987D01*
X111640509Y-101961985D01*
X111538015Y-101859491D01*
X111538012Y-101859489D01*
X111538010Y-101859487D01*
X111412488Y-101787017D01*
X111412489Y-101787017D01*
X111377691Y-101777693D01*
X111272475Y-101749500D01*
X111145506Y-101749500D01*
X111087315Y-101730593D01*
X111051351Y-101681093D01*
X111051351Y-101619907D01*
X111087315Y-101570407D01*
X111096005Y-101564764D01*
X111111804Y-101555641D01*
X111138015Y-101540509D01*
X111240509Y-101438015D01*
X111269953Y-101387017D01*
X111312982Y-101312489D01*
X111312982Y-101312487D01*
X111312984Y-101312485D01*
X111350500Y-101172475D01*
X111350500Y-101027525D01*
X111312984Y-100887515D01*
X111312982Y-100887512D01*
X111312982Y-100887510D01*
X111240512Y-100761989D01*
X111240510Y-100761987D01*
X111240509Y-100761985D01*
X111138015Y-100659491D01*
X111138012Y-100659489D01*
X111138010Y-100659487D01*
X111012488Y-100587017D01*
X111012489Y-100587017D01*
X110982896Y-100579087D01*
X110872475Y-100549500D01*
X110727525Y-100549500D01*
X110680931Y-100561985D01*
X110587510Y-100587017D01*
X110461989Y-100659487D01*
X110359487Y-100761989D01*
X110287017Y-100887510D01*
X110287016Y-100887515D01*
X110249500Y-101027525D01*
X100735749Y-101027525D01*
X100750500Y-100972475D01*
X100750500Y-100827525D01*
X100712984Y-100687515D01*
X100712982Y-100687512D01*
X100712982Y-100687510D01*
X100670910Y-100614640D01*
X100658188Y-100554792D01*
X100683074Y-100498896D01*
X100736062Y-100468303D01*
X100796913Y-100474699D01*
X100806144Y-100479402D01*
X100835763Y-100496503D01*
X100943982Y-100525500D01*
X100943984Y-100525500D01*
X101056016Y-100525500D01*
X101056018Y-100525500D01*
X101164237Y-100496503D01*
X101164239Y-100496501D01*
X101164241Y-100496501D01*
X101193853Y-100479404D01*
X101261263Y-100440485D01*
X101340485Y-100361263D01*
X101396503Y-100264237D01*
X101404373Y-100234862D01*
X101437697Y-100183549D01*
X101494818Y-100161622D01*
X101553919Y-100177457D01*
X101592424Y-100225007D01*
X101595624Y-100234856D01*
X101602496Y-100260500D01*
X101603498Y-100264240D01*
X101659513Y-100361260D01*
X101659515Y-100361263D01*
X101738737Y-100440485D01*
X101738739Y-100440486D01*
X101835759Y-100496501D01*
X101835757Y-100496501D01*
X101835761Y-100496502D01*
X101835763Y-100496503D01*
X101943982Y-100525500D01*
X101943984Y-100525500D01*
X102056016Y-100525500D01*
X102056018Y-100525500D01*
X102164237Y-100496503D01*
X102164239Y-100496501D01*
X102164241Y-100496501D01*
X102193853Y-100479404D01*
X102261263Y-100440485D01*
X102340485Y-100361263D01*
X102379991Y-100292837D01*
X102425460Y-100251896D01*
X102486310Y-100245500D01*
X102539298Y-100276093D01*
X102561353Y-100316713D01*
X102587015Y-100412484D01*
X102587017Y-100412488D01*
X102659487Y-100538010D01*
X102659489Y-100538012D01*
X102659491Y-100538015D01*
X102761985Y-100640509D01*
X102761987Y-100640510D01*
X102761989Y-100640512D01*
X102887511Y-100712982D01*
X102887512Y-100712982D01*
X102887515Y-100712984D01*
X103027525Y-100750500D01*
X103027526Y-100750500D01*
X103172474Y-100750500D01*
X103172475Y-100750500D01*
X103312485Y-100712984D01*
X103312487Y-100712982D01*
X103312489Y-100712982D01*
X103438010Y-100640512D01*
X103438010Y-100640511D01*
X103438015Y-100640509D01*
X103540509Y-100538015D01*
X103547735Y-100525500D01*
X103612982Y-100412489D01*
X103612982Y-100412487D01*
X103612984Y-100412485D01*
X103650500Y-100272475D01*
X103650500Y-100127525D01*
X106549500Y-100127525D01*
X106549500Y-100272475D01*
X106561354Y-100316713D01*
X106587017Y-100412489D01*
X106659487Y-100538010D01*
X106659489Y-100538012D01*
X106659491Y-100538015D01*
X106761985Y-100640509D01*
X106761987Y-100640510D01*
X106761989Y-100640512D01*
X106887511Y-100712982D01*
X106887512Y-100712982D01*
X106887515Y-100712984D01*
X107027525Y-100750500D01*
X107027526Y-100750500D01*
X107172474Y-100750500D01*
X107172475Y-100750500D01*
X107312485Y-100712984D01*
X107312487Y-100712982D01*
X107312489Y-100712982D01*
X107438010Y-100640512D01*
X107438010Y-100640511D01*
X107438015Y-100640509D01*
X107540509Y-100538015D01*
X107547735Y-100525500D01*
X107612982Y-100412489D01*
X107612982Y-100412487D01*
X107612984Y-100412485D01*
X107650500Y-100272475D01*
X107650500Y-100127525D01*
X107612984Y-99987515D01*
X107612982Y-99987512D01*
X107612982Y-99987510D01*
X107540512Y-99861989D01*
X107540510Y-99861987D01*
X107540509Y-99861985D01*
X107438015Y-99759491D01*
X107438012Y-99759489D01*
X107438010Y-99759487D01*
X107312488Y-99687017D01*
X107312489Y-99687017D01*
X107258214Y-99672474D01*
X107172475Y-99649500D01*
X107027525Y-99649500D01*
X106965790Y-99666041D01*
X106887510Y-99687017D01*
X106761989Y-99759487D01*
X106659487Y-99861989D01*
X106587017Y-99987510D01*
X106571885Y-100043983D01*
X106549500Y-100127525D01*
X103650500Y-100127525D01*
X103612984Y-99987515D01*
X103612982Y-99987512D01*
X103612982Y-99987510D01*
X103540512Y-99861989D01*
X103540510Y-99861987D01*
X103540509Y-99861985D01*
X103438015Y-99759491D01*
X103438012Y-99759489D01*
X103438010Y-99759487D01*
X103312488Y-99687017D01*
X103312489Y-99687017D01*
X103258214Y-99672474D01*
X103172475Y-99649500D01*
X103027525Y-99649500D01*
X102965790Y-99666041D01*
X102887510Y-99687017D01*
X102761989Y-99759487D01*
X102659487Y-99861989D01*
X102585867Y-99989503D01*
X102540398Y-100030444D01*
X102479547Y-100036840D01*
X102426559Y-100006247D01*
X102404504Y-99965625D01*
X102397106Y-99938015D01*
X102396503Y-99935763D01*
X102340485Y-99838737D01*
X102261263Y-99759515D01*
X102261260Y-99759513D01*
X102164240Y-99703498D01*
X102164242Y-99703498D01*
X102102732Y-99687017D01*
X102056018Y-99674500D01*
X101943982Y-99674500D01*
X101897268Y-99687017D01*
X101835758Y-99703498D01*
X101738739Y-99759513D01*
X101659513Y-99838739D01*
X101603498Y-99935758D01*
X101595627Y-99965136D01*
X101562303Y-100016450D01*
X101505181Y-100038377D01*
X101446081Y-100022541D01*
X101407576Y-99974991D01*
X101404373Y-99965136D01*
X101397106Y-99938015D01*
X101396503Y-99935763D01*
X101396501Y-99935759D01*
X101396501Y-99935758D01*
X101340486Y-99838739D01*
X101340485Y-99838737D01*
X101261263Y-99759515D01*
X101261260Y-99759513D01*
X101164240Y-99703498D01*
X101164242Y-99703498D01*
X101102732Y-99687017D01*
X101056018Y-99674500D01*
X100943982Y-99674500D01*
X100897268Y-99687017D01*
X100835758Y-99703498D01*
X100738739Y-99759513D01*
X100659513Y-99838739D01*
X100603498Y-99935758D01*
X100587286Y-99996263D01*
X100574500Y-100043982D01*
X100574500Y-100156018D01*
X100600072Y-100251455D01*
X100603498Y-100264241D01*
X100620595Y-100293853D01*
X100633317Y-100353701D01*
X100608430Y-100409597D01*
X100555442Y-100440190D01*
X100494592Y-100433794D01*
X100485359Y-100429089D01*
X100412488Y-100387017D01*
X100412489Y-100387017D01*
X100382896Y-100379087D01*
X100272475Y-100349500D01*
X100127525Y-100349500D01*
X100079330Y-100362414D01*
X99987510Y-100387017D01*
X99861989Y-100459487D01*
X99759487Y-100561989D01*
X99687017Y-100687510D01*
X99649500Y-100827525D01*
X94450499Y-100827525D01*
X94450499Y-100615136D01*
X94447585Y-100590009D01*
X94402206Y-100487235D01*
X94322765Y-100407794D01*
X94219991Y-100362415D01*
X94219990Y-100362414D01*
X94219988Y-100362414D01*
X94194869Y-100359500D01*
X94194865Y-100359500D01*
X92599500Y-100359500D01*
X92541309Y-100340593D01*
X92505345Y-100291093D01*
X92500500Y-100260500D01*
X92500500Y-98927525D01*
X107949500Y-98927525D01*
X107949500Y-99072474D01*
X107987017Y-99212489D01*
X108059487Y-99338010D01*
X108059489Y-99338012D01*
X108059491Y-99338015D01*
X108161985Y-99440509D01*
X108161987Y-99440510D01*
X108161989Y-99440512D01*
X108287511Y-99512982D01*
X108287512Y-99512982D01*
X108287515Y-99512984D01*
X108427525Y-99550500D01*
X108427526Y-99550500D01*
X108572476Y-99550500D01*
X108572476Y-99550499D01*
X108624876Y-99536459D01*
X108685977Y-99539660D01*
X108733528Y-99578165D01*
X108749500Y-99632085D01*
X108749500Y-99672475D01*
X108757813Y-99703498D01*
X108787017Y-99812489D01*
X108859487Y-99938010D01*
X108859489Y-99938012D01*
X108859491Y-99938015D01*
X108961985Y-100040509D01*
X108961987Y-100040510D01*
X108961989Y-100040512D01*
X109087511Y-100112982D01*
X109087512Y-100112982D01*
X109087515Y-100112984D01*
X109227525Y-100150500D01*
X109227526Y-100150500D01*
X109372474Y-100150500D01*
X109372475Y-100150500D01*
X109512485Y-100112984D01*
X109512487Y-100112982D01*
X109512489Y-100112982D01*
X109638010Y-100040512D01*
X109638010Y-100040511D01*
X109638015Y-100040509D01*
X109740509Y-99938015D01*
X109797826Y-99838739D01*
X109812982Y-99812489D01*
X109812982Y-99812487D01*
X109812984Y-99812485D01*
X109850500Y-99672475D01*
X109850500Y-99527525D01*
X109844266Y-99504261D01*
X109847466Y-99443163D01*
X109869887Y-99408636D01*
X109940509Y-99338015D01*
X110012984Y-99212485D01*
X110050500Y-99072475D01*
X110050500Y-98927525D01*
X110012984Y-98787515D01*
X110012982Y-98787512D01*
X110012982Y-98787510D01*
X109940512Y-98661989D01*
X109940510Y-98661987D01*
X109940509Y-98661985D01*
X109838015Y-98559491D01*
X109838012Y-98559489D01*
X109838010Y-98559487D01*
X109712488Y-98487017D01*
X109712489Y-98487017D01*
X109682896Y-98479087D01*
X109572475Y-98449500D01*
X109427525Y-98449500D01*
X109365790Y-98466041D01*
X109287510Y-98487017D01*
X109161989Y-98559487D01*
X109161988Y-98559488D01*
X109161985Y-98559490D01*
X109161985Y-98559491D01*
X109070001Y-98651474D01*
X109015487Y-98679250D01*
X108955055Y-98669679D01*
X108929999Y-98651475D01*
X108838015Y-98559491D01*
X108838012Y-98559489D01*
X108838010Y-98559487D01*
X108712488Y-98487017D01*
X108712489Y-98487017D01*
X108682896Y-98479087D01*
X108572475Y-98449500D01*
X108427525Y-98449500D01*
X108365790Y-98466041D01*
X108287510Y-98487017D01*
X108161989Y-98559487D01*
X108059487Y-98661989D01*
X107987017Y-98787510D01*
X107949500Y-98927525D01*
X92500500Y-98927525D01*
X92500500Y-98227525D01*
X102949500Y-98227525D01*
X102949500Y-98372474D01*
X102987017Y-98512489D01*
X103059487Y-98638010D01*
X103059489Y-98638012D01*
X103059491Y-98638015D01*
X103161985Y-98740509D01*
X103161987Y-98740510D01*
X103161989Y-98740512D01*
X103287511Y-98812982D01*
X103287512Y-98812982D01*
X103287515Y-98812984D01*
X103427525Y-98850500D01*
X103427526Y-98850500D01*
X103572473Y-98850500D01*
X103572475Y-98850500D01*
X103712485Y-98812984D01*
X103712488Y-98812982D01*
X103712489Y-98812982D01*
X103838010Y-98740512D01*
X103838010Y-98740511D01*
X103838015Y-98740509D01*
X103940509Y-98638015D01*
X103947527Y-98625860D01*
X104012982Y-98512489D01*
X104012982Y-98512487D01*
X104012984Y-98512485D01*
X104050500Y-98372475D01*
X104050500Y-98227525D01*
X104012984Y-98087515D01*
X104012982Y-98087512D01*
X104012982Y-98087510D01*
X104003182Y-98070536D01*
X103978349Y-98027525D01*
X111149500Y-98027525D01*
X111149500Y-98172474D01*
X111187017Y-98312489D01*
X111259487Y-98438010D01*
X111259489Y-98438012D01*
X111259491Y-98438015D01*
X111361985Y-98540509D01*
X111361987Y-98540510D01*
X111361989Y-98540512D01*
X111487511Y-98612982D01*
X111487512Y-98612982D01*
X111487515Y-98612984D01*
X111530835Y-98624591D01*
X111582149Y-98657916D01*
X111604075Y-98715037D01*
X111588239Y-98774138D01*
X111554712Y-98805954D01*
X111461987Y-98859489D01*
X111359487Y-98961989D01*
X111287017Y-99087510D01*
X111249500Y-99227525D01*
X111249500Y-99372474D01*
X111287017Y-99512489D01*
X111359487Y-99638010D01*
X111359489Y-99638012D01*
X111359491Y-99638015D01*
X111461985Y-99740509D01*
X111461987Y-99740510D01*
X111461989Y-99740512D01*
X111587511Y-99812982D01*
X111587512Y-99812982D01*
X111587515Y-99812984D01*
X111727525Y-99850500D01*
X111727526Y-99850500D01*
X111872474Y-99850500D01*
X111872475Y-99850500D01*
X112012485Y-99812984D01*
X112012487Y-99812982D01*
X112012489Y-99812982D01*
X112138010Y-99740512D01*
X112138010Y-99740511D01*
X112138015Y-99740509D01*
X112240509Y-99638015D01*
X112291037Y-99550499D01*
X112312982Y-99512489D01*
X112312982Y-99512487D01*
X112312984Y-99512485D01*
X112350500Y-99372475D01*
X112350500Y-99227525D01*
X112312984Y-99087515D01*
X112312982Y-99087512D01*
X112312982Y-99087510D01*
X112240512Y-98961989D01*
X112240510Y-98961987D01*
X112240509Y-98961985D01*
X112138015Y-98859491D01*
X112138012Y-98859489D01*
X112138010Y-98859487D01*
X112012488Y-98787017D01*
X112012486Y-98787016D01*
X111969163Y-98775407D01*
X111917849Y-98742082D01*
X111895924Y-98684961D01*
X111911761Y-98625860D01*
X111945284Y-98594046D01*
X112038015Y-98540509D01*
X112140509Y-98438015D01*
X112212984Y-98312485D01*
X112250500Y-98172475D01*
X112250500Y-98027525D01*
X112212984Y-97887515D01*
X112212982Y-97887512D01*
X112212982Y-97887510D01*
X112140512Y-97761989D01*
X112140510Y-97761987D01*
X112140509Y-97761985D01*
X112038015Y-97659491D01*
X112038012Y-97659489D01*
X112038010Y-97659487D01*
X111912488Y-97587017D01*
X111912489Y-97587017D01*
X111882896Y-97579087D01*
X111772475Y-97549500D01*
X111627525Y-97549500D01*
X111565790Y-97566041D01*
X111487510Y-97587017D01*
X111361989Y-97659487D01*
X111259487Y-97761989D01*
X111187017Y-97887510D01*
X111149500Y-98027525D01*
X103978349Y-98027525D01*
X103940512Y-97961989D01*
X103940510Y-97961987D01*
X103940509Y-97961985D01*
X103838015Y-97859491D01*
X103838012Y-97859489D01*
X103838010Y-97859487D01*
X103712488Y-97787017D01*
X103712489Y-97787017D01*
X103682896Y-97779087D01*
X103572475Y-97749500D01*
X103427525Y-97749500D01*
X103380931Y-97761985D01*
X103287510Y-97787017D01*
X103161989Y-97859487D01*
X103059487Y-97961989D01*
X102987017Y-98087510D01*
X102949500Y-98227525D01*
X92500500Y-98227525D01*
X92500500Y-96027525D01*
X98949500Y-96027525D01*
X98949500Y-96172475D01*
X98973591Y-96262381D01*
X98987017Y-96312489D01*
X99059487Y-96438010D01*
X99059489Y-96438012D01*
X99059491Y-96438015D01*
X99161985Y-96540509D01*
X99161987Y-96540510D01*
X99161989Y-96540512D01*
X99287511Y-96612982D01*
X99287512Y-96612982D01*
X99287515Y-96612984D01*
X99427525Y-96650500D01*
X99427526Y-96650500D01*
X99572474Y-96650500D01*
X99572475Y-96650500D01*
X99712485Y-96612984D01*
X99712487Y-96612982D01*
X99712489Y-96612982D01*
X99838010Y-96540512D01*
X99838010Y-96540511D01*
X99838015Y-96540509D01*
X99940509Y-96438015D01*
X99955247Y-96412489D01*
X99969668Y-96387510D01*
X100012984Y-96312485D01*
X100012985Y-96312479D01*
X100015466Y-96306493D01*
X100018281Y-96307659D01*
X100044706Y-96266855D01*
X100081481Y-96248086D01*
X100212485Y-96212984D01*
X100212487Y-96212982D01*
X100212489Y-96212982D01*
X100338010Y-96140512D01*
X100338010Y-96140511D01*
X100338015Y-96140509D01*
X100440509Y-96038015D01*
X100440512Y-96038010D01*
X100512982Y-95912489D01*
X100512982Y-95912487D01*
X100512984Y-95912485D01*
X100550500Y-95772475D01*
X100550500Y-95627525D01*
X100532674Y-95560998D01*
X100535876Y-95499899D01*
X100574381Y-95452349D01*
X100633482Y-95436513D01*
X100677801Y-95449641D01*
X100787509Y-95512981D01*
X100787510Y-95512981D01*
X100787515Y-95512984D01*
X100836329Y-95526063D01*
X100887642Y-95559388D01*
X100909568Y-95616509D01*
X100896441Y-95671189D01*
X100887017Y-95687511D01*
X100849500Y-95827525D01*
X100849500Y-95972474D01*
X100887017Y-96112489D01*
X100959487Y-96238010D01*
X100959489Y-96238012D01*
X100959491Y-96238015D01*
X101061985Y-96340509D01*
X101061987Y-96340510D01*
X101061989Y-96340512D01*
X101187511Y-96412982D01*
X101187512Y-96412982D01*
X101187515Y-96412984D01*
X101327525Y-96450500D01*
X101327526Y-96450500D01*
X101472474Y-96450500D01*
X101472475Y-96450500D01*
X101612485Y-96412984D01*
X101612487Y-96412982D01*
X101612489Y-96412982D01*
X101738010Y-96340512D01*
X101738010Y-96340511D01*
X101738015Y-96340509D01*
X101797937Y-96280586D01*
X101852451Y-96252810D01*
X101912883Y-96262381D01*
X101956148Y-96305645D01*
X101963566Y-96324968D01*
X101987017Y-96412489D01*
X102059487Y-96538010D01*
X102059489Y-96538012D01*
X102059491Y-96538015D01*
X102161985Y-96640509D01*
X102161987Y-96640510D01*
X102161989Y-96640512D01*
X102287511Y-96712982D01*
X102287512Y-96712982D01*
X102287515Y-96712984D01*
X102427525Y-96750500D01*
X102427526Y-96750500D01*
X102572474Y-96750500D01*
X102572475Y-96750500D01*
X102712485Y-96712984D01*
X102712487Y-96712982D01*
X102712489Y-96712982D01*
X102838010Y-96640512D01*
X102838010Y-96640511D01*
X102838015Y-96640509D01*
X102940509Y-96538015D01*
X102940512Y-96538010D01*
X102946566Y-96527525D01*
X108249500Y-96527525D01*
X108249500Y-96672475D01*
X108270407Y-96750500D01*
X108287017Y-96812489D01*
X108359487Y-96938010D01*
X108359489Y-96938012D01*
X108359491Y-96938015D01*
X108461985Y-97040509D01*
X108461987Y-97040510D01*
X108461989Y-97040512D01*
X108587511Y-97112982D01*
X108587512Y-97112982D01*
X108587515Y-97112984D01*
X108727525Y-97150500D01*
X108727526Y-97150500D01*
X108872474Y-97150500D01*
X108872475Y-97150500D01*
X109012485Y-97112984D01*
X109012487Y-97112982D01*
X109012489Y-97112982D01*
X109138010Y-97040512D01*
X109138010Y-97040511D01*
X109138015Y-97040509D01*
X109240509Y-96938015D01*
X109312984Y-96812485D01*
X109350500Y-96672475D01*
X109350500Y-96527525D01*
X109312984Y-96387515D01*
X109312982Y-96387512D01*
X109312982Y-96387510D01*
X109240512Y-96261989D01*
X109240510Y-96261987D01*
X109240509Y-96261985D01*
X109138015Y-96159491D01*
X109138012Y-96159489D01*
X109138010Y-96159487D01*
X109012488Y-96087017D01*
X109012489Y-96087017D01*
X108982896Y-96079087D01*
X108872475Y-96049500D01*
X108727525Y-96049500D01*
X108665790Y-96066041D01*
X108587510Y-96087017D01*
X108461989Y-96159487D01*
X108359487Y-96261989D01*
X108287017Y-96387510D01*
X108276862Y-96425408D01*
X108249500Y-96527525D01*
X102946566Y-96527525D01*
X103012982Y-96412489D01*
X103012982Y-96412487D01*
X103012984Y-96412485D01*
X103050500Y-96272475D01*
X103050500Y-96127525D01*
X103012984Y-95987515D01*
X103012982Y-95987512D01*
X103012982Y-95987510D01*
X102962169Y-95899500D01*
X102957866Y-95879258D01*
X102949447Y-95860349D01*
X102951646Y-95850000D01*
X102949447Y-95839652D01*
X102953387Y-95827525D01*
X104449500Y-95827525D01*
X104449500Y-95972474D01*
X104487017Y-96112489D01*
X104559487Y-96238010D01*
X104559489Y-96238012D01*
X104559491Y-96238015D01*
X104661985Y-96340509D01*
X104661987Y-96340510D01*
X104661989Y-96340512D01*
X104787511Y-96412982D01*
X104787512Y-96412982D01*
X104787515Y-96412984D01*
X104927525Y-96450500D01*
X104927526Y-96450500D01*
X105072473Y-96450500D01*
X105072475Y-96450500D01*
X105212485Y-96412984D01*
X105212488Y-96412982D01*
X105212489Y-96412982D01*
X105338010Y-96340512D01*
X105338010Y-96340511D01*
X105338015Y-96340509D01*
X105440509Y-96238015D01*
X105485845Y-96159491D01*
X105512982Y-96112489D01*
X105512982Y-96112487D01*
X105512984Y-96112485D01*
X105550500Y-95972475D01*
X105550500Y-95827525D01*
X105512984Y-95687515D01*
X105512982Y-95687511D01*
X105512982Y-95687510D01*
X105440512Y-95561989D01*
X105440510Y-95561987D01*
X105440509Y-95561985D01*
X105338015Y-95459491D01*
X105338012Y-95459489D01*
X105338010Y-95459487D01*
X105212488Y-95387017D01*
X105212489Y-95387017D01*
X105182896Y-95379087D01*
X105072475Y-95349500D01*
X104927525Y-95349500D01*
X104880931Y-95361985D01*
X104787510Y-95387017D01*
X104661989Y-95459487D01*
X104559487Y-95561989D01*
X104487017Y-95687510D01*
X104449500Y-95827525D01*
X102953387Y-95827525D01*
X102962168Y-95800501D01*
X102970686Y-95785746D01*
X103012984Y-95712485D01*
X103050500Y-95572475D01*
X103050500Y-95427525D01*
X103012984Y-95287515D01*
X103012982Y-95287512D01*
X103012982Y-95287510D01*
X102962169Y-95199500D01*
X102958018Y-95179975D01*
X102949618Y-95161863D01*
X102951849Y-95150953D01*
X102949447Y-95139652D01*
X102961417Y-95101826D01*
X102961805Y-95101127D01*
X103012984Y-95012485D01*
X103014655Y-95006245D01*
X103020620Y-94995538D01*
X103034446Y-94982697D01*
X103044706Y-94966855D01*
X103059802Y-94959150D01*
X103065454Y-94953902D01*
X103071522Y-94953169D01*
X103081481Y-94948086D01*
X103212485Y-94912984D01*
X103212487Y-94912982D01*
X103212489Y-94912982D01*
X103338010Y-94840512D01*
X103338010Y-94840511D01*
X103338015Y-94840509D01*
X103429998Y-94748525D01*
X103484513Y-94720750D01*
X103544945Y-94730321D01*
X103570000Y-94748524D01*
X103661985Y-94840509D01*
X103661987Y-94840510D01*
X103661989Y-94840512D01*
X103787511Y-94912982D01*
X103787512Y-94912982D01*
X103787515Y-94912984D01*
X103927525Y-94950500D01*
X103927526Y-94950500D01*
X104072476Y-94950500D01*
X104083797Y-94947466D01*
X104095735Y-94944267D01*
X104156834Y-94947466D01*
X104191362Y-94969886D01*
X104261985Y-95040509D01*
X104261987Y-95040510D01*
X104261989Y-95040512D01*
X104387511Y-95112982D01*
X104387512Y-95112982D01*
X104387515Y-95112984D01*
X104527525Y-95150500D01*
X104527526Y-95150500D01*
X104672474Y-95150500D01*
X104672475Y-95150500D01*
X104812485Y-95112984D01*
X104812487Y-95112982D01*
X104812489Y-95112982D01*
X104938010Y-95040512D01*
X104938010Y-95040511D01*
X104938015Y-95040509D01*
X105040509Y-94938015D01*
X105045925Y-94928634D01*
X105112982Y-94812489D01*
X105112982Y-94812487D01*
X105112984Y-94812485D01*
X105150500Y-94672475D01*
X105150500Y-94527525D01*
X106049500Y-94527525D01*
X106049500Y-94672475D01*
X106064251Y-94727525D01*
X106087017Y-94812489D01*
X106159487Y-94938010D01*
X106159489Y-94938012D01*
X106159491Y-94938015D01*
X106177947Y-94956471D01*
X106205723Y-95010986D01*
X106196152Y-95071418D01*
X106193680Y-95075970D01*
X106187017Y-95087510D01*
X106162241Y-95179975D01*
X106149500Y-95227525D01*
X106149500Y-95372475D01*
X106164251Y-95427525D01*
X106187017Y-95512489D01*
X106259487Y-95638010D01*
X106259489Y-95638012D01*
X106259491Y-95638015D01*
X106361985Y-95740509D01*
X106361987Y-95740510D01*
X106361989Y-95740512D01*
X106487511Y-95812982D01*
X106487512Y-95812982D01*
X106487515Y-95812984D01*
X106627525Y-95850500D01*
X106627526Y-95850500D01*
X106772474Y-95850500D01*
X106772475Y-95850500D01*
X106912485Y-95812984D01*
X106912487Y-95812982D01*
X106912489Y-95812982D01*
X107038010Y-95740512D01*
X107038010Y-95740511D01*
X107038015Y-95740509D01*
X107140509Y-95638015D01*
X107146564Y-95627527D01*
X107212982Y-95512489D01*
X107212982Y-95512487D01*
X107212984Y-95512485D01*
X107250500Y-95372475D01*
X107250500Y-95227525D01*
X107212984Y-95087515D01*
X107212982Y-95087512D01*
X107212982Y-95087510D01*
X107140512Y-94961989D01*
X107140507Y-94961983D01*
X107122052Y-94943527D01*
X107094276Y-94889010D01*
X107103848Y-94828578D01*
X107106308Y-94824047D01*
X107112984Y-94812485D01*
X107150500Y-94672475D01*
X107150500Y-94527525D01*
X107112984Y-94387515D01*
X107112982Y-94387512D01*
X107112982Y-94387510D01*
X107040512Y-94261989D01*
X107040510Y-94261987D01*
X107040509Y-94261985D01*
X106938015Y-94159491D01*
X106938012Y-94159489D01*
X106938010Y-94159487D01*
X106812488Y-94087017D01*
X106812489Y-94087017D01*
X106747783Y-94069679D01*
X106672475Y-94049500D01*
X106527525Y-94049500D01*
X106504260Y-94055734D01*
X106387510Y-94087017D01*
X106261989Y-94159487D01*
X106159487Y-94261989D01*
X106087017Y-94387510D01*
X106060354Y-94487016D01*
X106049500Y-94527525D01*
X105150500Y-94527525D01*
X105112984Y-94387515D01*
X105112982Y-94387512D01*
X105112982Y-94387510D01*
X105040512Y-94261989D01*
X105040510Y-94261987D01*
X105040509Y-94261985D01*
X104938015Y-94159491D01*
X104938012Y-94159489D01*
X104938010Y-94159487D01*
X104812488Y-94087017D01*
X104812489Y-94087017D01*
X104747783Y-94069679D01*
X104672475Y-94049500D01*
X104527525Y-94049500D01*
X104516221Y-94052529D01*
X104504258Y-94055734D01*
X104443156Y-94052529D01*
X104408635Y-94030110D01*
X104338015Y-93959491D01*
X104338010Y-93959487D01*
X104212488Y-93887017D01*
X104212489Y-93887017D01*
X104182896Y-93879087D01*
X104072475Y-93849500D01*
X103927525Y-93849500D01*
X103865790Y-93866041D01*
X103787510Y-93887017D01*
X103661989Y-93959487D01*
X103661988Y-93959488D01*
X103661985Y-93959490D01*
X103661985Y-93959491D01*
X103570001Y-94051474D01*
X103515487Y-94079250D01*
X103455055Y-94069679D01*
X103429999Y-94051475D01*
X103338015Y-93959491D01*
X103338012Y-93959489D01*
X103338010Y-93959487D01*
X103212488Y-93887017D01*
X103212489Y-93887017D01*
X103182896Y-93879087D01*
X103072475Y-93849500D01*
X102927525Y-93849500D01*
X102865790Y-93866041D01*
X102787510Y-93887017D01*
X102661989Y-93959487D01*
X102559487Y-94061989D01*
X102487017Y-94187511D01*
X102484534Y-94193507D01*
X102481746Y-94192352D01*
X102455156Y-94233255D01*
X102418515Y-94251913D01*
X102287515Y-94287015D01*
X102287511Y-94287017D01*
X102161989Y-94359487D01*
X102059487Y-94461989D01*
X101987017Y-94587510D01*
X101964251Y-94672474D01*
X101949500Y-94727525D01*
X101949500Y-94872475D01*
X101964251Y-94927525D01*
X101987016Y-95012486D01*
X102037831Y-95100500D01*
X102050552Y-95160349D01*
X102037831Y-95199500D01*
X101987016Y-95287513D01*
X101949500Y-95427525D01*
X101949500Y-95431969D01*
X101930593Y-95490160D01*
X101881093Y-95526124D01*
X101819907Y-95526124D01*
X101780498Y-95501974D01*
X101738015Y-95459491D01*
X101738012Y-95459489D01*
X101738010Y-95459487D01*
X101612488Y-95387017D01*
X101612486Y-95387016D01*
X101563670Y-95373935D01*
X101512356Y-95340610D01*
X101490431Y-95283488D01*
X101503560Y-95228806D01*
X101512984Y-95212485D01*
X101550500Y-95072475D01*
X101550500Y-94927525D01*
X101512984Y-94787515D01*
X101512982Y-94787512D01*
X101512982Y-94787510D01*
X101440512Y-94661989D01*
X101440510Y-94661987D01*
X101440509Y-94661985D01*
X101369886Y-94591362D01*
X101342111Y-94536848D01*
X101344266Y-94495736D01*
X101350500Y-94472475D01*
X101350500Y-94327525D01*
X101312984Y-94187515D01*
X101312982Y-94187511D01*
X101312982Y-94187510D01*
X101240512Y-94061989D01*
X101240510Y-94061987D01*
X101240509Y-94061985D01*
X101138015Y-93959491D01*
X101138012Y-93959489D01*
X101138010Y-93959487D01*
X101012488Y-93887017D01*
X101012489Y-93887017D01*
X100982896Y-93879087D01*
X100872475Y-93849500D01*
X100727525Y-93849500D01*
X100665790Y-93866041D01*
X100587510Y-93887017D01*
X100461989Y-93959487D01*
X100359487Y-94061989D01*
X100287017Y-94187510D01*
X100249500Y-94327525D01*
X100249500Y-94367914D01*
X100230593Y-94426105D01*
X100181093Y-94462069D01*
X100124877Y-94463541D01*
X100100344Y-94456967D01*
X100072475Y-94449500D01*
X99927525Y-94449500D01*
X99875124Y-94463541D01*
X99787510Y-94487017D01*
X99661989Y-94559487D01*
X99559487Y-94661989D01*
X99487017Y-94787510D01*
X99472815Y-94840512D01*
X99449500Y-94927525D01*
X99449500Y-95072475D01*
X99467062Y-95138015D01*
X99487016Y-95212486D01*
X99537831Y-95300500D01*
X99541981Y-95320028D01*
X99550381Y-95338138D01*
X99548149Y-95349047D01*
X99550552Y-95360349D01*
X99538582Y-95398175D01*
X99538181Y-95398894D01*
X99487016Y-95487515D01*
X99485344Y-95493751D01*
X99479379Y-95504462D01*
X99465487Y-95517362D01*
X99455156Y-95533255D01*
X99440141Y-95540900D01*
X99434545Y-95546098D01*
X99428502Y-95546827D01*
X99418515Y-95551913D01*
X99287515Y-95587015D01*
X99287511Y-95587017D01*
X99161989Y-95659487D01*
X99059487Y-95761989D01*
X98987017Y-95887510D01*
X98980325Y-95912485D01*
X98949500Y-96027525D01*
X92500500Y-96027525D01*
X92500500Y-94327525D01*
X97349500Y-94327525D01*
X97349500Y-94472475D01*
X97353397Y-94487017D01*
X97387017Y-94612489D01*
X97459487Y-94738010D01*
X97459489Y-94738012D01*
X97459491Y-94738015D01*
X97561985Y-94840509D01*
X97561987Y-94840510D01*
X97561989Y-94840512D01*
X97687511Y-94912982D01*
X97687512Y-94912982D01*
X97687515Y-94912984D01*
X97827525Y-94950500D01*
X97827526Y-94950500D01*
X97972474Y-94950500D01*
X97972475Y-94950500D01*
X98112485Y-94912984D01*
X98112487Y-94912982D01*
X98112489Y-94912982D01*
X98238010Y-94840512D01*
X98238010Y-94840511D01*
X98238015Y-94840509D01*
X98340509Y-94738015D01*
X98344951Y-94730321D01*
X98412982Y-94612489D01*
X98412982Y-94612487D01*
X98412984Y-94612485D01*
X98450500Y-94472475D01*
X98450500Y-94327525D01*
X98412984Y-94187515D01*
X98412982Y-94187511D01*
X98412982Y-94187510D01*
X98340512Y-94061989D01*
X98340510Y-94061987D01*
X98340509Y-94061985D01*
X98238015Y-93959491D01*
X98238012Y-93959489D01*
X98238010Y-93959487D01*
X98112488Y-93887017D01*
X98112489Y-93887017D01*
X98082896Y-93879087D01*
X97972475Y-93849500D01*
X97827525Y-93849500D01*
X97765790Y-93866041D01*
X97687510Y-93887017D01*
X97561989Y-93959487D01*
X97459487Y-94061989D01*
X97387017Y-94187510D01*
X97360355Y-94287015D01*
X97349500Y-94327525D01*
X92500500Y-94327525D01*
X92500500Y-91727525D01*
X92949500Y-91727525D01*
X92949500Y-91872474D01*
X92987017Y-92012489D01*
X93059487Y-92138010D01*
X93059489Y-92138012D01*
X93059491Y-92138015D01*
X93151474Y-92229998D01*
X93179250Y-92284513D01*
X93169679Y-92344945D01*
X93151475Y-92370000D01*
X93093951Y-92427525D01*
X93059488Y-92461988D01*
X93059487Y-92461989D01*
X92987017Y-92587510D01*
X92949500Y-92727525D01*
X92949500Y-92872474D01*
X92987017Y-93012489D01*
X93059487Y-93138010D01*
X93059489Y-93138012D01*
X93059491Y-93138015D01*
X93161985Y-93240509D01*
X93161987Y-93240510D01*
X93161989Y-93240512D01*
X93287511Y-93312982D01*
X93287512Y-93312982D01*
X93287515Y-93312984D01*
X93427525Y-93350500D01*
X93427526Y-93350500D01*
X93572474Y-93350500D01*
X93572475Y-93350500D01*
X93712485Y-93312984D01*
X93712487Y-93312982D01*
X93712489Y-93312982D01*
X93838010Y-93240512D01*
X93838010Y-93240511D01*
X93838015Y-93240509D01*
X93940509Y-93138015D01*
X93996803Y-93040512D01*
X94012982Y-93012489D01*
X94012982Y-93012487D01*
X94012984Y-93012485D01*
X94050500Y-92872475D01*
X94050500Y-92727525D01*
X94012984Y-92587515D01*
X94012982Y-92587512D01*
X94012982Y-92587510D01*
X93940512Y-92461989D01*
X93940510Y-92461987D01*
X93940509Y-92461985D01*
X93848525Y-92370001D01*
X93820750Y-92315487D01*
X93830321Y-92255055D01*
X93848524Y-92229999D01*
X93940509Y-92138015D01*
X93946565Y-92127525D01*
X102449500Y-92127525D01*
X102449500Y-92272475D01*
X102461025Y-92315487D01*
X102487017Y-92412489D01*
X102559487Y-92538010D01*
X102559489Y-92538012D01*
X102559491Y-92538015D01*
X102661985Y-92640509D01*
X102661987Y-92640510D01*
X102661989Y-92640512D01*
X102787511Y-92712982D01*
X102787512Y-92712982D01*
X102787515Y-92712984D01*
X102927525Y-92750500D01*
X102927526Y-92750500D01*
X103072474Y-92750500D01*
X103072475Y-92750500D01*
X103212485Y-92712984D01*
X103212487Y-92712982D01*
X103212489Y-92712982D01*
X103338010Y-92640512D01*
X103338010Y-92640511D01*
X103338015Y-92640509D01*
X103440509Y-92538015D01*
X103440512Y-92538010D01*
X103512982Y-92412489D01*
X103512983Y-92412486D01*
X103512984Y-92412485D01*
X103550500Y-92272475D01*
X103550500Y-92127525D01*
X104549500Y-92127525D01*
X104549500Y-92272475D01*
X104561025Y-92315487D01*
X104587017Y-92412489D01*
X104659487Y-92538010D01*
X104659489Y-92538012D01*
X104659491Y-92538015D01*
X104761985Y-92640509D01*
X104761987Y-92640510D01*
X104761989Y-92640512D01*
X104887511Y-92712982D01*
X104887512Y-92712982D01*
X104887515Y-92712984D01*
X105027525Y-92750500D01*
X105027526Y-92750500D01*
X105172474Y-92750500D01*
X105172475Y-92750500D01*
X105312485Y-92712984D01*
X105312487Y-92712982D01*
X105312489Y-92712982D01*
X105438010Y-92640512D01*
X105438010Y-92640511D01*
X105438015Y-92640509D01*
X105540509Y-92538015D01*
X105546565Y-92527525D01*
X109249500Y-92527525D01*
X109249500Y-92672475D01*
X109264251Y-92727525D01*
X109287017Y-92812489D01*
X109359487Y-92938010D01*
X109359489Y-92938012D01*
X109359491Y-92938015D01*
X109461985Y-93040509D01*
X109461987Y-93040510D01*
X109461989Y-93040512D01*
X109587511Y-93112982D01*
X109587512Y-93112982D01*
X109587515Y-93112984D01*
X109727525Y-93150500D01*
X109727526Y-93150500D01*
X109872474Y-93150500D01*
X109872475Y-93150500D01*
X110012485Y-93112984D01*
X110012487Y-93112982D01*
X110012489Y-93112982D01*
X110138010Y-93040512D01*
X110138010Y-93040511D01*
X110138015Y-93040509D01*
X110240509Y-92938015D01*
X110312984Y-92812485D01*
X110350500Y-92672475D01*
X110350500Y-92527525D01*
X110323705Y-92427525D01*
X110649500Y-92427525D01*
X110649500Y-92572474D01*
X110687017Y-92712489D01*
X110759487Y-92838010D01*
X110759489Y-92838012D01*
X110759491Y-92838015D01*
X110861985Y-92940509D01*
X110861987Y-92940510D01*
X110861989Y-92940512D01*
X110987511Y-93012982D01*
X110987512Y-93012982D01*
X110987515Y-93012984D01*
X111127525Y-93050500D01*
X111127526Y-93050500D01*
X111272474Y-93050500D01*
X111272475Y-93050500D01*
X111412485Y-93012984D01*
X111412487Y-93012982D01*
X111412489Y-93012982D01*
X111538010Y-92940512D01*
X111538010Y-92940511D01*
X111538015Y-92940509D01*
X111640509Y-92838015D01*
X111640512Y-92838010D01*
X111712982Y-92712489D01*
X111712982Y-92712487D01*
X111712984Y-92712485D01*
X111750500Y-92572475D01*
X111750500Y-92427525D01*
X111712984Y-92287515D01*
X111712982Y-92287512D01*
X111712982Y-92287510D01*
X111640512Y-92161989D01*
X111640510Y-92161987D01*
X111640509Y-92161985D01*
X111538015Y-92059491D01*
X111538012Y-92059489D01*
X111538010Y-92059487D01*
X111412488Y-91987017D01*
X111412489Y-91987017D01*
X111382896Y-91979087D01*
X111272475Y-91949500D01*
X111127525Y-91949500D01*
X111065790Y-91966041D01*
X110987510Y-91987017D01*
X110861989Y-92059487D01*
X110759487Y-92161989D01*
X110687017Y-92287510D01*
X110649500Y-92427525D01*
X110323705Y-92427525D01*
X110312984Y-92387515D01*
X110312982Y-92387512D01*
X110312982Y-92387510D01*
X110240512Y-92261989D01*
X110240510Y-92261987D01*
X110240509Y-92261985D01*
X110138015Y-92159491D01*
X110138012Y-92159489D01*
X110138010Y-92159487D01*
X110012488Y-92087017D01*
X110012489Y-92087017D01*
X109909761Y-92059491D01*
X109872475Y-92049500D01*
X109727525Y-92049500D01*
X109690239Y-92059491D01*
X109587510Y-92087017D01*
X109461989Y-92159487D01*
X109359487Y-92261989D01*
X109287017Y-92387510D01*
X109264503Y-92471535D01*
X109249500Y-92527525D01*
X105546565Y-92527525D01*
X105561030Y-92502471D01*
X105578892Y-92471535D01*
X105599388Y-92436033D01*
X105612984Y-92412485D01*
X105650500Y-92272475D01*
X105650500Y-92127525D01*
X105612984Y-91987515D01*
X105612982Y-91987512D01*
X105612982Y-91987510D01*
X105540512Y-91861989D01*
X105540510Y-91861987D01*
X105540509Y-91861985D01*
X105438015Y-91759491D01*
X105438012Y-91759489D01*
X105438010Y-91759487D01*
X105312488Y-91687017D01*
X105312489Y-91687017D01*
X105282896Y-91679087D01*
X105172475Y-91649500D01*
X105027525Y-91649500D01*
X104965790Y-91666041D01*
X104887510Y-91687017D01*
X104761989Y-91759487D01*
X104659487Y-91861989D01*
X104587017Y-91987510D01*
X104587016Y-91987515D01*
X104549500Y-92127525D01*
X103550500Y-92127525D01*
X103512984Y-91987515D01*
X103512982Y-91987512D01*
X103512982Y-91987510D01*
X103440512Y-91861989D01*
X103440510Y-91861987D01*
X103440509Y-91861985D01*
X103338015Y-91759491D01*
X103338012Y-91759489D01*
X103338010Y-91759487D01*
X103212488Y-91687017D01*
X103212489Y-91687017D01*
X103182896Y-91679087D01*
X103072475Y-91649500D01*
X102927525Y-91649500D01*
X102865790Y-91666041D01*
X102787510Y-91687017D01*
X102661989Y-91759487D01*
X102559487Y-91861989D01*
X102487017Y-91987510D01*
X102487016Y-91987515D01*
X102449500Y-92127525D01*
X93946565Y-92127525D01*
X93969953Y-92087017D01*
X93978892Y-92071535D01*
X93999388Y-92036033D01*
X94012984Y-92012485D01*
X94050500Y-91872475D01*
X94050500Y-91727525D01*
X94012984Y-91587515D01*
X94012982Y-91587512D01*
X94012982Y-91587510D01*
X93940512Y-91461989D01*
X93940510Y-91461987D01*
X93940509Y-91461985D01*
X93838015Y-91359491D01*
X93838012Y-91359489D01*
X93838010Y-91359487D01*
X93712488Y-91287017D01*
X93712489Y-91287017D01*
X93682896Y-91279087D01*
X93572475Y-91249500D01*
X93427525Y-91249500D01*
X93365790Y-91266041D01*
X93287510Y-91287017D01*
X93161989Y-91359487D01*
X93059487Y-91461989D01*
X92987017Y-91587510D01*
X92949500Y-91727525D01*
X92500500Y-91727525D01*
X92500500Y-86627525D01*
X113949500Y-86627525D01*
X113949500Y-86772474D01*
X113987017Y-86912489D01*
X114059487Y-87038010D01*
X114059489Y-87038012D01*
X114059491Y-87038015D01*
X114161985Y-87140509D01*
X114161987Y-87140510D01*
X114161989Y-87140512D01*
X114287511Y-87212982D01*
X114287512Y-87212982D01*
X114287515Y-87212984D01*
X114427525Y-87250500D01*
X114427526Y-87250500D01*
X114572474Y-87250500D01*
X114572475Y-87250500D01*
X114712485Y-87212984D01*
X114712487Y-87212982D01*
X114712489Y-87212982D01*
X114838010Y-87140512D01*
X114838010Y-87140511D01*
X114838015Y-87140509D01*
X114940509Y-87038015D01*
X115012984Y-86912485D01*
X115050500Y-86772475D01*
X115050500Y-86627525D01*
X115012984Y-86487515D01*
X115012982Y-86487512D01*
X115012982Y-86487510D01*
X114940512Y-86361989D01*
X114940510Y-86361987D01*
X114940509Y-86361985D01*
X114838015Y-86259491D01*
X114838012Y-86259489D01*
X114838010Y-86259487D01*
X114712488Y-86187017D01*
X114712489Y-86187017D01*
X114682896Y-86179087D01*
X114572475Y-86149500D01*
X114427525Y-86149500D01*
X114365790Y-86166041D01*
X114287510Y-86187017D01*
X114161989Y-86259487D01*
X114059487Y-86361989D01*
X113987017Y-86487510D01*
X113949500Y-86627525D01*
X92500500Y-86627525D01*
X92500500Y-83727525D01*
X93749500Y-83727525D01*
X93749500Y-83872475D01*
X93768258Y-83942480D01*
X93787016Y-84012486D01*
X93837831Y-84100500D01*
X93850552Y-84160349D01*
X93837831Y-84199500D01*
X93787016Y-84287513D01*
X93749500Y-84427525D01*
X93749500Y-84572474D01*
X93787017Y-84712489D01*
X93859487Y-84838010D01*
X93859489Y-84838012D01*
X93859491Y-84838015D01*
X93961985Y-84940509D01*
X93961987Y-84940510D01*
X93961989Y-84940512D01*
X94087511Y-85012982D01*
X94087512Y-85012982D01*
X94087515Y-85012984D01*
X94227525Y-85050500D01*
X94227526Y-85050500D01*
X94372474Y-85050500D01*
X94372475Y-85050500D01*
X94512485Y-85012984D01*
X94512487Y-85012982D01*
X94512489Y-85012982D01*
X94638010Y-84940512D01*
X94638010Y-84940511D01*
X94638015Y-84940509D01*
X94740509Y-84838015D01*
X94740512Y-84838010D01*
X94812982Y-84712489D01*
X94812982Y-84712487D01*
X94812984Y-84712485D01*
X94850500Y-84572475D01*
X94850500Y-84527525D01*
X97349500Y-84527525D01*
X97349500Y-84672474D01*
X97387017Y-84812489D01*
X97459487Y-84938010D01*
X97459489Y-84938012D01*
X97459491Y-84938015D01*
X97561985Y-85040509D01*
X97561987Y-85040510D01*
X97561989Y-85040512D01*
X97687511Y-85112982D01*
X97687512Y-85112982D01*
X97687515Y-85112984D01*
X97827525Y-85150500D01*
X97827526Y-85150500D01*
X97972474Y-85150500D01*
X97972475Y-85150500D01*
X98112485Y-85112984D01*
X98112487Y-85112982D01*
X98112489Y-85112982D01*
X98238010Y-85040512D01*
X98238010Y-85040511D01*
X98238015Y-85040509D01*
X98340509Y-84938015D01*
X98404301Y-84827525D01*
X114949500Y-84827525D01*
X114949500Y-84972475D01*
X114967730Y-85040509D01*
X114987017Y-85112489D01*
X115059487Y-85238010D01*
X115059489Y-85238012D01*
X115059491Y-85238015D01*
X115161985Y-85340509D01*
X115161987Y-85340510D01*
X115161989Y-85340512D01*
X115287511Y-85412982D01*
X115287512Y-85412982D01*
X115287515Y-85412984D01*
X115427525Y-85450500D01*
X115427526Y-85450500D01*
X115572474Y-85450500D01*
X115572475Y-85450500D01*
X115712485Y-85412984D01*
X115712487Y-85412982D01*
X115712489Y-85412982D01*
X115838010Y-85340512D01*
X115838010Y-85340511D01*
X115838015Y-85340509D01*
X115940509Y-85238015D01*
X116012984Y-85112485D01*
X116050500Y-84972475D01*
X116050500Y-84827525D01*
X116012984Y-84687515D01*
X116012982Y-84687512D01*
X116012982Y-84687510D01*
X115940512Y-84561989D01*
X115940510Y-84561987D01*
X115940509Y-84561985D01*
X115838015Y-84459491D01*
X115838012Y-84459489D01*
X115838010Y-84459487D01*
X115712488Y-84387017D01*
X115712489Y-84387017D01*
X115682896Y-84379087D01*
X115572475Y-84349500D01*
X115427525Y-84349500D01*
X115365790Y-84366041D01*
X115287510Y-84387017D01*
X115161989Y-84459487D01*
X115059487Y-84561989D01*
X114987017Y-84687510D01*
X114987016Y-84687515D01*
X114949500Y-84827525D01*
X98404301Y-84827525D01*
X98412984Y-84812485D01*
X98450500Y-84672475D01*
X98450500Y-84527525D01*
X98412984Y-84387515D01*
X98412982Y-84387512D01*
X98412982Y-84387510D01*
X98340512Y-84261989D01*
X98340510Y-84261987D01*
X98340509Y-84261985D01*
X98238015Y-84159491D01*
X98238012Y-84159489D01*
X98238010Y-84159487D01*
X98112488Y-84087017D01*
X98112489Y-84087017D01*
X98082896Y-84079087D01*
X97972475Y-84049500D01*
X97827525Y-84049500D01*
X97765790Y-84066041D01*
X97687510Y-84087017D01*
X97561989Y-84159487D01*
X97459487Y-84261989D01*
X97387017Y-84387510D01*
X97349500Y-84527525D01*
X94850500Y-84527525D01*
X94850500Y-84427525D01*
X94812984Y-84287515D01*
X94812982Y-84287512D01*
X94812982Y-84287510D01*
X94762169Y-84199500D01*
X94749447Y-84139652D01*
X94762169Y-84100500D01*
X94812982Y-84012489D01*
X94812983Y-84012486D01*
X94812984Y-84012485D01*
X94850500Y-83872475D01*
X94850500Y-83727525D01*
X94812984Y-83587515D01*
X94812982Y-83587512D01*
X94812982Y-83587510D01*
X94740512Y-83461989D01*
X94740510Y-83461987D01*
X94740509Y-83461985D01*
X94638015Y-83359491D01*
X94638012Y-83359489D01*
X94638010Y-83359487D01*
X94582650Y-83327525D01*
X110849500Y-83327525D01*
X110849500Y-83472474D01*
X110887017Y-83612489D01*
X110959487Y-83738010D01*
X110959489Y-83738012D01*
X110959491Y-83738015D01*
X111061985Y-83840509D01*
X111061987Y-83840510D01*
X111061989Y-83840512D01*
X111187511Y-83912982D01*
X111187512Y-83912982D01*
X111187515Y-83912984D01*
X111327525Y-83950500D01*
X111327526Y-83950500D01*
X111472474Y-83950500D01*
X111472475Y-83950500D01*
X111612485Y-83912984D01*
X111612487Y-83912982D01*
X111612489Y-83912982D01*
X111738010Y-83840512D01*
X111738010Y-83840511D01*
X111738015Y-83840509D01*
X111840509Y-83738015D01*
X111840512Y-83738010D01*
X111912982Y-83612489D01*
X111912982Y-83612487D01*
X111912984Y-83612485D01*
X111950500Y-83472475D01*
X111950500Y-83327525D01*
X112949500Y-83327525D01*
X112949500Y-83472474D01*
X112987017Y-83612489D01*
X113059487Y-83738010D01*
X113059489Y-83738012D01*
X113059491Y-83738015D01*
X113161985Y-83840509D01*
X113161987Y-83840510D01*
X113161989Y-83840512D01*
X113287511Y-83912982D01*
X113287512Y-83912982D01*
X113287515Y-83912984D01*
X113427525Y-83950500D01*
X113427526Y-83950500D01*
X113572474Y-83950500D01*
X113572475Y-83950500D01*
X113712485Y-83912984D01*
X113712487Y-83912982D01*
X113712489Y-83912982D01*
X113838010Y-83840512D01*
X113838010Y-83840511D01*
X113838015Y-83840509D01*
X113940509Y-83738015D01*
X113940512Y-83738010D01*
X114012982Y-83612489D01*
X114012982Y-83612487D01*
X114012984Y-83612485D01*
X114050500Y-83472475D01*
X114050500Y-83327525D01*
X114012984Y-83187515D01*
X114012982Y-83187512D01*
X114012982Y-83187510D01*
X113940512Y-83061989D01*
X113940510Y-83061987D01*
X113940509Y-83061985D01*
X113838015Y-82959491D01*
X113838012Y-82959489D01*
X113838010Y-82959487D01*
X113712488Y-82887017D01*
X113712489Y-82887017D01*
X113682896Y-82879087D01*
X113572475Y-82849500D01*
X113427525Y-82849500D01*
X113365790Y-82866041D01*
X113287510Y-82887017D01*
X113161989Y-82959487D01*
X113059487Y-83061989D01*
X112987017Y-83187510D01*
X112949500Y-83327525D01*
X111950500Y-83327525D01*
X111912984Y-83187515D01*
X111912982Y-83187512D01*
X111912982Y-83187510D01*
X111840512Y-83061989D01*
X111840510Y-83061987D01*
X111840509Y-83061985D01*
X111738015Y-82959491D01*
X111738012Y-82959489D01*
X111738010Y-82959487D01*
X111612488Y-82887017D01*
X111612489Y-82887017D01*
X111582896Y-82879087D01*
X111472475Y-82849500D01*
X111327525Y-82849500D01*
X111265790Y-82866041D01*
X111187510Y-82887017D01*
X111061989Y-82959487D01*
X110959487Y-83061989D01*
X110887017Y-83187510D01*
X110849500Y-83327525D01*
X94582650Y-83327525D01*
X94512488Y-83287017D01*
X94512489Y-83287017D01*
X94482896Y-83279087D01*
X94372475Y-83249500D01*
X94227525Y-83249500D01*
X94165790Y-83266041D01*
X94087510Y-83287017D01*
X93961989Y-83359487D01*
X93859487Y-83461989D01*
X93787017Y-83587510D01*
X93787016Y-83587515D01*
X93749500Y-83727525D01*
X92500500Y-83727525D01*
X92500500Y-81527525D01*
X94549500Y-81527525D01*
X94549500Y-81672474D01*
X94587017Y-81812489D01*
X94659487Y-81938010D01*
X94659489Y-81938012D01*
X94659491Y-81938015D01*
X94761985Y-82040509D01*
X94761987Y-82040510D01*
X94761989Y-82040512D01*
X94887511Y-82112982D01*
X94887512Y-82112982D01*
X94887515Y-82112984D01*
X95027525Y-82150500D01*
X95027526Y-82150500D01*
X95172474Y-82150500D01*
X95172475Y-82150500D01*
X95312485Y-82112984D01*
X95312487Y-82112982D01*
X95312489Y-82112982D01*
X95438010Y-82040512D01*
X95438010Y-82040511D01*
X95438015Y-82040509D01*
X95540509Y-81938015D01*
X95612984Y-81812485D01*
X95650500Y-81672475D01*
X95650500Y-81527525D01*
X95612984Y-81387515D01*
X95612982Y-81387512D01*
X95612982Y-81387510D01*
X95540512Y-81261989D01*
X95540510Y-81261987D01*
X95540509Y-81261985D01*
X95438015Y-81159491D01*
X95438012Y-81159489D01*
X95438010Y-81159487D01*
X95312488Y-81087017D01*
X95312489Y-81087017D01*
X95282896Y-81079087D01*
X95172475Y-81049500D01*
X95027525Y-81049500D01*
X94965790Y-81066041D01*
X94887510Y-81087017D01*
X94761989Y-81159487D01*
X94659487Y-81261989D01*
X94587017Y-81387510D01*
X94549500Y-81527525D01*
X92500500Y-81527525D01*
X92500500Y-77727525D01*
X99549500Y-77727525D01*
X99549500Y-77872474D01*
X99587017Y-78012489D01*
X99659487Y-78138010D01*
X99659489Y-78138012D01*
X99659491Y-78138015D01*
X99761985Y-78240509D01*
X99761987Y-78240510D01*
X99761989Y-78240512D01*
X99887511Y-78312982D01*
X99887512Y-78312982D01*
X99887515Y-78312984D01*
X100027525Y-78350500D01*
X100027526Y-78350500D01*
X100172474Y-78350500D01*
X100172475Y-78350500D01*
X100312485Y-78312984D01*
X100312487Y-78312982D01*
X100312489Y-78312982D01*
X100438010Y-78240512D01*
X100438010Y-78240511D01*
X100438015Y-78240509D01*
X100540509Y-78138015D01*
X100612984Y-78012485D01*
X100650500Y-77872475D01*
X100650500Y-77727525D01*
X100612984Y-77587515D01*
X100612982Y-77587512D01*
X100612982Y-77587510D01*
X100540512Y-77461989D01*
X100540510Y-77461987D01*
X100540509Y-77461985D01*
X100438015Y-77359491D01*
X100438012Y-77359489D01*
X100438010Y-77359487D01*
X100312488Y-77287017D01*
X100312489Y-77287017D01*
X100258214Y-77272474D01*
X100172475Y-77249500D01*
X100027525Y-77249500D01*
X99965790Y-77266041D01*
X99887510Y-77287017D01*
X99761989Y-77359487D01*
X99659487Y-77461989D01*
X99587017Y-77587510D01*
X99549500Y-77727525D01*
X92500500Y-77727525D01*
X92500500Y-77127525D01*
X101349500Y-77127525D01*
X101349500Y-77272475D01*
X101353397Y-77287017D01*
X101387017Y-77412489D01*
X101459487Y-77538010D01*
X101459489Y-77538012D01*
X101459491Y-77538015D01*
X101561985Y-77640509D01*
X101561987Y-77640510D01*
X101561989Y-77640512D01*
X101687511Y-77712982D01*
X101687512Y-77712982D01*
X101687515Y-77712984D01*
X101827525Y-77750500D01*
X101827526Y-77750500D01*
X101972474Y-77750500D01*
X101972475Y-77750500D01*
X102112485Y-77712984D01*
X102112487Y-77712982D01*
X102112489Y-77712982D01*
X102238010Y-77640512D01*
X102238010Y-77640511D01*
X102238015Y-77640509D01*
X102340509Y-77538015D01*
X102412984Y-77412485D01*
X102450500Y-77272475D01*
X102450500Y-77127525D01*
X102412984Y-76987515D01*
X102412982Y-76987512D01*
X102412982Y-76987510D01*
X102340512Y-76861989D01*
X102340510Y-76861987D01*
X102340509Y-76861985D01*
X102238015Y-76759491D01*
X102238012Y-76759489D01*
X102238010Y-76759487D01*
X102112488Y-76687017D01*
X102112489Y-76687017D01*
X102082896Y-76679087D01*
X101972475Y-76649500D01*
X101827525Y-76649500D01*
X101765790Y-76666041D01*
X101687510Y-76687017D01*
X101561989Y-76759487D01*
X101459487Y-76861989D01*
X101387017Y-76987510D01*
X101387016Y-76987515D01*
X101349500Y-77127525D01*
X92500500Y-77127525D01*
X92500500Y-76227525D01*
X98349500Y-76227525D01*
X98349500Y-76372474D01*
X98387017Y-76512489D01*
X98459487Y-76638010D01*
X98459489Y-76638012D01*
X98459491Y-76638015D01*
X98561985Y-76740509D01*
X98561987Y-76740510D01*
X98561989Y-76740512D01*
X98687511Y-76812982D01*
X98687512Y-76812982D01*
X98687515Y-76812984D01*
X98827525Y-76850500D01*
X98827526Y-76850500D01*
X98972474Y-76850500D01*
X98972475Y-76850500D01*
X99112485Y-76812984D01*
X99112487Y-76812982D01*
X99112489Y-76812982D01*
X99238010Y-76740512D01*
X99238010Y-76740511D01*
X99238015Y-76740509D01*
X99340509Y-76638015D01*
X99412984Y-76512485D01*
X99450500Y-76372475D01*
X99450500Y-76227525D01*
X109349500Y-76227525D01*
X109349500Y-76372474D01*
X109387017Y-76512489D01*
X109459487Y-76638010D01*
X109459489Y-76638012D01*
X109459491Y-76638015D01*
X109561985Y-76740509D01*
X109561987Y-76740510D01*
X109561989Y-76740512D01*
X109687511Y-76812982D01*
X109687512Y-76812982D01*
X109687515Y-76812984D01*
X109827525Y-76850500D01*
X109827526Y-76850500D01*
X109972474Y-76850500D01*
X109972475Y-76850500D01*
X110112485Y-76812984D01*
X110112487Y-76812982D01*
X110112489Y-76812982D01*
X110238010Y-76740512D01*
X110238010Y-76740511D01*
X110238015Y-76740509D01*
X110329998Y-76648525D01*
X110384513Y-76620750D01*
X110444945Y-76630321D01*
X110470000Y-76648524D01*
X110561985Y-76740509D01*
X110561987Y-76740510D01*
X110561989Y-76740512D01*
X110687511Y-76812982D01*
X110687512Y-76812982D01*
X110687515Y-76812984D01*
X110827525Y-76850500D01*
X110827526Y-76850500D01*
X110972474Y-76850500D01*
X110972475Y-76850500D01*
X111112485Y-76812984D01*
X111112487Y-76812982D01*
X111112489Y-76812982D01*
X111238010Y-76740512D01*
X111238010Y-76740511D01*
X111238015Y-76740509D01*
X111340509Y-76638015D01*
X111412984Y-76512485D01*
X111450500Y-76372475D01*
X111450500Y-76227525D01*
X113549500Y-76227525D01*
X113549500Y-76372474D01*
X113587017Y-76512489D01*
X113659487Y-76638010D01*
X113659489Y-76638012D01*
X113659491Y-76638015D01*
X113761985Y-76740509D01*
X113761987Y-76740510D01*
X113761989Y-76740512D01*
X113887511Y-76812982D01*
X113887512Y-76812982D01*
X113887515Y-76812984D01*
X114027525Y-76850500D01*
X114027526Y-76850500D01*
X114172474Y-76850500D01*
X114172475Y-76850500D01*
X114312485Y-76812984D01*
X114312487Y-76812982D01*
X114312489Y-76812982D01*
X114438010Y-76740512D01*
X114438010Y-76740511D01*
X114438015Y-76740509D01*
X114540509Y-76638015D01*
X114612984Y-76512485D01*
X114650500Y-76372475D01*
X114650500Y-76227525D01*
X114612984Y-76087515D01*
X114612982Y-76087512D01*
X114612982Y-76087510D01*
X114540512Y-75961989D01*
X114540510Y-75961987D01*
X114540509Y-75961985D01*
X114438015Y-75859491D01*
X114438012Y-75859489D01*
X114438010Y-75859487D01*
X114312488Y-75787017D01*
X114312489Y-75787017D01*
X114282896Y-75779087D01*
X114172475Y-75749500D01*
X114027525Y-75749500D01*
X113965790Y-75766041D01*
X113887510Y-75787017D01*
X113761989Y-75859487D01*
X113659487Y-75961989D01*
X113587017Y-76087510D01*
X113549500Y-76227525D01*
X111450500Y-76227525D01*
X111412984Y-76087515D01*
X111412982Y-76087512D01*
X111412982Y-76087510D01*
X111340512Y-75961989D01*
X111340510Y-75961987D01*
X111340509Y-75961985D01*
X111238015Y-75859491D01*
X111238012Y-75859489D01*
X111238010Y-75859487D01*
X111112488Y-75787017D01*
X111112489Y-75787017D01*
X111082896Y-75779087D01*
X110972475Y-75749500D01*
X110827525Y-75749500D01*
X110765790Y-75766041D01*
X110687510Y-75787017D01*
X110561989Y-75859487D01*
X110561988Y-75859488D01*
X110561985Y-75859490D01*
X110561985Y-75859491D01*
X110470001Y-75951474D01*
X110415487Y-75979250D01*
X110355055Y-75969679D01*
X110329999Y-75951475D01*
X110238015Y-75859491D01*
X110238012Y-75859489D01*
X110238010Y-75859487D01*
X110112488Y-75787017D01*
X110112489Y-75787017D01*
X110082896Y-75779087D01*
X109972475Y-75749500D01*
X109827525Y-75749500D01*
X109765790Y-75766041D01*
X109687510Y-75787017D01*
X109561989Y-75859487D01*
X109459487Y-75961989D01*
X109387017Y-76087510D01*
X109349500Y-76227525D01*
X99450500Y-76227525D01*
X99412984Y-76087515D01*
X99412982Y-76087512D01*
X99412982Y-76087510D01*
X99340512Y-75961989D01*
X99340510Y-75961987D01*
X99340509Y-75961985D01*
X99238015Y-75859491D01*
X99238012Y-75859489D01*
X99238010Y-75859487D01*
X99112488Y-75787017D01*
X99112489Y-75787017D01*
X99082896Y-75779087D01*
X98972475Y-75749500D01*
X98827525Y-75749500D01*
X98765790Y-75766041D01*
X98687510Y-75787017D01*
X98561989Y-75859487D01*
X98459487Y-75961989D01*
X98387017Y-76087510D01*
X98349500Y-76227525D01*
X92500500Y-76227525D01*
X92500500Y-74027525D01*
X101749500Y-74027525D01*
X101749500Y-74172474D01*
X101787017Y-74312489D01*
X101859487Y-74438010D01*
X101859489Y-74438012D01*
X101859491Y-74438015D01*
X101951474Y-74529998D01*
X101979250Y-74584513D01*
X101969679Y-74644945D01*
X101951475Y-74670000D01*
X101859491Y-74761985D01*
X101859488Y-74761988D01*
X101859487Y-74761989D01*
X101787017Y-74887510D01*
X101749500Y-75027525D01*
X101749500Y-75172474D01*
X101787017Y-75312489D01*
X101859487Y-75438010D01*
X101859489Y-75438012D01*
X101859491Y-75438015D01*
X101961985Y-75540509D01*
X101961987Y-75540510D01*
X101961989Y-75540512D01*
X102087511Y-75612982D01*
X102087512Y-75612982D01*
X102087515Y-75612984D01*
X102227525Y-75650500D01*
X102227526Y-75650500D01*
X102372474Y-75650500D01*
X102372475Y-75650500D01*
X102512485Y-75612984D01*
X102512487Y-75612982D01*
X102512489Y-75612982D01*
X102638010Y-75540512D01*
X102638010Y-75540511D01*
X102638015Y-75540509D01*
X102740509Y-75438015D01*
X102812984Y-75312485D01*
X102850500Y-75172475D01*
X102850500Y-75027525D01*
X102812984Y-74887515D01*
X102812982Y-74887512D01*
X102812982Y-74887510D01*
X102740512Y-74761989D01*
X102740510Y-74761987D01*
X102740509Y-74761985D01*
X102648525Y-74670001D01*
X102620750Y-74615487D01*
X102630321Y-74555055D01*
X102648524Y-74529999D01*
X102740509Y-74438015D01*
X102812984Y-74312485D01*
X102850500Y-74172475D01*
X102850500Y-74027525D01*
X102812984Y-73887515D01*
X102812982Y-73887512D01*
X102812982Y-73887510D01*
X102740512Y-73761989D01*
X102740510Y-73761987D01*
X102740509Y-73761985D01*
X102638015Y-73659491D01*
X102638012Y-73659489D01*
X102638010Y-73659487D01*
X102512488Y-73587017D01*
X102512489Y-73587017D01*
X102482896Y-73579087D01*
X102372475Y-73549500D01*
X102227525Y-73549500D01*
X102165790Y-73566041D01*
X102087510Y-73587017D01*
X101961989Y-73659487D01*
X101859487Y-73761989D01*
X101787017Y-73887510D01*
X101749500Y-74027525D01*
X92500500Y-74027525D01*
X92500500Y-66599500D01*
X92519407Y-66541309D01*
X92568907Y-66505345D01*
X92599500Y-66500500D01*
X116800500Y-66500500D01*
X116858691Y-66519407D01*
G37*
%TD.AperFunction*%
%TD*%
M02*
