%TF.GenerationSoftware,KiCad,Pcbnew,9.0.2*%
%TF.CreationDate,2026-08-05T13:40:56+03:00*%
%TF.ProjectId,sim7080g,73696d37-3038-4306-972e-6b696361645f,rev?*%
%TF.SameCoordinates,Original*%
%TF.FileFunction,Copper,L2,Inr*%
%TF.FilePolarity,Positive*%
%FSLAX46Y46*%
G04 Gerber Fmt 4.6, Leading zero omitted, Abs format (unit mm)*
G04 Created by KiCad (PCBNEW 9.0.2) date 2026-08-05 13:40:56*
%MOMM*%
%LPD*%
G01*
G04 APERTURE LIST*
%TA.AperFunction,ComponentPad*%
%ADD10R,1.700000X1.700000*%
%TD*%
%TA.AperFunction,ComponentPad*%
%ADD11C,1.700000*%
%TD*%
%TA.AperFunction,ViaPad*%
%ADD12C,0.250000*%
%TD*%
%TA.AperFunction,Conductor*%
%ADD13C,0.150000*%
%TD*%
%TA.AperFunction,Conductor*%
%ADD14C,0.088900*%
%TD*%
G04 APERTURE END LIST*
D10*
%TO.N,SIM7080G_DTR*%
%TO.C,J2*%
X93300000Y-101510000D03*
D11*
%TO.N,SIM7080G_PWR*%
X93300000Y-104050000D03*
%TO.N,SIM7080G_RTS*%
X93300000Y-106590000D03*
%TO.N,unconnected-(J2-Pin_4-Pad4)*%
X93300000Y-109130000D03*
%TO.N,unconnected-(J2-Pin_5-Pad5)*%
X93300000Y-111670000D03*
%TO.N,unconnected-(J2-Pin_6-Pad6)*%
X93300000Y-114210000D03*
%TO.N,+3V3*%
X93300000Y-116750000D03*
%TO.N,GND*%
X93300000Y-119290000D03*
%TD*%
D10*
%TO.N,SIM7080G_RING*%
%TO.C,J3*%
X116160000Y-101510000D03*
D11*
%TO.N,SIM7080G_CTS*%
X116160000Y-104050000D03*
%TO.N,SIM7080G_TX*%
X116160000Y-106590000D03*
%TO.N,SIM7080G_RX*%
X116160000Y-109130000D03*
%TO.N,unconnected-(J3-Pin_5-Pad5)*%
X116160000Y-111670000D03*
%TO.N,unconnected-(J3-Pin_6-Pad6)*%
X116160000Y-114210000D03*
%TO.N,unconnected-(J3-Pin_7-Pad7)*%
X116160000Y-116750000D03*
%TO.N,GND*%
X116160000Y-119290000D03*
%TD*%
D12*
%TO.N,SIM7080G_RX*%
X103100000Y-101100000D03*
%TO.N,GND*%
X103000000Y-98400000D03*
%TO.N,+3V3*%
X103000000Y-100100000D03*
%TO.N,SIM7080G_RING*%
X100500000Y-100100000D03*
%TO.N,+1V8*%
X103000000Y-96800000D03*
%TO.N,SIM_RX*%
X102500000Y-96300000D03*
%TO.N,SIM_RTS*%
X102000000Y-96800000D03*
%TO.N,SIM_CTS*%
X101500000Y-96600000D03*
%TO.N,SIM_DTR*%
X101000000Y-96900000D03*
%TO.N,SIM_RI*%
X100500000Y-96800000D03*
%TO.N,Net-(JP3-A)*%
X104600000Y-100200000D03*
X101500000Y-100500000D03*
%TO.N,SIM7080G_RTS*%
X104500000Y-98100000D03*
%TO.N,Net-(JP1-B)*%
X113900000Y-86300000D03*
%TO.N,SIM7080G_CTS*%
X106900000Y-100700000D03*
%TO.N,Net-(JP2-A)*%
X103900000Y-99700000D03*
X101700000Y-100900000D03*
%TO.N,PWRKEY*%
X103500000Y-76200000D03*
X93400000Y-91100000D03*
%TO.N,SIM_CLK*%
X108300000Y-100200000D03*
X103500000Y-93500000D03*
%TO.N,SIM_DATA*%
X107800000Y-98300000D03*
X102800000Y-93700000D03*
%TO.N,Net-(Q2-B)*%
X96400000Y-101900000D03*
X94200000Y-96300000D03*
%TO.N,Net-(Q3-B)*%
X115200000Y-91500000D03*
X114900000Y-89000000D03*
%TO.N,Net-(Q1-B)*%
X94400000Y-75700000D03*
X94400000Y-78300000D03*
%TO.N,Net-(U3-CLK)*%
X106300000Y-106100000D03*
X106800000Y-106600000D03*
%TO.N,Net-(D1-A2)*%
X116200000Y-82400000D03*
X115600000Y-85000000D03*
%TO.N,SIM_RST*%
X109400000Y-98800000D03*
X107200000Y-98400000D03*
X104200000Y-92800000D03*
%TO.N,SIM7080G_TX*%
X104200000Y-99200000D03*
%TO.N,SIM_TX*%
X95500000Y-79800000D03*
X103500000Y-97700000D03*
%TO.N,NETLIGHT*%
X101600000Y-76900000D03*
X114500000Y-86200000D03*
%TO.N,GNSS_ANT*%
X95500000Y-67900000D03*
X99900000Y-77800000D03*
%TO.N,SIM7080G_DTR*%
X101000000Y-100500000D03*
%TO.N,SIM_RX*%
X96700000Y-79700000D03*
X102600000Y-95400000D03*
%TO.N,SIM_RTS*%
X97200000Y-81100000D03*
X102200000Y-95800000D03*
%TO.N,SIM7080G_RING*%
X100500000Y-100900000D03*
%TO.N,SIM_CTS*%
X98400000Y-84800000D03*
X101500000Y-96100000D03*
%TO.N,SIM_DTR*%
X98400000Y-85500000D03*
X100400000Y-95500000D03*
%TO.N,RF_ANT*%
X112500000Y-79500000D03*
X113900000Y-67900000D03*
%TO.N,SIM_RI*%
X98000000Y-90800000D03*
X100200000Y-95900000D03*
%TO.N,SIM7080G_PWR*%
X95700000Y-104700000D03*
%TO.N,Net-(Q1-C)*%
X95000000Y-73000000D03*
X96800000Y-73000000D03*
%TO.N,+3V3*%
X101100000Y-68500000D03*
X104400000Y-68500000D03*
X109700000Y-75000000D03*
X114900000Y-79200000D03*
X112000000Y-95900000D03*
X104000000Y-102600000D03*
%TO.N,+1V8*%
X103300000Y-94900000D03*
X102400000Y-76200000D03*
%TO.N,SIM_VDD*%
X112000000Y-98400000D03*
X105600000Y-93700000D03*
X102200000Y-104800000D03*
%TO.N,GND*%
X115700000Y-90187500D03*
X103200000Y-68100000D03*
X105800000Y-103775000D03*
X94200000Y-91700000D03*
X93600000Y-77087500D03*
X108900000Y-70300000D03*
X96900000Y-100587500D03*
X95837500Y-74000000D03*
X105825000Y-72800000D03*
X108900000Y-68100000D03*
X113862500Y-94900000D03*
X103400000Y-103850000D03*
X93725000Y-69175000D03*
X96675000Y-69175000D03*
X104600000Y-84500000D03*
X104600000Y-81100000D03*
X107500000Y-81100000D03*
X107500000Y-84500000D03*
X107500000Y-87900000D03*
X104600000Y-87900000D03*
X101700000Y-87900000D03*
X101700000Y-84500000D03*
X102880000Y-82530000D03*
X101700000Y-82530000D03*
X100520000Y-82530000D03*
X102880000Y-81100000D03*
X101700000Y-81100000D03*
X100520000Y-81100000D03*
X102880000Y-79670000D03*
X101700000Y-79670000D03*
X100520000Y-79670000D03*
X103200000Y-78200000D03*
X107400000Y-78200000D03*
X99250000Y-82400000D03*
X106800000Y-75700000D03*
X112450000Y-78450000D03*
X112450000Y-81750000D03*
X112450000Y-85050000D03*
X109000000Y-93300000D03*
X106800000Y-93300000D03*
X100200000Y-93300000D03*
X96750000Y-86150000D03*
X112400000Y-103775000D03*
X103850000Y-72900000D03*
X112725000Y-69175000D03*
X115675000Y-69175000D03*
X111050000Y-112002500D03*
X111050000Y-120802500D03*
X99350000Y-120802500D03*
X99350000Y-112002500D03*
X103300000Y-107902500D03*
X107700000Y-96200000D03*
X99600000Y-105700000D03*
X103200000Y-70300000D03*
X110900000Y-99200000D03*
X105400000Y-98800000D03*
X95337500Y-94600000D03*
X99400000Y-98400000D03*
X99100000Y-99200000D03*
X115600000Y-83100000D03*
%TD*%
D13*
%TO.N,SIM7080G_RX*%
X114200000Y-109100000D02*
X116200000Y-109100000D01*
X106400000Y-101300000D02*
X114200000Y-109100000D01*
X103300000Y-101300000D02*
X106400000Y-101300000D01*
X103100000Y-101100000D02*
X103300000Y-101300000D01*
D14*
%TO.N,SIM7080G_RTS*%
X96700000Y-106600000D02*
X93300000Y-106600000D01*
X102200000Y-101100000D02*
X96700000Y-106600000D01*
X102200000Y-100500000D02*
X102200000Y-101100000D01*
X104500000Y-98200000D02*
X102200000Y-100500000D01*
X104500000Y-98100000D02*
X104500000Y-98200000D01*
%TO.N,SIM7080G_CTS*%
X110800000Y-104600000D02*
X106900000Y-100700000D01*
X112700000Y-104600000D02*
X110800000Y-104600000D01*
X113300000Y-104000000D02*
X112700000Y-104600000D01*
X116200000Y-104000000D02*
X113300000Y-104000000D01*
%TO.N,PWRKEY*%
X102400000Y-77300000D02*
X103500000Y-76200000D01*
X101800000Y-77300000D02*
X102400000Y-77300000D01*
X100800000Y-78300000D02*
X101800000Y-77300000D01*
X96300000Y-78300000D02*
X100800000Y-78300000D01*
X93400000Y-81200000D02*
X96300000Y-78300000D01*
X93400000Y-91100000D02*
X93400000Y-81200000D01*
%TO.N,SIM_CLK*%
X106700000Y-98600000D02*
X108300000Y-100200000D01*
X106700000Y-98300000D02*
X106700000Y-98600000D01*
X104200000Y-95800000D02*
X106700000Y-98300000D01*
X104200000Y-94700000D02*
X104200000Y-95800000D01*
X103500000Y-94000000D02*
X104200000Y-94700000D01*
X103500000Y-93500000D02*
X103500000Y-94000000D01*
%TO.N,Net-(Q2-B)*%
X94200000Y-99700000D02*
X96400000Y-101900000D01*
X94200000Y-96300000D02*
X94200000Y-99700000D01*
%TO.N,Net-(Q3-B)*%
X114900000Y-91200000D02*
X115200000Y-91500000D01*
X114900000Y-89000000D02*
X114900000Y-91200000D01*
%TO.N,Net-(Q1-B)*%
X94400000Y-78300000D02*
X94400000Y-75700000D01*
%TO.N,Net-(U3-CLK)*%
X106800000Y-106600000D02*
X106300000Y-106100000D01*
%TO.N,Net-(D1-A2)*%
X116400000Y-82600000D02*
X116200000Y-82400000D01*
X116400000Y-83400000D02*
X116400000Y-82600000D01*
X115600000Y-84200000D02*
X116400000Y-83400000D01*
X115600000Y-85000000D02*
X115600000Y-84200000D01*
%TO.N,SIM_RST*%
X104500000Y-95700000D02*
X107200000Y-98400000D01*
X104500000Y-93100000D02*
X104500000Y-95700000D01*
X104200000Y-92800000D02*
X104500000Y-93100000D01*
%TO.N,SIM7080G_TX*%
X112100000Y-106600000D02*
X116200000Y-106600000D01*
X104700000Y-99200000D02*
X112100000Y-106600000D01*
X104200000Y-99200000D02*
X104700000Y-99200000D01*
%TO.N,SIM_TX*%
X95500000Y-91900000D02*
X95500000Y-79800000D01*
X100000000Y-96400000D02*
X95500000Y-91900000D01*
X100900000Y-96400000D02*
X100000000Y-96400000D01*
X102200000Y-97700000D02*
X100900000Y-96400000D01*
X103500000Y-97700000D02*
X102200000Y-97700000D01*
%TO.N,GNSS_ANT*%
X95500000Y-69100000D02*
X95500000Y-67900000D01*
X97300000Y-70900000D02*
X95500000Y-69100000D01*
X97300000Y-75200000D02*
X97300000Y-70900000D01*
X99900000Y-77800000D02*
X97300000Y-75200000D01*
%TO.N,SIM_RTS*%
X97200000Y-82900000D02*
X97200000Y-81100000D01*
X99200000Y-84900000D02*
X97200000Y-82900000D01*
X99200000Y-87700000D02*
X99200000Y-84900000D01*
X101600000Y-90100000D02*
X99200000Y-87700000D01*
X101600000Y-95200000D02*
X101600000Y-90100000D01*
X102200000Y-95800000D02*
X101600000Y-95200000D01*
%TO.N,SIM_CTS*%
X98900000Y-85300000D02*
X98400000Y-84800000D01*
X98900000Y-87800000D02*
X98900000Y-85300000D01*
X101300000Y-90200000D02*
X98900000Y-87800000D01*
X101300000Y-95900000D02*
X101300000Y-90200000D01*
X101500000Y-96100000D02*
X101300000Y-95900000D01*
%TO.N,SIM_DTR*%
X98500000Y-85600000D02*
X98400000Y-85500000D01*
X98500000Y-93600000D02*
X98500000Y-85600000D01*
X100400000Y-95500000D02*
X98500000Y-93600000D01*
%TO.N,RF_ANT*%
X113900000Y-78100000D02*
X112500000Y-79500000D01*
X113900000Y-67900000D02*
X113900000Y-78100000D01*
%TO.N,SIM_RI*%
X98000000Y-93700000D02*
X98000000Y-90800000D01*
X100200000Y-95900000D02*
X98000000Y-93700000D01*
%TD*%
%TA.AperFunction,Conductor*%
%TO.N,SIM7080G_RX*%
G36*
X115693484Y-108431792D02*
G01*
X116156640Y-109123490D01*
X116158395Y-109132271D01*
X116156640Y-109136510D01*
X115693713Y-109827865D01*
X115686262Y-109832832D01*
X115678382Y-109831623D01*
X114482424Y-109178327D01*
X114476806Y-109171353D01*
X114476333Y-109168059D01*
X114476333Y-109032251D01*
X114479760Y-109023978D01*
X114482824Y-109021775D01*
X115678558Y-108427823D01*
X115687491Y-108427212D01*
X115693484Y-108431792D01*
G37*
%TD.AperFunction*%
%TD*%
%TA.AperFunction,Conductor*%
%TO.N,SIM7080G_RTS*%
G36*
X93781644Y-105888472D02*
G01*
X94977644Y-106552207D01*
X94983215Y-106559218D01*
X94983667Y-106562437D01*
X94983667Y-106637461D01*
X94980240Y-106645734D01*
X94977514Y-106647763D01*
X93781591Y-107291710D01*
X93772682Y-107292615D01*
X93766322Y-107287918D01*
X93303359Y-106596510D01*
X93301604Y-106587729D01*
X93303359Y-106583490D01*
X93319611Y-106559218D01*
X93766248Y-105892191D01*
X93773697Y-105887226D01*
X93781644Y-105888472D01*
G37*
%TD.AperFunction*%
%TD*%
%TA.AperFunction,Conductor*%
%TO.N,SIM7080G_RTS*%
G36*
X104390000Y-98078033D02*
G01*
X104495850Y-98098360D01*
X104503328Y-98103286D01*
X104503422Y-98103426D01*
X104564017Y-98195670D01*
X104565695Y-98204466D01*
X104562203Y-98210664D01*
X104428707Y-98334738D01*
X104420314Y-98337860D01*
X104412469Y-98334441D01*
X104361489Y-98283461D01*
X104358062Y-98275188D01*
X104358117Y-98274056D01*
X104375192Y-98098360D01*
X104376160Y-98088392D01*
X104380371Y-98080490D01*
X104388937Y-98077880D01*
X104390000Y-98078033D01*
G37*
%TD.AperFunction*%
%TD*%
%TA.AperFunction,Conductor*%
%TO.N,SIM7080G_CTS*%
G36*
X107008967Y-100641246D02*
G01*
X107009730Y-100642595D01*
X107102908Y-100836168D01*
X107103409Y-100845109D01*
X107100639Y-100849516D01*
X107049516Y-100900639D01*
X107041243Y-100904066D01*
X107036168Y-100902908D01*
X106842595Y-100809730D01*
X106836627Y-100803054D01*
X106837128Y-100794113D01*
X106837887Y-100792770D01*
X106897966Y-100701312D01*
X106901312Y-100697966D01*
X106992765Y-100637890D01*
X107001560Y-100636213D01*
X107008967Y-100641246D01*
G37*
%TD.AperFunction*%
%TD*%
%TA.AperFunction,Conductor*%
%TO.N,SIM7080G_CTS*%
G36*
X115693524Y-103351853D02*
G01*
X116156640Y-104043490D01*
X116158395Y-104052271D01*
X116156640Y-104056510D01*
X115693904Y-104747579D01*
X115686453Y-104752546D01*
X115678252Y-104751155D01*
X114482103Y-104047842D01*
X114476708Y-104040694D01*
X114476333Y-104037756D01*
X114476333Y-103962746D01*
X114479760Y-103954473D01*
X114482755Y-103952304D01*
X115678525Y-103347920D01*
X115687454Y-103347247D01*
X115693524Y-103351853D01*
G37*
%TD.AperFunction*%
%TD*%
%TA.AperFunction,Conductor*%
%TO.N,PWRKEY*%
G36*
X103405886Y-76137128D02*
G01*
X103407235Y-76137891D01*
X103498684Y-76197964D01*
X103502037Y-76201317D01*
X103562108Y-76292764D01*
X103563786Y-76301560D01*
X103558753Y-76308967D01*
X103557404Y-76309730D01*
X103363831Y-76402908D01*
X103354890Y-76403409D01*
X103350483Y-76400639D01*
X103299360Y-76349516D01*
X103295933Y-76341243D01*
X103297091Y-76336168D01*
X103309817Y-76309730D01*
X103390270Y-76142593D01*
X103396945Y-76136627D01*
X103405886Y-76137128D01*
G37*
%TD.AperFunction*%
%TD*%
%TA.AperFunction,Conductor*%
%TO.N,PWRKEY*%
G36*
X93444423Y-90855829D02*
G01*
X93447193Y-90860236D01*
X93518182Y-91063000D01*
X93517681Y-91071941D01*
X93511005Y-91077909D01*
X93509511Y-91078323D01*
X93402372Y-91100508D01*
X93397628Y-91100508D01*
X93290488Y-91078323D01*
X93283081Y-91073290D01*
X93281403Y-91064494D01*
X93281812Y-91063017D01*
X93352807Y-90860235D01*
X93358775Y-90853560D01*
X93363850Y-90852402D01*
X93436150Y-90852402D01*
X93444423Y-90855829D01*
G37*
%TD.AperFunction*%
%TD*%
%TA.AperFunction,Conductor*%
%TO.N,SIM_CLK*%
G36*
X108163831Y-99997091D02*
G01*
X108168545Y-99999360D01*
X108357404Y-100090269D01*
X108363372Y-100096945D01*
X108362871Y-100105886D01*
X108362108Y-100107235D01*
X108302037Y-100198682D01*
X108298682Y-100202037D01*
X108207235Y-100262108D01*
X108198439Y-100263786D01*
X108191032Y-100258753D01*
X108190269Y-100257404D01*
X108162977Y-100200707D01*
X108117984Y-100107235D01*
X108097091Y-100063831D01*
X108096590Y-100054890D01*
X108099358Y-100050485D01*
X108150484Y-99999359D01*
X108158756Y-99995933D01*
X108163831Y-99997091D01*
G37*
%TD.AperFunction*%
%TD*%
%TA.AperFunction,Conductor*%
%TO.N,SIM_CLK*%
G36*
X103609511Y-93521676D02*
G01*
X103616918Y-93526709D01*
X103618596Y-93535505D01*
X103618182Y-93536999D01*
X103547193Y-93739764D01*
X103541225Y-93746440D01*
X103536150Y-93747598D01*
X103463850Y-93747598D01*
X103455577Y-93744171D01*
X103452807Y-93739764D01*
X103381817Y-93536996D01*
X103382318Y-93528058D01*
X103388994Y-93522090D01*
X103390483Y-93521677D01*
X103497629Y-93499491D01*
X103502371Y-93499491D01*
X103609511Y-93521676D01*
G37*
%TD.AperFunction*%
%TD*%
%TA.AperFunction,Conductor*%
%TO.N,Net-(Q2-B)*%
G36*
X96263831Y-101697091D02*
G01*
X96268545Y-101699360D01*
X96457404Y-101790269D01*
X96463372Y-101796945D01*
X96462871Y-101805886D01*
X96462108Y-101807235D01*
X96402037Y-101898682D01*
X96398682Y-101902037D01*
X96307235Y-101962108D01*
X96298439Y-101963786D01*
X96291032Y-101958753D01*
X96290269Y-101957404D01*
X96262977Y-101900707D01*
X96217984Y-101807235D01*
X96197091Y-101763831D01*
X96196590Y-101754890D01*
X96199358Y-101750485D01*
X96250484Y-101699359D01*
X96258756Y-101695933D01*
X96263831Y-101697091D01*
G37*
%TD.AperFunction*%
%TD*%
%TA.AperFunction,Conductor*%
%TO.N,Net-(Q2-B)*%
G36*
X94309511Y-96321676D02*
G01*
X94316918Y-96326709D01*
X94318596Y-96335505D01*
X94318182Y-96336999D01*
X94247193Y-96539764D01*
X94241225Y-96546440D01*
X94236150Y-96547598D01*
X94163850Y-96547598D01*
X94155577Y-96544171D01*
X94152807Y-96539764D01*
X94081817Y-96336996D01*
X94082318Y-96328058D01*
X94088994Y-96322090D01*
X94090483Y-96321677D01*
X94197629Y-96299491D01*
X94202371Y-96299491D01*
X94309511Y-96321676D01*
G37*
%TD.AperFunction*%
%TD*%
%TA.AperFunction,Conductor*%
%TO.N,Net-(Q3-B)*%
G36*
X115063831Y-91297091D02*
G01*
X115068545Y-91299360D01*
X115257404Y-91390269D01*
X115263372Y-91396945D01*
X115262871Y-91405886D01*
X115262108Y-91407235D01*
X115202037Y-91498682D01*
X115198682Y-91502037D01*
X115107235Y-91562108D01*
X115098439Y-91563786D01*
X115091032Y-91558753D01*
X115090269Y-91557404D01*
X115062977Y-91500707D01*
X115017984Y-91407235D01*
X114997091Y-91363831D01*
X114996590Y-91354890D01*
X114999358Y-91350485D01*
X115050484Y-91299359D01*
X115058756Y-91295933D01*
X115063831Y-91297091D01*
G37*
%TD.AperFunction*%
%TD*%
%TA.AperFunction,Conductor*%
%TO.N,Net-(Q3-B)*%
G36*
X115009511Y-89021676D02*
G01*
X115016918Y-89026709D01*
X115018596Y-89035505D01*
X115018182Y-89036999D01*
X114947193Y-89239764D01*
X114941225Y-89246440D01*
X114936150Y-89247598D01*
X114863850Y-89247598D01*
X114855577Y-89244171D01*
X114852807Y-89239764D01*
X114781817Y-89036996D01*
X114782318Y-89028058D01*
X114788994Y-89022090D01*
X114790483Y-89021677D01*
X114897629Y-88999491D01*
X114902371Y-88999491D01*
X115009511Y-89021676D01*
G37*
%TD.AperFunction*%
%TD*%
%TA.AperFunction,Conductor*%
%TO.N,Net-(Q1-B)*%
G36*
X94444423Y-78055829D02*
G01*
X94447193Y-78060236D01*
X94518182Y-78263000D01*
X94517681Y-78271941D01*
X94511005Y-78277909D01*
X94509511Y-78278323D01*
X94402372Y-78300508D01*
X94397628Y-78300508D01*
X94290488Y-78278323D01*
X94283081Y-78273290D01*
X94281403Y-78264494D01*
X94281812Y-78263017D01*
X94352807Y-78060235D01*
X94358775Y-78053560D01*
X94363850Y-78052402D01*
X94436150Y-78052402D01*
X94444423Y-78055829D01*
G37*
%TD.AperFunction*%
%TD*%
%TA.AperFunction,Conductor*%
%TO.N,Net-(Q1-B)*%
G36*
X94509511Y-75721676D02*
G01*
X94516918Y-75726709D01*
X94518596Y-75735505D01*
X94518182Y-75736999D01*
X94447193Y-75939764D01*
X94441225Y-75946440D01*
X94436150Y-75947598D01*
X94363850Y-75947598D01*
X94355577Y-75944171D01*
X94352807Y-75939764D01*
X94281817Y-75736996D01*
X94282318Y-75728058D01*
X94288994Y-75722090D01*
X94290483Y-75721677D01*
X94397629Y-75699491D01*
X94402371Y-75699491D01*
X94509511Y-75721676D01*
G37*
%TD.AperFunction*%
%TD*%
%TA.AperFunction,Conductor*%
%TO.N,Net-(U3-CLK)*%
G36*
X106663831Y-106397091D02*
G01*
X106668545Y-106399360D01*
X106857404Y-106490269D01*
X106863372Y-106496945D01*
X106862871Y-106505886D01*
X106862108Y-106507235D01*
X106802037Y-106598682D01*
X106798682Y-106602037D01*
X106707235Y-106662108D01*
X106698439Y-106663786D01*
X106691032Y-106658753D01*
X106690269Y-106657404D01*
X106662977Y-106600707D01*
X106617984Y-106507235D01*
X106597091Y-106463831D01*
X106596590Y-106454890D01*
X106599358Y-106450485D01*
X106650484Y-106399359D01*
X106658756Y-106395933D01*
X106663831Y-106397091D01*
G37*
%TD.AperFunction*%
%TD*%
%TA.AperFunction,Conductor*%
%TO.N,Net-(U3-CLK)*%
G36*
X106408967Y-106041246D02*
G01*
X106409730Y-106042595D01*
X106502908Y-106236168D01*
X106503409Y-106245109D01*
X106500639Y-106249516D01*
X106449516Y-106300639D01*
X106441243Y-106304066D01*
X106436168Y-106302908D01*
X106242595Y-106209730D01*
X106236627Y-106203054D01*
X106237128Y-106194113D01*
X106237887Y-106192770D01*
X106297966Y-106101312D01*
X106301312Y-106097966D01*
X106392765Y-106037890D01*
X106401560Y-106036213D01*
X106408967Y-106041246D01*
G37*
%TD.AperFunction*%
%TD*%
%TA.AperFunction,Conductor*%
%TO.N,Net-(D1-A2)*%
G36*
X116308967Y-82341246D02*
G01*
X116309730Y-82342595D01*
X116402908Y-82536168D01*
X116403409Y-82545109D01*
X116400639Y-82549516D01*
X116349516Y-82600639D01*
X116341243Y-82604066D01*
X116336168Y-82602908D01*
X116142595Y-82509730D01*
X116136627Y-82503054D01*
X116137128Y-82494113D01*
X116137887Y-82492770D01*
X116197966Y-82401312D01*
X116201312Y-82397966D01*
X116292765Y-82337890D01*
X116301560Y-82336213D01*
X116308967Y-82341246D01*
G37*
%TD.AperFunction*%
%TD*%
%TA.AperFunction,Conductor*%
%TO.N,Net-(D1-A2)*%
G36*
X115644423Y-84755829D02*
G01*
X115647193Y-84760236D01*
X115718182Y-84963000D01*
X115717681Y-84971941D01*
X115711005Y-84977909D01*
X115709511Y-84978323D01*
X115602372Y-85000508D01*
X115597628Y-85000508D01*
X115490488Y-84978323D01*
X115483081Y-84973290D01*
X115481403Y-84964494D01*
X115481812Y-84963017D01*
X115552807Y-84760235D01*
X115558775Y-84753560D01*
X115563850Y-84752402D01*
X115636150Y-84752402D01*
X115644423Y-84755829D01*
G37*
%TD.AperFunction*%
%TD*%
%TA.AperFunction,Conductor*%
%TO.N,SIM_RST*%
G36*
X107063831Y-98197091D02*
G01*
X107068545Y-98199360D01*
X107257404Y-98290269D01*
X107263372Y-98296945D01*
X107262871Y-98305886D01*
X107262108Y-98307235D01*
X107202037Y-98398682D01*
X107198682Y-98402037D01*
X107107235Y-98462108D01*
X107098439Y-98463786D01*
X107091032Y-98458753D01*
X107090269Y-98457404D01*
X107062977Y-98400707D01*
X107017984Y-98307235D01*
X106997091Y-98263831D01*
X106996590Y-98254890D01*
X106999358Y-98250485D01*
X107050484Y-98199359D01*
X107058756Y-98195933D01*
X107063831Y-98197091D01*
G37*
%TD.AperFunction*%
%TD*%
%TA.AperFunction,Conductor*%
%TO.N,SIM_RST*%
G36*
X104308967Y-92741246D02*
G01*
X104309730Y-92742595D01*
X104402908Y-92936168D01*
X104403409Y-92945109D01*
X104400639Y-92949516D01*
X104349516Y-93000639D01*
X104341243Y-93004066D01*
X104336168Y-93002908D01*
X104142595Y-92909730D01*
X104136627Y-92903054D01*
X104137128Y-92894113D01*
X104137887Y-92892770D01*
X104197966Y-92801312D01*
X104201312Y-92797966D01*
X104292765Y-92737890D01*
X104301560Y-92736213D01*
X104308967Y-92741246D01*
G37*
%TD.AperFunction*%
%TD*%
%TA.AperFunction,Conductor*%
%TO.N,SIM7080G_TX*%
G36*
X115693753Y-105892193D02*
G01*
X116156640Y-106583490D01*
X116158395Y-106592271D01*
X116156640Y-106596510D01*
X115693677Y-107287918D01*
X115686226Y-107292885D01*
X115678408Y-107291710D01*
X114482486Y-106647763D01*
X114476826Y-106640823D01*
X114476333Y-106637461D01*
X114476333Y-106562437D01*
X114479760Y-106554164D01*
X114482353Y-106552208D01*
X115678355Y-105888472D01*
X115687250Y-105887455D01*
X115693753Y-105892193D01*
G37*
%TD.AperFunction*%
%TD*%
%TA.AperFunction,Conductor*%
%TO.N,SIM7080G_TX*%
G36*
X104236986Y-99081813D02*
G01*
X104439764Y-99152807D01*
X104446440Y-99158775D01*
X104447598Y-99163850D01*
X104447598Y-99236149D01*
X104444171Y-99244422D01*
X104439764Y-99247192D01*
X104236999Y-99318182D01*
X104228058Y-99317681D01*
X104222090Y-99311005D01*
X104221676Y-99309511D01*
X104199491Y-99202372D01*
X104199491Y-99197628D01*
X104221676Y-99090488D01*
X104226709Y-99083081D01*
X104235505Y-99081403D01*
X104236986Y-99081813D01*
G37*
%TD.AperFunction*%
%TD*%
%TA.AperFunction,Conductor*%
%TO.N,SIM_TX*%
G36*
X95609511Y-79821676D02*
G01*
X95616918Y-79826709D01*
X95618596Y-79835505D01*
X95618182Y-79836999D01*
X95547193Y-80039764D01*
X95541225Y-80046440D01*
X95536150Y-80047598D01*
X95463850Y-80047598D01*
X95455577Y-80044171D01*
X95452807Y-80039764D01*
X95381817Y-79836996D01*
X95382318Y-79828058D01*
X95388994Y-79822090D01*
X95390483Y-79821677D01*
X95497629Y-79799491D01*
X95502371Y-79799491D01*
X95609511Y-79821676D01*
G37*
%TD.AperFunction*%
%TD*%
%TA.AperFunction,Conductor*%
%TO.N,SIM_TX*%
G36*
X103471941Y-97582318D02*
G01*
X103477909Y-97588994D01*
X103478323Y-97590488D01*
X103500508Y-97697628D01*
X103500508Y-97702372D01*
X103478323Y-97809511D01*
X103473290Y-97816918D01*
X103464494Y-97818596D01*
X103463003Y-97818182D01*
X103412329Y-97800441D01*
X103260236Y-97747192D01*
X103253560Y-97741224D01*
X103252402Y-97736149D01*
X103252402Y-97663850D01*
X103255829Y-97655577D01*
X103260235Y-97652807D01*
X103463003Y-97581817D01*
X103471941Y-97582318D01*
G37*
%TD.AperFunction*%
%TD*%
%TA.AperFunction,Conductor*%
%TO.N,GNSS_ANT*%
G36*
X95609511Y-67921676D02*
G01*
X95616918Y-67926709D01*
X95618596Y-67935505D01*
X95618182Y-67936999D01*
X95547193Y-68139764D01*
X95541225Y-68146440D01*
X95536150Y-68147598D01*
X95463850Y-68147598D01*
X95455577Y-68144171D01*
X95452807Y-68139764D01*
X95381817Y-67936996D01*
X95382318Y-67928058D01*
X95388994Y-67922090D01*
X95390483Y-67921677D01*
X95497629Y-67899491D01*
X95502371Y-67899491D01*
X95609511Y-67921676D01*
G37*
%TD.AperFunction*%
%TD*%
%TA.AperFunction,Conductor*%
%TO.N,GNSS_ANT*%
G36*
X99763831Y-77597091D02*
G01*
X99768545Y-77599360D01*
X99957404Y-77690269D01*
X99963372Y-77696945D01*
X99962871Y-77705886D01*
X99962108Y-77707235D01*
X99902037Y-77798682D01*
X99898682Y-77802037D01*
X99807235Y-77862108D01*
X99798439Y-77863786D01*
X99791032Y-77858753D01*
X99790269Y-77857404D01*
X99762977Y-77800707D01*
X99717984Y-77707235D01*
X99697091Y-77663831D01*
X99696590Y-77654890D01*
X99699358Y-77650485D01*
X99750484Y-77599359D01*
X99758756Y-77595933D01*
X99763831Y-77597091D01*
G37*
%TD.AperFunction*%
%TD*%
%TA.AperFunction,Conductor*%
%TO.N,SIM_RTS*%
G36*
X97309511Y-81121676D02*
G01*
X97316918Y-81126709D01*
X97318596Y-81135505D01*
X97318182Y-81136999D01*
X97247193Y-81339764D01*
X97241225Y-81346440D01*
X97236150Y-81347598D01*
X97163850Y-81347598D01*
X97155577Y-81344171D01*
X97152807Y-81339764D01*
X97081817Y-81136996D01*
X97082318Y-81128058D01*
X97088994Y-81122090D01*
X97090483Y-81121677D01*
X97197629Y-81099491D01*
X97202371Y-81099491D01*
X97309511Y-81121676D01*
G37*
%TD.AperFunction*%
%TD*%
%TA.AperFunction,Conductor*%
%TO.N,SIM_RTS*%
G36*
X102063831Y-95597091D02*
G01*
X102068545Y-95599360D01*
X102257404Y-95690269D01*
X102263372Y-95696945D01*
X102262871Y-95705886D01*
X102262108Y-95707235D01*
X102202037Y-95798682D01*
X102198682Y-95802037D01*
X102107235Y-95862108D01*
X102098439Y-95863786D01*
X102091032Y-95858753D01*
X102090269Y-95857404D01*
X102062977Y-95800707D01*
X102017984Y-95707235D01*
X101997091Y-95663831D01*
X101996590Y-95654890D01*
X101999358Y-95650485D01*
X102050484Y-95599359D01*
X102058756Y-95595933D01*
X102063831Y-95597091D01*
G37*
%TD.AperFunction*%
%TD*%
%TA.AperFunction,Conductor*%
%TO.N,SIM_CTS*%
G36*
X98508967Y-84741246D02*
G01*
X98509730Y-84742595D01*
X98602908Y-84936168D01*
X98603409Y-84945109D01*
X98600639Y-84949516D01*
X98549516Y-85000639D01*
X98541243Y-85004066D01*
X98536168Y-85002908D01*
X98342595Y-84909730D01*
X98336627Y-84903054D01*
X98337128Y-84894113D01*
X98337887Y-84892770D01*
X98397966Y-84801312D01*
X98401312Y-84797966D01*
X98492765Y-84737890D01*
X98501560Y-84736213D01*
X98508967Y-84741246D01*
G37*
%TD.AperFunction*%
%TD*%
%TA.AperFunction,Conductor*%
%TO.N,SIM_CTS*%
G36*
X101363831Y-95897091D02*
G01*
X101368545Y-95899360D01*
X101557404Y-95990269D01*
X101563372Y-95996945D01*
X101562871Y-96005886D01*
X101562108Y-96007235D01*
X101502037Y-96098682D01*
X101498682Y-96102037D01*
X101407235Y-96162108D01*
X101398439Y-96163786D01*
X101391032Y-96158753D01*
X101390269Y-96157404D01*
X101362977Y-96100707D01*
X101317984Y-96007235D01*
X101297091Y-95963831D01*
X101296590Y-95954890D01*
X101299358Y-95950485D01*
X101350484Y-95899359D01*
X101358756Y-95895933D01*
X101363831Y-95897091D01*
G37*
%TD.AperFunction*%
%TD*%
%TA.AperFunction,Conductor*%
%TO.N,SIM_DTR*%
G36*
X98518738Y-85479838D02*
G01*
X98523655Y-85487323D01*
X98523810Y-85488411D01*
X98543236Y-85693373D01*
X98540605Y-85701933D01*
X98532692Y-85706125D01*
X98531588Y-85706177D01*
X98459726Y-85706177D01*
X98452318Y-85703533D01*
X98338738Y-85610628D01*
X98334504Y-85602738D01*
X98336388Y-85595118D01*
X98397279Y-85503111D01*
X98404702Y-85498104D01*
X98404819Y-85498080D01*
X98509972Y-85478022D01*
X98518738Y-85479838D01*
G37*
%TD.AperFunction*%
%TD*%
%TA.AperFunction,Conductor*%
%TO.N,SIM_DTR*%
G36*
X100263831Y-95297091D02*
G01*
X100268545Y-95299360D01*
X100457404Y-95390269D01*
X100463372Y-95396945D01*
X100462871Y-95405886D01*
X100462108Y-95407235D01*
X100402037Y-95498682D01*
X100398682Y-95502037D01*
X100307235Y-95562108D01*
X100298439Y-95563786D01*
X100291032Y-95558753D01*
X100290269Y-95557404D01*
X100262977Y-95500707D01*
X100217984Y-95407235D01*
X100197091Y-95363831D01*
X100196590Y-95354890D01*
X100199358Y-95350485D01*
X100250484Y-95299359D01*
X100258756Y-95295933D01*
X100263831Y-95297091D01*
G37*
%TD.AperFunction*%
%TD*%
%TA.AperFunction,Conductor*%
%TO.N,RF_ANT*%
G36*
X112649516Y-79299360D02*
G01*
X112700639Y-79350483D01*
X112704066Y-79358756D01*
X112702908Y-79363831D01*
X112609730Y-79557404D01*
X112603054Y-79563372D01*
X112594113Y-79562871D01*
X112592764Y-79562108D01*
X112549046Y-79533390D01*
X112501315Y-79502035D01*
X112497964Y-79498684D01*
X112437891Y-79407235D01*
X112436213Y-79398439D01*
X112441246Y-79391032D01*
X112442584Y-79390275D01*
X112636168Y-79297090D01*
X112645109Y-79296590D01*
X112649516Y-79299360D01*
G37*
%TD.AperFunction*%
%TD*%
%TA.AperFunction,Conductor*%
%TO.N,RF_ANT*%
G36*
X114009511Y-67921676D02*
G01*
X114016918Y-67926709D01*
X114018596Y-67935505D01*
X114018182Y-67936999D01*
X113947193Y-68139764D01*
X113941225Y-68146440D01*
X113936150Y-68147598D01*
X113863850Y-68147598D01*
X113855577Y-68144171D01*
X113852807Y-68139764D01*
X113781817Y-67936996D01*
X113782318Y-67928058D01*
X113788994Y-67922090D01*
X113790483Y-67921677D01*
X113897629Y-67899491D01*
X113902371Y-67899491D01*
X114009511Y-67921676D01*
G37*
%TD.AperFunction*%
%TD*%
%TA.AperFunction,Conductor*%
%TO.N,SIM_RI*%
G36*
X98109511Y-90821676D02*
G01*
X98116918Y-90826709D01*
X98118596Y-90835505D01*
X98118182Y-90836999D01*
X98047193Y-91039764D01*
X98041225Y-91046440D01*
X98036150Y-91047598D01*
X97963850Y-91047598D01*
X97955577Y-91044171D01*
X97952807Y-91039764D01*
X97881817Y-90836996D01*
X97882318Y-90828058D01*
X97888994Y-90822090D01*
X97890483Y-90821677D01*
X97997629Y-90799491D01*
X98002371Y-90799491D01*
X98109511Y-90821676D01*
G37*
%TD.AperFunction*%
%TD*%
%TA.AperFunction,Conductor*%
%TO.N,SIM_RI*%
G36*
X100063831Y-95697091D02*
G01*
X100068545Y-95699360D01*
X100257404Y-95790269D01*
X100263372Y-95796945D01*
X100262871Y-95805886D01*
X100262108Y-95807235D01*
X100202037Y-95898682D01*
X100198682Y-95902037D01*
X100107235Y-95962108D01*
X100098439Y-95963786D01*
X100091032Y-95958753D01*
X100090269Y-95957404D01*
X100062977Y-95900707D01*
X100017984Y-95807235D01*
X99997091Y-95763831D01*
X99996590Y-95754890D01*
X99999358Y-95750485D01*
X100050484Y-95699359D01*
X100058756Y-95695933D01*
X100063831Y-95697091D01*
G37*
%TD.AperFunction*%
%TD*%
M02*
