M48
; DRILL file {KiCad 9.0.2} date 2026-08-05T13:40:56+0300
; FORMAT={-:-/ absolute / inch / decimal}
; #@! TF.CreationDate,2026-08-05T13:40:56+03:00
; #@! TF.GenerationSoftware,Kicad,Pcbnew,9.0.2
; #@! TF.FileFunction,Plated,1,4,PTH
FMAT,2
INCH
; #@! TA.AperFunction,Plated,PTH,ViaDrill
T1C0.0059
; #@! TA.AperFunction,Plated,PTH,ComponentDrill
T2C0.0394
%
G90
G05
T1
X3.6772Y-3.5866
X3.685Y-3.0349
X3.69Y-2.7234
X3.7087Y-3.6102
X3.7087Y-3.7913
X3.7165Y-2.9803
X3.7165Y-3.0827
X3.7402Y-2.874
X3.7534Y-3.7244
X3.7598Y-2.6732
X3.7598Y-3.1417
X3.7677Y-4.122
X3.7731Y-2.9134
X3.7953Y-4.0118
X3.8061Y-2.7234
X3.8071Y-3.1378
X3.8091Y-3.3917
X3.811Y-2.874
X3.815Y-3.9601
X3.8268Y-3.1929
X3.8583Y-3.5748
X3.874Y-3.3386
X3.874Y-3.3661
X3.9016Y-3.9055
X3.9075Y-3.2441
X3.9114Y-4.4095
X3.9114Y-4.756
X3.9134Y-3.874
X3.9213Y-4.1614
X3.9331Y-3.063
X3.9449Y-3.6732
X3.9449Y-3.7756
X3.9528Y-3.7598
X3.9567Y-3.811
X3.9567Y-3.9409
X3.9567Y-3.9724
X3.9575Y-3.1366
X3.9575Y-3.1929
X3.9575Y-3.2492
X3.9764Y-3.815
X3.9764Y-3.9567
X3.9803Y-2.6969
X3.9961Y-3.7835
X3.9961Y-3.8031
X3.9961Y-3.9567
X4.0Y-3.0276
X4.0039Y-3.1366
X4.0039Y-3.1929
X4.0039Y-3.2492
X4.0039Y-3.3268
X4.0039Y-3.4606
X4.0039Y-3.9724
X4.0157Y-3.811
X4.0236Y-3.7717
X4.0236Y-4.126
X4.0315Y-3.0
X4.0354Y-3.7913
X4.0394Y-3.7559
X4.0472Y-3.689
X4.0504Y-3.1366
X4.0504Y-3.1929
X4.0504Y-3.2492
X4.0551Y-3.811
X4.0551Y-3.874
X4.0551Y-3.9409
X4.0591Y-3.9803
X4.063Y-2.6811
X4.063Y-2.7677
X4.063Y-3.0787
X4.0669Y-3.7362
X4.0669Y-4.2481
X4.0709Y-4.0886
X4.0748Y-3.0
X4.0748Y-3.6811
X4.0748Y-3.8465
X4.0886Y-2.8701
X4.0906Y-3.9252
X4.0945Y-4.0394
X4.1024Y-3.6535
X4.1024Y-3.9055
X4.1102Y-2.6969
X4.1142Y-3.8622
X4.1181Y-3.1929
X4.1181Y-3.3268
X4.1181Y-3.4606
X4.1181Y-3.9449
X4.1496Y-3.8898
X4.1575Y-3.689
X4.1654Y-4.0856
X4.1663Y-2.8661
X4.185Y-4.1772
X4.2047Y-2.9803
X4.2047Y-3.6732
X4.2047Y-4.1969
X4.2087Y-3.9646
X4.2205Y-3.874
X4.2283Y-3.0787
X4.2323Y-3.1929
X4.2323Y-3.3268
X4.2323Y-3.4606
X4.2402Y-3.7874
X4.2441Y-3.8701
X4.2638Y-3.9449
X4.2874Y-2.6811
X4.2874Y-2.7677
X4.2913Y-3.6732
X4.3071Y-3.8898
X4.3189Y-2.9528
X4.3661Y-3.9055
X4.372Y-4.4095
X4.372Y-4.756
X4.4094Y-3.7756
X4.4094Y-3.874
X4.4252Y-4.0856
X4.4272Y-3.0886
X4.4272Y-3.2185
X4.4272Y-3.3484
X4.4291Y-3.1299
X4.438Y-2.7234
X4.4828Y-3.7362
X4.4843Y-2.6732
X4.4843Y-3.3976
X4.5079Y-3.3937
X4.5236Y-3.1181
X4.5236Y-3.5039
X4.5354Y-3.6024
X4.5512Y-3.2717
X4.5512Y-3.3465
X4.5541Y-2.7234
X4.5551Y-3.5507
X4.5748Y-3.2441
T2
X3.6732Y-3.9965
X3.6732Y-4.0965
X3.6732Y-4.1965
X3.6732Y-4.2965
X3.6732Y-4.3965
X3.6732Y-4.4965
X3.6732Y-4.5965
X3.6732Y-4.6965
X4.5732Y-3.9965
X4.5732Y-4.0965
X4.5732Y-4.1965
X4.5732Y-4.2965
X4.5732Y-4.3965
X4.5732Y-4.4965
X4.5732Y-4.5965
X4.5732Y-4.6965
M30
