M48
; DRILL file {KiCad 9.0.2} date 2026-07-22T16:19:36+0300
; FORMAT={-:-/ absolute / inch / decimal}
; #@! TF.CreationDate,2026-07-22T16:19:36+03:00
; #@! TF.GenerationSoftware,Kicad,Pcbnew,9.0.2
; #@! TF.FileFunction,Plated,1,4,PTH
FMAT,2
INCH
; #@! TA.AperFunction,Plated,PTH,ViaDrill
T1C0.0059
; #@! TA.AperFunction,Plated,PTH,ViaDrill
T2C0.0118
; #@! TA.AperFunction,Plated,PTH,ComponentDrill
T3C0.0394
%
G90
G05
T1
X4.1339Y-3.7972
T2
X3.6772Y-3.2323
X3.6772Y-3.3071
X3.685Y-3.0349
X3.69Y-2.7234
X3.7087Y-3.6102
X3.7362Y-3.4409
X3.7534Y-3.7244
X3.7559Y-3.0197
X3.7598Y-3.0984
X3.7638Y-3.1299
X3.7638Y-3.1732
X3.7638Y-3.2205
X3.7638Y-3.3071
X3.7638Y-3.3465
X3.7638Y-3.3937
X3.7731Y-2.9134
X3.7913Y-4.0394
X3.8061Y-2.7234
X3.8091Y-3.3917
X3.815Y-3.2244
X3.815Y-3.9601
X3.815Y-4.0945
X3.8307Y-3.8228
X3.8622Y-3.1732
X3.8622Y-3.4528
X3.8701Y-3.2441
X3.874Y-3.9055
X3.8819Y-3.6181
X3.8976Y-3.9724
X3.9016Y-3.9055
X3.9055Y-3.874
X3.9075Y-3.2441
X3.9094Y-4.3622
X3.9094Y-4.8071
X3.9114Y-4.4095
X3.9114Y-4.756
X3.9213Y-4.1614
X3.9449Y-2.9331
X3.9449Y-3.6732
X3.9449Y-3.7165
X3.9528Y-3.0433
X3.9567Y-3.7835
X3.9567Y-3.9685
X3.9764Y-3.7559
X3.9764Y-3.9961
X3.9882Y-2.9331
X3.9961Y-3.7835
X3.9961Y-3.9685
X4.0039Y-3.1181
X4.0039Y-3.1929
X4.0039Y-3.3268
X4.0039Y-3.4016
X4.0039Y-3.4606
X4.0039Y-3.5354
X4.0079Y-3.0433
X4.0157Y-3.7559
X4.0157Y-3.9961
X4.0157Y-4.2126
X4.0276Y-4.126
X4.0315Y-2.9331
X4.0315Y-3.7165
X4.0354Y-3.7835
X4.0354Y-3.9685
X4.0551Y-3.7559
X4.0551Y-3.9961
X4.0591Y-3.874
X4.063Y-2.6811
X4.063Y-2.7677
X4.063Y-3.0433
X4.063Y-3.0787
X4.0669Y-4.2126
X4.0669Y-4.2481
X4.0709Y-4.0886
X4.0748Y-2.9331
X4.0748Y-3.7165
X4.0748Y-3.8465
X4.0827Y-3.7874
X4.0866Y-3.9016
X4.0886Y-2.8701
X4.1181Y-3.1181
X4.1181Y-3.1929
X4.1181Y-3.3268
X4.1181Y-3.4016
X4.1181Y-3.4606
X4.1181Y-3.5354
X4.1181Y-3.7165
X4.1181Y-4.2126
X4.1417Y-3.8858
X4.1614Y-2.9331
X4.1614Y-3.7165
X4.1654Y-4.0856
X4.1663Y-2.8661
X4.1693Y-4.0276
X4.185Y-3.7441
X4.2047Y-2.9331
X4.2047Y-2.9803
X4.2047Y-3.6732
X4.2047Y-3.7165
X4.2165Y-4.2126
X4.2283Y-3.0433
X4.2283Y-3.0787
X4.2323Y-3.1181
X4.2323Y-3.1929
X4.2323Y-3.3268
X4.2323Y-3.4016
X4.2323Y-3.4606
X4.2323Y-3.5354
X4.2323Y-3.6181
X4.2441Y-3.7835
X4.248Y-2.9331
X4.248Y-3.6732
X4.248Y-3.7165
X4.2559Y-3.8583
X4.2677Y-3.8228
X4.2677Y-4.2126
X4.2835Y-4.0472
X4.2874Y-2.6811
X4.2874Y-2.7677
X4.2913Y-2.9331
X4.2913Y-3.6732
X4.2913Y-3.7165
X4.2953Y-3.8543
X4.3228Y-4.0079
X4.3346Y-3.8937
X4.3386Y-4.0709
X4.3504Y-4.2047
X4.3543Y-3.6693
X4.3622Y-3.2598
X4.3701Y-3.752
X4.3701Y-3.9104
X4.3701Y-4.3622
X4.3701Y-4.8071
X4.372Y-4.4095
X4.372Y-4.756
X4.3858Y-3.6142
X4.3937Y-4.0157
X4.3976Y-2.8819
X4.4252Y-4.0856
X4.4272Y-3.0886
X4.4272Y-3.2185
X4.4272Y-3.3484
X4.438Y-2.7234
X4.4724Y-3.0512
X4.4724Y-3.0866
X4.4724Y-3.1299
X4.4724Y-3.1732
X4.4724Y-3.2205
X4.4724Y-3.3465
X4.4828Y-3.7362
X4.4843Y-3.3976
X4.4882Y-4.2402
X4.5Y-3.4606
X4.5039Y-3.9843
X4.5315Y-3.1142
X4.5394Y-3.3031
X4.5512Y-3.2362
X4.5512Y-3.2717
X4.5541Y-2.7234
X4.5551Y-3.5507
T3
X3.6732Y-3.9965
X3.6732Y-4.0965
X3.6732Y-4.1965
X3.6732Y-4.2965
X3.6732Y-4.3965
X3.6732Y-4.4965
X3.6732Y-4.5965
X3.6732Y-4.6965
X4.5732Y-3.9965
X4.5732Y-4.0965
X4.5732Y-4.1965
X4.5732Y-4.2965
X4.5732Y-4.3965
X4.5732Y-4.4965
X4.5732Y-4.5965
X4.5732Y-4.6965
M30
