%TF.GenerationSoftware,KiCad,Pcbnew,9.0.2*%
%TF.CreationDate,2026-07-16T14:58:55+03:00*%
%TF.ProjectId,sim7080g,73696d37-3038-4306-972e-6b696361645f,rev?*%
%TF.SameCoordinates,Original*%
%TF.FileFunction,Copper,L1,Top*%
%TF.FilePolarity,Positive*%
%FSLAX46Y46*%
G04 Gerber Fmt 4.6, Leading zero omitted, Abs format (unit mm)*
G04 Created by KiCad (PCBNEW 9.0.2) date 2026-07-16 14:58:55*
%MOMM*%
%LPD*%
G01*
G04 APERTURE LIST*
G04 Aperture macros list*
%AMRoundRect*
0 Rectangle with rounded corners*
0 $1 Rounding radius*
0 $2 $3 $4 $5 $6 $7 $8 $9 X,Y pos of 4 corners*
0 Add a 4 corners polygon primitive as box body*
4,1,4,$2,$3,$4,$5,$6,$7,$8,$9,$2,$3,0*
0 Add four circle primitives for the rounded corners*
1,1,$1+$1,$2,$3*
1,1,$1+$1,$4,$5*
1,1,$1+$1,$6,$7*
1,1,$1+$1,$8,$9*
0 Add four rect primitives between the rounded corners*
20,1,$1+$1,$2,$3,$4,$5,0*
20,1,$1+$1,$4,$5,$6,$7,0*
20,1,$1+$1,$6,$7,$8,$9,0*
20,1,$1+$1,$8,$9,$2,$3,0*%
%AMFreePoly0*
4,1,14,1.303536,1.553536,1.305000,1.550000,1.305000,-1.550000,1.303536,-1.553536,1.300000,-1.555000,-1.300000,-1.555000,-1.303536,-1.553536,-1.305000,-1.550000,-1.305000,0.520000,-1.303536,0.523536,-0.273536,1.553536,-0.270000,1.555000,1.300000,1.555000,1.303536,1.553536,1.303536,1.553536,$1*%
G04 Aperture macros list end*
%TA.AperFunction,SMDPad,CuDef*%
%ADD10RoundRect,0.062500X-0.062500X0.117500X-0.062500X-0.117500X0.062500X-0.117500X0.062500X0.117500X0*%
%TD*%
%TA.AperFunction,SMDPad,CuDef*%
%ADD11RoundRect,0.050000X-0.250000X-0.070000X0.250000X-0.070000X0.250000X0.070000X-0.250000X0.070000X0*%
%TD*%
%TA.AperFunction,SMDPad,CuDef*%
%ADD12RoundRect,0.050000X-0.070000X0.250000X-0.070000X-0.250000X0.070000X-0.250000X0.070000X0.250000X0*%
%TD*%
%TA.AperFunction,SMDPad,CuDef*%
%ADD13RoundRect,0.050000X-1.475000X0.975000X-1.475000X-0.975000X1.475000X-0.975000X1.475000X0.975000X0*%
%TD*%
%TA.AperFunction,SMDPad,CuDef*%
%ADD14RoundRect,0.250000X-0.450000X0.262500X-0.450000X-0.262500X0.450000X-0.262500X0.450000X0.262500X0*%
%TD*%
%TA.AperFunction,SMDPad,CuDef*%
%ADD15RoundRect,0.150000X-0.587500X-0.150000X0.587500X-0.150000X0.587500X0.150000X-0.587500X0.150000X0*%
%TD*%
%TA.AperFunction,SMDPad,CuDef*%
%ADD16RoundRect,0.250000X-0.475000X0.250000X-0.475000X-0.250000X0.475000X-0.250000X0.475000X0.250000X0*%
%TD*%
%TA.AperFunction,SMDPad,CuDef*%
%ADD17RoundRect,0.250000X-0.262500X-0.450000X0.262500X-0.450000X0.262500X0.450000X-0.262500X0.450000X0*%
%TD*%
%TA.AperFunction,SMDPad,CuDef*%
%ADD18RoundRect,0.150000X-0.150000X0.512500X-0.150000X-0.512500X0.150000X-0.512500X0.150000X0.512500X0*%
%TD*%
%TA.AperFunction,SMDPad,CuDef*%
%ADD19RoundRect,0.250000X0.250000X0.475000X-0.250000X0.475000X-0.250000X-0.475000X0.250000X-0.475000X0*%
%TD*%
%TA.AperFunction,SMDPad,CuDef*%
%ADD20RoundRect,0.250000X-0.250000X-0.475000X0.250000X-0.475000X0.250000X0.475000X-0.250000X0.475000X0*%
%TD*%
%TA.AperFunction,SMDPad,CuDef*%
%ADD21R,0.900000X1.200000*%
%TD*%
%TA.AperFunction,SMDPad,CuDef*%
%ADD22R,1.300000X1.800000*%
%TD*%
%TA.AperFunction,SMDPad,CuDef*%
%ADD23RoundRect,0.250000X-0.250000X0.275000X-0.250000X-0.275000X0.250000X-0.275000X0.250000X0.275000X0*%
%TD*%
%TA.AperFunction,SMDPad,CuDef*%
%ADD24RoundRect,0.250000X-0.275000X0.850000X-0.275000X-0.850000X0.275000X-0.850000X0.275000X0.850000X0*%
%TD*%
%TA.AperFunction,SMDPad,CuDef*%
%ADD25O,1.600000X0.600000*%
%TD*%
%TA.AperFunction,SMDPad,CuDef*%
%ADD26O,0.600000X1.600000*%
%TD*%
%TA.AperFunction,SMDPad,CuDef*%
%ADD27R,1.100000X0.900000*%
%TD*%
%TA.AperFunction,SMDPad,CuDef*%
%ADD28R,0.900000X1.100000*%
%TD*%
%TA.AperFunction,SMDPad,CuDef*%
%ADD29FreePoly0,0.000000*%
%TD*%
%TA.AperFunction,SMDPad,CuDef*%
%ADD30R,2.600000X3.100000*%
%TD*%
%TA.AperFunction,SMDPad,CuDef*%
%ADD31RoundRect,0.243750X0.456250X-0.243750X0.456250X0.243750X-0.456250X0.243750X-0.456250X-0.243750X0*%
%TD*%
%TA.AperFunction,SMDPad,CuDef*%
%ADD32RoundRect,0.250000X0.450000X-0.262500X0.450000X0.262500X-0.450000X0.262500X-0.450000X-0.262500X0*%
%TD*%
%TA.AperFunction,SMDPad,CuDef*%
%ADD33RoundRect,0.250000X0.475000X-0.250000X0.475000X0.250000X-0.475000X0.250000X-0.475000X-0.250000X0*%
%TD*%
%TA.AperFunction,SMDPad,CuDef*%
%ADD34RoundRect,0.150000X0.587500X0.150000X-0.587500X0.150000X-0.587500X-0.150000X0.587500X-0.150000X0*%
%TD*%
%TA.AperFunction,SMDPad,CuDef*%
%ADD35RoundRect,0.250000X0.325000X0.650000X-0.325000X0.650000X-0.325000X-0.650000X0.325000X-0.650000X0*%
%TD*%
%TA.AperFunction,SMDPad,CuDef*%
%ADD36RoundRect,0.250000X0.262500X0.450000X-0.262500X0.450000X-0.262500X-0.450000X0.262500X-0.450000X0*%
%TD*%
%TA.AperFunction,SMDPad,CuDef*%
%ADD37RoundRect,0.062500X-0.117500X-0.062500X0.117500X-0.062500X0.117500X0.062500X-0.117500X0.062500X0*%
%TD*%
%TA.AperFunction,ComponentPad*%
%ADD38R,1.700000X1.700000*%
%TD*%
%TA.AperFunction,ComponentPad*%
%ADD39C,1.700000*%
%TD*%
%TA.AperFunction,ViaPad*%
%ADD40C,0.500000*%
%TD*%
%TA.AperFunction,ViaPad*%
%ADD41C,0.250000*%
%TD*%
%TA.AperFunction,Conductor*%
%ADD42C,0.200000*%
%TD*%
G04 APERTURE END LIST*
D10*
%TO.P,D1,1,A1*%
%TO.N,GND*%
X115600000Y-83100000D03*
%TO.P,D1,2,A2*%
%TO.N,Net-(D1-A2)*%
X115600000Y-82260000D03*
%TD*%
D11*
%TO.P,U1,1,A1*%
%TO.N,SIM_TX*%
X103400000Y-97700000D03*
D12*
%TO.P,U1,2,V_{CCA}*%
%TO.N,+1V8*%
X103000000Y-96800000D03*
%TO.P,U1,3,A2*%
%TO.N,SIM_RX*%
X102500000Y-96800000D03*
%TO.P,U1,4,A3*%
%TO.N,SIM_RTS*%
X102000000Y-96800000D03*
%TO.P,U1,5,A4*%
%TO.N,SIM_CTS*%
X101500000Y-96800000D03*
%TO.P,U1,6,A5*%
%TO.N,SIM_DTR*%
X101000000Y-96800000D03*
%TO.P,U1,7,A6*%
%TO.N,SIM_RI*%
X100500000Y-96800000D03*
%TO.P,U1,8,A7*%
%TO.N,unconnected-(U1-A7-Pad8)*%
X100000000Y-96800000D03*
%TO.P,U1,9,A8*%
%TO.N,unconnected-(U1-A8-Pad9)*%
X99500000Y-96800000D03*
D11*
%TO.P,U1,10,OE*%
%TO.N,unconnected-(U1-OE-Pad10)*%
X99100000Y-97700000D03*
%TO.P,U1,11,GND*%
%TO.N,GND*%
X99100000Y-99200000D03*
D12*
%TO.P,U1,12,B8*%
%TO.N,unconnected-(U1-B8-Pad12)*%
X99500000Y-100100000D03*
%TO.P,U1,13,B7*%
%TO.N,unconnected-(U1-B7-Pad13)*%
X100000000Y-100100000D03*
%TO.P,U1,14,B6*%
%TO.N,SIM7080G_RING*%
X100500000Y-100100000D03*
%TO.P,U1,15,B5*%
%TO.N,SIM7080G_DTR*%
X101000000Y-100100000D03*
%TO.P,U1,16,B4*%
%TO.N,Net-(JP3-A)*%
X101500000Y-100100000D03*
%TO.P,U1,17,B3*%
%TO.N,Net-(JP2-A)*%
X102000000Y-100100000D03*
%TO.P,U1,18,B2*%
%TO.N,SIM7080G_RX*%
X102500000Y-100100000D03*
%TO.P,U1,19,V_{CCB}*%
%TO.N,+3V3*%
X103000000Y-100100000D03*
D11*
%TO.P,U1,20,B1*%
%TO.N,SIM7080G_TX*%
X103400000Y-99200000D03*
D13*
%TO.P,U1,21,GND*%
%TO.N,GND*%
X101250000Y-98450000D03*
%TD*%
D14*
%TO.P,R1,1*%
%TO.N,+3V3*%
X115600000Y-78600000D03*
%TO.P,R1,2*%
%TO.N,Net-(D1-A2)*%
X115600000Y-80425000D03*
%TD*%
%TO.P,R5,1*%
%TO.N,SIM_DATA*%
X110200000Y-103832500D03*
%TO.P,R5,2*%
%TO.N,Net-(U3-I{slash}O)*%
X110200000Y-105657500D03*
%TD*%
D15*
%TO.P,Q2,1,C*%
%TO.N,PWRKEY*%
X93462500Y-93650000D03*
%TO.P,Q2,2,B*%
%TO.N,Net-(Q2-B)*%
X93462500Y-95550000D03*
%TO.P,Q2,3,E*%
%TO.N,GND*%
X95337500Y-94600000D03*
%TD*%
D14*
%TO.P,R3,1*%
%TO.N,SIM_RST*%
X107960000Y-99287500D03*
%TO.P,R3,2*%
%TO.N,Net-(U3-RST)*%
X107960000Y-101112500D03*
%TD*%
D16*
%TO.P,C6,1*%
%TO.N,GND*%
X105800000Y-99250000D03*
%TO.P,C6,2*%
%TO.N,Net-(U3-RST)*%
X105800000Y-101150000D03*
%TD*%
D17*
%TO.P,R7,1*%
%TO.N,Net-(Q1-C)*%
X97775000Y-72400000D03*
%TO.P,R7,2*%
%TO.N,Net-(D3-K)*%
X99600000Y-72400000D03*
%TD*%
D18*
%TO.P,D2,1,K*%
%TO.N,SIM_VDD*%
X111950000Y-99325000D03*
%TO.P,D2,2,A*%
%TO.N,GND*%
X111000000Y-99325000D03*
%TO.P,D2,3,K*%
%TO.N,SIM_RST*%
X110050000Y-99325000D03*
%TO.P,D2,4,K*%
%TO.N,SIM_CLK*%
X110050000Y-101600000D03*
%TO.P,D2,5,K*%
%TO.N,SIM_DATA*%
X111950000Y-101600000D03*
%TD*%
D19*
%TO.P,C11,1*%
%TO.N,+3V3*%
X105100000Y-70300000D03*
%TO.P,C11,2*%
%TO.N,GND*%
X103200000Y-70300000D03*
%TD*%
D14*
%TO.P,R9,1*%
%TO.N,NETLIGHT*%
X115700000Y-86487500D03*
%TO.P,R9,2*%
%TO.N,Net-(Q3-B)*%
X115700000Y-88312500D03*
%TD*%
D20*
%TO.P,C5,1*%
%TO.N,GND*%
X99600000Y-105700000D03*
%TO.P,C5,2*%
%TO.N,SIM_VDD*%
X101500000Y-105700000D03*
%TD*%
D14*
%TO.P,R4,1*%
%TO.N,SIM_CLK*%
X108000000Y-103832500D03*
%TO.P,R4,2*%
%TO.N,Net-(U3-CLK)*%
X108000000Y-105657500D03*
%TD*%
D19*
%TO.P,C1,1*%
%TO.N,GND*%
X107250000Y-96800000D03*
%TO.P,C1,2*%
%TO.N,+1V8*%
X105350000Y-96800000D03*
%TD*%
D21*
%TO.P,U3,1,VCC*%
%TO.N,SIM_VDD*%
X102030000Y-107902500D03*
%TO.P,U3,2,RST*%
%TO.N,Net-(U3-RST)*%
X104570000Y-107902500D03*
%TO.P,U3,3,CLK*%
%TO.N,Net-(U3-CLK)*%
X107110000Y-107902500D03*
%TO.P,U3,5,GND*%
%TO.N,GND*%
X103300000Y-107902500D03*
%TO.P,U3,6,VPP*%
%TO.N,unconnected-(U3-VPP-Pad6)*%
X105840000Y-107902500D03*
%TO.P,U3,7,I/O*%
%TO.N,Net-(U3-I{slash}O)*%
X108380000Y-107902500D03*
D22*
%TO.P,U3,8,GND*%
%TO.N,GND*%
X99350000Y-112002500D03*
%TO.P,U3,9,GND*%
X99350000Y-120802500D03*
%TO.P,U3,10,GND*%
X111050000Y-120802500D03*
%TO.P,U3,11,GND*%
X111050000Y-112002500D03*
%TD*%
D23*
%TO.P,J4,1,In*%
%TO.N,RF_ANT*%
X114200000Y-67650000D03*
D24*
%TO.P,J4,2,Ext*%
%TO.N,GND*%
X115675000Y-69175000D03*
X112725000Y-69175000D03*
%TD*%
D19*
%TO.P,C3,1*%
%TO.N,GND*%
X103850000Y-72900000D03*
%TO.P,C3,2*%
%TO.N,+1V8*%
X101950000Y-72900000D03*
%TD*%
D16*
%TO.P,C8,1*%
%TO.N,GND*%
X112400000Y-103775000D03*
%TO.P,C8,2*%
%TO.N,Net-(U3-I{slash}O)*%
X112400000Y-105675000D03*
%TD*%
D25*
%TO.P,U2,1,UART1_TXD*%
%TO.N,SIM_TX*%
X96750000Y-78450000D03*
%TO.P,U2,2,UART1_RXD*%
%TO.N,SIM_RX*%
X96750000Y-79550000D03*
%TO.P,U2,3,UART1_RTS*%
%TO.N,SIM_RTS*%
X96750000Y-80650000D03*
%TO.P,U2,4,UART1_CTS*%
%TO.N,SIM_CTS*%
X96750000Y-81750000D03*
%TO.P,U2,5,UART1_DCD*%
%TO.N,unconnected-(U2-UART1_DCD-Pad5)*%
X96750000Y-82850000D03*
%TO.P,U2,6,UART1_DTR*%
%TO.N,SIM_DTR*%
X96750000Y-83950000D03*
%TO.P,U2,7,UART1_RI*%
%TO.N,SIM_RI*%
X96750000Y-85050000D03*
%TO.P,U2,8,GND*%
%TO.N,GND*%
X96750000Y-86150000D03*
%TO.P,U2,9,PCM_DIN*%
%TO.N,unconnected-(U2-PCM_DIN-Pad9)*%
X96750000Y-87250000D03*
%TO.P,U2,10,PCM_DOUT*%
%TO.N,unconnected-(U2-PCM_DOUT-Pad10)*%
X96750000Y-88350000D03*
%TO.P,U2,11,PCM_CLK*%
%TO.N,unconnected-(U2-PCM_CLK-Pad11)*%
X96750000Y-89450000D03*
%TO.P,U2,12,PCM_SYNC*%
%TO.N,unconnected-(U2-PCM_SYNC-Pad12)*%
X96750000Y-90550000D03*
D26*
%TO.P,U2,13,GND__1*%
%TO.N,GND*%
X100200000Y-93300000D03*
%TO.P,U2,14,GPIO5*%
%TO.N,unconnected-(U2-GPIO5-Pad14)*%
X101300000Y-93300000D03*
%TO.P,U2,15,SIM_DATA*%
%TO.N,SIM_DATA*%
X102400000Y-93300000D03*
%TO.P,U2,16,SIM_CLK*%
%TO.N,SIM_CLK*%
X103500000Y-93300000D03*
%TO.P,U2,17,SIM_RST*%
%TO.N,SIM_RST*%
X104600000Y-93300000D03*
%TO.P,U2,18,SIM_VDD*%
%TO.N,SIM_VDD*%
X105700000Y-93300000D03*
%TO.P,U2,19,GND__2*%
%TO.N,GND*%
X106800000Y-93300000D03*
%TO.P,U2,20,USB_BOOT*%
%TO.N,Net-(JP1-B)*%
X107900000Y-93300000D03*
%TO.P,U2,21,GND__3*%
%TO.N,GND*%
X109000000Y-93300000D03*
D25*
%TO.P,U2,22,UART2_TXD*%
%TO.N,unconnected-(U2-UART2_TXD-Pad22)*%
X112450000Y-90550000D03*
%TO.P,U2,23,UART2_RXD*%
%TO.N,unconnected-(U2-UART2_RXD-Pad23)*%
X112450000Y-89450000D03*
%TO.P,U2,24,USB_VBUS*%
%TO.N,unconnected-(U2-USB_VBUS-Pad24)*%
X112450000Y-88350000D03*
%TO.P,U2,25,USB_DP*%
%TO.N,unconnected-(U2-USB_DP-Pad25)*%
X112450000Y-87250000D03*
%TO.P,U2,26,USB_DM*%
%TO.N,unconnected-(U2-USB_DM-Pad26)*%
X112450000Y-86150000D03*
%TO.P,U2,27,GND__4*%
%TO.N,GND*%
X112450000Y-85050000D03*
%TO.P,U2,28*%
%TO.N,N/C*%
X112450000Y-83950000D03*
%TO.P,U2,29*%
X112450000Y-82850000D03*
%TO.P,U2,30,GND__5*%
%TO.N,GND*%
X112450000Y-81750000D03*
%TO.P,U2,31,GND__6*%
X112450000Y-80650000D03*
%TO.P,U2,32,RF_ANT*%
%TO.N,RF_ANT*%
X112450000Y-79550000D03*
%TO.P,U2,33,GND__7*%
%TO.N,GND*%
X112450000Y-78450000D03*
D26*
%TO.P,U2,34,VBAT*%
%TO.N,+3V3*%
X109000000Y-75700000D03*
%TO.P,U2,35,VBAT__1*%
X107900000Y-75700000D03*
%TO.P,U2,36,GND__8*%
%TO.N,GND*%
X106800000Y-75700000D03*
%TO.P,U2,37,GND__9*%
X105700000Y-75700000D03*
%TO.P,U2,38,ADC*%
%TO.N,unconnected-(U2-ADC-Pad38)*%
X104600000Y-75700000D03*
%TO.P,U2,39,PWRKEY*%
%TO.N,PWRKEY*%
X103500000Y-75700000D03*
%TO.P,U2,40,VDD_EXT*%
%TO.N,+1V8*%
X102400000Y-75700000D03*
%TO.P,U2,41,NETLIGHT*%
%TO.N,NETLIGHT*%
X101300000Y-75700000D03*
%TO.P,U2,42,STATUS*%
%TO.N,STATUS*%
X100200000Y-75700000D03*
D27*
%TO.P,U2,43,ANT_CONTROL1*%
%TO.N,unconnected-(U2-ANT_CONTROL1-Pad43)*%
X99250000Y-79600000D03*
%TO.P,U2,44,ANT_CONTROL0*%
%TO.N,unconnected-(U2-ANT_CONTROL0-Pad44)*%
X99250000Y-81000000D03*
%TO.P,U2,45,GND__10*%
%TO.N,GND*%
X99250000Y-82400000D03*
%TO.P,U2,46*%
%TO.N,N/C*%
X99250000Y-83800000D03*
%TO.P,U2,47*%
X99250000Y-85200000D03*
%TO.P,U2,48,SPI_CS*%
%TO.N,unconnected-(U2-SPI_CS-Pad48)*%
X99250000Y-86600000D03*
%TO.P,U2,49,SPI_MOSI*%
%TO.N,unconnected-(U2-SPI_MOSI-Pad49)*%
X99250000Y-88000000D03*
%TO.P,U2,50,SPI_CLK*%
%TO.N,unconnected-(U2-SPI_CLK-Pad50)*%
X99250000Y-89400000D03*
D28*
%TO.P,U2,51,SPI_MISO*%
%TO.N,unconnected-(U2-SPI_MISO-Pad51)*%
X100400000Y-90800000D03*
%TO.P,U2,52*%
%TO.N,N/C*%
X101800000Y-90800000D03*
%TO.P,U2,53*%
X103200000Y-90800000D03*
%TO.P,U2,54*%
X104600000Y-90800000D03*
%TO.P,U2,55*%
X106000000Y-90800000D03*
%TO.P,U2,56*%
X107400000Y-90800000D03*
%TO.P,U2,57,GPIO1*%
%TO.N,unconnected-(U2-GPIO1-Pad57)*%
X108800000Y-90800000D03*
D27*
%TO.P,U2,58,GPIO2*%
%TO.N,unconnected-(U2-GPIO2-Pad58)*%
X109950000Y-89400000D03*
%TO.P,U2,59,GPIO3*%
%TO.N,unconnected-(U2-GPIO3-Pad59)*%
X109950000Y-88000000D03*
%TO.P,U2,60,GPIO4*%
%TO.N,unconnected-(U2-GPIO4-Pad60)*%
X109950000Y-86600000D03*
%TO.P,U2,61,UART3_TXD*%
%TO.N,unconnected-(U2-UART3_TXD-Pad61)*%
X109950000Y-85200000D03*
%TO.P,U2,62,UART3_RXD*%
%TO.N,unconnected-(U2-UART3_RXD-Pad62)*%
X109950000Y-83800000D03*
D28*
%TO.P,U2,63,GND__11*%
%TO.N,GND*%
X107400000Y-78200000D03*
%TO.P,U2,64,I2C_SDA*%
%TO.N,unconnected-(U2-I2C_SDA-Pad64)*%
X106000000Y-78200000D03*
%TO.P,U2,65,I2C_SCL*%
%TO.N,unconnected-(U2-I2C_SCL-Pad65)*%
X104600000Y-78200000D03*
%TO.P,U2,66,GND__12*%
%TO.N,GND*%
X103200000Y-78200000D03*
%TO.P,U2,67,GND__13*%
X101800000Y-78200000D03*
%TO.P,U2,68,GNSS_ANT*%
%TO.N,GNSS_ANT*%
X100400000Y-78200000D03*
D29*
%TO.P,U2,69,GND__14*%
%TO.N,GND*%
X101700000Y-81100000D03*
D30*
%TO.P,U2,70,GND__15*%
X101700000Y-84500000D03*
%TO.P,U2,71,GND__16*%
X101700000Y-87900000D03*
%TO.P,U2,72,GND__17*%
X104600000Y-87900000D03*
%TO.P,U2,73,GND__18*%
X107500000Y-87900000D03*
%TO.P,U2,74,GND__19*%
X107500000Y-84500000D03*
%TO.P,U2,75,GND__20*%
X107500000Y-81100000D03*
%TO.P,U2,76,GND__21*%
X104600000Y-81100000D03*
%TO.P,U2,77,GND__22*%
X104600000Y-84500000D03*
%TD*%
D31*
%TO.P,D4,1,K*%
%TO.N,Net-(D4-K)*%
X111400000Y-97137500D03*
%TO.P,D4,2,A*%
%TO.N,+3V3*%
X111400000Y-95262500D03*
%TD*%
D32*
%TO.P,R2,1*%
%TO.N,STATUS*%
X93600000Y-82812500D03*
%TO.P,R2,2*%
%TO.N,Net-(Q1-B)*%
X93600000Y-80987500D03*
%TD*%
D23*
%TO.P,J1,1,In*%
%TO.N,GNSS_ANT*%
X95200000Y-67650000D03*
D24*
%TO.P,J1,2,Ext*%
%TO.N,GND*%
X96675000Y-69175000D03*
X93725000Y-69175000D03*
%TD*%
D33*
%TO.P,C2,1*%
%TO.N,GND*%
X103400000Y-103850000D03*
%TO.P,C2,2*%
%TO.N,+3V3*%
X103400000Y-101950000D03*
%TD*%
D34*
%TO.P,Q3,1,C*%
%TO.N,Net-(Q3-C)*%
X115737500Y-95850000D03*
%TO.P,Q3,2,B*%
%TO.N,Net-(Q3-B)*%
X115737500Y-93950000D03*
%TO.P,Q3,3,E*%
%TO.N,GND*%
X113862500Y-94900000D03*
%TD*%
D20*
%TO.P,C12,1*%
%TO.N,+3V3*%
X107000000Y-68100000D03*
%TO.P,C12,2*%
%TO.N,GND*%
X108900000Y-68100000D03*
%TD*%
D35*
%TO.P,C9,1*%
%TO.N,+3V3*%
X108775000Y-72800000D03*
%TO.P,C9,2*%
%TO.N,GND*%
X105825000Y-72800000D03*
%TD*%
D32*
%TO.P,R8,1*%
%TO.N,SIM7080G_PWR*%
X96900000Y-106212500D03*
%TO.P,R8,2*%
%TO.N,Net-(Q2-B)*%
X96900000Y-104387500D03*
%TD*%
D15*
%TO.P,Q1,1,C*%
%TO.N,Net-(Q1-C)*%
X93962500Y-73050000D03*
%TO.P,Q1,2,B*%
%TO.N,Net-(Q1-B)*%
X93962500Y-74950000D03*
%TO.P,Q1,3,E*%
%TO.N,GND*%
X95837500Y-74000000D03*
%TD*%
D36*
%TO.P,R12,1*%
%TO.N,Net-(Q3-C)*%
X115912500Y-98000000D03*
%TO.P,R12,2*%
%TO.N,Net-(D4-K)*%
X114087500Y-98000000D03*
%TD*%
D32*
%TO.P,R11,1*%
%TO.N,Net-(Q2-B)*%
X96900000Y-102412500D03*
%TO.P,R11,2*%
%TO.N,GND*%
X96900000Y-100587500D03*
%TD*%
D31*
%TO.P,D3,1,K*%
%TO.N,Net-(D3-K)*%
X99900000Y-70137500D03*
%TO.P,D3,2,A*%
%TO.N,+3V3*%
X99900000Y-68262500D03*
%TD*%
D20*
%TO.P,C10,1*%
%TO.N,+3V3*%
X107000000Y-70300000D03*
%TO.P,C10,2*%
%TO.N,GND*%
X108900000Y-70300000D03*
%TD*%
D32*
%TO.P,R6,1*%
%TO.N,Net-(Q1-B)*%
X93600000Y-78912500D03*
%TO.P,R6,2*%
%TO.N,GND*%
X93600000Y-77087500D03*
%TD*%
D37*
%TO.P,D5,1,A1*%
%TO.N,GND*%
X94200000Y-91700000D03*
%TO.P,D5,2,A2*%
%TO.N,PWRKEY*%
X93360000Y-91700000D03*
%TD*%
D16*
%TO.P,C7,1*%
%TO.N,GND*%
X105800000Y-103775000D03*
%TO.P,C7,2*%
%TO.N,Net-(U3-CLK)*%
X105800000Y-105675000D03*
%TD*%
D19*
%TO.P,C13,1*%
%TO.N,+3V3*%
X105100000Y-68100000D03*
%TO.P,C13,2*%
%TO.N,GND*%
X103200000Y-68100000D03*
%TD*%
D32*
%TO.P,R10,1*%
%TO.N,Net-(Q3-B)*%
X115700000Y-92012500D03*
%TO.P,R10,2*%
%TO.N,GND*%
X115700000Y-90187500D03*
%TD*%
D38*
%TO.P,J2,1,Pin_1*%
%TO.N,SIM7080G_DTR*%
X93300000Y-101510000D03*
D39*
%TO.P,J2,2,Pin_2*%
%TO.N,SIM7080G_PWR*%
X93300000Y-104050000D03*
%TO.P,J2,3,Pin_3*%
%TO.N,SIM7080G_RTS*%
X93300000Y-106590000D03*
%TO.P,J2,4,Pin_4*%
%TO.N,unconnected-(J2-Pin_4-Pad4)*%
X93300000Y-109130000D03*
%TO.P,J2,5,Pin_5*%
%TO.N,unconnected-(J2-Pin_5-Pad5)*%
X93300000Y-111670000D03*
%TO.P,J2,6,Pin_6*%
%TO.N,unconnected-(J2-Pin_6-Pad6)*%
X93300000Y-114210000D03*
%TO.P,J2,7,Pin_7*%
%TO.N,+3V3*%
X93300000Y-116750000D03*
%TO.P,J2,8,Pin_8*%
%TO.N,GND*%
X93300000Y-119290000D03*
%TD*%
D38*
%TO.P,J3,1,Pin_1*%
%TO.N,SIM7080G_RING*%
X116160000Y-101510000D03*
D39*
%TO.P,J3,2,Pin_2*%
%TO.N,SIM7080G_CTS*%
X116160000Y-104050000D03*
%TO.P,J3,3,Pin_3*%
%TO.N,SIM7080G_TX*%
X116160000Y-106590000D03*
%TO.P,J3,4,Pin_4*%
%TO.N,SIM7080G_RX*%
X116160000Y-109130000D03*
%TO.P,J3,5,Pin_5*%
%TO.N,unconnected-(J3-Pin_5-Pad5)*%
X116160000Y-111670000D03*
%TO.P,J3,6,Pin_6*%
%TO.N,unconnected-(J3-Pin_6-Pad6)*%
X116160000Y-114210000D03*
%TO.P,J3,7,Pin_7*%
%TO.N,unconnected-(J3-Pin_7-Pad7)*%
X116160000Y-116750000D03*
%TO.P,J3,8,Pin_8*%
%TO.N,GND*%
X116160000Y-119290000D03*
%TD*%
D40*
%TO.N,GND*%
X101800000Y-78200000D03*
X101700000Y-87900000D03*
X96900000Y-100587500D03*
X103200000Y-70300000D03*
X94200000Y-91700000D03*
X93725000Y-69175000D03*
X107500000Y-81100000D03*
X112450000Y-80650000D03*
X103850000Y-72900000D03*
X108900000Y-70300000D03*
X103300000Y-107902500D03*
X100200000Y-93300000D03*
X105825000Y-72800000D03*
X105800000Y-103775000D03*
X111000000Y-99325000D03*
X99350000Y-120802500D03*
X106800000Y-93300000D03*
X107400000Y-78200000D03*
X99300000Y-98400000D03*
X107500000Y-84500000D03*
X95837500Y-74000000D03*
X108900000Y-68100000D03*
X113862500Y-94900000D03*
X112450000Y-78450000D03*
X105300000Y-98671000D03*
X111050000Y-112002500D03*
X107700000Y-96100000D03*
X112400000Y-103775000D03*
X104600000Y-87900000D03*
X111050000Y-120802500D03*
X101700000Y-81100000D03*
X105700000Y-75700000D03*
X96750000Y-86150000D03*
X112450000Y-85050000D03*
X96675000Y-69175000D03*
X115600000Y-83100000D03*
X99600000Y-105700000D03*
X95337500Y-94600000D03*
X104600000Y-81100000D03*
X115700000Y-90187500D03*
X109000000Y-93300000D03*
X112725000Y-69175000D03*
X101700000Y-84500000D03*
X93600000Y-77087500D03*
X103200000Y-68100000D03*
X99350000Y-112002500D03*
X107500000Y-87900000D03*
X104600000Y-84500000D03*
X103400000Y-103850000D03*
X99250000Y-82400000D03*
X115675000Y-69175000D03*
%TO.N,+1V8*%
X105000000Y-95900000D03*
X102300000Y-74100000D03*
X103000000Y-94400000D03*
X102300000Y-75100000D03*
X103000000Y-92200000D03*
X102500000Y-95500000D03*
%TO.N,+3V3*%
X103100000Y-100200000D03*
X109800000Y-92600000D03*
X101100000Y-107200000D03*
X104600000Y-94600000D03*
X109900000Y-76300000D03*
X103100000Y-102300000D03*
X114100000Y-76300000D03*
X110900000Y-76300000D03*
%TO.N,SIM_VDD*%
X102300000Y-105700000D03*
X111800000Y-99300000D03*
X103600000Y-106200000D03*
X111200000Y-92500000D03*
%TO.N,Net-(U3-RST)*%
X105400000Y-101600000D03*
X104700000Y-102300000D03*
%TO.N,Net-(D1-A2)*%
X115500000Y-84900000D03*
%TO.N,SIM_CLK*%
X108300000Y-102500000D03*
X111200000Y-102300000D03*
X108800000Y-96600000D03*
X111700000Y-98100000D03*
X105100000Y-92200000D03*
X108300000Y-103500000D03*
%TO.N,SIM_DATA*%
X110800000Y-101100000D03*
X102500000Y-94800000D03*
X106700000Y-95300000D03*
X109300000Y-99600000D03*
X111500000Y-102900000D03*
X110800000Y-103600000D03*
%TO.N,SIM_RST*%
X109500000Y-99000000D03*
X108500000Y-99000000D03*
%TO.N,PWRKEY*%
X94300000Y-84500000D03*
X93500000Y-91800000D03*
X101900000Y-77200000D03*
X93500000Y-92800000D03*
%TO.N,GNSS_ANT*%
X100100000Y-77800000D03*
X98900000Y-76300000D03*
D41*
%TO.N,SIM7080G_DTR*%
X101000000Y-100100000D03*
D40*
X100200000Y-100900000D03*
%TO.N,SIM7080G_RTS*%
X103800000Y-104900000D03*
%TO.N,SIM7080G_RING*%
X106600000Y-104700000D03*
X111100000Y-104700000D03*
X103000000Y-105000000D03*
%TO.N,SIM7080G_TX*%
X106600000Y-94600000D03*
X103500000Y-98300000D03*
X114800000Y-101900000D03*
%TO.N,SIM7080G_CTS*%
X107100000Y-100200000D03*
%TO.N,Net-(JP1-B)*%
X114500000Y-86700000D03*
D41*
%TO.N,Net-(JP2-A)*%
X102000000Y-100100000D03*
D40*
%TO.N,Net-(JP3-A)*%
X103600000Y-102900000D03*
%TO.N,Net-(Q2-B)*%
X96900000Y-103700000D03*
X96900000Y-102700000D03*
%TO.N,NETLIGHT*%
X111400000Y-83400000D03*
X113500000Y-83400000D03*
%TO.N,SIM_DTR*%
X100000000Y-95000000D03*
X101000000Y-95000000D03*
%TO.N,SIM_TX*%
X97900000Y-84600000D03*
X104000000Y-94400000D03*
%TO.N,SIM_RX*%
X94300000Y-83800000D03*
X95100000Y-81600000D03*
X102500000Y-96200000D03*
X99500000Y-96100000D03*
%TO.N,SIM_CTS*%
X101400000Y-95900000D03*
X100000000Y-95700000D03*
%TO.N,SIM_RTS*%
X97900000Y-94400000D03*
X100800000Y-94400000D03*
%TD*%
D42*
%TO.N,GND*%
X101100000Y-98400000D02*
X101200000Y-98400000D01*
X99600000Y-98400000D02*
X99700000Y-98400000D01*
X112400000Y-81100000D02*
X112400000Y-81200000D01*
X112400000Y-81600000D02*
X112400000Y-81700000D01*
X112450000Y-80650000D02*
X112400000Y-80600000D01*
X100700000Y-98400000D02*
X100800000Y-98400000D01*
X99700000Y-98400000D02*
X99800000Y-98400000D01*
X106300000Y-75700000D02*
X106400000Y-75700000D01*
X112400000Y-81800000D02*
X112450000Y-81750000D01*
X99500000Y-98400000D02*
X99600000Y-98400000D01*
X102500000Y-78200000D02*
X102600000Y-78200000D01*
X99400000Y-98400000D02*
X99500000Y-98400000D01*
X103000000Y-78200000D02*
X103100000Y-78200000D01*
X99200000Y-98500000D02*
X99100000Y-98600000D01*
X100300000Y-98400000D02*
X100400000Y-98400000D01*
X112400000Y-81500000D02*
X112400000Y-81600000D01*
X101800000Y-78200000D02*
X101900000Y-78200000D01*
X106700000Y-75700000D02*
X106800000Y-75700000D01*
X102000000Y-78200000D02*
X102100000Y-78200000D01*
X102700000Y-78200000D02*
X102800000Y-78200000D01*
X102600000Y-78200000D02*
X102700000Y-78200000D01*
X100500000Y-98400000D02*
X100600000Y-98400000D01*
X99800000Y-98400000D02*
X99900000Y-98400000D01*
X112400000Y-81200000D02*
X112400000Y-81300000D01*
X102900000Y-78200000D02*
X103000000Y-78200000D01*
X99300000Y-98400000D02*
X99200000Y-98500000D01*
X100400000Y-98400000D02*
X100500000Y-98400000D01*
X112400000Y-81000000D02*
X112400000Y-81100000D01*
X99100000Y-98800000D02*
X99100000Y-98900000D01*
X99900000Y-98400000D02*
X100000000Y-98400000D01*
X101000000Y-98400000D02*
X101100000Y-98400000D01*
X102100000Y-78200000D02*
X102200000Y-78200000D01*
X102800000Y-78200000D02*
X102900000Y-78200000D01*
X101200000Y-98400000D02*
X101250000Y-98450000D01*
X105800000Y-75700000D02*
X105900000Y-75700000D01*
X112400000Y-81700000D02*
X112400000Y-81800000D01*
X105900000Y-75700000D02*
X106000000Y-75700000D01*
X112400000Y-80800000D02*
X112400000Y-80900000D01*
X106500000Y-75700000D02*
X106600000Y-75700000D01*
X112400000Y-80700000D02*
X112400000Y-80800000D01*
X100800000Y-98400000D02*
X100900000Y-98400000D01*
X100200000Y-98400000D02*
X100300000Y-98400000D01*
X102400000Y-78200000D02*
X102500000Y-78200000D01*
X112400000Y-80600000D02*
X112400000Y-80700000D01*
X105700000Y-75700000D02*
X105800000Y-75700000D01*
X112400000Y-81300000D02*
X112400000Y-81400000D01*
X100100000Y-98400000D02*
X100200000Y-98400000D01*
X100900000Y-98400000D02*
X101000000Y-98400000D01*
X102200000Y-78200000D02*
X102300000Y-78200000D01*
X112400000Y-80900000D02*
X112400000Y-81000000D01*
X99100000Y-98600000D02*
X99100000Y-98700000D01*
X99300000Y-98400000D02*
X99400000Y-98400000D01*
X99100000Y-98900000D02*
X99100000Y-99000000D01*
X102300000Y-78200000D02*
X102400000Y-78200000D01*
X112400000Y-81400000D02*
X112400000Y-81500000D01*
X106200000Y-75700000D02*
X106300000Y-75700000D01*
X99100000Y-99000000D02*
X99100000Y-99100000D01*
X106100000Y-75700000D02*
X106200000Y-75700000D01*
X106400000Y-75700000D02*
X106500000Y-75700000D01*
X101900000Y-78200000D02*
X102000000Y-78200000D01*
X99100000Y-99100000D02*
X99100000Y-99200000D01*
X100000000Y-98400000D02*
X100100000Y-98400000D01*
X106600000Y-75700000D02*
X106700000Y-75700000D01*
X103100000Y-78200000D02*
X103200000Y-78200000D01*
X100600000Y-98400000D02*
X100700000Y-98400000D01*
X99100000Y-98700000D02*
X99100000Y-98800000D01*
X106000000Y-75700000D02*
X106100000Y-75700000D01*
%TO.N,+1V8*%
X101000000Y-76800000D02*
X101100000Y-76900000D01*
X105400000Y-96800000D02*
X105350000Y-96800000D01*
X103000000Y-95500000D02*
X102500000Y-95500000D01*
X101100000Y-76900000D02*
X101500000Y-76900000D01*
X98400000Y-90000000D02*
X98400000Y-79000000D01*
X102300000Y-74100000D02*
X102000000Y-73800000D01*
X102000000Y-73800000D02*
X102000000Y-72900000D01*
X98400000Y-79000000D02*
X99600000Y-77800000D01*
X102000000Y-72900000D02*
X101950000Y-72900000D01*
X103000000Y-92200000D02*
X102500000Y-91700000D01*
X99600000Y-91200000D02*
X98400000Y-90000000D01*
X100400000Y-76800000D02*
X101000000Y-76800000D01*
X102400000Y-75700000D02*
X102100000Y-75400000D01*
X99600000Y-77600000D02*
X100400000Y-76800000D01*
X105400000Y-96300000D02*
X105400000Y-96800000D01*
X102100000Y-75300000D02*
X102300000Y-75100000D01*
X99600000Y-91400000D02*
X99600000Y-91200000D01*
X105000000Y-95900000D02*
X105400000Y-96300000D01*
X102100000Y-75400000D02*
X102100000Y-75300000D01*
X102500000Y-91700000D02*
X99900000Y-91700000D01*
X99600000Y-77800000D02*
X99600000Y-77600000D01*
X103000000Y-96800000D02*
X103000000Y-94400000D01*
X99900000Y-91700000D02*
X99600000Y-91400000D01*
X101500000Y-76900000D02*
X102400000Y-76000000D01*
X102400000Y-76000000D02*
X102400000Y-75700000D01*
%TO.N,+3V3*%
X104500000Y-68300000D02*
X103700000Y-69100000D01*
X103700000Y-99600000D02*
X104300000Y-99600000D01*
X107000000Y-68100000D02*
X105100000Y-68100000D01*
X111300000Y-93600000D02*
X114300000Y-90600000D01*
X104900000Y-68300000D02*
X104500000Y-68300000D01*
X99900000Y-68300000D02*
X99900000Y-68263000D01*
X104500000Y-99400000D02*
X104500000Y-94700000D01*
X116700000Y-79700000D02*
X115600000Y-78600000D01*
X105100000Y-68100000D02*
X104900000Y-68300000D01*
X109000000Y-75700000D02*
X107900000Y-75700000D01*
X110800000Y-74800000D02*
X108800000Y-72800000D01*
X100700000Y-69100000D02*
X99900000Y-68300000D01*
X103400000Y-101950000D02*
X103400000Y-102000000D01*
X94400000Y-113900000D02*
X94500000Y-114000000D01*
X110900000Y-76300000D02*
X110800000Y-76200000D01*
X103400000Y-102000000D02*
X103100000Y-102300000D01*
X107000000Y-71000000D02*
X107000000Y-70300000D01*
X101100000Y-107200000D02*
X94400000Y-113900000D01*
X114300000Y-87500000D02*
X114500000Y-87300000D01*
X107000000Y-70300000D02*
X105100000Y-70300000D01*
X111400000Y-94200000D02*
X111400000Y-95300000D01*
X111400000Y-95300000D02*
X111400000Y-95263000D01*
X116700000Y-87000000D02*
X116700000Y-79700000D01*
X103100000Y-100200000D02*
X103000000Y-100100000D01*
X116400000Y-87300000D02*
X116700000Y-87000000D01*
X108800000Y-72800000D02*
X108775000Y-72800000D01*
X107000000Y-70300000D02*
X107000000Y-68100000D01*
X114100000Y-77100000D02*
X114100000Y-76300000D01*
X109800000Y-92600000D02*
X111400000Y-94200000D01*
X109900000Y-76300000D02*
X109300000Y-75700000D01*
X110800000Y-76200000D02*
X110800000Y-74800000D01*
X115600000Y-78600000D02*
X114100000Y-77100000D01*
X114500000Y-87300000D02*
X116400000Y-87300000D01*
X103700000Y-69100000D02*
X100700000Y-69100000D01*
X94500000Y-115600000D02*
X93300000Y-116800000D01*
X108800000Y-72800000D02*
X107000000Y-71000000D01*
X94500000Y-114000000D02*
X94500000Y-115600000D01*
X114300000Y-90600000D02*
X114300000Y-87500000D01*
X110800000Y-93600000D02*
X111300000Y-93600000D01*
X104300000Y-99600000D02*
X104500000Y-99400000D01*
X104500000Y-94700000D02*
X104600000Y-94600000D01*
X103100000Y-100200000D02*
X103700000Y-99600000D01*
%TO.N,SIM_VDD*%
X102300000Y-105700000D02*
X101500000Y-105700000D01*
X105700000Y-93000000D02*
X107000000Y-91700000D01*
X105700000Y-93300000D02*
X105700000Y-93000000D01*
X103600000Y-106200000D02*
X102800000Y-107000000D01*
X110400000Y-91700000D02*
X111200000Y-92500000D01*
X102800000Y-107000000D02*
X102700000Y-107000000D01*
X107000000Y-91700000D02*
X110400000Y-91700000D01*
X112000000Y-99300000D02*
X111950000Y-99325000D01*
X102000000Y-107700000D02*
X102000000Y-107900000D01*
X102700000Y-107000000D02*
X102000000Y-107700000D01*
X111800000Y-99300000D02*
X112000000Y-99300000D01*
X102000000Y-107900000D02*
X102030000Y-107903000D01*
%TO.N,Net-(U3-RST)*%
X104600000Y-102400000D02*
X104600000Y-107900000D01*
X105800000Y-101200000D02*
X105400000Y-101600000D01*
X104700000Y-102300000D02*
X104600000Y-102400000D01*
X104600000Y-107900000D02*
X104570000Y-107903000D01*
X105800000Y-101150000D02*
X105800000Y-101200000D01*
X105800000Y-101200000D02*
X105900000Y-101100000D01*
X105900000Y-101100000D02*
X108000000Y-101100000D01*
X108000000Y-101100000D02*
X107960000Y-101112000D01*
%TO.N,Net-(U3-CLK)*%
X107100000Y-106600000D02*
X107100000Y-107900000D01*
X106200000Y-105700000D02*
X105800000Y-105700000D01*
X107100000Y-106600000D02*
X106200000Y-105700000D01*
X108000000Y-105700000D02*
X107100000Y-106600000D01*
X108000000Y-105657000D02*
X108000000Y-105700000D01*
X105800000Y-105700000D02*
X105800000Y-105675000D01*
%TO.N,Net-(U3-I{slash}O)*%
X112400000Y-105700000D02*
X112400000Y-105675000D01*
X110200000Y-105657000D02*
X110200000Y-105700000D01*
X108400000Y-107900000D02*
X108380000Y-107903000D01*
X108400000Y-107500000D02*
X108400000Y-107900000D01*
X110200000Y-105700000D02*
X108400000Y-107500000D01*
X110200000Y-105700000D02*
X112400000Y-105700000D01*
%TO.N,Net-(D1-A2)*%
X115000000Y-84400000D02*
X115500000Y-84900000D01*
X115600000Y-80400000D02*
X115600000Y-80425000D01*
X115000000Y-82900000D02*
X115000000Y-84400000D01*
X115600000Y-82300000D02*
X115000000Y-82900000D01*
X115600000Y-82260000D02*
X115600000Y-82300000D01*
X115600000Y-82300000D02*
X115600000Y-80400000D01*
%TO.N,SIM_CLK*%
X111700000Y-98100000D02*
X109000000Y-98100000D01*
X110000000Y-101600000D02*
X109100000Y-102500000D01*
X109100000Y-102500000D02*
X108300000Y-102500000D01*
X108300000Y-103500000D02*
X108000000Y-103800000D01*
X110050000Y-101600000D02*
X110000000Y-101600000D01*
X109000000Y-98100000D02*
X108800000Y-97900000D01*
X108000000Y-103800000D02*
X108000000Y-103832000D01*
X103500000Y-93000000D02*
X103500000Y-93300000D01*
X105100000Y-92200000D02*
X104300000Y-92200000D01*
X110000000Y-101600000D02*
X110500000Y-101600000D01*
X110500000Y-101600000D02*
X111200000Y-102300000D01*
X104300000Y-92200000D02*
X103500000Y-93000000D01*
X108800000Y-97900000D02*
X108800000Y-96600000D01*
%TO.N,SIM_DATA*%
X102400000Y-94700000D02*
X102400000Y-93300000D01*
X109300000Y-99600000D02*
X109000000Y-99300000D01*
X111800000Y-102500000D02*
X111500000Y-102800000D01*
X110800000Y-103600000D02*
X110600000Y-103800000D01*
X109000000Y-98800000D02*
X108300000Y-98100000D01*
X108300000Y-98100000D02*
X108300000Y-95900000D01*
X107400000Y-95000000D02*
X107100000Y-95000000D01*
X112000000Y-101600000D02*
X111700000Y-101900000D01*
X107100000Y-95000000D02*
X106800000Y-95300000D01*
X111800000Y-102200000D02*
X111800000Y-102500000D01*
X109000000Y-99300000D02*
X109000000Y-98800000D01*
X111950000Y-101600000D02*
X112000000Y-101600000D01*
X111700000Y-101900000D02*
X111700000Y-102100000D01*
X102500000Y-94800000D02*
X102400000Y-94700000D01*
X111700000Y-102100000D02*
X111800000Y-102200000D01*
X108300000Y-95900000D02*
X107400000Y-95000000D01*
X110600000Y-103800000D02*
X110200000Y-103800000D01*
X112000000Y-101600000D02*
X111500000Y-101100000D01*
X111500000Y-101100000D02*
X110800000Y-101100000D01*
X110200000Y-103800000D02*
X110200000Y-103832000D01*
%TO.N,SIM_RST*%
X108200000Y-99300000D02*
X108500000Y-99000000D01*
X109800000Y-99300000D02*
X110000000Y-99300000D01*
X110000000Y-99300000D02*
X110050000Y-99325000D01*
X104600000Y-93600000D02*
X104600000Y-93300000D01*
X106200000Y-95100000D02*
X105900000Y-94800000D01*
X107960000Y-99287000D02*
X108000000Y-99300000D01*
X109500000Y-99000000D02*
X109800000Y-99300000D01*
X108000000Y-99300000D02*
X108200000Y-99300000D01*
X106200000Y-97500000D02*
X106200000Y-95100000D01*
X108000000Y-99300000D02*
X106200000Y-97500000D01*
X105800000Y-94800000D02*
X104600000Y-93600000D01*
X105900000Y-94800000D02*
X105800000Y-94800000D01*
%TO.N,Net-(D3-K)*%
X99600000Y-72400000D02*
X99900000Y-72100000D01*
X99900000Y-70100000D02*
X99900000Y-70138000D01*
X99900000Y-72100000D02*
X99900000Y-70100000D01*
%TO.N,Net-(D4-K)*%
X111400000Y-97138000D02*
X111400000Y-97100000D01*
X111400000Y-97100000D02*
X112300000Y-98000000D01*
X112300000Y-98000000D02*
X114100000Y-98000000D01*
%TO.N,PWRKEY*%
X93360000Y-91700000D02*
X93400000Y-91700000D01*
X93400000Y-91700000D02*
X94400000Y-90700000D01*
X93400000Y-91700000D02*
X93500000Y-91800000D01*
X94400000Y-84600000D02*
X94300000Y-84500000D01*
X102300000Y-76800000D02*
X102700000Y-76800000D01*
X94400000Y-90700000D02*
X94400000Y-84600000D01*
X103500000Y-76000000D02*
X103500000Y-75700000D01*
X93500000Y-93600000D02*
X93463000Y-93650000D01*
X93500000Y-92800000D02*
X93500000Y-93600000D01*
X101900000Y-77200000D02*
X102300000Y-76800000D01*
X102700000Y-76800000D02*
X103500000Y-76000000D01*
%TO.N,GNSS_ANT*%
X97200000Y-74600000D02*
X97200000Y-74500000D01*
X97200000Y-74500000D02*
X98600000Y-73100000D01*
X97500000Y-69900000D02*
X97500000Y-68100000D01*
X95200000Y-67600000D02*
X95200000Y-67650000D01*
X97000000Y-67600000D02*
X95200000Y-67600000D01*
X98600000Y-73100000D02*
X98600000Y-71000000D01*
X97500000Y-68100000D02*
X97000000Y-67600000D01*
X98900000Y-76300000D02*
X97200000Y-74600000D01*
X98600000Y-71000000D02*
X97500000Y-69900000D01*
X100400000Y-78200000D02*
X100100000Y-77900000D01*
%TO.N,SIM7080G_DTR*%
X97600000Y-103200000D02*
X95000000Y-103200000D01*
X99600000Y-101500000D02*
X99300000Y-101500000D01*
X100200000Y-100900000D02*
X99600000Y-101500000D01*
X95000000Y-103200000D02*
X93300000Y-101500000D01*
X99300000Y-101500000D02*
X97600000Y-103200000D01*
%TO.N,SIM7080G_PWR*%
X94700000Y-104000000D02*
X93300000Y-104000000D01*
X96900000Y-106200000D02*
X94700000Y-104000000D01*
%TO.N,SIM7080G_RTS*%
X93700000Y-107000000D02*
X93300000Y-106600000D01*
X103800000Y-104900000D02*
X102000000Y-106700000D01*
X97900000Y-106700000D02*
X97600000Y-107000000D01*
X102000000Y-106700000D02*
X97900000Y-106700000D01*
X97600000Y-107000000D02*
X93700000Y-107000000D01*
%TO.N,SIM7080G_RING*%
X107000000Y-104300000D02*
X107400000Y-104700000D01*
X101100000Y-103100000D02*
X103000000Y-105000000D01*
X100500000Y-100400000D02*
X101100000Y-101000000D01*
X106600000Y-104700000D02*
X107000000Y-104300000D01*
X101100000Y-101000000D02*
X101100000Y-103100000D01*
X107400000Y-104700000D02*
X111100000Y-104700000D01*
%TO.N,SIM7080G_TX*%
X115100000Y-100400000D02*
X115000000Y-100500000D01*
X112000000Y-96300000D02*
X112700000Y-97000000D01*
X106600000Y-94600000D02*
X107500000Y-94600000D01*
X115000000Y-101700000D02*
X114800000Y-101900000D01*
X115000000Y-100500000D02*
X115000000Y-101700000D01*
X103400000Y-99200000D02*
X103400000Y-98400000D01*
X103400000Y-98400000D02*
X103500000Y-98300000D01*
X112700000Y-97000000D02*
X114600000Y-97000000D01*
X107500000Y-94600000D02*
X109200000Y-96300000D01*
X109200000Y-96300000D02*
X112000000Y-96300000D01*
X115100000Y-97500000D02*
X115100000Y-100400000D01*
X114600000Y-97000000D02*
X115100000Y-97500000D01*
%TO.N,SIM7080G_RX*%
X111900000Y-104800000D02*
X113000000Y-104800000D01*
X106200000Y-103000000D02*
X106300000Y-102900000D01*
X102500000Y-100400000D02*
X103300000Y-101200000D01*
X111300000Y-104200000D02*
X111900000Y-104800000D01*
X113000000Y-104800000D02*
X115000000Y-106800000D01*
X103800000Y-101200000D02*
X103900000Y-101100000D01*
X103900000Y-101100000D02*
X104600000Y-101100000D01*
X103300000Y-101200000D02*
X103800000Y-101200000D01*
X115000000Y-106800000D02*
X115000000Y-107900000D01*
X104600000Y-101100000D02*
X104800000Y-101300000D01*
X115000000Y-107900000D02*
X116200000Y-109100000D01*
X104800000Y-101700000D02*
X106100000Y-103000000D01*
X106300000Y-102900000D02*
X106400000Y-103000000D01*
X104800000Y-101300000D02*
X104800000Y-101700000D01*
X110900000Y-103000000D02*
X111300000Y-103400000D01*
X106400000Y-103000000D02*
X110900000Y-103000000D01*
X111300000Y-103400000D02*
X111300000Y-104200000D01*
X106100000Y-103000000D02*
X106200000Y-103000000D01*
%TO.N,SIM7080G_CTS*%
X112000000Y-100300000D02*
X107200000Y-100300000D01*
X116200000Y-104000000D02*
X114600000Y-102400000D01*
X112600000Y-102200000D02*
X112600000Y-100900000D01*
X112800000Y-102400000D02*
X112600000Y-102200000D01*
X112600000Y-100900000D02*
X112000000Y-100300000D01*
X107200000Y-100300000D02*
X107100000Y-100200000D01*
X114600000Y-102400000D02*
X112800000Y-102400000D01*
%TO.N,RF_ANT*%
X112700000Y-79600000D02*
X112400000Y-79600000D01*
X112400000Y-79600000D02*
X112450000Y-79550000D01*
X113600000Y-78700000D02*
X112700000Y-79600000D01*
X114200000Y-67650000D02*
X114200000Y-67600000D01*
X113600000Y-68200000D02*
X113600000Y-78700000D01*
X114200000Y-67600000D02*
X113600000Y-68200000D01*
%TO.N,Net-(JP1-B)*%
X108800000Y-92100000D02*
X107900000Y-93000000D01*
X107900000Y-93000000D02*
X107900000Y-93300000D01*
X111200000Y-93200000D02*
X110100000Y-92100000D01*
X113600000Y-90800000D02*
X111200000Y-93200000D01*
X110100000Y-92100000D02*
X108800000Y-92100000D01*
X114500000Y-86700000D02*
X113600000Y-87600000D01*
X113600000Y-87600000D02*
X113600000Y-90800000D01*
%TO.N,Net-(JP3-A)*%
X102800000Y-102900000D02*
X103600000Y-102900000D01*
X101500000Y-101600000D02*
X102800000Y-102900000D01*
X101500000Y-100100000D02*
X101500000Y-101600000D01*
%TO.N,Net-(Q1-B)*%
X93600000Y-78900000D02*
X94000000Y-78500000D01*
X93600000Y-78900000D02*
X93600000Y-81000000D01*
X94000000Y-75000000D02*
X93963000Y-74950000D01*
X94600000Y-75600000D02*
X94000000Y-75000000D01*
X94000000Y-78500000D02*
X94000000Y-78200000D01*
X94600000Y-77600000D02*
X94600000Y-75600000D01*
X94000000Y-78200000D02*
X94600000Y-77600000D01*
%TO.N,Net-(Q1-C)*%
X97800000Y-72400000D02*
X97200000Y-73000000D01*
X94000000Y-73000000D02*
X93963000Y-73050000D01*
X97775000Y-72400000D02*
X97800000Y-72400000D01*
X97200000Y-73000000D02*
X94000000Y-73000000D01*
%TO.N,Net-(Q2-B)*%
X95900000Y-101400000D02*
X96900000Y-102400000D01*
X93463000Y-95550000D02*
X93500000Y-95600000D01*
X95900000Y-100200000D02*
X95900000Y-101400000D01*
X96900000Y-99000000D02*
X95800000Y-100100000D01*
X96900000Y-103700000D02*
X96900000Y-104400000D01*
X95800000Y-100100000D02*
X95900000Y-100200000D01*
X93500000Y-95600000D02*
X96900000Y-99000000D01*
X96900000Y-102400000D02*
X96900000Y-102700000D01*
%TO.N,Net-(Q3-C)*%
X115700000Y-95800000D02*
X115900000Y-96000000D01*
X115900000Y-96000000D02*
X115900000Y-98000000D01*
X115737000Y-95850000D02*
X115700000Y-95800000D01*
%TO.N,Net-(Q3-B)*%
X115700000Y-94000000D02*
X115737000Y-93950000D01*
X114700000Y-89700000D02*
X114700000Y-91000000D01*
X115700000Y-92000000D02*
X115700000Y-94000000D01*
X115700000Y-88700000D02*
X114700000Y-89700000D01*
X115700000Y-88300000D02*
X115700000Y-88700000D01*
X114700000Y-91000000D02*
X115700000Y-92000000D01*
%TO.N,STATUS*%
X94600000Y-79100000D02*
X94600000Y-81800000D01*
X97000000Y-76800000D02*
X96500000Y-77300000D01*
X99100000Y-76800000D02*
X97000000Y-76800000D01*
X100200000Y-75700000D02*
X99100000Y-76800000D01*
X96500000Y-77300000D02*
X96400000Y-77300000D01*
X96400000Y-77300000D02*
X94600000Y-79100000D01*
X94600000Y-81800000D02*
X93600000Y-82800000D01*
%TO.N,NETLIGHT*%
X110400000Y-75700000D02*
X109300000Y-74600000D01*
X113600000Y-84400000D02*
X113600000Y-83500000D01*
X115700000Y-86500000D02*
X113600000Y-84400000D01*
X102100000Y-74600000D02*
X101300000Y-75400000D01*
X113600000Y-83500000D02*
X113500000Y-83400000D01*
X109300000Y-74600000D02*
X102100000Y-74600000D01*
X101300000Y-75400000D02*
X101300000Y-75700000D01*
X111400000Y-83400000D02*
X110400000Y-82400000D01*
X110400000Y-82400000D02*
X110400000Y-75700000D01*
%TO.N,SIM_DTR*%
X95600000Y-90800000D02*
X95600000Y-84800000D01*
X100900000Y-96700000D02*
X100900000Y-95100000D01*
X101000000Y-96800000D02*
X100900000Y-96700000D01*
X96000000Y-91200000D02*
X95600000Y-90800000D01*
X100000000Y-95000000D02*
X96200000Y-91200000D01*
X100900000Y-95100000D02*
X101000000Y-95000000D01*
X96200000Y-91200000D02*
X96000000Y-91200000D01*
X96400000Y-84000000D02*
X96800000Y-84000000D01*
X96800000Y-84000000D02*
X96750000Y-83950000D01*
X95600000Y-84800000D02*
X96400000Y-84000000D01*
%TO.N,SIM_TX*%
X97900000Y-84200000D02*
X97900000Y-79300000D01*
X103400000Y-97700000D02*
X103400000Y-95000000D01*
X97700000Y-84400000D02*
X97900000Y-84200000D01*
X97900000Y-79300000D02*
X97000000Y-78400000D01*
X97000000Y-78400000D02*
X96800000Y-78400000D01*
X103400000Y-95000000D02*
X104000000Y-94400000D01*
X97900000Y-84600000D02*
X97700000Y-84400000D01*
X96800000Y-78400000D02*
X96750000Y-78450000D01*
%TO.N,SIM_RX*%
X92900000Y-92000000D02*
X92900000Y-84000000D01*
X95200000Y-81200000D02*
X95600000Y-80800000D01*
X95600000Y-80400000D02*
X96400000Y-79600000D01*
X95000000Y-92300000D02*
X93200000Y-92300000D01*
X95600000Y-80800000D02*
X95600000Y-80400000D01*
X96400000Y-79600000D02*
X96800000Y-79600000D01*
X99500000Y-96100000D02*
X98400000Y-95000000D01*
X97700000Y-95000000D02*
X95000000Y-92300000D01*
X95100000Y-81600000D02*
X95200000Y-81500000D01*
X96800000Y-79600000D02*
X96750000Y-79550000D01*
X95200000Y-81500000D02*
X95200000Y-81200000D01*
X102500000Y-96800000D02*
X102400000Y-96700000D01*
X93100000Y-83800000D02*
X94300000Y-83800000D01*
X102400000Y-96700000D02*
X102400000Y-96300000D01*
X98400000Y-95000000D02*
X97700000Y-95000000D01*
X93200000Y-92300000D02*
X92900000Y-92000000D01*
X102400000Y-96300000D02*
X102500000Y-96200000D01*
X92900000Y-84000000D02*
X93100000Y-83800000D01*
%TO.N,SIM_RI*%
X100500000Y-94800000D02*
X100100000Y-94400000D01*
X100100000Y-94400000D02*
X99900000Y-94400000D01*
X97100000Y-91600000D02*
X97900000Y-90800000D01*
X100500000Y-96800000D02*
X100500000Y-94800000D01*
X97900000Y-90800000D02*
X97900000Y-85900000D01*
X96800000Y-85000000D02*
X96750000Y-85050000D01*
X97000000Y-85000000D02*
X96800000Y-85000000D01*
X99900000Y-94400000D02*
X97100000Y-91600000D01*
X97900000Y-85900000D02*
X97000000Y-85000000D01*
%TO.N,SIM_CTS*%
X99800000Y-95500000D02*
X99700000Y-95500000D01*
X101400000Y-96700000D02*
X101400000Y-95900000D01*
X96400000Y-81800000D02*
X96800000Y-81800000D01*
X95200000Y-83400000D02*
X95600000Y-83000000D01*
X100000000Y-95700000D02*
X99800000Y-95500000D01*
X101500000Y-96800000D02*
X101400000Y-96700000D01*
X99700000Y-95500000D02*
X95200000Y-91000000D01*
X95600000Y-83000000D02*
X95600000Y-82600000D01*
X96800000Y-81800000D02*
X96750000Y-81750000D01*
X95600000Y-82600000D02*
X96400000Y-81800000D01*
X95200000Y-91000000D02*
X95200000Y-83400000D01*
%TO.N,SIM_RTS*%
X96800000Y-80600000D02*
X96750000Y-80650000D01*
X94800000Y-91100000D02*
X94800000Y-82600000D01*
X96500000Y-80600000D02*
X96800000Y-80600000D01*
X102000000Y-96800000D02*
X102000000Y-94900000D01*
X95600000Y-81500000D02*
X96500000Y-80600000D01*
X101500000Y-94600000D02*
X101300000Y-94400000D01*
X95600000Y-81800000D02*
X95600000Y-81500000D01*
X96800000Y-93300000D02*
X96800000Y-93100000D01*
X101300000Y-94400000D02*
X100800000Y-94400000D01*
X97900000Y-94400000D02*
X96800000Y-93300000D01*
X96800000Y-93100000D02*
X94800000Y-91100000D01*
X102000000Y-94900000D02*
X101700000Y-94600000D01*
X101700000Y-94600000D02*
X101500000Y-94600000D01*
X94800000Y-82600000D02*
X95600000Y-81800000D01*
%TD*%
%TA.AperFunction,Conductor*%
%TO.N,GND*%
G36*
X113560002Y-105934967D02*
G01*
X113588406Y-105954799D01*
X114570504Y-106936897D01*
X114598281Y-106991414D01*
X114599500Y-107006901D01*
X114599500Y-107847273D01*
X114599500Y-107952727D01*
X114614264Y-108007828D01*
X114626794Y-108054592D01*
X114679516Y-108145908D01*
X114679520Y-108145913D01*
X115086193Y-108552587D01*
X115113970Y-108607103D01*
X115104401Y-108667531D01*
X115093788Y-108688360D01*
X115037828Y-108860593D01*
X115009500Y-109039450D01*
X115009500Y-109220549D01*
X115037828Y-109399406D01*
X115037829Y-109399409D01*
X115093789Y-109571639D01*
X115176004Y-109732994D01*
X115282447Y-109879501D01*
X115410499Y-110007553D01*
X115557006Y-110113996D01*
X115718361Y-110196211D01*
X115890591Y-110252171D01*
X115962136Y-110263502D01*
X116069451Y-110280500D01*
X116069454Y-110280500D01*
X116250549Y-110280500D01*
X116339977Y-110266335D01*
X116429409Y-110252171D01*
X116601639Y-110196211D01*
X116601642Y-110196209D01*
X116601646Y-110196208D01*
X116755555Y-110117787D01*
X116815987Y-110108215D01*
X116870503Y-110135992D01*
X116898281Y-110190509D01*
X116899500Y-110205996D01*
X116899500Y-110594003D01*
X116880593Y-110652194D01*
X116831093Y-110688158D01*
X116769907Y-110688158D01*
X116755555Y-110682213D01*
X116601637Y-110603788D01*
X116429406Y-110547828D01*
X116250549Y-110519500D01*
X116250546Y-110519500D01*
X116069454Y-110519500D01*
X116069451Y-110519500D01*
X115890593Y-110547828D01*
X115718362Y-110603788D01*
X115557008Y-110686002D01*
X115491667Y-110733475D01*
X115410499Y-110792447D01*
X115282447Y-110920499D01*
X115229225Y-110993752D01*
X115176002Y-111067008D01*
X115093788Y-111228362D01*
X115037828Y-111400593D01*
X115009500Y-111579450D01*
X115009500Y-111760549D01*
X115037828Y-111939406D01*
X115093788Y-112111637D01*
X115165561Y-112252500D01*
X115176004Y-112272994D01*
X115282447Y-112419501D01*
X115410499Y-112547553D01*
X115557006Y-112653996D01*
X115718361Y-112736211D01*
X115890591Y-112792171D01*
X115962136Y-112803502D01*
X116069451Y-112820500D01*
X116069454Y-112820500D01*
X116250549Y-112820500D01*
X116339977Y-112806335D01*
X116429409Y-112792171D01*
X116601639Y-112736211D01*
X116601642Y-112736209D01*
X116601646Y-112736208D01*
X116755555Y-112657787D01*
X116815987Y-112648215D01*
X116870503Y-112675992D01*
X116898281Y-112730509D01*
X116899500Y-112745996D01*
X116899500Y-113134003D01*
X116880593Y-113192194D01*
X116831093Y-113228158D01*
X116769907Y-113228158D01*
X116755555Y-113222213D01*
X116601637Y-113143788D01*
X116429406Y-113087828D01*
X116250549Y-113059500D01*
X116250546Y-113059500D01*
X116069454Y-113059500D01*
X116069451Y-113059500D01*
X115890593Y-113087828D01*
X115718362Y-113143788D01*
X115557008Y-113226002D01*
X115510649Y-113259684D01*
X115410499Y-113332447D01*
X115282447Y-113460499D01*
X115229225Y-113533752D01*
X115176002Y-113607008D01*
X115093788Y-113768362D01*
X115037828Y-113940593D01*
X115009500Y-114119450D01*
X115009500Y-114300549D01*
X115037828Y-114479406D01*
X115037829Y-114479409D01*
X115093789Y-114651639D01*
X115176004Y-114812994D01*
X115282447Y-114959501D01*
X115410499Y-115087553D01*
X115557006Y-115193996D01*
X115718361Y-115276211D01*
X115890591Y-115332171D01*
X115962136Y-115343502D01*
X116069451Y-115360500D01*
X116069454Y-115360500D01*
X116250549Y-115360500D01*
X116339977Y-115346335D01*
X116429409Y-115332171D01*
X116601639Y-115276211D01*
X116601642Y-115276209D01*
X116601646Y-115276208D01*
X116755555Y-115197787D01*
X116815987Y-115188215D01*
X116870503Y-115215992D01*
X116898281Y-115270509D01*
X116899500Y-115285996D01*
X116899500Y-115674003D01*
X116880593Y-115732194D01*
X116831093Y-115768158D01*
X116769907Y-115768158D01*
X116755555Y-115762213D01*
X116601637Y-115683788D01*
X116429406Y-115627828D01*
X116250549Y-115599500D01*
X116250546Y-115599500D01*
X116069454Y-115599500D01*
X116069451Y-115599500D01*
X115890593Y-115627828D01*
X115718362Y-115683788D01*
X115557008Y-115766002D01*
X115491667Y-115813475D01*
X115410499Y-115872447D01*
X115282447Y-116000499D01*
X115229225Y-116073752D01*
X115176002Y-116147008D01*
X115093788Y-116308362D01*
X115037828Y-116480593D01*
X115009500Y-116659450D01*
X115009500Y-116840549D01*
X115037828Y-117019406D01*
X115037829Y-117019409D01*
X115093789Y-117191639D01*
X115176004Y-117352994D01*
X115282447Y-117499501D01*
X115410499Y-117627553D01*
X115557006Y-117733996D01*
X115718361Y-117816211D01*
X115729483Y-117819824D01*
X115732983Y-117820962D01*
X115782483Y-117856926D01*
X115801391Y-117915116D01*
X115782484Y-117973307D01*
X115732985Y-118009271D01*
X115732984Y-118009272D01*
X115641784Y-118038904D01*
X115452446Y-118135376D01*
X115452442Y-118135378D01*
X115398282Y-118174728D01*
X116030591Y-118807037D01*
X115967007Y-118824075D01*
X115852993Y-118889901D01*
X115759901Y-118982993D01*
X115694075Y-119097007D01*
X115677037Y-119160591D01*
X115044728Y-118528282D01*
X115005378Y-118582442D01*
X115005376Y-118582446D01*
X114908904Y-118771784D01*
X114843240Y-118973878D01*
X114810000Y-119183749D01*
X114810000Y-119396250D01*
X114843240Y-119606121D01*
X114908904Y-119808215D01*
X115005376Y-119997553D01*
X115005380Y-119997559D01*
X115044728Y-120051716D01*
X115044729Y-120051716D01*
X115677037Y-119419407D01*
X115694075Y-119482993D01*
X115759901Y-119597007D01*
X115852993Y-119690099D01*
X115967007Y-119755925D01*
X116030590Y-119772962D01*
X115398282Y-120405269D01*
X115398282Y-120405270D01*
X115452440Y-120444619D01*
X115452446Y-120444623D01*
X115641784Y-120541095D01*
X115843878Y-120606759D01*
X116053750Y-120640000D01*
X116266250Y-120640000D01*
X116476121Y-120606759D01*
X116678217Y-120541094D01*
X116755554Y-120501689D01*
X116815986Y-120492117D01*
X116870503Y-120519894D01*
X116898281Y-120574410D01*
X116899500Y-120589898D01*
X116899500Y-122550500D01*
X116880593Y-122608691D01*
X116831093Y-122644655D01*
X116800500Y-122649500D01*
X92599500Y-122649500D01*
X92541309Y-122630593D01*
X92505345Y-122581093D01*
X92500500Y-122550500D01*
X92500500Y-121750324D01*
X98199999Y-121750324D01*
X98206401Y-121809870D01*
X98206403Y-121809881D01*
X98256646Y-121944588D01*
X98256647Y-121944590D01*
X98342807Y-122059684D01*
X98342815Y-122059692D01*
X98457909Y-122145852D01*
X98457911Y-122145853D01*
X98592618Y-122196096D01*
X98592629Y-122196098D01*
X98652176Y-122202500D01*
X99099999Y-122202500D01*
X99100000Y-122202499D01*
X99100000Y-121052501D01*
X99600000Y-121052501D01*
X99600000Y-122202499D01*
X99600001Y-122202500D01*
X100047824Y-122202500D01*
X100107370Y-122196098D01*
X100107381Y-122196096D01*
X100242088Y-122145853D01*
X100242090Y-122145852D01*
X100357184Y-122059692D01*
X100357192Y-122059684D01*
X100443352Y-121944590D01*
X100443353Y-121944588D01*
X100493596Y-121809881D01*
X100493598Y-121809870D01*
X100500000Y-121750324D01*
X109899999Y-121750324D01*
X109906401Y-121809870D01*
X109906403Y-121809881D01*
X109956646Y-121944588D01*
X109956647Y-121944590D01*
X110042807Y-122059684D01*
X110042815Y-122059692D01*
X110157909Y-122145852D01*
X110157911Y-122145853D01*
X110292618Y-122196096D01*
X110292629Y-122196098D01*
X110352176Y-122202500D01*
X110799999Y-122202500D01*
X110800000Y-122202499D01*
X110800000Y-121052501D01*
X111300000Y-121052501D01*
X111300000Y-122202499D01*
X111300001Y-122202500D01*
X111747824Y-122202500D01*
X111807370Y-122196098D01*
X111807381Y-122196096D01*
X111942088Y-122145853D01*
X111942090Y-122145852D01*
X112057184Y-122059692D01*
X112057192Y-122059684D01*
X112143352Y-121944590D01*
X112143353Y-121944588D01*
X112193596Y-121809881D01*
X112193598Y-121809870D01*
X112200000Y-121750324D01*
X112200000Y-121052501D01*
X112199999Y-121052500D01*
X111300001Y-121052500D01*
X111300000Y-121052501D01*
X110800000Y-121052501D01*
X110799999Y-121052500D01*
X109900001Y-121052500D01*
X109900000Y-121052501D01*
X109900000Y-121750324D01*
X109899999Y-121750324D01*
X100500000Y-121750324D01*
X100500000Y-121052501D01*
X100499999Y-121052500D01*
X99600001Y-121052500D01*
X99600000Y-121052501D01*
X99100000Y-121052501D01*
X99099999Y-121052500D01*
X98200001Y-121052500D01*
X98200000Y-121052501D01*
X98200000Y-121750324D01*
X98199999Y-121750324D01*
X92500500Y-121750324D01*
X92500500Y-120559327D01*
X92519407Y-120501136D01*
X92568907Y-120465172D01*
X92630093Y-120465172D01*
X92644445Y-120471117D01*
X92781784Y-120541095D01*
X92983878Y-120606759D01*
X93193750Y-120640000D01*
X93406250Y-120640000D01*
X93616121Y-120606759D01*
X93818215Y-120541095D01*
X94007556Y-120444620D01*
X94061716Y-120405270D01*
X93429408Y-119772962D01*
X93492993Y-119755925D01*
X93607007Y-119690099D01*
X93700099Y-119597007D01*
X93765925Y-119482993D01*
X93782962Y-119419408D01*
X94415270Y-120051716D01*
X94454620Y-119997556D01*
X94527422Y-119854675D01*
X98200000Y-119854675D01*
X98200000Y-120552499D01*
X98200001Y-120552500D01*
X99099999Y-120552500D01*
X99100000Y-120552499D01*
X99100000Y-119402501D01*
X99600000Y-119402501D01*
X99600000Y-120552499D01*
X99600001Y-120552500D01*
X100499999Y-120552500D01*
X100500000Y-120552499D01*
X100500000Y-119854675D01*
X109900000Y-119854675D01*
X109900000Y-120552499D01*
X109900001Y-120552500D01*
X110799999Y-120552500D01*
X110800000Y-120552499D01*
X110800000Y-119402501D01*
X111300000Y-119402501D01*
X111300000Y-120552499D01*
X111300001Y-120552500D01*
X112199999Y-120552500D01*
X112200000Y-120552499D01*
X112200000Y-119854675D01*
X112193598Y-119795129D01*
X112193596Y-119795118D01*
X112143353Y-119660411D01*
X112143352Y-119660409D01*
X112057192Y-119545315D01*
X112057184Y-119545307D01*
X111942090Y-119459147D01*
X111942088Y-119459146D01*
X111807381Y-119408903D01*
X111807370Y-119408901D01*
X111747824Y-119402500D01*
X111300001Y-119402500D01*
X111300000Y-119402501D01*
X110800000Y-119402501D01*
X110799999Y-119402500D01*
X110352176Y-119402500D01*
X110292629Y-119408901D01*
X110292618Y-119408903D01*
X110157911Y-119459146D01*
X110157909Y-119459147D01*
X110042815Y-119545307D01*
X110042807Y-119545315D01*
X109956647Y-119660409D01*
X109956646Y-119660411D01*
X109906403Y-119795118D01*
X109906401Y-119795129D01*
X109900000Y-119854675D01*
X100500000Y-119854675D01*
X100493598Y-119795129D01*
X100493596Y-119795118D01*
X100443353Y-119660411D01*
X100443352Y-119660409D01*
X100357192Y-119545315D01*
X100357184Y-119545307D01*
X100242090Y-119459147D01*
X100242088Y-119459146D01*
X100107381Y-119408903D01*
X100107370Y-119408901D01*
X100047824Y-119402500D01*
X99600001Y-119402500D01*
X99600000Y-119402501D01*
X99100000Y-119402501D01*
X99099999Y-119402500D01*
X98652176Y-119402500D01*
X98592629Y-119408901D01*
X98592618Y-119408903D01*
X98457911Y-119459146D01*
X98457909Y-119459147D01*
X98342815Y-119545307D01*
X98342807Y-119545315D01*
X98256647Y-119660409D01*
X98256646Y-119660411D01*
X98206403Y-119795118D01*
X98206401Y-119795129D01*
X98200000Y-119854675D01*
X94527422Y-119854675D01*
X94551095Y-119808215D01*
X94616759Y-119606121D01*
X94650000Y-119396250D01*
X94650000Y-119183749D01*
X94616759Y-118973878D01*
X94551095Y-118771784D01*
X94454623Y-118582446D01*
X94454619Y-118582440D01*
X94415270Y-118528282D01*
X94415269Y-118528282D01*
X93782962Y-119160589D01*
X93765925Y-119097007D01*
X93700099Y-118982993D01*
X93607007Y-118889901D01*
X93492993Y-118824075D01*
X93429407Y-118807037D01*
X94061716Y-118174729D01*
X94061716Y-118174728D01*
X94007559Y-118135380D01*
X94007553Y-118135376D01*
X93818215Y-118038904D01*
X93727015Y-118009272D01*
X93677515Y-117973308D01*
X93658608Y-117915117D01*
X93677515Y-117856926D01*
X93727013Y-117820962D01*
X93727017Y-117820962D01*
X93727018Y-117820962D01*
X93741633Y-117816213D01*
X93741633Y-117816212D01*
X93741639Y-117816211D01*
X93902994Y-117733996D01*
X94049501Y-117627553D01*
X94177553Y-117499501D01*
X94283996Y-117352994D01*
X94366211Y-117191639D01*
X94422171Y-117019409D01*
X94450500Y-116840546D01*
X94450500Y-116659454D01*
X94450500Y-116659450D01*
X94422172Y-116480595D01*
X94422171Y-116480591D01*
X94382951Y-116359882D01*
X94382951Y-116298699D01*
X94407101Y-116259290D01*
X94820480Y-115845913D01*
X94839208Y-115813475D01*
X94873205Y-115754592D01*
X94873205Y-115754590D01*
X94873207Y-115754588D01*
X94900500Y-115652727D01*
X94900500Y-115547273D01*
X94900500Y-114006901D01*
X94919407Y-113948710D01*
X94929496Y-113936897D01*
X95806893Y-113059500D01*
X95916069Y-112950324D01*
X98199999Y-112950324D01*
X98206401Y-113009870D01*
X98206403Y-113009881D01*
X98256646Y-113144588D01*
X98256647Y-113144590D01*
X98342807Y-113259684D01*
X98342815Y-113259692D01*
X98457909Y-113345852D01*
X98457911Y-113345853D01*
X98592618Y-113396096D01*
X98592629Y-113396098D01*
X98652176Y-113402500D01*
X99099999Y-113402500D01*
X99100000Y-113402499D01*
X99100000Y-112252501D01*
X99600000Y-112252501D01*
X99600000Y-113402499D01*
X99600001Y-113402500D01*
X100047824Y-113402500D01*
X100107370Y-113396098D01*
X100107381Y-113396096D01*
X100242088Y-113345853D01*
X100242090Y-113345852D01*
X100357184Y-113259692D01*
X100357192Y-113259684D01*
X100443352Y-113144590D01*
X100443353Y-113144588D01*
X100493596Y-113009881D01*
X100493598Y-113009870D01*
X100500000Y-112950324D01*
X109899999Y-112950324D01*
X109906401Y-113009870D01*
X109906403Y-113009881D01*
X109956646Y-113144588D01*
X109956647Y-113144590D01*
X110042807Y-113259684D01*
X110042815Y-113259692D01*
X110157909Y-113345852D01*
X110157911Y-113345853D01*
X110292618Y-113396096D01*
X110292629Y-113396098D01*
X110352176Y-113402500D01*
X110799999Y-113402500D01*
X110800000Y-113402499D01*
X110800000Y-112252501D01*
X111300000Y-112252501D01*
X111300000Y-113402499D01*
X111300001Y-113402500D01*
X111747824Y-113402500D01*
X111807370Y-113396098D01*
X111807381Y-113396096D01*
X111942088Y-113345853D01*
X111942090Y-113345852D01*
X112057184Y-113259692D01*
X112057192Y-113259684D01*
X112143352Y-113144590D01*
X112143353Y-113144588D01*
X112193596Y-113009881D01*
X112193598Y-113009870D01*
X112200000Y-112950324D01*
X112200000Y-112252501D01*
X112199999Y-112252500D01*
X111300001Y-112252500D01*
X111300000Y-112252501D01*
X110800000Y-112252501D01*
X110799999Y-112252500D01*
X109900001Y-112252500D01*
X109900000Y-112252501D01*
X109900000Y-112950324D01*
X109899999Y-112950324D01*
X100500000Y-112950324D01*
X100500000Y-112252501D01*
X100499999Y-112252500D01*
X99600001Y-112252500D01*
X99600000Y-112252501D01*
X99100000Y-112252501D01*
X99099999Y-112252500D01*
X98200001Y-112252500D01*
X98200000Y-112252501D01*
X98200000Y-112950324D01*
X98199999Y-112950324D01*
X95916069Y-112950324D01*
X98083954Y-110782438D01*
X98138469Y-110754663D01*
X98198901Y-110764234D01*
X98242166Y-110807499D01*
X98251737Y-110867931D01*
X98246714Y-110887040D01*
X98206403Y-110995118D01*
X98206401Y-110995129D01*
X98200000Y-111054675D01*
X98200000Y-111752499D01*
X98200001Y-111752500D01*
X99099999Y-111752500D01*
X99100000Y-111752499D01*
X99100000Y-110602501D01*
X99600000Y-110602501D01*
X99600000Y-111752499D01*
X99600001Y-111752500D01*
X100499999Y-111752500D01*
X100500000Y-111752499D01*
X100500000Y-111054675D01*
X109900000Y-111054675D01*
X109900000Y-111752499D01*
X109900001Y-111752500D01*
X110799999Y-111752500D01*
X110800000Y-111752499D01*
X110800000Y-110602501D01*
X111300000Y-110602501D01*
X111300000Y-111752499D01*
X111300001Y-111752500D01*
X112199999Y-111752500D01*
X112200000Y-111752499D01*
X112200000Y-111054675D01*
X112193598Y-110995129D01*
X112193596Y-110995118D01*
X112143353Y-110860411D01*
X112143352Y-110860409D01*
X112057192Y-110745315D01*
X112057184Y-110745307D01*
X111942090Y-110659147D01*
X111942088Y-110659146D01*
X111807381Y-110608903D01*
X111807370Y-110608901D01*
X111747824Y-110602500D01*
X111300001Y-110602500D01*
X111300000Y-110602501D01*
X110800000Y-110602501D01*
X110799999Y-110602500D01*
X110352176Y-110602500D01*
X110292629Y-110608901D01*
X110292618Y-110608903D01*
X110157911Y-110659146D01*
X110157909Y-110659147D01*
X110042815Y-110745307D01*
X110042807Y-110745315D01*
X109956647Y-110860409D01*
X109956646Y-110860411D01*
X109906403Y-110995118D01*
X109906401Y-110995129D01*
X109900000Y-111054675D01*
X100500000Y-111054675D01*
X100493598Y-110995129D01*
X100493596Y-110995118D01*
X100443353Y-110860411D01*
X100443352Y-110860409D01*
X100357192Y-110745315D01*
X100357184Y-110745307D01*
X100242090Y-110659147D01*
X100242088Y-110659146D01*
X100107381Y-110608903D01*
X100107370Y-110608901D01*
X100047824Y-110602500D01*
X99600001Y-110602500D01*
X99600000Y-110602501D01*
X99100000Y-110602501D01*
X99099999Y-110602500D01*
X98652176Y-110602500D01*
X98592629Y-110608901D01*
X98592618Y-110608903D01*
X98484540Y-110649214D01*
X98423411Y-110651834D01*
X98372416Y-110618023D01*
X98351035Y-110560695D01*
X98367433Y-110501748D01*
X98379935Y-110486457D01*
X101086897Y-107779496D01*
X101093633Y-107776063D01*
X101098023Y-107769911D01*
X101119800Y-107762731D01*
X101141414Y-107751719D01*
X101156049Y-107750504D01*
X101156514Y-107750500D01*
X101172475Y-107750500D01*
X101173004Y-107750358D01*
X101179648Y-107750301D01*
X101203297Y-107757760D01*
X101227695Y-107762270D01*
X101232016Y-107766819D01*
X101238000Y-107768707D01*
X101252750Y-107788646D01*
X101269835Y-107806632D01*
X101271503Y-107813996D01*
X101274388Y-107817896D01*
X101274466Y-107827079D01*
X101279500Y-107849297D01*
X101279500Y-108547360D01*
X101279501Y-108547363D01*
X101282414Y-108572490D01*
X101307756Y-108629885D01*
X101327794Y-108675265D01*
X101407235Y-108754706D01*
X101510009Y-108800085D01*
X101535135Y-108803000D01*
X102400816Y-108802999D01*
X102459007Y-108821906D01*
X102480068Y-108842668D01*
X102492810Y-108859688D01*
X102607909Y-108945852D01*
X102607911Y-108945853D01*
X102742618Y-108996096D01*
X102742629Y-108996098D01*
X102802176Y-109002500D01*
X103049999Y-109002500D01*
X103050000Y-109002499D01*
X103050000Y-108001500D01*
X103068907Y-107943309D01*
X103118407Y-107907345D01*
X103149000Y-107902500D01*
X103451000Y-107902500D01*
X103509191Y-107921407D01*
X103545155Y-107970907D01*
X103550000Y-108001500D01*
X103550000Y-109002499D01*
X103550001Y-109002500D01*
X103797824Y-109002500D01*
X103857370Y-108996098D01*
X103857381Y-108996096D01*
X103992088Y-108945853D01*
X103992090Y-108945852D01*
X104107184Y-108859692D01*
X104107194Y-108859682D01*
X104119928Y-108842672D01*
X104169936Y-108807418D01*
X104199176Y-108802999D01*
X105064864Y-108802999D01*
X105089991Y-108800085D01*
X105165012Y-108766959D01*
X105225881Y-108760751D01*
X105244978Y-108766955D01*
X105320009Y-108800085D01*
X105345135Y-108803000D01*
X106334864Y-108802999D01*
X106359991Y-108800085D01*
X106435012Y-108766959D01*
X106495881Y-108760751D01*
X106514978Y-108766955D01*
X106590009Y-108800085D01*
X106615135Y-108803000D01*
X107604864Y-108802999D01*
X107629991Y-108800085D01*
X107705012Y-108766959D01*
X107765881Y-108760751D01*
X107784978Y-108766955D01*
X107860009Y-108800085D01*
X107885135Y-108803000D01*
X108874864Y-108802999D01*
X108899991Y-108800085D01*
X109002765Y-108754706D01*
X109082206Y-108675265D01*
X109127585Y-108572491D01*
X109130500Y-108547365D01*
X109130499Y-107376899D01*
X109149406Y-107318709D01*
X109159496Y-107306896D01*
X109966898Y-106499496D01*
X110021414Y-106471719D01*
X110036901Y-106470500D01*
X110693100Y-106470500D01*
X110693102Y-106470500D01*
X110781564Y-106459877D01*
X110922342Y-106404361D01*
X111042922Y-106312922D01*
X111134361Y-106192342D01*
X111145861Y-106163181D01*
X111163478Y-106141826D01*
X111179767Y-106119407D01*
X111182782Y-106118427D01*
X111184798Y-106115984D01*
X111237958Y-106100500D01*
X111335070Y-106100500D01*
X111393261Y-106119407D01*
X111427167Y-106163181D01*
X111440637Y-106197340D01*
X111497614Y-106272475D01*
X111532078Y-106317922D01*
X111652658Y-106409361D01*
X111652659Y-106409361D01*
X111652660Y-106409362D01*
X111723047Y-106437119D01*
X111793436Y-106464877D01*
X111881898Y-106475500D01*
X111881900Y-106475500D01*
X112918100Y-106475500D01*
X112918102Y-106475500D01*
X113006564Y-106464877D01*
X113147342Y-106409361D01*
X113267922Y-106317922D01*
X113359361Y-106197342D01*
X113414877Y-106056564D01*
X113420108Y-106012998D01*
X113445818Y-105957478D01*
X113499253Y-105927673D01*
X113560002Y-105934967D01*
G37*
%TD.AperFunction*%
%TA.AperFunction,Conductor*%
G36*
X100656570Y-101335757D02*
G01*
X100693820Y-101384297D01*
X100699500Y-101417349D01*
X100699500Y-103047273D01*
X100699500Y-103152727D01*
X100713741Y-103205875D01*
X100726794Y-103254592D01*
X100779516Y-103345908D01*
X100779518Y-103345910D01*
X100779520Y-103345913D01*
X101620624Y-104187016D01*
X101948667Y-104515059D01*
X101976444Y-104569576D01*
X101966873Y-104630008D01*
X101923608Y-104673273D01*
X101866859Y-104683357D01*
X101793106Y-104674500D01*
X101793102Y-104674500D01*
X101206898Y-104674500D01*
X101206893Y-104674500D01*
X101118434Y-104685123D01*
X100977660Y-104740637D01*
X100977656Y-104740640D01*
X100857081Y-104832075D01*
X100857075Y-104832081D01*
X100765640Y-104952656D01*
X100765638Y-104952658D01*
X100748563Y-104995959D01*
X100709626Y-105043156D01*
X100650384Y-105058452D01*
X100593464Y-105036005D01*
X100562491Y-104990779D01*
X100534356Y-104905875D01*
X100442319Y-104756659D01*
X100318340Y-104632680D01*
X100169124Y-104540643D01*
X100002693Y-104485493D01*
X99899987Y-104475000D01*
X99850001Y-104475000D01*
X99850000Y-104475001D01*
X99850000Y-105601000D01*
X99831093Y-105659191D01*
X99781593Y-105695155D01*
X99751000Y-105700000D01*
X99600001Y-105700000D01*
X99600000Y-105700001D01*
X99600000Y-105851000D01*
X99581093Y-105909191D01*
X99531593Y-105945155D01*
X99501000Y-105950000D01*
X98600002Y-105950000D01*
X98600001Y-105950001D01*
X98600001Y-106200500D01*
X98581094Y-106258691D01*
X98531594Y-106294655D01*
X98501001Y-106299500D01*
X97999500Y-106299500D01*
X97941309Y-106280593D01*
X97905345Y-106231093D01*
X97900500Y-106200500D01*
X97900500Y-105906899D01*
X97900499Y-105906893D01*
X97896804Y-105876124D01*
X97889877Y-105818436D01*
X97838052Y-105687017D01*
X97834362Y-105677660D01*
X97834361Y-105677659D01*
X97834361Y-105677658D01*
X97742922Y-105557078D01*
X97622342Y-105465639D01*
X97622341Y-105465638D01*
X97622339Y-105465637D01*
X97481565Y-105410123D01*
X97393106Y-105399500D01*
X97393102Y-105399500D01*
X96706901Y-105399500D01*
X96699303Y-105397031D01*
X96691414Y-105398281D01*
X96670758Y-105387756D01*
X96648710Y-105380593D01*
X96636897Y-105370504D01*
X96635897Y-105369504D01*
X96608120Y-105314987D01*
X96617691Y-105254555D01*
X96660956Y-105211290D01*
X96705901Y-105200500D01*
X97393100Y-105200500D01*
X97393102Y-105200500D01*
X97481564Y-105189877D01*
X97519259Y-105175012D01*
X98600000Y-105175012D01*
X98600000Y-105449999D01*
X98600001Y-105450000D01*
X99349999Y-105450000D01*
X99350000Y-105449999D01*
X99350000Y-104474999D01*
X99300015Y-104475000D01*
X99300012Y-104475001D01*
X99197312Y-104485492D01*
X99197300Y-104485495D01*
X99030875Y-104540643D01*
X98881659Y-104632680D01*
X98757680Y-104756659D01*
X98665643Y-104905875D01*
X98610493Y-105072306D01*
X98600000Y-105175012D01*
X97519259Y-105175012D01*
X97622342Y-105134361D01*
X97742922Y-105042922D01*
X97834361Y-104922342D01*
X97889877Y-104781564D01*
X97900500Y-104693102D01*
X97900500Y-104081898D01*
X97889877Y-103993436D01*
X97834361Y-103852658D01*
X97742922Y-103732078D01*
X97742917Y-103732074D01*
X97738133Y-103727290D01*
X97740365Y-103725057D01*
X97712892Y-103685645D01*
X97714089Y-103624472D01*
X97751014Y-103575684D01*
X97758114Y-103571171D01*
X97845913Y-103520480D01*
X99436897Y-101929496D01*
X99491414Y-101901719D01*
X99506901Y-101900500D01*
X99652725Y-101900500D01*
X99652727Y-101900500D01*
X99754588Y-101873207D01*
X99754590Y-101873205D01*
X99754592Y-101873205D01*
X99845908Y-101820483D01*
X99845908Y-101820482D01*
X99845913Y-101820480D01*
X100097959Y-101568434D01*
X100186898Y-101479496D01*
X100241414Y-101451719D01*
X100256901Y-101450500D01*
X100272474Y-101450500D01*
X100272475Y-101450500D01*
X100412485Y-101412984D01*
X100412487Y-101412982D01*
X100412489Y-101412982D01*
X100538007Y-101340514D01*
X100538009Y-101340512D01*
X100538015Y-101340509D01*
X100538019Y-101340504D01*
X100540228Y-101338810D01*
X100542119Y-101338140D01*
X100543635Y-101337265D01*
X100543797Y-101337545D01*
X100597903Y-101318383D01*
X100656570Y-101335757D01*
G37*
%TD.AperFunction*%
%TA.AperFunction,Conductor*%
G36*
X112383549Y-102549942D02*
G01*
X112473873Y-102640265D01*
X112473876Y-102640269D01*
X112473877Y-102640269D01*
X112479519Y-102645911D01*
X112479520Y-102645913D01*
X112554087Y-102720480D01*
X112554089Y-102720481D01*
X112600500Y-102747277D01*
X112641441Y-102792746D01*
X112650000Y-102833013D01*
X112650000Y-103524999D01*
X112650001Y-103525000D01*
X113624998Y-103525000D01*
X113624999Y-103524999D01*
X113624999Y-103475013D01*
X113614507Y-103372312D01*
X113614504Y-103372300D01*
X113559356Y-103205875D01*
X113467319Y-103056659D01*
X113380164Y-102969504D01*
X113352387Y-102914987D01*
X113361958Y-102854555D01*
X113405223Y-102811290D01*
X113450168Y-102800500D01*
X114393099Y-102800500D01*
X114451290Y-102819407D01*
X114463103Y-102829496D01*
X115092944Y-103459337D01*
X115120721Y-103513854D01*
X115111151Y-103574284D01*
X115093788Y-103608361D01*
X115037828Y-103780593D01*
X115009500Y-103959450D01*
X115009500Y-104140549D01*
X115037828Y-104319406D01*
X115093788Y-104491637D01*
X115163026Y-104627525D01*
X115176004Y-104652994D01*
X115282447Y-104799501D01*
X115410499Y-104927553D01*
X115557006Y-105033996D01*
X115718361Y-105116211D01*
X115890591Y-105172171D01*
X115952005Y-105181898D01*
X116069451Y-105200500D01*
X116069454Y-105200500D01*
X116250549Y-105200500D01*
X116339977Y-105186335D01*
X116429409Y-105172171D01*
X116601639Y-105116211D01*
X116601642Y-105116209D01*
X116601646Y-105116208D01*
X116755555Y-105037787D01*
X116815987Y-105028215D01*
X116870503Y-105055992D01*
X116898281Y-105110509D01*
X116899500Y-105125996D01*
X116899500Y-105514003D01*
X116880593Y-105572194D01*
X116831093Y-105608158D01*
X116769907Y-105608158D01*
X116755555Y-105602213D01*
X116601637Y-105523788D01*
X116429406Y-105467828D01*
X116250549Y-105439500D01*
X116250546Y-105439500D01*
X116069454Y-105439500D01*
X116069451Y-105439500D01*
X115890593Y-105467828D01*
X115718362Y-105523788D01*
X115557008Y-105606002D01*
X115491667Y-105653475D01*
X115410499Y-105712447D01*
X115282447Y-105840499D01*
X115274818Y-105851000D01*
X115176002Y-105987008D01*
X115131454Y-106074439D01*
X115095218Y-106145555D01*
X115051955Y-106188819D01*
X114991523Y-106198390D01*
X114937007Y-106170613D01*
X114937006Y-106170613D01*
X113433530Y-104667137D01*
X113405753Y-104612620D01*
X113415324Y-104552188D01*
X113433531Y-104527129D01*
X113467317Y-104493343D01*
X113467318Y-104493341D01*
X113559356Y-104344124D01*
X113614506Y-104177693D01*
X113625000Y-104074987D01*
X113625000Y-104025001D01*
X113624999Y-104025000D01*
X112499000Y-104025000D01*
X112440809Y-104006093D01*
X112404845Y-103956593D01*
X112400000Y-103926000D01*
X112400000Y-103775001D01*
X112399999Y-103775000D01*
X112249000Y-103775000D01*
X112190809Y-103756093D01*
X112154845Y-103706593D01*
X112150000Y-103676000D01*
X112150000Y-102751556D01*
X112146577Y-102744838D01*
X112151903Y-102693951D01*
X112154703Y-102686636D01*
X112173207Y-102654588D01*
X112187734Y-102600368D01*
X112189570Y-102595575D01*
X112205726Y-102575589D01*
X112219721Y-102554039D01*
X112225959Y-102550560D01*
X112228035Y-102547993D01*
X112232919Y-102546679D01*
X112249325Y-102537531D01*
X112280850Y-102526500D01*
X112342020Y-102525129D01*
X112383549Y-102549942D01*
G37*
%TD.AperFunction*%
%TA.AperFunction,Conductor*%
G36*
X104158691Y-103618907D02*
G01*
X104194655Y-103668407D01*
X104199500Y-103699000D01*
X104199500Y-104001000D01*
X104180593Y-104059191D01*
X104131093Y-104095155D01*
X104100500Y-104100000D01*
X103499000Y-104100000D01*
X103440809Y-104081093D01*
X103404845Y-104031593D01*
X103400000Y-104001000D01*
X103400000Y-103699000D01*
X103418907Y-103640809D01*
X103468407Y-103604845D01*
X103499000Y-103600000D01*
X104100500Y-103600000D01*
X104158691Y-103618907D01*
G37*
%TD.AperFunction*%
%TA.AperFunction,Conductor*%
G36*
X105759191Y-103543907D02*
G01*
X105795155Y-103593407D01*
X105800000Y-103624000D01*
X105800000Y-103926000D01*
X105781093Y-103984191D01*
X105731593Y-104020155D01*
X105701000Y-104025000D01*
X105099500Y-104025000D01*
X105041309Y-104006093D01*
X105005345Y-103956593D01*
X105000500Y-103926000D01*
X105000500Y-103624000D01*
X105019407Y-103565809D01*
X105068907Y-103529845D01*
X105099500Y-103525000D01*
X105701000Y-103525000D01*
X105759191Y-103543907D01*
G37*
%TD.AperFunction*%
%TA.AperFunction,Conductor*%
G36*
X94851290Y-92719407D02*
G01*
X94863103Y-92729496D01*
X95764603Y-93630996D01*
X95792380Y-93685513D01*
X95782809Y-93745945D01*
X95739544Y-93789210D01*
X95694599Y-93800000D01*
X95587501Y-93800000D01*
X95587500Y-93800001D01*
X95587500Y-94349999D01*
X95587501Y-94350000D01*
X96442600Y-94350000D01*
X96500791Y-94368907D01*
X96512601Y-94378994D01*
X97379518Y-95245910D01*
X97379520Y-95245913D01*
X97454087Y-95320480D01*
X97509941Y-95352727D01*
X97545413Y-95373207D01*
X97647270Y-95400500D01*
X97647272Y-95400501D01*
X97647273Y-95400501D01*
X97758790Y-95400501D01*
X97758806Y-95400500D01*
X98193099Y-95400500D01*
X98251290Y-95419407D01*
X98263103Y-95429496D01*
X98920504Y-96086897D01*
X98948281Y-96141414D01*
X98949500Y-96156901D01*
X98949500Y-96172475D01*
X98962850Y-96222297D01*
X98987017Y-96312489D01*
X99059490Y-96438014D01*
X99060494Y-96439323D01*
X99060888Y-96440436D01*
X99062735Y-96443635D01*
X99062142Y-96443977D01*
X99080919Y-96496998D01*
X99079920Y-96513854D01*
X99079500Y-96516733D01*
X99079500Y-96516740D01*
X99079500Y-97083260D01*
X99089427Y-97151393D01*
X99089427Y-97151394D01*
X99090536Y-97159001D01*
X99089276Y-97159184D01*
X99088502Y-97212458D01*
X99051823Y-97261430D01*
X98994802Y-97279500D01*
X98816740Y-97279500D01*
X98782673Y-97284463D01*
X98748604Y-97289427D01*
X98643518Y-97340801D01*
X98560801Y-97423518D01*
X98509427Y-97528604D01*
X98509427Y-97528607D01*
X98499500Y-97596740D01*
X98499500Y-97803260D01*
X98506118Y-97848682D01*
X98509427Y-97871395D01*
X98560317Y-97975491D01*
X98560802Y-97976483D01*
X98643517Y-98059198D01*
X98688106Y-98080996D01*
X98748604Y-98110572D01*
X98748605Y-98110572D01*
X98748607Y-98110573D01*
X98816740Y-98120500D01*
X98816743Y-98120500D01*
X99126000Y-98120500D01*
X99184191Y-98139407D01*
X99220155Y-98188907D01*
X99221330Y-98196329D01*
X99225001Y-98200000D01*
X101151000Y-98200000D01*
X101209191Y-98218907D01*
X101245155Y-98268407D01*
X101250000Y-98299000D01*
X101250000Y-98601000D01*
X101231093Y-98659191D01*
X101181593Y-98695155D01*
X101151000Y-98700000D01*
X99225001Y-98700000D01*
X99225000Y-98700001D01*
X99225000Y-99468067D01*
X99229046Y-99501756D01*
X99217211Y-99561786D01*
X99200756Y-99583562D01*
X99140803Y-99643515D01*
X99140801Y-99643518D01*
X99089427Y-99748604D01*
X99089427Y-99748607D01*
X99079500Y-99816740D01*
X99079500Y-100383260D01*
X99084218Y-100415639D01*
X99089427Y-100451395D01*
X99140801Y-100556481D01*
X99140802Y-100556483D01*
X99223517Y-100639198D01*
X99257901Y-100656007D01*
X99328604Y-100690572D01*
X99328605Y-100690572D01*
X99328607Y-100690573D01*
X99396740Y-100700500D01*
X99396743Y-100700500D01*
X99554517Y-100700500D01*
X99612708Y-100719407D01*
X99648672Y-100768907D01*
X99653099Y-100808583D01*
X99652325Y-100816981D01*
X99649500Y-100827525D01*
X99649500Y-100847645D01*
X99649082Y-100852182D01*
X99638710Y-100876306D01*
X99630593Y-100901290D01*
X99625310Y-100907474D01*
X99624916Y-100908393D01*
X99624124Y-100908863D01*
X99620504Y-100913103D01*
X99463103Y-101070504D01*
X99408586Y-101098281D01*
X99393099Y-101099500D01*
X99352727Y-101099500D01*
X99247273Y-101099500D01*
X99184929Y-101116204D01*
X99145407Y-101126794D01*
X99054091Y-101179516D01*
X99054090Y-101179517D01*
X98068767Y-102164839D01*
X98014250Y-102192616D01*
X97953818Y-102183045D01*
X97910553Y-102139780D01*
X97900469Y-102106639D01*
X97896255Y-102071552D01*
X97889877Y-102018436D01*
X97846369Y-101908107D01*
X97834362Y-101877660D01*
X97834361Y-101877659D01*
X97834361Y-101877658D01*
X97742922Y-101757078D01*
X97662975Y-101696452D01*
X97628033Y-101646226D01*
X97629287Y-101585054D01*
X97666257Y-101536301D01*
X97670823Y-101533308D01*
X97818340Y-101442319D01*
X97942319Y-101318340D01*
X98034356Y-101169124D01*
X98089506Y-101002693D01*
X98100000Y-100899987D01*
X98100000Y-100837501D01*
X98099999Y-100837500D01*
X96999000Y-100837500D01*
X96940809Y-100818593D01*
X96904845Y-100769093D01*
X96900000Y-100738500D01*
X96900000Y-100436500D01*
X96918907Y-100378309D01*
X96968407Y-100342345D01*
X96999000Y-100337500D01*
X98099998Y-100337500D01*
X98099999Y-100337499D01*
X98099999Y-100275013D01*
X98089507Y-100172312D01*
X98089504Y-100172300D01*
X98034356Y-100005875D01*
X97942319Y-99856659D01*
X97818340Y-99732680D01*
X97669124Y-99640643D01*
X97502693Y-99585493D01*
X97399987Y-99575000D01*
X97130400Y-99575000D01*
X97072209Y-99556093D01*
X97036245Y-99506593D01*
X97036245Y-99445407D01*
X97060394Y-99405998D01*
X97220480Y-99245913D01*
X97220918Y-99245155D01*
X97273205Y-99154592D01*
X97273205Y-99154590D01*
X97273207Y-99154588D01*
X97300500Y-99052727D01*
X97300500Y-98947273D01*
X97273207Y-98845412D01*
X97273205Y-98845409D01*
X97273205Y-98845407D01*
X97220483Y-98754091D01*
X97220479Y-98754086D01*
X97145913Y-98679519D01*
X97145913Y-98679520D01*
X94477722Y-96011329D01*
X94449945Y-95956812D01*
X94454282Y-95908627D01*
X94483456Y-95825251D01*
X94497646Y-95784699D01*
X94500499Y-95754273D01*
X94500500Y-95754273D01*
X94500500Y-95486245D01*
X94519407Y-95428054D01*
X94568907Y-95392090D01*
X94627120Y-95391176D01*
X94647510Y-95397100D01*
X94684363Y-95400000D01*
X95087499Y-95400000D01*
X95087500Y-95399999D01*
X95087500Y-94850001D01*
X95587500Y-94850001D01*
X95587500Y-95399999D01*
X95587501Y-95400000D01*
X95990637Y-95400000D01*
X96027489Y-95397100D01*
X96185200Y-95351280D01*
X96185201Y-95351280D01*
X96326552Y-95267685D01*
X96442685Y-95151552D01*
X96526280Y-95010201D01*
X96526280Y-95010200D01*
X96572098Y-94852493D01*
X96572100Y-94852486D01*
X96572296Y-94850000D01*
X95587501Y-94850000D01*
X95587500Y-94850001D01*
X95087500Y-94850001D01*
X95087499Y-94850000D01*
X94102703Y-94850000D01*
X94099574Y-94853384D01*
X94087847Y-94902229D01*
X94041321Y-94941965D01*
X94003437Y-94949500D01*
X92820725Y-94949500D01*
X92790305Y-94952353D01*
X92790296Y-94952355D01*
X92662116Y-94997207D01*
X92662115Y-94997208D01*
X92658283Y-95000036D01*
X92600234Y-95019374D01*
X92541905Y-95000899D01*
X92505575Y-94951667D01*
X92500500Y-94920377D01*
X92500500Y-94279622D01*
X92519407Y-94221431D01*
X92568907Y-94185467D01*
X92630093Y-94185467D01*
X92658288Y-94199967D01*
X92662116Y-94202792D01*
X92662117Y-94202792D01*
X92662118Y-94202793D01*
X92790301Y-94247646D01*
X92820725Y-94250499D01*
X92820727Y-94250500D01*
X94003437Y-94250500D01*
X94061628Y-94269407D01*
X94097592Y-94318907D01*
X94101061Y-94348224D01*
X94102704Y-94350000D01*
X95087499Y-94350000D01*
X95087500Y-94349999D01*
X95087500Y-93800001D01*
X95087499Y-93800000D01*
X94684363Y-93800000D01*
X94647510Y-93802899D01*
X94627117Y-93808824D01*
X94565962Y-93806900D01*
X94517617Y-93769397D01*
X94500500Y-93713754D01*
X94500500Y-93445727D01*
X94500499Y-93445725D01*
X94497646Y-93415305D01*
X94497646Y-93415301D01*
X94452793Y-93287118D01*
X94448346Y-93281093D01*
X94372154Y-93177855D01*
X94372152Y-93177853D01*
X94372150Y-93177850D01*
X94372146Y-93177847D01*
X94372144Y-93177845D01*
X94262883Y-93097207D01*
X94134703Y-93052355D01*
X94134694Y-93052353D01*
X94122272Y-93051188D01*
X94066101Y-93026929D01*
X94034917Y-92974287D01*
X94033193Y-92941074D01*
X94034031Y-92933936D01*
X94050500Y-92872475D01*
X94050500Y-92793708D01*
X94051176Y-92787953D01*
X94061655Y-92765166D01*
X94069407Y-92741309D01*
X94074243Y-92737795D01*
X94076741Y-92732364D01*
X94098613Y-92720089D01*
X94118907Y-92705345D01*
X94127236Y-92704025D01*
X94130098Y-92702420D01*
X94134277Y-92702910D01*
X94149500Y-92700500D01*
X94793099Y-92700500D01*
X94851290Y-92719407D01*
G37*
%TD.AperFunction*%
%TA.AperFunction,Conductor*%
G36*
X105933049Y-97799442D02*
G01*
X106214603Y-98080996D01*
X106242380Y-98135513D01*
X106232809Y-98195945D01*
X106189544Y-98239210D01*
X106144599Y-98250000D01*
X106050001Y-98250000D01*
X106050000Y-98250001D01*
X106050000Y-99151000D01*
X106031093Y-99209191D01*
X105981593Y-99245155D01*
X105951000Y-99250000D01*
X105649000Y-99250000D01*
X105590809Y-99231093D01*
X105554845Y-99181593D01*
X105550000Y-99151000D01*
X105550000Y-98250001D01*
X105549999Y-98250000D01*
X105275013Y-98250000D01*
X105172312Y-98260492D01*
X105172300Y-98260495D01*
X105030640Y-98307437D01*
X104969456Y-98307793D01*
X104919747Y-98272118D01*
X104900502Y-98214038D01*
X104900500Y-98213462D01*
X104900500Y-97918318D01*
X104919407Y-97860127D01*
X104968907Y-97824163D01*
X105011301Y-97820024D01*
X105056898Y-97825500D01*
X105056900Y-97825500D01*
X105643100Y-97825500D01*
X105643102Y-97825500D01*
X105731564Y-97814877D01*
X105826728Y-97777348D01*
X105887795Y-97773590D01*
X105933049Y-97799442D01*
G37*
%TD.AperFunction*%
%TA.AperFunction,Conductor*%
G36*
X114345593Y-91217540D02*
G01*
X114374595Y-91241661D01*
X114374932Y-91241325D01*
X114378596Y-91244989D01*
X114379191Y-91245484D01*
X114379520Y-91245913D01*
X114680589Y-91546983D01*
X114708366Y-91601499D01*
X114708879Y-91628789D01*
X114699500Y-91706890D01*
X114699500Y-92318106D01*
X114710123Y-92406565D01*
X114765637Y-92547339D01*
X114765638Y-92547341D01*
X114765639Y-92547342D01*
X114857078Y-92667922D01*
X114977658Y-92759361D01*
X114977659Y-92759361D01*
X114977660Y-92759362D01*
X114992378Y-92765166D01*
X115118436Y-92814877D01*
X115191635Y-92823667D01*
X115209836Y-92825853D01*
X115209724Y-92826778D01*
X115263350Y-92847803D01*
X115296307Y-92899354D01*
X115299500Y-92924294D01*
X115299500Y-93250500D01*
X115280593Y-93308691D01*
X115231093Y-93344655D01*
X115200500Y-93349500D01*
X115095725Y-93349500D01*
X115065305Y-93352353D01*
X115065296Y-93352355D01*
X114937116Y-93397207D01*
X114827855Y-93477845D01*
X114827845Y-93477855D01*
X114747207Y-93587116D01*
X114702355Y-93715296D01*
X114702353Y-93715305D01*
X114699500Y-93745725D01*
X114699500Y-94013754D01*
X114680593Y-94071945D01*
X114631093Y-94107909D01*
X114572883Y-94108824D01*
X114552489Y-94102899D01*
X114515637Y-94100000D01*
X114112501Y-94100000D01*
X114112500Y-94100001D01*
X114112500Y-94649999D01*
X114112501Y-94650000D01*
X115097296Y-94650000D01*
X115100425Y-94646615D01*
X115112153Y-94597771D01*
X115158679Y-94558035D01*
X115196563Y-94550500D01*
X116379273Y-94550500D01*
X116379273Y-94550499D01*
X116409699Y-94547646D01*
X116537882Y-94502793D01*
X116647150Y-94422150D01*
X116690943Y-94362812D01*
X116720845Y-94322297D01*
X116770612Y-94286704D01*
X116831796Y-94287162D01*
X116881026Y-94323495D01*
X116899500Y-94381085D01*
X116899500Y-95418914D01*
X116880593Y-95477105D01*
X116831093Y-95513069D01*
X116769907Y-95513069D01*
X116720845Y-95477702D01*
X116647154Y-95377855D01*
X116647152Y-95377853D01*
X116647150Y-95377850D01*
X116647146Y-95377847D01*
X116647144Y-95377845D01*
X116537883Y-95297207D01*
X116409703Y-95252355D01*
X116409694Y-95252353D01*
X116379274Y-95249500D01*
X116379266Y-95249500D01*
X115196563Y-95249500D01*
X115138372Y-95230593D01*
X115102408Y-95181093D01*
X115098938Y-95151775D01*
X115097297Y-95150000D01*
X114112501Y-95150000D01*
X114112500Y-95150001D01*
X114112500Y-95699999D01*
X114112501Y-95700000D01*
X114515637Y-95700000D01*
X114552489Y-95697100D01*
X114572880Y-95691176D01*
X114634035Y-95693098D01*
X114682381Y-95730599D01*
X114699500Y-95786245D01*
X114699500Y-96054274D01*
X114702353Y-96084694D01*
X114702355Y-96084703D01*
X114747207Y-96212883D01*
X114827845Y-96322144D01*
X114827847Y-96322146D01*
X114827850Y-96322150D01*
X114827853Y-96322152D01*
X114827855Y-96322154D01*
X114937116Y-96402792D01*
X114937117Y-96402792D01*
X114937118Y-96402793D01*
X115065301Y-96447646D01*
X115095725Y-96450499D01*
X115095727Y-96450500D01*
X115095734Y-96450500D01*
X115400500Y-96450500D01*
X115458691Y-96469407D01*
X115494655Y-96518907D01*
X115499500Y-96549500D01*
X115499500Y-96950211D01*
X115492083Y-96973036D01*
X115487921Y-96996671D01*
X115482967Y-97001095D01*
X115480593Y-97008402D01*
X115443917Y-97039183D01*
X115440430Y-97040884D01*
X115377658Y-97065639D01*
X115355915Y-97082126D01*
X115347216Y-97086372D01*
X115326026Y-97089354D01*
X115305821Y-97096379D01*
X115296389Y-97093526D01*
X115286628Y-97094900D01*
X115267734Y-97084858D01*
X115247257Y-97078665D01*
X115233795Y-97067403D01*
X114845913Y-96679520D01*
X114845908Y-96679516D01*
X114754591Y-96626794D01*
X114754593Y-96626794D01*
X114715070Y-96616204D01*
X114652727Y-96599500D01*
X114652725Y-96599500D01*
X112906901Y-96599500D01*
X112848710Y-96580593D01*
X112836897Y-96570504D01*
X112578878Y-96312485D01*
X112269690Y-96003297D01*
X112241915Y-95948783D01*
X112251486Y-95888351D01*
X112260802Y-95873490D01*
X112335111Y-95775500D01*
X112389997Y-95636321D01*
X112400500Y-95548860D01*
X112400500Y-95150000D01*
X112627704Y-95150000D01*
X112627899Y-95152486D01*
X112627901Y-95152493D01*
X112673719Y-95310200D01*
X112673719Y-95310201D01*
X112757314Y-95451552D01*
X112873447Y-95567685D01*
X113014799Y-95651280D01*
X113172510Y-95697100D01*
X113209363Y-95700000D01*
X113612499Y-95700000D01*
X113612500Y-95699999D01*
X113612500Y-95150001D01*
X113612499Y-95150000D01*
X112627704Y-95150000D01*
X112400500Y-95150000D01*
X112400500Y-94976140D01*
X112389997Y-94888679D01*
X112335111Y-94749500D01*
X112259658Y-94650000D01*
X112627704Y-94650000D01*
X113612499Y-94650000D01*
X113612500Y-94649999D01*
X113612500Y-94100001D01*
X113612499Y-94100000D01*
X113209363Y-94100000D01*
X113172510Y-94102899D01*
X113014799Y-94148719D01*
X113014798Y-94148719D01*
X112873447Y-94232314D01*
X112757314Y-94348447D01*
X112673719Y-94489798D01*
X112673719Y-94489799D01*
X112627901Y-94647506D01*
X112627899Y-94647513D01*
X112627704Y-94650000D01*
X112259658Y-94650000D01*
X112244711Y-94630289D01*
X112125500Y-94539889D01*
X112125498Y-94539888D01*
X112125498Y-94539887D01*
X111986322Y-94485003D01*
X111898864Y-94474500D01*
X111895913Y-94474324D01*
X111895923Y-94474147D01*
X111895922Y-94474147D01*
X111895925Y-94474120D01*
X111895971Y-94473353D01*
X111884588Y-94469655D01*
X111868907Y-94469655D01*
X111856221Y-94460438D01*
X111841309Y-94455593D01*
X111832092Y-94442907D01*
X111819407Y-94433691D01*
X111814561Y-94418778D01*
X111805345Y-94406093D01*
X111800500Y-94375500D01*
X111800500Y-94260714D01*
X111800501Y-94260701D01*
X111800501Y-94147272D01*
X111800500Y-94147270D01*
X111773208Y-94045416D01*
X111773206Y-94045411D01*
X111748895Y-94003302D01*
X111748895Y-94003301D01*
X111720483Y-93954091D01*
X111720481Y-93954089D01*
X111720480Y-93954087D01*
X111686393Y-93920000D01*
X111658618Y-93865486D01*
X111668189Y-93805054D01*
X111686389Y-93780002D01*
X114230646Y-91235744D01*
X114285161Y-91207969D01*
X114345593Y-91217540D01*
G37*
%TD.AperFunction*%
%TA.AperFunction,Conductor*%
G36*
X109501396Y-93063263D02*
G01*
X109587515Y-93112984D01*
X109727525Y-93150500D01*
X109743099Y-93150500D01*
X109801290Y-93169407D01*
X109813103Y-93179496D01*
X110479519Y-93845911D01*
X110479520Y-93845913D01*
X110554087Y-93920480D01*
X110554088Y-93920480D01*
X110941903Y-94308295D01*
X110969680Y-94362812D01*
X110960109Y-94423244D01*
X110916844Y-94466509D01*
X110883704Y-94476593D01*
X110813676Y-94485003D01*
X110674501Y-94539887D01*
X110674501Y-94539888D01*
X110555292Y-94630286D01*
X110555286Y-94630292D01*
X110464888Y-94749501D01*
X110464887Y-94749501D01*
X110410003Y-94888677D01*
X110399500Y-94976135D01*
X110399500Y-95548864D01*
X110410003Y-95636322D01*
X110460425Y-95764181D01*
X110464184Y-95825251D01*
X110431329Y-95876867D01*
X110374410Y-95899313D01*
X110368328Y-95899500D01*
X109406901Y-95899500D01*
X109348710Y-95880593D01*
X109336897Y-95870504D01*
X108011845Y-94545452D01*
X107984068Y-94490935D01*
X107993639Y-94430503D01*
X108036904Y-94387238D01*
X108056214Y-94379825D01*
X108131784Y-94359577D01*
X108254132Y-94288939D01*
X108313979Y-94276218D01*
X108369875Y-94301105D01*
X108375107Y-94306583D01*
X108375160Y-94306531D01*
X108490021Y-94421393D01*
X108490030Y-94421400D01*
X108621058Y-94508951D01*
X108749999Y-94562360D01*
X108750000Y-94562359D01*
X108750000Y-93550001D01*
X109250000Y-93550001D01*
X109250000Y-94562360D01*
X109378941Y-94508951D01*
X109509969Y-94421400D01*
X109509973Y-94421397D01*
X109621397Y-94309973D01*
X109621400Y-94309969D01*
X109708947Y-94178949D01*
X109708951Y-94178940D01*
X109769257Y-94033349D01*
X109799999Y-93878795D01*
X109800000Y-93878792D01*
X109800000Y-93550001D01*
X109799999Y-93550000D01*
X109250001Y-93550000D01*
X109250000Y-93550001D01*
X108750000Y-93550001D01*
X108750000Y-93399000D01*
X108768907Y-93340809D01*
X108818407Y-93304845D01*
X108849000Y-93300000D01*
X108999999Y-93300000D01*
X109000000Y-93299999D01*
X109000000Y-93149000D01*
X109018907Y-93090809D01*
X109068407Y-93054845D01*
X109099000Y-93050000D01*
X109451898Y-93050000D01*
X109501396Y-93063263D01*
G37*
%TD.AperFunction*%
%TA.AperFunction,Conductor*%
G36*
X110922103Y-83723875D02*
G01*
X110930091Y-83723875D01*
X110969500Y-83748024D01*
X111061985Y-83840509D01*
X111061987Y-83840510D01*
X111061989Y-83840512D01*
X111187511Y-83912982D01*
X111187509Y-83912982D01*
X111187513Y-83912983D01*
X111187515Y-83912984D01*
X111276124Y-83936727D01*
X111327437Y-83970050D01*
X111347667Y-84022752D01*
X111348653Y-84022623D01*
X111349193Y-84026727D01*
X111349364Y-84027172D01*
X111349391Y-84028235D01*
X111349499Y-84029054D01*
X111349500Y-84029057D01*
X111390423Y-84181784D01*
X111461060Y-84304132D01*
X111473781Y-84363980D01*
X111448894Y-84419875D01*
X111443416Y-84425107D01*
X111443469Y-84425160D01*
X111328602Y-84540026D01*
X111328599Y-84540030D01*
X111241052Y-84671050D01*
X111241048Y-84671059D01*
X111187639Y-84800000D01*
X112351000Y-84800000D01*
X112409191Y-84818907D01*
X112445155Y-84868407D01*
X112450000Y-84899000D01*
X112450000Y-85201000D01*
X112431093Y-85259191D01*
X112381593Y-85295155D01*
X112351000Y-85300000D01*
X111187639Y-85300000D01*
X111241048Y-85428940D01*
X111241052Y-85428949D01*
X111328599Y-85559969D01*
X111328606Y-85559978D01*
X111443469Y-85674840D01*
X111442164Y-85676144D01*
X111471115Y-85721371D01*
X111467513Y-85782451D01*
X111461060Y-85795867D01*
X111390423Y-85918214D01*
X111376546Y-85970004D01*
X111349500Y-86070943D01*
X111349500Y-86229057D01*
X111390423Y-86381784D01*
X111469480Y-86518716D01*
X111580762Y-86629998D01*
X111608538Y-86684513D01*
X111598967Y-86744945D01*
X111580763Y-86770000D01*
X111469480Y-86881284D01*
X111390423Y-87018216D01*
X111349500Y-87170943D01*
X111349500Y-87329057D01*
X111390423Y-87481784D01*
X111469480Y-87618716D01*
X111580762Y-87729998D01*
X111608538Y-87784513D01*
X111598967Y-87844945D01*
X111580763Y-87870000D01*
X111469480Y-87981284D01*
X111390423Y-88118216D01*
X111349500Y-88270943D01*
X111349500Y-88429057D01*
X111390423Y-88581784D01*
X111469480Y-88718716D01*
X111580762Y-88829998D01*
X111608538Y-88884513D01*
X111598967Y-88944945D01*
X111580763Y-88970000D01*
X111469480Y-89081284D01*
X111390423Y-89218216D01*
X111349500Y-89370943D01*
X111349500Y-89529057D01*
X111390423Y-89681784D01*
X111469480Y-89818716D01*
X111580762Y-89929998D01*
X111608538Y-89984513D01*
X111598967Y-90044945D01*
X111580763Y-90070000D01*
X111469480Y-90181284D01*
X111390423Y-90318216D01*
X111349500Y-90470943D01*
X111349500Y-90629057D01*
X111390423Y-90781784D01*
X111469480Y-90918716D01*
X111581284Y-91030520D01*
X111718216Y-91109577D01*
X111870943Y-91150500D01*
X112444100Y-91150500D01*
X112502291Y-91169407D01*
X112538255Y-91218907D01*
X112538255Y-91280093D01*
X112514104Y-91319503D01*
X112114701Y-91718906D01*
X111726069Y-92107538D01*
X111671552Y-92135315D01*
X111611120Y-92125744D01*
X111586064Y-92107540D01*
X111538015Y-92059491D01*
X111538012Y-92059489D01*
X111538010Y-92059487D01*
X111412488Y-91987017D01*
X111412489Y-91987017D01*
X111382896Y-91979087D01*
X111272475Y-91949500D01*
X111272474Y-91949500D01*
X111256901Y-91949500D01*
X111198710Y-91930593D01*
X111186897Y-91920504D01*
X110916891Y-91650498D01*
X110645913Y-91379520D01*
X110645910Y-91379518D01*
X110645909Y-91379517D01*
X110645908Y-91379516D01*
X110554591Y-91326794D01*
X110554593Y-91326794D01*
X110515070Y-91316204D01*
X110452727Y-91299500D01*
X110452725Y-91299500D01*
X109649500Y-91299500D01*
X109591309Y-91280593D01*
X109555345Y-91231093D01*
X109550500Y-91200500D01*
X109550499Y-90249499D01*
X109569406Y-90191308D01*
X109618906Y-90155344D01*
X109649499Y-90150499D01*
X110544861Y-90150499D01*
X110544864Y-90150499D01*
X110569991Y-90147585D01*
X110672765Y-90102206D01*
X110752206Y-90022765D01*
X110797585Y-89919991D01*
X110800500Y-89894865D01*
X110800499Y-88905136D01*
X110797585Y-88880009D01*
X110752206Y-88777235D01*
X110744972Y-88770001D01*
X110717197Y-88715487D01*
X110726768Y-88655055D01*
X110744971Y-88629999D01*
X110752206Y-88622765D01*
X110797585Y-88519991D01*
X110800500Y-88494865D01*
X110800499Y-87505136D01*
X110797585Y-87480009D01*
X110752206Y-87377235D01*
X110744972Y-87370001D01*
X110717197Y-87315487D01*
X110726768Y-87255055D01*
X110744971Y-87229999D01*
X110752206Y-87222765D01*
X110797585Y-87119991D01*
X110800500Y-87094865D01*
X110800499Y-86105136D01*
X110797585Y-86080009D01*
X110752206Y-85977235D01*
X110744972Y-85970001D01*
X110717197Y-85915487D01*
X110726768Y-85855055D01*
X110744971Y-85829999D01*
X110752206Y-85822765D01*
X110797585Y-85719991D01*
X110800500Y-85694865D01*
X110800499Y-84705136D01*
X110797585Y-84680009D01*
X110752206Y-84577235D01*
X110744972Y-84570001D01*
X110717197Y-84515487D01*
X110726768Y-84455055D01*
X110744971Y-84429999D01*
X110752206Y-84422765D01*
X110797585Y-84319991D01*
X110800500Y-84294865D01*
X110800499Y-83818028D01*
X110807662Y-83795982D01*
X110811289Y-83773085D01*
X110816937Y-83767436D01*
X110819406Y-83759839D01*
X110838162Y-83746211D01*
X110854554Y-83729820D01*
X110862443Y-83728570D01*
X110868906Y-83723875D01*
X110892091Y-83723875D01*
X110914986Y-83720249D01*
X110922103Y-83723875D01*
G37*
%TD.AperFunction*%
%TA.AperFunction,Conductor*%
G36*
X105909191Y-75019407D02*
G01*
X105945155Y-75068907D01*
X105950000Y-75099500D01*
X105950000Y-75449999D01*
X105950001Y-75450000D01*
X106701000Y-75450000D01*
X106759191Y-75468907D01*
X106795155Y-75518407D01*
X106800000Y-75549000D01*
X106800000Y-75699999D01*
X106800001Y-75700000D01*
X106951000Y-75700000D01*
X107009191Y-75718907D01*
X107045155Y-75768407D01*
X107050000Y-75799000D01*
X107050000Y-76952000D01*
X107075012Y-76952000D01*
X107178941Y-76908951D01*
X107309969Y-76821400D01*
X107309978Y-76821393D01*
X107424840Y-76706531D01*
X107426148Y-76707839D01*
X107471346Y-76678890D01*
X107532426Y-76682476D01*
X107545857Y-76688934D01*
X107668216Y-76759577D01*
X107820943Y-76800500D01*
X107820945Y-76800500D01*
X107979055Y-76800500D01*
X107979057Y-76800500D01*
X108131784Y-76759577D01*
X108268716Y-76680520D01*
X108379998Y-76569237D01*
X108434513Y-76541462D01*
X108494945Y-76551033D01*
X108520000Y-76569236D01*
X108631284Y-76680520D01*
X108768216Y-76759577D01*
X108920943Y-76800500D01*
X108920945Y-76800500D01*
X109079055Y-76800500D01*
X109079057Y-76800500D01*
X109125378Y-76788088D01*
X109186478Y-76791290D01*
X109234028Y-76829796D01*
X109250000Y-76883715D01*
X109250000Y-79064510D01*
X109231093Y-79122701D01*
X109181593Y-79158665D01*
X109120407Y-79158665D01*
X109091671Y-79143763D01*
X109042090Y-79106647D01*
X109042088Y-79106646D01*
X108907381Y-79056403D01*
X108907370Y-79056401D01*
X108847824Y-79050000D01*
X108414340Y-79050000D01*
X108356149Y-79031093D01*
X108320185Y-78981593D01*
X108320185Y-78920407D01*
X108321582Y-78916403D01*
X108343596Y-78857378D01*
X108343598Y-78857370D01*
X108350000Y-78797824D01*
X108350000Y-78450001D01*
X108349999Y-78450000D01*
X107650001Y-78450000D01*
X107650000Y-78450001D01*
X107650000Y-78944999D01*
X107650001Y-78945000D01*
X107651000Y-78945000D01*
X107709191Y-78963907D01*
X107745155Y-79013407D01*
X107750000Y-79044000D01*
X107750000Y-87801000D01*
X107731093Y-87859191D01*
X107681593Y-87895155D01*
X107651000Y-87900000D01*
X107500001Y-87900000D01*
X107500000Y-87900001D01*
X107500000Y-88051000D01*
X107481093Y-88109191D01*
X107431593Y-88145155D01*
X107401000Y-88150000D01*
X101799000Y-88150000D01*
X101740809Y-88131093D01*
X101704845Y-88081593D01*
X101700000Y-88051000D01*
X101700000Y-87900001D01*
X101699999Y-87900000D01*
X101549000Y-87900000D01*
X101490809Y-87881093D01*
X101454845Y-87831593D01*
X101450000Y-87801000D01*
X101450000Y-84750001D01*
X101950000Y-84750001D01*
X101950000Y-87649999D01*
X101950001Y-87650000D01*
X104349999Y-87650000D01*
X104350000Y-87649999D01*
X104350000Y-84750001D01*
X104850000Y-84750001D01*
X104850000Y-87649999D01*
X104850001Y-87650000D01*
X107249999Y-87650000D01*
X107250000Y-87649999D01*
X107250000Y-84750001D01*
X107249999Y-84750000D01*
X104850001Y-84750000D01*
X104850000Y-84750001D01*
X104350000Y-84750001D01*
X104349999Y-84750000D01*
X101950001Y-84750000D01*
X101950000Y-84750001D01*
X101450000Y-84750001D01*
X101450000Y-81350001D01*
X101950000Y-81350001D01*
X101950000Y-84249999D01*
X101950001Y-84250000D01*
X104349999Y-84250000D01*
X104350000Y-84249999D01*
X104350000Y-81350001D01*
X104850000Y-81350001D01*
X104850000Y-84249999D01*
X104850001Y-84250000D01*
X107249999Y-84250000D01*
X107250000Y-84249999D01*
X107250000Y-81350001D01*
X107249999Y-81350000D01*
X104850001Y-81350000D01*
X104850000Y-81350001D01*
X104350000Y-81350001D01*
X104349999Y-81350000D01*
X101950001Y-81350000D01*
X101950000Y-81350001D01*
X101450000Y-81350001D01*
X101450000Y-79355001D01*
X101950000Y-79355001D01*
X101950000Y-80849999D01*
X101950001Y-80850000D01*
X107249999Y-80850000D01*
X107250000Y-80849999D01*
X107250000Y-79355001D01*
X107249999Y-79355000D01*
X107249000Y-79355000D01*
X107190809Y-79336093D01*
X107154845Y-79286593D01*
X107150000Y-79256000D01*
X107150000Y-77150001D01*
X107650000Y-77150001D01*
X107650000Y-77949999D01*
X107650001Y-77950000D01*
X108349999Y-77950000D01*
X108350000Y-77949999D01*
X108350000Y-77602175D01*
X108343598Y-77542629D01*
X108343596Y-77542618D01*
X108293353Y-77407911D01*
X108293352Y-77407909D01*
X108207192Y-77292815D01*
X108207184Y-77292807D01*
X108092090Y-77206647D01*
X108092088Y-77206646D01*
X107957381Y-77156403D01*
X107957370Y-77156401D01*
X107897824Y-77150000D01*
X107650001Y-77150000D01*
X107650000Y-77150001D01*
X107150000Y-77150001D01*
X107149999Y-77150000D01*
X106902176Y-77150000D01*
X106842629Y-77156401D01*
X106842618Y-77156403D01*
X106707911Y-77206646D01*
X106707909Y-77206647D01*
X106592809Y-77292812D01*
X106592808Y-77292812D01*
X106579939Y-77310003D01*
X106529929Y-77345254D01*
X106497724Y-77349173D01*
X106497724Y-77349500D01*
X106495043Y-77349500D01*
X106494986Y-77349507D01*
X106494865Y-77349500D01*
X106494864Y-77349500D01*
X105505139Y-77349500D01*
X105505136Y-77349501D01*
X105480009Y-77352414D01*
X105377233Y-77397795D01*
X105377232Y-77397795D01*
X105370001Y-77405027D01*
X105315483Y-77432803D01*
X105255052Y-77423229D01*
X105229999Y-77405027D01*
X105222766Y-77397795D01*
X105222765Y-77397794D01*
X105119991Y-77352415D01*
X105119990Y-77352414D01*
X105119988Y-77352414D01*
X105094868Y-77349500D01*
X104105125Y-77349500D01*
X104105004Y-77349508D01*
X104104977Y-77349500D01*
X104102278Y-77349501D01*
X104102278Y-77348792D01*
X104045822Y-77333979D01*
X104020056Y-77310000D01*
X104007190Y-77292813D01*
X104007184Y-77292807D01*
X103892090Y-77206647D01*
X103892088Y-77206646D01*
X103757381Y-77156403D01*
X103757370Y-77156401D01*
X103697824Y-77150000D01*
X103450001Y-77150000D01*
X103450000Y-77150001D01*
X103450000Y-78101000D01*
X103431093Y-78159191D01*
X103381593Y-78195155D01*
X103351000Y-78200000D01*
X103200001Y-78200000D01*
X103200000Y-78200001D01*
X103200000Y-78351000D01*
X103181093Y-78409191D01*
X103131593Y-78445155D01*
X103101000Y-78450000D01*
X102050001Y-78450000D01*
X102050000Y-78450001D01*
X102050000Y-79256000D01*
X102031093Y-79314191D01*
X101981593Y-79350155D01*
X101951000Y-79355000D01*
X101950001Y-79355000D01*
X101950000Y-79355001D01*
X101450000Y-79355001D01*
X101450000Y-79039000D01*
X101468907Y-78980809D01*
X101518407Y-78944845D01*
X101549000Y-78940000D01*
X101549999Y-78940000D01*
X101550000Y-78939999D01*
X101550000Y-78299000D01*
X101568907Y-78240809D01*
X101618407Y-78204845D01*
X101649000Y-78200000D01*
X101799999Y-78200000D01*
X101800000Y-78199999D01*
X101800000Y-78049000D01*
X101818907Y-77990809D01*
X101868407Y-77954845D01*
X101899000Y-77950000D01*
X102949999Y-77950000D01*
X102950000Y-77949999D01*
X102950000Y-77157399D01*
X102968907Y-77099208D01*
X102978990Y-77087402D01*
X103258242Y-76808149D01*
X103312757Y-76780373D01*
X103353866Y-76782526D01*
X103420943Y-76800500D01*
X103420945Y-76800500D01*
X103579055Y-76800500D01*
X103579057Y-76800500D01*
X103731784Y-76759577D01*
X103868716Y-76680520D01*
X103979998Y-76569237D01*
X104034513Y-76541462D01*
X104094945Y-76551033D01*
X104120000Y-76569236D01*
X104231284Y-76680520D01*
X104368216Y-76759577D01*
X104520943Y-76800500D01*
X104520945Y-76800500D01*
X104679055Y-76800500D01*
X104679057Y-76800500D01*
X104831784Y-76759577D01*
X104954132Y-76688939D01*
X105013979Y-76676218D01*
X105069875Y-76701105D01*
X105075107Y-76706583D01*
X105075160Y-76706531D01*
X105190021Y-76821393D01*
X105190030Y-76821400D01*
X105321058Y-76908951D01*
X105449999Y-76962360D01*
X105450000Y-76962359D01*
X105450000Y-75950001D01*
X105950000Y-75950001D01*
X105950000Y-76962360D01*
X106078940Y-76908951D01*
X106194998Y-76831404D01*
X106253886Y-76814795D01*
X106305002Y-76831404D01*
X106421059Y-76908951D01*
X106549999Y-76962360D01*
X106550000Y-76962359D01*
X106550000Y-75950001D01*
X106549999Y-75950000D01*
X105950001Y-75950000D01*
X105950000Y-75950001D01*
X105450000Y-75950001D01*
X105450000Y-75099500D01*
X105468907Y-75041309D01*
X105518407Y-75005345D01*
X105549000Y-75000500D01*
X105851000Y-75000500D01*
X105909191Y-75019407D01*
G37*
%TD.AperFunction*%
%TA.AperFunction,Conductor*%
G36*
X115684191Y-83118907D02*
G01*
X115720155Y-83168407D01*
X115725000Y-83199000D01*
X115725000Y-83776625D01*
X115809339Y-83765522D01*
X115809346Y-83765520D01*
X115946174Y-83708844D01*
X115946175Y-83708844D01*
X116063674Y-83618684D01*
X116063683Y-83618675D01*
X116121958Y-83542730D01*
X116172382Y-83508074D01*
X116233546Y-83509675D01*
X116282088Y-83546922D01*
X116299500Y-83602997D01*
X116299500Y-85575765D01*
X116280593Y-85633956D01*
X116231093Y-85669920D01*
X116196061Y-85674402D01*
X116196061Y-85674500D01*
X116195296Y-85674500D01*
X116194600Y-85674589D01*
X116193109Y-85674500D01*
X116193102Y-85674500D01*
X115481901Y-85674500D01*
X115474303Y-85672031D01*
X115466414Y-85673281D01*
X115445758Y-85662756D01*
X115423710Y-85655593D01*
X115411897Y-85645504D01*
X115385897Y-85619504D01*
X115358120Y-85564987D01*
X115367691Y-85504555D01*
X115410956Y-85461290D01*
X115455901Y-85450500D01*
X115572474Y-85450500D01*
X115572475Y-85450500D01*
X115712485Y-85412984D01*
X115712487Y-85412982D01*
X115712489Y-85412982D01*
X115838010Y-85340512D01*
X115838010Y-85340511D01*
X115838015Y-85340509D01*
X115940509Y-85238015D01*
X116012984Y-85112485D01*
X116050500Y-84972475D01*
X116050500Y-84827525D01*
X116012984Y-84687515D01*
X116012982Y-84687512D01*
X116012982Y-84687510D01*
X115940512Y-84561989D01*
X115940510Y-84561987D01*
X115940509Y-84561985D01*
X115838015Y-84459491D01*
X115838012Y-84459489D01*
X115838010Y-84459487D01*
X115712488Y-84387017D01*
X115712489Y-84387017D01*
X115626514Y-84363980D01*
X115572475Y-84349500D01*
X115572474Y-84349500D01*
X115556901Y-84349500D01*
X115498710Y-84330593D01*
X115486897Y-84320504D01*
X115429496Y-84263103D01*
X115401719Y-84208586D01*
X115400500Y-84193099D01*
X115400500Y-83879704D01*
X115408247Y-83855859D01*
X115413153Y-83831277D01*
X115417555Y-83827212D01*
X115419407Y-83821513D01*
X115439690Y-83806776D01*
X115458108Y-83789772D01*
X115462107Y-83787931D01*
X115475000Y-83776624D01*
X115475000Y-83199000D01*
X115479845Y-83184088D01*
X115479845Y-83168407D01*
X115489061Y-83155721D01*
X115493907Y-83140809D01*
X115506592Y-83131592D01*
X115515809Y-83118907D01*
X115530721Y-83114061D01*
X115543407Y-83104845D01*
X115574000Y-83100000D01*
X115626000Y-83100000D01*
X115684191Y-83118907D01*
G37*
%TD.AperFunction*%
%TA.AperFunction,Conductor*%
G36*
X114169504Y-77735897D02*
G01*
X114579249Y-78145642D01*
X114607026Y-78200159D01*
X114607539Y-78227449D01*
X114599500Y-78294390D01*
X114599500Y-78905606D01*
X114610123Y-78994065D01*
X114665637Y-79134839D01*
X114665638Y-79134841D01*
X114665639Y-79134842D01*
X114757078Y-79255422D01*
X114877658Y-79346861D01*
X114877659Y-79346861D01*
X114877660Y-79346862D01*
X114898297Y-79355000D01*
X115018436Y-79402377D01*
X115106898Y-79413000D01*
X115805599Y-79413000D01*
X115813196Y-79415468D01*
X115821086Y-79414219D01*
X115841741Y-79424743D01*
X115863790Y-79431907D01*
X115875603Y-79441996D01*
X115876603Y-79442996D01*
X115904380Y-79497513D01*
X115894809Y-79557945D01*
X115851544Y-79601210D01*
X115806599Y-79612000D01*
X115106893Y-79612000D01*
X115018434Y-79622623D01*
X114877660Y-79678137D01*
X114877656Y-79678140D01*
X114757081Y-79769575D01*
X114757075Y-79769581D01*
X114665640Y-79890156D01*
X114665637Y-79890160D01*
X114610123Y-80030934D01*
X114599500Y-80119393D01*
X114599500Y-80730606D01*
X114610123Y-80819065D01*
X114665637Y-80959839D01*
X114665638Y-80959841D01*
X114665639Y-80959842D01*
X114757078Y-81080422D01*
X114877658Y-81171861D01*
X114877659Y-81171861D01*
X114877660Y-81171862D01*
X114900498Y-81180868D01*
X115018436Y-81227377D01*
X115091635Y-81236167D01*
X115109836Y-81238353D01*
X115109724Y-81239278D01*
X115163350Y-81260303D01*
X115196307Y-81311854D01*
X115199500Y-81336794D01*
X115199500Y-81984476D01*
X115197811Y-82002682D01*
X115195339Y-82015889D01*
X115184780Y-82037491D01*
X115174500Y-82108051D01*
X115174500Y-82127276D01*
X115172811Y-82136304D01*
X115162349Y-82155494D01*
X115155593Y-82176289D01*
X115145504Y-82188101D01*
X114679520Y-82654086D01*
X114679516Y-82654091D01*
X114626794Y-82745408D01*
X114626792Y-82745412D01*
X114619951Y-82770941D01*
X114619952Y-82770942D01*
X114609425Y-82810232D01*
X114599500Y-82847273D01*
X114599500Y-84347273D01*
X114599500Y-84452727D01*
X114614733Y-84509577D01*
X114626794Y-84554592D01*
X114668548Y-84626911D01*
X114681270Y-84686759D01*
X114656383Y-84742655D01*
X114603395Y-84773248D01*
X114542545Y-84766852D01*
X114512808Y-84746415D01*
X114029496Y-84263103D01*
X114001719Y-84208586D01*
X114000500Y-84193099D01*
X114000500Y-83660634D01*
X114011666Y-83618963D01*
X114010500Y-83618480D01*
X114012977Y-83612496D01*
X114012984Y-83612485D01*
X114050500Y-83472475D01*
X114050500Y-83327525D01*
X114012984Y-83187515D01*
X114012982Y-83187512D01*
X114012982Y-83187510D01*
X113940512Y-83061989D01*
X113940510Y-83061987D01*
X113940509Y-83061985D01*
X113838015Y-82959491D01*
X113838012Y-82959489D01*
X113838010Y-82959487D01*
X113712488Y-82887017D01*
X113712484Y-82887015D01*
X113623876Y-82863272D01*
X113572562Y-82829948D01*
X113552333Y-82777247D01*
X113551347Y-82777377D01*
X113550806Y-82773269D01*
X113550636Y-82772826D01*
X113550608Y-82771765D01*
X113550500Y-82770944D01*
X113550500Y-82770943D01*
X113509577Y-82618216D01*
X113438938Y-82495865D01*
X113426218Y-82436019D01*
X113451105Y-82380124D01*
X113456583Y-82374892D01*
X113456531Y-82374840D01*
X113571393Y-82259978D01*
X113571400Y-82259969D01*
X113658947Y-82128949D01*
X113658951Y-82128940D01*
X113712361Y-82000000D01*
X112549000Y-82000000D01*
X112490809Y-81981093D01*
X112454845Y-81931593D01*
X112450000Y-81901000D01*
X112450000Y-81750001D01*
X112449999Y-81750000D01*
X112299000Y-81750000D01*
X112240809Y-81731093D01*
X112204845Y-81681593D01*
X112200000Y-81651000D01*
X112200000Y-80900001D01*
X112700000Y-80900001D01*
X112700000Y-81499999D01*
X112700001Y-81500000D01*
X113712360Y-81500000D01*
X113658951Y-81371059D01*
X113658947Y-81371051D01*
X113581404Y-81255002D01*
X113564795Y-81196114D01*
X113581404Y-81144998D01*
X113658947Y-81028948D01*
X113658951Y-81028940D01*
X113712361Y-80900000D01*
X112700001Y-80900000D01*
X112700000Y-80900001D01*
X112200000Y-80900001D01*
X112200000Y-80749000D01*
X112218907Y-80690809D01*
X112268407Y-80654845D01*
X112299000Y-80650000D01*
X112449999Y-80650000D01*
X112450000Y-80649999D01*
X112450000Y-80499000D01*
X112468907Y-80440809D01*
X112518407Y-80404845D01*
X112549000Y-80400000D01*
X113712360Y-80400000D01*
X113658951Y-80271059D01*
X113658947Y-80271050D01*
X113571400Y-80140030D01*
X113571393Y-80140021D01*
X113456531Y-80025160D01*
X113457835Y-80023855D01*
X113428882Y-79978622D01*
X113432488Y-79917543D01*
X113438937Y-79904136D01*
X113509577Y-79781784D01*
X113550500Y-79629057D01*
X113550500Y-79470943D01*
X113532527Y-79403866D01*
X113535730Y-79342765D01*
X113558148Y-79308243D01*
X113920480Y-78945913D01*
X113923894Y-78940000D01*
X113973205Y-78854592D01*
X113973205Y-78854590D01*
X113973207Y-78854588D01*
X114000500Y-78752727D01*
X114000500Y-78647273D01*
X114000500Y-77805901D01*
X114019407Y-77747710D01*
X114068907Y-77711746D01*
X114130093Y-77711746D01*
X114169504Y-77735897D01*
G37*
%TD.AperFunction*%
%TA.AperFunction,Conductor*%
G36*
X116858691Y-66519407D02*
G01*
X116894655Y-66568907D01*
X116899500Y-66599500D01*
X116899500Y-79094099D01*
X116880593Y-79152290D01*
X116831093Y-79188254D01*
X116769907Y-79188254D01*
X116730496Y-79164103D01*
X116620750Y-79054357D01*
X116592973Y-78999840D01*
X116592460Y-78972553D01*
X116600500Y-78905602D01*
X116600500Y-78294398D01*
X116589877Y-78205936D01*
X116534361Y-78065158D01*
X116442922Y-77944578D01*
X116322342Y-77853139D01*
X116322341Y-77853138D01*
X116322339Y-77853137D01*
X116181565Y-77797623D01*
X116093106Y-77787000D01*
X116093102Y-77787000D01*
X115394401Y-77787000D01*
X115336210Y-77768093D01*
X115324397Y-77758004D01*
X114529496Y-76963103D01*
X114525869Y-76955985D01*
X114519407Y-76951290D01*
X114512243Y-76929241D01*
X114501719Y-76908586D01*
X114500500Y-76893099D01*
X114500500Y-76719031D01*
X114519407Y-76660840D01*
X114529490Y-76649033D01*
X114540509Y-76638015D01*
X114612984Y-76512485D01*
X114650500Y-76372475D01*
X114650500Y-76227525D01*
X114612984Y-76087515D01*
X114612982Y-76087512D01*
X114612982Y-76087510D01*
X114540512Y-75961989D01*
X114540510Y-75961987D01*
X114540509Y-75961985D01*
X114438015Y-75859491D01*
X114438012Y-75859489D01*
X114438010Y-75859487D01*
X114312488Y-75787017D01*
X114312489Y-75787017D01*
X114243036Y-75768407D01*
X114172475Y-75749500D01*
X114099500Y-75749500D01*
X114041309Y-75730593D01*
X114005345Y-75681093D01*
X114000500Y-75650500D01*
X114000500Y-70374000D01*
X114019407Y-70315809D01*
X114068907Y-70279845D01*
X114099500Y-70275000D01*
X114621249Y-70275000D01*
X114679440Y-70293907D01*
X114712551Y-70339204D01*
X114713207Y-70338899D01*
X114714755Y-70342220D01*
X114715224Y-70342861D01*
X114715640Y-70344118D01*
X114715644Y-70344126D01*
X114807680Y-70493340D01*
X114931659Y-70617319D01*
X115080875Y-70709356D01*
X115247306Y-70764506D01*
X115350013Y-70774999D01*
X115424999Y-70774998D01*
X115425000Y-70774998D01*
X115425000Y-69425001D01*
X115925000Y-69425001D01*
X115925000Y-70774998D01*
X115925001Y-70774999D01*
X115999986Y-70774999D01*
X116102687Y-70764507D01*
X116102699Y-70764504D01*
X116269124Y-70709356D01*
X116418340Y-70617319D01*
X116542319Y-70493340D01*
X116634356Y-70344124D01*
X116689506Y-70177693D01*
X116700000Y-70074987D01*
X116700000Y-69425001D01*
X116699999Y-69425000D01*
X115925001Y-69425000D01*
X115925000Y-69425001D01*
X115425000Y-69425001D01*
X115425000Y-67575001D01*
X115925000Y-67575001D01*
X115925000Y-68924999D01*
X115925001Y-68925000D01*
X116699998Y-68925000D01*
X116699999Y-68924999D01*
X116699999Y-68275013D01*
X116689507Y-68172312D01*
X116689504Y-68172300D01*
X116634356Y-68005875D01*
X116542319Y-67856659D01*
X116418340Y-67732680D01*
X116269124Y-67640643D01*
X116102693Y-67585493D01*
X115999987Y-67575000D01*
X115925001Y-67575000D01*
X115925000Y-67575001D01*
X115425000Y-67575001D01*
X115425000Y-67574999D01*
X115350014Y-67575000D01*
X115350013Y-67575001D01*
X115247312Y-67585492D01*
X115247300Y-67585495D01*
X115130640Y-67624152D01*
X115069455Y-67624508D01*
X115019747Y-67588832D01*
X115000502Y-67530753D01*
X115000500Y-67530177D01*
X115000500Y-67331899D01*
X115000499Y-67331893D01*
X114997375Y-67305875D01*
X114989877Y-67243436D01*
X114949338Y-67140637D01*
X114934362Y-67102660D01*
X114934361Y-67102659D01*
X114934361Y-67102658D01*
X114842922Y-66982078D01*
X114722342Y-66890639D01*
X114722341Y-66890638D01*
X114722339Y-66890637D01*
X114581565Y-66835123D01*
X114493106Y-66824500D01*
X114493102Y-66824500D01*
X113906898Y-66824500D01*
X113906893Y-66824500D01*
X113818434Y-66835123D01*
X113677660Y-66890637D01*
X113677656Y-66890640D01*
X113557081Y-66982075D01*
X113557075Y-66982081D01*
X113465640Y-67102656D01*
X113465637Y-67102660D01*
X113410123Y-67243434D01*
X113399500Y-67331893D01*
X113399500Y-67530177D01*
X113380593Y-67588368D01*
X113331093Y-67624332D01*
X113269907Y-67624332D01*
X113269360Y-67624152D01*
X113152693Y-67585493D01*
X113049987Y-67575000D01*
X112975001Y-67575000D01*
X112975000Y-67575001D01*
X112975000Y-70774998D01*
X112975001Y-70774999D01*
X113049985Y-70774999D01*
X113090438Y-70770866D01*
X113150249Y-70783761D01*
X113191058Y-70829349D01*
X113199500Y-70869353D01*
X113199500Y-77563323D01*
X113180593Y-77621514D01*
X113131093Y-77657478D01*
X113081187Y-77660421D01*
X113028797Y-77650000D01*
X112700001Y-77650000D01*
X112700000Y-77650001D01*
X112700000Y-78351000D01*
X112681093Y-78409191D01*
X112631593Y-78445155D01*
X112601000Y-78450000D01*
X112299000Y-78450000D01*
X112240809Y-78431093D01*
X112204845Y-78381593D01*
X112200000Y-78351000D01*
X112200000Y-77650001D01*
X112199999Y-77650000D01*
X111871204Y-77650000D01*
X111716650Y-77680742D01*
X111571059Y-77741048D01*
X111571054Y-77741050D01*
X111554000Y-77752446D01*
X111495111Y-77769053D01*
X111437708Y-77747874D01*
X111403716Y-77697000D01*
X111400000Y-77670129D01*
X111400000Y-76900001D01*
X111400000Y-76900000D01*
X111399999Y-76900000D01*
X111317531Y-76900000D01*
X111259340Y-76881093D01*
X111223376Y-76831593D01*
X111223376Y-76770407D01*
X111247525Y-76730998D01*
X111340509Y-76638015D01*
X111412984Y-76512485D01*
X111450500Y-76372475D01*
X111450500Y-76227525D01*
X111412984Y-76087515D01*
X111412982Y-76087512D01*
X111412982Y-76087510D01*
X111340512Y-75961989D01*
X111340508Y-75961984D01*
X111233427Y-75854902D01*
X111234617Y-75853711D01*
X111204574Y-75809990D01*
X111200500Y-75781882D01*
X111200500Y-74747274D01*
X111200500Y-74747273D01*
X111198420Y-74739511D01*
X111173207Y-74645412D01*
X111158537Y-74620003D01*
X111120483Y-74554091D01*
X111120482Y-74554090D01*
X111120481Y-74554089D01*
X111120480Y-74554087D01*
X109679496Y-73113103D01*
X109651719Y-73058586D01*
X109650500Y-73043099D01*
X109650500Y-72106899D01*
X109650499Y-72106893D01*
X109649673Y-72100013D01*
X109639877Y-72018436D01*
X109584361Y-71877658D01*
X109492922Y-71757078D01*
X109372342Y-71665639D01*
X109372341Y-71665638D01*
X109366947Y-71661548D01*
X109367753Y-71660484D01*
X109331218Y-71620824D01*
X109324132Y-71560050D01*
X109354120Y-71506718D01*
X109390056Y-71485557D01*
X109469124Y-71459356D01*
X109618340Y-71367319D01*
X109742319Y-71243340D01*
X109834356Y-71094124D01*
X109889506Y-70927693D01*
X109900000Y-70824987D01*
X109900000Y-70550001D01*
X109899999Y-70550000D01*
X108999000Y-70550000D01*
X108940809Y-70531093D01*
X108904845Y-70481593D01*
X108900000Y-70451000D01*
X108900000Y-70300001D01*
X108899999Y-70300000D01*
X108749000Y-70300000D01*
X108690809Y-70281093D01*
X108654845Y-70231593D01*
X108650000Y-70201000D01*
X108650000Y-68350001D01*
X109150000Y-68350001D01*
X109150000Y-70049999D01*
X109150001Y-70050000D01*
X109899998Y-70050000D01*
X109899999Y-70049999D01*
X109899999Y-69775013D01*
X109889507Y-69672312D01*
X109889504Y-69672300D01*
X109834356Y-69505875D01*
X109791236Y-69435965D01*
X109791235Y-69435963D01*
X109784474Y-69425001D01*
X111700001Y-69425001D01*
X111700001Y-70074986D01*
X111710492Y-70177687D01*
X111710495Y-70177699D01*
X111765643Y-70344124D01*
X111857680Y-70493340D01*
X111981659Y-70617319D01*
X112130875Y-70709356D01*
X112297306Y-70764506D01*
X112400013Y-70774999D01*
X112474999Y-70774998D01*
X112475000Y-70774998D01*
X112475000Y-69425001D01*
X112474999Y-69425000D01*
X111700002Y-69425000D01*
X111700001Y-69425001D01*
X109784474Y-69425001D01*
X109742320Y-69356660D01*
X109655664Y-69270004D01*
X109627887Y-69215487D01*
X109637458Y-69155055D01*
X109655664Y-69129996D01*
X109742319Y-69043340D01*
X109834356Y-68894124D01*
X109889506Y-68727693D01*
X109900000Y-68624987D01*
X109900000Y-68350001D01*
X109899999Y-68350000D01*
X109150001Y-68350000D01*
X109150000Y-68350001D01*
X108650000Y-68350001D01*
X108650000Y-68275012D01*
X111700000Y-68275012D01*
X111700000Y-68924999D01*
X111700001Y-68925000D01*
X112474999Y-68925000D01*
X112475000Y-68924999D01*
X112475000Y-67574999D01*
X112400014Y-67575000D01*
X112400013Y-67575001D01*
X112297312Y-67585492D01*
X112297300Y-67585495D01*
X112130875Y-67640643D01*
X111981659Y-67732680D01*
X111857680Y-67856659D01*
X111765643Y-68005875D01*
X111710493Y-68172306D01*
X111700000Y-68275012D01*
X108650000Y-68275012D01*
X108650000Y-66875001D01*
X109150000Y-66875001D01*
X109150000Y-67849999D01*
X109150001Y-67850000D01*
X109899998Y-67850000D01*
X109899999Y-67849999D01*
X109899999Y-67575013D01*
X109899998Y-67574999D01*
X109889507Y-67472312D01*
X109889504Y-67472300D01*
X109834356Y-67305875D01*
X109742319Y-67156659D01*
X109618340Y-67032680D01*
X109469124Y-66940643D01*
X109302693Y-66885493D01*
X109199987Y-66875000D01*
X109150001Y-66875000D01*
X109150000Y-66875001D01*
X108650000Y-66875001D01*
X108650000Y-66874999D01*
X108600015Y-66875000D01*
X108600012Y-66875001D01*
X108497312Y-66885492D01*
X108497300Y-66885495D01*
X108330875Y-66940643D01*
X108181659Y-67032680D01*
X108057680Y-67156659D01*
X107965643Y-67305874D01*
X107937508Y-67390780D01*
X107901256Y-67440070D01*
X107842956Y-67458637D01*
X107784876Y-67439391D01*
X107751437Y-67395959D01*
X107734361Y-67352658D01*
X107642922Y-67232078D01*
X107522342Y-67140639D01*
X107522341Y-67140638D01*
X107522339Y-67140637D01*
X107381565Y-67085123D01*
X107293106Y-67074500D01*
X107293102Y-67074500D01*
X106706898Y-67074500D01*
X106706893Y-67074500D01*
X106618434Y-67085123D01*
X106477660Y-67140637D01*
X106477656Y-67140640D01*
X106357081Y-67232075D01*
X106357075Y-67232081D01*
X106265640Y-67352656D01*
X106265637Y-67352660D01*
X106210123Y-67493434D01*
X106199500Y-67581893D01*
X106199500Y-67600500D01*
X106194655Y-67615411D01*
X106194655Y-67631093D01*
X106185438Y-67643778D01*
X106180593Y-67658691D01*
X106167907Y-67667907D01*
X106158691Y-67680593D01*
X106143778Y-67685438D01*
X106131093Y-67694655D01*
X106100500Y-67699500D01*
X105999500Y-67699500D01*
X105941309Y-67680593D01*
X105905345Y-67631093D01*
X105900500Y-67600500D01*
X105900500Y-67581899D01*
X105900499Y-67581893D01*
X105899673Y-67575012D01*
X105889877Y-67493436D01*
X105851436Y-67395957D01*
X105834362Y-67352660D01*
X105834361Y-67352659D01*
X105834361Y-67352658D01*
X105742922Y-67232078D01*
X105622342Y-67140639D01*
X105622341Y-67140638D01*
X105622339Y-67140637D01*
X105481565Y-67085123D01*
X105393106Y-67074500D01*
X105393102Y-67074500D01*
X104806898Y-67074500D01*
X104806893Y-67074500D01*
X104718434Y-67085123D01*
X104577660Y-67140637D01*
X104577656Y-67140640D01*
X104457081Y-67232075D01*
X104457075Y-67232081D01*
X104365640Y-67352656D01*
X104365638Y-67352658D01*
X104348563Y-67395959D01*
X104309626Y-67443156D01*
X104250384Y-67458452D01*
X104193464Y-67436005D01*
X104162491Y-67390779D01*
X104134356Y-67305875D01*
X104042319Y-67156659D01*
X103918340Y-67032680D01*
X103769124Y-66940643D01*
X103602693Y-66885493D01*
X103499987Y-66875000D01*
X103450001Y-66875000D01*
X103450000Y-66875001D01*
X103450000Y-68600500D01*
X103431093Y-68658691D01*
X103381593Y-68694655D01*
X103351000Y-68699500D01*
X103049000Y-68699500D01*
X102990809Y-68680593D01*
X102954845Y-68631093D01*
X102950000Y-68600500D01*
X102950000Y-68350001D01*
X102949999Y-68350000D01*
X102200002Y-68350000D01*
X102200001Y-68350001D01*
X102200001Y-68600500D01*
X102181094Y-68658691D01*
X102131594Y-68694655D01*
X102101001Y-68699500D01*
X100994010Y-68699500D01*
X100935819Y-68680593D01*
X100899855Y-68631093D01*
X100895716Y-68588695D01*
X100900500Y-68548860D01*
X100900500Y-67976140D01*
X100889997Y-67888679D01*
X100846949Y-67779518D01*
X100835112Y-67749501D01*
X100746251Y-67632320D01*
X100744711Y-67630289D01*
X100671817Y-67575012D01*
X102200000Y-67575012D01*
X102200000Y-67849999D01*
X102200001Y-67850000D01*
X102949999Y-67850000D01*
X102950000Y-67849999D01*
X102950000Y-66874999D01*
X102900015Y-66875000D01*
X102900012Y-66875001D01*
X102797312Y-66885492D01*
X102797300Y-66885495D01*
X102630875Y-66940643D01*
X102481659Y-67032680D01*
X102357680Y-67156659D01*
X102265643Y-67305875D01*
X102210493Y-67472306D01*
X102200000Y-67575012D01*
X100671817Y-67575012D01*
X100625500Y-67539889D01*
X100625498Y-67539888D01*
X100625498Y-67539887D01*
X100486322Y-67485003D01*
X100398864Y-67474500D01*
X100398860Y-67474500D01*
X99401140Y-67474500D01*
X99401135Y-67474500D01*
X99313677Y-67485003D01*
X99174501Y-67539887D01*
X99174501Y-67539888D01*
X99055292Y-67630286D01*
X99055286Y-67630292D01*
X98964888Y-67749501D01*
X98964887Y-67749501D01*
X98910003Y-67888677D01*
X98899500Y-67976135D01*
X98899500Y-68548864D01*
X98910003Y-68636322D01*
X98964887Y-68775498D01*
X99019366Y-68847339D01*
X99055289Y-68894711D01*
X99174500Y-68985111D01*
X99174501Y-68985111D01*
X99174501Y-68985112D01*
X99277680Y-69025800D01*
X99313679Y-69039997D01*
X99401140Y-69050500D01*
X100043099Y-69050500D01*
X100050696Y-69052968D01*
X100058586Y-69051719D01*
X100079241Y-69062243D01*
X100101290Y-69069407D01*
X100113103Y-69079496D01*
X100214103Y-69180496D01*
X100241880Y-69235013D01*
X100232309Y-69295445D01*
X100189044Y-69338710D01*
X100144099Y-69349500D01*
X99401135Y-69349500D01*
X99313677Y-69360003D01*
X99174501Y-69414887D01*
X99174501Y-69414888D01*
X99055292Y-69505286D01*
X99055286Y-69505292D01*
X98964888Y-69624501D01*
X98964887Y-69624501D01*
X98910003Y-69763677D01*
X98899500Y-69851135D01*
X98899500Y-70423867D01*
X98907571Y-70491074D01*
X98895736Y-70551103D01*
X98850877Y-70592713D01*
X98790128Y-70600007D01*
X98739275Y-70572882D01*
X97929496Y-69763103D01*
X97901719Y-69708586D01*
X97900500Y-69693099D01*
X97900500Y-68047274D01*
X97900500Y-68047273D01*
X97879924Y-67970480D01*
X97879924Y-67970479D01*
X97879924Y-67970478D01*
X97875531Y-67954087D01*
X97873207Y-67945412D01*
X97840452Y-67888679D01*
X97820480Y-67854087D01*
X97745913Y-67779520D01*
X97745910Y-67779518D01*
X97245913Y-67279520D01*
X97245910Y-67279518D01*
X97245908Y-67279516D01*
X97154591Y-67226794D01*
X97154593Y-67226794D01*
X97115070Y-67216204D01*
X97052727Y-67199500D01*
X97052725Y-67199500D01*
X96039930Y-67199500D01*
X95981739Y-67180593D01*
X95947833Y-67136819D01*
X95934362Y-67102659D01*
X95842924Y-66982081D01*
X95842922Y-66982078D01*
X95722342Y-66890639D01*
X95722341Y-66890638D01*
X95722339Y-66890637D01*
X95581565Y-66835123D01*
X95493106Y-66824500D01*
X95493102Y-66824500D01*
X94906898Y-66824500D01*
X94906893Y-66824500D01*
X94818434Y-66835123D01*
X94677660Y-66890637D01*
X94677656Y-66890640D01*
X94557081Y-66982075D01*
X94557075Y-66982081D01*
X94465640Y-67102656D01*
X94465637Y-67102660D01*
X94410123Y-67243434D01*
X94399500Y-67331893D01*
X94399500Y-67530177D01*
X94380593Y-67588368D01*
X94331093Y-67624332D01*
X94269907Y-67624332D01*
X94269360Y-67624152D01*
X94152693Y-67585493D01*
X94049987Y-67575000D01*
X93975001Y-67575000D01*
X93975000Y-67575001D01*
X93975000Y-70774998D01*
X93975001Y-70774999D01*
X94049986Y-70774999D01*
X94152687Y-70764507D01*
X94152699Y-70764504D01*
X94319124Y-70709356D01*
X94468340Y-70617319D01*
X94592319Y-70493340D01*
X94684355Y-70344126D01*
X94684359Y-70344118D01*
X94684776Y-70342861D01*
X94685239Y-70342230D01*
X94686793Y-70338899D01*
X94687460Y-70339210D01*
X94721026Y-70293571D01*
X94778751Y-70275000D01*
X95621249Y-70275000D01*
X95679440Y-70293907D01*
X95712551Y-70339204D01*
X95713207Y-70338899D01*
X95714755Y-70342220D01*
X95715224Y-70342861D01*
X95715640Y-70344118D01*
X95715644Y-70344126D01*
X95807680Y-70493340D01*
X95931659Y-70617319D01*
X96080875Y-70709356D01*
X96247306Y-70764506D01*
X96350013Y-70774999D01*
X96424999Y-70774998D01*
X96425000Y-70774998D01*
X96425000Y-69274000D01*
X96443907Y-69215809D01*
X96493407Y-69179845D01*
X96524000Y-69175000D01*
X96826000Y-69175000D01*
X96884191Y-69193907D01*
X96920155Y-69243407D01*
X96925000Y-69274000D01*
X96925000Y-70774998D01*
X96925001Y-70774999D01*
X96999986Y-70774999D01*
X97102687Y-70764507D01*
X97102699Y-70764504D01*
X97269124Y-70709356D01*
X97418341Y-70617318D01*
X97418344Y-70617316D01*
X97464629Y-70571031D01*
X97519145Y-70543253D01*
X97579577Y-70552824D01*
X97604637Y-70571030D01*
X98170504Y-71136897D01*
X98174130Y-71144014D01*
X98180593Y-71148710D01*
X98187756Y-71170758D01*
X98198281Y-71191414D01*
X98199500Y-71206901D01*
X98199500Y-71302177D01*
X98180593Y-71360368D01*
X98131093Y-71396332D01*
X98088703Y-71400472D01*
X98080607Y-71399500D01*
X98080602Y-71399500D01*
X97469398Y-71399500D01*
X97469393Y-71399500D01*
X97380934Y-71410123D01*
X97240160Y-71465637D01*
X97240156Y-71465640D01*
X97119581Y-71557075D01*
X97119575Y-71557081D01*
X97028140Y-71677656D01*
X97028137Y-71677660D01*
X96972623Y-71818434D01*
X96962000Y-71906893D01*
X96962000Y-72500500D01*
X96943093Y-72558691D01*
X96893593Y-72594655D01*
X96863000Y-72599500D01*
X94934063Y-72599500D01*
X94875872Y-72580593D01*
X94875275Y-72580156D01*
X94762881Y-72497206D01*
X94634703Y-72452355D01*
X94634694Y-72452353D01*
X94604274Y-72449500D01*
X94604266Y-72449500D01*
X93320734Y-72449500D01*
X93320725Y-72449500D01*
X93290305Y-72452353D01*
X93290296Y-72452355D01*
X93162116Y-72497207D01*
X93052855Y-72577845D01*
X93052845Y-72577855D01*
X92972207Y-72687116D01*
X92927355Y-72815296D01*
X92927353Y-72815305D01*
X92924500Y-72845725D01*
X92924500Y-73254274D01*
X92927353Y-73284694D01*
X92927355Y-73284703D01*
X92972207Y-73412883D01*
X93052845Y-73522144D01*
X93052847Y-73522146D01*
X93052850Y-73522150D01*
X93052853Y-73522152D01*
X93052855Y-73522154D01*
X93162116Y-73602792D01*
X93162117Y-73602792D01*
X93162118Y-73602793D01*
X93290301Y-73647646D01*
X93320725Y-73650499D01*
X93320727Y-73650500D01*
X94503437Y-73650500D01*
X94561628Y-73669407D01*
X94597592Y-73718907D01*
X94601061Y-73748224D01*
X94602704Y-73750000D01*
X95738500Y-73750000D01*
X95796691Y-73768907D01*
X95832655Y-73818407D01*
X95837500Y-73849000D01*
X95837500Y-73999999D01*
X95837501Y-74000000D01*
X95988500Y-74000000D01*
X96046691Y-74018907D01*
X96082655Y-74068407D01*
X96087500Y-74099000D01*
X96087500Y-74799999D01*
X96087501Y-74800000D01*
X96490637Y-74800000D01*
X96527489Y-74797100D01*
X96685198Y-74751281D01*
X96703214Y-74740626D01*
X96762925Y-74727276D01*
X96819079Y-74751573D01*
X96839349Y-74776337D01*
X96879516Y-74845908D01*
X96879517Y-74845909D01*
X96879518Y-74845910D01*
X96879520Y-74845913D01*
X97574116Y-75540509D01*
X98264103Y-76230496D01*
X98291880Y-76285013D01*
X98282309Y-76345445D01*
X98239044Y-76388710D01*
X98194099Y-76399500D01*
X97052727Y-76399500D01*
X96947273Y-76399500D01*
X96845412Y-76426793D01*
X96845410Y-76426793D01*
X96845410Y-76426794D01*
X96836768Y-76431784D01*
X96836765Y-76431785D01*
X96754091Y-76479516D01*
X96754086Y-76479520D01*
X96679519Y-76554086D01*
X96679520Y-76554087D01*
X96679518Y-76554089D01*
X96679517Y-76554089D01*
X96348044Y-76885561D01*
X96303666Y-76911183D01*
X96245411Y-76926793D01*
X96245409Y-76926794D01*
X96197271Y-76954586D01*
X96197272Y-76954587D01*
X96154086Y-76979520D01*
X94703758Y-78429846D01*
X94678022Y-78442958D01*
X94652768Y-78456999D01*
X94650909Y-78456773D01*
X94649242Y-78457623D01*
X94620700Y-78453102D01*
X94592029Y-78449619D01*
X94590858Y-78448376D01*
X94588810Y-78448052D01*
X94547228Y-78407947D01*
X94544054Y-78402238D01*
X94534361Y-78377658D01*
X94519475Y-78358029D01*
X94516071Y-78351905D01*
X94511476Y-78328425D01*
X94503619Y-78305831D01*
X94505705Y-78298932D01*
X94504321Y-78291859D01*
X94514404Y-78270162D01*
X94521329Y-78247264D01*
X94529695Y-78237261D01*
X94530109Y-78236373D01*
X94530726Y-78236029D01*
X94532589Y-78233802D01*
X94920480Y-77845913D01*
X94973207Y-77754588D01*
X95000500Y-77652727D01*
X95000500Y-77547273D01*
X95000500Y-75547273D01*
X94998688Y-75540509D01*
X94973207Y-75445412D01*
X94953337Y-75410997D01*
X94940616Y-75351151D01*
X94951550Y-75315233D01*
X94952787Y-75312889D01*
X94952793Y-75312882D01*
X94997646Y-75184699D01*
X95000499Y-75154273D01*
X95000500Y-75154273D01*
X95000500Y-74886245D01*
X95019407Y-74828054D01*
X95068907Y-74792090D01*
X95127120Y-74791176D01*
X95147510Y-74797100D01*
X95184363Y-74800000D01*
X95587499Y-74800000D01*
X95587500Y-74799999D01*
X95587500Y-74250001D01*
X95587499Y-74250000D01*
X94602703Y-74250000D01*
X94599574Y-74253384D01*
X94587847Y-74302229D01*
X94541321Y-74341965D01*
X94503437Y-74349500D01*
X93320725Y-74349500D01*
X93290305Y-74352353D01*
X93290296Y-74352355D01*
X93162116Y-74397207D01*
X93052855Y-74477845D01*
X93052845Y-74477855D01*
X92972207Y-74587116D01*
X92927355Y-74715296D01*
X92927353Y-74715305D01*
X92924500Y-74745725D01*
X92924500Y-75154274D01*
X92927353Y-75184694D01*
X92927355Y-75184703D01*
X92972207Y-75312883D01*
X93052845Y-75422144D01*
X93052847Y-75422146D01*
X93052850Y-75422150D01*
X93052853Y-75422152D01*
X93052855Y-75422154D01*
X93162116Y-75502792D01*
X93162117Y-75502792D01*
X93162118Y-75502793D01*
X93290301Y-75547646D01*
X93320725Y-75550499D01*
X93320727Y-75550500D01*
X93320734Y-75550500D01*
X93943099Y-75550500D01*
X94001290Y-75569407D01*
X94013103Y-75579496D01*
X94170504Y-75736897D01*
X94174130Y-75744014D01*
X94180593Y-75748710D01*
X94187756Y-75770758D01*
X94198281Y-75791414D01*
X94199500Y-75806901D01*
X94199500Y-75976000D01*
X94180593Y-76034191D01*
X94131093Y-76070155D01*
X94100500Y-76075000D01*
X93850001Y-76075000D01*
X93850000Y-76075001D01*
X93850000Y-76988500D01*
X93831093Y-77046691D01*
X93781593Y-77082655D01*
X93751000Y-77087500D01*
X93449000Y-77087500D01*
X93390809Y-77068593D01*
X93354845Y-77019093D01*
X93350000Y-76988500D01*
X93350000Y-76075001D01*
X93349999Y-76075000D01*
X93100013Y-76075000D01*
X92997312Y-76085492D01*
X92997300Y-76085495D01*
X92830875Y-76140643D01*
X92681659Y-76232680D01*
X92669504Y-76244836D01*
X92614987Y-76272613D01*
X92554555Y-76263042D01*
X92511290Y-76219777D01*
X92500500Y-76174832D01*
X92500500Y-69425001D01*
X92700001Y-69425001D01*
X92700001Y-70074986D01*
X92710492Y-70177687D01*
X92710495Y-70177699D01*
X92765643Y-70344124D01*
X92857680Y-70493340D01*
X92981659Y-70617319D01*
X93130875Y-70709356D01*
X93297306Y-70764506D01*
X93400013Y-70774999D01*
X93474999Y-70774998D01*
X93475000Y-70774998D01*
X93475000Y-69425001D01*
X93474999Y-69425000D01*
X92700002Y-69425000D01*
X92700001Y-69425001D01*
X92500500Y-69425001D01*
X92500500Y-68275012D01*
X92700000Y-68275012D01*
X92700000Y-68924999D01*
X92700001Y-68925000D01*
X93474999Y-68925000D01*
X93475000Y-68924999D01*
X93475000Y-67574999D01*
X93400014Y-67575000D01*
X93400013Y-67575001D01*
X93297312Y-67585492D01*
X93297300Y-67585495D01*
X93130875Y-67640643D01*
X92981659Y-67732680D01*
X92857680Y-67856659D01*
X92765643Y-68005875D01*
X92710493Y-68172306D01*
X92700000Y-68275012D01*
X92500500Y-68275012D01*
X92500500Y-66599500D01*
X92519407Y-66541309D01*
X92568907Y-66505345D01*
X92599500Y-66500500D01*
X116800500Y-66500500D01*
X116858691Y-66519407D01*
G37*
%TD.AperFunction*%
%TA.AperFunction,Conductor*%
G36*
X102188516Y-69519407D02*
G01*
X102224480Y-69568907D01*
X102224480Y-69630093D01*
X102224300Y-69630640D01*
X102210493Y-69672306D01*
X102200000Y-69775012D01*
X102200000Y-70049999D01*
X102200001Y-70050000D01*
X102949999Y-70050000D01*
X102950000Y-70049999D01*
X102950000Y-69599500D01*
X102968907Y-69541309D01*
X103018407Y-69505345D01*
X103049000Y-69500500D01*
X103351000Y-69500500D01*
X103409191Y-69519407D01*
X103445155Y-69568907D01*
X103450000Y-69599500D01*
X103450000Y-71524998D01*
X103456386Y-71531384D01*
X103484163Y-71585901D01*
X103474592Y-71646333D01*
X103431327Y-71689598D01*
X103417522Y-71695363D01*
X103280875Y-71740643D01*
X103131659Y-71832680D01*
X103007680Y-71956659D01*
X102915643Y-72105874D01*
X102887508Y-72190780D01*
X102851256Y-72240070D01*
X102792956Y-72258637D01*
X102734876Y-72239391D01*
X102701437Y-72195959D01*
X102684361Y-72152658D01*
X102592922Y-72032078D01*
X102472342Y-71940639D01*
X102472341Y-71940638D01*
X102472339Y-71940637D01*
X102331565Y-71885123D01*
X102243106Y-71874500D01*
X102243102Y-71874500D01*
X101656898Y-71874500D01*
X101656893Y-71874500D01*
X101568434Y-71885123D01*
X101427660Y-71940637D01*
X101427656Y-71940640D01*
X101307081Y-72032075D01*
X101307075Y-72032081D01*
X101215640Y-72152656D01*
X101215637Y-72152660D01*
X101160123Y-72293434D01*
X101149500Y-72381893D01*
X101149500Y-73418106D01*
X101160123Y-73506565D01*
X101215637Y-73647339D01*
X101215638Y-73647341D01*
X101215639Y-73647342D01*
X101307078Y-73767922D01*
X101427658Y-73859361D01*
X101427659Y-73859361D01*
X101427660Y-73859362D01*
X101568428Y-73914874D01*
X101568436Y-73914877D01*
X101568443Y-73914877D01*
X101569349Y-73915107D01*
X101569904Y-73915456D01*
X101573831Y-73917004D01*
X101575918Y-73917010D01*
X101588134Y-73926927D01*
X101621136Y-73947692D01*
X101625332Y-73953093D01*
X101628301Y-73957201D01*
X101679520Y-74045913D01*
X101726100Y-74092493D01*
X101730733Y-74098902D01*
X101737809Y-74120860D01*
X101748281Y-74141413D01*
X101749500Y-74156900D01*
X101749500Y-74172475D01*
X101758617Y-74206499D01*
X101779429Y-74284172D01*
X101776226Y-74345274D01*
X101753806Y-74379799D01*
X101541756Y-74591849D01*
X101487239Y-74619626D01*
X101446131Y-74617472D01*
X101379057Y-74599500D01*
X101220943Y-74599500D01*
X101068216Y-74640423D01*
X100931284Y-74719480D01*
X100820001Y-74830762D01*
X100765487Y-74858538D01*
X100705055Y-74848967D01*
X100679999Y-74830763D01*
X100568716Y-74719480D01*
X100431784Y-74640423D01*
X100279057Y-74599500D01*
X100120943Y-74599500D01*
X99968216Y-74640423D01*
X99831284Y-74719480D01*
X99719480Y-74831284D01*
X99640423Y-74968216D01*
X99626707Y-75019407D01*
X99599500Y-75120944D01*
X99599500Y-75693099D01*
X99580593Y-75751290D01*
X99570503Y-75763103D01*
X99426068Y-75907537D01*
X99371552Y-75935314D01*
X99311120Y-75925742D01*
X99286062Y-75907537D01*
X99238016Y-75859491D01*
X99238010Y-75859487D01*
X99112488Y-75787017D01*
X99112489Y-75787017D01*
X99043036Y-75768407D01*
X98972475Y-75749500D01*
X98972474Y-75749500D01*
X98956901Y-75749500D01*
X98898710Y-75730593D01*
X98886897Y-75720504D01*
X97786396Y-74620003D01*
X97758619Y-74565486D01*
X97768190Y-74505054D01*
X97786390Y-74480002D01*
X98920480Y-73345913D01*
X98920481Y-73345910D01*
X98925068Y-73341324D01*
X98926324Y-73342580D01*
X98969776Y-73312701D01*
X99030940Y-73314287D01*
X99057734Y-73328731D01*
X99065158Y-73334361D01*
X99065159Y-73334361D01*
X99065160Y-73334362D01*
X99135547Y-73362119D01*
X99205936Y-73389877D01*
X99294398Y-73400500D01*
X99294400Y-73400500D01*
X99905600Y-73400500D01*
X99905602Y-73400500D01*
X99994064Y-73389877D01*
X100134842Y-73334361D01*
X100255422Y-73242922D01*
X100346861Y-73122342D01*
X100402377Y-72981564D01*
X100413000Y-72893102D01*
X100413000Y-71906898D01*
X100402377Y-71818436D01*
X100346861Y-71677658D01*
X100346859Y-71677656D01*
X100346857Y-71677652D01*
X100320616Y-71643047D01*
X100300521Y-71585256D01*
X100300500Y-71583229D01*
X100300500Y-71024500D01*
X100319407Y-70966309D01*
X100368907Y-70930345D01*
X100395936Y-70926064D01*
X100395925Y-70925879D01*
X100395922Y-70925853D01*
X100395923Y-70925852D01*
X100395913Y-70925676D01*
X100398847Y-70925500D01*
X100398860Y-70925500D01*
X100486321Y-70914997D01*
X100602064Y-70869353D01*
X100625498Y-70860112D01*
X100625498Y-70860111D01*
X100625500Y-70860111D01*
X100744711Y-70769711D01*
X100835111Y-70650500D01*
X100874743Y-70550001D01*
X102200001Y-70550001D01*
X102200001Y-70824986D01*
X102210492Y-70927687D01*
X102210495Y-70927699D01*
X102265643Y-71094124D01*
X102357680Y-71243340D01*
X102481659Y-71367319D01*
X102630875Y-71459356D01*
X102797306Y-71514506D01*
X102900013Y-71524999D01*
X102950000Y-71524998D01*
X102950000Y-70550001D01*
X102949999Y-70550000D01*
X102200002Y-70550000D01*
X102200001Y-70550001D01*
X100874743Y-70550001D01*
X100889997Y-70511321D01*
X100900500Y-70423860D01*
X100900500Y-69851140D01*
X100889997Y-69763679D01*
X100862296Y-69693436D01*
X100839575Y-69635819D01*
X100835816Y-69574749D01*
X100868671Y-69523133D01*
X100925590Y-69500687D01*
X100931672Y-69500500D01*
X102130325Y-69500500D01*
X102188516Y-69519407D01*
G37*
%TD.AperFunction*%
%TA.AperFunction,Conductor*%
G36*
X106115412Y-70705345D02*
G01*
X106131093Y-70705345D01*
X106143778Y-70714561D01*
X106158691Y-70719407D01*
X106167907Y-70732092D01*
X106180593Y-70741309D01*
X106185438Y-70756221D01*
X106194655Y-70768907D01*
X106199500Y-70799500D01*
X106199500Y-70818106D01*
X106210123Y-70906565D01*
X106265637Y-71047339D01*
X106265638Y-71047341D01*
X106265639Y-71047342D01*
X106357078Y-71167922D01*
X106477658Y-71259361D01*
X106618436Y-71314877D01*
X106706898Y-71325500D01*
X106718099Y-71325500D01*
X106776290Y-71344407D01*
X106788103Y-71354496D01*
X107870504Y-72436897D01*
X107898281Y-72491414D01*
X107899500Y-72506901D01*
X107899500Y-73493106D01*
X107910123Y-73581565D01*
X107965637Y-73722339D01*
X107965638Y-73722341D01*
X107965639Y-73722342D01*
X108057078Y-73842922D01*
X108177658Y-73934361D01*
X108177659Y-73934361D01*
X108177660Y-73934362D01*
X108211463Y-73947692D01*
X108318436Y-73989877D01*
X108406898Y-74000500D01*
X108406900Y-74000500D01*
X109143100Y-74000500D01*
X109143102Y-74000500D01*
X109231564Y-73989877D01*
X109308797Y-73959419D01*
X109369867Y-73955661D01*
X109415120Y-73981513D01*
X109474475Y-74040868D01*
X109502252Y-74095385D01*
X109492681Y-74155817D01*
X109449416Y-74199082D01*
X109388984Y-74208653D01*
X109378850Y-74206499D01*
X109352729Y-74199500D01*
X109352727Y-74199500D01*
X106700168Y-74199500D01*
X106641977Y-74180593D01*
X106606013Y-74131093D01*
X106606013Y-74069907D01*
X106630164Y-74030496D01*
X106742319Y-73918340D01*
X106834356Y-73769124D01*
X106889506Y-73602693D01*
X106900000Y-73499987D01*
X106900000Y-73050001D01*
X106899999Y-73050000D01*
X106075001Y-73050000D01*
X106075000Y-73050001D01*
X106075000Y-74100500D01*
X106056093Y-74158691D01*
X106006593Y-74194655D01*
X105976000Y-74199500D01*
X105674000Y-74199500D01*
X105615809Y-74180593D01*
X105579845Y-74131093D01*
X105575000Y-74100500D01*
X105575000Y-73050001D01*
X105574999Y-73050000D01*
X104955001Y-73050000D01*
X104955000Y-73050001D01*
X104955000Y-73051000D01*
X104936093Y-73109191D01*
X104886593Y-73145155D01*
X104856000Y-73150000D01*
X103949000Y-73150000D01*
X103890809Y-73131093D01*
X103854845Y-73081593D01*
X103850000Y-73051000D01*
X103850000Y-72900001D01*
X103849999Y-72900000D01*
X103699000Y-72900000D01*
X103640809Y-72881093D01*
X103604845Y-72831593D01*
X103600000Y-72801000D01*
X103600000Y-71675000D01*
X103593615Y-71668615D01*
X103565838Y-71614098D01*
X103575409Y-71553666D01*
X103618674Y-71510401D01*
X103632479Y-71504636D01*
X103769124Y-71459356D01*
X103918340Y-71367319D01*
X104042319Y-71243340D01*
X104134356Y-71094124D01*
X104162491Y-71009220D01*
X104198742Y-70959930D01*
X104257042Y-70941362D01*
X104315122Y-70960607D01*
X104348563Y-71004041D01*
X104365637Y-71047339D01*
X104365638Y-71047341D01*
X104365639Y-71047342D01*
X104457078Y-71167922D01*
X104577658Y-71259361D01*
X104577659Y-71259361D01*
X104577660Y-71259362D01*
X104648047Y-71287119D01*
X104718436Y-71314877D01*
X104806898Y-71325500D01*
X104806900Y-71325500D01*
X105058999Y-71325500D01*
X105117190Y-71344407D01*
X105153154Y-71393907D01*
X105153154Y-71455093D01*
X105117190Y-71504593D01*
X105110971Y-71508761D01*
X105031659Y-71557680D01*
X104907680Y-71681659D01*
X104815643Y-71830874D01*
X104804128Y-71865626D01*
X104767876Y-71914916D01*
X104709576Y-71933483D01*
X104651496Y-71914237D01*
X104640149Y-71904489D01*
X104568340Y-71832680D01*
X104419124Y-71740643D01*
X104252693Y-71685493D01*
X104149987Y-71675000D01*
X104100001Y-71675000D01*
X104100000Y-71675001D01*
X104100000Y-72649999D01*
X104100001Y-72650000D01*
X104644999Y-72650000D01*
X104645000Y-72649999D01*
X104645000Y-72649000D01*
X104663907Y-72590809D01*
X104713407Y-72554845D01*
X104744000Y-72550000D01*
X105574999Y-72550000D01*
X105575000Y-72549999D01*
X105575000Y-71400001D01*
X106075000Y-71400001D01*
X106075000Y-72549999D01*
X106075001Y-72550000D01*
X106899998Y-72550000D01*
X106899999Y-72549999D01*
X106899999Y-72100013D01*
X106889507Y-71997312D01*
X106889504Y-71997300D01*
X106834356Y-71830875D01*
X106742319Y-71681659D01*
X106618340Y-71557680D01*
X106483472Y-71474493D01*
X106418446Y-71448849D01*
X106302693Y-71410493D01*
X106199987Y-71400000D01*
X106075001Y-71400000D01*
X106075000Y-71400001D01*
X105575000Y-71400001D01*
X105575000Y-71381466D01*
X105566476Y-71364737D01*
X105576047Y-71304305D01*
X105616883Y-71263468D01*
X105616440Y-71262679D01*
X105619256Y-71261095D01*
X105619312Y-71261040D01*
X105619526Y-71260943D01*
X105622333Y-71259364D01*
X105622342Y-71259361D01*
X105742922Y-71167922D01*
X105834361Y-71047342D01*
X105889877Y-70906564D01*
X105900500Y-70818102D01*
X105900500Y-70799500D01*
X105919407Y-70741309D01*
X105968907Y-70705345D01*
X105999500Y-70700500D01*
X106100500Y-70700500D01*
X106115412Y-70705345D01*
G37*
%TD.AperFunction*%
%TD*%
M02*
