%TF.GenerationSoftware,KiCad,Pcbnew,9.0.2*%
%TF.CreationDate,2026-07-22T16:19:36+03:00*%
%TF.ProjectId,sim7080g,73696d37-3038-4306-972e-6b696361645f,rev?*%
%TF.SameCoordinates,Original*%
%TF.FileFunction,Copper,L4,Bot*%
%TF.FilePolarity,Positive*%
%FSLAX46Y46*%
G04 Gerber Fmt 4.6, Leading zero omitted, Abs format (unit mm)*
G04 Created by KiCad (PCBNEW 9.0.2) date 2026-07-22 16:19:36*
%MOMM*%
%LPD*%
G01*
G04 APERTURE LIST*
G04 Aperture macros list*
%AMFreePoly0*
4,1,23,0.500000,-0.750000,0.000000,-0.750000,0.000000,-0.745722,-0.065263,-0.745722,-0.191342,-0.711940,-0.304381,-0.646677,-0.396677,-0.554381,-0.461940,-0.441342,-0.495722,-0.315263,-0.495722,-0.250000,-0.500000,-0.250000,-0.500000,0.250000,-0.495722,0.250000,-0.495722,0.315263,-0.461940,0.441342,-0.396677,0.554381,-0.304381,0.646677,-0.191342,0.711940,-0.065263,0.745722,0.000000,0.745722,
0.000000,0.750000,0.500000,0.750000,0.500000,-0.750000,0.500000,-0.750000,$1*%
%AMFreePoly1*
4,1,23,0.000000,0.745722,0.065263,0.745722,0.191342,0.711940,0.304381,0.646677,0.396677,0.554381,0.461940,0.441342,0.495722,0.315263,0.495722,0.250000,0.500000,0.250000,0.500000,-0.250000,0.495722,-0.250000,0.495722,-0.315263,0.461940,-0.441342,0.396677,-0.554381,0.304381,-0.646677,0.191342,-0.711940,0.065263,-0.745722,0.000000,-0.745722,0.000000,-0.750000,-0.500000,-0.750000,
-0.500000,0.750000,0.000000,0.750000,0.000000,0.745722,0.000000,0.745722,$1*%
G04 Aperture macros list end*
%TA.AperFunction,SMDPad,CuDef*%
%ADD10FreePoly0,0.000000*%
%TD*%
%TA.AperFunction,SMDPad,CuDef*%
%ADD11FreePoly1,0.000000*%
%TD*%
%TA.AperFunction,SMDPad,CuDef*%
%ADD12FreePoly0,270.000000*%
%TD*%
%TA.AperFunction,SMDPad,CuDef*%
%ADD13FreePoly1,270.000000*%
%TD*%
%TA.AperFunction,ComponentPad*%
%ADD14R,1.700000X1.700000*%
%TD*%
%TA.AperFunction,ComponentPad*%
%ADD15C,1.700000*%
%TD*%
%TA.AperFunction,ViaPad*%
%ADD16C,0.500000*%
%TD*%
%TA.AperFunction,ViaPad*%
%ADD17C,0.700000*%
%TD*%
%TA.AperFunction,ViaPad*%
%ADD18C,0.250000*%
%TD*%
%TA.AperFunction,Conductor*%
%ADD19C,0.199999*%
%TD*%
%TA.AperFunction,Conductor*%
%ADD20C,0.199800*%
%TD*%
%TA.AperFunction,Conductor*%
%ADD21C,0.100000*%
%TD*%
G04 APERTURE END LIST*
D10*
%TO.P,JP2,1,A*%
%TO.N,Net-(JP2-A)*%
X105800000Y-97100000D03*
D11*
%TO.P,JP2,2,B*%
%TO.N,SIM7080G_RTS*%
X107100000Y-97100000D03*
%TD*%
D12*
%TO.P,JP1,1,A*%
%TO.N,Net-(D1-A2)*%
X115600000Y-85000000D03*
D13*
%TO.P,JP1,2,B*%
%TO.N,Net-(JP1-B)*%
X115600000Y-86300000D03*
%TD*%
D14*
%TO.P,J2,1,Pin_1*%
%TO.N,SIM7080G_DTR*%
X93300000Y-101510000D03*
D15*
%TO.P,J2,2,Pin_2*%
%TO.N,SIM7080G_PWR*%
X93300000Y-104050000D03*
%TO.P,J2,3,Pin_3*%
%TO.N,SIM7080G_RTS*%
X93300000Y-106590000D03*
%TO.P,J2,4,Pin_4*%
%TO.N,unconnected-(J2-Pin_4-Pad4)*%
X93300000Y-109130000D03*
%TO.P,J2,5,Pin_5*%
%TO.N,unconnected-(J2-Pin_5-Pad5)*%
X93300000Y-111670000D03*
%TO.P,J2,6,Pin_6*%
%TO.N,unconnected-(J2-Pin_6-Pad6)*%
X93300000Y-114210000D03*
%TO.P,J2,7,Pin_7*%
%TO.N,+3V3*%
X93300000Y-116750000D03*
%TO.P,J2,8,Pin_8*%
%TO.N,GND*%
X93300000Y-119290000D03*
%TD*%
D14*
%TO.P,J3,1,Pin_1*%
%TO.N,SIM7080G_RING*%
X116160000Y-101510000D03*
D15*
%TO.P,J3,2,Pin_2*%
%TO.N,SIM7080G_CTS*%
X116160000Y-104050000D03*
%TO.P,J3,3,Pin_3*%
%TO.N,SIM7080G_TX*%
X116160000Y-106590000D03*
%TO.P,J3,4,Pin_4*%
%TO.N,SIM7080G_RX*%
X116160000Y-109130000D03*
%TO.P,J3,5,Pin_5*%
%TO.N,unconnected-(J3-Pin_5-Pad5)*%
X116160000Y-111670000D03*
%TO.P,J3,6,Pin_6*%
%TO.N,unconnected-(J3-Pin_6-Pad6)*%
X116160000Y-114210000D03*
%TO.P,J3,7,Pin_7*%
%TO.N,unconnected-(J3-Pin_7-Pad7)*%
X116160000Y-116750000D03*
%TO.P,J3,8,Pin_8*%
%TO.N,GND*%
X116160000Y-119290000D03*
%TD*%
D10*
%TO.P,JP3,1,A*%
%TO.N,Net-(JP3-A)*%
X105800000Y-99800000D03*
D11*
%TO.P,JP3,2,B*%
%TO.N,SIM7080G_CTS*%
X107100000Y-99800000D03*
%TD*%
D16*
%TO.N,GND*%
X101700000Y-79200000D03*
X95337500Y-94600000D03*
X96750000Y-86150000D03*
X96900000Y-100587500D03*
X94200000Y-91700000D03*
X103200000Y-77300000D03*
X115675000Y-69175000D03*
X112725000Y-69175000D03*
X101700000Y-86400000D03*
X107400000Y-77300000D03*
X111000000Y-122100000D03*
X106800000Y-93300000D03*
X93600000Y-77087500D03*
X104600000Y-84500000D03*
X113600000Y-81800000D03*
X113862500Y-94900000D03*
X103400000Y-103850000D03*
X93725000Y-69175000D03*
X104600000Y-87900000D03*
X99600000Y-105700000D03*
X95837500Y-74000000D03*
X105800000Y-103775000D03*
X99250000Y-82400000D03*
X106800000Y-94400000D03*
X111050000Y-112002500D03*
X99300000Y-122100000D03*
X113600000Y-80600000D03*
X107500000Y-86400000D03*
X104600000Y-89800000D03*
X98300000Y-82400000D03*
D17*
X111700000Y-73200000D03*
D16*
X105200000Y-98700000D03*
X106800000Y-74500000D03*
X105825000Y-72800000D03*
X112450000Y-85050000D03*
D17*
X97300000Y-97100000D03*
D16*
X104600000Y-81100000D03*
X104600000Y-86400000D03*
X101700000Y-84500000D03*
X112450000Y-81750000D03*
X107500000Y-89800000D03*
X105700000Y-74500000D03*
X103300000Y-107902500D03*
X112400000Y-103775000D03*
X107400000Y-78200000D03*
X106800000Y-75700000D03*
X109000000Y-94400000D03*
X107500000Y-79200000D03*
X107500000Y-87900000D03*
X103200000Y-78200000D03*
X99350000Y-120802500D03*
X115700000Y-90187500D03*
D17*
X111400000Y-91800000D03*
D16*
X103200000Y-68100000D03*
X113600000Y-85000000D03*
X95600000Y-86200000D03*
X99300000Y-110800000D03*
X107500000Y-84500000D03*
X103100000Y-98400000D03*
X107500000Y-81100000D03*
X99350000Y-112002500D03*
X98400000Y-99200000D03*
X103850000Y-72900000D03*
X99200000Y-98400000D03*
X111000000Y-99325000D03*
X101700000Y-81100000D03*
X108900000Y-68100000D03*
X115600000Y-83100000D03*
X108900000Y-70300000D03*
X101800000Y-77300000D03*
X109000000Y-93300000D03*
X107800000Y-96100000D03*
D17*
X98600000Y-91900000D03*
D16*
X99100000Y-99200000D03*
X103300000Y-107000000D03*
X100200000Y-94400000D03*
D17*
X114000000Y-107700000D03*
D16*
X103200000Y-70300000D03*
X101700000Y-87900000D03*
X100200000Y-93300000D03*
X101700000Y-89800000D03*
X113600000Y-78400000D03*
X111000000Y-110800000D03*
X96675000Y-69175000D03*
X112450000Y-78450000D03*
X111050000Y-120802500D03*
X104600000Y-79200000D03*
%TO.N,+1V8*%
X103000000Y-95400000D03*
D17*
X110800000Y-82800000D03*
X106300000Y-95100000D03*
D16*
X102400000Y-74500000D03*
D18*
X105000000Y-96450000D03*
D17*
%TO.N,+3V3*%
X115100000Y-79100000D03*
X113600000Y-77500000D03*
X114300000Y-87900000D03*
X111000000Y-95300000D03*
D16*
X107900000Y-74500000D03*
X103000000Y-101500000D03*
X109000000Y-74500000D03*
D17*
X115300000Y-83900000D03*
X108400000Y-97100000D03*
D16*
%TO.N,SIM_VDD*%
X105700000Y-94400000D03*
X102000000Y-107000000D03*
D17*
X102300000Y-104800000D03*
X105900000Y-102300000D03*
D16*
%TO.N,Net-(U3-RST)*%
X104600000Y-107000000D03*
%TO.N,Net-(U3-CLK)*%
X107100000Y-107000000D03*
%TO.N,Net-(U3-I{slash}O)*%
X108400000Y-107000000D03*
D17*
%TO.N,Net-(D1-A2)*%
X115600000Y-82200000D03*
D16*
%TO.N,SIM_CLK*%
X103500000Y-94400000D03*
D17*
X108800000Y-102800000D03*
X109800000Y-101800000D03*
%TO.N,SIM_DATA*%
X110200000Y-103400000D03*
X107500000Y-91900000D03*
X110600000Y-93200000D03*
D16*
X102400000Y-94400000D03*
D17*
X111600000Y-102000000D03*
D16*
%TO.N,SIM_RST*%
X104600000Y-94400000D03*
D17*
X109100000Y-97900000D03*
X110100000Y-98900000D03*
D16*
%TO.N,PWRKEY*%
X103500000Y-74500000D03*
D17*
X93400000Y-84000000D03*
X95400000Y-76700000D03*
D16*
%TO.N,GNSS_ANT*%
X100400000Y-77300000D03*
%TO.N,SIM7080G_DTR*%
X101000000Y-101500000D03*
D17*
%TO.N,SIM7080G_RTS*%
X99000000Y-100900000D03*
X103700000Y-96200000D03*
D16*
%TO.N,SIM7080G_RING*%
X100500000Y-100800000D03*
D17*
X110500000Y-106800000D03*
%TO.N,SIM7080G_TX*%
X114400000Y-101200000D03*
X103800000Y-99100000D03*
D16*
%TO.N,SIM7080G_RX*%
X102500000Y-100800000D03*
%TO.N,RF_ANT*%
X113600000Y-79500000D03*
%TO.N,Net-(JP1-B)*%
X107900000Y-94400000D03*
D17*
X107900000Y-93300000D03*
%TO.N,Net-(JP2-A)*%
X108100000Y-98000000D03*
D16*
X102000000Y-101500000D03*
%TO.N,Net-(JP3-A)*%
X101500000Y-100800000D03*
D17*
%TO.N,Net-(Q2-B)*%
X96300000Y-102600000D03*
X96900000Y-104000000D03*
D16*
%TO.N,STATUS*%
X100200000Y-74500000D03*
D17*
X93400000Y-82100000D03*
%TO.N,NETLIGHT*%
X113900000Y-86300000D03*
D16*
X101300000Y-74500000D03*
%TO.N,SIM_DTR*%
X95600000Y-84000000D03*
D17*
X98100000Y-87700000D03*
D16*
X101000000Y-95400000D03*
D17*
%TO.N,SIM_TX*%
X95500000Y-78700000D03*
X103500000Y-97700000D03*
D16*
%TO.N,SIM_RX*%
X102500000Y-96100000D03*
X95600000Y-79500000D03*
D17*
X94900000Y-87400000D03*
D16*
%TO.N,SIM_RI*%
X100500000Y-96100000D03*
X95600000Y-85000000D03*
%TO.N,SIM_CTS*%
X101500000Y-96100000D03*
D17*
X96900000Y-81900000D03*
D16*
X95600000Y-81800000D03*
D17*
%TO.N,SIM_RTS*%
X98100000Y-80600000D03*
D16*
X95600000Y-80600000D03*
X102000000Y-95400000D03*
%TD*%
D19*
%TO.N,+1V8*%
X102400000Y-75100000D02*
X102400000Y-74500000D01*
X109200000Y-82600000D02*
X108200000Y-81600000D01*
X108200000Y-81600000D02*
X108200000Y-80900000D01*
X110600000Y-82600000D02*
X109200000Y-82600000D01*
X108200000Y-80900000D02*
X102400000Y-75100000D01*
X106000000Y-95400000D02*
X106300000Y-95100000D01*
X110800000Y-82800000D02*
X110600000Y-82600000D01*
X103000000Y-95400000D02*
X106000000Y-95400000D01*
%TO.N,+3V3*%
X110200000Y-95300000D02*
X111000000Y-95300000D01*
X114700000Y-78700000D02*
X114700000Y-78600000D01*
X115100000Y-79100000D02*
X114700000Y-78700000D01*
X108400000Y-97100000D02*
X110200000Y-95300000D01*
X114700000Y-78600000D02*
X113600000Y-77500000D01*
%TO.N,SIM_VDD*%
X103700000Y-104500000D02*
X105900000Y-102300000D01*
X102600000Y-104500000D02*
X103700000Y-104500000D01*
X102300000Y-104800000D02*
X102600000Y-104500000D01*
%TO.N,Net-(D1-A2)*%
X116300000Y-82900000D02*
X116300000Y-84300000D01*
X115600000Y-82200000D02*
X116300000Y-82900000D01*
X116300000Y-84300000D02*
X115600000Y-85000000D01*
%TO.N,SIM_CLK*%
X109800000Y-101800000D02*
X108800000Y-102800000D01*
%TO.N,SIM_DATA*%
X111600000Y-102000000D02*
X110200000Y-103400000D01*
%TO.N,SIM_RST*%
X109100000Y-97900000D02*
X110100000Y-98900000D01*
%TO.N,PWRKEY*%
X100000000Y-73800000D02*
X99800000Y-74000000D01*
X103300000Y-74500000D02*
X102600000Y-73800000D01*
X98500000Y-74000000D02*
X95800000Y-76700000D01*
X95800000Y-76700000D02*
X95400000Y-76700000D01*
X102600000Y-73800000D02*
X100000000Y-73800000D01*
X99800000Y-74000000D02*
X98500000Y-74000000D01*
X103500000Y-74500000D02*
X103300000Y-74500000D01*
%TO.N,SIM7080G_RTS*%
X99000000Y-100900000D02*
X93300000Y-106600000D01*
X106400000Y-96000000D02*
X103900000Y-96000000D01*
X106600000Y-96200000D02*
X106400000Y-96000000D01*
X106600000Y-96600000D02*
X106600000Y-96200000D01*
D20*
X107100000Y-97100000D02*
X106600000Y-96600000D01*
D19*
X103900000Y-96000000D02*
X103700000Y-96200000D01*
%TO.N,SIM7080G_RING*%
X100500000Y-101100000D02*
X100300000Y-101300000D01*
X102000000Y-105600000D02*
X109300000Y-105600000D01*
X100300000Y-103900000D02*
X102000000Y-105600000D01*
X109300000Y-105600000D02*
X110500000Y-106800000D01*
X100500000Y-100800000D02*
X100500000Y-101100000D01*
X100300000Y-101300000D02*
X100300000Y-103900000D01*
%TO.N,SIM7080G_TX*%
X106100000Y-98700000D02*
X108300000Y-98700000D01*
X105300000Y-98000000D02*
X105400000Y-98100000D01*
X109600000Y-100000000D02*
X112800000Y-100000000D01*
X103900000Y-99100000D02*
X105000000Y-98000000D01*
X105400000Y-98100000D02*
X105500000Y-98100000D01*
X105500000Y-98100000D02*
X106100000Y-98700000D01*
X103800000Y-99100000D02*
X103900000Y-99100000D01*
X105000000Y-98000000D02*
X105300000Y-98000000D01*
X112800000Y-100000000D02*
X114000000Y-101200000D01*
X114000000Y-101200000D02*
X114400000Y-101200000D01*
X108300000Y-98700000D02*
X109600000Y-100000000D01*
%TO.N,SIM7080G_RX*%
X113800000Y-109100000D02*
X116200000Y-109100000D01*
X105500000Y-100800000D02*
X113800000Y-109100000D01*
X102500000Y-100800000D02*
X105500000Y-100800000D01*
%TO.N,SIM7080G_CTS*%
X107700000Y-100400000D02*
X107100000Y-99800000D01*
X116200000Y-104000000D02*
X112600000Y-100400000D01*
X112600000Y-100400000D02*
X107700000Y-100400000D01*
%TO.N,Net-(JP1-B)*%
X114900000Y-86300000D02*
X115600000Y-86300000D01*
D21*
X107900000Y-93300000D02*
X107900000Y-94400000D01*
D19*
X107900000Y-93300000D02*
X114900000Y-86300000D01*
%TO.N,Net-(JP2-A)*%
X107400000Y-98200000D02*
X106500000Y-98200000D01*
X106500000Y-98200000D02*
X105800000Y-97500000D01*
X107600000Y-98000000D02*
X107400000Y-98200000D01*
X108100000Y-98000000D02*
X107600000Y-98000000D01*
X105800000Y-97500000D02*
X105800000Y-97100000D01*
%TO.N,Net-(JP3-A)*%
X102600000Y-99800000D02*
X105800000Y-99800000D01*
X101600000Y-100800000D02*
X102600000Y-99800000D01*
%TO.N,STATUS*%
X93400000Y-82100000D02*
X93700000Y-81800000D01*
X98600000Y-74500000D02*
X100200000Y-74500000D01*
X94700000Y-78900000D02*
X94700000Y-78400000D01*
X94500000Y-79100000D02*
X94700000Y-78900000D01*
X93700000Y-80900000D02*
X94500000Y-80100000D01*
X94500000Y-80100000D02*
X94500000Y-79100000D01*
X94700000Y-78400000D02*
X98600000Y-74500000D01*
X93700000Y-81800000D02*
X93700000Y-80900000D01*
%TO.N,NETLIGHT*%
X102500000Y-78400000D02*
X104300000Y-80200000D01*
X111800000Y-86500000D02*
X113700000Y-86500000D01*
X105500000Y-80200000D02*
X111800000Y-86500000D01*
X101300000Y-74500000D02*
X102000000Y-75200000D01*
X102000000Y-75300000D02*
X102500000Y-75800000D01*
X104300000Y-80200000D02*
X105500000Y-80200000D01*
X113700000Y-86500000D02*
X113900000Y-86300000D01*
X102000000Y-75200000D02*
X102000000Y-75300000D01*
X102500000Y-75800000D02*
X102500000Y-78400000D01*
%TO.N,SIM_DTR*%
X101000000Y-95400000D02*
X101000000Y-90600000D01*
X101000000Y-90600000D02*
X98100000Y-87700000D01*
%TO.N,SIM_TX*%
X96000000Y-93700000D02*
X96000000Y-89600000D01*
X101300000Y-97700000D02*
X101200000Y-97800000D01*
X100100000Y-97800000D02*
X96000000Y-93700000D01*
X94100000Y-87500000D02*
X94100000Y-81100000D01*
X103500000Y-97700000D02*
X101300000Y-97700000D01*
X94200000Y-87600000D02*
X94100000Y-87500000D01*
X94900000Y-80300000D02*
X94900000Y-79300000D01*
X96000000Y-89600000D02*
X94200000Y-87800000D01*
X94200000Y-87800000D02*
X94200000Y-87600000D01*
X101200000Y-97800000D02*
X100100000Y-97800000D01*
X94900000Y-79300000D02*
X95500000Y-78700000D01*
X94100000Y-81100000D02*
X94900000Y-80300000D01*
%TO.N,SIM_RX*%
X95600000Y-88100000D02*
X94900000Y-87400000D01*
X101200000Y-97300000D02*
X100200000Y-97300000D01*
X96400000Y-88500000D02*
X96000000Y-88100000D01*
X96000000Y-88100000D02*
X95600000Y-88100000D01*
X102400000Y-96100000D02*
X101200000Y-97300000D01*
X96400000Y-93500000D02*
X96400000Y-88500000D01*
X100200000Y-97300000D02*
X96400000Y-93500000D01*
%TO.N,SIM_CTS*%
X96800000Y-87200000D02*
X97500000Y-86500000D01*
X97500000Y-86500000D02*
X97500000Y-82500000D01*
X101400000Y-96100000D02*
X100700000Y-96800000D01*
X100700000Y-96800000D02*
X100300000Y-96800000D01*
X97500000Y-82500000D02*
X96900000Y-81900000D01*
X96800000Y-93300000D02*
X96800000Y-87200000D01*
X100300000Y-96800000D02*
X96800000Y-93300000D01*
%TO.N,SIM_RTS*%
X98400000Y-80600000D02*
X98100000Y-80600000D01*
X99900000Y-82100000D02*
X98400000Y-80600000D01*
X98900000Y-87900000D02*
X98900000Y-83700000D01*
D20*
X102000000Y-95400000D02*
X101400000Y-94800000D01*
D19*
X98900000Y-83700000D02*
X99900000Y-82700000D01*
X101400000Y-94800000D02*
X101400000Y-90400000D01*
X101400000Y-90400000D02*
X98900000Y-87900000D01*
X99900000Y-82700000D02*
X99900000Y-82100000D01*
%TD*%
%TA.AperFunction,Conductor*%
%TO.N,GND*%
G36*
X116858691Y-66519407D02*
G01*
X116894655Y-66568907D01*
X116899500Y-66599500D01*
X116899500Y-100260500D01*
X116880593Y-100318691D01*
X116831093Y-100354655D01*
X116800500Y-100359500D01*
X115265139Y-100359500D01*
X115265136Y-100359501D01*
X115240009Y-100362414D01*
X115137235Y-100407794D01*
X115057794Y-100487235D01*
X115012414Y-100590011D01*
X115009500Y-100615130D01*
X115009500Y-100650547D01*
X114990593Y-100708738D01*
X114941093Y-100744702D01*
X114879907Y-100744702D01*
X114840496Y-100720551D01*
X114814672Y-100694727D01*
X114814669Y-100694724D01*
X114772226Y-100666365D01*
X114708133Y-100623538D01*
X114708125Y-100623534D01*
X114589747Y-100574500D01*
X114589745Y-100574499D01*
X114589744Y-100574499D01*
X114464069Y-100549500D01*
X114335931Y-100549500D01*
X114335930Y-100549500D01*
X114273093Y-100561999D01*
X114210256Y-100574499D01*
X114210255Y-100574499D01*
X114210252Y-100574500D01*
X114091867Y-100623537D01*
X114090178Y-100624440D01*
X114089317Y-100624593D01*
X114087380Y-100625396D01*
X114087203Y-100624970D01*
X114029944Y-100635187D01*
X113974896Y-100608478D01*
X113973518Y-100607127D01*
X113566890Y-100200499D01*
X113045912Y-99679521D01*
X113045909Y-99679519D01*
X113045908Y-99679518D01*
X113045907Y-99679517D01*
X112954590Y-99626795D01*
X112954592Y-99626795D01*
X112915068Y-99616205D01*
X112852727Y-99599501D01*
X112852725Y-99599501D01*
X110550349Y-99599501D01*
X110492158Y-99580594D01*
X110456194Y-99531094D01*
X110456194Y-99469908D01*
X110492158Y-99420408D01*
X110495348Y-99418186D01*
X110500873Y-99414494D01*
X110514669Y-99405276D01*
X110605276Y-99314669D01*
X110676465Y-99208127D01*
X110725501Y-99089744D01*
X110750500Y-98964069D01*
X110750500Y-98835931D01*
X110725501Y-98710256D01*
X110676465Y-98591873D01*
X110676463Y-98591870D01*
X110676461Y-98591866D01*
X110635957Y-98531249D01*
X110605276Y-98485331D01*
X110514669Y-98394724D01*
X110451897Y-98352781D01*
X110408133Y-98323538D01*
X110408125Y-98323534D01*
X110289747Y-98274500D01*
X110289745Y-98274499D01*
X110289744Y-98274499D01*
X110164069Y-98249500D01*
X110056899Y-98249500D01*
X109998708Y-98230593D01*
X109986895Y-98220504D01*
X109779496Y-98013105D01*
X109751719Y-97958588D01*
X109750500Y-97943101D01*
X109750500Y-97835932D01*
X109750500Y-97835931D01*
X109725501Y-97710256D01*
X109676465Y-97591873D01*
X109676463Y-97591870D01*
X109676461Y-97591866D01*
X109647717Y-97548848D01*
X109605276Y-97485331D01*
X109514669Y-97394724D01*
X109472226Y-97366365D01*
X109408133Y-97323538D01*
X109408125Y-97323534D01*
X109289747Y-97274500D01*
X109289745Y-97274499D01*
X109289744Y-97274499D01*
X109164069Y-97249500D01*
X109149500Y-97249500D01*
X109134588Y-97244655D01*
X109118907Y-97244655D01*
X109106221Y-97235438D01*
X109091309Y-97230593D01*
X109082092Y-97217907D01*
X109069407Y-97208691D01*
X109064561Y-97193778D01*
X109055345Y-97181093D01*
X109050500Y-97150500D01*
X109050500Y-97056898D01*
X109069407Y-96998707D01*
X109079496Y-96986894D01*
X110336896Y-95729495D01*
X110391413Y-95701718D01*
X110406900Y-95700499D01*
X110439547Y-95700499D01*
X110497738Y-95719406D01*
X110509551Y-95729496D01*
X110585322Y-95805268D01*
X110585326Y-95805271D01*
X110585331Y-95805276D01*
X110633875Y-95837712D01*
X110691866Y-95876461D01*
X110691870Y-95876463D01*
X110691873Y-95876465D01*
X110810256Y-95925501D01*
X110935931Y-95950500D01*
X110935932Y-95950500D01*
X111064068Y-95950500D01*
X111064069Y-95950500D01*
X111189744Y-95925501D01*
X111308127Y-95876465D01*
X111414669Y-95805276D01*
X111505276Y-95714669D01*
X111576465Y-95608127D01*
X111625501Y-95489744D01*
X111650500Y-95364069D01*
X111650500Y-95235931D01*
X111625501Y-95110256D01*
X111576465Y-94991873D01*
X111576463Y-94991870D01*
X111576461Y-94991866D01*
X111547122Y-94947958D01*
X111505276Y-94885331D01*
X111414669Y-94794724D01*
X111372226Y-94766365D01*
X111308133Y-94723538D01*
X111308125Y-94723534D01*
X111189747Y-94674500D01*
X111189745Y-94674499D01*
X111189744Y-94674499D01*
X111064069Y-94649500D01*
X110935931Y-94649500D01*
X110935930Y-94649500D01*
X110903606Y-94655930D01*
X110810256Y-94674499D01*
X110810255Y-94674499D01*
X110810252Y-94674500D01*
X110691874Y-94723534D01*
X110691866Y-94723538D01*
X110585331Y-94794724D01*
X110585322Y-94794731D01*
X110509551Y-94870504D01*
X110455035Y-94898282D01*
X110439547Y-94899501D01*
X110252727Y-94899501D01*
X110147273Y-94899501D01*
X110084931Y-94916205D01*
X110045408Y-94926795D01*
X109954092Y-94979517D01*
X109954091Y-94979518D01*
X108513104Y-96420504D01*
X108458587Y-96448281D01*
X108443100Y-96449500D01*
X108335930Y-96449500D01*
X108273093Y-96461999D01*
X108210256Y-96474499D01*
X108210255Y-96474499D01*
X108210252Y-96474500D01*
X108091874Y-96523534D01*
X108091865Y-96523538D01*
X107993712Y-96589124D01*
X107934824Y-96605733D01*
X107877420Y-96584556D01*
X107847246Y-96544694D01*
X107830499Y-96504264D01*
X107830498Y-96504263D01*
X107830496Y-96504257D01*
X107764670Y-96390243D01*
X107716120Y-96326972D01*
X107623028Y-96233880D01*
X107623023Y-96233876D01*
X107623021Y-96233874D01*
X107559760Y-96185332D01*
X107445738Y-96119501D01*
X107372063Y-96088984D01*
X107302576Y-96070365D01*
X107244897Y-96054910D01*
X107244892Y-96054909D01*
X107244891Y-96054909D01*
X107165827Y-96044500D01*
X107165826Y-96044500D01*
X107029836Y-96044500D01*
X106971645Y-96025593D01*
X106944101Y-95995002D01*
X106920479Y-95954088D01*
X106891890Y-95925499D01*
X106845912Y-95879520D01*
X106845912Y-95879521D01*
X106713171Y-95746780D01*
X106685394Y-95692263D01*
X106694965Y-95631831D01*
X106713172Y-95606772D01*
X106714666Y-95605277D01*
X106714669Y-95605276D01*
X106805276Y-95514669D01*
X106876465Y-95408127D01*
X106925501Y-95289744D01*
X106950500Y-95164069D01*
X106950500Y-95035931D01*
X106925501Y-94910256D01*
X106876465Y-94791873D01*
X106876463Y-94791870D01*
X106876461Y-94791866D01*
X106830802Y-94723534D01*
X106805276Y-94685331D01*
X106714669Y-94594724D01*
X106672226Y-94566365D01*
X106608133Y-94523538D01*
X106608125Y-94523534D01*
X106489747Y-94474500D01*
X106489745Y-94474499D01*
X106489744Y-94474499D01*
X106364069Y-94449500D01*
X106349500Y-94449500D01*
X106291309Y-94430593D01*
X106255345Y-94381093D01*
X106250500Y-94350500D01*
X106250500Y-94327525D01*
X106250000Y-94325658D01*
X106212984Y-94187515D01*
X106212982Y-94187512D01*
X106212982Y-94187510D01*
X106140512Y-94061989D01*
X106140510Y-94061987D01*
X106140509Y-94061985D01*
X106038015Y-93959491D01*
X106038012Y-93959489D01*
X106038010Y-93959487D01*
X105912488Y-93887017D01*
X105912489Y-93887017D01*
X105837050Y-93866803D01*
X105772475Y-93849500D01*
X105627525Y-93849500D01*
X105565790Y-93866041D01*
X105487510Y-93887017D01*
X105361989Y-93959487D01*
X105259489Y-94061987D01*
X105235736Y-94103129D01*
X105190266Y-94144069D01*
X105129416Y-94150464D01*
X105076428Y-94119871D01*
X105064264Y-94103129D01*
X105040510Y-94061987D01*
X105040509Y-94061985D01*
X104938015Y-93959491D01*
X104938012Y-93959489D01*
X104938010Y-93959487D01*
X104812488Y-93887017D01*
X104812489Y-93887017D01*
X104737050Y-93866803D01*
X104672475Y-93849500D01*
X104527525Y-93849500D01*
X104465790Y-93866041D01*
X104387510Y-93887017D01*
X104261989Y-93959487D01*
X104159489Y-94061987D01*
X104135736Y-94103129D01*
X104090266Y-94144069D01*
X104029416Y-94150464D01*
X103976428Y-94119871D01*
X103964264Y-94103129D01*
X103940510Y-94061987D01*
X103940509Y-94061985D01*
X103838015Y-93959491D01*
X103838012Y-93959489D01*
X103838010Y-93959487D01*
X103712488Y-93887017D01*
X103712489Y-93887017D01*
X103637050Y-93866803D01*
X103572475Y-93849500D01*
X103427525Y-93849500D01*
X103365790Y-93866041D01*
X103287510Y-93887017D01*
X103161989Y-93959487D01*
X103059489Y-94061987D01*
X103035736Y-94103129D01*
X102990266Y-94144069D01*
X102929416Y-94150464D01*
X102876428Y-94119871D01*
X102864264Y-94103129D01*
X102840510Y-94061987D01*
X102840509Y-94061985D01*
X102738015Y-93959491D01*
X102738012Y-93959489D01*
X102738010Y-93959487D01*
X102612488Y-93887017D01*
X102612489Y-93887017D01*
X102537050Y-93866803D01*
X102472475Y-93849500D01*
X102327525Y-93849500D01*
X102265790Y-93866041D01*
X102187510Y-93887017D01*
X102061989Y-93959487D01*
X102061988Y-93959488D01*
X102061985Y-93959490D01*
X102061985Y-93959491D01*
X101969500Y-94051975D01*
X101914986Y-94079751D01*
X101854554Y-94070180D01*
X101811289Y-94026915D01*
X101800499Y-93981970D01*
X101800499Y-90347274D01*
X101800499Y-90347273D01*
X101773206Y-90245413D01*
X101773204Y-90245410D01*
X101773204Y-90245408D01*
X101720482Y-90154092D01*
X101720478Y-90154087D01*
X101645912Y-90079520D01*
X101645912Y-90079521D01*
X99329495Y-87763104D01*
X99301718Y-87708587D01*
X99300499Y-87693100D01*
X99300499Y-83906899D01*
X99319406Y-83848708D01*
X99329489Y-83836901D01*
X100220479Y-82945912D01*
X100273206Y-82854587D01*
X100300499Y-82752727D01*
X100300499Y-82647273D01*
X100300499Y-82047273D01*
X100273206Y-81945413D01*
X100273204Y-81945410D01*
X100273204Y-81945408D01*
X100220482Y-81854092D01*
X100220478Y-81854087D01*
X100145912Y-81779520D01*
X100145912Y-81779521D01*
X98703258Y-80336867D01*
X98681798Y-80304749D01*
X98676465Y-80291873D01*
X98676460Y-80291866D01*
X98656497Y-80261989D01*
X98605276Y-80185331D01*
X98514669Y-80094724D01*
X98472226Y-80066365D01*
X98408133Y-80023538D01*
X98408125Y-80023534D01*
X98289747Y-79974500D01*
X98289745Y-79974499D01*
X98289744Y-79974499D01*
X98164069Y-79949500D01*
X98035931Y-79949500D01*
X98035930Y-79949500D01*
X97973093Y-79961999D01*
X97910256Y-79974499D01*
X97910255Y-79974499D01*
X97910252Y-79974500D01*
X97791874Y-80023534D01*
X97791866Y-80023538D01*
X97685331Y-80094724D01*
X97685327Y-80094727D01*
X97594727Y-80185327D01*
X97594724Y-80185331D01*
X97523538Y-80291866D01*
X97523534Y-80291874D01*
X97474500Y-80410252D01*
X97474499Y-80410257D01*
X97449500Y-80535930D01*
X97449500Y-80664069D01*
X97474499Y-80789742D01*
X97474500Y-80789747D01*
X97523534Y-80908125D01*
X97523538Y-80908133D01*
X97543502Y-80938010D01*
X97594724Y-81014669D01*
X97685331Y-81105276D01*
X97716989Y-81126429D01*
X97791866Y-81176461D01*
X97791870Y-81176463D01*
X97791873Y-81176465D01*
X97910256Y-81225501D01*
X98035931Y-81250500D01*
X98035932Y-81250500D01*
X98164068Y-81250500D01*
X98164069Y-81250500D01*
X98289744Y-81225501D01*
X98348390Y-81201208D01*
X98409384Y-81196408D01*
X98456278Y-81222669D01*
X99470505Y-82236896D01*
X99474131Y-82244013D01*
X99480594Y-82248709D01*
X99487757Y-82270757D01*
X99498282Y-82291413D01*
X99499501Y-82306900D01*
X99499501Y-82493100D01*
X99480594Y-82551291D01*
X99470505Y-82563104D01*
X98654088Y-83379521D01*
X98654087Y-83379520D01*
X98579521Y-83454087D01*
X98579517Y-83454092D01*
X98526795Y-83545408D01*
X98499501Y-83647274D01*
X98499501Y-87013219D01*
X98480594Y-87071410D01*
X98431094Y-87107374D01*
X98369908Y-87107374D01*
X98362616Y-87104683D01*
X98289751Y-87074501D01*
X98289746Y-87074499D01*
X98289744Y-87074499D01*
X98164069Y-87049500D01*
X98035931Y-87049500D01*
X98035930Y-87049500D01*
X97978043Y-87061015D01*
X97910256Y-87074499D01*
X97910255Y-87074499D01*
X97910252Y-87074500D01*
X97791874Y-87123534D01*
X97791866Y-87123538D01*
X97685331Y-87194724D01*
X97685327Y-87194727D01*
X97594727Y-87285327D01*
X97594724Y-87285331D01*
X97523538Y-87391866D01*
X97523534Y-87391874D01*
X97474500Y-87510252D01*
X97474499Y-87510255D01*
X97474499Y-87510256D01*
X97449500Y-87635931D01*
X97449500Y-87764069D01*
X97467135Y-87852725D01*
X97474499Y-87889742D01*
X97474500Y-87889747D01*
X97523534Y-88008125D01*
X97523538Y-88008133D01*
X97548782Y-88045912D01*
X97594724Y-88114669D01*
X97685331Y-88205276D01*
X97748848Y-88247717D01*
X97791866Y-88276461D01*
X97791870Y-88276463D01*
X97791873Y-88276465D01*
X97910256Y-88325501D01*
X98035931Y-88350500D01*
X98035932Y-88350500D01*
X98143101Y-88350500D01*
X98201292Y-88369407D01*
X98213105Y-88379496D01*
X100570505Y-90736896D01*
X100598282Y-90791413D01*
X100599501Y-90806900D01*
X100599501Y-94980967D01*
X100580594Y-95039158D01*
X100570507Y-95050968D01*
X100559492Y-95061983D01*
X100559487Y-95061989D01*
X100487017Y-95187510D01*
X100449500Y-95327525D01*
X100449500Y-95467646D01*
X100430593Y-95525837D01*
X100381093Y-95561801D01*
X100376124Y-95563272D01*
X100287515Y-95587015D01*
X100287511Y-95587017D01*
X100161989Y-95659487D01*
X100059489Y-95761987D01*
X100039406Y-95796772D01*
X99993936Y-95837712D01*
X99933086Y-95844107D01*
X99883666Y-95817275D01*
X97229495Y-93163104D01*
X97201718Y-93108587D01*
X97200499Y-93093100D01*
X97200499Y-87406899D01*
X97219406Y-87348708D01*
X97229489Y-87336901D01*
X97820479Y-86745912D01*
X97834870Y-86720986D01*
X97873204Y-86654591D01*
X97873204Y-86654589D01*
X97873206Y-86654587D01*
X97900499Y-86552727D01*
X97900499Y-86447274D01*
X97900499Y-86447273D01*
X97900499Y-82447273D01*
X97873206Y-82345413D01*
X97873204Y-82345410D01*
X97873204Y-82345408D01*
X97820482Y-82254092D01*
X97820478Y-82254087D01*
X97745912Y-82179520D01*
X97745912Y-82179521D01*
X97579496Y-82013105D01*
X97551719Y-81958588D01*
X97550500Y-81943101D01*
X97550500Y-81835932D01*
X97550500Y-81835931D01*
X97525501Y-81710256D01*
X97476465Y-81591873D01*
X97476463Y-81591870D01*
X97476461Y-81591866D01*
X97430802Y-81523534D01*
X97405276Y-81485331D01*
X97314669Y-81394724D01*
X97261933Y-81359487D01*
X97208133Y-81323538D01*
X97208125Y-81323534D01*
X97089747Y-81274500D01*
X97089745Y-81274499D01*
X97089744Y-81274499D01*
X96964069Y-81249500D01*
X96835931Y-81249500D01*
X96835930Y-81249500D01*
X96773093Y-81261999D01*
X96710256Y-81274499D01*
X96710255Y-81274499D01*
X96710252Y-81274500D01*
X96591874Y-81323534D01*
X96591866Y-81323538D01*
X96485331Y-81394724D01*
X96485327Y-81394727D01*
X96394727Y-81485327D01*
X96394724Y-81485331D01*
X96323538Y-81591866D01*
X96323535Y-81591871D01*
X96308003Y-81629370D01*
X96268265Y-81675895D01*
X96208770Y-81690178D01*
X96152243Y-81666762D01*
X96120913Y-81617106D01*
X96112984Y-81587515D01*
X96105470Y-81574500D01*
X96040512Y-81461989D01*
X96040510Y-81461987D01*
X96040509Y-81461985D01*
X95938015Y-81359491D01*
X95938012Y-81359489D01*
X95938010Y-81359487D01*
X95810269Y-81285736D01*
X95769328Y-81240267D01*
X95762932Y-81179417D01*
X95793525Y-81126429D01*
X95810269Y-81114264D01*
X95938010Y-81040512D01*
X95938010Y-81040511D01*
X95938015Y-81040509D01*
X96040509Y-80938015D01*
X96040512Y-80938010D01*
X96112982Y-80812489D01*
X96112982Y-80812487D01*
X96112984Y-80812485D01*
X96150500Y-80672475D01*
X96150500Y-80527525D01*
X96112984Y-80387515D01*
X96112982Y-80387512D01*
X96112982Y-80387510D01*
X96040512Y-80261989D01*
X96040510Y-80261987D01*
X96040509Y-80261985D01*
X95938015Y-80159491D01*
X95896869Y-80135735D01*
X95855930Y-80090267D01*
X95849534Y-80029417D01*
X95880127Y-79976429D01*
X95896867Y-79964265D01*
X95938015Y-79940509D01*
X96040509Y-79838015D01*
X96046987Y-79826795D01*
X96112982Y-79712489D01*
X96112982Y-79712487D01*
X96112984Y-79712485D01*
X96150500Y-79572475D01*
X96150500Y-79427525D01*
X96112984Y-79287515D01*
X96112982Y-79287512D01*
X96112982Y-79287510D01*
X96040303Y-79161628D01*
X96027581Y-79101780D01*
X96043724Y-79057127D01*
X96076465Y-79008127D01*
X96125501Y-78889744D01*
X96150500Y-78764069D01*
X96150500Y-78635931D01*
X96125501Y-78510256D01*
X96076465Y-78391873D01*
X96076463Y-78391870D01*
X96076461Y-78391866D01*
X96046664Y-78347273D01*
X96005276Y-78285331D01*
X95914669Y-78194724D01*
X95853853Y-78154088D01*
X95808133Y-78123538D01*
X95808125Y-78123534D01*
X95757437Y-78102538D01*
X95710911Y-78062801D01*
X95696628Y-78003306D01*
X95720043Y-77946778D01*
X95725306Y-77941083D01*
X96438864Y-77227525D01*
X99849500Y-77227525D01*
X99849500Y-77372475D01*
X99879087Y-77482896D01*
X99887017Y-77512489D01*
X99959487Y-77638010D01*
X99959489Y-77638012D01*
X99959491Y-77638015D01*
X100061985Y-77740509D01*
X100061987Y-77740510D01*
X100061989Y-77740512D01*
X100187511Y-77812982D01*
X100187512Y-77812982D01*
X100187515Y-77812984D01*
X100327525Y-77850500D01*
X100327526Y-77850500D01*
X100472474Y-77850500D01*
X100472475Y-77850500D01*
X100612485Y-77812984D01*
X100612487Y-77812982D01*
X100612489Y-77812982D01*
X100738010Y-77740512D01*
X100738010Y-77740511D01*
X100738015Y-77740509D01*
X100840509Y-77638015D01*
X100854891Y-77613105D01*
X100912982Y-77512489D01*
X100912982Y-77512487D01*
X100912984Y-77512485D01*
X100950500Y-77372475D01*
X100950500Y-77227525D01*
X100912984Y-77087515D01*
X100912982Y-77087512D01*
X100912982Y-77087510D01*
X100840512Y-76961989D01*
X100840510Y-76961987D01*
X100840509Y-76961985D01*
X100738015Y-76859491D01*
X100738012Y-76859489D01*
X100738010Y-76859487D01*
X100612488Y-76787017D01*
X100612489Y-76787017D01*
X100582896Y-76779087D01*
X100472475Y-76749500D01*
X100327525Y-76749500D01*
X100273153Y-76764069D01*
X100187510Y-76787017D01*
X100061989Y-76859487D01*
X99959487Y-76961989D01*
X99887017Y-77087510D01*
X99887016Y-77087515D01*
X99849500Y-77227525D01*
X96438864Y-77227525D01*
X98736896Y-74929495D01*
X98791413Y-74901718D01*
X98806900Y-74900499D01*
X99780968Y-74900499D01*
X99839159Y-74919406D01*
X99850965Y-74929489D01*
X99861985Y-74940509D01*
X99861987Y-74940510D01*
X99861989Y-74940512D01*
X99987511Y-75012982D01*
X99987512Y-75012982D01*
X99987515Y-75012984D01*
X100127525Y-75050500D01*
X100127526Y-75050500D01*
X100272474Y-75050500D01*
X100272475Y-75050500D01*
X100412485Y-75012984D01*
X100412487Y-75012982D01*
X100412489Y-75012982D01*
X100538010Y-74940512D01*
X100538010Y-74940511D01*
X100538015Y-74940509D01*
X100640509Y-74838015D01*
X100664264Y-74796869D01*
X100709733Y-74755930D01*
X100770583Y-74749534D01*
X100823571Y-74780127D01*
X100835734Y-74796867D01*
X100859491Y-74838015D01*
X100961985Y-74940509D01*
X100961987Y-74940510D01*
X100961989Y-74940512D01*
X101087511Y-75012982D01*
X101087512Y-75012982D01*
X101087515Y-75012984D01*
X101227525Y-75050500D01*
X101243101Y-75050500D01*
X101301292Y-75069407D01*
X101313105Y-75079496D01*
X101585562Y-75351953D01*
X101611184Y-75396333D01*
X101626793Y-75454586D01*
X101626795Y-75454590D01*
X101679517Y-75545907D01*
X101679519Y-75545909D01*
X101679521Y-75545912D01*
X102070506Y-75936897D01*
X102098282Y-75991412D01*
X102099501Y-76006899D01*
X102099501Y-78347273D01*
X102099501Y-78452727D01*
X102118474Y-78523535D01*
X102126795Y-78554591D01*
X102179517Y-78645907D01*
X102179518Y-78645908D01*
X102179519Y-78645909D01*
X102179521Y-78645912D01*
X103979521Y-80445912D01*
X103979520Y-80445912D01*
X104054087Y-80520478D01*
X104054092Y-80520482D01*
X104145409Y-80573204D01*
X104145407Y-80573204D01*
X104145411Y-80573205D01*
X104145413Y-80573206D01*
X104247273Y-80600499D01*
X105293100Y-80600499D01*
X105351291Y-80619406D01*
X105363104Y-80629495D01*
X111554088Y-86820479D01*
X111554090Y-86820480D01*
X111554091Y-86820481D01*
X111554092Y-86820482D01*
X111645409Y-86873204D01*
X111645407Y-86873204D01*
X111645411Y-86873205D01*
X111645413Y-86873206D01*
X111747273Y-86900499D01*
X111852727Y-86900499D01*
X113494101Y-86900499D01*
X113552292Y-86919406D01*
X113588256Y-86968906D01*
X113588256Y-87030092D01*
X113564105Y-87069503D01*
X108013104Y-92620504D01*
X107958587Y-92648281D01*
X107943100Y-92649500D01*
X107875522Y-92649500D01*
X107817331Y-92630593D01*
X107781367Y-92581093D01*
X107781367Y-92519907D01*
X107817331Y-92470407D01*
X107820520Y-92468185D01*
X107849112Y-92449079D01*
X107914669Y-92405276D01*
X108005276Y-92314669D01*
X108076465Y-92208127D01*
X108125501Y-92089744D01*
X108150500Y-91964069D01*
X108150500Y-91835931D01*
X108125501Y-91710256D01*
X108076465Y-91591873D01*
X108076463Y-91591870D01*
X108076461Y-91591866D01*
X108047717Y-91548848D01*
X108005276Y-91485331D01*
X107914669Y-91394724D01*
X107872226Y-91366365D01*
X107808133Y-91323538D01*
X107808125Y-91323534D01*
X107689747Y-91274500D01*
X107689745Y-91274499D01*
X107689744Y-91274499D01*
X107564069Y-91249500D01*
X107435931Y-91249500D01*
X107435930Y-91249500D01*
X107373093Y-91261999D01*
X107310256Y-91274499D01*
X107310255Y-91274499D01*
X107310252Y-91274500D01*
X107191874Y-91323534D01*
X107191866Y-91323538D01*
X107085331Y-91394724D01*
X107085327Y-91394727D01*
X106994727Y-91485327D01*
X106994724Y-91485331D01*
X106923538Y-91591866D01*
X106923534Y-91591874D01*
X106874500Y-91710252D01*
X106874499Y-91710257D01*
X106849500Y-91835930D01*
X106849500Y-91964069D01*
X106874499Y-92089742D01*
X106874500Y-92089747D01*
X106923534Y-92208125D01*
X106923538Y-92208133D01*
X106966365Y-92272226D01*
X106994724Y-92314669D01*
X107085331Y-92405276D01*
X107148848Y-92447717D01*
X107191866Y-92476461D01*
X107191870Y-92476463D01*
X107191873Y-92476465D01*
X107310256Y-92525501D01*
X107435931Y-92550500D01*
X107435932Y-92550500D01*
X107524478Y-92550500D01*
X107582669Y-92569407D01*
X107618633Y-92618907D01*
X107618633Y-92680093D01*
X107582669Y-92729593D01*
X107579480Y-92731815D01*
X107485331Y-92794724D01*
X107485327Y-92794727D01*
X107394727Y-92885327D01*
X107394724Y-92885331D01*
X107323538Y-92991866D01*
X107323534Y-92991874D01*
X107274500Y-93110252D01*
X107274499Y-93110255D01*
X107274499Y-93110256D01*
X107269392Y-93135930D01*
X107249500Y-93235930D01*
X107249500Y-93364069D01*
X107274499Y-93489742D01*
X107274500Y-93489747D01*
X107323534Y-93608125D01*
X107323538Y-93608133D01*
X107349691Y-93647273D01*
X107394724Y-93714669D01*
X107394727Y-93714672D01*
X107394731Y-93714677D01*
X107485331Y-93805276D01*
X107505501Y-93818753D01*
X107516377Y-93832550D01*
X107530593Y-93842878D01*
X107534850Y-93855982D01*
X107543381Y-93866803D01*
X107549500Y-93901069D01*
X107549500Y-93930968D01*
X107530593Y-93989159D01*
X107520504Y-94000971D01*
X107459491Y-94061984D01*
X107459487Y-94061989D01*
X107387017Y-94187510D01*
X107387016Y-94187515D01*
X107349500Y-94327525D01*
X107349500Y-94472475D01*
X107379087Y-94582896D01*
X107387017Y-94612489D01*
X107459487Y-94738010D01*
X107459489Y-94738012D01*
X107459491Y-94738015D01*
X107561985Y-94840509D01*
X107561987Y-94840510D01*
X107561989Y-94840512D01*
X107687511Y-94912982D01*
X107687512Y-94912982D01*
X107687515Y-94912984D01*
X107827525Y-94950500D01*
X107827526Y-94950500D01*
X107972474Y-94950500D01*
X107972475Y-94950500D01*
X108112485Y-94912984D01*
X108112487Y-94912982D01*
X108112489Y-94912982D01*
X108238010Y-94840512D01*
X108238010Y-94840511D01*
X108238015Y-94840509D01*
X108340509Y-94738015D01*
X108391594Y-94649534D01*
X108412982Y-94612489D01*
X108412982Y-94612487D01*
X108412984Y-94612485D01*
X108450500Y-94472475D01*
X108450500Y-94327525D01*
X108412984Y-94187515D01*
X108412982Y-94187512D01*
X108412982Y-94187510D01*
X108340512Y-94061989D01*
X108340508Y-94061984D01*
X108279496Y-94000971D01*
X108275870Y-93993854D01*
X108269407Y-93989159D01*
X108262242Y-93967107D01*
X108251719Y-93946454D01*
X108250500Y-93930968D01*
X108250500Y-93901069D01*
X108269407Y-93842878D01*
X108294499Y-93818753D01*
X108314669Y-93805276D01*
X108405276Y-93714669D01*
X108476465Y-93608127D01*
X108525501Y-93489744D01*
X108550500Y-93364069D01*
X108550500Y-93256898D01*
X108552968Y-93249300D01*
X108551719Y-93241411D01*
X108562243Y-93220755D01*
X108569407Y-93198707D01*
X108579496Y-93186894D01*
X108630459Y-93135931D01*
X109949500Y-93135931D01*
X109949500Y-93264069D01*
X109969391Y-93364067D01*
X109974499Y-93389742D01*
X109974500Y-93389747D01*
X110023534Y-93508125D01*
X110023538Y-93508133D01*
X110066365Y-93572226D01*
X110094724Y-93614669D01*
X110185331Y-93705276D01*
X110248848Y-93747717D01*
X110291866Y-93776461D01*
X110291870Y-93776463D01*
X110291873Y-93776465D01*
X110410256Y-93825501D01*
X110535931Y-93850500D01*
X110535932Y-93850500D01*
X110664068Y-93850500D01*
X110664069Y-93850500D01*
X110789744Y-93825501D01*
X110908127Y-93776465D01*
X111014669Y-93705276D01*
X111105276Y-93614669D01*
X111176465Y-93508127D01*
X111225501Y-93389744D01*
X111250500Y-93264069D01*
X111250500Y-93135931D01*
X111225501Y-93010256D01*
X111176465Y-92891873D01*
X111176463Y-92891870D01*
X111176461Y-92891866D01*
X111147717Y-92848848D01*
X111105276Y-92785331D01*
X111014669Y-92694724D01*
X110972226Y-92666365D01*
X110908133Y-92623538D01*
X110908125Y-92623534D01*
X110789747Y-92574500D01*
X110789745Y-92574499D01*
X110789744Y-92574499D01*
X110664069Y-92549500D01*
X110535931Y-92549500D01*
X110535930Y-92549500D01*
X110473093Y-92561999D01*
X110410256Y-92574499D01*
X110410255Y-92574499D01*
X110410252Y-92574500D01*
X110291874Y-92623534D01*
X110291866Y-92623538D01*
X110185331Y-92694724D01*
X110185327Y-92694727D01*
X110094727Y-92785327D01*
X110094724Y-92785331D01*
X110023538Y-92891866D01*
X110023534Y-92891874D01*
X109974500Y-93010252D01*
X109974499Y-93010257D01*
X109949863Y-93134108D01*
X109949500Y-93135931D01*
X108630459Y-93135931D01*
X108705327Y-93061063D01*
X111029494Y-90736896D01*
X113572038Y-88194351D01*
X113626553Y-88166576D01*
X113686985Y-88176147D01*
X113724355Y-88209355D01*
X113755229Y-88255561D01*
X113794724Y-88314669D01*
X113885331Y-88405276D01*
X113948848Y-88447717D01*
X113991866Y-88476461D01*
X113991870Y-88476463D01*
X113991873Y-88476465D01*
X114110256Y-88525501D01*
X114235931Y-88550500D01*
X114235932Y-88550500D01*
X114364068Y-88550500D01*
X114364069Y-88550500D01*
X114489744Y-88525501D01*
X114608127Y-88476465D01*
X114714669Y-88405276D01*
X114805276Y-88314669D01*
X114876465Y-88208127D01*
X114925501Y-88089744D01*
X114950500Y-87964069D01*
X114950500Y-87835931D01*
X114925501Y-87710256D01*
X114876465Y-87591873D01*
X114876463Y-87591870D01*
X114876461Y-87591866D01*
X114847717Y-87548848D01*
X114805276Y-87485331D01*
X114714669Y-87394724D01*
X114628122Y-87336895D01*
X114609355Y-87324355D01*
X114571476Y-87276305D01*
X114569074Y-87215167D01*
X114594351Y-87172038D01*
X114780408Y-86985981D01*
X114834923Y-86958206D01*
X114895355Y-86967777D01*
X114899902Y-86970247D01*
X115004257Y-87030496D01*
X115077936Y-87061015D01*
X115205103Y-87095090D01*
X115284174Y-87105500D01*
X115284175Y-87105500D01*
X115915825Y-87105500D01*
X115915826Y-87105500D01*
X115994897Y-87095090D01*
X116122064Y-87061015D01*
X116195743Y-87030496D01*
X116309757Y-86964670D01*
X116373028Y-86916120D01*
X116466120Y-86823028D01*
X116514670Y-86759757D01*
X116580496Y-86645743D01*
X116611015Y-86572064D01*
X116645090Y-86444897D01*
X116655500Y-86365826D01*
X116655500Y-85800000D01*
X116654197Y-85771812D01*
X116628600Y-85681849D01*
X116630860Y-85620706D01*
X116631714Y-85618971D01*
X116631557Y-85618910D01*
X116634871Y-85610356D01*
X116655500Y-85500000D01*
X116655500Y-84934175D01*
X116655500Y-84934174D01*
X116645090Y-84855103D01*
X116611015Y-84727936D01*
X116585786Y-84667030D01*
X116580986Y-84606036D01*
X116607246Y-84559144D01*
X116620479Y-84545912D01*
X116638045Y-84515487D01*
X116673204Y-84454591D01*
X116673204Y-84454589D01*
X116673206Y-84454587D01*
X116700499Y-84352727D01*
X116700499Y-84247274D01*
X116700499Y-82847273D01*
X116673206Y-82745413D01*
X116673204Y-82745410D01*
X116673204Y-82745408D01*
X116620482Y-82654092D01*
X116620478Y-82654087D01*
X116545912Y-82579520D01*
X116545912Y-82579521D01*
X116279496Y-82313105D01*
X116251719Y-82258588D01*
X116250500Y-82243101D01*
X116250500Y-82135932D01*
X116250500Y-82135931D01*
X116225501Y-82010256D01*
X116176465Y-81891873D01*
X116176463Y-81891870D01*
X116176461Y-81891866D01*
X116139085Y-81835930D01*
X116105276Y-81785331D01*
X116014669Y-81694724D01*
X115951813Y-81652725D01*
X115908133Y-81623538D01*
X115908125Y-81623534D01*
X115789747Y-81574500D01*
X115789745Y-81574499D01*
X115789744Y-81574499D01*
X115664069Y-81549500D01*
X115535931Y-81549500D01*
X115535930Y-81549500D01*
X115473093Y-81561999D01*
X115410256Y-81574499D01*
X115410255Y-81574499D01*
X115410252Y-81574500D01*
X115291874Y-81623534D01*
X115291866Y-81623538D01*
X115185331Y-81694724D01*
X115185327Y-81694727D01*
X115094727Y-81785327D01*
X115094724Y-81785331D01*
X115023538Y-81891866D01*
X115023534Y-81891874D01*
X114974500Y-82010252D01*
X114974499Y-82010255D01*
X114974499Y-82010256D01*
X114949500Y-82135931D01*
X114949500Y-82264069D01*
X114973621Y-82385331D01*
X114974499Y-82389742D01*
X114974500Y-82389747D01*
X115023534Y-82508125D01*
X115023538Y-82508133D01*
X115059694Y-82562243D01*
X115094724Y-82614669D01*
X115185331Y-82705276D01*
X115228911Y-82734395D01*
X115291866Y-82776461D01*
X115291870Y-82776463D01*
X115291873Y-82776465D01*
X115410256Y-82825501D01*
X115535931Y-82850500D01*
X115535932Y-82850500D01*
X115643101Y-82850500D01*
X115701292Y-82869407D01*
X115713105Y-82879496D01*
X115870505Y-83036896D01*
X115898282Y-83091413D01*
X115899501Y-83106900D01*
X115899501Y-83340548D01*
X115880594Y-83398739D01*
X115831094Y-83434703D01*
X115769908Y-83434703D01*
X115730497Y-83410552D01*
X115714672Y-83394727D01*
X115714669Y-83394724D01*
X115672226Y-83366365D01*
X115608133Y-83323538D01*
X115608125Y-83323534D01*
X115489747Y-83274500D01*
X115489745Y-83274499D01*
X115489744Y-83274499D01*
X115364069Y-83249500D01*
X115235931Y-83249500D01*
X115235930Y-83249500D01*
X115173093Y-83261999D01*
X115110256Y-83274499D01*
X115110255Y-83274499D01*
X115110252Y-83274500D01*
X114991874Y-83323534D01*
X114991866Y-83323538D01*
X114885331Y-83394724D01*
X114885327Y-83394727D01*
X114794727Y-83485327D01*
X114794724Y-83485331D01*
X114723538Y-83591866D01*
X114723534Y-83591874D01*
X114674500Y-83710252D01*
X114674499Y-83710257D01*
X114649500Y-83835930D01*
X114649500Y-83964069D01*
X114674499Y-84089742D01*
X114674500Y-84089747D01*
X114723534Y-84208125D01*
X114723538Y-84208133D01*
X114749692Y-84247274D01*
X114790224Y-84307935D01*
X114806833Y-84366821D01*
X114785656Y-84424224D01*
X114777913Y-84432938D01*
X114733877Y-84476974D01*
X114685332Y-84540239D01*
X114619501Y-84654261D01*
X114588984Y-84727936D01*
X114554909Y-84855108D01*
X114544500Y-84934172D01*
X114544500Y-85500004D01*
X114545802Y-85528183D01*
X114545802Y-85528186D01*
X114545803Y-85528188D01*
X114569182Y-85610356D01*
X114571400Y-85618150D01*
X114573038Y-85665722D01*
X114569459Y-85682648D01*
X114565130Y-85689641D01*
X114544500Y-85800000D01*
X114544500Y-85800695D01*
X114543196Y-85806863D01*
X114530360Y-85829149D01*
X114519898Y-85852639D01*
X114515306Y-85855289D01*
X114512660Y-85859884D01*
X114489179Y-85870368D01*
X114466905Y-85883224D01*
X114461631Y-85882668D01*
X114456791Y-85884830D01*
X114431634Y-85879511D01*
X114406056Y-85876819D01*
X114400350Y-85872897D01*
X114396929Y-85872174D01*
X114393058Y-85867885D01*
X114376333Y-85856388D01*
X114314672Y-85794727D01*
X114314669Y-85794724D01*
X114272226Y-85766365D01*
X114208133Y-85723538D01*
X114208125Y-85723534D01*
X114089747Y-85674500D01*
X114089745Y-85674499D01*
X114089744Y-85674499D01*
X113964069Y-85649500D01*
X113835931Y-85649500D01*
X113835930Y-85649500D01*
X113773093Y-85661999D01*
X113710256Y-85674499D01*
X113710255Y-85674499D01*
X113710252Y-85674500D01*
X113591874Y-85723534D01*
X113591866Y-85723538D01*
X113485331Y-85794724D01*
X113485327Y-85794727D01*
X113394727Y-85885327D01*
X113394724Y-85885331D01*
X113323538Y-85991866D01*
X113323534Y-85991874D01*
X113304268Y-86038387D01*
X113264531Y-86084913D01*
X113212804Y-86099501D01*
X112006900Y-86099501D01*
X111948709Y-86080594D01*
X111936896Y-86070505D01*
X110491890Y-84625499D01*
X109025517Y-83159126D01*
X108997742Y-83104612D01*
X109007313Y-83044180D01*
X109050578Y-83000915D01*
X109111010Y-82991344D01*
X109121143Y-82993497D01*
X109147273Y-83000499D01*
X110112804Y-83000499D01*
X110170995Y-83019406D01*
X110204268Y-83061613D01*
X110223534Y-83108125D01*
X110223538Y-83108133D01*
X110257613Y-83159129D01*
X110294724Y-83214669D01*
X110385331Y-83305276D01*
X110448848Y-83347717D01*
X110491866Y-83376461D01*
X110491870Y-83376463D01*
X110491873Y-83376465D01*
X110610256Y-83425501D01*
X110735931Y-83450500D01*
X110735932Y-83450500D01*
X110864068Y-83450500D01*
X110864069Y-83450500D01*
X110989744Y-83425501D01*
X111108127Y-83376465D01*
X111214669Y-83305276D01*
X111305276Y-83214669D01*
X111376465Y-83108127D01*
X111425501Y-82989744D01*
X111450500Y-82864069D01*
X111450500Y-82735931D01*
X111425501Y-82610256D01*
X111376465Y-82491873D01*
X111376463Y-82491870D01*
X111376461Y-82491866D01*
X111346664Y-82447273D01*
X111305276Y-82385331D01*
X111288949Y-82369004D01*
X111261172Y-82314487D01*
X111270743Y-82254055D01*
X111314008Y-82210790D01*
X111358953Y-82200000D01*
X111399999Y-82200000D01*
X111400000Y-82200000D01*
X111400000Y-79427525D01*
X113049500Y-79427525D01*
X113049500Y-79572474D01*
X113087017Y-79712489D01*
X113159487Y-79838010D01*
X113159489Y-79838012D01*
X113159491Y-79838015D01*
X113261985Y-79940509D01*
X113261987Y-79940510D01*
X113261989Y-79940512D01*
X113387511Y-80012982D01*
X113387512Y-80012982D01*
X113387515Y-80012984D01*
X113527525Y-80050500D01*
X113527526Y-80050500D01*
X113672474Y-80050500D01*
X113672475Y-80050500D01*
X113812485Y-80012984D01*
X113812487Y-80012982D01*
X113812489Y-80012982D01*
X113938010Y-79940512D01*
X113938010Y-79940511D01*
X113938015Y-79940509D01*
X114040509Y-79838015D01*
X114046987Y-79826795D01*
X114112982Y-79712489D01*
X114112982Y-79712487D01*
X114112984Y-79712485D01*
X114150500Y-79572475D01*
X114150500Y-79427525D01*
X114112984Y-79287515D01*
X114112982Y-79287512D01*
X114112982Y-79287510D01*
X114040512Y-79161989D01*
X114040510Y-79161987D01*
X114040509Y-79161985D01*
X113938015Y-79059491D01*
X113938012Y-79059489D01*
X113938010Y-79059487D01*
X113812488Y-78987017D01*
X113812489Y-78987017D01*
X113782896Y-78979087D01*
X113672475Y-78949500D01*
X113527525Y-78949500D01*
X113465790Y-78966041D01*
X113387510Y-78987017D01*
X113261989Y-79059487D01*
X113159487Y-79161989D01*
X113087017Y-79287510D01*
X113049500Y-79427525D01*
X111400000Y-79427525D01*
X111400000Y-77435930D01*
X112949500Y-77435930D01*
X112949500Y-77564069D01*
X112974499Y-77689742D01*
X112974500Y-77689747D01*
X113023534Y-77808125D01*
X113023538Y-77808133D01*
X113066365Y-77872226D01*
X113094724Y-77914669D01*
X113185331Y-78005276D01*
X113248848Y-78047717D01*
X113291866Y-78076461D01*
X113291870Y-78076463D01*
X113291873Y-78076465D01*
X113410256Y-78125501D01*
X113535931Y-78150500D01*
X113535932Y-78150500D01*
X113643101Y-78150500D01*
X113701292Y-78169407D01*
X113713105Y-78179496D01*
X114285562Y-78751953D01*
X114311184Y-78796333D01*
X114326793Y-78854586D01*
X114326795Y-78854590D01*
X114379517Y-78945907D01*
X114379519Y-78945909D01*
X114379521Y-78945912D01*
X114420505Y-78986896D01*
X114448281Y-79041411D01*
X114449500Y-79056898D01*
X114449500Y-79164069D01*
X114474499Y-79289742D01*
X114474500Y-79289747D01*
X114523534Y-79408125D01*
X114523538Y-79408133D01*
X114536496Y-79427525D01*
X114594724Y-79514669D01*
X114685331Y-79605276D01*
X114748848Y-79647717D01*
X114791866Y-79676461D01*
X114791870Y-79676463D01*
X114791873Y-79676465D01*
X114910256Y-79725501D01*
X115035931Y-79750500D01*
X115035932Y-79750500D01*
X115164068Y-79750500D01*
X115164069Y-79750500D01*
X115289744Y-79725501D01*
X115408127Y-79676465D01*
X115514669Y-79605276D01*
X115605276Y-79514669D01*
X115676465Y-79408127D01*
X115725501Y-79289744D01*
X115750500Y-79164069D01*
X115750500Y-79035931D01*
X115725501Y-78910256D01*
X115676465Y-78791873D01*
X115676463Y-78791870D01*
X115676461Y-78791866D01*
X115647717Y-78748848D01*
X115605276Y-78685331D01*
X115514669Y-78594724D01*
X115454600Y-78554587D01*
X115408133Y-78523538D01*
X115408125Y-78523534D01*
X115289747Y-78474500D01*
X115289745Y-78474499D01*
X115289744Y-78474499D01*
X115164069Y-78449500D01*
X115132723Y-78449500D01*
X115074532Y-78430593D01*
X115046987Y-78400001D01*
X115020479Y-78354088D01*
X115013664Y-78347273D01*
X114945912Y-78279520D01*
X114945912Y-78279521D01*
X114279496Y-77613105D01*
X114251719Y-77558588D01*
X114250500Y-77543101D01*
X114250500Y-77435932D01*
X114250500Y-77435931D01*
X114225501Y-77310256D01*
X114176465Y-77191873D01*
X114176463Y-77191870D01*
X114176461Y-77191866D01*
X114147717Y-77148848D01*
X114105276Y-77085331D01*
X114014669Y-76994724D01*
X113965672Y-76961985D01*
X113908133Y-76923538D01*
X113908125Y-76923534D01*
X113789747Y-76874500D01*
X113789745Y-76874499D01*
X113789744Y-76874499D01*
X113664069Y-76849500D01*
X113535931Y-76849500D01*
X113535930Y-76849500D01*
X113485724Y-76859487D01*
X113410256Y-76874499D01*
X113410255Y-76874499D01*
X113410252Y-76874500D01*
X113291874Y-76923534D01*
X113291866Y-76923538D01*
X113185331Y-76994724D01*
X113185327Y-76994727D01*
X113094727Y-77085327D01*
X113094724Y-77085331D01*
X113023538Y-77191866D01*
X113023534Y-77191874D01*
X112974500Y-77310252D01*
X112974499Y-77310257D01*
X112949500Y-77435930D01*
X111400000Y-77435930D01*
X111400000Y-76900000D01*
X109250000Y-76900000D01*
X109250000Y-76900001D01*
X109250000Y-81844601D01*
X109231093Y-81902792D01*
X109181593Y-81938756D01*
X109120407Y-81938756D01*
X109080996Y-81914605D01*
X108629495Y-81463104D01*
X108601718Y-81408587D01*
X108600499Y-81393100D01*
X108600499Y-80847274D01*
X108600499Y-80847273D01*
X108573206Y-80745413D01*
X108573204Y-80745410D01*
X108573204Y-80745408D01*
X108520482Y-80654092D01*
X108520478Y-80654087D01*
X108445912Y-80579520D01*
X108445912Y-80579521D01*
X102842461Y-74976070D01*
X102831586Y-74954727D01*
X102817828Y-74935131D01*
X102817944Y-74927951D01*
X102814684Y-74921553D01*
X102818430Y-74897897D01*
X102818818Y-74873954D01*
X102823380Y-74866641D01*
X102824255Y-74861121D01*
X102833391Y-74850596D01*
X102837555Y-74843924D01*
X102836560Y-74843161D01*
X102840505Y-74838018D01*
X102840509Y-74838015D01*
X102860592Y-74803229D01*
X102906060Y-74762288D01*
X102966910Y-74755891D01*
X103016333Y-74782724D01*
X103033701Y-74800092D01*
X103049433Y-74820595D01*
X103059491Y-74838015D01*
X103161985Y-74940509D01*
X103161987Y-74940510D01*
X103161989Y-74940512D01*
X103287511Y-75012982D01*
X103287512Y-75012982D01*
X103287515Y-75012984D01*
X103427525Y-75050500D01*
X103427526Y-75050500D01*
X103572474Y-75050500D01*
X103572475Y-75050500D01*
X103712485Y-75012984D01*
X103712487Y-75012982D01*
X103712489Y-75012982D01*
X103838010Y-74940512D01*
X103838010Y-74940511D01*
X103838015Y-74940509D01*
X103940509Y-74838015D01*
X103940512Y-74838010D01*
X104012982Y-74712489D01*
X104012982Y-74712487D01*
X104012984Y-74712485D01*
X104050500Y-74572475D01*
X104050500Y-74427525D01*
X107349500Y-74427525D01*
X107349500Y-74572474D01*
X107387017Y-74712489D01*
X107459487Y-74838010D01*
X107459489Y-74838012D01*
X107459491Y-74838015D01*
X107561985Y-74940509D01*
X107561987Y-74940510D01*
X107561989Y-74940512D01*
X107687511Y-75012982D01*
X107687512Y-75012982D01*
X107687515Y-75012984D01*
X107827525Y-75050500D01*
X107827526Y-75050500D01*
X107972474Y-75050500D01*
X107972475Y-75050500D01*
X108112485Y-75012984D01*
X108112487Y-75012982D01*
X108112489Y-75012982D01*
X108238010Y-74940512D01*
X108238010Y-74940511D01*
X108238015Y-74940509D01*
X108340509Y-74838015D01*
X108364264Y-74796869D01*
X108409733Y-74755930D01*
X108470583Y-74749534D01*
X108523571Y-74780127D01*
X108535734Y-74796867D01*
X108559491Y-74838015D01*
X108661985Y-74940509D01*
X108661987Y-74940510D01*
X108661989Y-74940512D01*
X108787511Y-75012982D01*
X108787512Y-75012982D01*
X108787515Y-75012984D01*
X108927525Y-75050500D01*
X108927526Y-75050500D01*
X109072474Y-75050500D01*
X109072475Y-75050500D01*
X109212485Y-75012984D01*
X109212487Y-75012982D01*
X109212489Y-75012982D01*
X109338010Y-74940512D01*
X109338010Y-74940511D01*
X109338015Y-74940509D01*
X109440509Y-74838015D01*
X109440512Y-74838010D01*
X109512982Y-74712489D01*
X109512982Y-74712487D01*
X109512984Y-74712485D01*
X109550500Y-74572475D01*
X109550500Y-74427525D01*
X109512984Y-74287515D01*
X109512982Y-74287512D01*
X109512982Y-74287510D01*
X109440512Y-74161989D01*
X109440510Y-74161987D01*
X109440509Y-74161985D01*
X109338015Y-74059491D01*
X109338012Y-74059489D01*
X109338010Y-74059487D01*
X109212488Y-73987017D01*
X109212489Y-73987017D01*
X109105305Y-73958297D01*
X109072475Y-73949500D01*
X108927525Y-73949500D01*
X108894695Y-73958297D01*
X108787510Y-73987017D01*
X108661989Y-74059487D01*
X108559489Y-74161987D01*
X108535736Y-74203129D01*
X108490266Y-74244069D01*
X108429416Y-74250464D01*
X108376428Y-74219871D01*
X108364264Y-74203129D01*
X108340510Y-74161987D01*
X108340509Y-74161985D01*
X108238015Y-74059491D01*
X108238012Y-74059489D01*
X108238010Y-74059487D01*
X108112488Y-73987017D01*
X108112489Y-73987017D01*
X108005305Y-73958297D01*
X107972475Y-73949500D01*
X107827525Y-73949500D01*
X107794695Y-73958297D01*
X107687510Y-73987017D01*
X107561989Y-74059487D01*
X107459487Y-74161989D01*
X107387017Y-74287510D01*
X107349500Y-74427525D01*
X104050500Y-74427525D01*
X104012984Y-74287515D01*
X104012982Y-74287512D01*
X104012982Y-74287510D01*
X103940512Y-74161989D01*
X103940510Y-74161987D01*
X103940509Y-74161985D01*
X103838015Y-74059491D01*
X103838012Y-74059489D01*
X103838010Y-74059487D01*
X103712488Y-73987017D01*
X103712489Y-73987017D01*
X103605305Y-73958297D01*
X103572475Y-73949500D01*
X103427525Y-73949500D01*
X103427522Y-73949500D01*
X103394690Y-73958297D01*
X103333588Y-73955094D01*
X103299066Y-73932674D01*
X102845912Y-73479521D01*
X102845907Y-73479517D01*
X102754590Y-73426795D01*
X102754592Y-73426795D01*
X102715068Y-73416205D01*
X102652727Y-73399501D01*
X100052727Y-73399501D01*
X99947273Y-73399501D01*
X99884931Y-73416205D01*
X99845408Y-73426795D01*
X99754092Y-73479517D01*
X99754087Y-73479521D01*
X99663103Y-73570505D01*
X99608587Y-73598282D01*
X99593100Y-73599501D01*
X98552727Y-73599501D01*
X98447273Y-73599501D01*
X98384931Y-73616205D01*
X98345408Y-73626795D01*
X98254092Y-73679517D01*
X98254091Y-73679518D01*
X95826480Y-76107127D01*
X95771963Y-76134904D01*
X95711531Y-76125333D01*
X95709808Y-76124433D01*
X95708130Y-76123536D01*
X95589747Y-76074500D01*
X95589745Y-76074499D01*
X95589744Y-76074499D01*
X95464069Y-76049500D01*
X95335931Y-76049500D01*
X95335930Y-76049500D01*
X95273093Y-76061999D01*
X95210256Y-76074499D01*
X95210255Y-76074499D01*
X95210252Y-76074500D01*
X95091874Y-76123534D01*
X95091866Y-76123538D01*
X94985331Y-76194724D01*
X94985327Y-76194727D01*
X94894727Y-76285327D01*
X94894724Y-76285331D01*
X94823538Y-76391866D01*
X94823534Y-76391874D01*
X94774500Y-76510252D01*
X94774499Y-76510255D01*
X94774499Y-76510256D01*
X94749500Y-76635931D01*
X94749500Y-76764069D01*
X94771466Y-76874499D01*
X94774499Y-76889742D01*
X94774500Y-76889747D01*
X94823534Y-77008125D01*
X94823538Y-77008133D01*
X94866365Y-77072226D01*
X94894724Y-77114669D01*
X94985331Y-77205276D01*
X95090643Y-77275643D01*
X95128522Y-77323693D01*
X95130924Y-77384831D01*
X95105645Y-77427961D01*
X94454088Y-78079520D01*
X94379521Y-78154087D01*
X94379517Y-78154092D01*
X94326795Y-78245408D01*
X94299501Y-78347274D01*
X94299501Y-78693100D01*
X94280594Y-78751291D01*
X94270505Y-78763104D01*
X94254088Y-78779521D01*
X94254087Y-78779520D01*
X94179521Y-78854087D01*
X94179517Y-78854092D01*
X94126795Y-78945408D01*
X94126660Y-78945912D01*
X94102541Y-79035930D01*
X94099501Y-79047274D01*
X94099501Y-79893100D01*
X94080594Y-79951291D01*
X94070505Y-79963104D01*
X93454088Y-80579521D01*
X93454087Y-80579520D01*
X93379521Y-80654087D01*
X93379517Y-80654092D01*
X93326795Y-80745408D01*
X93313253Y-80795948D01*
X93301496Y-80839830D01*
X93299501Y-80847274D01*
X93299501Y-81375499D01*
X93280594Y-81433690D01*
X93231094Y-81469654D01*
X93219819Y-81472596D01*
X93210259Y-81474497D01*
X93210257Y-81474498D01*
X93091874Y-81523534D01*
X93091866Y-81523538D01*
X92985331Y-81594724D01*
X92985327Y-81594727D01*
X92894727Y-81685327D01*
X92894724Y-81685331D01*
X92823538Y-81791866D01*
X92823534Y-81791874D01*
X92774500Y-81910252D01*
X92774499Y-81910257D01*
X92755718Y-82004674D01*
X92749500Y-82035931D01*
X92749500Y-82164069D01*
X92769754Y-82265892D01*
X92774499Y-82289742D01*
X92774500Y-82289747D01*
X92823534Y-82408125D01*
X92823538Y-82408133D01*
X92849691Y-82447273D01*
X92894724Y-82514669D01*
X92985331Y-82605276D01*
X93032654Y-82636896D01*
X93091866Y-82676461D01*
X93091870Y-82676463D01*
X93091873Y-82676465D01*
X93210256Y-82725501D01*
X93335931Y-82750500D01*
X93335932Y-82750500D01*
X93464068Y-82750500D01*
X93464069Y-82750500D01*
X93581187Y-82727203D01*
X93641948Y-82734395D01*
X93686878Y-82775927D01*
X93699501Y-82824301D01*
X93699501Y-83275698D01*
X93680594Y-83333889D01*
X93631094Y-83369853D01*
X93581187Y-83372796D01*
X93464071Y-83349500D01*
X93464069Y-83349500D01*
X93335931Y-83349500D01*
X93335930Y-83349500D01*
X93273093Y-83361999D01*
X93210256Y-83374499D01*
X93210255Y-83374499D01*
X93210252Y-83374500D01*
X93091874Y-83423534D01*
X93091866Y-83423538D01*
X92985331Y-83494724D01*
X92985327Y-83494727D01*
X92894727Y-83585327D01*
X92894724Y-83585331D01*
X92823538Y-83691866D01*
X92823534Y-83691874D01*
X92774500Y-83810252D01*
X92774499Y-83810257D01*
X92749500Y-83935930D01*
X92749500Y-84064069D01*
X92774499Y-84189742D01*
X92774500Y-84189747D01*
X92823534Y-84308125D01*
X92823538Y-84308133D01*
X92862753Y-84366821D01*
X92894724Y-84414669D01*
X92985331Y-84505276D01*
X93037657Y-84540239D01*
X93091866Y-84576461D01*
X93091870Y-84576463D01*
X93091873Y-84576465D01*
X93210256Y-84625501D01*
X93335931Y-84650500D01*
X93335932Y-84650500D01*
X93464068Y-84650500D01*
X93464069Y-84650500D01*
X93581187Y-84627203D01*
X93641948Y-84634395D01*
X93686878Y-84675927D01*
X93699501Y-84724301D01*
X93699501Y-87447273D01*
X93699501Y-87552727D01*
X93721795Y-87635930D01*
X93726795Y-87654591D01*
X93782765Y-87751532D01*
X93781508Y-87752257D01*
X93799467Y-87802956D01*
X93799501Y-87805556D01*
X93799501Y-87852727D01*
X93821039Y-87933110D01*
X93826795Y-87954591D01*
X93879517Y-88045907D01*
X93879519Y-88045909D01*
X93879521Y-88045912D01*
X95570506Y-89736897D01*
X95598282Y-89791412D01*
X95599501Y-89806899D01*
X95599501Y-93647273D01*
X95599501Y-93752727D01*
X95619000Y-93825499D01*
X95626795Y-93854591D01*
X95679517Y-93945907D01*
X95679518Y-93945908D01*
X95679519Y-93945909D01*
X95679521Y-93945912D01*
X99779521Y-98045912D01*
X99779520Y-98045912D01*
X99854087Y-98120478D01*
X99854092Y-98120482D01*
X99945409Y-98173204D01*
X99945407Y-98173204D01*
X99945411Y-98173205D01*
X99945413Y-98173206D01*
X100047273Y-98200499D01*
X100047275Y-98200499D01*
X101252725Y-98200499D01*
X101252727Y-98200499D01*
X101354587Y-98173206D01*
X101354589Y-98173204D01*
X101354591Y-98173204D01*
X101451532Y-98117235D01*
X101452256Y-98118489D01*
X101502968Y-98100533D01*
X101505557Y-98100499D01*
X102939547Y-98100499D01*
X102997738Y-98119406D01*
X103009551Y-98129496D01*
X103085322Y-98205268D01*
X103085326Y-98205271D01*
X103085331Y-98205276D01*
X103123221Y-98230593D01*
X103191866Y-98276461D01*
X103191870Y-98276463D01*
X103191873Y-98276465D01*
X103310256Y-98325501D01*
X103435931Y-98350500D01*
X103440702Y-98351449D01*
X103440436Y-98352781D01*
X103491071Y-98374918D01*
X103522020Y-98427699D01*
X103516034Y-98488591D01*
X103480327Y-98531249D01*
X103413382Y-98575980D01*
X103389597Y-98591874D01*
X103385327Y-98594727D01*
X103294727Y-98685327D01*
X103294724Y-98685331D01*
X103223538Y-98791866D01*
X103223534Y-98791874D01*
X103174500Y-98910252D01*
X103174499Y-98910255D01*
X103174499Y-98910256D01*
X103149500Y-99035931D01*
X103149500Y-99164069D01*
X103172150Y-99277936D01*
X103172797Y-99281186D01*
X103165605Y-99341948D01*
X103124073Y-99386878D01*
X103075699Y-99399501D01*
X102652727Y-99399501D01*
X102547273Y-99399501D01*
X102484931Y-99416205D01*
X102445408Y-99426795D01*
X102354092Y-99479517D01*
X102354087Y-99479521D01*
X101613103Y-100220504D01*
X101558587Y-100248281D01*
X101543100Y-100249500D01*
X101427525Y-100249500D01*
X101386473Y-100260500D01*
X101287510Y-100287017D01*
X101161989Y-100359487D01*
X101161988Y-100359488D01*
X101161985Y-100359490D01*
X101161985Y-100359491D01*
X101070001Y-100451474D01*
X101015487Y-100479250D01*
X100955055Y-100469679D01*
X100929999Y-100451475D01*
X100838015Y-100359491D01*
X100838012Y-100359489D01*
X100838010Y-100359487D01*
X100712488Y-100287017D01*
X100712489Y-100287017D01*
X100644898Y-100268906D01*
X100572475Y-100249500D01*
X100427525Y-100249500D01*
X100386473Y-100260500D01*
X100287510Y-100287017D01*
X100161989Y-100359487D01*
X100059487Y-100461989D01*
X99987017Y-100587510D01*
X99974242Y-100635187D01*
X99949500Y-100727525D01*
X99949500Y-100872475D01*
X99974042Y-100964067D01*
X99981641Y-100992424D01*
X99978439Y-101053525D01*
X99971750Y-101067548D01*
X99926795Y-101145410D01*
X99926794Y-101145412D01*
X99926794Y-101145413D01*
X99899501Y-101247273D01*
X99899501Y-103847273D01*
X99899501Y-103952727D01*
X99905862Y-103976465D01*
X99926795Y-104054591D01*
X99979517Y-104145907D01*
X99979519Y-104145909D01*
X99979521Y-104145912D01*
X101754088Y-105920479D01*
X101754090Y-105920480D01*
X101754092Y-105920482D01*
X101845409Y-105973204D01*
X101845407Y-105973204D01*
X101845411Y-105973205D01*
X101845413Y-105973206D01*
X101947273Y-106000499D01*
X102052727Y-106000499D01*
X109093100Y-106000499D01*
X109151291Y-106019406D01*
X109163104Y-106029495D01*
X109820504Y-106686895D01*
X109848281Y-106741412D01*
X109849500Y-106756899D01*
X109849500Y-106864069D01*
X109854746Y-106890444D01*
X109874499Y-106989742D01*
X109874500Y-106989747D01*
X109923534Y-107108125D01*
X109923538Y-107108133D01*
X109966365Y-107172226D01*
X109994724Y-107214669D01*
X110085331Y-107305276D01*
X110136554Y-107339502D01*
X110191866Y-107376461D01*
X110191870Y-107376463D01*
X110191873Y-107376465D01*
X110310256Y-107425501D01*
X110435931Y-107450500D01*
X110435932Y-107450500D01*
X110564068Y-107450500D01*
X110564069Y-107450500D01*
X110689744Y-107425501D01*
X110808127Y-107376465D01*
X110914669Y-107305276D01*
X111005276Y-107214669D01*
X111075644Y-107109356D01*
X111123693Y-107071476D01*
X111184832Y-107069074D01*
X111227960Y-107094351D01*
X113554088Y-109420479D01*
X113554090Y-109420480D01*
X113554092Y-109420482D01*
X113645409Y-109473204D01*
X113645407Y-109473204D01*
X113645411Y-109473205D01*
X113645413Y-109473206D01*
X113747273Y-109500499D01*
X113852727Y-109500499D01*
X114998746Y-109500499D01*
X115056937Y-109519406D01*
X115092285Y-109568055D01*
X115092302Y-109568048D01*
X115092331Y-109568118D01*
X115092899Y-109568900D01*
X115093789Y-109571639D01*
X115176004Y-109732994D01*
X115282447Y-109879501D01*
X115410499Y-110007553D01*
X115557006Y-110113996D01*
X115718361Y-110196211D01*
X115890591Y-110252171D01*
X115962136Y-110263502D01*
X116069451Y-110280500D01*
X116069454Y-110280500D01*
X116250549Y-110280500D01*
X116339977Y-110266335D01*
X116429409Y-110252171D01*
X116601639Y-110196211D01*
X116601642Y-110196209D01*
X116601646Y-110196208D01*
X116755555Y-110117787D01*
X116815987Y-110108215D01*
X116870503Y-110135992D01*
X116898281Y-110190509D01*
X116899500Y-110205996D01*
X116899500Y-110594003D01*
X116880593Y-110652194D01*
X116831093Y-110688158D01*
X116769907Y-110688158D01*
X116755555Y-110682213D01*
X116601637Y-110603788D01*
X116429406Y-110547828D01*
X116250549Y-110519500D01*
X116250546Y-110519500D01*
X116069454Y-110519500D01*
X116069451Y-110519500D01*
X115890593Y-110547828D01*
X115718362Y-110603788D01*
X115557008Y-110686002D01*
X115491667Y-110733475D01*
X115410499Y-110792447D01*
X115282447Y-110920499D01*
X115229225Y-110993752D01*
X115176002Y-111067008D01*
X115093788Y-111228362D01*
X115037828Y-111400593D01*
X115009500Y-111579450D01*
X115009500Y-111760549D01*
X115037828Y-111939406D01*
X115037829Y-111939409D01*
X115093789Y-112111639D01*
X115176004Y-112272994D01*
X115282447Y-112419501D01*
X115410499Y-112547553D01*
X115557006Y-112653996D01*
X115718361Y-112736211D01*
X115890591Y-112792171D01*
X115962136Y-112803502D01*
X116069451Y-112820500D01*
X116069454Y-112820500D01*
X116250549Y-112820500D01*
X116339977Y-112806335D01*
X116429409Y-112792171D01*
X116601639Y-112736211D01*
X116601642Y-112736209D01*
X116601646Y-112736208D01*
X116755555Y-112657787D01*
X116815987Y-112648215D01*
X116870503Y-112675992D01*
X116898281Y-112730509D01*
X116899500Y-112745996D01*
X116899500Y-113134003D01*
X116880593Y-113192194D01*
X116831093Y-113228158D01*
X116769907Y-113228158D01*
X116755555Y-113222213D01*
X116601637Y-113143788D01*
X116429406Y-113087828D01*
X116250549Y-113059500D01*
X116250546Y-113059500D01*
X116069454Y-113059500D01*
X116069451Y-113059500D01*
X115890593Y-113087828D01*
X115718362Y-113143788D01*
X115557008Y-113226002D01*
X115491667Y-113273475D01*
X115410499Y-113332447D01*
X115282447Y-113460499D01*
X115229225Y-113533752D01*
X115176002Y-113607008D01*
X115093788Y-113768362D01*
X115037828Y-113940593D01*
X115009500Y-114119450D01*
X115009500Y-114300549D01*
X115037828Y-114479406D01*
X115037829Y-114479409D01*
X115093789Y-114651639D01*
X115176004Y-114812994D01*
X115282447Y-114959501D01*
X115410499Y-115087553D01*
X115557006Y-115193996D01*
X115718361Y-115276211D01*
X115890591Y-115332171D01*
X115962136Y-115343502D01*
X116069451Y-115360500D01*
X116069454Y-115360500D01*
X116250549Y-115360500D01*
X116339977Y-115346335D01*
X116429409Y-115332171D01*
X116601639Y-115276211D01*
X116601642Y-115276209D01*
X116601646Y-115276208D01*
X116755555Y-115197787D01*
X116815987Y-115188215D01*
X116870503Y-115215992D01*
X116898281Y-115270509D01*
X116899500Y-115285996D01*
X116899500Y-115674003D01*
X116880593Y-115732194D01*
X116831093Y-115768158D01*
X116769907Y-115768158D01*
X116755555Y-115762213D01*
X116601637Y-115683788D01*
X116429406Y-115627828D01*
X116250549Y-115599500D01*
X116250546Y-115599500D01*
X116069454Y-115599500D01*
X116069451Y-115599500D01*
X115890593Y-115627828D01*
X115718362Y-115683788D01*
X115557008Y-115766002D01*
X115491667Y-115813475D01*
X115410499Y-115872447D01*
X115282447Y-116000499D01*
X115229225Y-116073752D01*
X115176002Y-116147008D01*
X115093788Y-116308362D01*
X115037828Y-116480593D01*
X115009500Y-116659450D01*
X115009500Y-116840549D01*
X115037828Y-117019406D01*
X115037829Y-117019409D01*
X115093789Y-117191639D01*
X115176004Y-117352994D01*
X115282447Y-117499501D01*
X115410499Y-117627553D01*
X115557006Y-117733996D01*
X115718361Y-117816211D01*
X115729483Y-117819824D01*
X115732983Y-117820962D01*
X115782483Y-117856926D01*
X115801391Y-117915116D01*
X115782484Y-117973307D01*
X115732985Y-118009271D01*
X115732984Y-118009272D01*
X115641784Y-118038904D01*
X115452446Y-118135376D01*
X115452442Y-118135378D01*
X115398282Y-118174728D01*
X116030591Y-118807037D01*
X115967007Y-118824075D01*
X115852993Y-118889901D01*
X115759901Y-118982993D01*
X115694075Y-119097007D01*
X115677037Y-119160591D01*
X115044728Y-118528282D01*
X115005378Y-118582442D01*
X115005376Y-118582446D01*
X114908904Y-118771784D01*
X114843240Y-118973878D01*
X114810000Y-119183749D01*
X114810000Y-119396250D01*
X114843240Y-119606121D01*
X114908904Y-119808215D01*
X115005376Y-119997553D01*
X115005380Y-119997559D01*
X115044728Y-120051716D01*
X115044729Y-120051716D01*
X115677037Y-119419407D01*
X115694075Y-119482993D01*
X115759901Y-119597007D01*
X115852993Y-119690099D01*
X115967007Y-119755925D01*
X116030590Y-119772962D01*
X115398282Y-120405269D01*
X115398282Y-120405270D01*
X115452440Y-120444619D01*
X115452446Y-120444623D01*
X115641784Y-120541095D01*
X115843878Y-120606759D01*
X116053750Y-120640000D01*
X116266250Y-120640000D01*
X116476121Y-120606759D01*
X116678217Y-120541094D01*
X116755554Y-120501689D01*
X116815986Y-120492117D01*
X116870503Y-120519894D01*
X116898281Y-120574410D01*
X116899500Y-120589898D01*
X116899500Y-122550500D01*
X116880593Y-122608691D01*
X116831093Y-122644655D01*
X116800500Y-122649500D01*
X92599500Y-122649500D01*
X92541309Y-122630593D01*
X92505345Y-122581093D01*
X92500500Y-122550500D01*
X92500500Y-120559327D01*
X92519407Y-120501136D01*
X92568907Y-120465172D01*
X92630093Y-120465172D01*
X92644445Y-120471117D01*
X92781784Y-120541095D01*
X92983878Y-120606759D01*
X93193750Y-120640000D01*
X93406250Y-120640000D01*
X93616121Y-120606759D01*
X93818215Y-120541095D01*
X94007556Y-120444620D01*
X94061716Y-120405270D01*
X93429408Y-119772962D01*
X93492993Y-119755925D01*
X93607007Y-119690099D01*
X93700099Y-119597007D01*
X93765925Y-119482993D01*
X93782962Y-119419408D01*
X94415270Y-120051716D01*
X94454620Y-119997556D01*
X94551095Y-119808215D01*
X94616759Y-119606121D01*
X94650000Y-119396250D01*
X94650000Y-119183749D01*
X94616759Y-118973878D01*
X94551095Y-118771784D01*
X94454623Y-118582446D01*
X94454619Y-118582440D01*
X94415270Y-118528282D01*
X94415269Y-118528282D01*
X93782962Y-119160589D01*
X93765925Y-119097007D01*
X93700099Y-118982993D01*
X93607007Y-118889901D01*
X93492993Y-118824075D01*
X93429407Y-118807037D01*
X94061716Y-118174729D01*
X94061716Y-118174728D01*
X94007559Y-118135380D01*
X94007553Y-118135376D01*
X93818215Y-118038904D01*
X93727015Y-118009272D01*
X93677515Y-117973308D01*
X93658608Y-117915117D01*
X93677515Y-117856926D01*
X93727013Y-117820962D01*
X93727017Y-117820962D01*
X93727018Y-117820962D01*
X93741633Y-117816213D01*
X93741633Y-117816212D01*
X93741639Y-117816211D01*
X93902994Y-117733996D01*
X94049501Y-117627553D01*
X94177553Y-117499501D01*
X94283996Y-117352994D01*
X94366211Y-117191639D01*
X94422171Y-117019409D01*
X94450500Y-116840546D01*
X94450500Y-116659454D01*
X94450500Y-116659450D01*
X94422171Y-116480593D01*
X94422171Y-116480591D01*
X94366211Y-116308361D01*
X94283996Y-116147006D01*
X94177553Y-116000499D01*
X94049501Y-115872447D01*
X93902994Y-115766004D01*
X93902993Y-115766003D01*
X93902991Y-115766002D01*
X93741637Y-115683788D01*
X93569406Y-115627828D01*
X93390549Y-115599500D01*
X93390546Y-115599500D01*
X93209454Y-115599500D01*
X93209451Y-115599500D01*
X93030593Y-115627828D01*
X92858362Y-115683788D01*
X92697006Y-115766003D01*
X92697002Y-115766005D01*
X92657690Y-115794568D01*
X92599499Y-115813475D01*
X92541309Y-115794567D01*
X92505345Y-115745067D01*
X92500500Y-115714475D01*
X92500500Y-115245524D01*
X92519407Y-115187333D01*
X92568907Y-115151369D01*
X92630093Y-115151369D01*
X92657690Y-115165431D01*
X92697006Y-115193996D01*
X92858361Y-115276211D01*
X93030591Y-115332171D01*
X93102136Y-115343502D01*
X93209451Y-115360500D01*
X93209454Y-115360500D01*
X93390549Y-115360500D01*
X93479977Y-115346335D01*
X93569409Y-115332171D01*
X93741639Y-115276211D01*
X93902994Y-115193996D01*
X94049501Y-115087553D01*
X94177553Y-114959501D01*
X94283996Y-114812994D01*
X94366211Y-114651639D01*
X94422171Y-114479409D01*
X94450500Y-114300546D01*
X94450500Y-114119454D01*
X94450500Y-114119450D01*
X94422171Y-113940593D01*
X94422171Y-113940591D01*
X94366211Y-113768361D01*
X94283996Y-113607006D01*
X94177553Y-113460499D01*
X94049501Y-113332447D01*
X93902994Y-113226004D01*
X93902993Y-113226003D01*
X93902991Y-113226002D01*
X93741637Y-113143788D01*
X93569406Y-113087828D01*
X93390549Y-113059500D01*
X93390546Y-113059500D01*
X93209454Y-113059500D01*
X93209451Y-113059500D01*
X93030593Y-113087828D01*
X92858362Y-113143788D01*
X92697006Y-113226003D01*
X92697002Y-113226005D01*
X92657690Y-113254568D01*
X92599499Y-113273475D01*
X92541309Y-113254567D01*
X92505345Y-113205067D01*
X92500500Y-113174475D01*
X92500500Y-112705524D01*
X92519407Y-112647333D01*
X92568907Y-112611369D01*
X92630093Y-112611369D01*
X92657690Y-112625431D01*
X92697006Y-112653996D01*
X92858361Y-112736211D01*
X93030591Y-112792171D01*
X93102136Y-112803502D01*
X93209451Y-112820500D01*
X93209454Y-112820500D01*
X93390549Y-112820500D01*
X93479977Y-112806335D01*
X93569409Y-112792171D01*
X93741639Y-112736211D01*
X93902994Y-112653996D01*
X94049501Y-112547553D01*
X94177553Y-112419501D01*
X94283996Y-112272994D01*
X94366211Y-112111639D01*
X94422171Y-111939409D01*
X94450500Y-111760546D01*
X94450500Y-111579454D01*
X94450500Y-111579450D01*
X94422171Y-111400593D01*
X94422171Y-111400591D01*
X94366211Y-111228361D01*
X94283996Y-111067006D01*
X94177553Y-110920499D01*
X94049501Y-110792447D01*
X93902994Y-110686004D01*
X93902993Y-110686003D01*
X93902991Y-110686002D01*
X93741637Y-110603788D01*
X93569406Y-110547828D01*
X93390549Y-110519500D01*
X93390546Y-110519500D01*
X93209454Y-110519500D01*
X93209451Y-110519500D01*
X93030593Y-110547828D01*
X92858362Y-110603788D01*
X92697006Y-110686003D01*
X92697002Y-110686005D01*
X92657690Y-110714568D01*
X92599499Y-110733475D01*
X92541309Y-110714567D01*
X92505345Y-110665067D01*
X92500500Y-110634475D01*
X92500500Y-110165524D01*
X92519407Y-110107333D01*
X92568907Y-110071369D01*
X92630093Y-110071369D01*
X92657690Y-110085431D01*
X92697006Y-110113996D01*
X92858361Y-110196211D01*
X93030591Y-110252171D01*
X93102136Y-110263502D01*
X93209451Y-110280500D01*
X93209454Y-110280500D01*
X93390549Y-110280500D01*
X93479977Y-110266335D01*
X93569409Y-110252171D01*
X93741639Y-110196211D01*
X93902994Y-110113996D01*
X94049501Y-110007553D01*
X94177553Y-109879501D01*
X94283996Y-109732994D01*
X94366211Y-109571639D01*
X94422171Y-109399409D01*
X94450500Y-109220546D01*
X94450500Y-109039454D01*
X94450500Y-109039450D01*
X94422171Y-108860593D01*
X94422171Y-108860591D01*
X94366211Y-108688361D01*
X94283996Y-108527006D01*
X94177553Y-108380499D01*
X94049501Y-108252447D01*
X93902994Y-108146004D01*
X93902993Y-108146003D01*
X93902991Y-108146002D01*
X93741637Y-108063788D01*
X93569406Y-108007828D01*
X93390549Y-107979500D01*
X93390546Y-107979500D01*
X93209454Y-107979500D01*
X93209451Y-107979500D01*
X93030593Y-108007828D01*
X92858362Y-108063788D01*
X92697006Y-108146003D01*
X92697002Y-108146005D01*
X92657690Y-108174568D01*
X92599499Y-108193475D01*
X92541309Y-108174567D01*
X92505345Y-108125067D01*
X92500500Y-108094475D01*
X92500500Y-107625524D01*
X92519407Y-107567333D01*
X92568907Y-107531369D01*
X92630093Y-107531369D01*
X92657690Y-107545431D01*
X92697006Y-107573996D01*
X92858361Y-107656211D01*
X93030591Y-107712171D01*
X93102136Y-107723502D01*
X93209451Y-107740500D01*
X93209454Y-107740500D01*
X93390549Y-107740500D01*
X93479977Y-107726335D01*
X93569409Y-107712171D01*
X93741639Y-107656211D01*
X93902994Y-107573996D01*
X94049501Y-107467553D01*
X94177553Y-107339501D01*
X94283996Y-107192994D01*
X94366211Y-107031639D01*
X94400039Y-106927525D01*
X101449500Y-106927525D01*
X101449500Y-107072475D01*
X101479087Y-107182896D01*
X101487017Y-107212489D01*
X101559487Y-107338010D01*
X101559489Y-107338012D01*
X101559491Y-107338015D01*
X101661985Y-107440509D01*
X101661987Y-107440510D01*
X101661989Y-107440512D01*
X101787511Y-107512982D01*
X101787512Y-107512982D01*
X101787515Y-107512984D01*
X101927525Y-107550500D01*
X101927526Y-107550500D01*
X102072474Y-107550500D01*
X102072475Y-107550500D01*
X102212485Y-107512984D01*
X102212487Y-107512982D01*
X102212489Y-107512982D01*
X102338010Y-107440512D01*
X102338010Y-107440511D01*
X102338015Y-107440509D01*
X102440509Y-107338015D01*
X102459413Y-107305272D01*
X102512982Y-107212489D01*
X102512982Y-107212487D01*
X102512984Y-107212485D01*
X102550500Y-107072475D01*
X102550500Y-106927525D01*
X104049500Y-106927525D01*
X104049500Y-107072475D01*
X104079087Y-107182896D01*
X104087017Y-107212489D01*
X104159487Y-107338010D01*
X104159489Y-107338012D01*
X104159491Y-107338015D01*
X104261985Y-107440509D01*
X104261987Y-107440510D01*
X104261989Y-107440512D01*
X104387511Y-107512982D01*
X104387512Y-107512982D01*
X104387515Y-107512984D01*
X104527525Y-107550500D01*
X104527526Y-107550500D01*
X104672474Y-107550500D01*
X104672475Y-107550500D01*
X104812485Y-107512984D01*
X104812487Y-107512982D01*
X104812489Y-107512982D01*
X104938010Y-107440512D01*
X104938010Y-107440511D01*
X104938015Y-107440509D01*
X105040509Y-107338015D01*
X105059413Y-107305272D01*
X105112982Y-107212489D01*
X105112982Y-107212487D01*
X105112984Y-107212485D01*
X105150500Y-107072475D01*
X105150500Y-106927525D01*
X106549500Y-106927525D01*
X106549500Y-107072475D01*
X106579087Y-107182896D01*
X106587017Y-107212489D01*
X106659487Y-107338010D01*
X106659489Y-107338012D01*
X106659491Y-107338015D01*
X106761985Y-107440509D01*
X106761987Y-107440510D01*
X106761989Y-107440512D01*
X106887511Y-107512982D01*
X106887512Y-107512982D01*
X106887515Y-107512984D01*
X107027525Y-107550500D01*
X107027526Y-107550500D01*
X107172474Y-107550500D01*
X107172475Y-107550500D01*
X107312485Y-107512984D01*
X107312487Y-107512982D01*
X107312489Y-107512982D01*
X107438010Y-107440512D01*
X107438010Y-107440511D01*
X107438015Y-107440509D01*
X107540509Y-107338015D01*
X107559413Y-107305272D01*
X107612982Y-107212489D01*
X107612982Y-107212487D01*
X107612984Y-107212485D01*
X107650500Y-107072475D01*
X107650500Y-106927525D01*
X107849500Y-106927525D01*
X107849500Y-107072475D01*
X107879087Y-107182896D01*
X107887017Y-107212489D01*
X107959487Y-107338010D01*
X107959489Y-107338012D01*
X107959491Y-107338015D01*
X108061985Y-107440509D01*
X108061987Y-107440510D01*
X108061989Y-107440512D01*
X108187511Y-107512982D01*
X108187512Y-107512982D01*
X108187515Y-107512984D01*
X108327525Y-107550500D01*
X108327526Y-107550500D01*
X108472474Y-107550500D01*
X108472475Y-107550500D01*
X108612485Y-107512984D01*
X108612487Y-107512982D01*
X108612489Y-107512982D01*
X108738010Y-107440512D01*
X108738010Y-107440511D01*
X108738015Y-107440509D01*
X108840509Y-107338015D01*
X108859413Y-107305272D01*
X108912982Y-107212489D01*
X108912982Y-107212487D01*
X108912984Y-107212485D01*
X108950500Y-107072475D01*
X108950500Y-106927525D01*
X108912984Y-106787515D01*
X108912982Y-106787512D01*
X108912982Y-106787510D01*
X108840512Y-106661989D01*
X108840510Y-106661987D01*
X108840509Y-106661985D01*
X108738015Y-106559491D01*
X108738012Y-106559489D01*
X108738010Y-106559487D01*
X108612488Y-106487017D01*
X108612489Y-106487017D01*
X108582896Y-106479087D01*
X108472475Y-106449500D01*
X108327525Y-106449500D01*
X108265790Y-106466041D01*
X108187510Y-106487017D01*
X108061989Y-106559487D01*
X107959487Y-106661989D01*
X107887017Y-106787510D01*
X107866503Y-106864069D01*
X107849500Y-106927525D01*
X107650500Y-106927525D01*
X107612984Y-106787515D01*
X107612982Y-106787512D01*
X107612982Y-106787510D01*
X107540512Y-106661989D01*
X107540510Y-106661987D01*
X107540509Y-106661985D01*
X107438015Y-106559491D01*
X107438012Y-106559489D01*
X107438010Y-106559487D01*
X107312488Y-106487017D01*
X107312489Y-106487017D01*
X107282896Y-106479087D01*
X107172475Y-106449500D01*
X107027525Y-106449500D01*
X106965790Y-106466041D01*
X106887510Y-106487017D01*
X106761989Y-106559487D01*
X106659487Y-106661989D01*
X106587017Y-106787510D01*
X106566503Y-106864069D01*
X106549500Y-106927525D01*
X105150500Y-106927525D01*
X105112984Y-106787515D01*
X105112982Y-106787512D01*
X105112982Y-106787510D01*
X105040512Y-106661989D01*
X105040510Y-106661987D01*
X105040509Y-106661985D01*
X104938015Y-106559491D01*
X104938012Y-106559489D01*
X104938010Y-106559487D01*
X104812488Y-106487017D01*
X104812489Y-106487017D01*
X104782896Y-106479087D01*
X104672475Y-106449500D01*
X104527525Y-106449500D01*
X104465790Y-106466041D01*
X104387510Y-106487017D01*
X104261989Y-106559487D01*
X104159487Y-106661989D01*
X104087017Y-106787510D01*
X104066503Y-106864069D01*
X104049500Y-106927525D01*
X102550500Y-106927525D01*
X102512984Y-106787515D01*
X102512982Y-106787512D01*
X102512982Y-106787510D01*
X102440512Y-106661989D01*
X102440510Y-106661987D01*
X102440509Y-106661985D01*
X102338015Y-106559491D01*
X102338012Y-106559489D01*
X102338010Y-106559487D01*
X102212488Y-106487017D01*
X102212489Y-106487017D01*
X102182896Y-106479087D01*
X102072475Y-106449500D01*
X101927525Y-106449500D01*
X101865790Y-106466041D01*
X101787510Y-106487017D01*
X101661989Y-106559487D01*
X101559487Y-106661989D01*
X101487017Y-106787510D01*
X101466503Y-106864069D01*
X101449500Y-106927525D01*
X94400039Y-106927525D01*
X94422171Y-106859409D01*
X94450500Y-106680549D01*
X94450500Y-106499450D01*
X94422171Y-106320593D01*
X94422171Y-106320591D01*
X94373142Y-106169692D01*
X94373143Y-106108507D01*
X94397291Y-106069098D01*
X96172038Y-104294351D01*
X96226553Y-104266576D01*
X96286985Y-104276147D01*
X96324355Y-104309355D01*
X96331071Y-104319406D01*
X96394724Y-104414669D01*
X96485331Y-104505276D01*
X96541134Y-104542562D01*
X96591866Y-104576461D01*
X96591870Y-104576463D01*
X96591873Y-104576465D01*
X96710256Y-104625501D01*
X96835931Y-104650500D01*
X96835932Y-104650500D01*
X96964068Y-104650500D01*
X96964069Y-104650500D01*
X97089744Y-104625501D01*
X97208127Y-104576465D01*
X97314669Y-104505276D01*
X97405276Y-104414669D01*
X97476465Y-104308127D01*
X97525501Y-104189744D01*
X97550500Y-104064069D01*
X97550500Y-103935931D01*
X97525501Y-103810256D01*
X97476465Y-103691873D01*
X97476463Y-103691870D01*
X97476461Y-103691866D01*
X97447717Y-103648848D01*
X97405276Y-103585331D01*
X97314669Y-103494724D01*
X97230949Y-103438784D01*
X97209355Y-103424355D01*
X97171476Y-103376305D01*
X97169074Y-103315167D01*
X97194351Y-103272038D01*
X98886894Y-101579496D01*
X98941411Y-101551719D01*
X98956898Y-101550500D01*
X99064068Y-101550500D01*
X99064069Y-101550500D01*
X99189744Y-101525501D01*
X99308127Y-101476465D01*
X99414669Y-101405276D01*
X99505276Y-101314669D01*
X99576465Y-101208127D01*
X99625501Y-101089744D01*
X99650500Y-100964069D01*
X99650500Y-100835931D01*
X99625501Y-100710256D01*
X99576465Y-100591873D01*
X99576463Y-100591870D01*
X99576461Y-100591866D01*
X99547717Y-100548848D01*
X99505276Y-100485331D01*
X99414669Y-100394724D01*
X99361954Y-100359501D01*
X99308133Y-100323538D01*
X99308125Y-100323534D01*
X99189747Y-100274500D01*
X99189745Y-100274499D01*
X99189744Y-100274499D01*
X99064069Y-100249500D01*
X98935931Y-100249500D01*
X98935930Y-100249500D01*
X98880632Y-100260500D01*
X98810256Y-100274499D01*
X98810255Y-100274499D01*
X98810252Y-100274500D01*
X98691874Y-100323534D01*
X98691866Y-100323538D01*
X98585331Y-100394724D01*
X98585327Y-100394727D01*
X98494727Y-100485327D01*
X98494724Y-100485331D01*
X98423538Y-100591866D01*
X98423534Y-100591874D01*
X98374500Y-100710252D01*
X98374499Y-100710257D01*
X98349500Y-100835930D01*
X98349500Y-100943100D01*
X98330593Y-101001291D01*
X98320504Y-101013104D01*
X97027962Y-102305645D01*
X96973445Y-102333422D01*
X96913013Y-102323851D01*
X96875643Y-102290643D01*
X96805276Y-102185331D01*
X96714669Y-102094724D01*
X96672226Y-102066365D01*
X96608133Y-102023538D01*
X96608125Y-102023534D01*
X96489747Y-101974500D01*
X96489745Y-101974499D01*
X96489744Y-101974499D01*
X96364069Y-101949500D01*
X96235931Y-101949500D01*
X96235930Y-101949500D01*
X96173093Y-101961999D01*
X96110256Y-101974499D01*
X96110255Y-101974499D01*
X96110252Y-101974500D01*
X95991874Y-102023534D01*
X95991866Y-102023538D01*
X95885331Y-102094724D01*
X95885327Y-102094727D01*
X95794727Y-102185327D01*
X95794724Y-102185331D01*
X95723538Y-102291866D01*
X95723534Y-102291874D01*
X95674500Y-102410252D01*
X95674499Y-102410255D01*
X95674499Y-102410256D01*
X95670574Y-102429988D01*
X95654477Y-102510913D01*
X95649500Y-102535931D01*
X95649500Y-102664069D01*
X95671563Y-102774986D01*
X95674499Y-102789742D01*
X95674500Y-102789747D01*
X95723534Y-102908125D01*
X95723538Y-102908133D01*
X95752662Y-102951719D01*
X95794724Y-103014669D01*
X95885331Y-103105276D01*
X95974984Y-103165180D01*
X95990643Y-103175643D01*
X96028522Y-103223693D01*
X96030924Y-103284831D01*
X96005645Y-103327962D01*
X93835996Y-105497611D01*
X93781479Y-105525388D01*
X93735400Y-105521762D01*
X93569406Y-105467828D01*
X93390549Y-105439500D01*
X93390546Y-105439500D01*
X93209454Y-105439500D01*
X93209451Y-105439500D01*
X93030593Y-105467828D01*
X92858362Y-105523788D01*
X92697006Y-105606003D01*
X92697002Y-105606005D01*
X92657690Y-105634568D01*
X92599499Y-105653475D01*
X92541309Y-105634567D01*
X92505345Y-105585067D01*
X92500500Y-105554475D01*
X92500500Y-105085524D01*
X92519407Y-105027333D01*
X92568907Y-104991369D01*
X92630093Y-104991369D01*
X92657690Y-105005431D01*
X92697006Y-105033996D01*
X92858361Y-105116211D01*
X93030591Y-105172171D01*
X93083772Y-105180594D01*
X93209451Y-105200500D01*
X93209454Y-105200500D01*
X93390549Y-105200500D01*
X93479977Y-105186335D01*
X93569409Y-105172171D01*
X93741639Y-105116211D01*
X93902994Y-105033996D01*
X94049501Y-104927553D01*
X94177553Y-104799501D01*
X94283996Y-104652994D01*
X94366211Y-104491639D01*
X94422171Y-104319409D01*
X94437356Y-104223534D01*
X94450500Y-104140549D01*
X94450500Y-103959450D01*
X94427568Y-103814668D01*
X94422171Y-103780591D01*
X94366211Y-103608361D01*
X94283996Y-103447006D01*
X94177553Y-103300499D01*
X94049501Y-103172447D01*
X93902994Y-103066004D01*
X93902993Y-103066003D01*
X93902991Y-103066002D01*
X93741637Y-102983788D01*
X93569406Y-102927828D01*
X93390549Y-102899500D01*
X93390546Y-102899500D01*
X93209454Y-102899500D01*
X93209451Y-102899500D01*
X93030593Y-102927828D01*
X92858362Y-102983788D01*
X92697006Y-103066003D01*
X92697002Y-103066005D01*
X92657690Y-103094568D01*
X92599499Y-103113475D01*
X92541309Y-103094567D01*
X92505345Y-103045067D01*
X92500500Y-103014475D01*
X92500500Y-102759499D01*
X92519407Y-102701308D01*
X92568907Y-102665344D01*
X92599500Y-102660499D01*
X94194861Y-102660499D01*
X94194864Y-102660499D01*
X94219991Y-102657585D01*
X94322765Y-102612206D01*
X94402206Y-102532765D01*
X94447585Y-102429991D01*
X94450500Y-102404865D01*
X94450499Y-100615136D01*
X94447585Y-100590009D01*
X94402206Y-100487235D01*
X94322765Y-100407794D01*
X94219991Y-100362415D01*
X94219990Y-100362414D01*
X94219988Y-100362414D01*
X94194869Y-100359500D01*
X94194865Y-100359500D01*
X92599500Y-100359500D01*
X92541309Y-100340593D01*
X92505345Y-100291093D01*
X92500500Y-100260500D01*
X92500500Y-70275000D01*
X94250000Y-70275000D01*
X94250001Y-70275000D01*
X96149999Y-70275000D01*
X96150000Y-70275000D01*
X113250000Y-70275000D01*
X113250001Y-70275000D01*
X115149999Y-70275000D01*
X115150000Y-70275000D01*
X115150000Y-68185000D01*
X113250000Y-68185000D01*
X113250000Y-70275000D01*
X96150000Y-70275000D01*
X96150000Y-68185000D01*
X94250000Y-68185000D01*
X94250000Y-70275000D01*
X92500500Y-70275000D01*
X92500500Y-66599500D01*
X92519407Y-66541309D01*
X92568907Y-66505345D01*
X92599500Y-66500500D01*
X116800500Y-66500500D01*
X116858691Y-66519407D01*
G37*
%TD.AperFunction*%
%TA.AperFunction,Conductor*%
G36*
X107539834Y-100770895D02*
G01*
X107545405Y-100773201D01*
X107545413Y-100773206D01*
X107647273Y-100800499D01*
X112393100Y-100800499D01*
X112451291Y-100819406D01*
X112463104Y-100829495D01*
X115092945Y-103459336D01*
X115120722Y-103513853D01*
X115111151Y-103574284D01*
X115093789Y-103608358D01*
X115093789Y-103608359D01*
X115037828Y-103780593D01*
X115009500Y-103959450D01*
X115009500Y-104140549D01*
X115037828Y-104319406D01*
X115093788Y-104491637D01*
X115174732Y-104650499D01*
X115176004Y-104652994D01*
X115282447Y-104799501D01*
X115410499Y-104927553D01*
X115557006Y-105033996D01*
X115718361Y-105116211D01*
X115890591Y-105172171D01*
X115943772Y-105180594D01*
X116069451Y-105200500D01*
X116069454Y-105200500D01*
X116250549Y-105200500D01*
X116339977Y-105186335D01*
X116429409Y-105172171D01*
X116601639Y-105116211D01*
X116601642Y-105116209D01*
X116601646Y-105116208D01*
X116755555Y-105037787D01*
X116815987Y-105028215D01*
X116870503Y-105055992D01*
X116898281Y-105110509D01*
X116899500Y-105125996D01*
X116899500Y-105514003D01*
X116880593Y-105572194D01*
X116831093Y-105608158D01*
X116769907Y-105608158D01*
X116755555Y-105602213D01*
X116601637Y-105523788D01*
X116429406Y-105467828D01*
X116250549Y-105439500D01*
X116250546Y-105439500D01*
X116069454Y-105439500D01*
X116069451Y-105439500D01*
X115890593Y-105467828D01*
X115718362Y-105523788D01*
X115557008Y-105606002D01*
X115491667Y-105653475D01*
X115410499Y-105712447D01*
X115282447Y-105840499D01*
X115229225Y-105913752D01*
X115176002Y-105987008D01*
X115093788Y-106148362D01*
X115037828Y-106320593D01*
X115009500Y-106499450D01*
X115009500Y-106680549D01*
X115037828Y-106859406D01*
X115093788Y-107031637D01*
X115125743Y-107094353D01*
X115176004Y-107192994D01*
X115282447Y-107339501D01*
X115410499Y-107467553D01*
X115557006Y-107573996D01*
X115718361Y-107656211D01*
X115890591Y-107712171D01*
X115962136Y-107723502D01*
X116069451Y-107740500D01*
X116069454Y-107740500D01*
X116250549Y-107740500D01*
X116339977Y-107726335D01*
X116429409Y-107712171D01*
X116601639Y-107656211D01*
X116601642Y-107656209D01*
X116601646Y-107656208D01*
X116755555Y-107577787D01*
X116815987Y-107568215D01*
X116870503Y-107595992D01*
X116898281Y-107650509D01*
X116899500Y-107665996D01*
X116899500Y-108054003D01*
X116880593Y-108112194D01*
X116831093Y-108148158D01*
X116769907Y-108148158D01*
X116755555Y-108142213D01*
X116601637Y-108063788D01*
X116429406Y-108007828D01*
X116250549Y-107979500D01*
X116250546Y-107979500D01*
X116069454Y-107979500D01*
X116069451Y-107979500D01*
X115890593Y-108007828D01*
X115718362Y-108063788D01*
X115557008Y-108146002D01*
X115491667Y-108193475D01*
X115410499Y-108252447D01*
X115282447Y-108380499D01*
X115229225Y-108453752D01*
X115176002Y-108527008D01*
X115137999Y-108601593D01*
X115115654Y-108645447D01*
X115072391Y-108688711D01*
X115027446Y-108699501D01*
X114006900Y-108699501D01*
X113948709Y-108680594D01*
X113936896Y-108670505D01*
X108872277Y-103605886D01*
X108844500Y-103551369D01*
X108854071Y-103490937D01*
X108897336Y-103447672D01*
X108922966Y-103438784D01*
X108989744Y-103425501D01*
X109108127Y-103376465D01*
X109168790Y-103335931D01*
X109549500Y-103335931D01*
X109549500Y-103464069D01*
X109573621Y-103585331D01*
X109574499Y-103589742D01*
X109574500Y-103589747D01*
X109623534Y-103708125D01*
X109623538Y-103708133D01*
X109660269Y-103763104D01*
X109694724Y-103814669D01*
X109785331Y-103905276D01*
X109831208Y-103935930D01*
X109891866Y-103976461D01*
X109891870Y-103976463D01*
X109891873Y-103976465D01*
X110010256Y-104025501D01*
X110135931Y-104050500D01*
X110135932Y-104050500D01*
X110264068Y-104050500D01*
X110264069Y-104050500D01*
X110389744Y-104025501D01*
X110508127Y-103976465D01*
X110614669Y-103905276D01*
X110705276Y-103814669D01*
X110776465Y-103708127D01*
X110825501Y-103589744D01*
X110850500Y-103464069D01*
X110850500Y-103356898D01*
X110869407Y-103298707D01*
X110879496Y-103286894D01*
X111486894Y-102679496D01*
X111541411Y-102651719D01*
X111556898Y-102650500D01*
X111664068Y-102650500D01*
X111664069Y-102650500D01*
X111789744Y-102625501D01*
X111908127Y-102576465D01*
X112014669Y-102505276D01*
X112105276Y-102414669D01*
X112176465Y-102308127D01*
X112225501Y-102189744D01*
X112250500Y-102064069D01*
X112250500Y-101935931D01*
X112225501Y-101810256D01*
X112176465Y-101691873D01*
X112176463Y-101691870D01*
X112176461Y-101691866D01*
X112147717Y-101648848D01*
X112105276Y-101585331D01*
X112014669Y-101494724D01*
X111972226Y-101466365D01*
X111908133Y-101423538D01*
X111908125Y-101423534D01*
X111789747Y-101374500D01*
X111789745Y-101374499D01*
X111789744Y-101374499D01*
X111664069Y-101349500D01*
X111535931Y-101349500D01*
X111535930Y-101349500D01*
X111473093Y-101361999D01*
X111410256Y-101374499D01*
X111410255Y-101374499D01*
X111410252Y-101374500D01*
X111291874Y-101423534D01*
X111291866Y-101423538D01*
X111185331Y-101494724D01*
X111185327Y-101494727D01*
X111094727Y-101585327D01*
X111094724Y-101585331D01*
X111023538Y-101691866D01*
X111023534Y-101691874D01*
X110974500Y-101810252D01*
X110974499Y-101810257D01*
X110949500Y-101935930D01*
X110949500Y-102043100D01*
X110930593Y-102101291D01*
X110920504Y-102113104D01*
X110313104Y-102720504D01*
X110258587Y-102748281D01*
X110243100Y-102749500D01*
X110135930Y-102749500D01*
X110085664Y-102759499D01*
X110010256Y-102774499D01*
X110010255Y-102774499D01*
X110010252Y-102774500D01*
X109891874Y-102823534D01*
X109891866Y-102823538D01*
X109785331Y-102894724D01*
X109785327Y-102894727D01*
X109694727Y-102985327D01*
X109694724Y-102985331D01*
X109623538Y-103091866D01*
X109623534Y-103091874D01*
X109574500Y-103210252D01*
X109574499Y-103210255D01*
X109574499Y-103210256D01*
X109573621Y-103214669D01*
X109556905Y-103298707D01*
X109549500Y-103335931D01*
X109168790Y-103335931D01*
X109214669Y-103305276D01*
X109305276Y-103214669D01*
X109376465Y-103108127D01*
X109425501Y-102989744D01*
X109450500Y-102864069D01*
X109450500Y-102756898D01*
X109469407Y-102698707D01*
X109479496Y-102686894D01*
X109686894Y-102479496D01*
X109741411Y-102451719D01*
X109756898Y-102450500D01*
X109864068Y-102450500D01*
X109864069Y-102450500D01*
X109989744Y-102425501D01*
X110108127Y-102376465D01*
X110214669Y-102305276D01*
X110305276Y-102214669D01*
X110376465Y-102108127D01*
X110425501Y-101989744D01*
X110450500Y-101864069D01*
X110450500Y-101735931D01*
X110425501Y-101610256D01*
X110376465Y-101491873D01*
X110376463Y-101491870D01*
X110376461Y-101491866D01*
X110330802Y-101423534D01*
X110305276Y-101385331D01*
X110214669Y-101294724D01*
X110168719Y-101264021D01*
X110108133Y-101223538D01*
X110108125Y-101223534D01*
X109989747Y-101174500D01*
X109989745Y-101174499D01*
X109989744Y-101174499D01*
X109864069Y-101149500D01*
X109735931Y-101149500D01*
X109735930Y-101149500D01*
X109673093Y-101161999D01*
X109610256Y-101174499D01*
X109610255Y-101174499D01*
X109610252Y-101174500D01*
X109491874Y-101223534D01*
X109491866Y-101223538D01*
X109385331Y-101294724D01*
X109385327Y-101294727D01*
X109294727Y-101385327D01*
X109294724Y-101385331D01*
X109223538Y-101491866D01*
X109223534Y-101491874D01*
X109174500Y-101610252D01*
X109174499Y-101610257D01*
X109149500Y-101735930D01*
X109149500Y-101843100D01*
X109130593Y-101901291D01*
X109120504Y-101913104D01*
X108913104Y-102120504D01*
X108858587Y-102148281D01*
X108843100Y-102149500D01*
X108735930Y-102149500D01*
X108673093Y-102161999D01*
X108610256Y-102174499D01*
X108610255Y-102174499D01*
X108610252Y-102174500D01*
X108491874Y-102223534D01*
X108491866Y-102223538D01*
X108385331Y-102294724D01*
X108385327Y-102294727D01*
X108294727Y-102385327D01*
X108294724Y-102385331D01*
X108223538Y-102491866D01*
X108223534Y-102491874D01*
X108174500Y-102610252D01*
X108174496Y-102610265D01*
X108161214Y-102677034D01*
X108131317Y-102730417D01*
X108075751Y-102756032D01*
X108015742Y-102744094D01*
X107994113Y-102727722D01*
X106285694Y-101019303D01*
X106281235Y-101010552D01*
X106273511Y-101004492D01*
X106267646Y-100983882D01*
X106257917Y-100964786D01*
X106259453Y-100955086D01*
X106256766Y-100945642D01*
X106264135Y-100925521D01*
X106267488Y-100904354D01*
X106274431Y-100897410D01*
X106277809Y-100888190D01*
X106295598Y-100876243D01*
X106310753Y-100861089D01*
X106328604Y-100854079D01*
X106360532Y-100844994D01*
X106418150Y-100828600D01*
X106479291Y-100830860D01*
X106481029Y-100831707D01*
X106481088Y-100831557D01*
X106489641Y-100834870D01*
X106600000Y-100855500D01*
X107165825Y-100855500D01*
X107165826Y-100855500D01*
X107244897Y-100845090D01*
X107372064Y-100811015D01*
X107445743Y-100780496D01*
X107452446Y-100776625D01*
X107512293Y-100763902D01*
X107539834Y-100770895D01*
G37*
%TD.AperFunction*%
%TA.AperFunction,Conductor*%
G36*
X106653218Y-102520041D02*
G01*
X106658928Y-102525319D01*
X109164106Y-105030497D01*
X109191883Y-105085014D01*
X109182312Y-105145446D01*
X109139047Y-105188711D01*
X109094102Y-105199501D01*
X102986781Y-105199501D01*
X102984654Y-105198809D01*
X102982501Y-105199408D01*
X102955758Y-105189421D01*
X102928590Y-105180594D01*
X102927275Y-105178784D01*
X102925182Y-105178003D01*
X102909420Y-105154208D01*
X102892626Y-105131094D01*
X102892626Y-105128856D01*
X102891392Y-105126994D01*
X102892626Y-105106753D01*
X102892626Y-105069908D01*
X102894037Y-105065866D01*
X102894649Y-105064225D01*
X102925501Y-104989744D01*
X102928961Y-104972346D01*
X102931756Y-104964864D01*
X102946063Y-104946863D01*
X102957298Y-104926802D01*
X102964732Y-104923374D01*
X102969827Y-104916965D01*
X102991979Y-104910812D01*
X103012862Y-104901185D01*
X103024500Y-104900499D01*
X103752725Y-104900499D01*
X103752727Y-104900499D01*
X103854587Y-104873206D01*
X103854589Y-104873204D01*
X103854591Y-104873204D01*
X103945907Y-104820482D01*
X103945907Y-104820481D01*
X103945912Y-104820479D01*
X105786894Y-102979495D01*
X105841411Y-102951719D01*
X105856898Y-102950500D01*
X105964068Y-102950500D01*
X105964069Y-102950500D01*
X106089744Y-102925501D01*
X106208127Y-102876465D01*
X106314669Y-102805276D01*
X106405276Y-102714669D01*
X106476465Y-102608127D01*
X106497461Y-102557437D01*
X106537195Y-102510913D01*
X106596689Y-102496628D01*
X106653218Y-102520041D01*
G37*
%TD.AperFunction*%
%TA.AperFunction,Conductor*%
G36*
X105351291Y-101219406D02*
G01*
X105363104Y-101229495D01*
X105674679Y-101541070D01*
X105702456Y-101595587D01*
X105692885Y-101656019D01*
X105649620Y-101699284D01*
X105642562Y-101702537D01*
X105591880Y-101723531D01*
X105591866Y-101723538D01*
X105485331Y-101794724D01*
X105485327Y-101794727D01*
X105394727Y-101885327D01*
X105394724Y-101885331D01*
X105323538Y-101991866D01*
X105323534Y-101991874D01*
X105274500Y-102110252D01*
X105274499Y-102110255D01*
X105274499Y-102110256D01*
X105261999Y-102173093D01*
X105249500Y-102235930D01*
X105249500Y-102343100D01*
X105230593Y-102401291D01*
X105220504Y-102413104D01*
X103563104Y-104070505D01*
X103508587Y-104098282D01*
X103493100Y-104099501D01*
X102652727Y-104099501D01*
X102547273Y-104099501D01*
X102445413Y-104126794D01*
X102445412Y-104126794D01*
X102445410Y-104126795D01*
X102427505Y-104137132D01*
X102368315Y-104149917D01*
X102364077Y-104149500D01*
X102364069Y-104149500D01*
X102235931Y-104149500D01*
X102235930Y-104149500D01*
X102173093Y-104161999D01*
X102110256Y-104174499D01*
X102110255Y-104174499D01*
X102110252Y-104174500D01*
X101991874Y-104223534D01*
X101991866Y-104223538D01*
X101885331Y-104294724D01*
X101885327Y-104294727D01*
X101794727Y-104385327D01*
X101794724Y-104385331D01*
X101723538Y-104491866D01*
X101723531Y-104491880D01*
X101702537Y-104542562D01*
X101662800Y-104589087D01*
X101603305Y-104603370D01*
X101546777Y-104579954D01*
X101541070Y-104574679D01*
X100729495Y-103763104D01*
X100701718Y-103708587D01*
X100700499Y-103693100D01*
X100700499Y-102118687D01*
X100719406Y-102060496D01*
X100768906Y-102024532D01*
X100825122Y-102023061D01*
X100927522Y-102050499D01*
X100927524Y-102050500D01*
X100927525Y-102050500D01*
X101072474Y-102050500D01*
X101072475Y-102050500D01*
X101212485Y-102012984D01*
X101212487Y-102012982D01*
X101212489Y-102012982D01*
X101338010Y-101940512D01*
X101338010Y-101940511D01*
X101338015Y-101940509D01*
X101429998Y-101848525D01*
X101484513Y-101820750D01*
X101544945Y-101830321D01*
X101570000Y-101848524D01*
X101661985Y-101940509D01*
X101661987Y-101940510D01*
X101661989Y-101940512D01*
X101787511Y-102012982D01*
X101787512Y-102012982D01*
X101787515Y-102012984D01*
X101927525Y-102050500D01*
X101927526Y-102050500D01*
X102072474Y-102050500D01*
X102072475Y-102050500D01*
X102212485Y-102012984D01*
X102212487Y-102012982D01*
X102212489Y-102012982D01*
X102338010Y-101940512D01*
X102338010Y-101940511D01*
X102338015Y-101940509D01*
X102429998Y-101848525D01*
X102484513Y-101820750D01*
X102544945Y-101830321D01*
X102570000Y-101848524D01*
X102661985Y-101940509D01*
X102661987Y-101940510D01*
X102661989Y-101940512D01*
X102787511Y-102012982D01*
X102787512Y-102012982D01*
X102787515Y-102012984D01*
X102927525Y-102050500D01*
X102927526Y-102050500D01*
X103072474Y-102050500D01*
X103072475Y-102050500D01*
X103212485Y-102012984D01*
X103212487Y-102012982D01*
X103212489Y-102012982D01*
X103338010Y-101940512D01*
X103338010Y-101940511D01*
X103338015Y-101940509D01*
X103440509Y-101838015D01*
X103448098Y-101824871D01*
X103512982Y-101712489D01*
X103512982Y-101712487D01*
X103512984Y-101712485D01*
X103550500Y-101572475D01*
X103550500Y-101427525D01*
X103523061Y-101325122D01*
X103526262Y-101264021D01*
X103564767Y-101216471D01*
X103618687Y-101200499D01*
X105293100Y-101200499D01*
X105351291Y-101219406D01*
G37*
%TD.AperFunction*%
%TA.AperFunction,Conductor*%
G36*
X105175015Y-98447433D02*
G01*
X105200610Y-98448758D01*
X105207916Y-98451557D01*
X105245413Y-98473206D01*
X105308652Y-98490150D01*
X105313459Y-98491992D01*
X105348045Y-98514436D01*
X105490101Y-98656492D01*
X105517878Y-98711009D01*
X105508307Y-98771441D01*
X105465042Y-98814706D01*
X105457988Y-98817958D01*
X105454262Y-98819501D01*
X105340239Y-98885332D01*
X105276978Y-98933874D01*
X105183874Y-99026978D01*
X105135332Y-99090239D01*
X105069501Y-99204261D01*
X105038984Y-99277936D01*
X105026073Y-99326124D01*
X104992749Y-99377439D01*
X104935627Y-99399365D01*
X104930446Y-99399501D01*
X104524301Y-99399501D01*
X104466110Y-99380594D01*
X104430146Y-99331094D01*
X104427203Y-99281186D01*
X104450500Y-99164069D01*
X104450500Y-99156899D01*
X104469407Y-99098708D01*
X104479496Y-99086895D01*
X104779496Y-98786895D01*
X105095190Y-98471200D01*
X105118024Y-98459566D01*
X105139506Y-98445596D01*
X105144896Y-98445874D01*
X105149705Y-98443425D01*
X105175015Y-98447433D01*
G37*
%TD.AperFunction*%
%TA.AperFunction,Conductor*%
G36*
X95029358Y-80795948D02*
G01*
X95057334Y-80798889D01*
X95059342Y-80800697D01*
X95062012Y-80801120D01*
X95102803Y-80839830D01*
X95159487Y-80938010D01*
X95159489Y-80938012D01*
X95159491Y-80938015D01*
X95261985Y-81040509D01*
X95261987Y-81040510D01*
X95261989Y-81040512D01*
X95389730Y-81114264D01*
X95430671Y-81159733D01*
X95437067Y-81220584D01*
X95406474Y-81273572D01*
X95389730Y-81285736D01*
X95261989Y-81359487D01*
X95159487Y-81461989D01*
X95087017Y-81587510D01*
X95063334Y-81675895D01*
X95049500Y-81727525D01*
X95049500Y-81872475D01*
X95059624Y-81910256D01*
X95087017Y-82012489D01*
X95159487Y-82138010D01*
X95159489Y-82138012D01*
X95159491Y-82138015D01*
X95261985Y-82240509D01*
X95261987Y-82240510D01*
X95261989Y-82240512D01*
X95387511Y-82312982D01*
X95387512Y-82312982D01*
X95387515Y-82312984D01*
X95527525Y-82350500D01*
X95527526Y-82350500D01*
X95672474Y-82350500D01*
X95672475Y-82350500D01*
X95812485Y-82312984D01*
X95812487Y-82312982D01*
X95812489Y-82312982D01*
X95938010Y-82240512D01*
X95938010Y-82240511D01*
X95938015Y-82240509D01*
X96040509Y-82138015D01*
X96090164Y-82052009D01*
X96135633Y-82011070D01*
X96196483Y-82004674D01*
X96249471Y-82035267D01*
X96272998Y-82082197D01*
X96274498Y-82089741D01*
X96274500Y-82089747D01*
X96323534Y-82208125D01*
X96323538Y-82208133D01*
X96347513Y-82244013D01*
X96394724Y-82314669D01*
X96485331Y-82405276D01*
X96548184Y-82447273D01*
X96591866Y-82476461D01*
X96591870Y-82476463D01*
X96591873Y-82476465D01*
X96710256Y-82525501D01*
X96835931Y-82550500D01*
X96835932Y-82550500D01*
X96943101Y-82550500D01*
X96950698Y-82552968D01*
X96958588Y-82551719D01*
X96979243Y-82562243D01*
X97001292Y-82569407D01*
X97013105Y-82579496D01*
X97070505Y-82636896D01*
X97098282Y-82691413D01*
X97099501Y-82706900D01*
X97099501Y-86293100D01*
X97080594Y-86351291D01*
X97070505Y-86363104D01*
X96554088Y-86879521D01*
X96554087Y-86879520D01*
X96479521Y-86954087D01*
X96479517Y-86954092D01*
X96426795Y-87045408D01*
X96399501Y-87147274D01*
X96399501Y-87696722D01*
X96380594Y-87754913D01*
X96331094Y-87790877D01*
X96269908Y-87790877D01*
X96251001Y-87782458D01*
X96154590Y-87726795D01*
X96154592Y-87726795D01*
X96092869Y-87710257D01*
X96052727Y-87699501D01*
X96052725Y-87699501D01*
X95806900Y-87699501D01*
X95748709Y-87680594D01*
X95736896Y-87670505D01*
X95579496Y-87513105D01*
X95551719Y-87458588D01*
X95550500Y-87443101D01*
X95550500Y-87335932D01*
X95550500Y-87335931D01*
X95525501Y-87210256D01*
X95476465Y-87091873D01*
X95476463Y-87091870D01*
X95476461Y-87091866D01*
X95445418Y-87045408D01*
X95405276Y-86985331D01*
X95314669Y-86894724D01*
X95272226Y-86866365D01*
X95208133Y-86823538D01*
X95208125Y-86823534D01*
X95089747Y-86774500D01*
X95089745Y-86774499D01*
X95089744Y-86774499D01*
X94964069Y-86749500D01*
X94835931Y-86749500D01*
X94835930Y-86749500D01*
X94784367Y-86759757D01*
X94710256Y-86774499D01*
X94710254Y-86774499D01*
X94710248Y-86774501D01*
X94637384Y-86804683D01*
X94576388Y-86809484D01*
X94524219Y-86777514D01*
X94500804Y-86720986D01*
X94500499Y-86713219D01*
X94500499Y-83927525D01*
X95049500Y-83927525D01*
X95049500Y-84072474D01*
X95087017Y-84212489D01*
X95159487Y-84338010D01*
X95159489Y-84338012D01*
X95159491Y-84338015D01*
X95251474Y-84429998D01*
X95279250Y-84484513D01*
X95269679Y-84544945D01*
X95251475Y-84570000D01*
X95195977Y-84625499D01*
X95159488Y-84661988D01*
X95159487Y-84661989D01*
X95087017Y-84787510D01*
X95049500Y-84927525D01*
X95049500Y-85072474D01*
X95087017Y-85212489D01*
X95159487Y-85338010D01*
X95159489Y-85338012D01*
X95159491Y-85338015D01*
X95261985Y-85440509D01*
X95261987Y-85440510D01*
X95261989Y-85440512D01*
X95387511Y-85512982D01*
X95387512Y-85512982D01*
X95387515Y-85512984D01*
X95527525Y-85550500D01*
X95527526Y-85550500D01*
X95672474Y-85550500D01*
X95672475Y-85550500D01*
X95812485Y-85512984D01*
X95812487Y-85512982D01*
X95812489Y-85512982D01*
X95938010Y-85440512D01*
X95938010Y-85440511D01*
X95938015Y-85440509D01*
X96040509Y-85338015D01*
X96112984Y-85212485D01*
X96150500Y-85072475D01*
X96150500Y-84927525D01*
X96112984Y-84787515D01*
X96112982Y-84787512D01*
X96112982Y-84787510D01*
X96040512Y-84661989D01*
X96040510Y-84661987D01*
X96040509Y-84661985D01*
X95948525Y-84570001D01*
X95920750Y-84515487D01*
X95930321Y-84455055D01*
X95948524Y-84429999D01*
X96040509Y-84338015D01*
X96053988Y-84314669D01*
X96112982Y-84212489D01*
X96112982Y-84212487D01*
X96112984Y-84212485D01*
X96150500Y-84072475D01*
X96150500Y-83927525D01*
X96112984Y-83787515D01*
X96112982Y-83787512D01*
X96112982Y-83787510D01*
X96040512Y-83661989D01*
X96040510Y-83661987D01*
X96040509Y-83661985D01*
X95938015Y-83559491D01*
X95938012Y-83559489D01*
X95938010Y-83559487D01*
X95812488Y-83487017D01*
X95812489Y-83487017D01*
X95689597Y-83454088D01*
X95672475Y-83449500D01*
X95527525Y-83449500D01*
X95510403Y-83454088D01*
X95387510Y-83487017D01*
X95261989Y-83559487D01*
X95159487Y-83661989D01*
X95087017Y-83787510D01*
X95049500Y-83927525D01*
X94500499Y-83927525D01*
X94500499Y-81306899D01*
X94519406Y-81248708D01*
X94529495Y-81236896D01*
X94729495Y-81036896D01*
X94947063Y-80819326D01*
X94972120Y-80806559D01*
X94996484Y-80792493D01*
X94999172Y-80792775D01*
X95001580Y-80791549D01*
X95029358Y-80795948D01*
G37*
%TD.AperFunction*%
%TA.AperFunction,Conductor*%
G36*
X103069503Y-76335894D02*
G01*
X107770505Y-81036896D01*
X107798282Y-81091413D01*
X107799501Y-81106900D01*
X107799501Y-81547273D01*
X107799501Y-81652727D01*
X107806501Y-81678854D01*
X107803300Y-81739954D01*
X107764794Y-81787504D01*
X107705694Y-81803340D01*
X107648572Y-81781414D01*
X107640871Y-81774480D01*
X106706221Y-80839830D01*
X105745912Y-79879521D01*
X105745909Y-79879519D01*
X105745908Y-79879518D01*
X105745907Y-79879517D01*
X105654590Y-79826795D01*
X105654592Y-79826795D01*
X105615068Y-79816205D01*
X105552727Y-79799501D01*
X105552725Y-79799501D01*
X104506900Y-79799501D01*
X104448709Y-79780594D01*
X104436896Y-79770505D01*
X102929495Y-78263104D01*
X102901718Y-78208587D01*
X102900499Y-78193100D01*
X102900499Y-76405898D01*
X102919406Y-76347707D01*
X102968906Y-76311743D01*
X103030092Y-76311743D01*
X103069503Y-76335894D01*
G37*
%TD.AperFunction*%
%TD*%
M02*
