%TF.GenerationSoftware,KiCad,Pcbnew,9.0.2*%
%TF.CreationDate,2026-08-05T13:40:56+03:00*%
%TF.ProjectId,sim7080g,73696d37-3038-4306-972e-6b696361645f,rev?*%
%TF.SameCoordinates,Original*%
%TF.FileFunction,Copper,L3,Inr*%
%TF.FilePolarity,Positive*%
%FSLAX46Y46*%
G04 Gerber Fmt 4.6, Leading zero omitted, Abs format (unit mm)*
G04 Created by KiCad (PCBNEW 9.0.2) date 2026-08-05 13:40:56*
%MOMM*%
%LPD*%
G01*
G04 APERTURE LIST*
%TA.AperFunction,ComponentPad*%
%ADD10R,1.700000X1.700000*%
%TD*%
%TA.AperFunction,ComponentPad*%
%ADD11C,1.700000*%
%TD*%
%TA.AperFunction,ViaPad*%
%ADD12C,0.250000*%
%TD*%
%TA.AperFunction,Conductor*%
%ADD13C,0.088900*%
%TD*%
G04 APERTURE END LIST*
D10*
%TO.N,SIM7080G_DTR*%
%TO.C,J2*%
X93300000Y-101510000D03*
D11*
%TO.N,SIM7080G_PWR*%
X93300000Y-104050000D03*
%TO.N,SIM7080G_RTS*%
X93300000Y-106590000D03*
%TO.N,unconnected-(J2-Pin_4-Pad4)*%
X93300000Y-109130000D03*
%TO.N,unconnected-(J2-Pin_5-Pad5)*%
X93300000Y-111670000D03*
%TO.N,unconnected-(J2-Pin_6-Pad6)*%
X93300000Y-114210000D03*
%TO.N,+3V3*%
X93300000Y-116750000D03*
%TO.N,GND*%
X93300000Y-119290000D03*
%TD*%
D10*
%TO.N,SIM7080G_RING*%
%TO.C,J3*%
X116160000Y-101510000D03*
D11*
%TO.N,SIM7080G_CTS*%
X116160000Y-104050000D03*
%TO.N,SIM7080G_TX*%
X116160000Y-106590000D03*
%TO.N,SIM7080G_RX*%
X116160000Y-109130000D03*
%TO.N,unconnected-(J3-Pin_5-Pad5)*%
X116160000Y-111670000D03*
%TO.N,unconnected-(J3-Pin_6-Pad6)*%
X116160000Y-114210000D03*
%TO.N,unconnected-(J3-Pin_7-Pad7)*%
X116160000Y-116750000D03*
%TO.N,GND*%
X116160000Y-119290000D03*
%TD*%
D12*
%TO.N,SIM7080G_RX*%
X103100000Y-101100000D03*
%TO.N,GND*%
X103000000Y-98400000D03*
%TO.N,+3V3*%
X103000000Y-100100000D03*
%TO.N,SIM7080G_RING*%
X100500000Y-100100000D03*
%TO.N,+1V8*%
X103000000Y-96800000D03*
%TO.N,SIM_RX*%
X102500000Y-96300000D03*
%TO.N,SIM_RTS*%
X102000000Y-96800000D03*
%TO.N,SIM_CTS*%
X101500000Y-96600000D03*
%TO.N,SIM_DTR*%
X101000000Y-96900000D03*
%TO.N,SIM_RI*%
X100500000Y-96800000D03*
%TO.N,Net-(JP3-A)*%
X104600000Y-100200000D03*
X101500000Y-100500000D03*
%TO.N,SIM7080G_RTS*%
X104500000Y-98100000D03*
%TO.N,Net-(JP1-B)*%
X113900000Y-86300000D03*
%TO.N,SIM7080G_CTS*%
X106900000Y-100700000D03*
%TO.N,Net-(JP2-A)*%
X103900000Y-99700000D03*
X101700000Y-100900000D03*
%TO.N,PWRKEY*%
X103500000Y-76200000D03*
X93400000Y-91100000D03*
%TO.N,SIM_CLK*%
X108300000Y-100200000D03*
X103500000Y-93500000D03*
%TO.N,SIM_DATA*%
X107800000Y-98300000D03*
X102800000Y-93700000D03*
%TO.N,Net-(Q2-B)*%
X96400000Y-101900000D03*
X94200000Y-96300000D03*
%TO.N,Net-(Q3-B)*%
X115200000Y-91500000D03*
X114900000Y-89000000D03*
%TO.N,Net-(Q1-B)*%
X94400000Y-75700000D03*
X94400000Y-78300000D03*
%TO.N,Net-(U3-CLK)*%
X106300000Y-106100000D03*
X106800000Y-106600000D03*
%TO.N,Net-(D1-A2)*%
X116200000Y-82400000D03*
X115600000Y-85000000D03*
%TO.N,SIM_RST*%
X109400000Y-98800000D03*
X107200000Y-98400000D03*
X104200000Y-92800000D03*
%TO.N,SIM7080G_TX*%
X104200000Y-99200000D03*
%TO.N,SIM_TX*%
X95500000Y-79800000D03*
X103500000Y-97700000D03*
%TO.N,NETLIGHT*%
X101600000Y-76900000D03*
X114500000Y-86200000D03*
%TO.N,GNSS_ANT*%
X95500000Y-67900000D03*
X99900000Y-77800000D03*
%TO.N,SIM7080G_DTR*%
X101000000Y-100500000D03*
%TO.N,SIM_RX*%
X96700000Y-79700000D03*
X102600000Y-95400000D03*
%TO.N,SIM_RTS*%
X97200000Y-81100000D03*
X102200000Y-95800000D03*
%TO.N,SIM7080G_RING*%
X100500000Y-100900000D03*
%TO.N,SIM_CTS*%
X98400000Y-84800000D03*
X101500000Y-96100000D03*
%TO.N,SIM_DTR*%
X98400000Y-85500000D03*
X100400000Y-95500000D03*
%TO.N,RF_ANT*%
X112500000Y-79500000D03*
X113900000Y-67900000D03*
%TO.N,SIM_RI*%
X98000000Y-90800000D03*
X100200000Y-95900000D03*
%TO.N,SIM7080G_PWR*%
X95700000Y-104700000D03*
%TO.N,Net-(Q1-C)*%
X95000000Y-73000000D03*
X96800000Y-73000000D03*
%TO.N,+3V3*%
X101100000Y-68500000D03*
X104400000Y-68500000D03*
X109700000Y-75000000D03*
X114900000Y-79200000D03*
X112000000Y-95900000D03*
X104000000Y-102600000D03*
%TO.N,+1V8*%
X103300000Y-94900000D03*
X102400000Y-76200000D03*
%TO.N,SIM_VDD*%
X112000000Y-98400000D03*
X105600000Y-93700000D03*
X102200000Y-104800000D03*
%TO.N,GND*%
X115700000Y-90187500D03*
X103200000Y-68100000D03*
X105800000Y-103775000D03*
X94200000Y-91700000D03*
X93600000Y-77087500D03*
X108900000Y-70300000D03*
X96900000Y-100587500D03*
X95837500Y-74000000D03*
X105825000Y-72800000D03*
X108900000Y-68100000D03*
X113862500Y-94900000D03*
X103400000Y-103850000D03*
X93725000Y-69175000D03*
X96675000Y-69175000D03*
X104600000Y-84500000D03*
X104600000Y-81100000D03*
X107500000Y-81100000D03*
X107500000Y-84500000D03*
X107500000Y-87900000D03*
X104600000Y-87900000D03*
X101700000Y-87900000D03*
X101700000Y-84500000D03*
X102880000Y-82530000D03*
X101700000Y-82530000D03*
X100520000Y-82530000D03*
X102880000Y-81100000D03*
X101700000Y-81100000D03*
X100520000Y-81100000D03*
X102880000Y-79670000D03*
X101700000Y-79670000D03*
X100520000Y-79670000D03*
X103200000Y-78200000D03*
X107400000Y-78200000D03*
X99250000Y-82400000D03*
X106800000Y-75700000D03*
X112450000Y-78450000D03*
X112450000Y-81750000D03*
X112450000Y-85050000D03*
X109000000Y-93300000D03*
X106800000Y-93300000D03*
X100200000Y-93300000D03*
X96750000Y-86150000D03*
X112400000Y-103775000D03*
X103850000Y-72900000D03*
X112725000Y-69175000D03*
X115675000Y-69175000D03*
X111050000Y-112002500D03*
X111050000Y-120802500D03*
X99350000Y-120802500D03*
X99350000Y-112002500D03*
X103300000Y-107902500D03*
X107700000Y-96200000D03*
X99600000Y-105700000D03*
X103200000Y-70300000D03*
X110900000Y-99200000D03*
X105400000Y-98800000D03*
X95337500Y-94600000D03*
X99400000Y-98400000D03*
X99100000Y-99200000D03*
X115600000Y-83100000D03*
%TD*%
D13*
%TO.N,Net-(JP3-A)*%
X104700000Y-100100000D02*
X104600000Y-100200000D01*
X104700000Y-99000000D02*
X104700000Y-100100000D01*
X104400000Y-98700000D02*
X104700000Y-99000000D01*
X103300000Y-98700000D02*
X104400000Y-98700000D01*
X101500000Y-100500000D02*
X103300000Y-98700000D01*
%TO.N,Net-(JP2-A)*%
X102700000Y-100900000D02*
X103900000Y-99700000D01*
X101700000Y-100900000D02*
X102700000Y-100900000D01*
%TO.N,SIM_DATA*%
X103600000Y-94100000D02*
X107800000Y-98300000D01*
X103200000Y-94100000D02*
X103600000Y-94100000D01*
X102800000Y-93700000D02*
X103200000Y-94100000D01*
%TO.N,SIM_RST*%
X107600000Y-98800000D02*
X109400000Y-98800000D01*
X107200000Y-98400000D02*
X107600000Y-98800000D01*
%TO.N,NETLIGHT*%
X101700000Y-77000000D02*
X101600000Y-76900000D01*
X103400000Y-77000000D02*
X101700000Y-77000000D01*
X106100000Y-79700000D02*
X103400000Y-77000000D01*
X107500000Y-79700000D02*
X106100000Y-79700000D01*
X111200000Y-83400000D02*
X107500000Y-79700000D01*
X112300000Y-83400000D02*
X111200000Y-83400000D01*
X114200000Y-85300000D02*
X112300000Y-83400000D01*
X114200000Y-85900000D02*
X114200000Y-85300000D01*
X114500000Y-86200000D02*
X114200000Y-85900000D01*
%TO.N,SIM7080G_DTR*%
X93300000Y-101500000D02*
X93300000Y-101510000D01*
X93400000Y-101400000D02*
X93300000Y-101500000D01*
X99300000Y-101400000D02*
X93400000Y-101400000D01*
X100300000Y-100400000D02*
X99300000Y-101400000D01*
X100600000Y-100400000D02*
X100300000Y-100400000D01*
X100700000Y-100500000D02*
X100600000Y-100400000D01*
X101000000Y-100500000D02*
X100700000Y-100500000D01*
%TO.N,SIM_RX*%
X96700000Y-82400000D02*
X96700000Y-79700000D01*
X98900000Y-84600000D02*
X96700000Y-82400000D01*
X98900000Y-87800000D02*
X98900000Y-84600000D01*
X101300000Y-90200000D02*
X98900000Y-87800000D01*
X101300000Y-94100000D02*
X101300000Y-90200000D01*
X102600000Y-95400000D02*
X101300000Y-94100000D01*
%TO.N,SIM7080G_RING*%
X116200000Y-101500000D02*
X116160000Y-101510000D01*
X114700000Y-103000000D02*
X116200000Y-101500000D01*
X112100000Y-103000000D02*
X114700000Y-103000000D01*
X111800000Y-103300000D02*
X112100000Y-103000000D01*
X109000000Y-103300000D02*
X111800000Y-103300000D01*
X107300000Y-101600000D02*
X109000000Y-103300000D01*
X101200000Y-101600000D02*
X107300000Y-101600000D01*
X100500000Y-100900000D02*
X101200000Y-101600000D01*
%TO.N,SIM7080G_PWR*%
X94000000Y-104700000D02*
X93300000Y-104000000D01*
X95700000Y-104700000D02*
X94000000Y-104700000D01*
%TO.N,Net-(Q1-C)*%
X96800000Y-73000000D02*
X95000000Y-73000000D01*
%TD*%
%TA.AperFunction,Conductor*%
%TO.N,Net-(JP3-A)*%
G36*
X104739861Y-99997250D02*
G01*
X104743288Y-100005523D01*
X104743236Y-100006627D01*
X104723810Y-100211588D01*
X104719618Y-100219501D01*
X104711058Y-100222132D01*
X104709970Y-100221977D01*
X104604843Y-100201923D01*
X104597358Y-100197006D01*
X104597278Y-100196887D01*
X104596534Y-100195763D01*
X104536388Y-100104882D01*
X104534681Y-100096094D01*
X104538737Y-100089372D01*
X104639897Y-100006627D01*
X104652318Y-99996467D01*
X104659726Y-99993823D01*
X104731588Y-99993823D01*
X104739861Y-99997250D01*
G37*
%TD.AperFunction*%
%TD*%
%TA.AperFunction,Conductor*%
%TO.N,Net-(JP3-A)*%
G36*
X101649516Y-100299360D02*
G01*
X101700639Y-100350483D01*
X101704066Y-100358756D01*
X101702908Y-100363831D01*
X101609730Y-100557404D01*
X101603054Y-100563372D01*
X101594113Y-100562871D01*
X101592764Y-100562108D01*
X101549046Y-100533390D01*
X101501315Y-100502035D01*
X101497964Y-100498684D01*
X101437891Y-100407235D01*
X101436213Y-100398439D01*
X101441246Y-100391032D01*
X101442584Y-100390275D01*
X101636168Y-100297090D01*
X101645109Y-100296590D01*
X101649516Y-100299360D01*
G37*
%TD.AperFunction*%
%TD*%
%TA.AperFunction,Conductor*%
%TO.N,Net-(JP2-A)*%
G36*
X103805886Y-99637128D02*
G01*
X103807235Y-99637891D01*
X103898684Y-99697964D01*
X103902037Y-99701317D01*
X103962108Y-99792764D01*
X103963786Y-99801560D01*
X103958753Y-99808967D01*
X103957404Y-99809730D01*
X103763831Y-99902908D01*
X103754890Y-99903409D01*
X103750483Y-99900639D01*
X103699360Y-99849516D01*
X103695933Y-99841243D01*
X103697091Y-99836168D01*
X103709817Y-99809730D01*
X103790270Y-99642593D01*
X103796945Y-99636627D01*
X103805886Y-99637128D01*
G37*
%TD.AperFunction*%
%TD*%
%TA.AperFunction,Conductor*%
%TO.N,Net-(JP2-A)*%
G36*
X101736986Y-100781813D02*
G01*
X101939764Y-100852807D01*
X101946440Y-100858775D01*
X101947598Y-100863850D01*
X101947598Y-100936149D01*
X101944171Y-100944422D01*
X101939764Y-100947192D01*
X101736999Y-101018182D01*
X101728058Y-101017681D01*
X101722090Y-101011005D01*
X101721676Y-101009511D01*
X101699491Y-100902372D01*
X101699491Y-100897628D01*
X101721676Y-100790488D01*
X101726709Y-100783081D01*
X101735505Y-100781403D01*
X101736986Y-100781813D01*
G37*
%TD.AperFunction*%
%TD*%
%TA.AperFunction,Conductor*%
%TO.N,SIM_DATA*%
G36*
X107663831Y-98097091D02*
G01*
X107668545Y-98099360D01*
X107857404Y-98190269D01*
X107863372Y-98196945D01*
X107862871Y-98205886D01*
X107862108Y-98207235D01*
X107802037Y-98298682D01*
X107798682Y-98302037D01*
X107707235Y-98362108D01*
X107698439Y-98363786D01*
X107691032Y-98358753D01*
X107690269Y-98357404D01*
X107662977Y-98300707D01*
X107617984Y-98207235D01*
X107597091Y-98163831D01*
X107596590Y-98154890D01*
X107599358Y-98150485D01*
X107650484Y-98099359D01*
X107658756Y-98095933D01*
X107663831Y-98097091D01*
G37*
%TD.AperFunction*%
%TD*%
%TA.AperFunction,Conductor*%
%TO.N,SIM_DATA*%
G36*
X102908967Y-93641246D02*
G01*
X102909730Y-93642595D01*
X103002908Y-93836168D01*
X103003409Y-93845109D01*
X103000639Y-93849516D01*
X102949516Y-93900639D01*
X102941243Y-93904066D01*
X102936168Y-93902908D01*
X102742595Y-93809730D01*
X102736627Y-93803054D01*
X102737128Y-93794113D01*
X102737887Y-93792770D01*
X102797966Y-93701312D01*
X102801312Y-93697966D01*
X102892765Y-93637890D01*
X102901560Y-93636213D01*
X102908967Y-93641246D01*
G37*
%TD.AperFunction*%
%TD*%
%TA.AperFunction,Conductor*%
%TO.N,SIM_RST*%
G36*
X109371941Y-98682318D02*
G01*
X109377909Y-98688994D01*
X109378323Y-98690488D01*
X109400508Y-98797628D01*
X109400508Y-98802372D01*
X109378323Y-98909511D01*
X109373290Y-98916918D01*
X109364494Y-98918596D01*
X109363003Y-98918182D01*
X109312329Y-98900441D01*
X109160236Y-98847192D01*
X109153560Y-98841224D01*
X109152402Y-98836149D01*
X109152402Y-98763850D01*
X109155829Y-98755577D01*
X109160235Y-98752807D01*
X109363003Y-98681817D01*
X109371941Y-98682318D01*
G37*
%TD.AperFunction*%
%TD*%
%TA.AperFunction,Conductor*%
%TO.N,SIM_RST*%
G36*
X107308967Y-98341246D02*
G01*
X107309730Y-98342595D01*
X107402908Y-98536168D01*
X107403409Y-98545109D01*
X107400639Y-98549516D01*
X107349516Y-98600639D01*
X107341243Y-98604066D01*
X107336168Y-98602908D01*
X107142595Y-98509730D01*
X107136627Y-98503054D01*
X107137128Y-98494113D01*
X107137887Y-98492770D01*
X107197966Y-98401312D01*
X107201312Y-98397966D01*
X107292765Y-98337890D01*
X107301560Y-98336213D01*
X107308967Y-98341246D01*
G37*
%TD.AperFunction*%
%TD*%
%TA.AperFunction,Conductor*%
%TO.N,NETLIGHT*%
G36*
X101710628Y-76838738D02*
G01*
X101803533Y-76952317D01*
X101806177Y-76959725D01*
X101806177Y-77031588D01*
X101802750Y-77039861D01*
X101794477Y-77043288D01*
X101793373Y-77043236D01*
X101588411Y-77023810D01*
X101580498Y-77019618D01*
X101577867Y-77011058D01*
X101578019Y-77009987D01*
X101598076Y-76904842D01*
X101602993Y-76897358D01*
X101603049Y-76897319D01*
X101695118Y-76836388D01*
X101703905Y-76834681D01*
X101710628Y-76838738D01*
G37*
%TD.AperFunction*%
%TD*%
%TA.AperFunction,Conductor*%
%TO.N,NETLIGHT*%
G36*
X114363831Y-85997091D02*
G01*
X114368545Y-85999360D01*
X114557404Y-86090269D01*
X114563372Y-86096945D01*
X114562871Y-86105886D01*
X114562108Y-86107235D01*
X114502037Y-86198682D01*
X114498682Y-86202037D01*
X114407235Y-86262108D01*
X114398439Y-86263786D01*
X114391032Y-86258753D01*
X114390269Y-86257404D01*
X114362977Y-86200707D01*
X114317984Y-86107235D01*
X114297091Y-86063831D01*
X114296590Y-86054890D01*
X114299358Y-86050485D01*
X114350484Y-85999359D01*
X114358756Y-85995933D01*
X114363831Y-85997091D01*
G37*
%TD.AperFunction*%
%TD*%
%TA.AperFunction,Conductor*%
%TO.N,SIM7080G_DTR*%
G36*
X94158188Y-100666700D02*
G01*
X94995709Y-101352039D01*
X94999942Y-101359930D01*
X95000000Y-101361093D01*
X95000000Y-101439652D01*
X94996632Y-101447866D01*
X94158004Y-102298621D01*
X94149756Y-102302107D01*
X94141676Y-102298948D01*
X93307832Y-101518268D01*
X93304134Y-101510112D01*
X93307287Y-101501731D01*
X93307528Y-101501481D01*
X94142514Y-100667477D01*
X94150787Y-100664056D01*
X94158188Y-100666700D01*
G37*
%TD.AperFunction*%
%TD*%
%TA.AperFunction,Conductor*%
%TO.N,SIM7080G_DTR*%
G36*
X100971941Y-100382318D02*
G01*
X100977909Y-100388994D01*
X100978323Y-100390488D01*
X101000508Y-100497628D01*
X101000508Y-100502372D01*
X100978323Y-100609511D01*
X100973290Y-100616918D01*
X100964494Y-100618596D01*
X100963003Y-100618182D01*
X100912329Y-100600441D01*
X100760236Y-100547192D01*
X100753560Y-100541224D01*
X100752402Y-100536149D01*
X100752402Y-100463850D01*
X100755829Y-100455577D01*
X100760235Y-100452807D01*
X100963003Y-100381817D01*
X100971941Y-100382318D01*
G37*
%TD.AperFunction*%
%TD*%
%TA.AperFunction,Conductor*%
%TO.N,SIM_RX*%
G36*
X96809511Y-79721676D02*
G01*
X96816918Y-79726709D01*
X96818596Y-79735505D01*
X96818182Y-79736999D01*
X96747193Y-79939764D01*
X96741225Y-79946440D01*
X96736150Y-79947598D01*
X96663850Y-79947598D01*
X96655577Y-79944171D01*
X96652807Y-79939764D01*
X96581817Y-79736996D01*
X96582318Y-79728058D01*
X96588994Y-79722090D01*
X96590483Y-79721677D01*
X96697629Y-79699491D01*
X96702371Y-79699491D01*
X96809511Y-79721676D01*
G37*
%TD.AperFunction*%
%TD*%
%TA.AperFunction,Conductor*%
%TO.N,SIM_RX*%
G36*
X102463831Y-95197091D02*
G01*
X102468545Y-95199360D01*
X102657404Y-95290269D01*
X102663372Y-95296945D01*
X102662871Y-95305886D01*
X102662108Y-95307235D01*
X102602037Y-95398682D01*
X102598682Y-95402037D01*
X102507235Y-95462108D01*
X102498439Y-95463786D01*
X102491032Y-95458753D01*
X102490269Y-95457404D01*
X102462977Y-95400707D01*
X102417984Y-95307235D01*
X102397091Y-95263831D01*
X102396590Y-95254890D01*
X102399358Y-95250485D01*
X102450484Y-95199359D01*
X102458756Y-95195933D01*
X102463831Y-95197091D01*
G37*
%TD.AperFunction*%
%TD*%
%TA.AperFunction,Conductor*%
%TO.N,SIM7080G_RING*%
G36*
X115321472Y-101167788D02*
G01*
X116156205Y-101507461D01*
X116162576Y-101513753D01*
X116162585Y-101513775D01*
X116512553Y-102348661D01*
X116512591Y-102357616D01*
X116506286Y-102363974D01*
X116505746Y-102364185D01*
X114777386Y-102989938D01*
X114768440Y-102989532D01*
X114765130Y-102987210D01*
X114712682Y-102934762D01*
X114709255Y-102926489D01*
X114709881Y-102922712D01*
X114902610Y-102357616D01*
X115305999Y-101174850D01*
X115311912Y-101168128D01*
X115320849Y-101167555D01*
X115321472Y-101167788D01*
G37*
%TD.AperFunction*%
%TD*%
%TA.AperFunction,Conductor*%
%TO.N,SIM7080G_RING*%
G36*
X100608967Y-100841246D02*
G01*
X100609730Y-100842595D01*
X100702908Y-101036168D01*
X100703409Y-101045109D01*
X100700639Y-101049516D01*
X100649516Y-101100639D01*
X100641243Y-101104066D01*
X100636168Y-101102908D01*
X100442595Y-101009730D01*
X100436627Y-101003054D01*
X100437128Y-100994113D01*
X100437887Y-100992770D01*
X100497966Y-100901312D01*
X100501312Y-100897966D01*
X100592765Y-100837890D01*
X100601560Y-100836213D01*
X100608967Y-100841246D01*
G37*
%TD.AperFunction*%
%TD*%
%TA.AperFunction,Conductor*%
%TO.N,SIM7080G_PWR*%
G36*
X94013249Y-103587463D02*
G01*
X94727092Y-104652594D01*
X94729073Y-104659108D01*
X94729073Y-104733968D01*
X94725646Y-104742241D01*
X94718655Y-104745598D01*
X93476479Y-104882493D01*
X93467880Y-104879993D01*
X93463724Y-104873159D01*
X93300536Y-104057677D01*
X93302273Y-104048895D01*
X93305512Y-104045654D01*
X93997037Y-103584244D01*
X94005820Y-103582503D01*
X94013249Y-103587463D01*
G37*
%TD.AperFunction*%
%TD*%
%TA.AperFunction,Conductor*%
%TO.N,SIM7080G_PWR*%
G36*
X95671941Y-104582318D02*
G01*
X95677909Y-104588994D01*
X95678323Y-104590488D01*
X95700508Y-104697628D01*
X95700508Y-104702372D01*
X95678323Y-104809511D01*
X95673290Y-104816918D01*
X95664494Y-104818596D01*
X95663003Y-104818182D01*
X95612329Y-104800441D01*
X95460236Y-104747192D01*
X95453560Y-104741224D01*
X95452402Y-104736149D01*
X95452402Y-104663850D01*
X95455829Y-104655577D01*
X95460235Y-104652807D01*
X95663003Y-104581817D01*
X95671941Y-104582318D01*
G37*
%TD.AperFunction*%
%TD*%
%TA.AperFunction,Conductor*%
%TO.N,Net-(Q1-C)*%
G36*
X96771941Y-72882318D02*
G01*
X96777909Y-72888994D01*
X96778323Y-72890488D01*
X96800508Y-72997628D01*
X96800508Y-73002372D01*
X96778323Y-73109511D01*
X96773290Y-73116918D01*
X96764494Y-73118596D01*
X96763003Y-73118182D01*
X96712329Y-73100441D01*
X96560236Y-73047192D01*
X96553560Y-73041224D01*
X96552402Y-73036149D01*
X96552402Y-72963850D01*
X96555829Y-72955577D01*
X96560235Y-72952807D01*
X96763003Y-72881817D01*
X96771941Y-72882318D01*
G37*
%TD.AperFunction*%
%TD*%
%TA.AperFunction,Conductor*%
%TO.N,Net-(Q1-C)*%
G36*
X95036986Y-72881813D02*
G01*
X95239764Y-72952807D01*
X95246440Y-72958775D01*
X95247598Y-72963850D01*
X95247598Y-73036149D01*
X95244171Y-73044422D01*
X95239764Y-73047192D01*
X95036999Y-73118182D01*
X95028058Y-73117681D01*
X95022090Y-73111005D01*
X95021676Y-73109511D01*
X94999491Y-73002372D01*
X94999491Y-72997628D01*
X95021676Y-72890488D01*
X95026709Y-72883081D01*
X95035505Y-72881403D01*
X95036986Y-72881813D01*
G37*
%TD.AperFunction*%
%TD*%
M02*
