%TF.GenerationSoftware,KiCad,Pcbnew,9.0.2*%
%TF.CreationDate,2026-07-16T14:58:56+03:00*%
%TF.ProjectId,sim7080g,73696d37-3038-4306-972e-6b696361645f,rev?*%
%TF.SameCoordinates,Original*%
%TF.FileFunction,Legend,Bot*%
%TF.FilePolarity,Positive*%
%FSLAX46Y46*%
G04 Gerber Fmt 4.6, Leading zero omitted, Abs format (unit mm)*
G04 Created by KiCad (PCBNEW 9.0.2) date 2026-07-16 14:58:56*
%MOMM*%
%LPD*%
G01*
G04 APERTURE LIST*
G04 Aperture macros list*
%AMFreePoly0*
4,1,23,0.500000,-0.750000,0.000000,-0.750000,0.000000,-0.745722,-0.065263,-0.745722,-0.191342,-0.711940,-0.304381,-0.646677,-0.396677,-0.554381,-0.461940,-0.441342,-0.495722,-0.315263,-0.495722,-0.250000,-0.500000,-0.250000,-0.500000,0.250000,-0.495722,0.250000,-0.495722,0.315263,-0.461940,0.441342,-0.396677,0.554381,-0.304381,0.646677,-0.191342,0.711940,-0.065263,0.745722,0.000000,0.745722,
0.000000,0.750000,0.500000,0.750000,0.500000,-0.750000,0.500000,-0.750000,$1*%
%AMFreePoly1*
4,1,23,0.000000,0.745722,0.065263,0.745722,0.191342,0.711940,0.304381,0.646677,0.396677,0.554381,0.461940,0.441342,0.495722,0.315263,0.495722,0.250000,0.500000,0.250000,0.500000,-0.250000,0.495722,-0.250000,0.495722,-0.315263,0.461940,-0.441342,0.396677,-0.554381,0.304381,-0.646677,0.191342,-0.711940,0.065263,-0.745722,0.000000,-0.745722,0.000000,-0.750000,-0.500000,-0.750000,
-0.500000,0.750000,0.000000,0.750000,0.000000,0.745722,0.000000,0.745722,$1*%
G04 Aperture macros list end*
%ADD10C,0.000000*%
%ADD11C,0.120000*%
%ADD12FreePoly0,0.000000*%
%ADD13FreePoly1,0.000000*%
%ADD14FreePoly0,270.000000*%
%ADD15FreePoly1,270.000000*%
%ADD16R,1.700000X1.700000*%
%ADD17C,1.700000*%
G04 APERTURE END LIST*
D10*
%TO.C,kibuzzard-6A58ADF5*%
G36*
X107160178Y-67706866D02*
G01*
X107219548Y-67835299D01*
X107163813Y-67973425D01*
X107086874Y-68027948D01*
X106967528Y-68084895D01*
X106860905Y-67962520D01*
X106829402Y-67832876D01*
X106886349Y-67705654D01*
X107023263Y-67663247D01*
X107160178Y-67706866D01*
G37*
G36*
X107221971Y-68408401D02*
G01*
X107258320Y-68540468D01*
X107189257Y-68687076D01*
X107025687Y-68736753D01*
X106852423Y-68684653D01*
X106788207Y-68559855D01*
X106806381Y-68475040D01*
X106864540Y-68408401D01*
X106967528Y-68347819D01*
X107117771Y-68283603D01*
X107221971Y-68408401D01*
G37*
G36*
X99886753Y-67695961D02*
G01*
X99930372Y-67702019D01*
X99930372Y-68710097D01*
X99903716Y-68712520D01*
X99877060Y-68712520D01*
X99706220Y-68673748D01*
X99594750Y-68567124D01*
X99534168Y-68405977D01*
X99520537Y-68308138D01*
X99515994Y-68201212D01*
X99530533Y-68012197D01*
X99581422Y-67849838D01*
X99680775Y-67737157D01*
X99843134Y-67694750D01*
X99886753Y-67695961D01*
G37*
G36*
X101088691Y-67718982D02*
G01*
X101160178Y-67831664D01*
X101194103Y-67997658D01*
X101200464Y-68095800D01*
X101202585Y-68201212D01*
X101200464Y-68306926D01*
X101194103Y-68405977D01*
X101160178Y-68571971D01*
X101088691Y-68683441D01*
X100965105Y-68724637D01*
X100842730Y-68683441D01*
X100770032Y-68570759D01*
X100736107Y-68404766D01*
X100729746Y-68306624D01*
X100727625Y-68201212D01*
X100729746Y-68095497D01*
X100736107Y-67996446D01*
X100770032Y-67830452D01*
X100841519Y-67718982D01*
X100965105Y-67677787D01*
X101088691Y-67718982D01*
G37*
G36*
X105918861Y-67706563D02*
G01*
X105998223Y-67807431D01*
X106034572Y-67910689D01*
X106056381Y-68041142D01*
X106063651Y-68198788D01*
X106056381Y-68357781D01*
X106034572Y-68489041D01*
X105998223Y-68592569D01*
X105918861Y-68693437D01*
X105811632Y-68727060D01*
X105809208Y-68726311D01*
X105702888Y-68693437D01*
X105623829Y-68592569D01*
X105588153Y-68489041D01*
X105566747Y-68357781D01*
X105559612Y-68198788D01*
X105560709Y-68174556D01*
X105675929Y-68174556D01*
X105713489Y-68287237D01*
X105809208Y-68334491D01*
X105908562Y-68287237D01*
X105944911Y-68174556D01*
X105908562Y-68060662D01*
X105809208Y-68012197D01*
X105713489Y-68060662D01*
X105675929Y-68174556D01*
X105560709Y-68174556D01*
X105566747Y-68041142D01*
X105588153Y-67910689D01*
X105623829Y-67807431D01*
X105702888Y-67706563D01*
X105811632Y-67672940D01*
X105918861Y-67706563D01*
G37*
G36*
X108342124Y-67706563D02*
G01*
X108421486Y-67807431D01*
X108457835Y-67910689D01*
X108479645Y-68041142D01*
X108486914Y-68198788D01*
X108479645Y-68357781D01*
X108457835Y-68489041D01*
X108421486Y-68592569D01*
X108342124Y-68693437D01*
X108234895Y-68727060D01*
X108232472Y-68726311D01*
X108126151Y-68693437D01*
X108047092Y-68592569D01*
X108011416Y-68489041D01*
X107990011Y-68357781D01*
X107982876Y-68198788D01*
X107983973Y-68174556D01*
X108099192Y-68174556D01*
X108136753Y-68287237D01*
X108232472Y-68334491D01*
X108331826Y-68287237D01*
X108368174Y-68174556D01*
X108331826Y-68060662D01*
X108232472Y-68012197D01*
X108136753Y-68060662D01*
X108099192Y-68174556D01*
X107983973Y-68174556D01*
X107990011Y-68041142D01*
X108011416Y-67910689D01*
X108047092Y-67807431D01*
X108126151Y-67706563D01*
X108234895Y-67672940D01*
X108342124Y-67706563D01*
G37*
G36*
X113792246Y-69185864D02*
G01*
X113590307Y-69185864D01*
X113125040Y-69185864D01*
X112344750Y-69185864D01*
X110108078Y-69185864D01*
X109732472Y-69185864D01*
X108234895Y-69185864D01*
X107030533Y-69185864D01*
X105811632Y-69185864D01*
X104527302Y-69185864D01*
X101626656Y-69185864D01*
X100962682Y-69185864D01*
X99908562Y-69185864D01*
X98546688Y-69185864D01*
X96821325Y-69185864D01*
X96571729Y-69185864D01*
X95609693Y-69185864D01*
X95407754Y-69185864D01*
X95407754Y-68705250D01*
X95609693Y-68705250D01*
X95609693Y-68952423D01*
X96571729Y-68952423D01*
X96571729Y-68705250D01*
X96821325Y-68705250D01*
X96821325Y-68952423D01*
X97763974Y-68952423D01*
X97763974Y-68409612D01*
X98030533Y-68409612D01*
X98036591Y-68534410D01*
X98054766Y-68647092D01*
X98088086Y-68745840D01*
X98139580Y-68828837D01*
X98209855Y-68895174D01*
X98299515Y-68943942D01*
X98410985Y-68973930D01*
X98546688Y-68983926D01*
X98680271Y-68973930D01*
X98790226Y-68943942D01*
X98946527Y-68828837D01*
X98996204Y-68745840D01*
X99028918Y-68647092D01*
X99047092Y-68534410D01*
X99053150Y-68409612D01*
X99053150Y-68201212D01*
X99213086Y-68201212D01*
X99226111Y-68394164D01*
X99265186Y-68556220D01*
X99327282Y-68689196D01*
X99409370Y-68794911D01*
X99510238Y-68874576D01*
X99628675Y-68929402D01*
X99762258Y-68961208D01*
X99908562Y-68971809D01*
X100064863Y-68963328D01*
X100228433Y-68935460D01*
X100228433Y-68201212D01*
X100424717Y-68201212D01*
X100433502Y-68383184D01*
X100459855Y-68541377D01*
X100503776Y-68675793D01*
X100565267Y-68786430D01*
X100671890Y-68896150D01*
X100804362Y-68961982D01*
X100962682Y-68983926D01*
X101124906Y-68961982D01*
X101144434Y-68952423D01*
X101626656Y-68952423D01*
X101900485Y-68952423D01*
X101885945Y-67786834D01*
X102070113Y-68421729D01*
X102288207Y-68421729D01*
X102465105Y-67786834D01*
X102452989Y-68952423D01*
X102726817Y-68952423D01*
X102719245Y-68764620D01*
X102711066Y-68569548D01*
X102702282Y-68371446D01*
X102692892Y-68174556D01*
X102682290Y-67981300D01*
X102669871Y-67794103D01*
X102655634Y-67616599D01*
X102646926Y-67527544D01*
X104081422Y-67527544D01*
X104158966Y-67765024D01*
X104289822Y-67704443D01*
X104449758Y-67677787D01*
X104629079Y-67716559D01*
X104749031Y-67824394D01*
X104816882Y-67989176D01*
X104832330Y-68090044D01*
X104837480Y-68201212D01*
X104828056Y-68364782D01*
X104799785Y-68496850D01*
X104752666Y-68597415D01*
X104647859Y-68692831D01*
X104503069Y-68724637D01*
X104444911Y-68722213D01*
X104386753Y-68714943D01*
X104386753Y-68167286D01*
X104088691Y-68167286D01*
X104088691Y-68916074D01*
X104254685Y-68959693D01*
X104379180Y-68977868D01*
X104527302Y-68983926D01*
X104660884Y-68971506D01*
X104780533Y-68934249D01*
X104885036Y-68872456D01*
X104973183Y-68786430D01*
X105044063Y-68676171D01*
X105096769Y-68541680D01*
X105129483Y-68383259D01*
X105140388Y-68201212D01*
X105140217Y-68198788D01*
X105290630Y-68198788D01*
X105298960Y-68384774D01*
X105323950Y-68545315D01*
X105365600Y-68680412D01*
X105423910Y-68790065D01*
X105526225Y-68897765D01*
X105655466Y-68962386D01*
X105811632Y-68983926D01*
X105967798Y-68962386D01*
X106097038Y-68897765D01*
X106199354Y-68790065D01*
X106257664Y-68680412D01*
X106293336Y-68564701D01*
X106507108Y-68564701D01*
X106534976Y-68712520D01*
X106624637Y-68847011D01*
X106785784Y-68945153D01*
X106896648Y-68974233D01*
X107030533Y-68983926D01*
X107139277Y-68976959D01*
X107237722Y-68956058D01*
X107397658Y-68876090D01*
X107500646Y-68747658D01*
X107536995Y-68576817D01*
X107523667Y-68466256D01*
X107483683Y-68362359D01*
X107415226Y-68267548D01*
X107333713Y-68198788D01*
X107713893Y-68198788D01*
X107722223Y-68384774D01*
X107747213Y-68545315D01*
X107788863Y-68680412D01*
X107847173Y-68790065D01*
X107949488Y-68897765D01*
X108078729Y-68962386D01*
X108234895Y-68983926D01*
X108391061Y-68962386D01*
X108520302Y-68897765D01*
X108622617Y-68790065D01*
X108680927Y-68680412D01*
X108722577Y-68545315D01*
X108747567Y-68384774D01*
X108755897Y-68198788D01*
X108747415Y-68014923D01*
X108721971Y-67855897D01*
X108679564Y-67721708D01*
X108655718Y-67677787D01*
X108954604Y-67677787D01*
X109023061Y-67768053D01*
X109097577Y-67888611D01*
X109173001Y-68033401D01*
X109244184Y-68196365D01*
X109309006Y-68374172D01*
X109365347Y-68563489D01*
X109407452Y-68758259D01*
X109429564Y-68952423D01*
X109732472Y-68952423D01*
X110108078Y-68952423D01*
X110381906Y-68952423D01*
X110367367Y-67786834D01*
X110551535Y-68421729D01*
X110769628Y-68421729D01*
X110946527Y-67786834D01*
X110934410Y-68952423D01*
X111208239Y-68952423D01*
X111200666Y-68764620D01*
X111192488Y-68569548D01*
X111183704Y-68371446D01*
X111174313Y-68174556D01*
X111163712Y-67981300D01*
X111151292Y-67794103D01*
X111143712Y-67699596D01*
X111392407Y-67699596D01*
X111717124Y-67699596D01*
X111717124Y-68705250D01*
X111392407Y-68705250D01*
X111392407Y-68952423D01*
X112344750Y-68952423D01*
X112344750Y-68705250D01*
X112017609Y-68705250D01*
X112017609Y-68542892D01*
X112572536Y-68542892D01*
X112606765Y-68729786D01*
X112709451Y-68868821D01*
X112816478Y-68932768D01*
X112955008Y-68971136D01*
X113125040Y-68983926D01*
X113292851Y-68973930D01*
X113423102Y-68943942D01*
X113590307Y-68870032D01*
X113503069Y-68627706D01*
X113346769Y-68700404D01*
X113245901Y-68725848D01*
X113125040Y-68734330D01*
X113000242Y-68718578D01*
X112921486Y-68674960D01*
X112881502Y-68611955D01*
X112870598Y-68540468D01*
X112897254Y-68458078D01*
X112965105Y-68393861D01*
X113057189Y-68342973D01*
X113158966Y-68300565D01*
X113299515Y-68244830D01*
X113431583Y-68164863D01*
X113529725Y-68044911D01*
X113568498Y-67866801D01*
X113534269Y-67678998D01*
X113431583Y-67537237D01*
X113328864Y-67471271D01*
X113203258Y-67431691D01*
X113054766Y-67418498D01*
X112925424Y-67426373D01*
X112813651Y-67450000D01*
X112640388Y-67520275D01*
X112727625Y-67750485D01*
X112862116Y-67692326D01*
X113032956Y-67668094D01*
X113164890Y-67687211D01*
X113244050Y-67744561D01*
X113270436Y-67840145D01*
X113246204Y-67916478D01*
X113184410Y-67974637D01*
X113099596Y-68019467D01*
X113006300Y-68055816D01*
X112859693Y-68115186D01*
X112719144Y-68202423D01*
X112613732Y-68338126D01*
X112582835Y-68429907D01*
X112572536Y-68542892D01*
X112017609Y-68542892D01*
X112017609Y-67699596D01*
X112344750Y-67699596D01*
X112344750Y-67452423D01*
X111392407Y-67452423D01*
X111392407Y-67699596D01*
X111143712Y-67699596D01*
X111137056Y-67616599D01*
X111121002Y-67452423D01*
X110873829Y-67452423D01*
X110831422Y-67583279D01*
X110776898Y-67755331D01*
X110718740Y-67941922D01*
X110663005Y-68116397D01*
X110602423Y-67931018D01*
X110541842Y-67746850D01*
X110488530Y-67580856D01*
X110444911Y-67452423D01*
X110197738Y-67452423D01*
X110181078Y-67646284D01*
X110165024Y-67835299D01*
X110150485Y-68020981D01*
X110138368Y-68204847D01*
X110128372Y-68388409D01*
X110120194Y-68573183D01*
X110113530Y-68760683D01*
X110108078Y-68952423D01*
X109732472Y-68952423D01*
X109716115Y-68792791D01*
X109681583Y-68624071D01*
X109633421Y-68451716D01*
X109576171Y-68281179D01*
X109511652Y-68116095D01*
X109441680Y-67960097D01*
X109370800Y-67819245D01*
X109303554Y-67699596D01*
X109933603Y-67699596D01*
X109933603Y-67452423D01*
X108954604Y-67452423D01*
X108954604Y-67677787D01*
X108655718Y-67677787D01*
X108620194Y-67612359D01*
X108517071Y-67504658D01*
X108388638Y-67440038D01*
X108234895Y-67418498D01*
X108078729Y-67439903D01*
X107949488Y-67504120D01*
X107847173Y-67611147D01*
X107788863Y-67720118D01*
X107747213Y-67854382D01*
X107722223Y-68013939D01*
X107713893Y-68198788D01*
X107333713Y-68198788D01*
X107316478Y-68184249D01*
X107406139Y-68109128D01*
X107461874Y-68029160D01*
X107500646Y-67854685D01*
X107475202Y-67703231D01*
X107394023Y-67561470D01*
X107246204Y-67457270D01*
X107143215Y-67426373D01*
X107018417Y-67416074D01*
X106824859Y-67442730D01*
X106675525Y-67522698D01*
X106580109Y-67647496D01*
X106548304Y-67808643D01*
X106561026Y-67911935D01*
X106599192Y-68013409D01*
X106664620Y-68105796D01*
X106759128Y-68181826D01*
X106641296Y-68265428D01*
X106564055Y-68356300D01*
X106521345Y-68455654D01*
X106507108Y-68564701D01*
X106293336Y-68564701D01*
X106299313Y-68545315D01*
X106324303Y-68384774D01*
X106332633Y-68198788D01*
X106324152Y-68014923D01*
X106298708Y-67855897D01*
X106256300Y-67721708D01*
X106196931Y-67612359D01*
X106093807Y-67504658D01*
X105965374Y-67440038D01*
X105811632Y-67418498D01*
X105655466Y-67439903D01*
X105526225Y-67504120D01*
X105423910Y-67611147D01*
X105365600Y-67720118D01*
X105323950Y-67854382D01*
X105298960Y-68013939D01*
X105290630Y-68198788D01*
X105140217Y-68198788D01*
X105127666Y-68020981D01*
X105089499Y-67863166D01*
X105029523Y-67728372D01*
X104951373Y-67617205D01*
X104856260Y-67530271D01*
X104745396Y-67468174D01*
X104622415Y-67430917D01*
X104490953Y-67418498D01*
X104334653Y-67431826D01*
X104214701Y-67462116D01*
X104131099Y-67498465D01*
X104081422Y-67527544D01*
X102646926Y-67527544D01*
X102639580Y-67452423D01*
X102392407Y-67452423D01*
X102350000Y-67583279D01*
X102295477Y-67755331D01*
X102237318Y-67941922D01*
X102181583Y-68116397D01*
X102121002Y-67931018D01*
X102060420Y-67746850D01*
X102007108Y-67580856D01*
X101963489Y-67452423D01*
X101716317Y-67452423D01*
X101699657Y-67646284D01*
X101683603Y-67835299D01*
X101669063Y-68020981D01*
X101656947Y-68204847D01*
X101646951Y-68388409D01*
X101638772Y-68573183D01*
X101632108Y-68760683D01*
X101626656Y-68952423D01*
X101144434Y-68952423D01*
X101259397Y-68896150D01*
X101366155Y-68786430D01*
X101427115Y-68675793D01*
X101470658Y-68541377D01*
X101496784Y-68383184D01*
X101505493Y-68201212D01*
X101496557Y-68019240D01*
X101469750Y-67861046D01*
X101425071Y-67726631D01*
X101362520Y-67615994D01*
X101254820Y-67506274D01*
X101122348Y-67440442D01*
X100965105Y-67418498D01*
X100803016Y-67440442D01*
X100668928Y-67506274D01*
X100562843Y-67615994D01*
X100502413Y-67726631D01*
X100459249Y-67861046D01*
X100433350Y-68019240D01*
X100424717Y-68201212D01*
X100228433Y-68201212D01*
X100228433Y-67471809D01*
X100036995Y-67442730D01*
X99869790Y-67435460D01*
X99728332Y-67446365D01*
X99599596Y-67479079D01*
X99486611Y-67535117D01*
X99392407Y-67615994D01*
X99316983Y-67722011D01*
X99260339Y-67853473D01*
X99224899Y-68012500D01*
X99213086Y-68201212D01*
X99053150Y-68201212D01*
X99053150Y-67452423D01*
X98752666Y-67452423D01*
X98752666Y-68390226D01*
X98742973Y-68548950D01*
X98710258Y-68651939D01*
X98646042Y-68707674D01*
X98541842Y-68724637D01*
X98437641Y-68707674D01*
X98372213Y-68650727D01*
X98338288Y-68546527D01*
X98328595Y-68387803D01*
X98328595Y-67452423D01*
X98030533Y-67452423D01*
X98030533Y-68409612D01*
X97763974Y-68409612D01*
X97763974Y-67452423D01*
X97463489Y-67452423D01*
X97463489Y-68705250D01*
X96821325Y-68705250D01*
X96571729Y-68705250D01*
X96571729Y-67452423D01*
X95663005Y-67452423D01*
X95663005Y-67699596D01*
X96273667Y-67699596D01*
X96273667Y-68036430D01*
X95742973Y-68036430D01*
X95742973Y-68283603D01*
X96273667Y-68283603D01*
X96273667Y-68705250D01*
X95609693Y-68705250D01*
X95407754Y-68705250D01*
X95407754Y-67214136D01*
X95609693Y-67214136D01*
X113590307Y-67214136D01*
X113792246Y-67214136D01*
X113792246Y-69185864D01*
G37*
%TO.C,kibuzzard-6A58ABCC*%
G36*
X114108481Y-107551939D02*
G01*
X113906542Y-107551939D01*
X113211066Y-107551939D01*
X111892810Y-107551939D01*
X111570516Y-107551939D01*
X111368578Y-107551939D01*
X111182864Y-107533647D01*
X111004287Y-107479477D01*
X110839709Y-107391508D01*
X110789132Y-107350000D01*
X111570516Y-107350000D01*
X111892810Y-107350000D01*
X111944002Y-107219750D01*
X112005492Y-107076171D01*
X112073646Y-106925929D01*
X112144830Y-106775687D01*
X112215104Y-106921385D01*
X112285379Y-107072536D01*
X112350807Y-107218841D01*
X112406542Y-107350000D01*
X112728836Y-107350000D01*
X112657350Y-107192488D01*
X112607673Y-107096769D01*
X112553150Y-106993780D01*
X112494688Y-106885642D01*
X112433198Y-106774475D01*
X112371405Y-106663914D01*
X112312035Y-106557593D01*
X112567474Y-106097173D01*
X112816074Y-106097173D01*
X113211066Y-106097173D01*
X113211066Y-107350000D01*
X113511550Y-107350000D01*
X113511550Y-106097173D01*
X113906542Y-106097173D01*
X113906542Y-105850000D01*
X112816074Y-105850000D01*
X112816074Y-106097173D01*
X112567474Y-106097173D01*
X112704604Y-105850000D01*
X112382310Y-105850000D01*
X112144830Y-106329806D01*
X111895234Y-105850000D01*
X111594749Y-105850000D01*
X111977625Y-106550323D01*
X111912802Y-106656947D01*
X111849192Y-106768417D01*
X111788307Y-106880796D01*
X111731663Y-106990145D01*
X111680472Y-107094346D01*
X111635944Y-107191276D01*
X111570516Y-107350000D01*
X110789132Y-107350000D01*
X110695456Y-107273122D01*
X110577070Y-107128869D01*
X110489101Y-106964291D01*
X110434930Y-106785714D01*
X110416639Y-106600000D01*
X110434930Y-106414286D01*
X110489101Y-106235709D01*
X110577070Y-106071131D01*
X110695456Y-105926878D01*
X110839709Y-105808492D01*
X111004287Y-105720523D01*
X111182864Y-105666353D01*
X111368578Y-105648061D01*
X111570516Y-105648061D01*
X113906542Y-105648061D01*
X114108481Y-105648061D01*
X114108481Y-107551939D01*
G37*
%TO.C,kibuzzard-6A58ABC2*%
G36*
X113560016Y-108602019D02*
G01*
X113608481Y-108608078D01*
X113608481Y-109058805D01*
X113543053Y-109058805D01*
X113411591Y-109043962D01*
X113322536Y-108999435D01*
X113254685Y-108831018D01*
X113272859Y-108728029D01*
X113327383Y-108656543D01*
X113411591Y-108614742D01*
X113518820Y-108600808D01*
X113560016Y-108602019D01*
G37*
G36*
X114108481Y-110060420D02*
G01*
X113906543Y-110060420D01*
X112852423Y-110060420D01*
X111963085Y-110060420D01*
X111640791Y-110060420D01*
X111438853Y-110060420D01*
X111251484Y-110041966D01*
X111071316Y-109987312D01*
X110905272Y-109898560D01*
X110856435Y-109858481D01*
X111640791Y-109858481D01*
X111963085Y-109858481D01*
X112014277Y-109728231D01*
X112075767Y-109584653D01*
X112143921Y-109434410D01*
X112215105Y-109284168D01*
X112285379Y-109429867D01*
X112355654Y-109581018D01*
X112421082Y-109727322D01*
X112476817Y-109858481D01*
X112799111Y-109858481D01*
X112852423Y-109858481D01*
X113165024Y-109858481D01*
X113225303Y-109715812D01*
X113294669Y-109578595D01*
X113371304Y-109443195D01*
X113453392Y-109305977D01*
X113608481Y-109305977D01*
X113608481Y-109858481D01*
X113906543Y-109858481D01*
X113906543Y-108380291D01*
X113810824Y-108362116D01*
X113705412Y-108350000D01*
X113603635Y-108343942D01*
X113518820Y-108341519D01*
X113396446Y-108348788D01*
X113286187Y-108370598D01*
X113189257Y-108407553D01*
X113106866Y-108460258D01*
X112991761Y-108614136D01*
X112961773Y-108715610D01*
X112951777Y-108833441D01*
X112965105Y-108958239D01*
X113005089Y-109070921D01*
X113075969Y-109164822D01*
X113181987Y-109233279D01*
X113094749Y-109372617D01*
X113005089Y-109532553D01*
X112921486Y-109699758D01*
X112852423Y-109858481D01*
X112799111Y-109858481D01*
X112727625Y-109700969D01*
X112677948Y-109605250D01*
X112623425Y-109502262D01*
X112564963Y-109394124D01*
X112503473Y-109282956D01*
X112441680Y-109172395D01*
X112382310Y-109066074D01*
X112774879Y-108358481D01*
X112452585Y-108358481D01*
X112215105Y-108838288D01*
X111965509Y-108358481D01*
X111665024Y-108358481D01*
X112047900Y-109058805D01*
X111983077Y-109165428D01*
X111919467Y-109276898D01*
X111858582Y-109389277D01*
X111801938Y-109498627D01*
X111750747Y-109602827D01*
X111706220Y-109699758D01*
X111640791Y-109858481D01*
X110856435Y-109858481D01*
X110759733Y-109779120D01*
X110640293Y-109633581D01*
X110551540Y-109467537D01*
X110496887Y-109287369D01*
X110478433Y-109100000D01*
X110496887Y-108912631D01*
X110551540Y-108732463D01*
X110640293Y-108566419D01*
X110759733Y-108420880D01*
X110905272Y-108301440D01*
X111071316Y-108212688D01*
X111251484Y-108158034D01*
X111438853Y-108139580D01*
X111640791Y-108139580D01*
X113906543Y-108139580D01*
X114108481Y-108139580D01*
X114108481Y-110060420D01*
G37*
%TO.C,kibuzzard-6A58ABD9*%
G36*
X114108481Y-105084653D02*
G01*
X113906543Y-105084653D01*
X113254685Y-105084653D01*
X112004281Y-105084653D01*
X110986510Y-105084653D01*
X110434006Y-105084653D01*
X110232068Y-105084653D01*
X110039971Y-105065733D01*
X109855257Y-105009700D01*
X109685024Y-104918709D01*
X109535813Y-104796255D01*
X109413359Y-104647044D01*
X109322367Y-104476810D01*
X109311711Y-104441680D01*
X110434006Y-104441680D01*
X110468235Y-104628574D01*
X110570921Y-104767609D01*
X110677948Y-104831556D01*
X110816478Y-104869925D01*
X110986510Y-104882714D01*
X111154321Y-104872718D01*
X111284572Y-104842730D01*
X111451777Y-104768821D01*
X111364539Y-104526494D01*
X111208239Y-104599192D01*
X111107370Y-104624637D01*
X110986510Y-104633118D01*
X110861712Y-104617367D01*
X110782956Y-104573748D01*
X110742972Y-104510743D01*
X110732068Y-104439257D01*
X110758723Y-104356866D01*
X110826575Y-104292649D01*
X110918659Y-104241761D01*
X111020436Y-104199354D01*
X111160985Y-104143619D01*
X111293053Y-104063651D01*
X111391195Y-103943700D01*
X111429967Y-103765590D01*
X111399493Y-103598384D01*
X111609289Y-103598384D01*
X112004281Y-103598384D01*
X112004281Y-104851212D01*
X112304765Y-104851212D01*
X112304765Y-104778514D01*
X112835460Y-104778514D01*
X113006300Y-104850000D01*
X113122314Y-104874536D01*
X113254685Y-104882714D01*
X113449623Y-104860097D01*
X113611174Y-104792246D01*
X113739337Y-104679160D01*
X113812490Y-104566630D01*
X113864741Y-104432593D01*
X113896092Y-104277050D01*
X113906543Y-104100000D01*
X113893820Y-103923708D01*
X113855654Y-103768013D01*
X113794769Y-103633825D01*
X113713893Y-103522052D01*
X113614539Y-103433603D01*
X113498223Y-103369386D01*
X113367669Y-103330311D01*
X113225606Y-103317286D01*
X113081421Y-103330614D01*
X112968740Y-103360905D01*
X112887560Y-103397254D01*
X112837883Y-103426333D01*
X112915428Y-103663813D01*
X113049919Y-103602019D01*
X113230452Y-103576575D01*
X113367366Y-103602019D01*
X113486106Y-103686834D01*
X113570921Y-103845557D01*
X113595456Y-103957027D01*
X113603635Y-104092730D01*
X113593807Y-104250646D01*
X113564324Y-104381906D01*
X113515185Y-104486511D01*
X113398566Y-104589196D01*
X113225606Y-104623425D01*
X113032956Y-104596769D01*
X112910581Y-104543457D01*
X112835460Y-104778514D01*
X112304765Y-104778514D01*
X112304765Y-103598384D01*
X112699757Y-103598384D01*
X112699757Y-103351212D01*
X111609289Y-103351212D01*
X111609289Y-103598384D01*
X111399493Y-103598384D01*
X111395739Y-103577787D01*
X111293053Y-103436026D01*
X111190334Y-103370059D01*
X111064728Y-103330479D01*
X110916236Y-103317286D01*
X110786894Y-103325162D01*
X110675121Y-103348788D01*
X110501858Y-103419063D01*
X110589095Y-103649273D01*
X110723586Y-103591115D01*
X110894426Y-103566882D01*
X111026359Y-103585999D01*
X111105519Y-103643349D01*
X111131906Y-103738934D01*
X111107673Y-103815267D01*
X111045880Y-103873425D01*
X110961066Y-103918255D01*
X110867770Y-103954604D01*
X110721163Y-104013974D01*
X110580614Y-104101212D01*
X110475202Y-104236914D01*
X110444305Y-104328695D01*
X110434006Y-104441680D01*
X109311711Y-104441680D01*
X109266335Y-104292096D01*
X109247415Y-104100000D01*
X109266335Y-103907904D01*
X109322367Y-103723190D01*
X109413359Y-103552956D01*
X109535813Y-103403745D01*
X109685024Y-103281291D01*
X109855257Y-103190300D01*
X110039971Y-103134267D01*
X110232068Y-103115347D01*
X110434006Y-103115347D01*
X113906543Y-103115347D01*
X114108481Y-103115347D01*
X114108481Y-105084653D01*
G37*
%TO.C,kibuzzard-6A58ABB3*%
G36*
X111076170Y-118994750D02*
G01*
X111119789Y-119000808D01*
X111119789Y-120008885D01*
X111093133Y-120011309D01*
X111066477Y-120011309D01*
X110895637Y-119972536D01*
X110784167Y-119865913D01*
X110723586Y-119704766D01*
X110709955Y-119606926D01*
X110705411Y-119500000D01*
X110719951Y-119310985D01*
X110770839Y-119148627D01*
X110870193Y-119035945D01*
X111032552Y-118993538D01*
X111076170Y-118994750D01*
G37*
G36*
X114108481Y-120484653D02*
G01*
X113906542Y-120484653D01*
X113293456Y-120484653D01*
X111900080Y-120484653D01*
X111097980Y-120484653D01*
X110402503Y-120484653D01*
X110200565Y-120484653D01*
X109544129Y-119500000D01*
X110402503Y-119500000D01*
X110415528Y-119692952D01*
X110454603Y-119855008D01*
X110516699Y-119987985D01*
X110598787Y-120093700D01*
X110699656Y-120173364D01*
X110818093Y-120228191D01*
X110951675Y-120259996D01*
X111097980Y-120270598D01*
X111254280Y-120262116D01*
X111318283Y-120251212D01*
X111660177Y-120251212D01*
X111900080Y-120251212D01*
X111969951Y-120084949D01*
X112043860Y-119918955D01*
X112121809Y-119753231D01*
X112203796Y-119587507D01*
X112289821Y-119421513D01*
X112379886Y-119255250D01*
X112379886Y-120251212D01*
X112648868Y-120251212D01*
X112648868Y-118826333D01*
X112847576Y-118826333D01*
X112925120Y-119063813D01*
X113055977Y-119003231D01*
X113215912Y-118976575D01*
X113395233Y-119015347D01*
X113515185Y-119123183D01*
X113583036Y-119287964D01*
X113598485Y-119388833D01*
X113603634Y-119500000D01*
X113594210Y-119663570D01*
X113565939Y-119795638D01*
X113518820Y-119896204D01*
X113414014Y-119991620D01*
X113269224Y-120023425D01*
X113211065Y-120021002D01*
X113152907Y-120013732D01*
X113152907Y-119466074D01*
X112854846Y-119466074D01*
X112854846Y-120214863D01*
X113020839Y-120258481D01*
X113145334Y-120276656D01*
X113293456Y-120282714D01*
X113427039Y-120270295D01*
X113546687Y-120233037D01*
X113651191Y-120171244D01*
X113739337Y-120085218D01*
X113810217Y-119974960D01*
X113862923Y-119840468D01*
X113895637Y-119682048D01*
X113906542Y-119500000D01*
X113893820Y-119319770D01*
X113855653Y-119161955D01*
X113795678Y-119027161D01*
X113717527Y-118915994D01*
X113622414Y-118829059D01*
X113511550Y-118766963D01*
X113388569Y-118729705D01*
X113257107Y-118717286D01*
X113100807Y-118730614D01*
X112980855Y-118760905D01*
X112897253Y-118797254D01*
X112847576Y-118826333D01*
X112648868Y-118826333D01*
X112648868Y-118751212D01*
X112408965Y-118751212D01*
X112341114Y-118862379D01*
X112273262Y-118982633D01*
X112206320Y-119107128D01*
X112141195Y-119231018D01*
X112079401Y-119352787D01*
X112022455Y-119470921D01*
X111971869Y-119579968D01*
X111929159Y-119674475D01*
X111929159Y-118751212D01*
X111660177Y-118751212D01*
X111660177Y-120251212D01*
X111318283Y-120251212D01*
X111417851Y-120234249D01*
X111417851Y-118770598D01*
X111226413Y-118741519D01*
X111059208Y-118734249D01*
X110917750Y-118745153D01*
X110789014Y-118777868D01*
X110676029Y-118833905D01*
X110581825Y-118914782D01*
X110506401Y-119020800D01*
X110449757Y-119152262D01*
X110414317Y-119311288D01*
X110402503Y-119500000D01*
X109544129Y-119500000D01*
X110200565Y-118515347D01*
X110402503Y-118515347D01*
X113906542Y-118515347D01*
X114108481Y-118515347D01*
X114108481Y-120484653D01*
G37*
D11*
%TO.C,JP2*%
X105050000Y-96800000D02*
X105050000Y-97400000D01*
X105750000Y-98100000D02*
X107150000Y-98100000D01*
X107150000Y-96100000D02*
X105750000Y-96100000D01*
X107850000Y-97400000D02*
X107850000Y-96800000D01*
X105050000Y-96800000D02*
G75*
G02*
X105750000Y-96100000I699999J1D01*
G01*
X105750000Y-98100000D02*
G75*
G02*
X105050000Y-97400000I-1J699999D01*
G01*
X107150000Y-96100000D02*
G75*
G02*
X107850000Y-96800000I0J-700000D01*
G01*
X107850000Y-97400000D02*
G75*
G02*
X107150000Y-98100000I-700000J0D01*
G01*
D10*
%TO.C,kibuzzard-6A58AAA8*%
G36*
X98680344Y-106094750D02*
G01*
X98728809Y-106100808D01*
X98728809Y-106551535D01*
X98663381Y-106551535D01*
X98531919Y-106536692D01*
X98442864Y-106492165D01*
X98375013Y-106323748D01*
X98393187Y-106220759D01*
X98447711Y-106149273D01*
X98531919Y-106107472D01*
X98639149Y-106093538D01*
X98680344Y-106094750D01*
G37*
G36*
X99420906Y-105634267D02*
G01*
X99605620Y-105690300D01*
X99775853Y-105781291D01*
X99925064Y-105903745D01*
X100047518Y-106052956D01*
X100138510Y-106223190D01*
X100194542Y-106407904D01*
X100213462Y-106600000D01*
X100194542Y-106792096D01*
X100138510Y-106976810D01*
X100047518Y-107147044D01*
X99925064Y-107296255D01*
X99775853Y-107418709D01*
X99605620Y-107509700D01*
X99420906Y-107565733D01*
X99228809Y-107584653D01*
X99026871Y-107584653D01*
X97972751Y-107584653D01*
X97190037Y-107584653D01*
X96172267Y-107584653D01*
X95619763Y-107584653D01*
X95417824Y-107584653D01*
X95417824Y-106941680D01*
X95619763Y-106941680D01*
X95653991Y-107128574D01*
X95756677Y-107267609D01*
X95863704Y-107331556D01*
X96002234Y-107369925D01*
X96172267Y-107382714D01*
X96340078Y-107372718D01*
X96470328Y-107342730D01*
X96637533Y-107268821D01*
X96550296Y-107026494D01*
X96393995Y-107099192D01*
X96293127Y-107124637D01*
X96172267Y-107133118D01*
X96047469Y-107117367D01*
X95968712Y-107073748D01*
X95928729Y-107010743D01*
X95917824Y-106939257D01*
X95944480Y-106856866D01*
X96012331Y-106792649D01*
X96104415Y-106741761D01*
X96206192Y-106699354D01*
X96346742Y-106643619D01*
X96478809Y-106563651D01*
X96576952Y-106443700D01*
X96615724Y-106265590D01*
X96585249Y-106098384D01*
X96795045Y-106098384D01*
X97190037Y-106098384D01*
X97190037Y-107351212D01*
X97490522Y-107351212D01*
X97972751Y-107351212D01*
X98285352Y-107351212D01*
X98345631Y-107208542D01*
X98414997Y-107071325D01*
X98491632Y-106935925D01*
X98573721Y-106798708D01*
X98728809Y-106798708D01*
X98728809Y-107351212D01*
X99026871Y-107351212D01*
X99026871Y-105873021D01*
X98931152Y-105854847D01*
X98825740Y-105842730D01*
X98723963Y-105836672D01*
X98639149Y-105834249D01*
X98516774Y-105841519D01*
X98406515Y-105863328D01*
X98309585Y-105900283D01*
X98227194Y-105952989D01*
X98112089Y-106106866D01*
X98082101Y-106208340D01*
X98072105Y-106326171D01*
X98085433Y-106450969D01*
X98125417Y-106563651D01*
X98196297Y-106657553D01*
X98302315Y-106726010D01*
X98215078Y-106865347D01*
X98125417Y-107025283D01*
X98041814Y-107192488D01*
X97972751Y-107351212D01*
X97490522Y-107351212D01*
X97490522Y-106098384D01*
X97885514Y-106098384D01*
X97885514Y-105851212D01*
X96795045Y-105851212D01*
X96795045Y-106098384D01*
X96585249Y-106098384D01*
X96581495Y-106077787D01*
X96478809Y-105936026D01*
X96376090Y-105870059D01*
X96250484Y-105830479D01*
X96101992Y-105817286D01*
X95972650Y-105825162D01*
X95860877Y-105848788D01*
X95687614Y-105919063D01*
X95774851Y-106149273D01*
X95909343Y-106091115D01*
X96080183Y-106066882D01*
X96212116Y-106085999D01*
X96291276Y-106143349D01*
X96317662Y-106238934D01*
X96293430Y-106315267D01*
X96231637Y-106373425D01*
X96146822Y-106418255D01*
X96053527Y-106454604D01*
X95906919Y-106513974D01*
X95766370Y-106601212D01*
X95660958Y-106736914D01*
X95630061Y-106828695D01*
X95619763Y-106941680D01*
X95417824Y-106941680D01*
X95417824Y-105615347D01*
X95619763Y-105615347D01*
X99026871Y-105615347D01*
X99228809Y-105615347D01*
X99420906Y-105634267D01*
G37*
D11*
%TO.C,JP1*%
X114600000Y-84950000D02*
X114600000Y-86350000D01*
X115300000Y-87050000D02*
X115900000Y-87050000D01*
X115900000Y-84250000D02*
X115300000Y-84250000D01*
X116600000Y-86350000D02*
X116600000Y-84950000D01*
X114600000Y-84950000D02*
G75*
G02*
X115300000Y-84250000I699999J1D01*
G01*
X115300000Y-87050000D02*
G75*
G02*
X114600000Y-86350000I0J700000D01*
G01*
X115900000Y-84250000D02*
G75*
G02*
X116600000Y-84950000I1J-699999D01*
G01*
X116600000Y-86350000D02*
G75*
G02*
X115900000Y-87050000I-700000J0D01*
G01*
D10*
%TO.C,kibuzzard-6A58AAD1*%
G36*
X96293430Y-118894750D02*
G01*
X96337049Y-118900808D01*
X96337049Y-119908885D01*
X96310393Y-119911309D01*
X96283737Y-119911309D01*
X96112897Y-119872536D01*
X96001427Y-119765913D01*
X95940845Y-119604766D01*
X95927215Y-119506926D01*
X95922671Y-119400000D01*
X95937211Y-119210985D01*
X95988099Y-119048627D01*
X96087453Y-118935945D01*
X96249812Y-118893538D01*
X96293430Y-118894750D01*
G37*
G36*
X99982176Y-119400000D02*
G01*
X99325740Y-120384653D01*
X99123802Y-120384653D01*
X98510716Y-120384653D01*
X97117340Y-120384653D01*
X96315240Y-120384653D01*
X95619763Y-120384653D01*
X95417824Y-120384653D01*
X95417824Y-119400000D01*
X95619763Y-119400000D01*
X95632788Y-119592952D01*
X95671863Y-119755008D01*
X95733959Y-119887985D01*
X95816047Y-119993700D01*
X95916916Y-120073364D01*
X96035353Y-120128191D01*
X96168935Y-120159996D01*
X96315240Y-120170598D01*
X96471540Y-120162116D01*
X96535543Y-120151212D01*
X96877437Y-120151212D01*
X97117340Y-120151212D01*
X97187211Y-119984949D01*
X97261120Y-119818955D01*
X97339068Y-119653231D01*
X97421055Y-119487507D01*
X97507081Y-119321513D01*
X97597146Y-119155250D01*
X97597146Y-120151212D01*
X97866128Y-120151212D01*
X97866128Y-118726333D01*
X98064836Y-118726333D01*
X98142380Y-118963813D01*
X98273236Y-118903231D01*
X98433172Y-118876575D01*
X98612493Y-118915347D01*
X98732445Y-119023183D01*
X98800296Y-119187964D01*
X98815744Y-119288833D01*
X98820894Y-119400000D01*
X98811470Y-119563570D01*
X98783199Y-119695638D01*
X98736080Y-119796204D01*
X98631274Y-119891620D01*
X98486484Y-119923425D01*
X98428325Y-119921002D01*
X98370167Y-119913732D01*
X98370167Y-119366074D01*
X98072106Y-119366074D01*
X98072106Y-120114863D01*
X98238099Y-120158481D01*
X98362594Y-120176656D01*
X98510716Y-120182714D01*
X98644299Y-120170295D01*
X98763947Y-120133037D01*
X98868450Y-120071244D01*
X98956597Y-119985218D01*
X99027477Y-119874960D01*
X99080183Y-119740468D01*
X99112897Y-119582048D01*
X99123802Y-119400000D01*
X99111080Y-119219770D01*
X99072913Y-119061955D01*
X99012938Y-118927161D01*
X98934787Y-118815994D01*
X98839674Y-118729059D01*
X98728810Y-118666963D01*
X98605829Y-118629705D01*
X98474367Y-118617286D01*
X98318067Y-118630614D01*
X98198115Y-118660905D01*
X98114513Y-118697254D01*
X98064836Y-118726333D01*
X97866128Y-118726333D01*
X97866128Y-118651212D01*
X97626225Y-118651212D01*
X97558374Y-118762379D01*
X97490522Y-118882633D01*
X97423580Y-119007128D01*
X97358454Y-119131018D01*
X97296661Y-119252787D01*
X97239715Y-119370921D01*
X97189129Y-119479968D01*
X97146419Y-119574475D01*
X97146419Y-118651212D01*
X96877437Y-118651212D01*
X96877437Y-120151212D01*
X96535543Y-120151212D01*
X96635110Y-120134249D01*
X96635110Y-118670598D01*
X96443673Y-118641519D01*
X96276467Y-118634249D01*
X96135009Y-118645153D01*
X96006274Y-118677868D01*
X95893289Y-118733905D01*
X95799085Y-118814782D01*
X95723660Y-118920800D01*
X95667017Y-119052262D01*
X95631576Y-119211288D01*
X95619763Y-119400000D01*
X95417824Y-119400000D01*
X95417824Y-118415347D01*
X95619763Y-118415347D01*
X99123802Y-118415347D01*
X99325740Y-118415347D01*
X99982176Y-119400000D01*
G37*
D11*
%TO.C,J2*%
X91920000Y-102780000D02*
X91920000Y-120670000D01*
X94680000Y-100130000D02*
X93300000Y-100130000D01*
X94680000Y-101510000D02*
X94680000Y-100130000D01*
X94680000Y-102780000D02*
X91920000Y-102780000D01*
X94680000Y-102780000D02*
X94680000Y-120670000D01*
X94680000Y-120670000D02*
X91920000Y-120670000D01*
D10*
%TO.C,kibuzzard-6A58AAC0*%
G36*
X101108992Y-116700000D02*
G01*
X100452557Y-117684653D01*
X100250619Y-117684653D01*
X99613300Y-117684653D01*
X98619762Y-117684653D01*
X97473559Y-117684653D01*
X96196499Y-117684653D01*
X95619762Y-117684653D01*
X95417824Y-117684653D01*
X95417824Y-117005331D01*
X95619762Y-117005331D01*
X95653688Y-117196769D01*
X95757888Y-117348223D01*
X95837856Y-117405170D01*
X95937210Y-117447577D01*
X96056556Y-117473930D01*
X96196499Y-117482714D01*
X96314027Y-117474233D01*
X96432767Y-117453635D01*
X96538179Y-117426979D01*
X96613300Y-117400323D01*
X96555142Y-117150727D01*
X96410958Y-117201616D01*
X96313724Y-117221607D01*
X96198922Y-117228271D01*
X96068975Y-117211914D01*
X95984463Y-117162843D01*
X95922670Y-117000485D01*
X95946297Y-116899616D01*
X96017178Y-116834491D01*
X96124407Y-116799051D01*
X96257081Y-116787237D01*
X96349165Y-116787237D01*
X96349165Y-116540065D01*
X96237694Y-116540065D01*
X96145610Y-116530372D01*
X96063220Y-116498869D01*
X96003850Y-116440711D01*
X95980829Y-116348627D01*
X96030505Y-116218982D01*
X96167420Y-116171729D01*
X96335837Y-116199596D01*
X96480021Y-116268659D01*
X96586644Y-116050565D01*
X96413381Y-115962116D01*
X96376149Y-115951212D01*
X96741733Y-115951212D01*
X96774144Y-116105089D01*
X96813220Y-116275929D01*
X96858656Y-116459794D01*
X96910150Y-116652746D01*
X96947711Y-116785218D01*
X96987694Y-116919305D01*
X97030102Y-117055008D01*
X97074259Y-117190038D01*
X97119493Y-117322106D01*
X97165804Y-117451212D01*
X97473559Y-117451212D01*
X97533535Y-117273102D01*
X97597145Y-117073183D01*
X97617832Y-117005331D01*
X98043026Y-117005331D01*
X98076951Y-117196769D01*
X98181152Y-117348223D01*
X98261119Y-117405170D01*
X98360473Y-117447577D01*
X98479819Y-117473930D01*
X98619762Y-117482714D01*
X98737291Y-117474233D01*
X98856031Y-117453635D01*
X98961442Y-117426979D01*
X99036564Y-117400323D01*
X98978405Y-117150727D01*
X98834221Y-117201616D01*
X98736988Y-117221607D01*
X98622186Y-117228271D01*
X98492238Y-117211914D01*
X98407727Y-117162843D01*
X98345934Y-117000485D01*
X98369560Y-116899616D01*
X98440441Y-116834491D01*
X98547670Y-116799051D01*
X98680344Y-116787237D01*
X98772428Y-116787237D01*
X98772428Y-116692730D01*
X99232848Y-116692730D01*
X99232848Y-116937480D01*
X99613300Y-116937480D01*
X99613300Y-117359128D01*
X99870166Y-117359128D01*
X99870166Y-116937480D01*
X100250619Y-116937480D01*
X100250619Y-116692730D01*
X99870166Y-116692730D01*
X99870166Y-116271082D01*
X99613300Y-116271082D01*
X99613300Y-116692730D01*
X99232848Y-116692730D01*
X98772428Y-116692730D01*
X98772428Y-116540065D01*
X98660958Y-116540065D01*
X98568874Y-116530372D01*
X98486483Y-116498869D01*
X98427113Y-116440711D01*
X98404092Y-116348627D01*
X98453769Y-116218982D01*
X98590683Y-116171729D01*
X98759100Y-116199596D01*
X98903284Y-116268659D01*
X99009908Y-116050565D01*
X98836644Y-115962116D01*
X98721842Y-115928494D01*
X98593106Y-115917286D01*
X98475275Y-115925162D01*
X98373801Y-115948788D01*
X98219924Y-116037237D01*
X98130263Y-116171729D01*
X98101184Y-116338934D01*
X98152073Y-116510985D01*
X98287775Y-116636995D01*
X98184484Y-116696971D01*
X98107242Y-116779968D01*
X98059080Y-116883562D01*
X98043026Y-117005331D01*
X97617832Y-117005331D01*
X97639956Y-116932768D01*
X97681152Y-116792623D01*
X97720732Y-116652746D01*
X97758158Y-116515563D01*
X97792891Y-116383495D01*
X97824932Y-116256543D01*
X97864916Y-116086914D01*
X97892783Y-115951212D01*
X97577759Y-115951212D01*
X97559585Y-116076918D01*
X97534140Y-116221405D01*
X97503547Y-116377706D01*
X97469924Y-116538853D01*
X97433575Y-116701212D01*
X97394803Y-116861147D01*
X97355122Y-117011692D01*
X97316047Y-117145880D01*
X97277274Y-117013510D01*
X97238502Y-116863570D01*
X97200942Y-116703635D01*
X97165804Y-116541276D01*
X97133090Y-116379826D01*
X97102799Y-116222617D01*
X97076144Y-116077221D01*
X97054334Y-115951212D01*
X96741733Y-115951212D01*
X96376149Y-115951212D01*
X96298579Y-115928494D01*
X96169843Y-115917286D01*
X96052012Y-115925162D01*
X95950538Y-115948788D01*
X95796661Y-116037237D01*
X95707000Y-116171729D01*
X95677921Y-116338934D01*
X95728809Y-116510985D01*
X95864512Y-116636995D01*
X95761220Y-116696971D01*
X95683979Y-116779968D01*
X95635816Y-116883562D01*
X95619762Y-117005331D01*
X95417824Y-117005331D01*
X95417824Y-115715347D01*
X95619762Y-115715347D01*
X100250619Y-115715347D01*
X100452557Y-115715347D01*
X101108992Y-116700000D01*
G37*
%TO.C,kibuzzard-6A58AD62*%
G36*
X103424313Y-96494750D02*
G01*
X103472779Y-96500808D01*
X103472779Y-96951535D01*
X103407351Y-96951535D01*
X103275889Y-96936692D01*
X103186834Y-96892165D01*
X103118982Y-96723748D01*
X103137157Y-96620759D01*
X103191680Y-96549273D01*
X103275889Y-96507472D01*
X103383118Y-96493538D01*
X103424313Y-96494750D01*
G37*
G36*
X104563570Y-97984653D02*
G01*
X103972779Y-97984653D01*
X103770840Y-97984653D01*
X102716721Y-97984653D01*
X101934007Y-97984653D01*
X100916236Y-97984653D01*
X100363732Y-97984653D01*
X100161793Y-97984653D01*
X99968901Y-97341680D01*
X100363732Y-97341680D01*
X100397960Y-97528574D01*
X100500646Y-97667609D01*
X100607674Y-97731556D01*
X100746204Y-97769925D01*
X100916236Y-97782714D01*
X101084047Y-97772718D01*
X101214297Y-97742730D01*
X101381502Y-97668821D01*
X101294265Y-97426494D01*
X101137965Y-97499192D01*
X101037096Y-97524637D01*
X100916236Y-97533118D01*
X100791438Y-97517367D01*
X100712682Y-97473748D01*
X100672698Y-97410743D01*
X100661793Y-97339257D01*
X100688449Y-97256866D01*
X100756301Y-97192649D01*
X100848385Y-97141761D01*
X100950162Y-97099354D01*
X101090711Y-97043619D01*
X101222779Y-96963651D01*
X101320921Y-96843700D01*
X101359693Y-96665590D01*
X101329219Y-96498384D01*
X101539015Y-96498384D01*
X101934007Y-96498384D01*
X101934007Y-97751212D01*
X102234491Y-97751212D01*
X102716721Y-97751212D01*
X103029322Y-97751212D01*
X103089600Y-97608542D01*
X103158966Y-97471325D01*
X103235602Y-97335925D01*
X103317690Y-97198708D01*
X103472779Y-97198708D01*
X103472779Y-97751212D01*
X103770840Y-97751212D01*
X103770840Y-96273021D01*
X103675121Y-96254847D01*
X103569709Y-96242730D01*
X103467932Y-96236672D01*
X103383118Y-96234249D01*
X103260743Y-96241519D01*
X103150485Y-96263328D01*
X103053554Y-96300283D01*
X102971163Y-96352989D01*
X102856058Y-96506866D01*
X102826070Y-96608340D01*
X102816074Y-96726171D01*
X102829402Y-96850969D01*
X102869386Y-96963651D01*
X102940267Y-97057553D01*
X103046284Y-97126010D01*
X102959047Y-97265347D01*
X102869386Y-97425283D01*
X102785784Y-97592488D01*
X102716721Y-97751212D01*
X102234491Y-97751212D01*
X102234491Y-96498384D01*
X102629483Y-96498384D01*
X102629483Y-96251212D01*
X101539015Y-96251212D01*
X101539015Y-96498384D01*
X101329219Y-96498384D01*
X101325465Y-96477787D01*
X101222779Y-96336026D01*
X101120059Y-96270059D01*
X100994453Y-96230479D01*
X100845961Y-96217286D01*
X100716620Y-96225162D01*
X100604847Y-96248788D01*
X100431583Y-96319063D01*
X100518821Y-96549273D01*
X100653312Y-96491115D01*
X100824152Y-96466882D01*
X100956085Y-96485999D01*
X101035245Y-96543349D01*
X101061632Y-96638934D01*
X101037399Y-96715267D01*
X100975606Y-96773425D01*
X100890792Y-96818255D01*
X100797496Y-96854604D01*
X100650889Y-96913974D01*
X100510339Y-97001212D01*
X100404927Y-97136914D01*
X100374031Y-97228695D01*
X100363732Y-97341680D01*
X99968901Y-97341680D01*
X99571002Y-96015347D01*
X100161793Y-96015347D01*
X100363732Y-96015347D01*
X103770840Y-96015347D01*
X103972779Y-96015347D01*
X104563570Y-97984653D01*
G37*
D11*
%TO.C,J3*%
X114780000Y-102780000D02*
X114780000Y-120670000D01*
X117540000Y-100130000D02*
X116160000Y-100130000D01*
X117540000Y-101510000D02*
X117540000Y-100130000D01*
X117540000Y-102780000D02*
X114780000Y-102780000D01*
X117540000Y-102780000D02*
X117540000Y-120670000D01*
X117540000Y-120670000D02*
X114780000Y-120670000D01*
D10*
%TO.C,kibuzzard-6A58AA80*%
G36*
X96327356Y-101092326D02*
G01*
X96375821Y-101098384D01*
X96375821Y-101549111D01*
X96310393Y-101549111D01*
X96178931Y-101534269D01*
X96089876Y-101489742D01*
X96022025Y-101321325D01*
X96040199Y-101218336D01*
X96094723Y-101146850D01*
X96178931Y-101105048D01*
X96286160Y-101091115D01*
X96327356Y-101092326D01*
G37*
G36*
X98755466Y-101092326D02*
G01*
X98799085Y-101098384D01*
X98799085Y-102106462D01*
X98772429Y-102108885D01*
X98745773Y-102108885D01*
X98574933Y-102070113D01*
X98463463Y-101963489D01*
X98402881Y-101802342D01*
X98389250Y-101704503D01*
X98384706Y-101597577D01*
X98399246Y-101408562D01*
X98450135Y-101246204D01*
X98549488Y-101133522D01*
X98711847Y-101091115D01*
X98755466Y-101092326D01*
G37*
G36*
X99488344Y-100648527D02*
G01*
X99670331Y-100703732D01*
X99838050Y-100793380D01*
X99985058Y-100914026D01*
X100105704Y-101061034D01*
X100195352Y-101228754D01*
X100250557Y-101410740D01*
X100269198Y-101600000D01*
X100250557Y-101789260D01*
X100195352Y-101971246D01*
X100105704Y-102138966D01*
X99985058Y-102285974D01*
X99838050Y-102406620D01*
X99670331Y-102496268D01*
X99488344Y-102551473D01*
X99299085Y-102570113D01*
X99097146Y-102570113D01*
X98777275Y-102570113D01*
X97260312Y-102570113D01*
X95619763Y-102570113D01*
X95417824Y-102570113D01*
X95417824Y-102348788D01*
X95619763Y-102348788D01*
X95932364Y-102348788D01*
X95992643Y-102206119D01*
X96062009Y-102068901D01*
X96138644Y-101933502D01*
X96220732Y-101796284D01*
X96375821Y-101796284D01*
X96375821Y-102348788D01*
X96673883Y-102348788D01*
X96673883Y-101095961D01*
X96865320Y-101095961D01*
X97260312Y-101095961D01*
X97260312Y-102348788D01*
X97560797Y-102348788D01*
X97560797Y-101597577D01*
X98081799Y-101597577D01*
X98094824Y-101790529D01*
X98133899Y-101952585D01*
X98195995Y-102085561D01*
X98278083Y-102191276D01*
X98378951Y-102270941D01*
X98497388Y-102325767D01*
X98630971Y-102357573D01*
X98777275Y-102368174D01*
X98933576Y-102359693D01*
X99097146Y-102331826D01*
X99097146Y-100868174D01*
X98905708Y-100839095D01*
X98738503Y-100831826D01*
X98597045Y-100842730D01*
X98468309Y-100875444D01*
X98355324Y-100931482D01*
X98261120Y-101012359D01*
X98185696Y-101118376D01*
X98129052Y-101249838D01*
X98093612Y-101408865D01*
X98081799Y-101597577D01*
X97560797Y-101597577D01*
X97560797Y-101095961D01*
X97955789Y-101095961D01*
X97955789Y-100848788D01*
X96865320Y-100848788D01*
X96865320Y-101095961D01*
X96673883Y-101095961D01*
X96673883Y-100870598D01*
X96578164Y-100852423D01*
X96472752Y-100840307D01*
X96370975Y-100834249D01*
X96286160Y-100831826D01*
X96163786Y-100839095D01*
X96053527Y-100860905D01*
X95956597Y-100897859D01*
X95874206Y-100950565D01*
X95759101Y-101104443D01*
X95729113Y-101205917D01*
X95719117Y-101323748D01*
X95732445Y-101448546D01*
X95772429Y-101561228D01*
X95843309Y-101655129D01*
X95949327Y-101723586D01*
X95862089Y-101862924D01*
X95772429Y-102022859D01*
X95688826Y-102190065D01*
X95619763Y-102348788D01*
X95417824Y-102348788D01*
X95417824Y-100629887D01*
X95619763Y-100629887D01*
X99097146Y-100629887D01*
X99299085Y-100629887D01*
X99488344Y-100648527D01*
G37*
%TO.C,kibuzzard-6A58AA90*%
G36*
X96327355Y-103602019D02*
G01*
X96375821Y-103608078D01*
X96375821Y-104058805D01*
X96310393Y-104058805D01*
X96178931Y-104043962D01*
X96089876Y-103999435D01*
X96022024Y-103831018D01*
X96040199Y-103728029D01*
X96094722Y-103656543D01*
X96178931Y-103614742D01*
X96286160Y-103600808D01*
X96327355Y-103602019D01*
G37*
G36*
X98725175Y-103602019D02*
G01*
X98799084Y-103608078D01*
X98799084Y-104092730D01*
X98677921Y-104092730D01*
X98552517Y-104078494D01*
X98462250Y-104035784D01*
X98407727Y-103958542D01*
X98389553Y-103840711D01*
X98407424Y-103728938D01*
X98461039Y-103655331D01*
X98544338Y-103614439D01*
X98651265Y-103600808D01*
X98725175Y-103602019D01*
G37*
G36*
X99486453Y-103158034D02*
G01*
X99666621Y-103212688D01*
X99832665Y-103301440D01*
X99978204Y-103420880D01*
X100097644Y-103566419D01*
X100186396Y-103732463D01*
X100241050Y-103912631D01*
X100259504Y-104100000D01*
X100241050Y-104287369D01*
X100186396Y-104467537D01*
X100097644Y-104633581D01*
X99978204Y-104779120D01*
X99832665Y-104898560D01*
X99666621Y-104987312D01*
X99486453Y-105041966D01*
X99299084Y-105060420D01*
X99097145Y-105060420D01*
X98799084Y-105060420D01*
X96945288Y-105060420D01*
X95619763Y-105060420D01*
X95417824Y-105060420D01*
X95417824Y-104858481D01*
X95619763Y-104858481D01*
X95932364Y-104858481D01*
X95992642Y-104715812D01*
X96062008Y-104578595D01*
X96138644Y-104443195D01*
X96220732Y-104305977D01*
X96375821Y-104305977D01*
X96375821Y-104858481D01*
X96673882Y-104858481D01*
X96673882Y-103380291D01*
X96578163Y-103362116D01*
X96546538Y-103358481D01*
X96860473Y-103358481D01*
X96867743Y-103545376D01*
X96875013Y-103737722D01*
X96882889Y-103932189D01*
X96891976Y-104125444D01*
X96902578Y-104316579D01*
X96914997Y-104504685D01*
X96929233Y-104686430D01*
X96945288Y-104858481D01*
X97192460Y-104858481D01*
X97245772Y-104700061D01*
X97299084Y-104530129D01*
X97352396Y-104358380D01*
X97405708Y-104194507D01*
X97460231Y-104353837D01*
X97517178Y-104526494D01*
X97572913Y-104699152D01*
X97623801Y-104858481D01*
X97870974Y-104858481D01*
X97889149Y-104686127D01*
X97904900Y-104503473D01*
X97918531Y-104314459D01*
X97930344Y-104123021D01*
X97940340Y-103929766D01*
X97943984Y-103843134D01*
X98084221Y-103843134D01*
X98101857Y-104005897D01*
X98154765Y-104135541D01*
X98242945Y-104232068D01*
X98363435Y-104298708D01*
X98513274Y-104338691D01*
X98692460Y-104352019D01*
X98799084Y-104352019D01*
X98799084Y-104858481D01*
X99097145Y-104858481D01*
X99097145Y-103377868D01*
X98999003Y-103360905D01*
X98888745Y-103350000D01*
X98779698Y-103343942D01*
X98685191Y-103341519D01*
X98508831Y-103354577D01*
X98361012Y-103393753D01*
X98241733Y-103459047D01*
X98154227Y-103553958D01*
X98101723Y-103681987D01*
X98084221Y-103843134D01*
X97943984Y-103843134D01*
X97948519Y-103735299D01*
X97955183Y-103543558D01*
X97960635Y-103358481D01*
X97684383Y-103358481D01*
X97686806Y-103503877D01*
X97689229Y-103654120D01*
X97691653Y-103806482D01*
X97694076Y-103958239D01*
X97696499Y-104107876D01*
X97698922Y-104253877D01*
X97700740Y-104393518D01*
X97701346Y-104524071D01*
X97651669Y-104354443D01*
X97598357Y-104172698D01*
X97551103Y-104007916D01*
X97517178Y-103889176D01*
X97299084Y-103889176D01*
X97270005Y-104003069D01*
X97227598Y-104153312D01*
X97176709Y-104330210D01*
X97122186Y-104524071D01*
X97122792Y-104393518D01*
X97124609Y-104253877D01*
X97127032Y-104108179D01*
X97129456Y-103959451D01*
X97131879Y-103808300D01*
X97134302Y-103655331D01*
X97136120Y-103504180D01*
X97136725Y-103358481D01*
X96860473Y-103358481D01*
X96546538Y-103358481D01*
X96472751Y-103350000D01*
X96370974Y-103343942D01*
X96286160Y-103341519D01*
X96163785Y-103348788D01*
X96053527Y-103370598D01*
X95956596Y-103407553D01*
X95874205Y-103460258D01*
X95759100Y-103614136D01*
X95729112Y-103715610D01*
X95719116Y-103833441D01*
X95732444Y-103958239D01*
X95772428Y-104070921D01*
X95843309Y-104164822D01*
X95949326Y-104233279D01*
X95862089Y-104372617D01*
X95772428Y-104532553D01*
X95688826Y-104699758D01*
X95619763Y-104858481D01*
X95417824Y-104858481D01*
X95417824Y-103139580D01*
X95619763Y-103139580D01*
X99097145Y-103139580D01*
X99299084Y-103139580D01*
X99486453Y-103158034D01*
G37*
%TO.C,kibuzzard-6A58AD87*%
G36*
X104628998Y-100784653D02*
G01*
X104038207Y-100784653D01*
X103836268Y-100784653D01*
X103184410Y-100784653D01*
X101934006Y-100784653D01*
X100916236Y-100784653D01*
X100363732Y-100784653D01*
X100161793Y-100784653D01*
X99968901Y-100141680D01*
X100363732Y-100141680D01*
X100397960Y-100328574D01*
X100500646Y-100467609D01*
X100607674Y-100531556D01*
X100746204Y-100569925D01*
X100916236Y-100582714D01*
X101084047Y-100572718D01*
X101214297Y-100542730D01*
X101381502Y-100468821D01*
X101294265Y-100226494D01*
X101137964Y-100299192D01*
X101037096Y-100324637D01*
X100916236Y-100333118D01*
X100791438Y-100317367D01*
X100712682Y-100273748D01*
X100672698Y-100210743D01*
X100661793Y-100139257D01*
X100688449Y-100056866D01*
X100756300Y-99992649D01*
X100848384Y-99941761D01*
X100950162Y-99899354D01*
X101090711Y-99843619D01*
X101222779Y-99763651D01*
X101320921Y-99643700D01*
X101359693Y-99465590D01*
X101329218Y-99298384D01*
X101539015Y-99298384D01*
X101934006Y-99298384D01*
X101934006Y-100551212D01*
X102234491Y-100551212D01*
X102234491Y-100478514D01*
X102765186Y-100478514D01*
X102936026Y-100550000D01*
X103052040Y-100574536D01*
X103184410Y-100582714D01*
X103379348Y-100560097D01*
X103540899Y-100492246D01*
X103669063Y-100379160D01*
X103742215Y-100266630D01*
X103794467Y-100132593D01*
X103825818Y-99977050D01*
X103836268Y-99800000D01*
X103823546Y-99623708D01*
X103785380Y-99468013D01*
X103724495Y-99333825D01*
X103643619Y-99222052D01*
X103544265Y-99133603D01*
X103427948Y-99069386D01*
X103297395Y-99030311D01*
X103155331Y-99017286D01*
X103011147Y-99030614D01*
X102898465Y-99060905D01*
X102817286Y-99097254D01*
X102767609Y-99126333D01*
X102845153Y-99363813D01*
X102979645Y-99302019D01*
X103160178Y-99276575D01*
X103297092Y-99302019D01*
X103415832Y-99386834D01*
X103500646Y-99545557D01*
X103525182Y-99657027D01*
X103533360Y-99792730D01*
X103523533Y-99950646D01*
X103494050Y-100081906D01*
X103444911Y-100186511D01*
X103328292Y-100289196D01*
X103155331Y-100323425D01*
X102962682Y-100296769D01*
X102840307Y-100243457D01*
X102765186Y-100478514D01*
X102234491Y-100478514D01*
X102234491Y-99298384D01*
X102629483Y-99298384D01*
X102629483Y-99051212D01*
X101539015Y-99051212D01*
X101539015Y-99298384D01*
X101329218Y-99298384D01*
X101325464Y-99277787D01*
X101222779Y-99136026D01*
X101120059Y-99070059D01*
X100994453Y-99030479D01*
X100845961Y-99017286D01*
X100716620Y-99025162D01*
X100604847Y-99048788D01*
X100431583Y-99119063D01*
X100518821Y-99349273D01*
X100653312Y-99291115D01*
X100824152Y-99266882D01*
X100956085Y-99285999D01*
X101035245Y-99343349D01*
X101061632Y-99438934D01*
X101037399Y-99515267D01*
X100975606Y-99573425D01*
X100890792Y-99618255D01*
X100797496Y-99654604D01*
X100650889Y-99713974D01*
X100510339Y-99801212D01*
X100404927Y-99936914D01*
X100374031Y-100028695D01*
X100363732Y-100141680D01*
X99968901Y-100141680D01*
X99571002Y-98815347D01*
X100161793Y-98815347D01*
X100363732Y-98815347D01*
X103836268Y-98815347D01*
X104038207Y-98815347D01*
X104628998Y-100784653D01*
G37*
D11*
%TO.C,JP3*%
X105050000Y-99500000D02*
X105050000Y-100100000D01*
X105750000Y-100800000D02*
X107150000Y-100800000D01*
X107150000Y-98800000D02*
X105750000Y-98800000D01*
X107850000Y-100100000D02*
X107850000Y-99500000D01*
X105050000Y-99500000D02*
G75*
G02*
X105750000Y-98800000I699999J1D01*
G01*
X105750000Y-100800000D02*
G75*
G02*
X105050000Y-100100000I-1J699999D01*
G01*
X107150000Y-98800000D02*
G75*
G02*
X107850000Y-99500000I0J-700000D01*
G01*
X107850000Y-100100000D02*
G75*
G02*
X107150000Y-100800000I-700000J0D01*
G01*
D10*
%TO.C,kibuzzard-6A58ABE5*%
G36*
X113560016Y-101094750D02*
G01*
X113608481Y-101100808D01*
X113608481Y-101551535D01*
X113543053Y-101551535D01*
X113411591Y-101536692D01*
X113322536Y-101492165D01*
X113254685Y-101323748D01*
X113272859Y-101220759D01*
X113327383Y-101149273D01*
X113411591Y-101107472D01*
X113518821Y-101093538D01*
X113560016Y-101094750D01*
G37*
G36*
X114108481Y-102584653D02*
G01*
X113906543Y-102584653D01*
X112852423Y-102584653D01*
X112694911Y-102584653D01*
X110753877Y-102584653D01*
X109723990Y-102584653D01*
X109278110Y-102584653D01*
X109076171Y-102584653D01*
X108884075Y-102565733D01*
X108699361Y-102509700D01*
X108529128Y-102418709D01*
X108379917Y-102296255D01*
X108257462Y-102147044D01*
X108166471Y-101976810D01*
X108110438Y-101792096D01*
X108091519Y-101600000D01*
X108110438Y-101407904D01*
X108166471Y-101223190D01*
X108257462Y-101052956D01*
X108361379Y-100926333D01*
X109278110Y-100926333D01*
X109355654Y-101163813D01*
X109486511Y-101103231D01*
X109646446Y-101076575D01*
X109825767Y-101115347D01*
X109945719Y-101223183D01*
X110013570Y-101387964D01*
X110029019Y-101488833D01*
X110034168Y-101600000D01*
X110024744Y-101763570D01*
X109996473Y-101895638D01*
X109949354Y-101996204D01*
X109844548Y-102091620D01*
X109699758Y-102123425D01*
X109641599Y-102121002D01*
X109583441Y-102113732D01*
X109583441Y-101566074D01*
X109285380Y-101566074D01*
X109285380Y-102314863D01*
X109451373Y-102358481D01*
X109575868Y-102376656D01*
X109723990Y-102382714D01*
X109857573Y-102370295D01*
X109918855Y-102351212D01*
X110513974Y-102351212D01*
X110753877Y-102351212D01*
X110823748Y-102184949D01*
X110897658Y-102018955D01*
X110975606Y-101853231D01*
X111057593Y-101687507D01*
X111143619Y-101521513D01*
X111233683Y-101355250D01*
X111233683Y-102351212D01*
X111502666Y-102351212D01*
X111502666Y-101098384D01*
X111742569Y-101098384D01*
X112067286Y-101098384D01*
X112067286Y-102104039D01*
X111742569Y-102104039D01*
X111742569Y-102351212D01*
X112694911Y-102351212D01*
X112852423Y-102351212D01*
X113165024Y-102351212D01*
X113225303Y-102208542D01*
X113294669Y-102071325D01*
X113371305Y-101935925D01*
X113453393Y-101798708D01*
X113608481Y-101798708D01*
X113608481Y-102351212D01*
X113906543Y-102351212D01*
X113906543Y-100873021D01*
X113810824Y-100854847D01*
X113705412Y-100842730D01*
X113603635Y-100836672D01*
X113518821Y-100834249D01*
X113396446Y-100841519D01*
X113286187Y-100863328D01*
X113189257Y-100900283D01*
X113106866Y-100952989D01*
X112991761Y-101106866D01*
X112961773Y-101208340D01*
X112951777Y-101326171D01*
X112965105Y-101450969D01*
X113005089Y-101563651D01*
X113075969Y-101657553D01*
X113181987Y-101726010D01*
X113094750Y-101865347D01*
X113005089Y-102025283D01*
X112921486Y-102192488D01*
X112852423Y-102351212D01*
X112694911Y-102351212D01*
X112694911Y-102104039D01*
X112367771Y-102104039D01*
X112367771Y-101098384D01*
X112694911Y-101098384D01*
X112694911Y-100851212D01*
X111742569Y-100851212D01*
X111742569Y-101098384D01*
X111502666Y-101098384D01*
X111502666Y-100851212D01*
X111262763Y-100851212D01*
X111194911Y-100962379D01*
X111127060Y-101082633D01*
X111060117Y-101207128D01*
X110994992Y-101331018D01*
X110933199Y-101452787D01*
X110876252Y-101570921D01*
X110825666Y-101679968D01*
X110782956Y-101774475D01*
X110782956Y-100851212D01*
X110513974Y-100851212D01*
X110513974Y-102351212D01*
X109918855Y-102351212D01*
X109977221Y-102333037D01*
X110081725Y-102271244D01*
X110169871Y-102185218D01*
X110240751Y-102074960D01*
X110293457Y-101940468D01*
X110326171Y-101782048D01*
X110337076Y-101600000D01*
X110324354Y-101419770D01*
X110286187Y-101261955D01*
X110226212Y-101127161D01*
X110148061Y-101015994D01*
X110052948Y-100929059D01*
X109942084Y-100866963D01*
X109819103Y-100829705D01*
X109687641Y-100817286D01*
X109531341Y-100830614D01*
X109411389Y-100860905D01*
X109327787Y-100897254D01*
X109278110Y-100926333D01*
X108361379Y-100926333D01*
X108379917Y-100903745D01*
X108529128Y-100781291D01*
X108699361Y-100690300D01*
X108884075Y-100634267D01*
X109076171Y-100615347D01*
X109278110Y-100615347D01*
X113906543Y-100615347D01*
X114108481Y-100615347D01*
X114108481Y-102584653D01*
G37*
%TD*%
%LPC*%
%TO.C,JP2*%
G36*
X106300000Y-97850000D02*
G01*
X106600000Y-97850000D01*
X106600000Y-96350000D01*
X106300000Y-96350000D01*
X106300000Y-97850000D01*
G37*
%TO.C,JP1*%
G36*
X114850000Y-85500000D02*
G01*
X116350000Y-85500000D01*
X116350000Y-85800000D01*
X114850000Y-85800000D01*
X114850000Y-85500000D01*
G37*
%TO.C,JP3*%
G36*
X106300000Y-100550000D02*
G01*
X106600000Y-100550000D01*
X106600000Y-99050000D01*
X106300000Y-99050000D01*
X106300000Y-100550000D01*
G37*
%TD*%
D12*
%TO.C,JP2*%
X105800000Y-97100000D03*
D13*
X107100000Y-97100000D03*
%TD*%
D14*
%TO.C,JP1*%
X115600000Y-85000000D03*
D15*
X115600000Y-86300000D03*
%TD*%
D16*
%TO.C,J2*%
X93300000Y-101510000D03*
D17*
X93300000Y-104050000D03*
X93300000Y-106590000D03*
X93300000Y-109130000D03*
X93300000Y-111670000D03*
X93300000Y-114210000D03*
X93300000Y-116750000D03*
X93300000Y-119290000D03*
%TD*%
D16*
%TO.C,J3*%
X116160000Y-101510000D03*
D17*
X116160000Y-104050000D03*
X116160000Y-106590000D03*
X116160000Y-109130000D03*
X116160000Y-111670000D03*
X116160000Y-114210000D03*
X116160000Y-116750000D03*
X116160000Y-119290000D03*
%TD*%
D12*
%TO.C,JP3*%
X105800000Y-99800000D03*
D13*
X107100000Y-99800000D03*
%TD*%
%LPD*%
M02*
