%TF.GenerationSoftware,KiCad,Pcbnew,9.0.2*%
%TF.CreationDate,2026-07-03T16:52:54+03:00*%
%TF.ProjectId,a0,61302e6b-6963-4616-945f-706362585858,Rev 0.3*%
%TF.SameCoordinates,Original*%
%TF.FileFunction,Copper,L1,Top*%
%TF.FilePolarity,Positive*%
%FSLAX46Y46*%
G04 Gerber Fmt 4.6, Leading zero omitted, Abs format (unit mm)*
G04 Created by KiCad (PCBNEW 9.0.2) date 2026-07-03 16:52:54*
%MOMM*%
%LPD*%
G01*
G04 APERTURE LIST*
G04 Aperture macros list*
%AMRoundRect*
0 Rectangle with rounded corners*
0 $1 Rounding radius*
0 $2 $3 $4 $5 $6 $7 $8 $9 X,Y pos of 4 corners*
0 Add a 4 corners polygon primitive as box body*
4,1,4,$2,$3,$4,$5,$6,$7,$8,$9,$2,$3,0*
0 Add four circle primitives for the rounded corners*
1,1,$1+$1,$2,$3*
1,1,$1+$1,$4,$5*
1,1,$1+$1,$6,$7*
1,1,$1+$1,$8,$9*
0 Add four rect primitives between the rounded corners*
20,1,$1+$1,$2,$3,$4,$5,0*
20,1,$1+$1,$4,$5,$6,$7,0*
20,1,$1+$1,$6,$7,$8,$9,0*
20,1,$1+$1,$8,$9,$2,$3,0*%
%AMFreePoly0*
4,1,14,0.728536,0.728536,0.730000,0.725000,0.730000,-0.725000,0.728536,-0.728536,0.725000,-0.730000,-0.725000,-0.730000,-0.728536,-0.728536,-0.730000,-0.725000,-0.730000,0.125000,-0.728536,0.128536,-0.128536,0.728536,-0.125000,0.730000,0.725000,0.730000,0.728536,0.728536,0.728536,0.728536,$1*%
%AMFreePoly1*
4,1,14,1.303536,1.553536,1.305000,1.550000,1.305000,-1.550000,1.303536,-1.553536,1.300000,-1.555000,-1.300000,-1.555000,-1.303536,-1.553536,-1.305000,-1.550000,-1.305000,0.520000,-1.303536,0.523536,-0.273536,1.553536,-0.270000,1.555000,1.300000,1.555000,1.303536,1.553536,1.303536,1.553536,$1*%
G04 Aperture macros list end*
%TA.AperFunction,ComponentPad*%
%ADD10C,5.000000*%
%TD*%
%TA.AperFunction,SMDPad,CuDef*%
%ADD11RoundRect,0.062500X-0.062500X0.117500X-0.062500X-0.117500X0.062500X-0.117500X0.062500X0.117500X0*%
%TD*%
%TA.AperFunction,SMDPad,CuDef*%
%ADD12RoundRect,0.150000X-0.587500X-0.150000X0.587500X-0.150000X0.587500X0.150000X-0.587500X0.150000X0*%
%TD*%
%TA.AperFunction,SMDPad,CuDef*%
%ADD13RoundRect,0.243750X-0.456250X0.243750X-0.456250X-0.243750X0.456250X-0.243750X0.456250X0.243750X0*%
%TD*%
%TA.AperFunction,SMDPad,CuDef*%
%ADD14RoundRect,0.250000X-0.450000X0.262500X-0.450000X-0.262500X0.450000X-0.262500X0.450000X0.262500X0*%
%TD*%
%TA.AperFunction,SMDPad,CuDef*%
%ADD15RoundRect,0.062500X0.062500X-0.117500X0.062500X0.117500X-0.062500X0.117500X-0.062500X-0.117500X0*%
%TD*%
%TA.AperFunction,SMDPad,CuDef*%
%ADD16RoundRect,0.250000X0.250000X-0.275000X0.250000X0.275000X-0.250000X0.275000X-0.250000X-0.275000X0*%
%TD*%
%TA.AperFunction,SMDPad,CuDef*%
%ADD17RoundRect,0.250000X0.275000X-0.850000X0.275000X0.850000X-0.275000X0.850000X-0.275000X-0.850000X0*%
%TD*%
%TA.AperFunction,SMDPad,CuDef*%
%ADD18RoundRect,0.250000X0.650000X-0.325000X0.650000X0.325000X-0.650000X0.325000X-0.650000X-0.325000X0*%
%TD*%
%TA.AperFunction,SMDPad,CuDef*%
%ADD19RoundRect,0.250000X-0.475000X0.250000X-0.475000X-0.250000X0.475000X-0.250000X0.475000X0.250000X0*%
%TD*%
%TA.AperFunction,SMDPad,CuDef*%
%ADD20RoundRect,0.200000X-0.200000X-0.800000X0.200000X-0.800000X0.200000X0.800000X-0.200000X0.800000X0*%
%TD*%
%TA.AperFunction,SMDPad,CuDef*%
%ADD21R,0.800000X0.400000*%
%TD*%
%TA.AperFunction,SMDPad,CuDef*%
%ADD22R,0.400000X0.800000*%
%TD*%
%TA.AperFunction,SMDPad,CuDef*%
%ADD23FreePoly0,0.000000*%
%TD*%
%TA.AperFunction,SMDPad,CuDef*%
%ADD24R,1.450000X1.450000*%
%TD*%
%TA.AperFunction,SMDPad,CuDef*%
%ADD25R,0.700000X0.700000*%
%TD*%
%TA.AperFunction,SMDPad,CuDef*%
%ADD26RoundRect,0.250000X-0.262500X-0.450000X0.262500X-0.450000X0.262500X0.450000X-0.262500X0.450000X0*%
%TD*%
%TA.AperFunction,SMDPad,CuDef*%
%ADD27R,0.600000X1.240000*%
%TD*%
%TA.AperFunction,SMDPad,CuDef*%
%ADD28R,0.300000X1.240000*%
%TD*%
%TA.AperFunction,HeatsinkPad*%
%ADD29O,1.000000X2.100000*%
%TD*%
%TA.AperFunction,HeatsinkPad*%
%ADD30O,1.000000X1.800000*%
%TD*%
%TA.AperFunction,SMDPad,CuDef*%
%ADD31RoundRect,0.150000X0.587500X0.150000X-0.587500X0.150000X-0.587500X-0.150000X0.587500X-0.150000X0*%
%TD*%
%TA.AperFunction,ComponentPad*%
%ADD32RoundRect,0.250000X-0.600000X-0.750000X0.600000X-0.750000X0.600000X0.750000X-0.600000X0.750000X0*%
%TD*%
%TA.AperFunction,ComponentPad*%
%ADD33O,1.700000X2.000000*%
%TD*%
%TA.AperFunction,SMDPad,CuDef*%
%ADD34RoundRect,0.200000X0.800000X-0.200000X0.800000X0.200000X-0.800000X0.200000X-0.800000X-0.200000X0*%
%TD*%
%TA.AperFunction,ComponentPad*%
%ADD35R,1.700000X1.700000*%
%TD*%
%TA.AperFunction,ComponentPad*%
%ADD36C,1.700000*%
%TD*%
%TA.AperFunction,SMDPad,CuDef*%
%ADD37RoundRect,0.250000X-0.362500X-0.700000X0.362500X-0.700000X0.362500X0.700000X-0.362500X0.700000X0*%
%TD*%
%TA.AperFunction,SMDPad,CuDef*%
%ADD38RoundRect,0.250000X0.250000X0.475000X-0.250000X0.475000X-0.250000X-0.475000X0.250000X-0.475000X0*%
%TD*%
%TA.AperFunction,SMDPad,CuDef*%
%ADD39RoundRect,0.250000X0.450000X-0.262500X0.450000X0.262500X-0.450000X0.262500X-0.450000X-0.262500X0*%
%TD*%
%TA.AperFunction,SMDPad,CuDef*%
%ADD40RoundRect,0.250000X-0.250000X0.275000X-0.250000X-0.275000X0.250000X-0.275000X0.250000X0.275000X0*%
%TD*%
%TA.AperFunction,SMDPad,CuDef*%
%ADD41RoundRect,0.250000X-0.275000X0.850000X-0.275000X-0.850000X0.275000X-0.850000X0.275000X0.850000X0*%
%TD*%
%TA.AperFunction,SMDPad,CuDef*%
%ADD42RoundRect,0.250000X0.475000X-0.250000X0.475000X0.250000X-0.475000X0.250000X-0.475000X-0.250000X0*%
%TD*%
%TA.AperFunction,SMDPad,CuDef*%
%ADD43O,0.600000X1.600000*%
%TD*%
%TA.AperFunction,SMDPad,CuDef*%
%ADD44O,1.600000X0.600000*%
%TD*%
%TA.AperFunction,SMDPad,CuDef*%
%ADD45R,0.900000X1.100000*%
%TD*%
%TA.AperFunction,SMDPad,CuDef*%
%ADD46R,1.100000X0.900000*%
%TD*%
%TA.AperFunction,SMDPad,CuDef*%
%ADD47FreePoly1,270.000000*%
%TD*%
%TA.AperFunction,SMDPad,CuDef*%
%ADD48R,3.100000X2.600000*%
%TD*%
%TA.AperFunction,SMDPad,CuDef*%
%ADD49RoundRect,0.062500X0.117500X0.062500X-0.117500X0.062500X-0.117500X-0.062500X0.117500X-0.062500X0*%
%TD*%
%TA.AperFunction,SMDPad,CuDef*%
%ADD50R,1.800000X0.900000*%
%TD*%
%TA.AperFunction,SMDPad,CuDef*%
%ADD51R,0.900000X2.200000*%
%TD*%
%TA.AperFunction,SMDPad,CuDef*%
%ADD52RoundRect,0.250001X-0.624999X0.462499X-0.624999X-0.462499X0.624999X-0.462499X0.624999X0.462499X0*%
%TD*%
%TA.AperFunction,ComponentPad*%
%ADD53R,1.000000X1.000000*%
%TD*%
%TA.AperFunction,ComponentPad*%
%ADD54C,1.000000*%
%TD*%
%TA.AperFunction,SMDPad,CuDef*%
%ADD55RoundRect,0.150000X-0.512500X-0.150000X0.512500X-0.150000X0.512500X0.150000X-0.512500X0.150000X0*%
%TD*%
%TA.AperFunction,SMDPad,CuDef*%
%ADD56RoundRect,0.250000X-0.250000X-0.475000X0.250000X-0.475000X0.250000X0.475000X-0.250000X0.475000X0*%
%TD*%
%TA.AperFunction,SMDPad,CuDef*%
%ADD57R,0.900000X1.200000*%
%TD*%
%TA.AperFunction,SMDPad,CuDef*%
%ADD58R,1.300000X1.800000*%
%TD*%
%TA.AperFunction,SMDPad,CuDef*%
%ADD59RoundRect,0.050000X0.250000X0.070000X-0.250000X0.070000X-0.250000X-0.070000X0.250000X-0.070000X0*%
%TD*%
%TA.AperFunction,SMDPad,CuDef*%
%ADD60RoundRect,0.050000X0.070000X-0.250000X0.070000X0.250000X-0.070000X0.250000X-0.070000X-0.250000X0*%
%TD*%
%TA.AperFunction,SMDPad,CuDef*%
%ADD61RoundRect,0.050000X1.475000X-0.975000X1.475000X0.975000X-1.475000X0.975000X-1.475000X-0.975000X0*%
%TD*%
%TA.AperFunction,SMDPad,CuDef*%
%ADD62RoundRect,0.375000X-0.375000X0.625000X-0.375000X-0.625000X0.375000X-0.625000X0.375000X0.625000X0*%
%TD*%
%TA.AperFunction,SMDPad,CuDef*%
%ADD63RoundRect,0.500000X-1.400000X0.500000X-1.400000X-0.500000X1.400000X-0.500000X1.400000X0.500000X0*%
%TD*%
%TA.AperFunction,ViaPad*%
%ADD64C,0.600000*%
%TD*%
%TA.AperFunction,Conductor*%
%ADD65C,0.200000*%
%TD*%
G04 APERTURE END LIST*
D10*
%TO.P,H4,1,1*%
%TO.N,GND*%
X90743300Y-126666700D03*
%TD*%
D11*
%TO.P,D8,1,A1*%
%TO.N,GND*%
X87980000Y-60515000D03*
%TO.P,D8,2,A2*%
%TO.N,USB_D-*%
X87980000Y-59675000D03*
%TD*%
D12*
%TO.P,Q2,1,C*%
%TO.N,Net-(Q2-C)*%
X81395000Y-99970000D03*
%TO.P,Q2,2,B*%
%TO.N,Net-(Q2-B)*%
X81395000Y-101870000D03*
%TO.P,Q2,3,E*%
%TO.N,GND*%
X83270000Y-100920000D03*
%TD*%
D13*
%TO.P,D12,1,K*%
%TO.N,GND*%
X75010000Y-103392500D03*
%TO.P,D12,2,A*%
%TO.N,Net-(D12-A)*%
X75010000Y-105267500D03*
%TD*%
D14*
%TO.P,R17,1*%
%TO.N,Net-(U5-SDN)*%
X67500000Y-109087500D03*
%TO.P,R17,2*%
%TO.N,GND*%
X67500000Y-110912500D03*
%TD*%
%TO.P,R2,1*%
%TO.N,+3V3*%
X53270000Y-60377500D03*
%TO.P,R2,2*%
%TO.N,MCU_RST*%
X53270000Y-62202500D03*
%TD*%
D15*
%TO.P,D6,1,A1*%
%TO.N,GND*%
X94520000Y-54282500D03*
%TO.P,D6,2,A2*%
%TO.N,+5V*%
X94520000Y-55122500D03*
%TD*%
D16*
%TO.P,J2,1,In*%
%TO.N,GNSS_ANT*%
X52460000Y-71960000D03*
D17*
%TO.P,J2,2,Ext*%
%TO.N,GND*%
X50985000Y-70435000D03*
X53935000Y-70435000D03*
%TD*%
D18*
%TO.P,C6,1*%
%TO.N,+3V3*%
X75215000Y-97225000D03*
%TO.P,C6,2*%
%TO.N,GND*%
X75215000Y-94275000D03*
%TD*%
D19*
%TO.P,C16,1*%
%TO.N,GND*%
X53800000Y-76420000D03*
%TO.P,C16,2*%
%TO.N,+1V8*%
X53800000Y-78320000D03*
%TD*%
D20*
%TO.P,SW1,1,1*%
%TO.N,GND*%
X50400000Y-65000000D03*
%TO.P,SW1,2,2*%
%TO.N,MCU_RST*%
X54600000Y-65000000D03*
%TD*%
D12*
%TO.P,Q3,1,C*%
%TO.N,Net-(Q3-C)*%
X81037500Y-91450000D03*
%TO.P,Q3,2,B*%
%TO.N,Net-(Q3-B)*%
X81037500Y-93350000D03*
%TO.P,Q3,3,E*%
%TO.N,GND*%
X82912500Y-92400000D03*
%TD*%
D19*
%TO.P,C18,1*%
%TO.N,+3V3*%
X67870000Y-114010000D03*
%TO.P,C18,2*%
%TO.N,GND*%
X67870000Y-115910000D03*
%TD*%
D13*
%TO.P,D4,1,K*%
%TO.N,Net-(D4-K)*%
X85480000Y-97882500D03*
%TO.P,D4,2,A*%
%TO.N,+3V3*%
X85480000Y-99757500D03*
%TD*%
D19*
%TO.P,C13,1*%
%TO.N,GND*%
X58890000Y-111800000D03*
%TO.P,C13,2*%
%TO.N,Net-(U3-RST)*%
X58890000Y-113700000D03*
%TD*%
D10*
%TO.P,H1,1,1*%
%TO.N,GND*%
X45676700Y-60566700D03*
%TD*%
D21*
%TO.P,U1,1,GND*%
%TO.N,GND*%
X64870000Y-71250000D03*
%TO.P,U1,2,GND*%
X64870000Y-72050000D03*
%TO.P,U1,3,3V3*%
%TO.N,+3V3*%
X64870000Y-72850000D03*
%TO.P,U1,4,NC*%
%TO.N,unconnected-(U1-NC-Pad4)*%
X64870000Y-73650000D03*
%TO.P,U1,5,GPIO2/ADC1_CH2*%
%TO.N,ETH_RST*%
X64870000Y-74450000D03*
%TO.P,U1,6,GPIO3/ADC1_CH3*%
%TO.N,ETH_INT*%
X64870000Y-75250000D03*
%TO.P,U1,7,NC*%
%TO.N,unconnected-(U1-NC-Pad7)*%
X64870000Y-76050000D03*
%TO.P,U1,8,EN/CHIP_PU*%
%TO.N,MCU_RST*%
X64870000Y-76850000D03*
%TO.P,U1,9,MTMS/GPIO4/ADC1_CH4*%
%TO.N,MTMS*%
X64870000Y-77650000D03*
%TO.P,U1,10,MTDI/GPIO5/ADC1_CH5*%
%TO.N,MTDI*%
X64870000Y-78450000D03*
%TO.P,U1,11,GND*%
%TO.N,GND*%
X64870000Y-79250000D03*
D22*
%TO.P,U1,12,GPIO0/ADC1_CH0/XTAL_32K_P*%
%TO.N,ESP_IO0*%
X65970000Y-80150000D03*
%TO.P,U1,13,GPIO1/ADC1_CH1/XTAL_32K_N*%
%TO.N,ESP_IO1*%
X66770000Y-80150000D03*
%TO.P,U1,14,GND*%
%TO.N,GND*%
X67570000Y-80150000D03*
%TO.P,U1,15,MTCK/GPIO6/ADC1_CH6*%
%TO.N,ETH_CS*%
X68370000Y-80150000D03*
%TO.P,U1,16,MTDO/GPIO7*%
%TO.N,MTDO*%
X69170000Y-80150000D03*
%TO.P,U1,17,GPIO12/USB_D-*%
%TO.N,USB_D-*%
X69970000Y-80150000D03*
%TO.P,U1,18,GPIO13/USB_D+*%
%TO.N,USB_D+*%
X70770000Y-80150000D03*
%TO.P,U1,19,GPIO14*%
%TO.N,SIM7080G_PWR*%
X71570000Y-80150000D03*
%TO.P,U1,20,GPIO15*%
%TO.N,WMBUS_SDN*%
X72370000Y-80150000D03*
%TO.P,U1,21,NC*%
%TO.N,unconnected-(U1-NC-Pad21)*%
X73170000Y-80150000D03*
%TO.P,U1,22,GPIO8*%
%TO.N,GPIO8*%
X73970000Y-80150000D03*
%TO.P,U1,23,GPIO9*%
%TO.N,GPIO9*%
X74770000Y-80150000D03*
%TO.P,U1,24,GPIO18*%
%TO.N,MOSI*%
X75570000Y-80150000D03*
D21*
%TO.P,U1,25,GPIO19*%
%TO.N,MISO*%
X76670000Y-79250000D03*
%TO.P,U1,26,GPIO20*%
%TO.N,SCK*%
X76670000Y-78450000D03*
%TO.P,U1,27,GPIO21*%
%TO.N,WMBUS_CS*%
X76670000Y-77650000D03*
%TO.P,U1,28,GPIO22*%
%TO.N,MBUS_RX*%
X76670000Y-76850000D03*
%TO.P,U1,29,GPIO23*%
%TO.N,MBUS_TX*%
X76670000Y-76050000D03*
%TO.P,U1,30,U0RXD/GPIO17*%
%TO.N,SIM7080G_TX*%
X76670000Y-75250000D03*
%TO.P,U1,31,U0TXD/GPIO16*%
%TO.N,SIM7080G_RX*%
X76670000Y-74450000D03*
%TO.P,U1,32,NC*%
%TO.N,unconnected-(U1-NC-Pad32)*%
X76670000Y-73650000D03*
%TO.P,U1,33,NC*%
%TO.N,unconnected-(U1-NC-Pad33)*%
X76670000Y-72850000D03*
%TO.P,U1,34,NC*%
%TO.N,unconnected-(U1-NC-Pad34)*%
X76670000Y-72050000D03*
%TO.P,U1,35,NC*%
%TO.N,unconnected-(U1-NC-Pad35)*%
X76670000Y-71250000D03*
D22*
%TO.P,U1,36,GND*%
%TO.N,GND*%
X75570000Y-70350000D03*
%TO.P,U1,37,GND*%
X74770000Y-70350000D03*
%TO.P,U1,38,GND*%
X73970000Y-70350000D03*
%TO.P,U1,39,GND*%
X73170000Y-70350000D03*
%TO.P,U1,40,GND*%
X72370000Y-70350000D03*
%TO.P,U1,41,GND*%
X71570000Y-70350000D03*
%TO.P,U1,42,GND*%
X70770000Y-70350000D03*
%TO.P,U1,43,GND*%
X69970000Y-70350000D03*
%TO.P,U1,44,GND*%
X69170000Y-70350000D03*
%TO.P,U1,45,GND*%
X68370000Y-70350000D03*
%TO.P,U1,46,GND*%
X67570000Y-70350000D03*
%TO.P,U1,47,GND*%
X66770000Y-70350000D03*
%TO.P,U1,48,GND*%
X65970000Y-70350000D03*
D23*
%TO.P,U1,49_1*%
%TO.N,N/C*%
X68795000Y-73275000D03*
D24*
%TO.P,U1,49_2*%
X70770000Y-73275000D03*
%TO.P,U1,49_3*%
X72745000Y-73275000D03*
%TO.P,U1,49_4*%
X72745000Y-75250000D03*
%TO.P,U1,49_5*%
X72745000Y-77225000D03*
%TO.P,U1,49_6*%
X70770000Y-77225000D03*
%TO.P,U1,49_7*%
X68795000Y-77225000D03*
%TO.P,U1,49_8*%
X68795000Y-75250000D03*
%TO.P,U1,49_9*%
X70770000Y-75250000D03*
D25*
%TO.P,U1,50,GND*%
%TO.N,GND*%
X76720000Y-70300000D03*
%TO.P,U1,51,GND*%
X76720000Y-80200000D03*
%TO.P,U1,52,GND*%
X64820000Y-80200000D03*
%TO.P,U1,53,GND*%
X64820000Y-70300000D03*
%TD*%
D26*
%TO.P,R15,1*%
%TO.N,Net-(Q3-B)*%
X80905000Y-95530000D03*
%TO.P,R15,2*%
%TO.N,GND*%
X82730000Y-95530000D03*
%TD*%
D27*
%TO.P,J4,A1,GND*%
%TO.N,GND*%
X91560000Y-55640000D03*
%TO.P,J4,A4,VBUS*%
%TO.N,+5V*%
X90760000Y-55640000D03*
D28*
%TO.P,J4,A5,CC1*%
%TO.N,Net-(J4-CC1)*%
X89610000Y-55640000D03*
%TO.P,J4,A6,D+*%
%TO.N,USB_D+*%
X88610000Y-55640000D03*
%TO.P,J4,A7,D-*%
%TO.N,USB_D-*%
X88110000Y-55640000D03*
%TO.P,J4,A8*%
%TO.N,N/C*%
X87110000Y-55640000D03*
D27*
%TO.P,J4,A9,VBUS*%
%TO.N,+5V*%
X85960000Y-55640000D03*
%TO.P,J4,A12,GND*%
%TO.N,GND*%
X85160000Y-55640000D03*
%TO.P,J4,B1,GND*%
X85160000Y-55640000D03*
%TO.P,J4,B4,VBUS*%
%TO.N,+5V*%
X85960000Y-55640000D03*
D28*
%TO.P,J4,B5,CC2*%
%TO.N,Net-(J4-CC2)*%
X86610000Y-55640000D03*
%TO.P,J4,B6,D+*%
%TO.N,USB_D+*%
X87610000Y-55640000D03*
%TO.P,J4,B7,D-*%
%TO.N,USB_D-*%
X89110000Y-55640000D03*
%TO.P,J4,B8*%
%TO.N,N/C*%
X90110000Y-55640000D03*
D27*
%TO.P,J4,B9,VBUS*%
%TO.N,+5V*%
X90760000Y-55640000D03*
%TO.P,J4,B12,GND*%
%TO.N,GND*%
X91560000Y-55640000D03*
D29*
%TO.P,J4,S1,SHIELD*%
X92680000Y-55040000D03*
D30*
X92680000Y-50840000D03*
D29*
X84040000Y-55040000D03*
D30*
X84040000Y-50840000D03*
%TD*%
D26*
%TO.P,R10,1*%
%TO.N,Net-(Q2-C)*%
X80967500Y-97940000D03*
%TO.P,R10,2*%
%TO.N,Net-(D4-K)*%
X82792500Y-97940000D03*
%TD*%
D31*
%TO.P,Q1,1,C*%
%TO.N,PWRKEY*%
X77990000Y-88740000D03*
%TO.P,Q1,2,B*%
%TO.N,Net-(Q1-B)*%
X77990000Y-86840000D03*
%TO.P,Q1,3,E*%
%TO.N,GND*%
X76115000Y-87790000D03*
%TD*%
D32*
%TO.P,J6,1,Pin_1*%
%TO.N,+5V*%
X53250000Y-50200000D03*
D33*
%TO.P,J6,2,Pin_2*%
%TO.N,GND*%
X55750000Y-50200000D03*
%TD*%
D34*
%TO.P,SW2,1,1*%
%TO.N,GND*%
X86300000Y-86107500D03*
%TO.P,SW2,2,2*%
%TO.N,GPIO9*%
X86300000Y-81907500D03*
%TD*%
D19*
%TO.P,C12,1*%
%TO.N,GND*%
X56060000Y-111800000D03*
%TO.P,C12,2*%
%TO.N,SIM_VDD*%
X56060000Y-113700000D03*
%TD*%
D26*
%TO.P,R14,1*%
%TO.N,Net-(Q2-B)*%
X81117500Y-103820000D03*
%TO.P,R14,2*%
%TO.N,GND*%
X82942500Y-103820000D03*
%TD*%
D14*
%TO.P,R19,1*%
%TO.N,Net-(J4-CC1)*%
X89710000Y-58397500D03*
%TO.P,R19,2*%
%TO.N,GND*%
X89710000Y-60222500D03*
%TD*%
D26*
%TO.P,R9,1*%
%TO.N,Net-(Q1-B)*%
X78215000Y-82820000D03*
%TO.P,R9,2*%
%TO.N,GND*%
X80040000Y-82820000D03*
%TD*%
D35*
%TO.P,J8,1,Pin_1*%
%TO.N,GND*%
X92640000Y-65680000D03*
D36*
%TO.P,J8,2,Pin_2*%
X95180000Y-65680000D03*
%TO.P,J8,3,Pin_3*%
%TO.N,unconnected-(J8-Pin_3-Pad3)*%
X92640000Y-68220000D03*
%TO.P,J8,4,Pin_4*%
%TO.N,unconnected-(J8-Pin_4-Pad4)*%
X95180000Y-68220000D03*
%TO.P,J8,5,Pin_5*%
%TO.N,SIM7080G_D+*%
X92640000Y-70760000D03*
%TO.P,J8,6,Pin_6*%
%TO.N,SIM7080G_D-*%
X95180000Y-70760000D03*
%TO.P,J8,7,Pin_7*%
%TO.N,ETH_RST*%
X92640000Y-73300000D03*
%TO.P,J8,8,Pin_8*%
%TO.N,WMBUS_CS*%
X95180000Y-73300000D03*
%TO.P,J8,9,Pin_9*%
%TO.N,ETH_INT*%
X92640000Y-75840000D03*
%TO.P,J8,10,Pin_10*%
%TO.N,unconnected-(J8-Pin_10-Pad10)*%
X95180000Y-75840000D03*
%TO.P,J8,11,Pin_11*%
%TO.N,unconnected-(J8-Pin_11-Pad11)*%
X92640000Y-78380000D03*
%TO.P,J8,12,Pin_12*%
%TO.N,unconnected-(J8-Pin_12-Pad12)*%
X95180000Y-78380000D03*
%TO.P,J8,13,Pin_13*%
%TO.N,unconnected-(J8-Pin_13-Pad13)*%
X92640000Y-80920000D03*
%TO.P,J8,14,Pin_14*%
%TO.N,unconnected-(J8-Pin_14-Pad14)*%
X95180000Y-80920000D03*
%TO.P,J8,15,Pin_15*%
%TO.N,SIM7080G_PWR*%
X92640000Y-83460000D03*
%TO.P,J8,16,Pin_16*%
%TO.N,unconnected-(J8-Pin_16-Pad16)*%
X95180000Y-83460000D03*
%TO.P,J8,17,Pin_17*%
%TO.N,SIM7080G_DTR*%
X92640000Y-86000000D03*
%TO.P,J8,18,Pin_18*%
%TO.N,SIM7080G_RING*%
X95180000Y-86000000D03*
%TO.P,J8,19,Pin_19*%
%TO.N,SIM7080G_RTS*%
X92640000Y-88540000D03*
%TO.P,J8,20,Pin_20*%
%TO.N,SIM7080G_CTS*%
X95180000Y-88540000D03*
%TO.P,J8,21,Pin_21*%
%TO.N,unconnected-(J8-Pin_21-Pad21)*%
X92640000Y-91080000D03*
%TO.P,J8,22,Pin_22*%
%TO.N,unconnected-(J8-Pin_22-Pad22)*%
X95180000Y-91080000D03*
%TO.P,J8,23,Pin_23*%
%TO.N,unconnected-(J8-Pin_23-Pad23)*%
X92640000Y-93620000D03*
%TO.P,J8,24,Pin_24*%
%TO.N,unconnected-(J8-Pin_24-Pad24)*%
X95180000Y-93620000D03*
%TO.P,J8,25,Pin_25*%
%TO.N,MBUS_RX*%
X92640000Y-96160000D03*
%TO.P,J8,26,Pin_26*%
%TO.N,MBUS_TX*%
X95180000Y-96160000D03*
%TO.P,J8,27,Pin_27*%
%TO.N,unconnected-(J8-Pin_27-Pad27)*%
X92640000Y-98700000D03*
%TO.P,J8,28,Pin_28*%
%TO.N,unconnected-(J8-Pin_28-Pad28)*%
X95180000Y-98700000D03*
%TO.P,J8,29,Pin_29*%
%TO.N,unconnected-(J8-Pin_29-Pad29)*%
X92640000Y-101240000D03*
%TO.P,J8,30,Pin_30*%
%TO.N,unconnected-(J8-Pin_30-Pad30)*%
X95180000Y-101240000D03*
%TO.P,J8,31,Pin_31*%
%TO.N,unconnected-(J8-Pin_31-Pad31)*%
X92640000Y-103780000D03*
%TO.P,J8,32,Pin_32*%
%TO.N,unconnected-(J8-Pin_32-Pad32)*%
X95180000Y-103780000D03*
%TO.P,J8,33,Pin_33*%
%TO.N,unconnected-(J8-Pin_33-Pad33)*%
X92640000Y-106320000D03*
%TO.P,J8,34,Pin_34*%
%TO.N,unconnected-(J8-Pin_34-Pad34)*%
X95180000Y-106320000D03*
%TO.P,J8,35,Pin_35*%
%TO.N,unconnected-(J8-Pin_35-Pad35)*%
X92640000Y-108860000D03*
%TO.P,J8,36,Pin_36*%
%TO.N,unconnected-(J8-Pin_36-Pad36)*%
X95180000Y-108860000D03*
%TO.P,J8,37,Pin_37*%
%TO.N,unconnected-(J8-Pin_37-Pad37)*%
X92640000Y-111400000D03*
%TO.P,J8,38,Pin_38*%
%TO.N,unconnected-(J8-Pin_38-Pad38)*%
X95180000Y-111400000D03*
%TO.P,J8,39,Pin_39*%
%TO.N,unconnected-(J8-Pin_39-Pad39)*%
X92640000Y-113940000D03*
%TO.P,J8,40,Pin_40*%
%TO.N,unconnected-(J8-Pin_40-Pad40)*%
X95180000Y-113940000D03*
%TO.P,J8,41,Pin_41*%
%TO.N,unconnected-(J8-Pin_41-Pad41)*%
X92640000Y-116480000D03*
%TO.P,J8,42,Pin_42*%
%TO.N,unconnected-(J8-Pin_42-Pad42)*%
X95180000Y-116480000D03*
%TO.P,J8,43,Pin_43*%
%TO.N,ETH_CS*%
X92640000Y-119020000D03*
%TO.P,J8,44,Pin_44*%
%TO.N,MTDO*%
X95180000Y-119020000D03*
%TO.P,J8,45,Pin_45*%
%TO.N,MTMS*%
X92640000Y-121560000D03*
%TO.P,J8,46,Pin_46*%
%TO.N,MTDI*%
X95180000Y-121560000D03*
%TD*%
D37*
%TO.P,FB1,1*%
%TO.N,Net-(U6-VO)*%
X79797500Y-78010000D03*
%TO.P,FB1,2*%
%TO.N,+3V3*%
X83122500Y-78010000D03*
%TD*%
D19*
%TO.P,C11,1*%
%TO.N,GND*%
X57370000Y-102960000D03*
%TO.P,C11,2*%
%TO.N,+5V*%
X57370000Y-104860000D03*
%TD*%
D38*
%TO.P,C10,1*%
%TO.N,GND*%
X74520000Y-90370000D03*
%TO.P,C10,2*%
%TO.N,+1V8*%
X72620000Y-90370000D03*
%TD*%
D39*
%TO.P,R1,1*%
%TO.N,+3V3*%
X74120000Y-83952500D03*
%TO.P,R1,2*%
%TO.N,GPIO8*%
X74120000Y-82127500D03*
%TD*%
D26*
%TO.P,R16,1*%
%TO.N,WMBUS_SDN*%
X68675000Y-105500000D03*
%TO.P,R16,2*%
%TO.N,Net-(U5-SDN)*%
X70500000Y-105500000D03*
%TD*%
D40*
%TO.P,J3,1,In*%
%TO.N,RF_ANT*%
X64580000Y-103220000D03*
D41*
%TO.P,J3,2,Ext*%
%TO.N,GND*%
X66055000Y-104745000D03*
X63105000Y-104745000D03*
%TD*%
D19*
%TO.P,C19,1*%
%TO.N,Net-(U6-VI)*%
X84450000Y-64320000D03*
%TO.P,C19,2*%
%TO.N,GND*%
X84450000Y-66220000D03*
%TD*%
D14*
%TO.P,R22,1*%
%TO.N,+3V3*%
X72800000Y-103417500D03*
%TO.P,R22,2*%
%TO.N,Net-(D12-A)*%
X72800000Y-105242500D03*
%TD*%
%TO.P,R7,1*%
%TO.N,SIM_CLK*%
X60315000Y-107855000D03*
%TO.P,R7,2*%
%TO.N,Net-(U3-CLK)*%
X60315000Y-109680000D03*
%TD*%
D42*
%TO.P,C2,1*%
%TO.N,+3V3*%
X62645000Y-72475000D03*
%TO.P,C2,2*%
%TO.N,GND*%
X62645000Y-70575000D03*
%TD*%
D43*
%TO.P,U2,1,UART1_TXD*%
%TO.N,SIM_TX*%
X67410000Y-84870000D03*
%TO.P,U2,2,UART1_RXD*%
%TO.N,SIM_RX*%
X66310000Y-84870000D03*
%TO.P,U2,3,UART1_RTS*%
%TO.N,SIM_RTS*%
X65210000Y-84870000D03*
%TO.P,U2,4,UART1_CTS*%
%TO.N,SIM_CTS*%
X64110000Y-84870000D03*
%TO.P,U2,5,UART1_DCD*%
%TO.N,unconnected-(U2-UART1_DCD-Pad5)*%
X63010000Y-84870000D03*
%TO.P,U2,6,UART1_DTR*%
%TO.N,SIM_DTR*%
X61910000Y-84870000D03*
%TO.P,U2,7,UART1_RI*%
%TO.N,SIM_RI*%
X60810000Y-84870000D03*
%TO.P,U2,8,GND*%
%TO.N,GND*%
X59710000Y-84870000D03*
%TO.P,U2,9,PCM_DIN*%
%TO.N,unconnected-(U2-PCM_DIN-Pad9)*%
X58610000Y-84870000D03*
%TO.P,U2,10,PCM_DOUT*%
%TO.N,unconnected-(U2-PCM_DOUT-Pad10)*%
X57510000Y-84870000D03*
%TO.P,U2,11,PCM_CLK*%
%TO.N,unconnected-(U2-PCM_CLK-Pad11)*%
X56410000Y-84870000D03*
%TO.P,U2,12,PCM_SYNC*%
%TO.N,unconnected-(U2-PCM_SYNC-Pad12)*%
X55310000Y-84870000D03*
D44*
%TO.P,U2,13,GND__1*%
%TO.N,GND*%
X52560000Y-88320000D03*
%TO.P,U2,14,GPIO5*%
%TO.N,unconnected-(U2-GPIO5-Pad14)*%
X52560000Y-89420000D03*
%TO.P,U2,15,SIM_DATA*%
%TO.N,SIM_DATA*%
X52560000Y-90520000D03*
%TO.P,U2,16,SIM_CLK*%
%TO.N,SIM_CLK*%
X52560000Y-91620000D03*
%TO.P,U2,17,SIM_RST*%
%TO.N,SIM_RST*%
X52560000Y-92720000D03*
%TO.P,U2,18,SIM_VDD*%
%TO.N,SIM_VDD*%
X52560000Y-93820000D03*
%TO.P,U2,19,GND__2*%
%TO.N,GND*%
X52560000Y-94920000D03*
%TO.P,U2,20,USB_BOOT*%
%TO.N,Net-(JP1-B)*%
X52560000Y-96020000D03*
%TO.P,U2,21,GND__3*%
%TO.N,GND*%
X52560000Y-97120000D03*
D43*
%TO.P,U2,22,UART2_TXD*%
%TO.N,unconnected-(U2-UART2_TXD-Pad22)*%
X55310000Y-100570000D03*
%TO.P,U2,23,UART2_RXD*%
%TO.N,unconnected-(U2-UART2_RXD-Pad23)*%
X56410000Y-100570000D03*
%TO.P,U2,24,USB_VBUS*%
%TO.N,+5V*%
X57510000Y-100570000D03*
%TO.P,U2,25,USB_DP*%
%TO.N,unconnected-(U2-USB_DP-Pad25)*%
X58610000Y-100570000D03*
%TO.P,U2,26,USB_DM*%
%TO.N,unconnected-(U2-USB_DM-Pad26)*%
X59710000Y-100570000D03*
%TO.P,U2,27,GND__4*%
%TO.N,GND*%
X60810000Y-100570000D03*
%TO.P,U2,28*%
%TO.N,N/C*%
X61910000Y-100570000D03*
%TO.P,U2,29*%
X63010000Y-100570000D03*
%TO.P,U2,30,GND__5*%
%TO.N,GND*%
X64110000Y-100570000D03*
%TO.P,U2,31,GND__6*%
X65210000Y-100570000D03*
%TO.P,U2,32,RF_ANT*%
%TO.N,RF_ANT*%
X66310000Y-100570000D03*
%TO.P,U2,33,GND__7*%
%TO.N,GND*%
X67410000Y-100570000D03*
D44*
%TO.P,U2,34,VBAT*%
%TO.N,+3V3*%
X70160000Y-97120000D03*
%TO.P,U2,35,VBAT__1*%
X70160000Y-96020000D03*
%TO.P,U2,36,GND__8*%
%TO.N,GND*%
X70160000Y-94920000D03*
%TO.P,U2,37,GND__9*%
X70160000Y-93820000D03*
%TO.P,U2,38,ADC*%
%TO.N,unconnected-(U2-ADC-Pad38)*%
X70160000Y-92720000D03*
%TO.P,U2,39,PWRKEY*%
%TO.N,PWRKEY*%
X70160000Y-91620000D03*
%TO.P,U2,40,VDD_EXT*%
%TO.N,+1V8*%
X70160000Y-90520000D03*
%TO.P,U2,41,NETLIGHT*%
%TO.N,NETLIGHT*%
X70160000Y-89420000D03*
%TO.P,U2,42,STATUS*%
%TO.N,STATUS*%
X70160000Y-88320000D03*
D45*
%TO.P,U2,43,ANT_CONTROL1*%
%TO.N,unconnected-(U2-ANT_CONTROL1-Pad43)*%
X66260000Y-87370000D03*
%TO.P,U2,44,ANT_CONTROL0*%
%TO.N,unconnected-(U2-ANT_CONTROL0-Pad44)*%
X64860000Y-87370000D03*
%TO.P,U2,45,GND__10*%
%TO.N,GND*%
X63460000Y-87370000D03*
%TO.P,U2,46*%
%TO.N,N/C*%
X62060000Y-87370000D03*
%TO.P,U2,47*%
X60660000Y-87370000D03*
%TO.P,U2,48,SPI_CS*%
%TO.N,unconnected-(U2-SPI_CS-Pad48)*%
X59260000Y-87370000D03*
%TO.P,U2,49,SPI_MOSI*%
%TO.N,unconnected-(U2-SPI_MOSI-Pad49)*%
X57860000Y-87370000D03*
%TO.P,U2,50,SPI_CLK*%
%TO.N,unconnected-(U2-SPI_CLK-Pad50)*%
X56460000Y-87370000D03*
D46*
%TO.P,U2,51,SPI_MISO*%
%TO.N,unconnected-(U2-SPI_MISO-Pad51)*%
X55060000Y-88520000D03*
%TO.P,U2,52*%
%TO.N,N/C*%
X55060000Y-89920000D03*
%TO.P,U2,53*%
X55060000Y-91320000D03*
%TO.P,U2,54*%
X55060000Y-92720000D03*
%TO.P,U2,55*%
X55060000Y-94120000D03*
%TO.P,U2,56*%
X55060000Y-95520000D03*
%TO.P,U2,57,GPIO1*%
%TO.N,unconnected-(U2-GPIO1-Pad57)*%
X55060000Y-96920000D03*
D45*
%TO.P,U2,58,GPIO2*%
%TO.N,unconnected-(U2-GPIO2-Pad58)*%
X56460000Y-98070000D03*
%TO.P,U2,59,GPIO3*%
%TO.N,unconnected-(U2-GPIO3-Pad59)*%
X57860000Y-98070000D03*
%TO.P,U2,60,GPIO4*%
%TO.N,unconnected-(U2-GPIO4-Pad60)*%
X59260000Y-98070000D03*
%TO.P,U2,61,UART3_TXD*%
%TO.N,unconnected-(U2-UART3_TXD-Pad61)*%
X60660000Y-98070000D03*
%TO.P,U2,62,UART3_RXD*%
%TO.N,unconnected-(U2-UART3_RXD-Pad62)*%
X62060000Y-98070000D03*
D46*
%TO.P,U2,63,GND__11*%
%TO.N,GND*%
X67660000Y-95520000D03*
%TO.P,U2,64,I2C_SDA*%
%TO.N,unconnected-(U2-I2C_SDA-Pad64)*%
X67660000Y-94120000D03*
%TO.P,U2,65,I2C_SCL*%
%TO.N,unconnected-(U2-I2C_SCL-Pad65)*%
X67660000Y-92720000D03*
%TO.P,U2,66,GND__12*%
%TO.N,GND*%
X67660000Y-91320000D03*
%TO.P,U2,67,GND__13*%
X67660000Y-89920000D03*
%TO.P,U2,68,GNSS_ANT*%
%TO.N,GNSS_ANT*%
X67660000Y-88520000D03*
D47*
%TO.P,U2,69,GND__14*%
%TO.N,GND*%
X64760000Y-89820000D03*
D48*
%TO.P,U2,70,GND__15*%
X61360000Y-89820000D03*
%TO.P,U2,71,GND__16*%
X57960000Y-89820000D03*
%TO.P,U2,72,GND__17*%
X57960000Y-92720000D03*
%TO.P,U2,73,GND__18*%
X57960000Y-95620000D03*
%TO.P,U2,74,GND__19*%
X61360000Y-95620000D03*
%TO.P,U2,75,GND__20*%
X64760000Y-95620000D03*
%TO.P,U2,76,GND__21*%
X64760000Y-92720000D03*
%TO.P,U2,77,GND__22*%
X61360000Y-92720000D03*
%TD*%
D42*
%TO.P,C5,1*%
%TO.N,+3V3*%
X72747500Y-97300000D03*
%TO.P,C5,2*%
%TO.N,GND*%
X72747500Y-95400000D03*
%TD*%
D19*
%TO.P,C8,1*%
%TO.N,+3V3*%
X74420000Y-99240000D03*
%TO.P,C8,2*%
%TO.N,GND*%
X74420000Y-101140000D03*
%TD*%
D49*
%TO.P,D2,1,A1*%
%TO.N,GND*%
X76450000Y-90230000D03*
%TO.P,D2,2,A2*%
%TO.N,PWRKEY*%
X77290000Y-90230000D03*
%TD*%
D26*
%TO.P,R11,1*%
%TO.N,Net-(Q3-C)*%
X80965000Y-89530000D03*
%TO.P,R11,2*%
%TO.N,Net-(D5-K)*%
X82790000Y-89530000D03*
%TD*%
D19*
%TO.P,C14,1*%
%TO.N,GND*%
X61720000Y-111800000D03*
%TO.P,C14,2*%
%TO.N,Net-(U3-CLK)*%
X61720000Y-113700000D03*
%TD*%
D14*
%TO.P,R5,1*%
%TO.N,SIM_RST*%
X57440000Y-107855000D03*
%TO.P,R5,2*%
%TO.N,Net-(U3-RST)*%
X57440000Y-109680000D03*
%TD*%
D10*
%TO.P,H3,1,1*%
%TO.N,GND*%
X48760000Y-126700000D03*
%TD*%
D14*
%TO.P,R13,1*%
%TO.N,STATUS*%
X78777500Y-91427500D03*
%TO.P,R13,2*%
%TO.N,Net-(Q3-B)*%
X78777500Y-93252500D03*
%TD*%
D26*
%TO.P,R4,1*%
%TO.N,+3V3*%
X50195000Y-110140000D03*
%TO.P,R4,2*%
%TO.N,Net-(D1-A2)*%
X52020000Y-110140000D03*
%TD*%
D50*
%TO.P,U5,1,SDO*%
%TO.N,MISO*%
X85675000Y-119170000D03*
%TO.P,U5,2,SDI*%
%TO.N,MOSI*%
X85675000Y-117900000D03*
%TO.P,U5,3,SCLK*%
%TO.N,SCK*%
X85675000Y-116630000D03*
%TO.P,U5,4,CSN*%
%TO.N,WMBUS_CS*%
X85675000Y-115360000D03*
%TO.P,U5,5,GPIO-0*%
%TO.N,unconnected-(U5-GPIO-0-Pad5)*%
X85675000Y-114090000D03*
%TO.P,U5,6,GPIO-1*%
%TO.N,unconnected-(U5-GPIO-1-Pad6)*%
X85675000Y-112820000D03*
%TO.P,U5,7,GPIO-2*%
%TO.N,unconnected-(U5-GPIO-2-Pad7)*%
X85675000Y-111550000D03*
%TO.P,U5,8,GPIO-3*%
%TO.N,unconnected-(U5-GPIO-3-Pad8)*%
X85675000Y-110280000D03*
%TO.P,U5,9,GND*%
%TO.N,GND*%
X85675000Y-109010000D03*
%TO.P,U5,10,SDN*%
%TO.N,Net-(U5-SDN)*%
X70425000Y-109010000D03*
%TO.P,U5,11,GND*%
%TO.N,GND*%
X70425000Y-110280000D03*
%TO.P,U5,12,GND*%
X70425000Y-111550000D03*
%TO.P,U5,13,VCC*%
%TO.N,+3V3*%
X70425000Y-112820000D03*
%TO.P,U5,14,VCC*%
X70425000Y-114090000D03*
%TO.P,U5,15,GND*%
%TO.N,GND*%
X70425000Y-115360000D03*
%TO.P,U5,16,GND*%
X70425000Y-116630000D03*
%TO.P,U5,17,GND*%
X70425000Y-117900000D03*
%TO.P,U5,18,GND*%
X70425000Y-119170000D03*
D51*
%TO.P,U5,19,GND*%
X76780000Y-129810000D03*
%TO.P,U5,20,ANT*%
%TO.N,unconnected-(U5-ANT-Pad20)*%
X78050000Y-129810000D03*
%TO.P,U5,21,GND*%
%TO.N,GND*%
X79320000Y-129810000D03*
%TD*%
D19*
%TO.P,C20,1*%
%TO.N,Net-(U6-VI)*%
X86740000Y-64320000D03*
%TO.P,C20,2*%
%TO.N,GND*%
X86740000Y-66220000D03*
%TD*%
%TO.P,C4,1*%
%TO.N,GPIO9*%
X82930000Y-84827500D03*
%TO.P,C4,2*%
%TO.N,GND*%
X82930000Y-86727500D03*
%TD*%
D42*
%TO.P,C21,1*%
%TO.N,Net-(U6-VO)*%
X81990000Y-75650000D03*
%TO.P,C21,2*%
%TO.N,GND*%
X81990000Y-73750000D03*
%TD*%
D35*
%TO.P,J7,1,Pin_1*%
%TO.N,GND*%
X44440000Y-65620000D03*
D36*
%TO.P,J7,2,Pin_2*%
X46980000Y-65620000D03*
%TO.P,J7,3,Pin_3*%
%TO.N,+3V3*%
X44440000Y-68160000D03*
%TO.P,J7,4,Pin_4*%
X46980000Y-68160000D03*
%TO.P,J7,5,Pin_5*%
%TO.N,unconnected-(J7-Pin_5-Pad5)*%
X44440000Y-70700000D03*
%TO.P,J7,6,Pin_6*%
%TO.N,unconnected-(J7-Pin_6-Pad6)*%
X46980000Y-70700000D03*
%TO.P,J7,7,Pin_7*%
%TO.N,+5V*%
X44440000Y-73240000D03*
%TO.P,J7,8,Pin_8*%
X46980000Y-73240000D03*
%TO.P,J7,9,Pin_9*%
%TO.N,unconnected-(J7-Pin_9-Pad9)*%
X44440000Y-75780000D03*
%TO.P,J7,10,Pin_10*%
%TO.N,unconnected-(J7-Pin_10-Pad10)*%
X46980000Y-75780000D03*
%TO.P,J7,11,Pin_11*%
%TO.N,SIM7080G_TX*%
X44440000Y-78320000D03*
%TO.P,J7,12,Pin_12*%
%TO.N,unconnected-(J7-Pin_12-Pad12)*%
X46980000Y-78320000D03*
%TO.P,J7,13,Pin_13*%
%TO.N,SIM7080G_RX*%
X44440000Y-80860000D03*
%TO.P,J7,14,Pin_14*%
%TO.N,unconnected-(J7-Pin_14-Pad14)*%
X46980000Y-80860000D03*
%TO.P,J7,15,Pin_15*%
%TO.N,unconnected-(J7-Pin_15-Pad15)*%
X44440000Y-83400000D03*
%TO.P,J7,16,Pin_16*%
%TO.N,unconnected-(J7-Pin_16-Pad16)*%
X46980000Y-83400000D03*
%TO.P,J7,17,Pin_17*%
%TO.N,unconnected-(J7-Pin_17-Pad17)*%
X44440000Y-85940000D03*
%TO.P,J7,18,Pin_18*%
%TO.N,unconnected-(J7-Pin_18-Pad18)*%
X46980000Y-85940000D03*
%TO.P,J7,19,Pin_19*%
%TO.N,unconnected-(J7-Pin_19-Pad19)*%
X44440000Y-88480000D03*
%TO.P,J7,20,Pin_20*%
%TO.N,unconnected-(J7-Pin_20-Pad20)*%
X46980000Y-88480000D03*
%TO.P,J7,21,Pin_21*%
%TO.N,USB_D-*%
X44440000Y-91020000D03*
%TO.P,J7,22,Pin_22*%
%TO.N,USB_D+*%
X46980000Y-91020000D03*
%TO.P,J7,23,Pin_23*%
%TO.N,unconnected-(J7-Pin_23-Pad23)*%
X44440000Y-93560000D03*
%TO.P,J7,24,Pin_24*%
%TO.N,unconnected-(J7-Pin_24-Pad24)*%
X46980000Y-93560000D03*
%TO.P,J7,25,Pin_25*%
%TO.N,unconnected-(J7-Pin_25-Pad25)*%
X44440000Y-96100000D03*
%TO.P,J7,26,Pin_26*%
%TO.N,unconnected-(J7-Pin_26-Pad26)*%
X46980000Y-96100000D03*
%TO.P,J7,27,Pin_27*%
%TO.N,unconnected-(J7-Pin_27-Pad27)*%
X44440000Y-98640000D03*
%TO.P,J7,28,Pin_28*%
%TO.N,unconnected-(J7-Pin_28-Pad28)*%
X46980000Y-98640000D03*
%TO.P,J7,29,Pin_29*%
%TO.N,MOSI*%
X44440000Y-101180000D03*
%TO.P,J7,30,Pin_30*%
%TO.N,MISO*%
X46980000Y-101180000D03*
%TO.P,J7,31,Pin_31*%
%TO.N,SCK*%
X44440000Y-103720000D03*
%TO.P,J7,32,Pin_32*%
%TO.N,unconnected-(J7-Pin_32-Pad32)*%
X46980000Y-103720000D03*
%TO.P,J7,33,Pin_33*%
%TO.N,unconnected-(J7-Pin_33-Pad33)*%
X44440000Y-106260000D03*
%TO.P,J7,34,Pin_34*%
%TO.N,GND*%
X46980000Y-106260000D03*
%TO.P,J7,35,Pin_35*%
%TO.N,unconnected-(J7-Pin_35-Pad35)*%
X44440000Y-108800000D03*
%TO.P,J7,36,Pin_36*%
%TO.N,unconnected-(J7-Pin_36-Pad36)*%
X46980000Y-108800000D03*
%TO.P,J7,37,Pin_37*%
%TO.N,unconnected-(J7-Pin_37-Pad37)*%
X44440000Y-111340000D03*
%TO.P,J7,38,Pin_38*%
%TO.N,unconnected-(J7-Pin_38-Pad38)*%
X46980000Y-111340000D03*
%TO.P,J7,39,Pin_39*%
%TO.N,unconnected-(J7-Pin_39-Pad39)*%
X44440000Y-113880000D03*
%TO.P,J7,40,Pin_40*%
%TO.N,unconnected-(J7-Pin_40-Pad40)*%
X46980000Y-113880000D03*
%TO.P,J7,41,Pin_41*%
%TO.N,unconnected-(J7-Pin_41-Pad41)*%
X44440000Y-116420000D03*
%TO.P,J7,42,Pin_42*%
%TO.N,unconnected-(J7-Pin_42-Pad42)*%
X46980000Y-116420000D03*
%TO.P,J7,43,Pin_43*%
%TO.N,GND*%
X44440000Y-118960000D03*
%TO.P,J7,44,Pin_44*%
X46980000Y-118960000D03*
%TO.P,J7,45,Pin_45*%
X44440000Y-121500000D03*
%TO.P,J7,46,Pin_46*%
X46980000Y-121500000D03*
%TD*%
D42*
%TO.P,C3,1*%
%TO.N,MCU_RST*%
X50840000Y-62230000D03*
%TO.P,C3,2*%
%TO.N,GND*%
X50840000Y-60330000D03*
%TD*%
D52*
%TO.P,F1,1*%
%TO.N,+5V*%
X89300000Y-63032500D03*
%TO.P,F1,2*%
%TO.N,Net-(U6-VI)*%
X89300000Y-66007500D03*
%TD*%
D53*
%TO.P,J1,1,VTref*%
%TO.N,+3V3*%
X60000000Y-64310000D03*
D54*
%TO.P,J1,2,SWDIO/TMS*%
%TO.N,MTMS*%
X58730000Y-64310000D03*
%TO.P,J1,3,GND*%
%TO.N,GND*%
X60000000Y-63040000D03*
%TO.P,J1,4,SWCLK/TCK*%
%TO.N,ETH_CS*%
X58730000Y-63040000D03*
%TO.P,J1,5,GND*%
%TO.N,GND*%
X60000000Y-61770000D03*
%TO.P,J1,6,SWO/TDO*%
%TO.N,MTDO*%
X58730000Y-61770000D03*
%TO.P,J1,7,KEY*%
%TO.N,unconnected-(J1-KEY-Pad7)*%
X60000000Y-60500000D03*
%TO.P,J1,8,NC/TDI*%
%TO.N,MTDI*%
X58730000Y-60500000D03*
%TO.P,J1,9,GNDDetect*%
%TO.N,GND*%
X60000000Y-59230000D03*
%TO.P,J1,10,~{RESET}*%
%TO.N,MCU_RST*%
X58730000Y-59230000D03*
%TD*%
D26*
%TO.P,R6,1*%
%TO.N,SIM7080G_PWR*%
X76245000Y-84920000D03*
%TO.P,R6,2*%
%TO.N,Net-(Q1-B)*%
X78070000Y-84920000D03*
%TD*%
D13*
%TO.P,D5,1,K*%
%TO.N,Net-(D5-K)*%
X85287500Y-89482500D03*
%TO.P,D5,2,A*%
%TO.N,+3V3*%
X85287500Y-91357500D03*
%TD*%
D19*
%TO.P,C15,1*%
%TO.N,GND*%
X64550000Y-111800000D03*
%TO.P,C15,2*%
%TO.N,Net-(U3-I{slash}O)*%
X64550000Y-113700000D03*
%TD*%
D11*
%TO.P,D9,1,A1*%
%TO.N,GND*%
X86810000Y-60515000D03*
%TO.P,D9,2,A2*%
%TO.N,USB_D+*%
X86810000Y-59675000D03*
%TD*%
D42*
%TO.P,C1,1*%
%TO.N,+3V3*%
X60415000Y-72475000D03*
%TO.P,C1,2*%
%TO.N,GND*%
X60415000Y-70575000D03*
%TD*%
D55*
%TO.P,D3,1,K*%
%TO.N,SIM_VDD*%
X51712500Y-103680000D03*
%TO.P,D3,2,A*%
%TO.N,GND*%
X51712500Y-104630000D03*
%TO.P,D3,3,K*%
%TO.N,SIM_RST*%
X51712500Y-105580000D03*
%TO.P,D3,4,K*%
%TO.N,SIM_CLK*%
X53987500Y-105580000D03*
%TO.P,D3,5,K*%
%TO.N,SIM_DATA*%
X53987500Y-103680000D03*
%TD*%
D15*
%TO.P,D1,1,A1*%
%TO.N,GND*%
X53635000Y-109782500D03*
%TO.P,D1,2,A2*%
%TO.N,Net-(D1-A2)*%
X53635000Y-110622500D03*
%TD*%
D56*
%TO.P,C17,1*%
%TO.N,GND*%
X52110000Y-74450000D03*
%TO.P,C17,2*%
%TO.N,+3V3*%
X54010000Y-74450000D03*
%TD*%
D57*
%TO.P,U3,1,VCC*%
%TO.N,SIM_VDD*%
X56390000Y-116250000D03*
%TO.P,U3,2,RST*%
%TO.N,Net-(U3-RST)*%
X58930000Y-116250000D03*
%TO.P,U3,3,CLK*%
%TO.N,Net-(U3-CLK)*%
X61470000Y-116250000D03*
%TO.P,U3,5,GND*%
%TO.N,GND*%
X57660000Y-116250000D03*
%TO.P,U3,6,VPP*%
%TO.N,unconnected-(U3-VPP-Pad6)*%
X60200000Y-116250000D03*
%TO.P,U3,7,I/O*%
%TO.N,Net-(U3-I{slash}O)*%
X62740000Y-116250000D03*
D58*
%TO.P,U3,8,GND*%
%TO.N,GND*%
X53710000Y-120350000D03*
%TO.P,U3,9,GND*%
X53710000Y-129150000D03*
%TO.P,U3,10,GND*%
X65410000Y-129150000D03*
%TO.P,U3,11,GND*%
X65410000Y-120350000D03*
%TD*%
D59*
%TO.P,U4,1,A1*%
%TO.N,SIM_TX*%
X55620000Y-77640000D03*
D60*
%TO.P,U4,2,V_{CCA}*%
%TO.N,+1V8*%
X56020000Y-78540000D03*
%TO.P,U4,3,A2*%
%TO.N,SIM_RX*%
X56520000Y-78540000D03*
%TO.P,U4,4,A3*%
%TO.N,SIM_RTS*%
X57020000Y-78540000D03*
%TO.P,U4,5,A4*%
%TO.N,SIM_CTS*%
X57520000Y-78540000D03*
%TO.P,U4,6,A5*%
%TO.N,SIM_DTR*%
X58020000Y-78540000D03*
%TO.P,U4,7,A6*%
%TO.N,SIM_RI*%
X58520000Y-78540000D03*
%TO.P,U4,8,A7*%
%TO.N,unconnected-(U4-A7-Pad8)*%
X59020000Y-78540000D03*
%TO.P,U4,9,A8*%
%TO.N,unconnected-(U4-A8-Pad9)*%
X59520000Y-78540000D03*
D59*
%TO.P,U4,10,OE*%
%TO.N,unconnected-(U4-OE-Pad10)*%
X59920000Y-77640000D03*
%TO.P,U4,11,GND*%
%TO.N,GND*%
X59920000Y-76140000D03*
D60*
%TO.P,U4,12,B8*%
%TO.N,unconnected-(U4-B8-Pad12)*%
X59520000Y-75240000D03*
%TO.P,U4,13,B7*%
%TO.N,unconnected-(U4-B7-Pad13)*%
X59020000Y-75240000D03*
%TO.P,U4,14,B6*%
%TO.N,SIM7080G_RING*%
X58520000Y-75240000D03*
%TO.P,U4,15,B5*%
%TO.N,SIM7080G_DTR*%
X58020000Y-75240000D03*
%TO.P,U4,16,B4*%
%TO.N,Net-(JP3-A)*%
X57520000Y-75240000D03*
%TO.P,U4,17,B3*%
%TO.N,Net-(JP2-A)*%
X57020000Y-75240000D03*
%TO.P,U4,18,B2*%
%TO.N,SIM7080G_RX*%
X56520000Y-75240000D03*
%TO.P,U4,19,V_{CCB}*%
%TO.N,+3V3*%
X56020000Y-75240000D03*
D59*
%TO.P,U4,20,B1*%
%TO.N,SIM7080G_TX*%
X55620000Y-76140000D03*
D61*
%TO.P,U4,21,GND*%
%TO.N,GND*%
X57770000Y-76890000D03*
%TD*%
D10*
%TO.P,H2,1,1*%
%TO.N,GND*%
X93860000Y-60600000D03*
%TD*%
D14*
%TO.P,R12,1*%
%TO.N,NETLIGHT*%
X79080000Y-99877500D03*
%TO.P,R12,2*%
%TO.N,Net-(Q2-B)*%
X79080000Y-101702500D03*
%TD*%
D19*
%TO.P,C9,1*%
%TO.N,+3V3*%
X76670000Y-99280000D03*
%TO.P,C9,2*%
%TO.N,GND*%
X76670000Y-101180000D03*
%TD*%
D14*
%TO.P,R18,1*%
%TO.N,Net-(J4-CC2)*%
X85060000Y-58397500D03*
%TO.P,R18,2*%
%TO.N,GND*%
X85060000Y-60222500D03*
%TD*%
D42*
%TO.P,C22,1*%
%TO.N,Net-(U6-VO)*%
X79830000Y-75650000D03*
%TO.P,C22,2*%
%TO.N,GND*%
X79830000Y-73750000D03*
%TD*%
D14*
%TO.P,R3,1*%
%TO.N,+3V3*%
X82950000Y-81145000D03*
%TO.P,R3,2*%
%TO.N,GPIO9*%
X82950000Y-82970000D03*
%TD*%
%TO.P,R8,1*%
%TO.N,SIM_DATA*%
X63190000Y-107855000D03*
%TO.P,R8,2*%
%TO.N,Net-(U3-I{slash}O)*%
X63190000Y-109680000D03*
%TD*%
D42*
%TO.P,C7,1*%
%TO.N,+3V3*%
X77682500Y-97300000D03*
%TO.P,C7,2*%
%TO.N,GND*%
X77682500Y-95400000D03*
%TD*%
D62*
%TO.P,U6,1,GND*%
%TO.N,GND*%
X89160000Y-68830000D03*
%TO.P,U6,2,VO*%
%TO.N,Net-(U6-VO)*%
X86860000Y-68830000D03*
D63*
X86860000Y-75130000D03*
D62*
%TO.P,U6,3,VI*%
%TO.N,Net-(U6-VI)*%
X84560000Y-68830000D03*
%TD*%
D64*
%TO.N,+3V3*%
X55385900Y-75240000D03*
X76264200Y-96175800D03*
X74120000Y-84998000D03*
X82950000Y-80107800D03*
X68846200Y-96232100D03*
X72800000Y-102400700D03*
X66229600Y-72275800D03*
X53270000Y-59349700D03*
X67870000Y-112982100D03*
X81999900Y-77581600D03*
X85287500Y-92351100D03*
X49170500Y-110324200D03*
X60662900Y-73477800D03*
X68998600Y-112673800D03*
X85480000Y-100752700D03*
X72747500Y-98309500D03*
X62645000Y-73493300D03*
X77682500Y-98302700D03*
%TO.N,GND*%
X67870000Y-116936800D03*
X76670000Y-102195200D03*
X74520000Y-89122700D03*
X59920000Y-76767100D03*
X89160000Y-70379800D03*
X67570000Y-69443000D03*
X74858800Y-95699100D03*
X52550600Y-128942300D03*
X80040000Y-84024500D03*
X58877500Y-110797300D03*
X67570000Y-82129400D03*
X74796900Y-69188900D03*
X73970000Y-69442900D03*
X72633000Y-71276100D03*
X68998600Y-116918800D03*
X69170000Y-69442900D03*
X87891400Y-61202400D03*
X56463800Y-103866200D03*
X68370000Y-71281400D03*
X55900100Y-110758400D03*
X50840000Y-59327000D03*
X76115000Y-88599100D03*
X79830000Y-72735800D03*
X86811600Y-61240700D03*
X77221300Y-81097300D03*
X68998600Y-118699700D03*
X65210000Y-101877100D03*
X78578100Y-96295600D03*
X63105000Y-106370700D03*
X82912500Y-91591800D03*
X68916100Y-93124300D03*
X64552900Y-110783100D03*
X68998600Y-109966600D03*
X76720000Y-69432500D03*
X50574000Y-66517400D03*
X60415000Y-69567000D03*
X53661700Y-88867600D03*
X52555300Y-119717100D03*
X66055000Y-106365500D03*
X59231600Y-86075800D03*
X61752500Y-110788900D03*
X70770000Y-69442900D03*
X66770000Y-69060300D03*
X82942500Y-105044500D03*
X52912000Y-75455400D03*
X85917300Y-67213100D03*
X85060000Y-61262900D03*
X57660000Y-117368200D03*
X76450000Y-89584400D03*
X83270000Y-101731700D03*
X54994200Y-71267900D03*
X51256800Y-94920000D03*
X69970000Y-71253500D03*
X75599100Y-69188900D03*
X67655100Y-101895600D03*
X86300000Y-87048300D03*
X52560000Y-97961400D03*
X64253600Y-128740000D03*
X72747500Y-94375700D03*
X53521200Y-107154400D03*
X79320000Y-128183200D03*
X63702300Y-86314900D03*
X82930000Y-87742100D03*
X50985000Y-68825000D03*
X71771400Y-69446900D03*
X84450000Y-67228300D03*
X81990000Y-72733200D03*
X76780000Y-131459200D03*
X64253600Y-119793700D03*
X63952500Y-79599500D03*
X83434000Y-94431000D03*
X85160000Y-56763900D03*
X74420000Y-102158900D03*
X65970000Y-69423800D03*
X62645000Y-69549300D03*
X87089600Y-109146600D03*
X93887800Y-54566600D03*
X66570200Y-110014400D03*
X54267000Y-109822700D03*
X60810000Y-101877900D03*
%TO.N,+1V8*%
X55740800Y-82645800D03*
X69049400Y-86466200D03*
%TO.N,+5V*%
X57648900Y-99195000D03*
X86058100Y-57047900D03*
X89350800Y-61791100D03*
%TO.N,Net-(D1-A2)*%
X53249400Y-108144800D03*
%TO.N,SIM_CLK*%
X54498200Y-104555200D03*
X50161600Y-92911900D03*
%TO.N,USB_D-*%
X88236200Y-58482200D03*
X68838100Y-78541000D03*
X66898900Y-76366500D03*
X84025800Y-76436800D03*
%TO.N,USB_D+*%
X87364100Y-62679800D03*
X69522200Y-81274800D03*
X75720000Y-71270000D03*
%TO.N,MTDI*%
X65100000Y-81202800D03*
X67347700Y-107553900D03*
%TO.N,MTDO*%
X69789800Y-83414700D03*
X75686700Y-119270500D03*
%TO.N,ETH_CS*%
X58831600Y-68661700D03*
X66828200Y-77294100D03*
%TO.N,SIM7080G_TX*%
X78572500Y-70617900D03*
%TO.N,MISO*%
X76553500Y-106647000D03*
X77629300Y-80347800D03*
%TO.N,SCK*%
X84344100Y-107205500D03*
X78156800Y-78037100D03*
%TO.N,MOSI*%
X75682900Y-81179600D03*
X83675100Y-118275800D03*
%TO.N,SIM7080G_RX*%
X76117200Y-68247600D03*
X55346200Y-74123600D03*
X55962100Y-70617900D03*
%TO.N,MBUS_TX*%
X78116800Y-75666900D03*
X90899700Y-76602300D03*
%TO.N,MBUS_RX*%
X90259500Y-80344600D03*
X77990600Y-76944700D03*
%TO.N,ETH_INT*%
X66780500Y-75203700D03*
%TO.N,SIM7080G_DTR*%
X59099800Y-74001100D03*
%TO.N,ETH_RST*%
X66405300Y-73708600D03*
%TO.N,SIM7080G_PWR*%
X91279200Y-87029200D03*
X76350800Y-83250900D03*
%TO.N,WMBUS_CS*%
X87623900Y-113398700D03*
X75679500Y-77162400D03*
%TO.N,SIM7080G_RING*%
X60860900Y-78811600D03*
%TO.N,Net-(JP1-B)*%
X51236500Y-96873800D03*
%TO.N,Net-(JP2-A)*%
X56989700Y-74174900D03*
%TO.N,Net-(JP3-A)*%
X57987200Y-72553700D03*
%TO.N,NETLIGHT*%
X75686000Y-91230300D03*
X78999000Y-98582500D03*
%TO.N,WMBUS_SDN*%
X70623900Y-102754800D03*
X72665000Y-81128100D03*
%TO.N,SIM_RX*%
X64684800Y-83300800D03*
X59172700Y-83015800D03*
%TO.N,SIM_CTS*%
X60124200Y-81493100D03*
X57429300Y-79790600D03*
%TO.N,SIM_TX*%
X66283300Y-82916600D03*
X56013700Y-81844000D03*
%TO.N,SIM_RI*%
X60370000Y-83537500D03*
X60943800Y-81274300D03*
%TO.N,SIM_RTS*%
X64652800Y-85987400D03*
X58316700Y-81103300D03*
%TD*%
D65*
%TO.N,+3V3*%
X70160000Y-97120000D02*
X71261700Y-97120000D01*
X85480000Y-100752700D02*
X85480000Y-99757500D01*
X76264200Y-96175800D02*
X75215000Y-97225000D01*
X74120000Y-83952500D02*
X74120000Y-84998000D01*
X54800000Y-75240000D02*
X54010000Y-74450000D01*
X62645000Y-72475000D02*
X62645000Y-73493300D01*
X53270000Y-60377500D02*
X53270000Y-59349700D01*
X85287500Y-91357500D02*
X85287500Y-92351100D01*
X77682500Y-97300000D02*
X77682500Y-98302700D01*
X81999900Y-77581600D02*
X82694100Y-77581600D01*
X70425000Y-114090000D02*
X69223300Y-114090000D01*
X60662900Y-73477800D02*
X60415000Y-73229900D01*
X49170500Y-110324200D02*
X50010800Y-110324200D01*
X82694100Y-77581600D02*
X83122500Y-78010000D01*
X68998600Y-112673800D02*
X69077100Y-112673800D01*
X74420000Y-98020000D02*
X74420000Y-99240000D01*
X68846200Y-96232100D02*
X69058300Y-96020000D01*
X50010800Y-110324200D02*
X50195000Y-110140000D01*
X65655400Y-72850000D02*
X66229600Y-72275800D01*
X70160000Y-96020000D02*
X71261700Y-96020000D01*
X82950000Y-80107800D02*
X82950000Y-81145000D01*
X69077100Y-112673800D02*
X69223300Y-112820000D01*
X70425000Y-112820000D02*
X69223300Y-112820000D01*
X77647300Y-98302700D02*
X76670000Y-99280000D01*
X72747500Y-97300000D02*
X72747500Y-98309500D01*
X67870000Y-114010000D02*
X67870000Y-112982100D01*
X64870000Y-72850000D02*
X65655400Y-72850000D01*
X72800000Y-103417500D02*
X72800000Y-102400700D01*
X77682500Y-98302700D02*
X77647300Y-98302700D01*
X71261700Y-96020000D02*
X71261700Y-97120000D01*
X69223300Y-112820000D02*
X69223300Y-114090000D01*
X75215000Y-97225000D02*
X74420000Y-98020000D01*
X55385900Y-75240000D02*
X54800000Y-75240000D01*
X70160000Y-96020000D02*
X69058300Y-96020000D01*
X56020000Y-75240000D02*
X55385900Y-75240000D01*
X60415000Y-73229900D02*
X60415000Y-72475000D01*
%TO.N,GND*%
X52555300Y-119717100D02*
X52758300Y-119920100D01*
X75570000Y-70350000D02*
X75570000Y-69218000D01*
X69223300Y-116630000D02*
X69223300Y-116918800D01*
X52913600Y-75533600D02*
X52913600Y-75456600D01*
X87891400Y-61202400D02*
X87891400Y-60603600D01*
X68916100Y-94920000D02*
X69058300Y-94920000D01*
X94235900Y-54566600D02*
X94520000Y-54282500D01*
X59920000Y-76140000D02*
X59920000Y-76767100D01*
X87891400Y-60603600D02*
X87980000Y-60515000D01*
X63211700Y-89820000D02*
X64760000Y-89820000D01*
X67500000Y-110912500D02*
X67468300Y-110912500D01*
X67660000Y-95520000D02*
X68511700Y-95520000D01*
X65970000Y-71051700D02*
X65770000Y-71051700D01*
X64820000Y-71200000D02*
X64820000Y-70300000D01*
X74858800Y-95699100D02*
X75215000Y-95342900D01*
X79320000Y-129810000D02*
X79320000Y-128183200D01*
X52912000Y-75455000D02*
X52110000Y-74653000D01*
X79830000Y-73750000D02*
X79830000Y-72735800D01*
X68916100Y-93124300D02*
X68916100Y-91724400D01*
X89160000Y-70379800D02*
X89160000Y-68830000D01*
X50747700Y-105242600D02*
X51360300Y-104630000D01*
X65571700Y-71250000D02*
X65571700Y-72050000D01*
X86740000Y-66390400D02*
X86740000Y-66220000D01*
X59920000Y-76140000D02*
X58520000Y-76140000D01*
X50747700Y-105980700D02*
X50747700Y-105242600D01*
X65770000Y-71051700D02*
X65571700Y-71250000D01*
X86810000Y-61239100D02*
X86811600Y-61240700D01*
X77682500Y-95400000D02*
X78578100Y-96295600D01*
X61360000Y-92720000D02*
X61360000Y-95620000D01*
X65410000Y-120350000D02*
X64458300Y-120350000D01*
X74770000Y-69215800D02*
X74796900Y-69188900D01*
X69970000Y-71253500D02*
X69970000Y-70350000D01*
X64458300Y-128944700D02*
X64253600Y-128740000D01*
X70425000Y-111550000D02*
X69223300Y-111550000D01*
X74420000Y-102158900D02*
X75010000Y-102748900D01*
X51360300Y-104630000D02*
X51712500Y-104630000D01*
X58877500Y-111787500D02*
X58890000Y-111800000D01*
X64760000Y-92720000D02*
X64760000Y-95620000D01*
X61360000Y-89820000D02*
X61360000Y-92720000D01*
X68998600Y-118699700D02*
X69223300Y-118924400D01*
X63460000Y-86518300D02*
X63498900Y-86518300D01*
X55900100Y-111640100D02*
X56060000Y-111800000D01*
X81990000Y-72733200D02*
X81990000Y-73750000D01*
X63460000Y-87370000D02*
X63460000Y-86518300D01*
X67660000Y-91320000D02*
X67660000Y-89920000D01*
X64870000Y-79250000D02*
X64168300Y-79250000D01*
X52560000Y-97961400D02*
X52560000Y-97120000D01*
X66770000Y-69060300D02*
X66770000Y-70350000D01*
X86300000Y-86107500D02*
X86300000Y-87048300D01*
X72633000Y-71276100D02*
X72408600Y-71051700D01*
X93887800Y-54566600D02*
X94235900Y-54566600D01*
X91560000Y-55640000D02*
X91560000Y-56561700D01*
X64168300Y-79250000D02*
X64168300Y-79599500D01*
X53800000Y-76420000D02*
X52913600Y-75533600D01*
X53675200Y-109822700D02*
X53635000Y-109782500D01*
X67410000Y-100570000D02*
X67410000Y-101671700D01*
X53661700Y-88320000D02*
X53661700Y-88867600D01*
X75010000Y-102748900D02*
X75010000Y-103392500D01*
X74770000Y-70350000D02*
X74770000Y-69215800D01*
X66055000Y-104745000D02*
X66055000Y-106365500D01*
X87013300Y-109146600D02*
X86876700Y-109010000D01*
X68998600Y-116918800D02*
X69223300Y-116918800D01*
X63460000Y-87370000D02*
X63460000Y-88221700D01*
X72633000Y-71276100D02*
X72857400Y-71051700D01*
X67570000Y-70350000D02*
X67570000Y-69443000D01*
X57960000Y-92720000D02*
X57960000Y-95620000D01*
X63460000Y-88221700D02*
X63211700Y-88470000D01*
X73970000Y-70350000D02*
X73970000Y-69442900D01*
X51107500Y-106340500D02*
X50747700Y-105980700D01*
X64768800Y-80200000D02*
X64820000Y-80200000D01*
X57960000Y-89820000D02*
X57960000Y-92720000D01*
X61360000Y-89820000D02*
X63211700Y-89820000D01*
X64168300Y-79599500D02*
X63952500Y-79599500D01*
X69170000Y-70350000D02*
X69170000Y-69442900D01*
X92680000Y-56391700D02*
X92510000Y-56561700D01*
X59710000Y-84870000D02*
X59710000Y-85971700D01*
X70425000Y-117900000D02*
X69223300Y-117900000D01*
X52707300Y-106340500D02*
X51107500Y-106340500D01*
X92680000Y-55040000D02*
X92680000Y-56391700D01*
X71570000Y-69648300D02*
X71771400Y-69446900D01*
X68916100Y-95115600D02*
X68511700Y-95520000D01*
X64760000Y-89820000D02*
X64760000Y-92720000D01*
X70425000Y-119170000D02*
X69223300Y-119170000D01*
X54267000Y-109822700D02*
X53675200Y-109822700D01*
X89417500Y-60515000D02*
X89710000Y-60222500D01*
X61752500Y-111767500D02*
X61720000Y-111800000D01*
X76670000Y-101180000D02*
X76670000Y-102195200D01*
X65410000Y-129150000D02*
X64458300Y-129150000D01*
X72747500Y-95400000D02*
X72747500Y-94375700D01*
X82912500Y-92400000D02*
X82912500Y-91591800D01*
X67655100Y-101895600D02*
X67431200Y-101671700D01*
X62645000Y-69549300D02*
X62645000Y-70575000D01*
X69223300Y-110280000D02*
X69223300Y-111550000D01*
X76975700Y-80851700D02*
X76720000Y-80851700D01*
X76720000Y-70300000D02*
X76720000Y-69432500D01*
X74520000Y-90370000D02*
X74520000Y-89122700D01*
X67570000Y-82129400D02*
X67570000Y-80150000D01*
X83270000Y-100920000D02*
X83270000Y-101731700D01*
X70770000Y-70350000D02*
X70770000Y-69442900D01*
X52110000Y-74653000D02*
X52110000Y-74450000D01*
X60810000Y-101877900D02*
X60810000Y-100570000D01*
X68916100Y-94920000D02*
X68916100Y-95115600D01*
X61360000Y-89820000D02*
X57960000Y-89820000D01*
X70160000Y-94920000D02*
X69058300Y-94920000D01*
X67870000Y-116936800D02*
X67870000Y-115910000D01*
X76115000Y-87790000D02*
X76115000Y-88599100D01*
X76450000Y-89584400D02*
X76450000Y-90230000D01*
X52550600Y-128942300D02*
X52758300Y-129150000D01*
X50840000Y-59327000D02*
X50840000Y-60330000D01*
X54767900Y-71267900D02*
X53935000Y-70435000D01*
X52912000Y-75455400D02*
X52912000Y-75455000D01*
X73170000Y-70350000D02*
X73170000Y-71051700D01*
X64458300Y-129150000D02*
X64458300Y-128944700D01*
X75215000Y-95342900D02*
X75215000Y-94275000D01*
X71261700Y-94920000D02*
X71261700Y-93820000D01*
X53710000Y-129150000D02*
X52758300Y-129150000D01*
X58520000Y-76140000D02*
X57770000Y-76890000D01*
X76720000Y-80200000D02*
X76720000Y-80851700D01*
X63105000Y-106370700D02*
X63105000Y-104745000D01*
X65210000Y-101671700D02*
X65210000Y-101877100D01*
X53710000Y-120350000D02*
X52758300Y-120350000D01*
X76780000Y-131459200D02*
X76780000Y-129810000D01*
X67431200Y-101671700D02*
X67410000Y-101671700D01*
X92510000Y-56561700D02*
X91560000Y-56561700D01*
X69223300Y-116630000D02*
X69223300Y-115360000D01*
X52758300Y-119920100D02*
X52758300Y-120350000D01*
X87089600Y-109146600D02*
X87013300Y-109146600D01*
X64552900Y-111797100D02*
X64550000Y-111800000D01*
X70425000Y-115360000D02*
X69223300Y-115360000D01*
X85917300Y-67213100D02*
X86740000Y-66390400D01*
X61752500Y-110788900D02*
X61752500Y-111767500D01*
X70160000Y-93820000D02*
X71261700Y-93820000D01*
X75570000Y-69218000D02*
X75599100Y-69188900D01*
X57370000Y-102960000D02*
X56463800Y-103866200D01*
X64168300Y-79599500D02*
X64768800Y-80200000D01*
X82942500Y-103820000D02*
X82942500Y-105044500D01*
X64458300Y-119998400D02*
X64253600Y-119793700D01*
X85675000Y-109010000D02*
X86876700Y-109010000D01*
X74420000Y-101140000D02*
X74420000Y-102158900D01*
X53521200Y-107154400D02*
X52707300Y-106340500D01*
X77221300Y-81097300D02*
X76975700Y-80851700D01*
X57660000Y-117368200D02*
X57660000Y-116250000D01*
X68916100Y-93124300D02*
X68916100Y-94920000D01*
X63498900Y-86518300D02*
X63702300Y-86314900D01*
X68370000Y-71281400D02*
X68370000Y-70350000D01*
X87980000Y-60515000D02*
X89417500Y-60515000D01*
X50985000Y-68825000D02*
X50985000Y-70435000D01*
X85060000Y-61262900D02*
X85060000Y-60222500D01*
X85160000Y-56763900D02*
X85160000Y-55640000D01*
X65210000Y-101671700D02*
X64110000Y-101671700D01*
X67660000Y-91320000D02*
X68511700Y-91320000D01*
X64458300Y-120350000D02*
X64458300Y-119998400D01*
X60415000Y-70575000D02*
X60415000Y-69567000D01*
X86810000Y-60515000D02*
X86810000Y-61239100D01*
X71570000Y-70350000D02*
X71570000Y-69648300D01*
X64870000Y-71250000D02*
X64820000Y-71200000D01*
X59710000Y-85971700D02*
X59335700Y-85971700D01*
X68998600Y-109966600D02*
X69223300Y-110191300D01*
X72857400Y-71051700D02*
X73170000Y-71051700D01*
X84450000Y-66220000D02*
X84450000Y-67228300D01*
X52913600Y-75456600D02*
X52912400Y-75455400D01*
X50574000Y-66517400D02*
X50400000Y-66343400D01*
X65210000Y-100570000D02*
X65210000Y-101671700D01*
X55900100Y-110758400D02*
X55900100Y-111640100D01*
X70425000Y-116630000D02*
X69223300Y-116630000D01*
X64552900Y-110783100D02*
X64552900Y-111797100D01*
X82930000Y-86727500D02*
X82930000Y-87742100D01*
X64870000Y-72050000D02*
X65571700Y-72050000D01*
X69223300Y-116918800D02*
X69223300Y-117900000D01*
X50400000Y-66343400D02*
X50400000Y-65000000D01*
X54994200Y-71267900D02*
X54767900Y-71267900D01*
X64870000Y-71250000D02*
X65571700Y-71250000D01*
X72408600Y-71051700D02*
X72370000Y-71051700D01*
X52912400Y-75455400D02*
X52912000Y-75455400D01*
X80040000Y-84024500D02*
X80040000Y-82820000D01*
X58877500Y-110797300D02*
X58877500Y-111787500D01*
X52560000Y-88320000D02*
X53661700Y-88320000D01*
X72370000Y-70350000D02*
X72370000Y-71051700D01*
X69223300Y-118924400D02*
X69223300Y-119170000D01*
X52560000Y-94920000D02*
X51256800Y-94920000D01*
X70160000Y-94920000D02*
X71261700Y-94920000D01*
X82730000Y-95135000D02*
X83434000Y-94431000D01*
X59335700Y-85971700D02*
X59231600Y-86075800D01*
X65970000Y-70350000D02*
X65970000Y-71051700D01*
X68916100Y-91724400D02*
X68511700Y-91320000D01*
X64110000Y-100570000D02*
X64110000Y-101671700D01*
X69223300Y-110191300D02*
X69223300Y-110280000D01*
X67468300Y-110912500D02*
X66570200Y-110014400D01*
X63211700Y-88470000D02*
X63211700Y-89820000D01*
X70425000Y-110280000D02*
X69223300Y-110280000D01*
X82730000Y-95530000D02*
X82730000Y-95135000D01*
X65970000Y-70350000D02*
X65970000Y-69423800D01*
%TO.N,MCU_RST*%
X50840000Y-62230000D02*
X53242500Y-62230000D01*
X55757500Y-62202500D02*
X54600000Y-62202500D01*
X54600000Y-62202500D02*
X53270000Y-62202500D01*
X53242500Y-62230000D02*
X53270000Y-62202500D01*
X61248400Y-59322100D02*
X60320200Y-58393900D01*
X64870000Y-76850000D02*
X64168300Y-76850000D01*
X64168300Y-69035600D02*
X61248400Y-66115700D01*
X59566100Y-58393900D02*
X58730000Y-59230000D01*
X61248400Y-66115700D02*
X61248400Y-59322100D01*
X64168300Y-76850000D02*
X64168300Y-69035600D01*
X60320200Y-58393900D02*
X59566100Y-58393900D01*
X54600000Y-62202500D02*
X54600000Y-65000000D01*
X58730000Y-59230000D02*
X55757500Y-62202500D01*
%TO.N,GPIO9*%
X82950000Y-84807500D02*
X82950000Y-82970000D01*
X75433800Y-81781300D02*
X81761300Y-81781300D01*
X85237500Y-82970000D02*
X82950000Y-82970000D01*
X81761300Y-81781300D02*
X82950000Y-82970000D01*
X86300000Y-81907500D02*
X85237500Y-82970000D01*
X82930000Y-84827500D02*
X82950000Y-84807500D01*
X74770000Y-81117500D02*
X75433800Y-81781300D01*
X74770000Y-80150000D02*
X74770000Y-80851700D01*
X74770000Y-80851700D02*
X74770000Y-81117500D01*
%TO.N,+1V8*%
X55817500Y-82498600D02*
X55817500Y-82552700D01*
X55322200Y-83657200D02*
X53800000Y-82135000D01*
X56747400Y-81726500D02*
X56747400Y-83139300D01*
X55988800Y-80967800D02*
X56747400Y-81726500D01*
X55988800Y-80967800D02*
X55511500Y-81445100D01*
X56020000Y-78540000D02*
X56020000Y-78967300D01*
X72470000Y-90520000D02*
X72620000Y-90370000D01*
X55716600Y-79270700D02*
X55716600Y-80695700D01*
X55817500Y-82552700D02*
X55740800Y-82629400D01*
X55412000Y-82093100D02*
X55817500Y-82498600D01*
X69058300Y-90520000D02*
X69058300Y-86475100D01*
X56229500Y-83657200D02*
X55322200Y-83657200D01*
X56020000Y-78967300D02*
X55716600Y-79270700D01*
X55412000Y-81594900D02*
X55412000Y-82093100D01*
X70160000Y-90520000D02*
X72470000Y-90520000D01*
X56747400Y-83139300D02*
X56229500Y-83657200D01*
X55716600Y-80695700D02*
X55988800Y-80967800D01*
X55511500Y-81495400D02*
X55412000Y-81594900D01*
X70160000Y-90520000D02*
X69058300Y-90520000D01*
X55511500Y-81445100D02*
X55511500Y-81495400D01*
X55740800Y-82629400D02*
X55740800Y-82645800D01*
X53800000Y-82135000D02*
X53800000Y-78320000D01*
X69058300Y-86475100D02*
X69049400Y-86466200D01*
%TO.N,+5V*%
X57510000Y-100570000D02*
X57510000Y-101671700D01*
X57592300Y-101671700D02*
X58408900Y-102488300D01*
X57510000Y-99333900D02*
X57510000Y-100570000D01*
X89300000Y-63032500D02*
X90760000Y-61572500D01*
X57648900Y-99195000D02*
X57510000Y-99333900D01*
X92667300Y-56975200D02*
X94520000Y-55122500D01*
X90760000Y-56975200D02*
X90760000Y-55640000D01*
X89300000Y-61841900D02*
X89350800Y-61791100D01*
X57510000Y-101671700D02*
X57592300Y-101671700D01*
X89300000Y-63032500D02*
X89300000Y-61841900D01*
X58408900Y-102488300D02*
X58408900Y-103821100D01*
X85960000Y-56949800D02*
X85960000Y-55640000D01*
X58408900Y-103821100D02*
X57370000Y-104860000D01*
X90760000Y-56975200D02*
X92667300Y-56975200D01*
X86058100Y-57047900D02*
X85960000Y-56949800D01*
X90760000Y-61572500D02*
X90760000Y-56975200D01*
%TO.N,SIM_VDD*%
X56390000Y-116250000D02*
X56390000Y-114030000D01*
X50617500Y-94660800D02*
X50617500Y-102585000D01*
X51712500Y-103680000D02*
X51360300Y-103680000D01*
X51107500Y-110767300D02*
X54040200Y-113700000D01*
X50346000Y-104694300D02*
X50346000Y-106147000D01*
X51360300Y-103680000D02*
X50346000Y-104694300D01*
X56390000Y-114030000D02*
X56060000Y-113700000D01*
X50346000Y-106147000D02*
X51107500Y-106908500D01*
X50617500Y-102585000D02*
X51712500Y-103680000D01*
X52560000Y-93820000D02*
X51458300Y-93820000D01*
X51458300Y-93820000D02*
X50617500Y-94660800D01*
X54040200Y-113700000D02*
X56060000Y-113700000D01*
X51107500Y-106908500D02*
X51107500Y-110767300D01*
%TO.N,Net-(U3-RST)*%
X58930000Y-113740000D02*
X58890000Y-113700000D01*
X58930000Y-116250000D02*
X58930000Y-113740000D01*
X58890000Y-113700000D02*
X57440000Y-112250000D01*
X57440000Y-112250000D02*
X57440000Y-109680000D01*
%TO.N,Net-(U3-CLK)*%
X61470000Y-113950000D02*
X61720000Y-113700000D01*
X60315000Y-112295000D02*
X60315000Y-109680000D01*
X61470000Y-116250000D02*
X61470000Y-113950000D01*
X61720000Y-113700000D02*
X60315000Y-112295000D01*
%TO.N,Net-(U3-I{slash}O)*%
X63491700Y-116250000D02*
X63491700Y-114758300D01*
X62740000Y-116250000D02*
X63491700Y-116250000D01*
X64550000Y-113700000D02*
X63190000Y-112340000D01*
X63190000Y-112340000D02*
X63190000Y-109680000D01*
X63491700Y-114758300D02*
X64550000Y-113700000D01*
%TO.N,Net-(U6-VI)*%
X85259700Y-68130300D02*
X85259700Y-67019900D01*
X85259700Y-67019900D02*
X85487000Y-66792600D01*
X85487000Y-66792600D02*
X85487000Y-65357000D01*
X87612500Y-64320000D02*
X86740000Y-64320000D01*
X84450000Y-64320000D02*
X85487000Y-65357000D01*
X86740000Y-64320000D02*
X86524000Y-64320000D01*
X86524000Y-64320000D02*
X85487000Y-65357000D01*
X84560000Y-68830000D02*
X85259700Y-68130300D01*
X89300000Y-66007500D02*
X87612500Y-64320000D01*
%TO.N,Net-(U6-VO)*%
X79830000Y-77977500D02*
X79797500Y-78010000D01*
X79830000Y-75650000D02*
X79830000Y-77977500D01*
X86860000Y-75130000D02*
X82510000Y-75130000D01*
X82510000Y-75130000D02*
X81990000Y-75650000D01*
X81990000Y-75650000D02*
X79830000Y-75650000D01*
X86860000Y-75130000D02*
X86860000Y-68830000D01*
%TO.N,Net-(D1-A2)*%
X52020000Y-109374200D02*
X53249400Y-108144800D01*
X52020000Y-110140000D02*
X52502500Y-110622500D01*
X52020000Y-110140000D02*
X52020000Y-109374200D01*
X52502500Y-110622500D02*
X53635000Y-110622500D01*
%TO.N,PWRKEY*%
X77990000Y-89530000D02*
X77990000Y-88740000D01*
X77290000Y-90477200D02*
X77290000Y-90230000D01*
X71261700Y-91620000D02*
X71473700Y-91832000D01*
X70160000Y-91620000D02*
X71261700Y-91620000D01*
X71473700Y-91832000D02*
X75935200Y-91832000D01*
X75935200Y-91832000D02*
X77290000Y-90477200D01*
X77290000Y-90230000D02*
X77990000Y-89530000D01*
%TO.N,SIM_CLK*%
X54498200Y-105069300D02*
X54498200Y-104555200D01*
X55114800Y-106707300D02*
X53987500Y-105580000D01*
X59167300Y-106707300D02*
X55114800Y-106707300D01*
X51453500Y-91620000D02*
X50161600Y-92911900D01*
X53987500Y-105580000D02*
X54498200Y-105069300D01*
X52560000Y-91620000D02*
X51453500Y-91620000D01*
X60315000Y-107855000D02*
X59167300Y-106707300D01*
%TO.N,SIM_DATA*%
X54473900Y-103680000D02*
X53987500Y-103680000D01*
X54063400Y-90921700D02*
X53661700Y-90520000D01*
X61238900Y-105903900D02*
X56697800Y-105903900D01*
X63190000Y-107855000D02*
X61238900Y-105903900D01*
X52560000Y-90520000D02*
X53661700Y-90520000D01*
X56697800Y-105903900D02*
X54473900Y-103680000D01*
X53987500Y-103680000D02*
X54063400Y-103604100D01*
X54063400Y-103604100D02*
X54063400Y-90921700D01*
%TO.N,SIM_RST*%
X51712500Y-105580000D02*
X52990800Y-105580000D01*
X53770400Y-106552700D02*
X53646800Y-106552700D01*
X52990800Y-105580000D02*
X52990800Y-98488700D01*
X52560000Y-92720000D02*
X53661700Y-92720000D01*
X53661700Y-97817800D02*
X53661700Y-92720000D01*
X53646800Y-106552700D02*
X52990800Y-105896700D01*
X52990800Y-98488700D02*
X53661700Y-97817800D01*
X57440000Y-107855000D02*
X55072700Y-107855000D01*
X52990800Y-105896700D02*
X52990800Y-105580000D01*
X55072700Y-107855000D02*
X53770400Y-106552700D01*
%TO.N,Net-(D4-K)*%
X82792500Y-97940000D02*
X85422500Y-97940000D01*
X85422500Y-97940000D02*
X85480000Y-97882500D01*
%TO.N,Net-(D5-K)*%
X82790000Y-89530000D02*
X85240000Y-89530000D01*
X85240000Y-89530000D02*
X85287500Y-89482500D01*
%TO.N,USB_D-*%
X88110000Y-59545000D02*
X88110000Y-58482200D01*
X69745400Y-79448300D02*
X69970000Y-79448300D01*
X87980000Y-59675000D02*
X88110000Y-59545000D01*
X88110000Y-58482200D02*
X88110000Y-56561700D01*
X89110000Y-55640000D02*
X89110000Y-56561700D01*
X88110000Y-58482200D02*
X88236200Y-58482200D01*
X68838100Y-78541000D02*
X69745400Y-79448300D01*
X69970000Y-80150000D02*
X69970000Y-79448300D01*
X88110000Y-56561700D02*
X89110000Y-56561700D01*
X88110000Y-56561700D02*
X88110000Y-55640000D01*
%TO.N,USB_D+*%
X86209800Y-61525500D02*
X87364100Y-62679800D01*
X70346900Y-81274800D02*
X69522200Y-81274800D01*
X70770000Y-80150000D02*
X70770000Y-80851700D01*
X87610000Y-55640000D02*
X87610000Y-54718300D01*
X87610000Y-58875000D02*
X86810000Y-59675000D01*
X88610000Y-54718300D02*
X87610000Y-54718300D01*
X86209800Y-60275200D02*
X86209800Y-61525500D01*
X70770000Y-80150000D02*
X70770000Y-79448300D01*
X88610000Y-55640000D02*
X88610000Y-54718300D01*
X72439800Y-79448300D02*
X70770000Y-79448300D01*
X87610000Y-55640000D02*
X87610000Y-56561700D01*
X70770000Y-80851700D02*
X70346900Y-81274800D01*
X87610000Y-56561700D02*
X87610000Y-58875000D01*
X86810000Y-59675000D02*
X86209800Y-60275200D01*
X75720000Y-71270000D02*
X75720000Y-76168100D01*
X75720000Y-76168100D02*
X72439800Y-79448300D01*
%TO.N,Net-(D12-A)*%
X74985000Y-105242500D02*
X75010000Y-105267500D01*
X72800000Y-105242500D02*
X74985000Y-105242500D01*
%TO.N,MTDI*%
X57924900Y-61305100D02*
X58730000Y-60500000D01*
X57924900Y-65012700D02*
X57924900Y-61305100D01*
X63333500Y-78450000D02*
X61520200Y-76636700D01*
X64694300Y-81202800D02*
X63333500Y-79842000D01*
X63333500Y-79842000D02*
X63333500Y-78450000D01*
X61520200Y-76636700D02*
X61520200Y-68608000D01*
X65100000Y-81202800D02*
X64694300Y-81202800D01*
X61520200Y-68608000D02*
X57924900Y-65012700D01*
X63333500Y-78450000D02*
X64168300Y-78450000D01*
X64870000Y-78450000D02*
X64168300Y-78450000D01*
%TO.N,MTDO*%
X69789800Y-83414700D02*
X68891600Y-82516500D01*
X68891600Y-82516500D02*
X68891600Y-80428400D01*
X68891600Y-80428400D02*
X69170000Y-80150000D01*
%TO.N,ETH_CS*%
X66828200Y-77294100D02*
X66828200Y-77381900D01*
X68370000Y-78923700D02*
X68370000Y-80150000D01*
X66828200Y-77381900D02*
X68370000Y-78923700D01*
%TO.N,MTMS*%
X64870000Y-77650000D02*
X64168300Y-77650000D01*
X58730000Y-64310000D02*
X58730000Y-64471500D01*
X58730000Y-64471500D02*
X63766600Y-69508100D01*
X63766600Y-77248300D02*
X64168300Y-77650000D01*
X63766600Y-69508100D02*
X63766600Y-77248300D01*
%TO.N,GNSS_ANT*%
X61023500Y-78123300D02*
X61023500Y-74855800D01*
X58220400Y-71884000D02*
X52536000Y-71884000D01*
X61023500Y-74855800D02*
X59940400Y-73772700D01*
X67660000Y-88520000D02*
X67660000Y-87768300D01*
X59940400Y-73772700D02*
X59940400Y-73604000D01*
X68023600Y-83806000D02*
X66034200Y-81816600D01*
X64716800Y-81816600D02*
X61023500Y-78123300D01*
X67660000Y-87768300D02*
X68023600Y-87404700D01*
X52536000Y-71884000D02*
X52460000Y-71960000D01*
X59940400Y-73604000D02*
X58220400Y-71884000D01*
X68023600Y-87404700D02*
X68023600Y-83806000D01*
X66034200Y-81816600D02*
X64716800Y-81816600D01*
%TO.N,RF_ANT*%
X66310000Y-100570000D02*
X66310000Y-101671700D01*
X64761700Y-103220000D02*
X66310000Y-101671700D01*
X64580000Y-103220000D02*
X64761700Y-103220000D01*
%TO.N,Net-(J4-CC1)*%
X89610000Y-58297500D02*
X89710000Y-58397500D01*
X89610000Y-55640000D02*
X89610000Y-58297500D01*
%TO.N,Net-(J4-CC2)*%
X86659800Y-56798700D02*
X86610000Y-56748900D01*
X86610000Y-56748900D02*
X86610000Y-55640000D01*
X85060000Y-58397500D02*
X85559400Y-58397500D01*
X86659800Y-57297100D02*
X86659800Y-56798700D01*
X85559400Y-58397500D02*
X86659800Y-57297100D01*
%TO.N,SIM7080G_TX*%
X55586400Y-76140000D02*
X55586400Y-76140100D01*
X76670000Y-75250000D02*
X77371700Y-75250000D01*
X55620000Y-76140000D02*
X55586400Y-76140000D01*
X77371700Y-75250000D02*
X78572500Y-74049200D01*
X55586400Y-76140100D02*
X54503800Y-77222700D01*
X78572500Y-74049200D02*
X78572500Y-70617900D01*
X49273600Y-77136300D02*
X45623700Y-77136300D01*
X45623700Y-77136300D02*
X44440000Y-78320000D01*
X49360000Y-77222700D02*
X49273600Y-77136300D01*
X54503800Y-77222700D02*
X49360000Y-77222700D01*
%TO.N,MISO*%
X77371700Y-79250000D02*
X77371700Y-80090200D01*
X76553500Y-106647000D02*
X76553500Y-112005000D01*
X76553500Y-112005000D02*
X83718500Y-119170000D01*
X83718500Y-119170000D02*
X84473300Y-119170000D01*
X85675000Y-119170000D02*
X84473300Y-119170000D01*
X77371700Y-80090200D02*
X77629300Y-80347800D01*
X76670000Y-79250000D02*
X77371700Y-79250000D01*
%TO.N,SCK*%
X84473300Y-116630000D02*
X84473300Y-107334700D01*
X76670000Y-78450000D02*
X77743900Y-78450000D01*
X77743900Y-78450000D02*
X78156800Y-78037100D01*
X85675000Y-116630000D02*
X84473300Y-116630000D01*
X84473300Y-107334700D02*
X84344100Y-107205500D01*
%TO.N,MOSI*%
X75682900Y-81179600D02*
X75570000Y-81066700D01*
X75570000Y-81066700D02*
X75570000Y-80150000D01*
X83675100Y-118275800D02*
X84050900Y-117900000D01*
X84050900Y-117900000D02*
X85675000Y-117900000D01*
%TO.N,SIM7080G_RX*%
X77371700Y-74450000D02*
X77371700Y-69151400D01*
X77371700Y-69151400D02*
X76467900Y-68247600D01*
X76467900Y-68247600D02*
X76117200Y-68247600D01*
X56520000Y-74898200D02*
X56520000Y-75240000D01*
X55346200Y-74123600D02*
X55745400Y-74123600D01*
X55745400Y-74123600D02*
X56520000Y-74898200D01*
X76670000Y-74450000D02*
X77371700Y-74450000D01*
%TO.N,MBUS_TX*%
X78116800Y-75666900D02*
X77733700Y-76050000D01*
X77733700Y-76050000D02*
X76670000Y-76050000D01*
%TO.N,MBUS_RX*%
X77895900Y-76850000D02*
X77990600Y-76944700D01*
X76670000Y-76850000D02*
X77895900Y-76850000D01*
%TO.N,ETH_INT*%
X64870000Y-75250000D02*
X66734200Y-75250000D01*
X66734200Y-75250000D02*
X66780500Y-75203700D01*
%TO.N,SIM7080G_DTR*%
X58020000Y-74693200D02*
X58020000Y-75240000D01*
X59099800Y-74001100D02*
X58712100Y-74001100D01*
X58712100Y-74001100D02*
X58020000Y-74693200D01*
%TO.N,ETH_RST*%
X64870000Y-74450000D02*
X65663900Y-74450000D01*
X65663900Y-74450000D02*
X66405300Y-73708600D01*
%TO.N,SIM7080G_PWR*%
X71570000Y-80150000D02*
X71570000Y-81144400D01*
X73465600Y-83040000D02*
X74743100Y-83040000D01*
X74743100Y-83040000D02*
X75652400Y-83949300D01*
X75652400Y-83949300D02*
X76245000Y-84541900D01*
X76245000Y-84541900D02*
X76245000Y-84920000D01*
X71570000Y-81144400D02*
X73465600Y-83040000D01*
X76350800Y-83250900D02*
X75652400Y-83949300D01*
%TO.N,WMBUS_CS*%
X87623900Y-114612800D02*
X86876700Y-115360000D01*
X75679500Y-77361200D02*
X75679500Y-77162400D01*
X85675000Y-115360000D02*
X86876700Y-115360000D01*
X75968300Y-77650000D02*
X75679500Y-77361200D01*
X87623900Y-113398700D02*
X87623900Y-114612800D01*
X76670000Y-77650000D02*
X75968300Y-77650000D01*
%TO.N,SIM7080G_RING*%
X59743600Y-74602800D02*
X60563300Y-75422500D01*
X60563300Y-78514000D02*
X60860900Y-78811600D01*
X58520000Y-74831600D02*
X58748800Y-74602800D01*
X60563300Y-75422500D02*
X60563300Y-78514000D01*
X58520000Y-75240000D02*
X58520000Y-74831600D01*
X58748800Y-74602800D02*
X59743600Y-74602800D01*
%TO.N,Net-(JP1-B)*%
X51458300Y-96652000D02*
X51458300Y-96020000D01*
X52560000Y-96020000D02*
X51458300Y-96020000D01*
X51236500Y-96873800D02*
X51458300Y-96652000D01*
%TO.N,Net-(JP2-A)*%
X57020000Y-75240000D02*
X57020000Y-74205200D01*
X57020000Y-74205200D02*
X56989700Y-74174900D01*
%TO.N,Net-(JP3-A)*%
X57520000Y-74714900D02*
X57618300Y-74616600D01*
X57520000Y-75240000D02*
X57520000Y-74714900D01*
X57618300Y-72922600D02*
X57987200Y-72553700D01*
X57618300Y-74616600D02*
X57618300Y-72922600D01*
%TO.N,Net-(Q1-B)*%
X78070000Y-86760000D02*
X78070000Y-84920000D01*
X78070000Y-84920000D02*
X78215000Y-84775000D01*
X78215000Y-84775000D02*
X78215000Y-82820000D01*
X77990000Y-86840000D02*
X78070000Y-86760000D01*
%TO.N,Net-(Q2-B)*%
X79080000Y-101702500D02*
X81227500Y-101702500D01*
X81117500Y-103820000D02*
X81395000Y-103542500D01*
X81227500Y-101702500D02*
X81395000Y-101870000D01*
X81395000Y-103542500D02*
X81395000Y-101870000D01*
%TO.N,Net-(Q2-C)*%
X80967500Y-99542500D02*
X81395000Y-99970000D01*
X80967500Y-97940000D02*
X80967500Y-99542500D01*
%TO.N,Net-(Q3-C)*%
X80965000Y-89530000D02*
X81037500Y-89602500D01*
X81037500Y-89602500D02*
X81037500Y-91450000D01*
%TO.N,Net-(Q3-B)*%
X80905000Y-95530000D02*
X80905000Y-93482500D01*
X79007500Y-93482500D02*
X80905000Y-93482500D01*
X80905000Y-93482500D02*
X81037500Y-93350000D01*
X78777500Y-93252500D02*
X79007500Y-93482500D01*
%TO.N,GPIO8*%
X74120000Y-82127500D02*
X73970000Y-81977500D01*
X73970000Y-81977500D02*
X73970000Y-80150000D01*
%TO.N,NETLIGHT*%
X78999000Y-98582500D02*
X79080000Y-98663500D01*
X79080000Y-98663500D02*
X79080000Y-99877500D01*
X70160000Y-89420000D02*
X71997700Y-89420000D01*
X72930100Y-88487600D02*
X74787600Y-88487600D01*
X71997700Y-89420000D02*
X72930100Y-88487600D01*
X74787600Y-88487600D02*
X75686000Y-89386000D01*
X75686000Y-89386000D02*
X75686000Y-91230300D01*
%TO.N,STATUS*%
X77502500Y-87790000D02*
X76888500Y-87176000D01*
X79056900Y-88385700D02*
X78461200Y-87790000D01*
X76888500Y-87176000D02*
X72405700Y-87176000D01*
X70160000Y-88320000D02*
X71261700Y-88320000D01*
X72405700Y-87176000D02*
X71261700Y-88320000D01*
X79056900Y-91148100D02*
X79056900Y-88385700D01*
X78461200Y-87790000D02*
X77502500Y-87790000D01*
X78777500Y-91427500D02*
X79056900Y-91148100D01*
%TO.N,WMBUS_SDN*%
X72665000Y-81128100D02*
X72388600Y-80851700D01*
X70623900Y-103551100D02*
X70623900Y-102754800D01*
X72388600Y-80851700D02*
X72370000Y-80851700D01*
X68675000Y-105500000D02*
X70623900Y-103551100D01*
X72370000Y-80150000D02*
X72370000Y-80851700D01*
%TO.N,Net-(U5-SDN)*%
X70425000Y-109010000D02*
X71626700Y-109010000D01*
X70425000Y-109010000D02*
X67577500Y-109010000D01*
X71626700Y-109010000D02*
X71626700Y-106626700D01*
X67577500Y-109010000D02*
X67500000Y-109087500D01*
X71626700Y-106626700D02*
X70500000Y-105500000D01*
%TO.N,SIM_RX*%
X56520000Y-78540000D02*
X56520000Y-79035300D01*
X66310000Y-84870000D02*
X66310000Y-83768300D01*
X56520000Y-79035300D02*
X56118300Y-79437000D01*
X65152300Y-83768300D02*
X64684800Y-83300800D01*
X56118300Y-79961400D02*
X59172700Y-83015800D01*
X66310000Y-83768300D02*
X65152300Y-83768300D01*
X56118300Y-79437000D02*
X56118300Y-79961400D01*
%TO.N,SIM_CTS*%
X60124200Y-81493100D02*
X62399400Y-83768300D01*
X57520000Y-78540000D02*
X57520000Y-79699900D01*
X64110000Y-84870000D02*
X64110000Y-83768300D01*
X62399400Y-83768300D02*
X64110000Y-83768300D01*
X57520000Y-79699900D02*
X57429300Y-79790600D01*
%TO.N,SIM_DTR*%
X58031000Y-79966700D02*
X58031000Y-78551000D01*
X58918400Y-81154800D02*
X58918400Y-80854100D01*
X61910000Y-84146400D02*
X58918400Y-81154800D01*
X61910000Y-84870000D02*
X61910000Y-84146400D01*
X58031000Y-78551000D02*
X58020000Y-78540000D01*
X58918400Y-80854100D02*
X58031000Y-79966700D01*
%TO.N,SIM_TX*%
X67410000Y-84870000D02*
X67410000Y-83768300D01*
X56342700Y-82894800D02*
X56342700Y-82173000D01*
X67410000Y-83768300D02*
X67135000Y-83768300D01*
X67135000Y-83768300D02*
X66283300Y-82916600D01*
X55010300Y-82766100D02*
X55491700Y-83247500D01*
X56342700Y-82173000D02*
X56013700Y-81844000D01*
X55620000Y-77640000D02*
X55010300Y-78249700D01*
X55010300Y-78249700D02*
X55010300Y-82766100D01*
X55990000Y-83247500D02*
X56342700Y-82894800D01*
X55491700Y-83247500D02*
X55990000Y-83247500D01*
%TO.N,SIM_RI*%
X60600800Y-83768300D02*
X60370000Y-83537500D01*
X60810000Y-84870000D02*
X60810000Y-83768300D01*
X60943800Y-81274300D02*
X60918900Y-81274300D01*
X60918900Y-81274300D02*
X58520000Y-78875400D01*
X58520000Y-78875400D02*
X58520000Y-78540000D01*
X60810000Y-83768300D02*
X60600800Y-83768300D01*
%TO.N,SIM_RTS*%
X64668500Y-85971700D02*
X64652800Y-85987400D01*
X56769900Y-79525700D02*
X57020000Y-79275600D01*
X58316700Y-81103300D02*
X57847700Y-81103300D01*
X57020000Y-79275600D02*
X57020000Y-78540000D01*
X56769900Y-80025500D02*
X56769900Y-79525700D01*
X57847700Y-81103300D02*
X56769900Y-80025500D01*
X65210000Y-84870000D02*
X65210000Y-85971700D01*
X65210000Y-85971700D02*
X64668500Y-85971700D01*
%TD*%
M02*
