%TF.GenerationSoftware,KiCad,Pcbnew,9.0.2*%
%TF.CreationDate,2026-07-22T17:03:05+03:00*%
%TF.ProjectId,a0,61302e6b-6963-4616-945f-706362585858,Rev 0.3*%
%TF.SameCoordinates,Original*%
%TF.FileFunction,Copper,L3,Inr*%
%TF.FilePolarity,Positive*%
%FSLAX46Y46*%
G04 Gerber Fmt 4.6, Leading zero omitted, Abs format (unit mm)*
G04 Created by KiCad (PCBNEW 9.0.2) date 2026-07-22 17:03:05*
%MOMM*%
%LPD*%
G01*
G04 APERTURE LIST*
G04 Aperture macros list*
%AMRoundRect*
0 Rectangle with rounded corners*
0 $1 Rounding radius*
0 $2 $3 $4 $5 $6 $7 $8 $9 X,Y pos of 4 corners*
0 Add a 4 corners polygon primitive as box body*
4,1,4,$2,$3,$4,$5,$6,$7,$8,$9,$2,$3,0*
0 Add four circle primitives for the rounded corners*
1,1,$1+$1,$2,$3*
1,1,$1+$1,$4,$5*
1,1,$1+$1,$6,$7*
1,1,$1+$1,$8,$9*
0 Add four rect primitives between the rounded corners*
20,1,$1+$1,$2,$3,$4,$5,0*
20,1,$1+$1,$4,$5,$6,$7,0*
20,1,$1+$1,$6,$7,$8,$9,0*
20,1,$1+$1,$8,$9,$2,$3,0*%
G04 Aperture macros list end*
%TA.AperFunction,ComponentPad*%
%ADD10C,5.000000*%
%TD*%
%TA.AperFunction,ComponentPad*%
%ADD11RoundRect,0.250000X-0.750000X0.600000X-0.750000X-0.600000X0.750000X-0.600000X0.750000X0.600000X0*%
%TD*%
%TA.AperFunction,ComponentPad*%
%ADD12O,2.000000X1.700000*%
%TD*%
%TA.AperFunction,ComponentPad*%
%ADD13R,1.700000X1.700000*%
%TD*%
%TA.AperFunction,ComponentPad*%
%ADD14C,1.700000*%
%TD*%
%TA.AperFunction,ComponentPad*%
%ADD15RoundRect,0.250001X1.149999X1.149999X-1.149999X1.149999X-1.149999X-1.149999X1.149999X-1.149999X0*%
%TD*%
%TA.AperFunction,ComponentPad*%
%ADD16C,2.800000*%
%TD*%
%TA.AperFunction,HeatsinkPad*%
%ADD17O,1.000000X2.100000*%
%TD*%
%TA.AperFunction,HeatsinkPad*%
%ADD18O,1.000000X1.800000*%
%TD*%
%TA.AperFunction,ComponentPad*%
%ADD19R,1.000000X1.000000*%
%TD*%
%TA.AperFunction,ComponentPad*%
%ADD20C,1.000000*%
%TD*%
%TA.AperFunction,ViaPad*%
%ADD21C,0.400000*%
%TD*%
%TA.AperFunction,ViaPad*%
%ADD22C,0.300000*%
%TD*%
%TA.AperFunction,Conductor*%
%ADD23C,0.100000*%
%TD*%
%TA.AperFunction,Conductor*%
%ADD24C,0.400000*%
%TD*%
%TA.AperFunction,Conductor*%
%ADD25C,1.600000*%
%TD*%
%TA.AperFunction,Conductor*%
%ADD26C,2.000000*%
%TD*%
G04 APERTURE END LIST*
D10*
%TO.N,GND*%
%TO.C,H4*%
X90743300Y-126666700D03*
%TD*%
D11*
%TO.N,VBAT*%
%TO.C,J9*%
X49000000Y-52000000D03*
D12*
%TO.N,GND*%
X49000000Y-54500000D03*
%TD*%
D13*
%TO.N,MiBUS2_4*%
%TO.C,J2*%
X56000000Y-106500000D03*
D14*
%TO.N,MiBUS2_5*%
X58540000Y-106500000D03*
%TO.N,MiBUS2_RX*%
X61080000Y-106500000D03*
%TO.N,MiBUS2_TX*%
X63620000Y-106500000D03*
%TO.N,SCL*%
X66160000Y-106500000D03*
%TO.N,SDA*%
X68700000Y-106500000D03*
%TO.N,FB_5V*%
X71240000Y-106500000D03*
%TO.N,GND*%
X73780000Y-106500000D03*
%TD*%
D10*
%TO.N,GND*%
%TO.C,H1*%
X45676700Y-60566700D03*
%TD*%
D13*
%TO.N,MiBUS2_1*%
%TO.C,J4*%
X56000000Y-129480000D03*
D14*
%TO.N,MiBUS2_2*%
X58540000Y-129480000D03*
%TO.N,MiBUS2_3*%
X61080000Y-129480000D03*
%TO.N,SCK*%
X63620000Y-129480000D03*
%TO.N,MISO*%
X66160000Y-129480000D03*
%TO.N,MOSI*%
X68700000Y-129480000D03*
%TO.N,+3V3*%
X71240000Y-129480000D03*
%TO.N,GND*%
X73780000Y-129480000D03*
%TD*%
D15*
%TO.N,Net-(D1-A)*%
%TO.C,J8*%
X59450000Y-52832500D03*
D16*
%TO.N,GND*%
X54450000Y-52832500D03*
%TD*%
D13*
%TO.N,MiBUS1_4*%
%TO.C,J3*%
X56625000Y-71425000D03*
D14*
%TO.N,MiBUS1_5*%
X59165000Y-71425000D03*
%TO.N,MiBUS1_RX*%
X61705000Y-71425000D03*
%TO.N,MiBUS1_TX*%
X64245000Y-71425000D03*
%TO.N,SCL*%
X66785000Y-71425000D03*
%TO.N,SDA*%
X69325000Y-71425000D03*
%TO.N,FB_5V*%
X71865000Y-71425000D03*
%TO.N,GND*%
X74405000Y-71425000D03*
%TD*%
D10*
%TO.N,GND*%
%TO.C,H3*%
X48760000Y-126700000D03*
%TD*%
D17*
%TO.N,GND*%
%TO.C,J7*%
X92920000Y-55490000D03*
D18*
X92920000Y-51290000D03*
D17*
X84280000Y-55490000D03*
D18*
X84280000Y-51290000D03*
%TD*%
D13*
%TO.N,MiBUS1_1*%
%TO.C,J1*%
X56625000Y-94405000D03*
D14*
%TO.N,MiBUS1_2*%
X59165000Y-94405000D03*
%TO.N,MiBUS1_3*%
X61705000Y-94405000D03*
%TO.N,SCK*%
X64245000Y-94405000D03*
%TO.N,MISO*%
X66785000Y-94405000D03*
%TO.N,MOSI*%
X69325000Y-94405000D03*
%TO.N,+3V3*%
X71865000Y-94405000D03*
%TO.N,GND*%
X74405000Y-94405000D03*
%TD*%
D19*
%TO.N,+3V3*%
%TO.C,J10*%
X86400000Y-117630000D03*
D20*
%TO.N,MTMS*%
X87670000Y-117630000D03*
%TO.N,GND*%
X86400000Y-118900000D03*
%TO.N,MTCK*%
X87670000Y-118900000D03*
%TO.N,GND*%
X86400000Y-120170000D03*
%TO.N,MTDO*%
X87670000Y-120170000D03*
%TO.N,unconnected-(J10-KEY-Pad7)*%
X86400000Y-121440000D03*
%TO.N,MTDI*%
X87670000Y-121440000D03*
%TO.N,GND*%
X86400000Y-122710000D03*
%TO.N,MCU_RST*%
X87670000Y-122710000D03*
%TD*%
D10*
%TO.N,GND*%
%TO.C,H2*%
X93900000Y-60500000D03*
%TD*%
D21*
%TO.N,GND*%
X78100000Y-109500000D03*
X79400000Y-110300000D03*
X80800000Y-126000000D03*
D22*
%TO.N,USB_D+*%
X88850000Y-56090000D03*
D21*
X87800000Y-56600000D03*
X89000000Y-57800000D03*
X87800000Y-72800000D03*
X87800000Y-76600000D03*
%TO.N,MiBUS1_TX*%
X75900000Y-126000000D03*
X83400000Y-118400000D03*
%TO.N,VIN*%
X70800000Y-86600000D03*
X71800000Y-86000000D03*
X74100000Y-84300000D03*
X63100000Y-73000000D03*
%TO.N,MiBUS2_TX*%
X75100000Y-92200000D03*
X66900000Y-97600000D03*
%TO.N,GND*%
X71000000Y-114200000D03*
X77000000Y-116600000D03*
X76100000Y-92600000D03*
%TO.N,MiBUS1_5*%
X48400000Y-83400000D03*
X51400000Y-83400000D03*
X54900000Y-83400000D03*
X60300000Y-83400000D03*
X59200000Y-74500000D03*
X60500000Y-104100000D03*
X62200000Y-105900000D03*
%TO.N,MiBUS1_3*%
X46000000Y-79500000D03*
X53500000Y-87200000D03*
X60700000Y-92900000D03*
X72000000Y-103200000D03*
X73000000Y-104200000D03*
%TO.N,Net-(U7-VI)*%
X89000000Y-72400000D03*
X89000000Y-73200000D03*
X52300000Y-117100000D03*
X53100000Y-117100000D03*
X80300000Y-81500000D03*
X76100000Y-86100000D03*
X71600000Y-90900000D03*
X67800000Y-91900000D03*
X55300000Y-105200000D03*
X55700000Y-115400000D03*
%TO.N,SDA*%
X84700000Y-91400000D03*
X83000000Y-91400000D03*
X75700000Y-101000000D03*
X74900000Y-100500000D03*
X69100000Y-99800000D03*
X68400000Y-119800000D03*
X69400000Y-118800000D03*
X70800000Y-72900000D03*
X71600000Y-87200000D03*
X69200000Y-90400000D03*
%TO.N,MiBUS1_RX*%
X81200000Y-90600000D03*
X82800000Y-92800000D03*
X77300000Y-123100000D03*
%TO.N,MiBUS1_2*%
X53300000Y-84800000D03*
%TO.N,MiBUS2_3*%
X70100000Y-130600000D03*
X74200000Y-127300000D03*
X90800000Y-97700000D03*
X86200000Y-107400000D03*
X82700000Y-112300000D03*
X78800000Y-116900000D03*
%TO.N,MiBUS2_1*%
X60200000Y-97900000D03*
X61000000Y-100100000D03*
X57200000Y-106300000D03*
%TO.N,GPIO4*%
X82600000Y-113300000D03*
X85600000Y-113500000D03*
%TO.N,MiBUS1_4*%
X52300000Y-75000000D03*
X52800000Y-74500000D03*
%TO.N,Net-(D7-K)*%
X83700000Y-70900000D03*
X82200000Y-71200000D03*
%TO.N,VBAT*%
X84300000Y-66200000D03*
X82500000Y-67500000D03*
X60400000Y-77800000D03*
X59600000Y-77000000D03*
%TO.N,GPIO5*%
X72800000Y-111900000D03*
X73600000Y-111100000D03*
X83300000Y-104500000D03*
%TO.N,GPIO6*%
X83600000Y-113800000D03*
X84200000Y-114400000D03*
%TO.N,GPIO14*%
X56200000Y-99500000D03*
X56200000Y-100300000D03*
X61100000Y-111700000D03*
%TO.N,MiBUS1_1*%
X63800000Y-100800000D03*
X60200000Y-97200000D03*
X58100000Y-95100000D03*
%TO.N,MCU_RST*%
X77900000Y-123100000D03*
X74600000Y-116700000D03*
%TO.N,Net-(D9-K)*%
X71800000Y-83200000D03*
X70200000Y-81600000D03*
%TO.N,SCL*%
X64900000Y-119400000D03*
X64400000Y-115500000D03*
X64900000Y-114300000D03*
X64900000Y-112200000D03*
X71800000Y-76400000D03*
X78300000Y-84000000D03*
X84100000Y-89800000D03*
X85100000Y-89800000D03*
X67200000Y-107500000D03*
X69700000Y-107600000D03*
X73700000Y-109400000D03*
X76600000Y-106500000D03*
X93500000Y-89600000D03*
%TO.N,Net-(U7-VO)*%
X53100000Y-114600000D03*
X54100000Y-114600000D03*
X67099999Y-115600000D03*
X64900000Y-116000000D03*
%TO.N,MOSI*%
X70000000Y-127900000D03*
X69300000Y-127100000D03*
X71200000Y-105200000D03*
X90200000Y-85900000D03*
X89200000Y-85900000D03*
X78700000Y-85900000D03*
X76800000Y-85700000D03*
X71600000Y-92100000D03*
%TO.N,+3V3*%
X86200000Y-116000000D03*
X79700000Y-111900000D03*
X77400000Y-113200000D03*
X94100000Y-68100000D03*
X70100000Y-128500000D03*
X68700000Y-127100000D03*
X65800000Y-117400000D03*
X66099999Y-115500000D03*
X66300000Y-113200000D03*
X67099999Y-113400000D03*
X76800000Y-111200000D03*
X73600000Y-104000000D03*
X72100000Y-99900000D03*
X70900000Y-98700000D03*
X63600000Y-93300000D03*
X73600000Y-90700000D03*
%TO.N,FB_5V*%
X90500000Y-73200000D03*
X89700000Y-72600000D03*
X80400000Y-75900000D03*
X79400000Y-74900000D03*
X71800000Y-72900000D03*
X71000000Y-73600000D03*
X62100000Y-76400000D03*
X65500000Y-78000000D03*
%TO.N,MISO*%
X94000000Y-89900000D03*
X76600000Y-95500000D03*
X71200000Y-95500000D03*
X66500000Y-115900000D03*
X65700000Y-116800000D03*
X65200000Y-121600000D03*
%TO.N,SCK*%
X91400000Y-89800000D03*
X89700000Y-88100000D03*
X87000000Y-88100000D03*
X74400000Y-90200000D03*
X66900000Y-91700000D03*
X57500000Y-110300000D03*
X64000000Y-118500000D03*
%TO.N,MTDI*%
X86700000Y-106800000D03*
%TO.N,MiBUS2_RX*%
X74800000Y-101100000D03*
%TO.N,Net-(JP1-B)*%
X67900000Y-122400000D03*
%TO.N,MTMS*%
X88100000Y-116500000D03*
X87100000Y-107200000D03*
%TO.N,MiBUS2_5*%
X71900000Y-121800000D03*
%TO.N,MTCK*%
X87200000Y-110200000D03*
%TO.N,Net-(J7-CC2)*%
X87400000Y-60000000D03*
X86800000Y-58600000D03*
%TO.N,Net-(JP1-A)*%
X64900000Y-122500000D03*
%TO.N,SCL*%
X78300000Y-108000000D03*
%TO.N,MTD0*%
X78300000Y-105500000D03*
%TO.N,SDA*%
X78300000Y-102900000D03*
%TO.N,MTCK*%
X78300000Y-100400000D03*
%TO.N,MiBUS2_RX*%
X78300000Y-97900000D03*
%TO.N,MTDI*%
X78300000Y-95300000D03*
%TO.N,MTMS*%
X78300000Y-90200000D03*
%TO.N,GPIO7*%
X89900000Y-105500000D03*
%TO.N,GPIO6*%
X89900000Y-102900000D03*
X89900000Y-100400000D03*
%TO.N,GPIO5*%
X89900000Y-97900000D03*
X89900000Y-95300000D03*
%TO.N,GPIO4*%
X89900000Y-92800000D03*
X89900000Y-90200000D03*
%TO.N,GPIO7*%
X89900000Y-108000000D03*
%TO.N,GND*%
X81500000Y-126000000D03*
X81500000Y-114200000D03*
X81500000Y-124900000D03*
X81500000Y-124100000D03*
X81500000Y-123300000D03*
X81500000Y-122500000D03*
X81500000Y-121700000D03*
X81500000Y-120900000D03*
X81500000Y-120100000D03*
X81500000Y-119300000D03*
X81500000Y-118500000D03*
X81500000Y-117700000D03*
X81500000Y-116900000D03*
X81500000Y-116100000D03*
X81500000Y-115300000D03*
%TO.N,MiBUS1_RX*%
X76700000Y-126700000D03*
%TO.N,MiBUS2_5*%
X75100000Y-126700000D03*
%TO.N,MiBUS2_2*%
X74300000Y-126700000D03*
%TO.N,MiBUS2_3*%
X73500000Y-126700000D03*
%TO.N,SCK*%
X72700000Y-126700000D03*
%TO.N,MISO*%
X71900000Y-126700000D03*
%TO.N,MOSI*%
X70300000Y-124900000D03*
%TO.N,GPIO9*%
X70300000Y-124100000D03*
%TO.N,GPIO8*%
X70300000Y-123300000D03*
%TO.N,MiBUS2_4*%
X70300000Y-121700000D03*
%TO.N,GPIO14*%
X70300000Y-120900000D03*
%TO.N,GPIO6*%
X70300000Y-117700000D03*
%TO.N,GND*%
X70300000Y-116900000D03*
%TO.N,MiBUS1_2*%
X70300000Y-116100000D03*
%TO.N,MiBUS1_5*%
X70300000Y-115300000D03*
%TO.N,GND*%
X70300000Y-126000000D03*
X70300000Y-114200000D03*
X79900000Y-113500000D03*
X79100000Y-113500000D03*
%TO.N,+3V3*%
X78300000Y-113500000D03*
%TO.N,MiBUS1_3*%
X76700000Y-113500000D03*
%TO.N,MiBUS1_4*%
X75900000Y-113500000D03*
%TO.N,MCU_RST*%
X74300000Y-113500000D03*
%TO.N,GPIO4*%
X73500000Y-113500000D03*
%TO.N,GPIO5*%
X72700000Y-113500000D03*
%TO.N,GND*%
X71900000Y-113500000D03*
%TO.N,USB_D-*%
X70750000Y-119700000D03*
X68486500Y-117313500D03*
%TO.N,USB_D+*%
X71250000Y-119700000D03*
X68913500Y-116886500D03*
%TO.N,GND*%
X64550000Y-83595000D03*
X69500000Y-83595000D03*
X60737500Y-80237500D03*
X55700000Y-82300000D03*
X89000000Y-75450000D03*
X54750000Y-119800000D03*
X70950000Y-126050000D03*
X80800000Y-124900000D03*
X71000000Y-116900000D03*
X71900000Y-114200000D03*
X79900000Y-114200000D03*
X87580000Y-58400000D03*
X80500000Y-130500000D03*
X75500000Y-78100000D03*
X59800000Y-59500000D03*
X87400000Y-62212500D03*
X80650000Y-111800000D03*
X74850000Y-111800000D03*
X55837500Y-78950000D03*
X54850000Y-111700000D03*
X83500000Y-84100000D03*
X70887500Y-101400000D03*
X85200000Y-58400000D03*
X68175000Y-90000000D03*
X50700000Y-80337500D03*
X52350000Y-91000000D03*
X89700000Y-62212500D03*
X50050000Y-117100000D03*
X50150000Y-122700000D03*
X50050000Y-114600000D03*
X51100000Y-100600000D03*
X77000000Y-74500000D03*
X50150000Y-120200000D03*
X90620000Y-58400000D03*
X87100000Y-129500000D03*
X58337500Y-80237500D03*
%TD*%
D23*
%TO.N,VIN*%
X71400000Y-86000000D02*
X70800000Y-86600000D01*
X71800000Y-86000000D02*
X71400000Y-86000000D01*
D24*
%TO.N,GND*%
X71000000Y-116900000D02*
X70480000Y-116900000D01*
D25*
X73800000Y-106600000D02*
X73800000Y-106500000D01*
X75900000Y-108700000D02*
X73800000Y-106600000D01*
X75900000Y-109500000D02*
X75900000Y-108700000D01*
X75200000Y-110200000D02*
X75900000Y-109500000D01*
X75200000Y-111400000D02*
X75200000Y-110200000D01*
X74800000Y-111800000D02*
X75200000Y-111400000D01*
D24*
X71800000Y-113600000D02*
X71900000Y-113500000D01*
X71800000Y-113700000D02*
X71800000Y-113600000D01*
X72000000Y-113900000D02*
X71800000Y-113700000D01*
X72000000Y-114500000D02*
X72000000Y-113900000D01*
X71800000Y-114700000D02*
X72000000Y-114500000D01*
X71800000Y-114800000D02*
X71800000Y-114700000D01*
X72200000Y-115200000D02*
X71800000Y-114800000D01*
X72200000Y-115700000D02*
X72200000Y-115200000D01*
X71000000Y-116900000D02*
X72200000Y-115700000D01*
D26*
X61100000Y-80600000D02*
X60700000Y-80200000D01*
X61600000Y-80600000D02*
X61100000Y-80600000D01*
X62000000Y-81000000D02*
X61600000Y-80600000D01*
X65600000Y-81000000D02*
X62000000Y-81000000D01*
X68700000Y-84100000D02*
X65600000Y-81000000D01*
X69000000Y-84100000D02*
X68700000Y-84100000D01*
X69500000Y-83600000D02*
X69000000Y-84100000D01*
D23*
%TO.N,SDA*%
X83000000Y-91400000D02*
X84700000Y-91400000D01*
X75200000Y-100500000D02*
X75700000Y-101000000D01*
X74900000Y-100500000D02*
X75200000Y-100500000D01*
%TO.N,Net-(U7-VO)*%
X66500000Y-115000000D02*
X67099999Y-115600000D01*
X65900000Y-115000000D02*
X66500000Y-115000000D01*
X64900000Y-116000000D02*
X65900000Y-115000000D01*
%TO.N,+3V3*%
X66200000Y-117000000D02*
X65800000Y-117400000D01*
X66200000Y-116600000D02*
X66200000Y-117000000D01*
X66000000Y-116400000D02*
X66200000Y-116600000D01*
X66000000Y-115800000D02*
X66000000Y-116400000D01*
X66099999Y-115700000D02*
X66000000Y-115800000D01*
%TD*%
M02*
