%TF.GenerationSoftware,KiCad,Pcbnew,9.0.2*%
%TF.CreationDate,2026-07-17T15:33:50+03:00*%
%TF.ProjectId,a0,61302e6b-6963-4616-945f-706362585858,Rev 0.3*%
%TF.SameCoordinates,Original*%
%TF.FileFunction,Copper,L3,Inr*%
%TF.FilePolarity,Positive*%
%FSLAX46Y46*%
G04 Gerber Fmt 4.6, Leading zero omitted, Abs format (unit mm)*
G04 Created by KiCad (PCBNEW 9.0.2) date 2026-07-17 15:33:50*
%MOMM*%
%LPD*%
G01*
G04 APERTURE LIST*
G04 Aperture macros list*
%AMRoundRect*
0 Rectangle with rounded corners*
0 $1 Rounding radius*
0 $2 $3 $4 $5 $6 $7 $8 $9 X,Y pos of 4 corners*
0 Add a 4 corners polygon primitive as box body*
4,1,4,$2,$3,$4,$5,$6,$7,$8,$9,$2,$3,0*
0 Add four circle primitives for the rounded corners*
1,1,$1+$1,$2,$3*
1,1,$1+$1,$4,$5*
1,1,$1+$1,$6,$7*
1,1,$1+$1,$8,$9*
0 Add four rect primitives between the rounded corners*
20,1,$1+$1,$2,$3,$4,$5,0*
20,1,$1+$1,$4,$5,$6,$7,0*
20,1,$1+$1,$6,$7,$8,$9,0*
20,1,$1+$1,$8,$9,$2,$3,0*%
G04 Aperture macros list end*
%TA.AperFunction,ComponentPad*%
%ADD10C,5.000000*%
%TD*%
%TA.AperFunction,ComponentPad*%
%ADD11RoundRect,0.250000X-0.750000X0.600000X-0.750000X-0.600000X0.750000X-0.600000X0.750000X0.600000X0*%
%TD*%
%TA.AperFunction,ComponentPad*%
%ADD12O,2.000000X1.700000*%
%TD*%
%TA.AperFunction,ComponentPad*%
%ADD13R,1.700000X1.700000*%
%TD*%
%TA.AperFunction,ComponentPad*%
%ADD14C,1.700000*%
%TD*%
%TA.AperFunction,ComponentPad*%
%ADD15RoundRect,0.250001X1.149999X1.149999X-1.149999X1.149999X-1.149999X-1.149999X1.149999X-1.149999X0*%
%TD*%
%TA.AperFunction,ComponentPad*%
%ADD16C,2.800000*%
%TD*%
%TA.AperFunction,HeatsinkPad*%
%ADD17O,1.000000X2.100000*%
%TD*%
%TA.AperFunction,HeatsinkPad*%
%ADD18O,1.000000X1.800000*%
%TD*%
%TA.AperFunction,ComponentPad*%
%ADD19R,1.000000X1.000000*%
%TD*%
%TA.AperFunction,ComponentPad*%
%ADD20C,1.000000*%
%TD*%
%TA.AperFunction,ViaPad*%
%ADD21C,0.500000*%
%TD*%
%TA.AperFunction,Conductor*%
%ADD22C,0.200000*%
%TD*%
G04 APERTURE END LIST*
D10*
%TO.N,GND*%
%TO.C,H4*%
X90743300Y-126666700D03*
%TD*%
D11*
%TO.N,VBAT*%
%TO.C,J9*%
X49000000Y-52000000D03*
D12*
%TO.N,GND*%
X49000000Y-54500000D03*
%TD*%
D13*
%TO.N,MiBUS2_4*%
%TO.C,J2*%
X56000000Y-106500000D03*
D14*
%TO.N,MiBUS2_5*%
X58540000Y-106500000D03*
%TO.N,MiBUS2_RX*%
X61080000Y-106500000D03*
%TO.N,MiBUS2_TX*%
X63620000Y-106500000D03*
%TO.N,SCL*%
X66160000Y-106500000D03*
%TO.N,SDA*%
X68700000Y-106500000D03*
%TO.N,FB_5V*%
X71240000Y-106500000D03*
%TO.N,GND*%
X73780000Y-106500000D03*
%TD*%
D10*
%TO.N,GND*%
%TO.C,H1*%
X45676700Y-60566700D03*
%TD*%
D13*
%TO.N,MiBUS2_1*%
%TO.C,J4*%
X56000000Y-129480000D03*
D14*
%TO.N,MiBUS2_2*%
X58540000Y-129480000D03*
%TO.N,MiBUS2_3*%
X61080000Y-129480000D03*
%TO.N,SCK*%
X63620000Y-129480000D03*
%TO.N,MISO*%
X66160000Y-129480000D03*
%TO.N,MOSI*%
X68700000Y-129480000D03*
%TO.N,+3V3*%
X71240000Y-129480000D03*
%TO.N,GND*%
X73780000Y-129480000D03*
%TD*%
D15*
%TO.N,Net-(D1-A)*%
%TO.C,J8*%
X59450000Y-52832500D03*
D16*
%TO.N,GND*%
X54450000Y-52832500D03*
%TD*%
D13*
%TO.N,MiBUS1_4*%
%TO.C,J3*%
X56625000Y-71425000D03*
D14*
%TO.N,MiBUS1_5*%
X59165000Y-71425000D03*
%TO.N,MiBUS1_RX*%
X61705000Y-71425000D03*
%TO.N,MiBUS1_TX*%
X64245000Y-71425000D03*
%TO.N,SCL*%
X66785000Y-71425000D03*
%TO.N,SDA*%
X69325000Y-71425000D03*
%TO.N,FB_5V*%
X71865000Y-71425000D03*
%TO.N,GND*%
X74405000Y-71425000D03*
%TD*%
D10*
%TO.N,GND*%
%TO.C,H3*%
X48760000Y-126700000D03*
%TD*%
D17*
%TO.N,GND*%
%TO.C,J7*%
X92920000Y-55490000D03*
D18*
X92920000Y-51290000D03*
D17*
X84280000Y-55490000D03*
D18*
X84280000Y-51290000D03*
%TD*%
D13*
%TO.N,MiBUS1_1*%
%TO.C,J1*%
X56625000Y-94405000D03*
D14*
%TO.N,MiBUS1_2*%
X59165000Y-94405000D03*
%TO.N,MiBUS1_3*%
X61705000Y-94405000D03*
%TO.N,SCK*%
X64245000Y-94405000D03*
%TO.N,MISO*%
X66785000Y-94405000D03*
%TO.N,MOSI*%
X69325000Y-94405000D03*
%TO.N,+3V3*%
X71865000Y-94405000D03*
%TO.N,GND*%
X74405000Y-94405000D03*
%TD*%
D19*
%TO.N,+3V3*%
%TO.C,J10*%
X86400000Y-117630000D03*
D20*
%TO.N,MTMS*%
X87670000Y-117630000D03*
%TO.N,GND*%
X86400000Y-118900000D03*
%TO.N,MTCK*%
X87670000Y-118900000D03*
%TO.N,GND*%
X86400000Y-120170000D03*
%TO.N,MTDO*%
X87670000Y-120170000D03*
%TO.N,unconnected-(J10-KEY-Pad7)*%
X86400000Y-121440000D03*
%TO.N,MTDI*%
X87670000Y-121440000D03*
%TO.N,GND*%
X86400000Y-122710000D03*
%TO.N,MCU_RST*%
X87670000Y-122710000D03*
%TD*%
D10*
%TO.N,GND*%
%TO.C,H2*%
X93900000Y-60500000D03*
%TD*%
D21*
%TO.N,+3V3*%
X52689800Y-95111300D03*
X77982400Y-114991000D03*
X75826900Y-68140000D03*
X65773100Y-124310100D03*
%TO.N,GND*%
X92878000Y-107510000D03*
X80500000Y-129605300D03*
X88550000Y-62212500D03*
X54850000Y-110556500D03*
X91550900Y-58433500D03*
X71789300Y-117050000D03*
X46605600Y-64415700D03*
X64550000Y-82901900D03*
X80850000Y-126793400D03*
X67769600Y-96868800D03*
X93807400Y-118940000D03*
X51605000Y-99377900D03*
X90781900Y-121570900D03*
X59800000Y-57858000D03*
X68100300Y-88868300D03*
X95173600Y-64348000D03*
X70932900Y-102457500D03*
X83500000Y-81443700D03*
X71475600Y-82523700D03*
X48153200Y-66500800D03*
X69498400Y-82900300D03*
X58185100Y-79255300D03*
X81592000Y-118263600D03*
X53056100Y-90068900D03*
X50240400Y-118238400D03*
X50700000Y-81325900D03*
X87578900Y-57874100D03*
X49000000Y-59721600D03*
X55700000Y-81198400D03*
X56918700Y-78746300D03*
X71475600Y-96868800D03*
X89000000Y-76372100D03*
X70950000Y-126810200D03*
X74300000Y-112887300D03*
X78000000Y-74221100D03*
X49298100Y-123503200D03*
X60631200Y-79258200D03*
X87100000Y-128107600D03*
X54750000Y-118658600D03*
X71853800Y-113361400D03*
%TO.N,MCU_RST*%
X76490600Y-115491500D03*
%TO.N,GPIO9*%
X51100000Y-97215300D03*
X71796600Y-124050000D03*
%TO.N,FB_5V*%
X53945100Y-77308100D03*
%TO.N,VBAT*%
X58056000Y-70755600D03*
X79500000Y-69360400D03*
%TO.N,USB_D-*%
X79042400Y-116141100D03*
X88739900Y-57885200D03*
%TO.N,USB_D+*%
X72324700Y-119949900D03*
X88011000Y-59323800D03*
X86746200Y-100882800D03*
%TO.N,MTDI*%
X81205200Y-95692900D03*
%TO.N,MTMS*%
X81191000Y-90391700D03*
%TO.N,Net-(U7-VI)*%
X56373400Y-74590400D03*
X55494700Y-117458000D03*
X87767400Y-70693200D03*
%TO.N,Net-(D7-K)*%
X85165200Y-74728000D03*
X59605600Y-84456600D03*
%TO.N,MOSI*%
X91283000Y-85920000D03*
X69644200Y-124854800D03*
%TO.N,Net-(JP1-B)*%
X64465900Y-124350300D03*
%TO.N,MiBUS1_1*%
X45373600Y-85191700D03*
%TO.N,MiBUS1_3*%
X76999600Y-113346400D03*
X43474900Y-79245100D03*
%TO.N,MiBUS1_2*%
X45800400Y-86639700D03*
%TO.N,MiBUS2_1*%
X63508600Y-99282100D03*
%TO.N,MiBUS2_2*%
X48766100Y-91074000D03*
X74325000Y-126791500D03*
%TO.N,MiBUS1_5*%
X59916800Y-107572000D03*
X70199400Y-115053800D03*
%TO.N,MiBUS1_4*%
X75472900Y-113408100D03*
X57775500Y-102706800D03*
%TO.N,MiBUS2_3*%
X81130700Y-87116900D03*
X73500000Y-126807400D03*
%TO.N,SCL*%
X95394200Y-89699500D03*
X77626800Y-108020000D03*
X65589800Y-119774300D03*
%TO.N,MiBUS1_TX*%
X78524200Y-79730200D03*
X75900000Y-123711400D03*
%TO.N,SDA*%
X70259300Y-88743900D03*
X67970500Y-119687400D03*
%TO.N,MiBUS1_RX*%
X81903500Y-70267200D03*
X95100000Y-77052600D03*
X76700000Y-125188500D03*
%TO.N,Net-(JP1-A)*%
X64900000Y-123419600D03*
%TO.N,MiBUS2_TX*%
X77469400Y-99022300D03*
%TO.N,MiBUS2_RX*%
X78029700Y-98531100D03*
%TO.N,GPIO4*%
X89839300Y-93651700D03*
X73500000Y-112856300D03*
%TO.N,GPIO7*%
X87863400Y-108964800D03*
X71779300Y-118920100D03*
%TO.N,MTCK*%
X81039300Y-101264700D03*
%TO.N,GPIO6*%
X87160700Y-108916100D03*
X71802000Y-117814800D03*
%TO.N,MiBUS2_4*%
X70201500Y-121121800D03*
%TO.N,MiBUS2_5*%
X74423600Y-125141900D03*
%TD*%
D22*
%TO.N,+3V3*%
X75826900Y-68140000D02*
X75747200Y-68219700D01*
X75964600Y-93482100D02*
X75747200Y-93264700D01*
X73005300Y-93264700D02*
X71865000Y-94405000D01*
X75747200Y-68219700D02*
X75747200Y-93264700D01*
X72284400Y-125018300D02*
X72284400Y-128435600D01*
X75964600Y-114991000D02*
X77982400Y-114991000D01*
X75964600Y-114991000D02*
X75964600Y-121338100D01*
X75964600Y-121338100D02*
X72284400Y-125018300D01*
X75747200Y-93264700D02*
X73005300Y-93264700D01*
X72284400Y-128435600D02*
X71240000Y-129480000D01*
X75964600Y-114991000D02*
X75964600Y-93482100D01*
%TO.N,GND*%
X80850000Y-129255300D02*
X80850000Y-126793400D01*
X70950000Y-126810200D02*
X71207000Y-126553200D01*
X86400000Y-118900000D02*
X86400000Y-120170000D01*
X93807400Y-108439400D02*
X93807400Y-118940000D01*
X87100000Y-128107600D02*
X86400000Y-127407600D01*
X71475600Y-74354400D02*
X74405000Y-71425000D01*
X88550000Y-62212500D02*
X89000000Y-62662500D01*
X67874300Y-89094300D02*
X68100300Y-88868300D01*
X71853800Y-113361400D02*
X71853800Y-116985500D01*
X68100300Y-84298400D02*
X69498400Y-82900300D01*
X71853800Y-116985500D02*
X71789300Y-117050000D01*
X54850000Y-118558600D02*
X54850000Y-110556500D01*
X74300000Y-107020000D02*
X74300000Y-112887300D01*
X71475600Y-82523700D02*
X71475600Y-74354400D01*
X50700000Y-69047600D02*
X48153200Y-66500800D01*
X73780000Y-106500000D02*
X74300000Y-107020000D01*
X55700000Y-81198400D02*
X55700000Y-87425000D01*
X92878000Y-107510000D02*
X93807400Y-108439400D01*
X55700000Y-87425000D02*
X53056100Y-90068900D01*
X46605600Y-61495600D02*
X46605600Y-64415700D01*
X71207000Y-117632300D02*
X71789300Y-117050000D01*
X45676700Y-60566700D02*
X46605600Y-61495600D01*
X70932900Y-102457500D02*
X71475600Y-101914800D01*
X68100300Y-88868300D02*
X68100300Y-84298400D01*
X48760000Y-124041300D02*
X49298100Y-123503200D01*
X71207000Y-126553200D02*
X71207000Y-117632300D01*
X84280000Y-55490000D02*
X84280000Y-51290000D01*
X86400000Y-127407600D02*
X86400000Y-122710000D01*
X92920000Y-55490000D02*
X92920000Y-51290000D01*
X51605000Y-91520000D02*
X51605000Y-99377900D01*
X67769600Y-96868800D02*
X67874300Y-96764100D01*
X95173600Y-61773600D02*
X95173600Y-64348000D01*
X80500000Y-129605300D02*
X80850000Y-129255300D01*
X48760000Y-126700000D02*
X48760000Y-124041300D01*
X53056100Y-90068900D02*
X51605000Y-91520000D01*
X89000000Y-62662500D02*
X89000000Y-76372100D01*
X54850000Y-102622900D02*
X51605000Y-99377900D01*
X90781900Y-126628100D02*
X90781900Y-121570900D01*
X54850000Y-110556500D02*
X54850000Y-102622900D01*
X54750000Y-118658600D02*
X54850000Y-118558600D01*
X93900000Y-60500000D02*
X95173600Y-61773600D01*
X90743300Y-126666700D02*
X90781900Y-126628100D01*
X71475600Y-101914800D02*
X71475600Y-96868800D01*
X67874300Y-96764100D02*
X67874300Y-89094300D01*
X49000000Y-59721600D02*
X49000000Y-54500000D01*
X50700000Y-81325900D02*
X50700000Y-69047600D01*
%TO.N,FB_5V*%
X71240000Y-106500000D02*
X70443600Y-105703600D01*
X70748600Y-88946600D02*
X70748600Y-72541400D01*
X70748600Y-72541400D02*
X71865000Y-71425000D01*
X70443600Y-105703600D02*
X70443600Y-89251600D01*
X70443600Y-89251600D02*
X70748600Y-88946600D01*
%TO.N,USB_D-*%
X84237700Y-66900900D02*
X79042400Y-72096200D01*
X79042400Y-72096200D02*
X79042400Y-116141100D01*
X88739900Y-57885200D02*
X84237700Y-62387400D01*
X84237700Y-62387400D02*
X84237700Y-66900900D01*
%TO.N,USB_D+*%
X88011000Y-59323800D02*
X86746200Y-60588600D01*
X86746200Y-60588600D02*
X86746200Y-100882800D01*
%TO.N,MTDI*%
X81205200Y-96033600D02*
X88804700Y-103633100D01*
X88804700Y-120305300D02*
X87670000Y-121440000D01*
X88804700Y-103633100D02*
X88804700Y-120305300D01*
X81205200Y-95692900D02*
X81205200Y-96033600D01*
%TO.N,MTMS*%
X80527900Y-91054800D02*
X81191000Y-90391700D01*
X80527900Y-110000700D02*
X80527900Y-91054800D01*
X87670000Y-117630000D02*
X87670000Y-117142800D01*
X87670000Y-117142800D02*
X80527900Y-110000700D01*
%TO.N,Net-(U7-VI)*%
X55535700Y-101156800D02*
X57100000Y-102721100D01*
X56373400Y-74590400D02*
X56373400Y-92618200D01*
X56373400Y-92618200D02*
X55535700Y-93455900D01*
X55535700Y-93455900D02*
X55535700Y-101156800D01*
X57100000Y-102721100D02*
X57100000Y-115852700D01*
X57100000Y-115852700D02*
X55494700Y-117458000D01*
%TO.N,MISO*%
X67250800Y-128389200D02*
X66160000Y-129480000D01*
X67250800Y-94870800D02*
X67250800Y-128389200D01*
X66785000Y-94405000D02*
X67250800Y-94870800D01*
%TO.N,SCK*%
X63620000Y-123116900D02*
X63620000Y-129480000D01*
X64715900Y-94875900D02*
X64715900Y-122021000D01*
X64715900Y-122021000D02*
X63620000Y-123116900D01*
X64245000Y-94405000D02*
X64715900Y-94875900D01*
%TO.N,MOSI*%
X70717900Y-123781100D02*
X69644200Y-124854800D01*
X69968600Y-95048600D02*
X69968600Y-114057700D01*
X70717900Y-114807000D02*
X70717900Y-123781100D01*
X69968600Y-114057700D02*
X70717900Y-114807000D01*
X69325000Y-94405000D02*
X69968600Y-95048600D01*
X68700000Y-125799000D02*
X69644200Y-124854800D01*
X68700000Y-129480000D02*
X68700000Y-125799000D01*
%TO.N,MiBUS2_1*%
X63508600Y-99282100D02*
X62350000Y-100440700D01*
X62350000Y-122040700D02*
X56000000Y-128390700D01*
X62350000Y-100440700D02*
X62350000Y-122040700D01*
X56000000Y-129480000D02*
X56000000Y-128390700D01*
%TO.N,MiBUS1_5*%
X60278500Y-92025400D02*
X60278500Y-95206500D01*
X60278500Y-95206500D02*
X59916800Y-95568200D01*
X59165000Y-71425000D02*
X59116300Y-71473700D01*
X59916800Y-95568200D02*
X59916800Y-107572000D01*
X59116300Y-90863200D02*
X60278500Y-92025400D01*
X59116300Y-71473700D02*
X59116300Y-90863200D01*
%TO.N,MiBUS1_4*%
X56625000Y-71425000D02*
X56625000Y-72514300D01*
X57458600Y-79488900D02*
X57775500Y-79805800D01*
X57775500Y-79805800D02*
X57775500Y-102706800D01*
X57458600Y-73347900D02*
X57458600Y-79488900D01*
X56625000Y-72514300D02*
X57458600Y-73347900D01*
%TO.N,MiBUS2_3*%
X79650000Y-120657400D02*
X79650000Y-88597600D01*
X79650000Y-88597600D02*
X81130700Y-87116900D01*
X73500000Y-126807400D02*
X79650000Y-120657400D01*
%TO.N,SCL*%
X66785000Y-71425000D02*
X65676200Y-72533800D01*
X65676200Y-72533800D02*
X65676200Y-106016200D01*
X65676200Y-106016200D02*
X66160000Y-106500000D01*
X66160000Y-106500000D02*
X65589800Y-107070200D01*
X65589800Y-107070200D02*
X65589800Y-119774300D01*
%TO.N,MiBUS1_TX*%
X78524200Y-79730200D02*
X78524200Y-121087200D01*
X78524200Y-121087200D02*
X75900000Y-123711400D01*
%TO.N,SDA*%
X68700000Y-106500000D02*
X68700000Y-118957900D01*
X70259300Y-72359300D02*
X70259300Y-88743900D01*
X69325000Y-71425000D02*
X70259300Y-72359300D01*
X68216200Y-96623400D02*
X68216200Y-90787000D01*
X68700000Y-118957900D02*
X67970500Y-119687400D01*
X68700000Y-106500000D02*
X68700000Y-97107200D01*
X68700000Y-97107200D02*
X68216200Y-96623400D01*
X68216200Y-90787000D02*
X70259300Y-88743900D01*
%TO.N,MiBUS1_RX*%
X80012200Y-89628000D02*
X81903500Y-87736700D01*
X76700000Y-125188500D02*
X80012200Y-121876300D01*
X81903500Y-87736700D02*
X81903500Y-70267200D01*
X80012200Y-121876300D02*
X80012200Y-89628000D01*
%TO.N,MTCK*%
X88465400Y-118104600D02*
X88465400Y-108690800D01*
X88465400Y-108690800D02*
X81039300Y-101264700D01*
X87670000Y-118900000D02*
X88465400Y-118104600D01*
%TD*%
M02*
