%TF.GenerationSoftware,KiCad,Pcbnew,9.0.2*%
%TF.CreationDate,2026-08-05T14:45:05+03:00*%
%TF.ProjectId,a0,61302e6b-6963-4616-945f-706362585858,Rev 0.3*%
%TF.SameCoordinates,Original*%
%TF.FileFunction,Copper,L3,Inr*%
%TF.FilePolarity,Positive*%
%FSLAX46Y46*%
G04 Gerber Fmt 4.6, Leading zero omitted, Abs format (unit mm)*
G04 Created by KiCad (PCBNEW 9.0.2) date 2026-08-05 14:45:05*
%MOMM*%
%LPD*%
G01*
G04 APERTURE LIST*
G04 Aperture macros list*
%AMRoundRect*
0 Rectangle with rounded corners*
0 $1 Rounding radius*
0 $2 $3 $4 $5 $6 $7 $8 $9 X,Y pos of 4 corners*
0 Add a 4 corners polygon primitive as box body*
4,1,4,$2,$3,$4,$5,$6,$7,$8,$9,$2,$3,0*
0 Add four circle primitives for the rounded corners*
1,1,$1+$1,$2,$3*
1,1,$1+$1,$4,$5*
1,1,$1+$1,$6,$7*
1,1,$1+$1,$8,$9*
0 Add four rect primitives between the rounded corners*
20,1,$1+$1,$2,$3,$4,$5,0*
20,1,$1+$1,$4,$5,$6,$7,0*
20,1,$1+$1,$6,$7,$8,$9,0*
20,1,$1+$1,$8,$9,$2,$3,0*%
G04 Aperture macros list end*
%TA.AperFunction,ComponentPad*%
%ADD10C,5.000000*%
%TD*%
%TA.AperFunction,ComponentPad*%
%ADD11RoundRect,0.250000X-0.750000X0.600000X-0.750000X-0.600000X0.750000X-0.600000X0.750000X0.600000X0*%
%TD*%
%TA.AperFunction,ComponentPad*%
%ADD12O,2.000000X1.700000*%
%TD*%
%TA.AperFunction,ComponentPad*%
%ADD13R,1.700000X1.700000*%
%TD*%
%TA.AperFunction,ComponentPad*%
%ADD14C,1.700000*%
%TD*%
%TA.AperFunction,ComponentPad*%
%ADD15RoundRect,0.250001X1.149999X1.149999X-1.149999X1.149999X-1.149999X-1.149999X1.149999X-1.149999X0*%
%TD*%
%TA.AperFunction,ComponentPad*%
%ADD16C,2.800000*%
%TD*%
%TA.AperFunction,HeatsinkPad*%
%ADD17O,1.000000X2.100000*%
%TD*%
%TA.AperFunction,HeatsinkPad*%
%ADD18O,1.000000X1.800000*%
%TD*%
%TA.AperFunction,ComponentPad*%
%ADD19R,1.000000X1.000000*%
%TD*%
%TA.AperFunction,ComponentPad*%
%ADD20C,1.000000*%
%TD*%
%TA.AperFunction,ViaPad*%
%ADD21C,0.600000*%
%TD*%
%TA.AperFunction,ViaPad*%
%ADD22C,0.800000*%
%TD*%
%TA.AperFunction,Conductor*%
%ADD23C,0.150000*%
%TD*%
%TA.AperFunction,Conductor*%
%ADD24C,0.200000*%
%TD*%
G04 APERTURE END LIST*
D10*
%TO.N,GND*%
%TO.C,H4*%
X90743300Y-126666700D03*
%TD*%
D11*
%TO.N,VBAT*%
%TO.C,J9*%
X49000000Y-52000000D03*
D12*
%TO.N,GND*%
X49000000Y-54500000D03*
%TD*%
D13*
%TO.N,MiBUS2_4*%
%TO.C,J2*%
X56000000Y-106500000D03*
D14*
%TO.N,MiBUS2_5*%
X58540000Y-106500000D03*
%TO.N,MiBUS2_RX*%
X61080000Y-106500000D03*
%TO.N,MiBUS2_TX*%
X63620000Y-106500000D03*
%TO.N,SCL*%
X66160000Y-106500000D03*
%TO.N,SDA*%
X68700000Y-106500000D03*
%TO.N,FB_5V*%
X71240000Y-106500000D03*
%TO.N,GND*%
X73780000Y-106500000D03*
%TD*%
D10*
%TO.N,GND*%
%TO.C,H1*%
X45676700Y-60566700D03*
%TD*%
D13*
%TO.N,MiBUS2_1*%
%TO.C,J4*%
X56000000Y-129480000D03*
D14*
%TO.N,MiBUS2_2*%
X58540000Y-129480000D03*
%TO.N,MiBUS2_3*%
X61080000Y-129480000D03*
%TO.N,SCK*%
X63620000Y-129480000D03*
%TO.N,MISO*%
X66160000Y-129480000D03*
%TO.N,MOSI*%
X68700000Y-129480000D03*
%TO.N,+3V3*%
X71240000Y-129480000D03*
%TO.N,GND*%
X73780000Y-129480000D03*
%TD*%
D15*
%TO.N,Net-(D1-A)*%
%TO.C,J8*%
X59450000Y-52832500D03*
D16*
%TO.N,GND*%
X54450000Y-52832500D03*
%TD*%
D13*
%TO.N,MiBUS1_4*%
%TO.C,J3*%
X56625000Y-71425000D03*
D14*
%TO.N,MiBUS1_5*%
X59165000Y-71425000D03*
%TO.N,MiBUS1_RX*%
X61705000Y-71425000D03*
%TO.N,MiBUS1_TX*%
X64245000Y-71425000D03*
%TO.N,SCL*%
X66785000Y-71425000D03*
%TO.N,SDA*%
X69325000Y-71425000D03*
%TO.N,FB_5V*%
X71865000Y-71425000D03*
%TO.N,GND*%
X74405000Y-71425000D03*
%TD*%
D10*
%TO.N,GND*%
%TO.C,H3*%
X48760000Y-126700000D03*
%TD*%
D17*
%TO.N,GND*%
%TO.C,J7*%
X92920000Y-55490000D03*
D18*
X92920000Y-51290000D03*
D17*
X84280000Y-55490000D03*
D18*
X84280000Y-51290000D03*
%TD*%
D13*
%TO.N,MiBUS1_1*%
%TO.C,J1*%
X56625000Y-94405000D03*
D14*
%TO.N,MiBUS1_2*%
X59165000Y-94405000D03*
%TO.N,MiBUS1_3*%
X61705000Y-94405000D03*
%TO.N,SCK*%
X64245000Y-94405000D03*
%TO.N,MISO*%
X66785000Y-94405000D03*
%TO.N,MOSI*%
X69325000Y-94405000D03*
%TO.N,+3V3*%
X71865000Y-94405000D03*
%TO.N,GND*%
X74405000Y-94405000D03*
%TD*%
D19*
%TO.N,+3V3*%
%TO.C,J10*%
X86400000Y-117630000D03*
D20*
%TO.N,MTMS*%
X87670000Y-117630000D03*
%TO.N,GND*%
X86400000Y-118900000D03*
%TO.N,MTCK*%
X87670000Y-118900000D03*
%TO.N,GND*%
X86400000Y-120170000D03*
%TO.N,MTDO*%
X87670000Y-120170000D03*
%TO.N,unconnected-(J10-KEY-Pad7)*%
X86400000Y-121440000D03*
%TO.N,MTDI*%
X87670000Y-121440000D03*
%TO.N,GND*%
X86400000Y-122710000D03*
%TO.N,MCU_RST*%
X87670000Y-122710000D03*
%TD*%
D10*
%TO.N,GND*%
%TO.C,H2*%
X93900000Y-60500000D03*
%TD*%
D21*
%TO.N,+3V3*%
X71851700Y-120293400D03*
X53303800Y-94238200D03*
X65742500Y-115342300D03*
X73248800Y-68140000D03*
%TO.N,GND*%
X48568000Y-65592700D03*
X51859200Y-81496700D03*
X81672500Y-131573700D03*
X70950000Y-110248800D03*
X59800000Y-57435700D03*
X82022300Y-124750100D03*
X75501200Y-80711700D03*
X49000000Y-59017700D03*
X55700000Y-83803500D03*
X51986800Y-99130600D03*
X85077700Y-74156000D03*
X55247600Y-110129400D03*
X75498800Y-74537800D03*
X71999700Y-80777200D03*
X53214600Y-118650000D03*
X75167100Y-110251200D03*
X70675300Y-127486000D03*
X52350000Y-89455200D03*
X93754200Y-107434200D03*
X89000000Y-76760500D03*
X90115700Y-122252600D03*
X70887500Y-102705200D03*
X69524500Y-82480800D03*
X49714500Y-118650000D03*
X88200000Y-59200000D03*
X63686400Y-81570700D03*
X93732700Y-120110900D03*
X84133100Y-81037400D03*
X87100000Y-127697300D03*
%TO.N,MCU_RST*%
X78925900Y-115590600D03*
%TO.N,GPIO9*%
X51100000Y-97268000D03*
X71852300Y-124325600D03*
%TO.N,FB_5V*%
X53219600Y-74458700D03*
D22*
%TO.N,VBAT*%
X58752800Y-76669400D03*
X76793400Y-70900000D03*
D21*
%TO.N,USB_D-*%
X88350000Y-55016200D03*
X77789100Y-111975600D03*
X69515900Y-115901500D03*
%TO.N,USB_D+*%
X78620600Y-116722800D03*
X90435200Y-57467400D03*
X87358300Y-55007700D03*
X88793500Y-57179100D03*
%TO.N,MTDI*%
X81266000Y-95331100D03*
%TO.N,MTMS*%
X79104500Y-91543400D03*
%TO.N,Net-(U7-VI)*%
X50514500Y-84169300D03*
X53149800Y-117076700D03*
X87803200Y-73043500D03*
%TO.N,Net-(D7-K)*%
X58400000Y-84392000D03*
X83425600Y-72031000D03*
%TO.N,MISO*%
X72816700Y-124729200D03*
%TO.N,SCK*%
X72701600Y-126858700D03*
%TO.N,MOSI*%
X91255900Y-85920000D03*
%TO.N,Net-(JP1-B)*%
X67900000Y-123718400D03*
%TO.N,MiBUS1_3*%
X76571100Y-113340600D03*
%TO.N,MiBUS1_2*%
X48111000Y-79571000D03*
X62597300Y-109001700D03*
%TO.N,MiBUS2_1*%
X57195200Y-90674400D03*
%TO.N,MiBUS2_2*%
X74300000Y-125132900D03*
X47820400Y-86900400D03*
%TO.N,MiBUS1_5*%
X63757400Y-108642700D03*
%TO.N,MiBUS1_4*%
X61819100Y-107774100D03*
X76278900Y-110381500D03*
%TO.N,MiBUS2_3*%
X73556000Y-126857900D03*
X77371700Y-87258800D03*
%TO.N,SCL*%
X76571400Y-108475700D03*
X65036600Y-119722200D03*
%TO.N,MiBUS1_TX*%
X76043000Y-125147800D03*
X77728700Y-79728800D03*
%TO.N,SDA*%
X67900000Y-119633300D03*
%TO.N,MiBUS1_RX*%
X76834600Y-125127400D03*
X80689700Y-77667600D03*
%TO.N,Net-(JP1-A)*%
X65864300Y-124278600D03*
%TO.N,MiBUS2_RX*%
X77554400Y-99835300D03*
%TO.N,GPIO4*%
X87173300Y-91543400D03*
X73509400Y-112791100D03*
%TO.N,GPIO7*%
X86741300Y-108452000D03*
X71871900Y-118471900D03*
%TO.N,MTCK*%
X80475100Y-101418300D03*
%TO.N,GPIO6*%
X72175600Y-117700000D03*
X86936700Y-103176600D03*
%TO.N,MiBUS2_5*%
X75100000Y-125132900D03*
%TD*%
D23*
%TO.N,+3V3*%
X72335000Y-116795800D02*
X71318000Y-117812800D01*
X71865000Y-94405000D02*
X72335000Y-94405000D01*
X72959900Y-68428900D02*
X72959900Y-93780100D01*
X71318000Y-120293400D02*
X71851700Y-120293400D01*
X73248800Y-68140000D02*
X72959900Y-68428900D01*
X71318000Y-126888800D02*
X71552000Y-127122800D01*
X71318000Y-120293400D02*
X71318000Y-126888800D01*
X71552000Y-127122800D02*
X71552000Y-129168000D01*
X72335000Y-94405000D02*
X72335000Y-116795800D01*
X72959900Y-93780100D02*
X72335000Y-94405000D01*
X71552000Y-129168000D02*
X71240000Y-129480000D01*
X71318000Y-117812800D02*
X71318000Y-120293400D01*
D24*
%TO.N,GND*%
X52350000Y-89455200D02*
X52350000Y-98767400D01*
X52350000Y-81987500D02*
X51859200Y-81496700D01*
X55247600Y-116617000D02*
X55247600Y-110129400D01*
X51859200Y-81496700D02*
X48568000Y-78205500D01*
X90115700Y-126039100D02*
X90115700Y-122252600D01*
X93732700Y-120110900D02*
X93732700Y-107455700D01*
X48760000Y-126700000D02*
X49714500Y-125745500D01*
X49000000Y-59017700D02*
X49000000Y-54500000D01*
X48568000Y-78205500D02*
X48568000Y-65592700D01*
X49714500Y-125745500D02*
X49714500Y-118650000D01*
X85077700Y-80092800D02*
X84133100Y-81037400D01*
X93732700Y-107455700D02*
X93754200Y-107434200D01*
X73780000Y-106500000D02*
X74405000Y-105875000D01*
X74405000Y-105875000D02*
X74405000Y-94405000D01*
X93900000Y-60500000D02*
X92920000Y-59520000D01*
X85077700Y-74156000D02*
X85077700Y-80092800D01*
X75501100Y-93308900D02*
X75501100Y-80711700D01*
X55247600Y-110129400D02*
X51986800Y-106868600D01*
X52350000Y-98767400D02*
X51986800Y-99130600D01*
X84280000Y-55490000D02*
X84280000Y-51290000D01*
X74405000Y-94405000D02*
X75501100Y-93308900D01*
X92920000Y-59520000D02*
X92920000Y-55490000D01*
X75167100Y-107887100D02*
X75167100Y-110251200D01*
X51986800Y-106868600D02*
X51986800Y-99130600D01*
X52350000Y-89455200D02*
X52350000Y-81987500D01*
X86400000Y-118900000D02*
X86400000Y-120170000D01*
X90743300Y-126666700D02*
X90115700Y-126039100D01*
X53214600Y-118650000D02*
X55247600Y-116617000D01*
X92920000Y-55490000D02*
X92920000Y-51290000D01*
X73780000Y-106500000D02*
X75167100Y-107887100D01*
X75501100Y-80711700D02*
X75501200Y-80711700D01*
D23*
%TO.N,FB_5V*%
X71824200Y-105915800D02*
X71824200Y-97351000D01*
X70748600Y-96275400D02*
X70748600Y-72541400D01*
X71240000Y-106500000D02*
X71824200Y-105915800D01*
X70748600Y-72541400D02*
X71865000Y-71425000D01*
X71824200Y-97351000D02*
X70748600Y-96275400D01*
D24*
%TO.N,VBAT*%
X52449800Y-55449800D02*
X52449800Y-70366400D01*
X52449800Y-70366400D02*
X58752800Y-76669400D01*
X49000000Y-52000000D02*
X52449800Y-55449800D01*
D23*
%TO.N,USB_D-*%
X79021000Y-89353400D02*
X79021000Y-72940600D01*
X86600000Y-56766200D02*
X88350000Y-55016200D01*
X77936300Y-92847600D02*
X77936300Y-90438100D01*
X79021000Y-72940600D02*
X86600000Y-65361600D01*
X78081200Y-111683500D02*
X78081200Y-92992500D01*
X77936300Y-90438100D02*
X79021000Y-89353400D01*
X77789100Y-111975600D02*
X78081200Y-111683500D01*
X78081200Y-92992500D02*
X77936300Y-92847600D01*
X86600000Y-65361600D02*
X86600000Y-56766200D01*
%TO.N,USB_D+*%
X82272700Y-87321700D02*
X82272700Y-70381300D01*
X82272700Y-70381300D02*
X88793500Y-63860500D01*
X88793500Y-63860500D02*
X88793500Y-57179100D01*
X78684600Y-112251700D02*
X78684600Y-92742500D01*
X78382900Y-116485100D02*
X78382900Y-112553400D01*
X78577700Y-92635600D02*
X78577700Y-91016700D01*
X78684600Y-92742500D02*
X78577700Y-92635600D01*
X78382900Y-112553400D02*
X78684600Y-112251700D01*
X78620600Y-116722800D02*
X78382900Y-116485100D01*
X78577700Y-91016700D02*
X82272700Y-87321700D01*
%TO.N,MTDI*%
X88707100Y-120402900D02*
X88707100Y-102772200D01*
X88707100Y-102772200D02*
X81266000Y-95331100D01*
X87670000Y-121440000D02*
X88707100Y-120402900D01*
%TO.N,MTMS*%
X79104500Y-108237200D02*
X79104500Y-91543400D01*
X87670000Y-116802700D02*
X79104500Y-108237200D01*
X87670000Y-117630000D02*
X87670000Y-116802700D01*
%TO.N,Net-(U7-VI)*%
X50514500Y-114441400D02*
X50514500Y-84169300D01*
X53149800Y-117076700D02*
X50514500Y-114441400D01*
%TO.N,MISO*%
X72335000Y-127995200D02*
X72335000Y-129986700D01*
X68278100Y-130598900D02*
X66659600Y-128980400D01*
X67240000Y-128400000D02*
X66659600Y-128980400D01*
X72816700Y-124729200D02*
X72174800Y-125371100D01*
X66659600Y-128980400D02*
X66160000Y-129480000D01*
X72174800Y-125371100D02*
X72174800Y-127835000D01*
X66785000Y-94405000D02*
X67240000Y-94860000D01*
X72335000Y-129986700D02*
X71722800Y-130598900D01*
X67240000Y-94860000D02*
X67240000Y-128400000D01*
X72174800Y-127835000D02*
X72335000Y-127995200D01*
X71722800Y-130598900D02*
X68278100Y-130598900D01*
%TO.N,SCK*%
X64728700Y-94888700D02*
X64728700Y-119285300D01*
X63620000Y-120394000D02*
X63620000Y-129480000D01*
X64245000Y-94405000D02*
X64728700Y-94888700D01*
X64728700Y-119285300D02*
X63620000Y-120394000D01*
%TO.N,MOSI*%
X70042600Y-115683300D02*
X69808800Y-115449500D01*
X69808800Y-94888800D02*
X69325000Y-94405000D01*
X69808800Y-115449500D02*
X69808800Y-94888800D01*
X68700000Y-129480000D02*
X68700000Y-119361500D01*
X68700000Y-119361500D02*
X70042600Y-118018900D01*
X70042600Y-118018900D02*
X70042600Y-115683300D01*
%TO.N,MiBUS1_2*%
X59810000Y-106826400D02*
X59810000Y-95050000D01*
X62597300Y-109001700D02*
X61985300Y-109001700D01*
X59810000Y-95050000D02*
X59165000Y-94405000D01*
X61985300Y-109001700D02*
X59810000Y-106826400D01*
%TO.N,MiBUS2_1*%
X56000000Y-129480000D02*
X56000000Y-128403300D01*
X57701700Y-91180900D02*
X57195200Y-90674400D01*
X57076700Y-95973900D02*
X57701700Y-95348900D01*
X57701700Y-95348900D02*
X57701700Y-91180900D01*
X57076700Y-127326600D02*
X57076700Y-95973900D01*
X56000000Y-128403300D02*
X57076700Y-127326600D01*
%TO.N,MiBUS1_5*%
X62781700Y-75041700D02*
X62781700Y-104205100D01*
X62513700Y-104473100D02*
X62513700Y-107399000D01*
X62513700Y-107399000D02*
X63757400Y-108642700D01*
X62781700Y-104205100D02*
X62513700Y-104473100D01*
X59165000Y-71425000D02*
X62781700Y-75041700D01*
%TO.N,MiBUS1_4*%
X62182400Y-107410800D02*
X61819100Y-107774100D01*
X56625000Y-72501700D02*
X60435100Y-76311800D01*
X60435100Y-102007000D02*
X62182400Y-103754300D01*
X60435100Y-76311800D02*
X60435100Y-102007000D01*
X62182400Y-103754300D02*
X62182400Y-107410800D01*
X56625000Y-71425000D02*
X56625000Y-72501700D01*
%TO.N,MiBUS2_3*%
X77147200Y-112544200D02*
X77147200Y-120630900D01*
X76726000Y-107254900D02*
X77147200Y-107676100D01*
X77371700Y-87258800D02*
X76726000Y-87904500D01*
X76726000Y-87904500D02*
X76726000Y-107254900D01*
X76941200Y-112338200D02*
X77147200Y-112544200D01*
X77147200Y-111446000D02*
X76941200Y-111652000D01*
X77147200Y-120630900D02*
X73556000Y-124222100D01*
X76941200Y-111652000D02*
X76941200Y-112338200D01*
X77147200Y-107676100D02*
X77147200Y-111446000D01*
X73556000Y-124222100D02*
X73556000Y-126857900D01*
%TO.N,SCL*%
X66160000Y-106500000D02*
X65676200Y-106016200D01*
X65036600Y-119722200D02*
X66292300Y-118466500D01*
X65676200Y-106016200D02*
X65676200Y-72533800D01*
X66292300Y-106632300D02*
X66160000Y-106500000D01*
X66292300Y-118466500D02*
X66292300Y-106632300D01*
X65676200Y-72533800D02*
X66785000Y-71425000D01*
%TO.N,MiBUS1_TX*%
X77027700Y-88347700D02*
X77027700Y-100053400D01*
X77027700Y-100053400D02*
X77457900Y-100483600D01*
X77898400Y-87477000D02*
X77027700Y-88347700D01*
X77242900Y-112213200D02*
X77457900Y-112428200D01*
X77457900Y-112428200D02*
X77457900Y-123732900D01*
X77728700Y-79728800D02*
X77898400Y-79898500D01*
X77898400Y-79898500D02*
X77898400Y-87477000D01*
X77457900Y-111562000D02*
X77242900Y-111777000D01*
X77457900Y-123732900D02*
X76043000Y-125147800D01*
X77457900Y-100483600D02*
X77457900Y-111562000D01*
X77242900Y-111777000D02*
X77242900Y-112213200D01*
%TO.N,SDA*%
X69325000Y-71425000D02*
X68216200Y-72533800D01*
X68700000Y-118833300D02*
X67900000Y-119633300D01*
X68216200Y-106016200D02*
X68700000Y-106500000D01*
X68700000Y-106500000D02*
X68700000Y-118833300D01*
X68216200Y-72533800D02*
X68216200Y-106016200D01*
%TO.N,MiBUS1_RX*%
X76834600Y-125127400D02*
X78081200Y-123880800D01*
X78249900Y-92734500D02*
X78249900Y-90767600D01*
X78081200Y-112428400D02*
X78382900Y-112126700D01*
X78249900Y-90767600D02*
X80689700Y-88327800D01*
X80689700Y-88327800D02*
X80689700Y-77667600D01*
X78382900Y-92867500D02*
X78249900Y-92734500D01*
X78081200Y-123880800D02*
X78081200Y-112428400D01*
X78382900Y-112126700D02*
X78382900Y-92867500D01*
%TO.N,MTCK*%
X88405400Y-109348600D02*
X80475100Y-101418300D01*
X87670000Y-118900000D02*
X88405400Y-118164600D01*
X88405400Y-118164600D02*
X88405400Y-109348600D01*
%TD*%
%TA.AperFunction,Conductor*%
%TO.N,SDA*%
G36*
X69317318Y-71422481D02*
G01*
X69324770Y-71427448D01*
X69326525Y-71431679D01*
X69488802Y-72248478D01*
X69487053Y-72257260D01*
X69480949Y-72261883D01*
X68292965Y-72648813D01*
X68289342Y-72649388D01*
X68156212Y-72649388D01*
X68147939Y-72645961D01*
X68144512Y-72637688D01*
X68144866Y-72634831D01*
X68239605Y-72258667D01*
X68488619Y-71269946D01*
X68493962Y-71262763D01*
X68502233Y-71261328D01*
X69317318Y-71422481D01*
G37*
%TD.AperFunction*%
%TD*%
%TA.AperFunction,Conductor*%
%TO.N,MOSI*%
G36*
X70147204Y-94568533D02*
G01*
X70154644Y-94573517D01*
X70156382Y-94582293D01*
X69885676Y-95940771D01*
X69880699Y-95948214D01*
X69874202Y-95950184D01*
X69738478Y-95950184D01*
X69730412Y-95946960D01*
X68859893Y-95118532D01*
X68856263Y-95110346D01*
X68858226Y-95103563D01*
X69320653Y-94410513D01*
X69328094Y-94405535D01*
X69332675Y-94405535D01*
X70147204Y-94568533D01*
G37*
%TD.AperFunction*%
%TD*%
%TA.AperFunction,Conductor*%
%TO.N,SDA*%
G36*
X68294588Y-104958040D02*
G01*
X69165106Y-105786467D01*
X69168736Y-105794653D01*
X69166772Y-105801437D01*
X68704347Y-106494484D01*
X68696905Y-106499464D01*
X68692319Y-106499463D01*
X67877795Y-106336466D01*
X67870355Y-106331482D01*
X67868617Y-106322708D01*
X68139324Y-104964228D01*
X68144301Y-104956786D01*
X68150798Y-104954816D01*
X68286522Y-104954816D01*
X68294588Y-104958040D01*
G37*
%TD.AperFunction*%
%TD*%
%TA.AperFunction,Conductor*%
%TO.N,GND*%
G36*
X74612330Y-106337930D02*
G01*
X74616922Y-106343960D01*
X75038962Y-107612966D01*
X75038321Y-107621898D01*
X75036133Y-107624931D01*
X74904931Y-107756133D01*
X74896658Y-107759560D01*
X74892966Y-107758962D01*
X73623960Y-107336922D01*
X73617191Y-107331060D01*
X73616175Y-107323549D01*
X73777772Y-106506978D01*
X73782739Y-106499527D01*
X73786977Y-106497772D01*
X74603549Y-106336175D01*
X74612330Y-106337930D01*
G37*
%TD.AperFunction*%
%TD*%
%TA.AperFunction,Conductor*%
%TO.N,GND*%
G36*
X49814810Y-123405843D02*
G01*
X49817421Y-123409824D01*
X50354718Y-124772307D01*
X50354565Y-124781260D01*
X50352833Y-124784076D01*
X48777106Y-126680412D01*
X48769183Y-126684585D01*
X48760630Y-126681934D01*
X48756507Y-126674462D01*
X48435496Y-124235065D01*
X48437814Y-124226418D01*
X48440383Y-124223959D01*
X49603913Y-123409824D01*
X49611479Y-123404530D01*
X49618187Y-123402416D01*
X49806537Y-123402416D01*
X49814810Y-123405843D01*
G37*
%TD.AperFunction*%
%TD*%
%TA.AperFunction,Conductor*%
%TO.N,GND*%
G36*
X92926111Y-51301423D02*
G01*
X92929977Y-51305289D01*
X93332527Y-51962548D01*
X93333926Y-51971393D01*
X93333247Y-51973399D01*
X93023084Y-52673433D01*
X93016600Y-52679608D01*
X93012387Y-52680393D01*
X92827613Y-52680393D01*
X92819340Y-52676966D01*
X92816916Y-52673433D01*
X92506752Y-51973399D01*
X92506534Y-51964446D01*
X92507469Y-51962552D01*
X92910023Y-51305288D01*
X92917266Y-51300024D01*
X92926111Y-51301423D01*
G37*
%TD.AperFunction*%
%TD*%
%TA.AperFunction,Conductor*%
%TO.N,GND*%
G36*
X93022987Y-57215023D02*
G01*
X94199324Y-58019982D01*
X94204217Y-58027482D01*
X94204329Y-58031069D01*
X93903272Y-60474437D01*
X93898859Y-60482229D01*
X93890229Y-60484618D01*
X93882725Y-60480558D01*
X92292464Y-58598788D01*
X92289742Y-58590258D01*
X92290482Y-58587037D01*
X92817112Y-57220471D01*
X92823284Y-57213984D01*
X92828029Y-57212979D01*
X93016380Y-57212979D01*
X93022987Y-57215023D01*
G37*
%TD.AperFunction*%
%TD*%
%TA.AperFunction,Conductor*%
%TO.N,+3V3*%
G36*
X73027706Y-93384914D02*
G01*
X73031133Y-93393187D01*
X73030692Y-93396370D01*
X72701604Y-94560438D01*
X72696055Y-94567467D01*
X72688076Y-94568733D01*
X71872681Y-94407518D01*
X71865229Y-94402551D01*
X71863474Y-94398320D01*
X71701539Y-93583243D01*
X71703288Y-93574463D01*
X71710735Y-93569489D01*
X71711113Y-93569421D01*
X72883982Y-93381634D01*
X72885832Y-93381487D01*
X73019433Y-93381487D01*
X73027706Y-93384914D01*
G37*
%TD.AperFunction*%
%TD*%
%TA.AperFunction,Conductor*%
%TO.N,SDA*%
G36*
X68706509Y-106503358D02*
G01*
X69398036Y-106966401D01*
X69403003Y-106973851D01*
X69401900Y-106981532D01*
X68778280Y-108177377D01*
X68771416Y-108183128D01*
X68767906Y-108183667D01*
X68632094Y-108183667D01*
X68623821Y-108180240D01*
X68621720Y-108177377D01*
X67998099Y-106981532D01*
X67997312Y-106972612D01*
X68001960Y-106966402D01*
X68693490Y-106503358D01*
X68702271Y-106501604D01*
X68706509Y-106503358D01*
G37*
%TD.AperFunction*%
%TD*%
%TA.AperFunction,Conductor*%
%TO.N,SCL*%
G36*
X66777318Y-71422481D02*
G01*
X66784770Y-71427448D01*
X66786525Y-71431679D01*
X66948802Y-72248478D01*
X66947053Y-72257260D01*
X66940949Y-72261883D01*
X65752965Y-72648813D01*
X65749342Y-72649388D01*
X65616212Y-72649388D01*
X65607939Y-72645961D01*
X65604512Y-72637688D01*
X65604866Y-72634831D01*
X65699605Y-72258667D01*
X65948619Y-71269946D01*
X65953962Y-71262763D01*
X65962233Y-71261328D01*
X66777318Y-71422481D01*
G37*
%TD.AperFunction*%
%TD*%
%TA.AperFunction,Conductor*%
%TO.N,MiBUS2_1*%
G36*
X56394656Y-127916478D02*
G01*
X56492688Y-128014510D01*
X56494537Y-128016914D01*
X56845488Y-128622218D01*
X56846673Y-128631094D01*
X56843639Y-128636360D01*
X56008833Y-129471166D01*
X56000560Y-129474593D01*
X55992287Y-129471166D01*
X55991199Y-129469912D01*
X55368697Y-128639658D01*
X55366476Y-128630983D01*
X55371039Y-128623278D01*
X55371272Y-128623108D01*
X56379663Y-127915174D01*
X56388400Y-127913226D01*
X56394656Y-127916478D01*
G37*
%TD.AperFunction*%
%TD*%
%TA.AperFunction,Conductor*%
%TO.N,MISO*%
G36*
X66789747Y-94404950D02*
G01*
X67607005Y-94568493D01*
X67614445Y-94573477D01*
X67616182Y-94582262D01*
X67616142Y-94582449D01*
X67317002Y-95959671D01*
X67311898Y-95967029D01*
X67305569Y-95968888D01*
X67169862Y-95968888D01*
X67161589Y-95965461D01*
X67161570Y-95965443D01*
X66088276Y-94887305D01*
X66084868Y-94879024D01*
X66088313Y-94870758D01*
X66090050Y-94869334D01*
X66780962Y-94406703D01*
X66789741Y-94404949D01*
X66789747Y-94404950D01*
G37*
%TD.AperFunction*%
%TD*%
%TA.AperFunction,Conductor*%
%TO.N,VBAT*%
G36*
X49998549Y-51801704D02*
G01*
X50003206Y-51807855D01*
X50502963Y-53356932D01*
X50502242Y-53365857D01*
X50500101Y-53368797D01*
X50369101Y-53499797D01*
X50360828Y-53503224D01*
X50356654Y-53502454D01*
X48659147Y-52854287D01*
X48652641Y-52848135D01*
X48652391Y-52839183D01*
X48652487Y-52838939D01*
X48996910Y-52005061D01*
X49003235Y-51998725D01*
X49005404Y-51998063D01*
X49989765Y-51799977D01*
X49998549Y-51801704D01*
G37*
%TD.AperFunction*%
%TD*%
%TA.AperFunction,Conductor*%
%TO.N,MOSI*%
G36*
X68776179Y-127799760D02*
G01*
X68778280Y-127802623D01*
X69401900Y-128998467D01*
X69402687Y-129007387D01*
X69398036Y-129013599D01*
X68706510Y-129476640D01*
X68697729Y-129478395D01*
X68693490Y-129476640D01*
X68240389Y-129173247D01*
X68001962Y-129013598D01*
X67996996Y-129006148D01*
X67998098Y-128998469D01*
X68621720Y-127802623D01*
X68628584Y-127796872D01*
X68632094Y-127796333D01*
X68767906Y-127796333D01*
X68776179Y-127799760D01*
G37*
%TD.AperFunction*%
%TD*%
%TA.AperFunction,Conductor*%
%TO.N,MISO*%
G36*
X66873521Y-129015176D02*
G01*
X67640195Y-129854217D01*
X67643246Y-129862636D01*
X67639831Y-129870382D01*
X67543825Y-129966388D01*
X67538747Y-129969370D01*
X66338016Y-130310207D01*
X66329121Y-130309170D01*
X66323566Y-130302147D01*
X66323347Y-130301242D01*
X66256942Y-129968540D01*
X66160826Y-129486973D01*
X66162568Y-129478190D01*
X66165808Y-129474950D01*
X66858397Y-129013331D01*
X66867180Y-129011595D01*
X66873521Y-129015176D01*
G37*
%TD.AperFunction*%
%TD*%
%TA.AperFunction,Conductor*%
%TO.N,GND*%
G36*
X75594246Y-93178779D02*
G01*
X75597673Y-93187052D01*
X75597297Y-93189993D01*
X75241439Y-94560150D01*
X75236043Y-94567296D01*
X75227846Y-94568687D01*
X74412681Y-94407518D01*
X74405229Y-94402551D01*
X74403474Y-94398320D01*
X74241169Y-93581382D01*
X74242918Y-93572600D01*
X74248868Y-93568028D01*
X75399266Y-93175976D01*
X75403040Y-93175352D01*
X75585973Y-93175352D01*
X75594246Y-93178779D01*
G37*
%TD.AperFunction*%
%TD*%
%TA.AperFunction,Conductor*%
%TO.N,GND*%
G36*
X74411510Y-94408359D02*
G01*
X75103178Y-94871496D01*
X75108145Y-94878947D01*
X75107129Y-94886458D01*
X74508236Y-96082207D01*
X74501467Y-96088069D01*
X74497775Y-96088667D01*
X74312225Y-96088667D01*
X74303952Y-96085240D01*
X74301764Y-96082207D01*
X73702870Y-94886458D01*
X73702229Y-94877526D01*
X73706820Y-94871497D01*
X74398490Y-94408358D01*
X74407271Y-94406604D01*
X74411510Y-94408359D01*
G37*
%TD.AperFunction*%
%TD*%
%TA.AperFunction,Conductor*%
%TO.N,GND*%
G36*
X84380660Y-53953034D02*
G01*
X84383084Y-53956567D01*
X84693497Y-54657165D01*
X84693715Y-54666118D01*
X84693258Y-54667151D01*
X84290458Y-55470151D01*
X84283685Y-55476009D01*
X84274754Y-55475363D01*
X84269542Y-55470151D01*
X83866741Y-54667151D01*
X83866095Y-54658220D01*
X83866498Y-54657173D01*
X84176916Y-53956566D01*
X84183400Y-53950392D01*
X84187613Y-53949607D01*
X84372387Y-53949607D01*
X84380660Y-53953034D01*
G37*
%TD.AperFunction*%
%TD*%
%TA.AperFunction,Conductor*%
%TO.N,FB_5V*%
G36*
X71897260Y-105058643D02*
G01*
X71900580Y-105065335D01*
X72072180Y-106323276D01*
X72069902Y-106331936D01*
X72062883Y-106336330D01*
X71247680Y-106499463D01*
X71238895Y-106497726D01*
X71235652Y-106494484D01*
X71127194Y-106331936D01*
X70773901Y-105802448D01*
X70772160Y-105793665D01*
X70776600Y-105786607D01*
X71746076Y-105057564D01*
X71753108Y-105055216D01*
X71888987Y-105055216D01*
X71897260Y-105058643D01*
G37*
%TD.AperFunction*%
%TD*%
%TA.AperFunction,Conductor*%
%TO.N,SCL*%
G36*
X65754588Y-104958040D02*
G01*
X66625106Y-105786467D01*
X66628736Y-105794653D01*
X66626772Y-105801437D01*
X66164347Y-106494484D01*
X66156905Y-106499464D01*
X66152319Y-106499463D01*
X65337795Y-106336466D01*
X65330355Y-106331482D01*
X65328617Y-106322708D01*
X65599324Y-104964228D01*
X65604301Y-104956786D01*
X65610798Y-104954816D01*
X65746522Y-104954816D01*
X65754588Y-104958040D01*
G37*
%TD.AperFunction*%
%TD*%
%TA.AperFunction,Conductor*%
%TO.N,GND*%
G36*
X49005748Y-54502246D02*
G01*
X49839430Y-54973015D01*
X49844949Y-54980067D01*
X49843865Y-54988956D01*
X49843646Y-54989327D01*
X49103425Y-56194424D01*
X49096175Y-56199680D01*
X49093456Y-56200000D01*
X48906544Y-56200000D01*
X48898271Y-56196573D01*
X48896575Y-56194424D01*
X48156353Y-54989327D01*
X48154942Y-54980484D01*
X48160198Y-54973234D01*
X48160536Y-54973033D01*
X48994248Y-54502247D01*
X49003136Y-54501164D01*
X49005748Y-54502246D01*
G37*
%TD.AperFunction*%
%TD*%
%TA.AperFunction,Conductor*%
%TO.N,MISO*%
G36*
X67308589Y-128247110D02*
G01*
X67312016Y-128255383D01*
X67311720Y-128257997D01*
X66996203Y-129634761D01*
X66991015Y-129642059D01*
X66982530Y-129643625D01*
X66167681Y-129482518D01*
X66160229Y-129477551D01*
X66158474Y-129473320D01*
X65996163Y-128656351D01*
X65997912Y-128647572D01*
X66003832Y-128643011D01*
X67163151Y-128244319D01*
X67166956Y-128243683D01*
X67300316Y-128243683D01*
X67308589Y-128247110D01*
G37*
%TD.AperFunction*%
%TD*%
%TA.AperFunction,Conductor*%
%TO.N,SCL*%
G36*
X66164747Y-106499950D02*
G01*
X66979724Y-106663036D01*
X66987163Y-106668020D01*
X66988900Y-106676805D01*
X66988242Y-106678972D01*
X66370286Y-108176430D01*
X66363963Y-108182770D01*
X66359471Y-108183667D01*
X66223753Y-108183667D01*
X66215480Y-108180240D01*
X66213857Y-108178208D01*
X65459324Y-106981864D01*
X65457809Y-106973039D01*
X65462710Y-106965901D01*
X66155962Y-106501703D01*
X66164741Y-106499949D01*
X66164747Y-106499950D01*
G37*
%TD.AperFunction*%
%TD*%
%TA.AperFunction,Conductor*%
%TO.N,+3V3*%
G36*
X71626622Y-127860307D02*
G01*
X71629535Y-127865151D01*
X72069877Y-129301808D01*
X72069025Y-129310723D01*
X72062120Y-129316423D01*
X72060987Y-129316710D01*
X71244766Y-129480046D01*
X71235981Y-129478309D01*
X71235960Y-129478295D01*
X70990853Y-129314173D01*
X70543962Y-129014937D01*
X70538995Y-129007486D01*
X70540750Y-128998705D01*
X70541417Y-128997806D01*
X71473489Y-127861160D01*
X71481385Y-127856937D01*
X71482536Y-127856880D01*
X71618349Y-127856880D01*
X71626622Y-127860307D01*
G37*
%TD.AperFunction*%
%TD*%
%TA.AperFunction,Conductor*%
%TO.N,MiBUS1_2*%
G36*
X59988359Y-94568764D02*
G01*
X59995799Y-94573748D01*
X59997715Y-94581296D01*
X59885967Y-95810859D01*
X59881805Y-95818788D01*
X59874315Y-95821500D01*
X59738607Y-95821500D01*
X59732021Y-95819471D01*
X58702344Y-95118272D01*
X58697435Y-95110782D01*
X58699198Y-95102107D01*
X59160653Y-94410513D01*
X59168094Y-94405535D01*
X59172675Y-94405535D01*
X59988359Y-94568764D01*
G37*
%TD.AperFunction*%
%TD*%
%TA.AperFunction,Conductor*%
%TO.N,GND*%
G36*
X84286111Y-51301423D02*
G01*
X84289977Y-51305289D01*
X84692527Y-51962548D01*
X84693926Y-51971393D01*
X84693247Y-51973399D01*
X84383084Y-52673433D01*
X84376600Y-52679608D01*
X84372387Y-52680393D01*
X84187613Y-52680393D01*
X84179340Y-52676966D01*
X84176916Y-52673433D01*
X83866752Y-51973399D01*
X83866534Y-51964446D01*
X83867469Y-51962552D01*
X84270023Y-51305288D01*
X84277266Y-51300024D01*
X84286111Y-51301423D01*
G37*
%TD.AperFunction*%
%TD*%
%TA.AperFunction,Conductor*%
%TO.N,GND*%
G36*
X74502539Y-105078643D02*
G01*
X74505923Y-105085910D01*
X74612767Y-106323747D01*
X74610064Y-106332284D01*
X74603406Y-106336226D01*
X73787680Y-106499463D01*
X73778895Y-106497726D01*
X73775652Y-106494484D01*
X73668687Y-106334173D01*
X73314030Y-105802641D01*
X73312289Y-105793859D01*
X73316924Y-105786655D01*
X74290148Y-105085910D01*
X74301938Y-105077421D01*
X74308775Y-105075216D01*
X74494266Y-105075216D01*
X74502539Y-105078643D01*
G37*
%TD.AperFunction*%
%TD*%
%TA.AperFunction,Conductor*%
%TO.N,MiBUS1_4*%
G36*
X56632579Y-71432745D02*
G01*
X56633833Y-71433833D01*
X57468639Y-72268639D01*
X57472066Y-72276912D01*
X57470488Y-72282781D01*
X57119537Y-72888085D01*
X57117688Y-72890489D01*
X57019656Y-72988521D01*
X57011383Y-72991948D01*
X57004661Y-72989824D01*
X55996334Y-72281935D01*
X55991533Y-72274377D01*
X55993482Y-72265637D01*
X55993664Y-72265386D01*
X56616200Y-71435085D01*
X56623904Y-71430524D01*
X56632579Y-71432745D01*
G37*
%TD.AperFunction*%
%TD*%
%TA.AperFunction,Conductor*%
%TO.N,FB_5V*%
G36*
X71857318Y-71422481D02*
G01*
X71864770Y-71427448D01*
X71866525Y-71431679D01*
X72028794Y-72248435D01*
X72027045Y-72257217D01*
X72020894Y-72261855D01*
X70825344Y-72645680D01*
X70821768Y-72646240D01*
X70688700Y-72646240D01*
X70680427Y-72642813D01*
X70677000Y-72634540D01*
X70677371Y-72631618D01*
X70776196Y-72248435D01*
X71028574Y-71269869D01*
X71033957Y-71262716D01*
X71042168Y-71261315D01*
X71857318Y-71422481D01*
G37*
%TD.AperFunction*%
%TD*%
%TA.AperFunction,Conductor*%
%TO.N,MiBUS1_5*%
G36*
X59997161Y-71262963D02*
G01*
X60001812Y-71269175D01*
X60406436Y-72555732D01*
X60405649Y-72564652D01*
X60403548Y-72567515D01*
X60307515Y-72663548D01*
X60299242Y-72666975D01*
X60295732Y-72666436D01*
X59009175Y-72261812D01*
X59002311Y-72256061D01*
X59001208Y-72248382D01*
X59162772Y-71431977D01*
X59167739Y-71424527D01*
X59171977Y-71422772D01*
X59988381Y-71261208D01*
X59997161Y-71262963D01*
G37*
%TD.AperFunction*%
%TD*%
%TA.AperFunction,Conductor*%
%TO.N,SCK*%
G36*
X64992458Y-94553575D02*
G01*
X65067203Y-94568533D01*
X65074643Y-94573517D01*
X65076381Y-94582293D01*
X64805576Y-95940871D01*
X64800598Y-95948315D01*
X64794102Y-95950284D01*
X64658379Y-95950284D01*
X64650312Y-95947059D01*
X63779891Y-95118532D01*
X63776262Y-95110345D01*
X63778225Y-95103565D01*
X64240653Y-94410513D01*
X64248094Y-94405535D01*
X64252675Y-94405535D01*
X64992458Y-94553575D01*
G37*
%TD.AperFunction*%
%TD*%
%TA.AperFunction,Conductor*%
%TO.N,GND*%
G36*
X92925246Y-55504636D02*
G01*
X92930458Y-55509848D01*
X93333258Y-56312848D01*
X93333904Y-56321779D01*
X93333497Y-56322834D01*
X93023084Y-57023433D01*
X93016600Y-57029608D01*
X93012387Y-57030393D01*
X92827613Y-57030393D01*
X92819340Y-57026966D01*
X92816916Y-57023433D01*
X92506502Y-56322834D01*
X92506284Y-56313881D01*
X92506741Y-56312848D01*
X92909542Y-55509848D01*
X92916315Y-55503990D01*
X92925246Y-55504636D01*
G37*
%TD.AperFunction*%
%TD*%
%TA.AperFunction,Conductor*%
%TO.N,GND*%
G36*
X93020660Y-53953034D02*
G01*
X93023084Y-53956567D01*
X93333497Y-54657165D01*
X93333715Y-54666118D01*
X93333258Y-54667151D01*
X92930458Y-55470151D01*
X92923685Y-55476009D01*
X92914754Y-55475363D01*
X92909542Y-55470151D01*
X92506741Y-54667151D01*
X92506095Y-54658220D01*
X92506498Y-54657173D01*
X92816916Y-53956566D01*
X92823400Y-53950392D01*
X92827613Y-53949607D01*
X93012387Y-53949607D01*
X93020660Y-53953034D01*
G37*
%TD.AperFunction*%
%TD*%
%TA.AperFunction,Conductor*%
%TO.N,MTMS*%
G36*
X87614158Y-116644439D02*
G01*
X87615620Y-116646223D01*
X87964362Y-117169944D01*
X88079273Y-117342511D01*
X88081007Y-117351297D01*
X88076054Y-117358711D01*
X87674749Y-117627994D01*
X87665970Y-117629759D01*
X87665935Y-117629752D01*
X87193478Y-117535230D01*
X87186038Y-117530246D01*
X87184300Y-117521462D01*
X87184935Y-117519350D01*
X87252890Y-117352215D01*
X87500752Y-116742598D01*
X87503314Y-116738737D01*
X87597613Y-116644438D01*
X87605885Y-116641012D01*
X87614158Y-116644439D01*
G37*
%TD.AperFunction*%
%TD*%
%TA.AperFunction,Conductor*%
%TO.N,+3V3*%
G36*
X72687114Y-94568515D02*
G01*
X72694554Y-94573499D01*
X72696291Y-94582284D01*
X72696274Y-94582364D01*
X72411934Y-95953351D01*
X72406899Y-95960756D01*
X72400478Y-95962675D01*
X72264781Y-95962675D01*
X72256587Y-95959326D01*
X71399680Y-95118534D01*
X71396175Y-95110294D01*
X71398141Y-95103691D01*
X71860653Y-94410513D01*
X71868094Y-94405535D01*
X71872675Y-94405535D01*
X72687114Y-94568515D01*
G37*
%TD.AperFunction*%
%TD*%
%TA.AperFunction,Conductor*%
%TO.N,MTDI*%
G36*
X88319268Y-120689586D02*
G01*
X88322494Y-120691868D01*
X88418131Y-120787505D01*
X88421558Y-120795778D01*
X88420891Y-120799673D01*
X88163761Y-121528003D01*
X88157775Y-121534663D01*
X88150464Y-121535587D01*
X87676990Y-121442224D01*
X87669537Y-121437261D01*
X87667775Y-121433009D01*
X87574412Y-120959533D01*
X87576174Y-120950755D01*
X87581994Y-120946239D01*
X88310328Y-120689108D01*
X88319268Y-120689586D01*
G37*
%TD.AperFunction*%
%TD*%
%TA.AperFunction,Conductor*%
%TO.N,GND*%
G36*
X86406513Y-118903368D02*
G01*
X86660538Y-119073712D01*
X86807573Y-119172312D01*
X86812536Y-119179766D01*
X86811754Y-119186769D01*
X86503084Y-119883433D01*
X86496600Y-119889608D01*
X86492387Y-119890393D01*
X86307613Y-119890393D01*
X86299340Y-119886966D01*
X86296916Y-119883433D01*
X85988244Y-119186767D01*
X85988027Y-119177816D01*
X85992425Y-119172312D01*
X86393485Y-118903368D01*
X86402263Y-118901607D01*
X86406513Y-118903368D01*
G37*
%TD.AperFunction*%
%TD*%
%TA.AperFunction,Conductor*%
%TO.N,GND*%
G36*
X90219037Y-123257836D02*
G01*
X91309139Y-124238937D01*
X91312996Y-124247019D01*
X91312700Y-124250316D01*
X90749415Y-126641734D01*
X90744183Y-126649002D01*
X90735345Y-126650440D01*
X90728340Y-126645613D01*
X90725713Y-126641734D01*
X89351409Y-124612672D01*
X89349608Y-124603903D01*
X89350606Y-124600935D01*
X90012480Y-123261349D01*
X90019217Y-123255451D01*
X90022969Y-123254833D01*
X90211210Y-123254833D01*
X90219037Y-123257836D01*
G37*
%TD.AperFunction*%
%TD*%
%TA.AperFunction,Conductor*%
%TO.N,SCK*%
G36*
X63696179Y-127799760D02*
G01*
X63698280Y-127802623D01*
X64321900Y-128998467D01*
X64322687Y-129007387D01*
X64318036Y-129013599D01*
X63626510Y-129476640D01*
X63617729Y-129478395D01*
X63613490Y-129476640D01*
X63160389Y-129173247D01*
X62921962Y-129013598D01*
X62916996Y-129006148D01*
X62918098Y-128998469D01*
X63541720Y-127802623D01*
X63548584Y-127796872D01*
X63552094Y-127796333D01*
X63687906Y-127796333D01*
X63696179Y-127799760D01*
G37*
%TD.AperFunction*%
%TD*%
%TA.AperFunction,Conductor*%
%TO.N,MTCK*%
G36*
X88319268Y-118149586D02*
G01*
X88322494Y-118151868D01*
X88418131Y-118247505D01*
X88421558Y-118255778D01*
X88420891Y-118259673D01*
X88163761Y-118988003D01*
X88157775Y-118994663D01*
X88150464Y-118995587D01*
X87676990Y-118902224D01*
X87669537Y-118897261D01*
X87667775Y-118893009D01*
X87574412Y-118419533D01*
X87576174Y-118410755D01*
X87581994Y-118406239D01*
X88310328Y-118149108D01*
X88319268Y-118149586D01*
G37*
%TD.AperFunction*%
%TD*%
%TA.AperFunction,Conductor*%
%TO.N,GND*%
G36*
X86500660Y-119183034D02*
G01*
X86503084Y-119186567D01*
X86811754Y-119883230D01*
X86811972Y-119892183D01*
X86807573Y-119897687D01*
X86406516Y-120166630D01*
X86397737Y-120168392D01*
X86393484Y-120166630D01*
X85992426Y-119897687D01*
X85987463Y-119890233D01*
X85988244Y-119883232D01*
X86296916Y-119186566D01*
X86303400Y-119180392D01*
X86307613Y-119179607D01*
X86492387Y-119179607D01*
X86500660Y-119183034D01*
G37*
%TD.AperFunction*%
%TD*%
M02*
