%TF.GenerationSoftware,KiCad,Pcbnew,9.0.2*%
%TF.CreationDate,2026-08-05T14:45:05+03:00*%
%TF.ProjectId,a0,61302e6b-6963-4616-945f-706362585858,Rev 0.3*%
%TF.SameCoordinates,Original*%
%TF.FileFunction,Copper,L2,Inr*%
%TF.FilePolarity,Positive*%
%FSLAX46Y46*%
G04 Gerber Fmt 4.6, Leading zero omitted, Abs format (unit mm)*
G04 Created by KiCad (PCBNEW 9.0.2) date 2026-08-05 14:45:05*
%MOMM*%
%LPD*%
G01*
G04 APERTURE LIST*
G04 Aperture macros list*
%AMRoundRect*
0 Rectangle with rounded corners*
0 $1 Rounding radius*
0 $2 $3 $4 $5 $6 $7 $8 $9 X,Y pos of 4 corners*
0 Add a 4 corners polygon primitive as box body*
4,1,4,$2,$3,$4,$5,$6,$7,$8,$9,$2,$3,0*
0 Add four circle primitives for the rounded corners*
1,1,$1+$1,$2,$3*
1,1,$1+$1,$4,$5*
1,1,$1+$1,$6,$7*
1,1,$1+$1,$8,$9*
0 Add four rect primitives between the rounded corners*
20,1,$1+$1,$2,$3,$4,$5,0*
20,1,$1+$1,$4,$5,$6,$7,0*
20,1,$1+$1,$6,$7,$8,$9,0*
20,1,$1+$1,$8,$9,$2,$3,0*%
G04 Aperture macros list end*
%TA.AperFunction,ComponentPad*%
%ADD10C,5.000000*%
%TD*%
%TA.AperFunction,ComponentPad*%
%ADD11RoundRect,0.250000X-0.750000X0.600000X-0.750000X-0.600000X0.750000X-0.600000X0.750000X0.600000X0*%
%TD*%
%TA.AperFunction,ComponentPad*%
%ADD12O,2.000000X1.700000*%
%TD*%
%TA.AperFunction,ComponentPad*%
%ADD13R,1.700000X1.700000*%
%TD*%
%TA.AperFunction,ComponentPad*%
%ADD14C,1.700000*%
%TD*%
%TA.AperFunction,ComponentPad*%
%ADD15RoundRect,0.250001X1.149999X1.149999X-1.149999X1.149999X-1.149999X-1.149999X1.149999X-1.149999X0*%
%TD*%
%TA.AperFunction,ComponentPad*%
%ADD16C,2.800000*%
%TD*%
%TA.AperFunction,HeatsinkPad*%
%ADD17O,1.000000X2.100000*%
%TD*%
%TA.AperFunction,HeatsinkPad*%
%ADD18O,1.000000X1.800000*%
%TD*%
%TA.AperFunction,ComponentPad*%
%ADD19R,1.000000X1.000000*%
%TD*%
%TA.AperFunction,ComponentPad*%
%ADD20C,1.000000*%
%TD*%
%TA.AperFunction,ViaPad*%
%ADD21C,0.600000*%
%TD*%
%TA.AperFunction,ViaPad*%
%ADD22C,0.800000*%
%TD*%
%TA.AperFunction,Conductor*%
%ADD23C,0.150000*%
%TD*%
%TA.AperFunction,Conductor*%
%ADD24C,0.200000*%
%TD*%
G04 APERTURE END LIST*
D10*
%TO.N,GND*%
%TO.C,H4*%
X90743300Y-126666700D03*
%TD*%
D11*
%TO.N,VBAT*%
%TO.C,J9*%
X49000000Y-52000000D03*
D12*
%TO.N,GND*%
X49000000Y-54500000D03*
%TD*%
D13*
%TO.N,MiBUS2_4*%
%TO.C,J2*%
X56000000Y-106500000D03*
D14*
%TO.N,MiBUS2_5*%
X58540000Y-106500000D03*
%TO.N,MiBUS2_RX*%
X61080000Y-106500000D03*
%TO.N,MiBUS2_TX*%
X63620000Y-106500000D03*
%TO.N,SCL*%
X66160000Y-106500000D03*
%TO.N,SDA*%
X68700000Y-106500000D03*
%TO.N,FB_5V*%
X71240000Y-106500000D03*
%TO.N,GND*%
X73780000Y-106500000D03*
%TD*%
D10*
%TO.N,GND*%
%TO.C,H1*%
X45676700Y-60566700D03*
%TD*%
D13*
%TO.N,MiBUS2_1*%
%TO.C,J4*%
X56000000Y-129480000D03*
D14*
%TO.N,MiBUS2_2*%
X58540000Y-129480000D03*
%TO.N,MiBUS2_3*%
X61080000Y-129480000D03*
%TO.N,SCK*%
X63620000Y-129480000D03*
%TO.N,MISO*%
X66160000Y-129480000D03*
%TO.N,MOSI*%
X68700000Y-129480000D03*
%TO.N,+3V3*%
X71240000Y-129480000D03*
%TO.N,GND*%
X73780000Y-129480000D03*
%TD*%
D15*
%TO.N,Net-(D1-A)*%
%TO.C,J8*%
X59450000Y-52832500D03*
D16*
%TO.N,GND*%
X54450000Y-52832500D03*
%TD*%
D13*
%TO.N,MiBUS1_4*%
%TO.C,J3*%
X56625000Y-71425000D03*
D14*
%TO.N,MiBUS1_5*%
X59165000Y-71425000D03*
%TO.N,MiBUS1_RX*%
X61705000Y-71425000D03*
%TO.N,MiBUS1_TX*%
X64245000Y-71425000D03*
%TO.N,SCL*%
X66785000Y-71425000D03*
%TO.N,SDA*%
X69325000Y-71425000D03*
%TO.N,FB_5V*%
X71865000Y-71425000D03*
%TO.N,GND*%
X74405000Y-71425000D03*
%TD*%
D10*
%TO.N,GND*%
%TO.C,H3*%
X48760000Y-126700000D03*
%TD*%
D17*
%TO.N,GND*%
%TO.C,J7*%
X92920000Y-55490000D03*
D18*
X92920000Y-51290000D03*
D17*
X84280000Y-55490000D03*
D18*
X84280000Y-51290000D03*
%TD*%
D13*
%TO.N,MiBUS1_1*%
%TO.C,J1*%
X56625000Y-94405000D03*
D14*
%TO.N,MiBUS1_2*%
X59165000Y-94405000D03*
%TO.N,MiBUS1_3*%
X61705000Y-94405000D03*
%TO.N,SCK*%
X64245000Y-94405000D03*
%TO.N,MISO*%
X66785000Y-94405000D03*
%TO.N,MOSI*%
X69325000Y-94405000D03*
%TO.N,+3V3*%
X71865000Y-94405000D03*
%TO.N,GND*%
X74405000Y-94405000D03*
%TD*%
D19*
%TO.N,+3V3*%
%TO.C,J10*%
X86400000Y-117630000D03*
D20*
%TO.N,MTMS*%
X87670000Y-117630000D03*
%TO.N,GND*%
X86400000Y-118900000D03*
%TO.N,MTCK*%
X87670000Y-118900000D03*
%TO.N,GND*%
X86400000Y-120170000D03*
%TO.N,MTDO*%
X87670000Y-120170000D03*
%TO.N,unconnected-(J10-KEY-Pad7)*%
X86400000Y-121440000D03*
%TO.N,MTDI*%
X87670000Y-121440000D03*
%TO.N,GND*%
X86400000Y-122710000D03*
%TO.N,MCU_RST*%
X87670000Y-122710000D03*
%TD*%
D10*
%TO.N,GND*%
%TO.C,H2*%
X93900000Y-60500000D03*
%TD*%
D21*
%TO.N,+3V3*%
X71851700Y-120293400D03*
X53303800Y-94238200D03*
X65742500Y-115342300D03*
X73248800Y-68140000D03*
%TO.N,GND*%
X48568000Y-65592700D03*
X51859200Y-81496700D03*
X81672500Y-131573700D03*
X70950000Y-110248800D03*
X59800000Y-57435700D03*
X82022300Y-124750100D03*
X75501200Y-80711700D03*
X49000000Y-59017700D03*
X55700000Y-83803500D03*
X51986800Y-99130600D03*
X85077700Y-74156000D03*
X55247600Y-110129400D03*
X75498800Y-74537800D03*
X71999700Y-80777200D03*
X53214600Y-118650000D03*
X75167100Y-110251200D03*
X70675300Y-127486000D03*
X52350000Y-89455200D03*
X93754200Y-107434200D03*
X89000000Y-76760500D03*
X90115700Y-122252600D03*
X70887500Y-102705200D03*
X69524500Y-82480800D03*
X49714500Y-118650000D03*
X88200000Y-59200000D03*
X63686400Y-81570700D03*
X93732700Y-120110900D03*
X84133100Y-81037400D03*
X87100000Y-127697300D03*
%TO.N,MCU_RST*%
X78925900Y-115590600D03*
%TO.N,GPIO9*%
X51100000Y-97268000D03*
X71852300Y-124325600D03*
%TO.N,FB_5V*%
X53219600Y-74458700D03*
D22*
%TO.N,VBAT*%
X58752800Y-76669400D03*
X76793400Y-70900000D03*
D21*
%TO.N,USB_D-*%
X88350000Y-55016200D03*
X77789100Y-111975600D03*
X69515900Y-115901500D03*
%TO.N,USB_D+*%
X78620600Y-116722800D03*
X90435200Y-57467400D03*
X87358300Y-55007700D03*
X88793500Y-57179100D03*
%TO.N,MTDI*%
X81266000Y-95331100D03*
%TO.N,MTMS*%
X79104500Y-91543400D03*
%TO.N,Net-(U7-VI)*%
X50514500Y-84169300D03*
X53149800Y-117076700D03*
X87803200Y-73043500D03*
%TO.N,Net-(D7-K)*%
X58400000Y-84392000D03*
X83425600Y-72031000D03*
%TO.N,MISO*%
X72816700Y-124729200D03*
%TO.N,SCK*%
X72701600Y-126858700D03*
%TO.N,MOSI*%
X91255900Y-85920000D03*
%TO.N,Net-(JP1-B)*%
X67900000Y-123718400D03*
%TO.N,MiBUS1_3*%
X76571100Y-113340600D03*
%TO.N,MiBUS1_2*%
X48111000Y-79571000D03*
X62597300Y-109001700D03*
%TO.N,MiBUS2_1*%
X57195200Y-90674400D03*
%TO.N,MiBUS2_2*%
X74300000Y-125132900D03*
X47820400Y-86900400D03*
%TO.N,MiBUS1_5*%
X63757400Y-108642700D03*
%TO.N,MiBUS1_4*%
X61819100Y-107774100D03*
X76278900Y-110381500D03*
%TO.N,MiBUS2_3*%
X73556000Y-126857900D03*
X77371700Y-87258800D03*
%TO.N,SCL*%
X76571400Y-108475700D03*
X65036600Y-119722200D03*
%TO.N,MiBUS1_TX*%
X76043000Y-125147800D03*
X77728700Y-79728800D03*
%TO.N,SDA*%
X67900000Y-119633300D03*
%TO.N,MiBUS1_RX*%
X76834600Y-125127400D03*
X80689700Y-77667600D03*
%TO.N,Net-(JP1-A)*%
X65864300Y-124278600D03*
%TO.N,MiBUS2_RX*%
X77554400Y-99835300D03*
%TO.N,GPIO4*%
X87173300Y-91543400D03*
X73509400Y-112791100D03*
%TO.N,GPIO7*%
X86741300Y-108452000D03*
X71871900Y-118471900D03*
%TO.N,MTCK*%
X80475100Y-101418300D03*
%TO.N,GPIO6*%
X72175600Y-117700000D03*
X86936700Y-103176600D03*
%TO.N,MiBUS2_5*%
X75100000Y-125132900D03*
%TD*%
D23*
%TO.N,+3V3*%
X67261200Y-93297800D02*
X61254100Y-93297800D01*
X66900600Y-115342300D02*
X65742500Y-115342300D01*
X71865000Y-94405000D02*
X70749500Y-95520500D01*
X61254100Y-93297800D02*
X60285100Y-94266800D01*
X60285100Y-94848200D02*
X59651600Y-95481700D01*
X86400000Y-117630000D02*
X74515100Y-117630000D01*
X68891400Y-95520500D02*
X68055000Y-94684100D01*
X71851700Y-120293400D02*
X66900600Y-115342300D01*
X70749500Y-95520500D02*
X68891400Y-95520500D01*
X60285100Y-94266800D02*
X60285100Y-94848200D01*
X74515100Y-117630000D02*
X71851700Y-120293400D01*
X68055000Y-94684100D02*
X68055000Y-94091600D01*
X54547300Y-95481700D02*
X53303800Y-94238200D01*
X68055000Y-94091600D02*
X67261200Y-93297800D01*
X59651600Y-95481700D02*
X54547300Y-95481700D01*
D24*
%TO.N,GND*%
X90743300Y-126666700D02*
X90381100Y-126666700D01*
X86062100Y-122710000D02*
X85292200Y-121940100D01*
X57932800Y-81570700D02*
X55700000Y-83803500D01*
X85292200Y-120940500D02*
X86062700Y-120170000D01*
X75164700Y-110248800D02*
X70950000Y-110248800D01*
X54166000Y-83803500D02*
X51859200Y-81496700D01*
X86400000Y-123047900D02*
X86400000Y-122710000D01*
X88130600Y-126666700D02*
X87100000Y-127697300D01*
X45676700Y-60566700D02*
X47451000Y-60566700D01*
X75826900Y-81037400D02*
X75501200Y-80711700D01*
X49000000Y-54500000D02*
X52782500Y-54500000D01*
X82022300Y-124750100D02*
X79578800Y-127193600D01*
X73780000Y-129480000D02*
X79578800Y-129480000D01*
X86395500Y-74156000D02*
X85077700Y-74156000D01*
X68614400Y-81570700D02*
X69524500Y-82480800D01*
X86062700Y-120170000D02*
X86400000Y-120170000D01*
X73780000Y-129480000D02*
X71786000Y-127486000D01*
X82022300Y-124750100D02*
X84697800Y-124750100D01*
X55700000Y-83803500D02*
X54166000Y-83803500D01*
X84697800Y-124750100D02*
X86400000Y-123047900D01*
X90381100Y-126666700D02*
X88130600Y-126666700D01*
X73780000Y-106500000D02*
X73780000Y-105597700D01*
X79578800Y-127193600D02*
X79578800Y-129480000D01*
X63686400Y-81570700D02*
X57932800Y-81570700D01*
X85292200Y-121940100D02*
X85292200Y-120940500D01*
X59053200Y-57435700D02*
X59800000Y-57435700D01*
X54450000Y-52832500D02*
X59053200Y-57435700D01*
X75167100Y-110251200D02*
X75164700Y-110248800D01*
X52782500Y-54500000D02*
X54450000Y-52832500D01*
X84133100Y-81037400D02*
X75826900Y-81037400D01*
X71228100Y-80777200D02*
X69524500Y-82480800D01*
X49714500Y-118650000D02*
X53214600Y-118650000D01*
X74405000Y-71425000D02*
X75498800Y-72518800D01*
X89000000Y-76760500D02*
X86395500Y-74156000D01*
X90381100Y-126666700D02*
X90018800Y-126666700D01*
X79578800Y-129480000D02*
X81672500Y-131573700D01*
X47451000Y-60566700D02*
X49000000Y-59017700D01*
X75498800Y-72518800D02*
X75498800Y-74537800D01*
X63686400Y-81570700D02*
X68614400Y-81570700D01*
X73780000Y-105597700D02*
X70887500Y-102705200D01*
X90018800Y-126666700D02*
X86400000Y-123047900D01*
X71786000Y-127486000D02*
X70675300Y-127486000D01*
X71999700Y-80777200D02*
X71228100Y-80777200D01*
X86400000Y-122710000D02*
X86062100Y-122710000D01*
D23*
%TO.N,MCU_RST*%
X86699700Y-115590600D02*
X78925900Y-115590600D01*
X88407200Y-121972800D02*
X88407200Y-117298100D01*
X87670000Y-122710000D02*
X88407200Y-121972800D01*
X88407200Y-117298100D02*
X86699700Y-115590600D01*
%TO.N,GPIO9*%
X51100000Y-103698000D02*
X71727600Y-124325600D01*
X71727600Y-124325600D02*
X71852300Y-124325600D01*
X51100000Y-97268000D02*
X51100000Y-103698000D01*
%TO.N,FB_5V*%
X53219600Y-74458700D02*
X68831300Y-74458700D01*
X68831300Y-74458700D02*
X71865000Y-71425000D01*
D24*
%TO.N,VBAT*%
X58752800Y-76669400D02*
X74712300Y-76669400D01*
X76793400Y-74588300D02*
X76793400Y-70900000D01*
X74712300Y-76669400D02*
X76793400Y-74588300D01*
D23*
%TO.N,USB_D-*%
X69515900Y-115901500D02*
X74755200Y-115901500D01*
X77789100Y-112867600D02*
X77789100Y-111975600D01*
X74755200Y-115901500D02*
X77789100Y-112867600D01*
%TO.N,USB_D+*%
X90146900Y-57179100D02*
X90435200Y-57467400D01*
X88793500Y-56442900D02*
X87358300Y-55007700D01*
X88793500Y-57179100D02*
X90146900Y-57179100D01*
X88793500Y-57179100D02*
X88793500Y-56442900D01*
%TO.N,Net-(U7-VI)*%
X70007000Y-84966000D02*
X81929500Y-73043500D01*
X51311200Y-84966000D02*
X70007000Y-84966000D01*
X81929500Y-73043500D02*
X87803200Y-73043500D01*
X50514500Y-84169300D02*
X51311200Y-84966000D01*
%TO.N,Net-(D7-K)*%
X81985800Y-72031000D02*
X83425600Y-72031000D01*
X69624800Y-84392000D02*
X81985800Y-72031000D01*
X58400000Y-84392000D02*
X69624800Y-84392000D01*
%TO.N,SCK*%
X72452200Y-126609300D02*
X72701600Y-126858700D01*
X63620000Y-129480000D02*
X66490700Y-126609300D01*
X66490700Y-126609300D02*
X72452200Y-126609300D01*
%TO.N,MOSI*%
X77810000Y-85920000D02*
X91255900Y-85920000D01*
X69325000Y-94405000D02*
X77810000Y-85920000D01*
%TO.N,MiBUS1_3*%
X61705000Y-94405000D02*
X59998500Y-96111500D01*
X59998500Y-96111500D02*
X59998500Y-107147700D01*
X59998500Y-107147700D02*
X66191400Y-113340600D01*
X66191400Y-113340600D02*
X76571100Y-113340600D01*
%TO.N,MiBUS1_2*%
X48111000Y-83351000D02*
X48111000Y-79571000D01*
X59165000Y-94405000D02*
X48111000Y-83351000D01*
%TO.N,MiBUS2_2*%
X63010100Y-125255900D02*
X74177000Y-125255900D01*
X58540000Y-129480000D02*
X62887100Y-125132900D01*
X47820500Y-110066300D02*
X47820500Y-86900400D01*
X47820500Y-86900400D02*
X47820400Y-86900400D01*
X62887100Y-125132900D02*
X47820500Y-110066300D01*
X62887100Y-125132900D02*
X63010100Y-125255900D01*
X74177000Y-125255900D02*
X74300000Y-125132900D01*
%TO.N,MiBUS1_4*%
X65469900Y-111129400D02*
X62114600Y-107774100D01*
X75531000Y-111129400D02*
X65469900Y-111129400D01*
X62114600Y-107774100D02*
X61819100Y-107774100D01*
X76278900Y-110381500D02*
X75531000Y-111129400D01*
%TO.N,MiBUS2_3*%
X73005700Y-126307600D02*
X64252400Y-126307600D01*
X64252400Y-126307600D02*
X61080000Y-129480000D01*
X73556000Y-126857900D02*
X73005700Y-126307600D01*
%TO.N,SCL*%
X76571400Y-108475600D02*
X76571400Y-108475700D01*
X66160000Y-106500000D02*
X68135600Y-108475600D01*
X68135600Y-108475600D02*
X76571400Y-108475600D01*
%TO.N,MiBUS2_RX*%
X61080000Y-106500000D02*
X67744700Y-99835300D01*
X67744700Y-99835300D02*
X77554400Y-99835300D01*
%TO.N,GPIO4*%
X87173300Y-100255000D02*
X74637200Y-112791100D01*
X74637200Y-112791100D02*
X73509400Y-112791100D01*
X87173300Y-91543400D02*
X87173300Y-100255000D01*
%TO.N,GPIO7*%
X83058100Y-108452000D02*
X86741300Y-108452000D01*
X73038200Y-118471900D02*
X83058100Y-108452000D01*
X71871900Y-118471900D02*
X73038200Y-118471900D01*
%TO.N,GPIO6*%
X73383400Y-117700000D02*
X86936700Y-104146700D01*
X72175600Y-117700000D02*
X73383400Y-117700000D01*
X86936700Y-104146700D02*
X86936700Y-103176600D01*
%TO.N,MiBUS2_5*%
X58540000Y-106500000D02*
X58540000Y-108900300D01*
X69242000Y-119602300D02*
X69569400Y-119602300D01*
X58540000Y-108900300D02*
X69242000Y-119602300D01*
X69569400Y-119602300D02*
X75100000Y-125132900D01*
%TD*%
%TA.AperFunction,Conductor*%
%TO.N,SCK*%
G36*
X64759652Y-128239350D02*
G01*
X64762515Y-128241451D01*
X64858548Y-128337484D01*
X64861975Y-128345757D01*
X64861436Y-128349267D01*
X64456812Y-129635824D01*
X64451061Y-129642688D01*
X64443380Y-129643791D01*
X63626978Y-129482227D01*
X63619527Y-129477260D01*
X63617772Y-129473021D01*
X63608301Y-129425166D01*
X63456208Y-128656617D01*
X63457963Y-128647838D01*
X63464174Y-128643187D01*
X64750732Y-128238563D01*
X64759652Y-128239350D01*
G37*
%TD.AperFunction*%
%TD*%
%TA.AperFunction,Conductor*%
%TO.N,GND*%
G36*
X54439730Y-52832194D02*
G01*
X54447906Y-52835844D01*
X54451111Y-52843775D01*
X54464570Y-54211037D01*
X54461225Y-54219343D01*
X54455403Y-54222575D01*
X52766909Y-54596845D01*
X52758090Y-54595289D01*
X52752954Y-54587954D01*
X52752677Y-54585422D01*
X52752677Y-54401119D01*
X52752888Y-54398905D01*
X53054082Y-52835844D01*
X53060098Y-52804623D01*
X53065029Y-52797149D01*
X53071901Y-52795142D01*
X54439730Y-52832194D01*
G37*
%TD.AperFunction*%
%TD*%
%TA.AperFunction,Conductor*%
%TO.N,MiBUS1_3*%
G36*
X61650166Y-94393301D02*
G01*
X61698021Y-94402772D01*
X61705472Y-94407739D01*
X61707227Y-94411978D01*
X61868791Y-95228380D01*
X61867036Y-95237161D01*
X61860824Y-95241812D01*
X60574267Y-95646436D01*
X60565347Y-95645649D01*
X60562484Y-95643548D01*
X60466451Y-95547515D01*
X60463024Y-95539242D01*
X60463563Y-95535732D01*
X60868187Y-94249174D01*
X60873938Y-94242311D01*
X60881617Y-94241208D01*
X61650166Y-94393301D01*
G37*
%TD.AperFunction*%
%TD*%
%TA.AperFunction,Conductor*%
%TO.N,MiBUS2_5*%
G36*
X58546509Y-106503358D02*
G01*
X59238036Y-106966401D01*
X59243003Y-106973851D01*
X59241900Y-106981532D01*
X58618280Y-108177377D01*
X58611416Y-108183128D01*
X58607906Y-108183667D01*
X58472094Y-108183667D01*
X58463821Y-108180240D01*
X58461720Y-108177377D01*
X57838099Y-106981532D01*
X57837312Y-106972612D01*
X57841960Y-106966402D01*
X58533490Y-106503358D01*
X58542271Y-106501604D01*
X58546509Y-106503358D01*
G37*
%TD.AperFunction*%
%TD*%
%TA.AperFunction,Conductor*%
%TO.N,SCL*%
G36*
X66992161Y-106337963D02*
G01*
X66996812Y-106344175D01*
X67401436Y-107630732D01*
X67400649Y-107639652D01*
X67398548Y-107642515D01*
X67302515Y-107738548D01*
X67294242Y-107741975D01*
X67290732Y-107741436D01*
X66004175Y-107336812D01*
X65997311Y-107331061D01*
X65996208Y-107323382D01*
X66157772Y-106506977D01*
X66162739Y-106499527D01*
X66166977Y-106497772D01*
X66983381Y-106336208D01*
X66992161Y-106337963D01*
G37*
%TD.AperFunction*%
%TD*%
%TA.AperFunction,Conductor*%
%TO.N,GND*%
G36*
X73306427Y-104981540D02*
G01*
X74244373Y-105786504D01*
X74248419Y-105794492D01*
X74246489Y-105801871D01*
X73785051Y-106494188D01*
X73777611Y-106499172D01*
X73773025Y-106499173D01*
X72957512Y-106336404D01*
X72950070Y-106331424D01*
X72948273Y-106322939D01*
X73156148Y-105119555D01*
X73159402Y-105113278D01*
X73290535Y-104982145D01*
X73298807Y-104978719D01*
X73306427Y-104981540D01*
G37*
%TD.AperFunction*%
%TD*%
%TA.AperFunction,Conductor*%
%TO.N,GND*%
G36*
X47381836Y-58748461D02*
G01*
X47392518Y-58751682D01*
X48720494Y-59152121D01*
X48725389Y-59155050D01*
X48858552Y-59288213D01*
X48861979Y-59296486D01*
X48860561Y-59302069D01*
X48168008Y-60577649D01*
X48161049Y-60583284D01*
X48157649Y-60583766D01*
X45702667Y-60567582D01*
X45694416Y-60564100D01*
X45691044Y-60555805D01*
X45694187Y-60547903D01*
X47369904Y-58751681D01*
X47378052Y-58747970D01*
X47381836Y-58748461D01*
G37*
%TD.AperFunction*%
%TD*%
%TA.AperFunction,Conductor*%
%TO.N,FB_5V*%
G36*
X71810166Y-71413301D02*
G01*
X71858021Y-71422772D01*
X71865472Y-71427739D01*
X71867227Y-71431978D01*
X72028791Y-72248380D01*
X72027036Y-72257161D01*
X72020824Y-72261812D01*
X70734267Y-72666436D01*
X70725347Y-72665649D01*
X70722484Y-72663548D01*
X70626451Y-72567515D01*
X70623024Y-72559242D01*
X70623563Y-72555732D01*
X71028187Y-71269174D01*
X71033938Y-71262311D01*
X71041617Y-71261208D01*
X71810166Y-71413301D01*
G37*
%TD.AperFunction*%
%TD*%
%TA.AperFunction,Conductor*%
%TO.N,GND*%
G36*
X49630288Y-53797284D02*
G01*
X50827207Y-54396764D01*
X50833069Y-54403533D01*
X50833667Y-54407225D01*
X50833667Y-54592774D01*
X50830240Y-54601047D01*
X50827207Y-54603235D01*
X49630290Y-55202714D01*
X49621358Y-55203355D01*
X49616276Y-55199991D01*
X49005822Y-54507736D01*
X49002921Y-54499267D01*
X49005822Y-54492263D01*
X49616277Y-53800006D01*
X49624317Y-53796069D01*
X49630288Y-53797284D01*
G37*
%TD.AperFunction*%
%TD*%
%TA.AperFunction,Conductor*%
%TO.N,+3V3*%
G36*
X71858320Y-94403474D02*
G01*
X71865767Y-94408448D01*
X71867518Y-94412681D01*
X72028682Y-95227821D01*
X72026925Y-95236601D01*
X72020118Y-95241421D01*
X70658002Y-95591741D01*
X70649136Y-95590483D01*
X70643757Y-95583324D01*
X70643388Y-95580410D01*
X70643388Y-95447334D01*
X70643950Y-95443752D01*
X70709018Y-95241421D01*
X71028141Y-94249095D01*
X71033935Y-94242271D01*
X71041556Y-94241204D01*
X71858320Y-94403474D01*
G37*
%TD.AperFunction*%
%TD*%
%TA.AperFunction,Conductor*%
%TO.N,GND*%
G36*
X74261457Y-128777869D02*
G01*
X75457207Y-129376764D01*
X75463069Y-129383533D01*
X75463667Y-129387225D01*
X75463667Y-129572774D01*
X75460240Y-129581047D01*
X75457207Y-129583235D01*
X74261458Y-130182129D01*
X74252526Y-130182770D01*
X74246496Y-130178178D01*
X73783359Y-129486510D01*
X73781604Y-129477729D01*
X73783359Y-129473490D01*
X74246497Y-128781820D01*
X74253947Y-128776854D01*
X74261457Y-128777869D01*
G37*
%TD.AperFunction*%
%TD*%
%TA.AperFunction,Conductor*%
%TO.N,GND*%
G36*
X85993828Y-119898577D02*
G01*
X86396651Y-120166594D01*
X86401641Y-120174030D01*
X86401649Y-120174072D01*
X86495012Y-120647549D01*
X86493250Y-120656328D01*
X86485796Y-120661291D01*
X86484498Y-120661472D01*
X85648438Y-120730639D01*
X85639910Y-120727906D01*
X85639200Y-120727252D01*
X85508516Y-120596568D01*
X85505089Y-120588295D01*
X85507167Y-120581638D01*
X85977729Y-119901659D01*
X85985253Y-119896808D01*
X85993828Y-119898577D01*
G37*
%TD.AperFunction*%
%TD*%
%TA.AperFunction,Conductor*%
%TO.N,GND*%
G36*
X85648235Y-122149779D02*
G01*
X86484492Y-122218533D01*
X86492455Y-122222627D01*
X86495193Y-122231153D01*
X86495011Y-122232457D01*
X86401649Y-122705927D01*
X86396686Y-122713381D01*
X86396651Y-122713405D01*
X85993825Y-122981424D01*
X85985039Y-122983154D01*
X85977726Y-122978345D01*
X85506998Y-122298787D01*
X85505104Y-122290035D01*
X85508341Y-122283854D01*
X85639028Y-122153167D01*
X85647300Y-122149741D01*
X85648235Y-122149779D01*
G37*
%TD.AperFunction*%
%TD*%
%TA.AperFunction,Conductor*%
%TO.N,MOSI*%
G36*
X70464652Y-93164350D02*
G01*
X70467515Y-93166451D01*
X70563548Y-93262484D01*
X70566975Y-93270757D01*
X70566436Y-93274267D01*
X70161812Y-94560824D01*
X70156061Y-94567688D01*
X70148380Y-94568791D01*
X69331978Y-94407227D01*
X69324527Y-94402260D01*
X69322772Y-94398021D01*
X69313301Y-94350166D01*
X69161208Y-93581617D01*
X69162963Y-93572838D01*
X69169174Y-93568187D01*
X70455732Y-93163563D01*
X70464652Y-93164350D01*
G37*
%TD.AperFunction*%
%TD*%
%TA.AperFunction,Conductor*%
%TO.N,MiBUS1_2*%
G36*
X58034267Y-93163563D02*
G01*
X59320824Y-93568187D01*
X59327688Y-93573938D01*
X59328791Y-93581619D01*
X59167227Y-94398021D01*
X59162260Y-94405472D01*
X59158021Y-94407227D01*
X58341619Y-94568791D01*
X58332838Y-94567036D01*
X58328187Y-94560824D01*
X58279402Y-94405707D01*
X57923563Y-93274267D01*
X57924350Y-93265347D01*
X57926448Y-93262487D01*
X58022485Y-93166450D01*
X58030757Y-93163024D01*
X58034267Y-93163563D01*
G37*
%TD.AperFunction*%
%TD*%
%TA.AperFunction,Conductor*%
%TO.N,GND*%
G36*
X89503743Y-124507049D02*
G01*
X89505763Y-124509642D01*
X90730713Y-126644241D01*
X90731858Y-126653122D01*
X90726388Y-126660212D01*
X90717965Y-126661472D01*
X88323134Y-126115701D01*
X88315829Y-126110521D01*
X88314532Y-126107669D01*
X87883588Y-124677590D01*
X87884482Y-124668680D01*
X87886514Y-124665944D01*
X88019648Y-124532810D01*
X88027714Y-124529386D01*
X89495412Y-124503767D01*
X89503743Y-124507049D01*
G37*
%TD.AperFunction*%
%TD*%
%TA.AperFunction,Conductor*%
%TO.N,MiBUS2_3*%
G36*
X62219652Y-128239350D02*
G01*
X62222515Y-128241451D01*
X62318548Y-128337484D01*
X62321975Y-128345757D01*
X62321436Y-128349267D01*
X61916812Y-129635824D01*
X61911061Y-129642688D01*
X61903380Y-129643791D01*
X61086978Y-129482227D01*
X61079527Y-129477260D01*
X61077772Y-129473021D01*
X61068301Y-129425166D01*
X60916208Y-128656617D01*
X60917963Y-128647838D01*
X60924174Y-128643187D01*
X62210732Y-128238563D01*
X62219652Y-128239350D01*
G37*
%TD.AperFunction*%
%TD*%
%TA.AperFunction,Conductor*%
%TO.N,GND*%
G36*
X88323889Y-126114713D02*
G01*
X90718001Y-126660069D01*
X90725306Y-126665248D01*
X90726810Y-126674076D01*
X90722035Y-126681115D01*
X88699998Y-128072822D01*
X88691241Y-128074690D01*
X88686997Y-128072999D01*
X87583440Y-127356984D01*
X87581535Y-127355442D01*
X87448367Y-127222274D01*
X87444940Y-127214001D01*
X87447481Y-127206721D01*
X88312138Y-126118840D01*
X88319966Y-126114498D01*
X88323889Y-126114713D01*
G37*
%TD.AperFunction*%
%TD*%
%TA.AperFunction,Conductor*%
%TO.N,+3V3*%
G36*
X85907629Y-117137614D02*
G01*
X86392702Y-117621719D01*
X86396137Y-117629988D01*
X86392718Y-117638265D01*
X86392702Y-117638281D01*
X85907629Y-118122385D01*
X85899352Y-118125804D01*
X85891787Y-118123019D01*
X85404123Y-117708504D01*
X85400038Y-117700535D01*
X85400000Y-117699589D01*
X85400000Y-117560410D01*
X85403427Y-117552137D01*
X85404116Y-117551500D01*
X85891788Y-117136979D01*
X85900310Y-117134233D01*
X85907629Y-117137614D01*
G37*
%TD.AperFunction*%
%TD*%
%TA.AperFunction,Conductor*%
%TO.N,GND*%
G36*
X75236608Y-71263072D02*
G01*
X75241426Y-71269871D01*
X75595029Y-72640979D01*
X75593777Y-72649846D01*
X75586622Y-72655230D01*
X75583700Y-72655601D01*
X75400746Y-72655601D01*
X75396957Y-72654970D01*
X74248853Y-72261980D01*
X74242135Y-72256059D01*
X74241166Y-72248633D01*
X74403474Y-71431678D01*
X74408448Y-71424232D01*
X74412679Y-71422481D01*
X75227830Y-71261315D01*
X75236608Y-71263072D01*
G37*
%TD.AperFunction*%
%TD*%
%TA.AperFunction,Conductor*%
%TO.N,GND*%
G36*
X55836829Y-52809757D02*
G01*
X55840122Y-52815604D01*
X56207877Y-54444087D01*
X56206356Y-54452912D01*
X56204737Y-54454937D01*
X56072437Y-54587237D01*
X56064164Y-54590664D01*
X56061587Y-54590377D01*
X54433104Y-54222622D01*
X54425789Y-54217457D01*
X54423983Y-54210996D01*
X54449086Y-52843068D01*
X54452664Y-52834860D01*
X54460568Y-52831586D01*
X55828496Y-52806483D01*
X55836829Y-52809757D01*
G37*
%TD.AperFunction*%
%TD*%
%TA.AperFunction,Conductor*%
%TO.N,GND*%
G36*
X86886321Y-122616750D02*
G01*
X86891284Y-122624204D01*
X86891466Y-122625508D01*
X86960219Y-123461740D01*
X86957481Y-123470266D01*
X86956831Y-123470972D01*
X86826147Y-123601656D01*
X86817874Y-123605083D01*
X86811212Y-123603001D01*
X86131654Y-123132273D01*
X86126804Y-123124745D01*
X86128574Y-123116176D01*
X86396595Y-122713346D01*
X86404028Y-122708359D01*
X86877544Y-122614988D01*
X86886321Y-122616750D01*
G37*
%TD.AperFunction*%
%TD*%
%TA.AperFunction,Conductor*%
%TO.N,MiBUS2_RX*%
G36*
X62219652Y-105259350D02*
G01*
X62222515Y-105261451D01*
X62318548Y-105357484D01*
X62321975Y-105365757D01*
X62321436Y-105369267D01*
X61916812Y-106655824D01*
X61911061Y-106662688D01*
X61903380Y-106663791D01*
X61086978Y-106502227D01*
X61079527Y-106497260D01*
X61077772Y-106493021D01*
X61068301Y-106445166D01*
X60916208Y-105676617D01*
X60917963Y-105667838D01*
X60924174Y-105663187D01*
X62210732Y-105258563D01*
X62219652Y-105259350D01*
G37*
%TD.AperFunction*%
%TD*%
%TA.AperFunction,Conductor*%
%TO.N,MiBUS2_2*%
G36*
X59679652Y-128239350D02*
G01*
X59682515Y-128241451D01*
X59778548Y-128337484D01*
X59781975Y-128345757D01*
X59781436Y-128349267D01*
X59376812Y-129635824D01*
X59371061Y-129642688D01*
X59363380Y-129643791D01*
X58546978Y-129482227D01*
X58539527Y-129477260D01*
X58537772Y-129473021D01*
X58528301Y-129425166D01*
X58376208Y-128656617D01*
X58377963Y-128647838D01*
X58384174Y-128643187D01*
X59670732Y-128238563D01*
X59679652Y-128239350D01*
G37*
%TD.AperFunction*%
%TD*%
%TA.AperFunction,Conductor*%
%TO.N,GND*%
G36*
X85922442Y-122614985D02*
G01*
X86395927Y-122708350D01*
X86403381Y-122713313D01*
X86403405Y-122713348D01*
X86671424Y-123116174D01*
X86673154Y-123124960D01*
X86668345Y-123132273D01*
X85988787Y-123603001D01*
X85980035Y-123604895D01*
X85973852Y-123601656D01*
X85843168Y-123470972D01*
X85839741Y-123462699D01*
X85839778Y-123461765D01*
X85908533Y-122625506D01*
X85912627Y-122617544D01*
X85921153Y-122614806D01*
X85922442Y-122614985D01*
G37*
%TD.AperFunction*%
%TD*%
%TA.AperFunction,Conductor*%
%TO.N,MCU_RST*%
G36*
X88319268Y-121959586D02*
G01*
X88322494Y-121961868D01*
X88418131Y-122057505D01*
X88421558Y-122065778D01*
X88420891Y-122069673D01*
X88163761Y-122798003D01*
X88157775Y-122804663D01*
X88150464Y-122805587D01*
X87676990Y-122712224D01*
X87669537Y-122707261D01*
X87667775Y-122703009D01*
X87574412Y-122229533D01*
X87576174Y-122220755D01*
X87581994Y-122216239D01*
X88310328Y-121959108D01*
X88319268Y-121959586D01*
G37*
%TD.AperFunction*%
%TD*%
%TA.AperFunction,Conductor*%
%TO.N,GND*%
G36*
X72667033Y-128221037D02*
G01*
X72926245Y-128307244D01*
X73936040Y-128643078D01*
X73942808Y-128648939D01*
X73943824Y-128656450D01*
X73782227Y-129473021D01*
X73777260Y-129480472D01*
X73773021Y-129482227D01*
X72956450Y-129643824D01*
X72947669Y-129642069D01*
X72943078Y-129636040D01*
X72521037Y-128367033D01*
X72521678Y-128358101D01*
X72523863Y-128355071D01*
X72655069Y-128223865D01*
X72663341Y-128220439D01*
X72667033Y-128221037D01*
G37*
%TD.AperFunction*%
%TD*%
M02*
