%TF.GenerationSoftware,KiCad,Pcbnew,9.0.2*%
%TF.CreationDate,2026-07-03T16:52:54+03:00*%
%TF.ProjectId,a0,61302e6b-6963-4616-945f-706362585858,Rev 0.3*%
%TF.SameCoordinates,Original*%
%TF.FileFunction,Copper,L4,Bot*%
%TF.FilePolarity,Positive*%
%FSLAX46Y46*%
G04 Gerber Fmt 4.6, Leading zero omitted, Abs format (unit mm)*
G04 Created by KiCad (PCBNEW 9.0.2) date 2026-07-03 16:52:54*
%MOMM*%
%LPD*%
G01*
G04 APERTURE LIST*
G04 Aperture macros list*
%AMRoundRect*
0 Rectangle with rounded corners*
0 $1 Rounding radius*
0 $2 $3 $4 $5 $6 $7 $8 $9 X,Y pos of 4 corners*
0 Add a 4 corners polygon primitive as box body*
4,1,4,$2,$3,$4,$5,$6,$7,$8,$9,$2,$3,0*
0 Add four circle primitives for the rounded corners*
1,1,$1+$1,$2,$3*
1,1,$1+$1,$4,$5*
1,1,$1+$1,$6,$7*
1,1,$1+$1,$8,$9*
0 Add four rect primitives between the rounded corners*
20,1,$1+$1,$2,$3,$4,$5,0*
20,1,$1+$1,$4,$5,$6,$7,0*
20,1,$1+$1,$6,$7,$8,$9,0*
20,1,$1+$1,$8,$9,$2,$3,0*%
%AMFreePoly0*
4,1,23,0.500000,-0.750000,0.000000,-0.750000,0.000000,-0.745722,-0.065263,-0.745722,-0.191342,-0.711940,-0.304381,-0.646677,-0.396677,-0.554381,-0.461940,-0.441342,-0.495722,-0.315263,-0.495722,-0.250000,-0.500000,-0.250000,-0.500000,0.250000,-0.495722,0.250000,-0.495722,0.315263,-0.461940,0.441342,-0.396677,0.554381,-0.304381,0.646677,-0.191342,0.711940,-0.065263,0.745722,0.000000,0.745722,
0.000000,0.750000,0.500000,0.750000,0.500000,-0.750000,0.500000,-0.750000,$1*%
%AMFreePoly1*
4,1,23,0.000000,0.745722,0.065263,0.745722,0.191342,0.711940,0.304381,0.646677,0.396677,0.554381,0.461940,0.441342,0.495722,0.315263,0.495722,0.250000,0.500000,0.250000,0.500000,-0.250000,0.495722,-0.250000,0.495722,-0.315263,0.461940,-0.441342,0.396677,-0.554381,0.304381,-0.646677,0.191342,-0.711940,0.065263,-0.745722,0.000000,-0.745722,0.000000,-0.750000,-0.500000,-0.750000,
-0.500000,0.750000,0.000000,0.750000,0.000000,0.745722,0.000000,0.745722,$1*%
G04 Aperture macros list end*
%TA.AperFunction,ComponentPad*%
%ADD10C,5.000000*%
%TD*%
%TA.AperFunction,HeatsinkPad*%
%ADD11O,1.000000X2.100000*%
%TD*%
%TA.AperFunction,HeatsinkPad*%
%ADD12O,1.000000X1.800000*%
%TD*%
%TA.AperFunction,ComponentPad*%
%ADD13RoundRect,0.250000X-0.600000X-0.750000X0.600000X-0.750000X0.600000X0.750000X-0.600000X0.750000X0*%
%TD*%
%TA.AperFunction,ComponentPad*%
%ADD14O,1.700000X2.000000*%
%TD*%
%TA.AperFunction,ComponentPad*%
%ADD15R,1.700000X1.700000*%
%TD*%
%TA.AperFunction,ComponentPad*%
%ADD16C,1.700000*%
%TD*%
%TA.AperFunction,ComponentPad*%
%ADD17R,1.000000X1.000000*%
%TD*%
%TA.AperFunction,ComponentPad*%
%ADD18C,1.000000*%
%TD*%
%TA.AperFunction,SMDPad,CuDef*%
%ADD19FreePoly0,270.000000*%
%TD*%
%TA.AperFunction,SMDPad,CuDef*%
%ADD20FreePoly1,270.000000*%
%TD*%
%TA.AperFunction,SMDPad,CuDef*%
%ADD21FreePoly0,180.000000*%
%TD*%
%TA.AperFunction,SMDPad,CuDef*%
%ADD22FreePoly1,180.000000*%
%TD*%
%TA.AperFunction,SMDPad,CuDef*%
%ADD23FreePoly0,90.000000*%
%TD*%
%TA.AperFunction,SMDPad,CuDef*%
%ADD24FreePoly1,90.000000*%
%TD*%
%TA.AperFunction,ViaPad*%
%ADD25C,0.600000*%
%TD*%
%TA.AperFunction,Conductor*%
%ADD26C,0.200000*%
%TD*%
G04 APERTURE END LIST*
D10*
%TO.P,H4,1,1*%
%TO.N,GND*%
X90743300Y-126666700D03*
%TD*%
%TO.P,H1,1,1*%
%TO.N,GND*%
X45676700Y-60566700D03*
%TD*%
D11*
%TO.P,J4,S1,SHIELD*%
%TO.N,GND*%
X92680000Y-55040000D03*
D12*
X92680000Y-50840000D03*
D11*
X84040000Y-55040000D03*
D12*
X84040000Y-50840000D03*
%TD*%
D13*
%TO.P,J6,1,Pin_1*%
%TO.N,+5V*%
X53250000Y-50200000D03*
D14*
%TO.P,J6,2,Pin_2*%
%TO.N,GND*%
X55750000Y-50200000D03*
%TD*%
D15*
%TO.P,J8,1,Pin_1*%
%TO.N,GND*%
X92640000Y-65680000D03*
D16*
%TO.P,J8,2,Pin_2*%
X95180000Y-65680000D03*
%TO.P,J8,3,Pin_3*%
%TO.N,unconnected-(J8-Pin_3-Pad3)*%
X92640000Y-68220000D03*
%TO.P,J8,4,Pin_4*%
%TO.N,unconnected-(J8-Pin_4-Pad4)*%
X95180000Y-68220000D03*
%TO.P,J8,5,Pin_5*%
%TO.N,SIM7080G_D+*%
X92640000Y-70760000D03*
%TO.P,J8,6,Pin_6*%
%TO.N,SIM7080G_D-*%
X95180000Y-70760000D03*
%TO.P,J8,7,Pin_7*%
%TO.N,ETH_RST*%
X92640000Y-73300000D03*
%TO.P,J8,8,Pin_8*%
%TO.N,WMBUS_CS*%
X95180000Y-73300000D03*
%TO.P,J8,9,Pin_9*%
%TO.N,ETH_INT*%
X92640000Y-75840000D03*
%TO.P,J8,10,Pin_10*%
%TO.N,unconnected-(J8-Pin_10-Pad10)*%
X95180000Y-75840000D03*
%TO.P,J8,11,Pin_11*%
%TO.N,unconnected-(J8-Pin_11-Pad11)*%
X92640000Y-78380000D03*
%TO.P,J8,12,Pin_12*%
%TO.N,unconnected-(J8-Pin_12-Pad12)*%
X95180000Y-78380000D03*
%TO.P,J8,13,Pin_13*%
%TO.N,unconnected-(J8-Pin_13-Pad13)*%
X92640000Y-80920000D03*
%TO.P,J8,14,Pin_14*%
%TO.N,unconnected-(J8-Pin_14-Pad14)*%
X95180000Y-80920000D03*
%TO.P,J8,15,Pin_15*%
%TO.N,SIM7080G_PWR*%
X92640000Y-83460000D03*
%TO.P,J8,16,Pin_16*%
%TO.N,unconnected-(J8-Pin_16-Pad16)*%
X95180000Y-83460000D03*
%TO.P,J8,17,Pin_17*%
%TO.N,SIM7080G_DTR*%
X92640000Y-86000000D03*
%TO.P,J8,18,Pin_18*%
%TO.N,SIM7080G_RING*%
X95180000Y-86000000D03*
%TO.P,J8,19,Pin_19*%
%TO.N,SIM7080G_RTS*%
X92640000Y-88540000D03*
%TO.P,J8,20,Pin_20*%
%TO.N,SIM7080G_CTS*%
X95180000Y-88540000D03*
%TO.P,J8,21,Pin_21*%
%TO.N,unconnected-(J8-Pin_21-Pad21)*%
X92640000Y-91080000D03*
%TO.P,J8,22,Pin_22*%
%TO.N,unconnected-(J8-Pin_22-Pad22)*%
X95180000Y-91080000D03*
%TO.P,J8,23,Pin_23*%
%TO.N,unconnected-(J8-Pin_23-Pad23)*%
X92640000Y-93620000D03*
%TO.P,J8,24,Pin_24*%
%TO.N,unconnected-(J8-Pin_24-Pad24)*%
X95180000Y-93620000D03*
%TO.P,J8,25,Pin_25*%
%TO.N,MBUS_RX*%
X92640000Y-96160000D03*
%TO.P,J8,26,Pin_26*%
%TO.N,MBUS_TX*%
X95180000Y-96160000D03*
%TO.P,J8,27,Pin_27*%
%TO.N,unconnected-(J8-Pin_27-Pad27)*%
X92640000Y-98700000D03*
%TO.P,J8,28,Pin_28*%
%TO.N,unconnected-(J8-Pin_28-Pad28)*%
X95180000Y-98700000D03*
%TO.P,J8,29,Pin_29*%
%TO.N,unconnected-(J8-Pin_29-Pad29)*%
X92640000Y-101240000D03*
%TO.P,J8,30,Pin_30*%
%TO.N,unconnected-(J8-Pin_30-Pad30)*%
X95180000Y-101240000D03*
%TO.P,J8,31,Pin_31*%
%TO.N,unconnected-(J8-Pin_31-Pad31)*%
X92640000Y-103780000D03*
%TO.P,J8,32,Pin_32*%
%TO.N,unconnected-(J8-Pin_32-Pad32)*%
X95180000Y-103780000D03*
%TO.P,J8,33,Pin_33*%
%TO.N,unconnected-(J8-Pin_33-Pad33)*%
X92640000Y-106320000D03*
%TO.P,J8,34,Pin_34*%
%TO.N,unconnected-(J8-Pin_34-Pad34)*%
X95180000Y-106320000D03*
%TO.P,J8,35,Pin_35*%
%TO.N,unconnected-(J8-Pin_35-Pad35)*%
X92640000Y-108860000D03*
%TO.P,J8,36,Pin_36*%
%TO.N,unconnected-(J8-Pin_36-Pad36)*%
X95180000Y-108860000D03*
%TO.P,J8,37,Pin_37*%
%TO.N,unconnected-(J8-Pin_37-Pad37)*%
X92640000Y-111400000D03*
%TO.P,J8,38,Pin_38*%
%TO.N,unconnected-(J8-Pin_38-Pad38)*%
X95180000Y-111400000D03*
%TO.P,J8,39,Pin_39*%
%TO.N,unconnected-(J8-Pin_39-Pad39)*%
X92640000Y-113940000D03*
%TO.P,J8,40,Pin_40*%
%TO.N,unconnected-(J8-Pin_40-Pad40)*%
X95180000Y-113940000D03*
%TO.P,J8,41,Pin_41*%
%TO.N,unconnected-(J8-Pin_41-Pad41)*%
X92640000Y-116480000D03*
%TO.P,J8,42,Pin_42*%
%TO.N,unconnected-(J8-Pin_42-Pad42)*%
X95180000Y-116480000D03*
%TO.P,J8,43,Pin_43*%
%TO.N,ETH_CS*%
X92640000Y-119020000D03*
%TO.P,J8,44,Pin_44*%
%TO.N,MTDO*%
X95180000Y-119020000D03*
%TO.P,J8,45,Pin_45*%
%TO.N,MTMS*%
X92640000Y-121560000D03*
%TO.P,J8,46,Pin_46*%
%TO.N,MTDI*%
X95180000Y-121560000D03*
%TD*%
D10*
%TO.P,H3,1,1*%
%TO.N,GND*%
X48760000Y-126700000D03*
%TD*%
D15*
%TO.P,J7,1,Pin_1*%
%TO.N,GND*%
X44440000Y-65620000D03*
D16*
%TO.P,J7,2,Pin_2*%
X46980000Y-65620000D03*
%TO.P,J7,3,Pin_3*%
%TO.N,+3V3*%
X44440000Y-68160000D03*
%TO.P,J7,4,Pin_4*%
X46980000Y-68160000D03*
%TO.P,J7,5,Pin_5*%
%TO.N,unconnected-(J7-Pin_5-Pad5)*%
X44440000Y-70700000D03*
%TO.P,J7,6,Pin_6*%
%TO.N,unconnected-(J7-Pin_6-Pad6)*%
X46980000Y-70700000D03*
%TO.P,J7,7,Pin_7*%
%TO.N,+5V*%
X44440000Y-73240000D03*
%TO.P,J7,8,Pin_8*%
X46980000Y-73240000D03*
%TO.P,J7,9,Pin_9*%
%TO.N,unconnected-(J7-Pin_9-Pad9)*%
X44440000Y-75780000D03*
%TO.P,J7,10,Pin_10*%
%TO.N,unconnected-(J7-Pin_10-Pad10)*%
X46980000Y-75780000D03*
%TO.P,J7,11,Pin_11*%
%TO.N,SIM7080G_TX*%
X44440000Y-78320000D03*
%TO.P,J7,12,Pin_12*%
%TO.N,unconnected-(J7-Pin_12-Pad12)*%
X46980000Y-78320000D03*
%TO.P,J7,13,Pin_13*%
%TO.N,SIM7080G_RX*%
X44440000Y-80860000D03*
%TO.P,J7,14,Pin_14*%
%TO.N,unconnected-(J7-Pin_14-Pad14)*%
X46980000Y-80860000D03*
%TO.P,J7,15,Pin_15*%
%TO.N,unconnected-(J7-Pin_15-Pad15)*%
X44440000Y-83400000D03*
%TO.P,J7,16,Pin_16*%
%TO.N,unconnected-(J7-Pin_16-Pad16)*%
X46980000Y-83400000D03*
%TO.P,J7,17,Pin_17*%
%TO.N,unconnected-(J7-Pin_17-Pad17)*%
X44440000Y-85940000D03*
%TO.P,J7,18,Pin_18*%
%TO.N,unconnected-(J7-Pin_18-Pad18)*%
X46980000Y-85940000D03*
%TO.P,J7,19,Pin_19*%
%TO.N,unconnected-(J7-Pin_19-Pad19)*%
X44440000Y-88480000D03*
%TO.P,J7,20,Pin_20*%
%TO.N,unconnected-(J7-Pin_20-Pad20)*%
X46980000Y-88480000D03*
%TO.P,J7,21,Pin_21*%
%TO.N,USB_D-*%
X44440000Y-91020000D03*
%TO.P,J7,22,Pin_22*%
%TO.N,USB_D+*%
X46980000Y-91020000D03*
%TO.P,J7,23,Pin_23*%
%TO.N,unconnected-(J7-Pin_23-Pad23)*%
X44440000Y-93560000D03*
%TO.P,J7,24,Pin_24*%
%TO.N,unconnected-(J7-Pin_24-Pad24)*%
X46980000Y-93560000D03*
%TO.P,J7,25,Pin_25*%
%TO.N,unconnected-(J7-Pin_25-Pad25)*%
X44440000Y-96100000D03*
%TO.P,J7,26,Pin_26*%
%TO.N,unconnected-(J7-Pin_26-Pad26)*%
X46980000Y-96100000D03*
%TO.P,J7,27,Pin_27*%
%TO.N,unconnected-(J7-Pin_27-Pad27)*%
X44440000Y-98640000D03*
%TO.P,J7,28,Pin_28*%
%TO.N,unconnected-(J7-Pin_28-Pad28)*%
X46980000Y-98640000D03*
%TO.P,J7,29,Pin_29*%
%TO.N,MOSI*%
X44440000Y-101180000D03*
%TO.P,J7,30,Pin_30*%
%TO.N,MISO*%
X46980000Y-101180000D03*
%TO.P,J7,31,Pin_31*%
%TO.N,SCK*%
X44440000Y-103720000D03*
%TO.P,J7,32,Pin_32*%
%TO.N,unconnected-(J7-Pin_32-Pad32)*%
X46980000Y-103720000D03*
%TO.P,J7,33,Pin_33*%
%TO.N,unconnected-(J7-Pin_33-Pad33)*%
X44440000Y-106260000D03*
%TO.P,J7,34,Pin_34*%
%TO.N,GND*%
X46980000Y-106260000D03*
%TO.P,J7,35,Pin_35*%
%TO.N,unconnected-(J7-Pin_35-Pad35)*%
X44440000Y-108800000D03*
%TO.P,J7,36,Pin_36*%
%TO.N,unconnected-(J7-Pin_36-Pad36)*%
X46980000Y-108800000D03*
%TO.P,J7,37,Pin_37*%
%TO.N,unconnected-(J7-Pin_37-Pad37)*%
X44440000Y-111340000D03*
%TO.P,J7,38,Pin_38*%
%TO.N,unconnected-(J7-Pin_38-Pad38)*%
X46980000Y-111340000D03*
%TO.P,J7,39,Pin_39*%
%TO.N,unconnected-(J7-Pin_39-Pad39)*%
X44440000Y-113880000D03*
%TO.P,J7,40,Pin_40*%
%TO.N,unconnected-(J7-Pin_40-Pad40)*%
X46980000Y-113880000D03*
%TO.P,J7,41,Pin_41*%
%TO.N,unconnected-(J7-Pin_41-Pad41)*%
X44440000Y-116420000D03*
%TO.P,J7,42,Pin_42*%
%TO.N,unconnected-(J7-Pin_42-Pad42)*%
X46980000Y-116420000D03*
%TO.P,J7,43,Pin_43*%
%TO.N,GND*%
X44440000Y-118960000D03*
%TO.P,J7,44,Pin_44*%
X46980000Y-118960000D03*
%TO.P,J7,45,Pin_45*%
X44440000Y-121500000D03*
%TO.P,J7,46,Pin_46*%
X46980000Y-121500000D03*
%TD*%
D17*
%TO.P,J1,1,VTref*%
%TO.N,+3V3*%
X60000000Y-64310000D03*
D18*
%TO.P,J1,2,SWDIO/TMS*%
%TO.N,MTMS*%
X58730000Y-64310000D03*
%TO.P,J1,3,GND*%
%TO.N,GND*%
X60000000Y-63040000D03*
%TO.P,J1,4,SWCLK/TCK*%
%TO.N,ETH_CS*%
X58730000Y-63040000D03*
%TO.P,J1,5,GND*%
%TO.N,GND*%
X60000000Y-61770000D03*
%TO.P,J1,6,SWO/TDO*%
%TO.N,MTDO*%
X58730000Y-61770000D03*
%TO.P,J1,7,KEY*%
%TO.N,unconnected-(J1-KEY-Pad7)*%
X60000000Y-60500000D03*
%TO.P,J1,8,NC/TDI*%
%TO.N,MTDI*%
X58730000Y-60500000D03*
%TO.P,J1,9,GNDDetect*%
%TO.N,GND*%
X60000000Y-59230000D03*
%TO.P,J1,10,~{RESET}*%
%TO.N,MCU_RST*%
X58730000Y-59230000D03*
%TD*%
D10*
%TO.P,H2,1,1*%
%TO.N,GND*%
X93860000Y-60600000D03*
%TD*%
D19*
%TO.P,JP3,1,A*%
%TO.N,Net-(JP3-A)*%
X56730000Y-71670000D03*
D20*
%TO.P,JP3,2,B*%
%TO.N,SIM7080G_CTS*%
X56730000Y-72970000D03*
%TD*%
D21*
%TO.P,JP1,1,A*%
%TO.N,Net-(D1-A2)*%
X52210000Y-107650000D03*
D22*
%TO.P,JP1,2,B*%
%TO.N,Net-(JP1-B)*%
X50910000Y-107650000D03*
%TD*%
D23*
%TO.P,JP2,1,A*%
%TO.N,Net-(JP2-A)*%
X59400000Y-72970000D03*
D24*
%TO.P,JP2,2,B*%
%TO.N,SIM7080G_RTS*%
X59400000Y-71670000D03*
%TD*%
D25*
%TO.N,+3V3*%
X55385900Y-75240000D03*
X76264200Y-96175800D03*
X74120000Y-84998000D03*
X82950000Y-80107800D03*
X68846200Y-96232100D03*
X72800000Y-102400700D03*
X66229600Y-72275800D03*
X53270000Y-59349700D03*
X67870000Y-112982100D03*
X81999900Y-77581600D03*
X85287500Y-92351100D03*
X49170500Y-110324200D03*
X60662900Y-73477800D03*
X68998600Y-112673800D03*
X85480000Y-100752700D03*
X72747500Y-98309500D03*
X62645000Y-73493300D03*
X77682500Y-98302700D03*
%TO.N,GND*%
X67870000Y-116936800D03*
X76670000Y-102195200D03*
X74520000Y-89122700D03*
X59920000Y-76767100D03*
X89160000Y-70379800D03*
X67570000Y-69443000D03*
X74858800Y-95699100D03*
X52550600Y-128942300D03*
X80040000Y-84024500D03*
X58877500Y-110797300D03*
X67570000Y-82129400D03*
X74796900Y-69188900D03*
X73970000Y-69442900D03*
X72633000Y-71276100D03*
X68998600Y-116918800D03*
X69170000Y-69442900D03*
X87891400Y-61202400D03*
X56463800Y-103866200D03*
X68370000Y-71281400D03*
X55900100Y-110758400D03*
X50840000Y-59327000D03*
X76115000Y-88599100D03*
X79830000Y-72735800D03*
X86811600Y-61240700D03*
X77221300Y-81097300D03*
X68998600Y-118699700D03*
X65210000Y-101877100D03*
X78578100Y-96295600D03*
X63105000Y-106370700D03*
X82912500Y-91591800D03*
X68916100Y-93124300D03*
X64552900Y-110783100D03*
X68998600Y-109966600D03*
X76720000Y-69432500D03*
X50574000Y-66517400D03*
X60415000Y-69567000D03*
X53661700Y-88867600D03*
X52555300Y-119717100D03*
X66055000Y-106365500D03*
X59231600Y-86075800D03*
X61752500Y-110788900D03*
X70770000Y-69442900D03*
X66770000Y-69060300D03*
X82942500Y-105044500D03*
X52912000Y-75455400D03*
X85917300Y-67213100D03*
X85060000Y-61262900D03*
X57660000Y-117368200D03*
X76450000Y-89584400D03*
X83270000Y-101731700D03*
X54994200Y-71267900D03*
X51256800Y-94920000D03*
X69970000Y-71253500D03*
X75599100Y-69188900D03*
X67655100Y-101895600D03*
X86300000Y-87048300D03*
X52560000Y-97961400D03*
X64253600Y-128740000D03*
X72747500Y-94375700D03*
X53521200Y-107154400D03*
X79320000Y-128183200D03*
X63702300Y-86314900D03*
X82930000Y-87742100D03*
X50985000Y-68825000D03*
X71771400Y-69446900D03*
X84450000Y-67228300D03*
X81990000Y-72733200D03*
X76780000Y-131459200D03*
X64253600Y-119793700D03*
X63952500Y-79599500D03*
X83434000Y-94431000D03*
X85160000Y-56763900D03*
X74420000Y-102158900D03*
X65970000Y-69423800D03*
X62645000Y-69549300D03*
X87089600Y-109146600D03*
X93887800Y-54566600D03*
X66570200Y-110014400D03*
X54267000Y-109822700D03*
X60810000Y-101877900D03*
%TO.N,+1V8*%
X55740800Y-82645800D03*
X69049400Y-86466200D03*
%TO.N,+5V*%
X57648900Y-99195000D03*
X86058100Y-57047900D03*
X89350800Y-61791100D03*
%TO.N,Net-(D1-A2)*%
X53249400Y-108144800D03*
%TO.N,SIM_CLK*%
X54498200Y-104555200D03*
X50161600Y-92911900D03*
%TO.N,USB_D-*%
X88236200Y-58482200D03*
X68838100Y-78541000D03*
X66898900Y-76366500D03*
X84025800Y-76436800D03*
%TO.N,USB_D+*%
X87364100Y-62679800D03*
X69522200Y-81274800D03*
X75720000Y-71270000D03*
%TO.N,MTDI*%
X65100000Y-81202800D03*
X67347700Y-107553900D03*
%TO.N,MTDO*%
X69789800Y-83414700D03*
X75686700Y-119270500D03*
%TO.N,ETH_CS*%
X58831600Y-68661700D03*
X66828200Y-77294100D03*
%TO.N,SIM7080G_TX*%
X78572500Y-70617900D03*
%TO.N,MISO*%
X76553500Y-106647000D03*
X77629300Y-80347800D03*
%TO.N,SCK*%
X84344100Y-107205500D03*
X78156800Y-78037100D03*
%TO.N,MOSI*%
X75682900Y-81179600D03*
X83675100Y-118275800D03*
%TO.N,SIM7080G_RX*%
X76117200Y-68247600D03*
X55346200Y-74123600D03*
X55962100Y-70617900D03*
%TO.N,MBUS_TX*%
X78116800Y-75666900D03*
X90899700Y-76602300D03*
%TO.N,MBUS_RX*%
X90259500Y-80344600D03*
X77990600Y-76944700D03*
%TO.N,ETH_INT*%
X66780500Y-75203700D03*
%TO.N,SIM7080G_DTR*%
X59099800Y-74001100D03*
%TO.N,ETH_RST*%
X66405300Y-73708600D03*
%TO.N,SIM7080G_PWR*%
X91279200Y-87029200D03*
X76350800Y-83250900D03*
%TO.N,WMBUS_CS*%
X87623900Y-113398700D03*
X75679500Y-77162400D03*
%TO.N,SIM7080G_RING*%
X60860900Y-78811600D03*
%TO.N,Net-(JP1-B)*%
X51236500Y-96873800D03*
%TO.N,Net-(JP2-A)*%
X56989700Y-74174900D03*
%TO.N,Net-(JP3-A)*%
X57987200Y-72553700D03*
%TO.N,NETLIGHT*%
X75686000Y-91230300D03*
X78999000Y-98582500D03*
%TO.N,WMBUS_SDN*%
X70623900Y-102754800D03*
X72665000Y-81128100D03*
%TO.N,SIM_RX*%
X64684800Y-83300800D03*
X59172700Y-83015800D03*
%TO.N,SIM_CTS*%
X60124200Y-81493100D03*
X57429300Y-79790600D03*
%TO.N,SIM_TX*%
X66283300Y-82916600D03*
X56013700Y-81844000D03*
%TO.N,SIM_RI*%
X60370000Y-83537500D03*
X60943800Y-81274300D03*
%TO.N,SIM_RTS*%
X64652800Y-85987400D03*
X58316700Y-81103300D03*
%TD*%
D26*
%TO.N,Net-(D1-A2)*%
X52210000Y-107650000D02*
X52754600Y-107650000D01*
X52754600Y-107650000D02*
X53249400Y-108144800D01*
%TO.N,USB_D-*%
X68838100Y-78541000D02*
X64680000Y-82699100D01*
X57459100Y-89675700D02*
X45784300Y-89675700D01*
X45784300Y-89675700D02*
X44440000Y-91020000D01*
X64435700Y-82699100D02*
X57459100Y-89675700D01*
X64680000Y-82699100D02*
X64435700Y-82699100D01*
%TO.N,SIM7080G_RTS*%
X81569500Y-86473000D02*
X76284600Y-81188100D01*
X67024200Y-71670000D02*
X59400000Y-71670000D01*
X84852000Y-86473000D02*
X81569500Y-86473000D01*
X76284600Y-81188100D02*
X76284600Y-80930400D01*
X92640000Y-88540000D02*
X86919000Y-88540000D01*
X76284600Y-80930400D02*
X67024200Y-71670000D01*
X86919000Y-88540000D02*
X84852000Y-86473000D01*
%TO.N,SIM7080G_CTS*%
X69439800Y-78291800D02*
X69087300Y-77939300D01*
X93976900Y-89743100D02*
X80429200Y-89743100D01*
X69087300Y-77939300D02*
X59879200Y-77939300D01*
X56382000Y-73318000D02*
X56730000Y-72970000D01*
X80429200Y-89743100D02*
X69439800Y-78753700D01*
X69439800Y-78753700D02*
X69439800Y-78291800D01*
X56382000Y-74442100D02*
X56382000Y-73318000D01*
X59879200Y-77939300D02*
X56382000Y-74442100D01*
X95180000Y-88540000D02*
X93976900Y-89743100D01*
%TO.N,Net-(JP1-B)*%
X50910000Y-97200300D02*
X51236500Y-96873800D01*
X50910000Y-107650000D02*
X50910000Y-97200300D01*
%TO.N,Net-(JP2-A)*%
X59400000Y-72970000D02*
X59280100Y-72970000D01*
X58075200Y-74174900D02*
X56989700Y-74174900D01*
X59280100Y-72970000D02*
X58075200Y-74174900D01*
%TO.N,Net-(JP3-A)*%
X57987200Y-72550500D02*
X57987200Y-72553700D01*
X57106700Y-71670000D02*
X57987200Y-72550500D01*
X56730000Y-71670000D02*
X57106700Y-71670000D01*
%TO.N,SIM_CTS*%
X60124200Y-81493100D02*
X58421700Y-79790600D01*
X58421700Y-79790600D02*
X57429300Y-79790600D01*
%TD*%
M02*
