%TF.GenerationSoftware,KiCad,Pcbnew,9.0.2*%
%TF.CreationDate,2026-07-03T16:52:54+03:00*%
%TF.ProjectId,a0,61302e6b-6963-4616-945f-706362585858,Rev 0.3*%
%TF.SameCoordinates,Original*%
%TF.FileFunction,Soldermask,Top*%
%TF.FilePolarity,Negative*%
%FSLAX46Y46*%
G04 Gerber Fmt 4.6, Leading zero omitted, Abs format (unit mm)*
G04 Created by KiCad (PCBNEW 9.0.2) date 2026-07-03 16:52:54*
%MOMM*%
%LPD*%
G01*
G04 APERTURE LIST*
G04 Aperture macros list*
%AMRoundRect*
0 Rectangle with rounded corners*
0 $1 Rounding radius*
0 $2 $3 $4 $5 $6 $7 $8 $9 X,Y pos of 4 corners*
0 Add a 4 corners polygon primitive as box body*
4,1,4,$2,$3,$4,$5,$6,$7,$8,$9,$2,$3,0*
0 Add four circle primitives for the rounded corners*
1,1,$1+$1,$2,$3*
1,1,$1+$1,$4,$5*
1,1,$1+$1,$6,$7*
1,1,$1+$1,$8,$9*
0 Add four rect primitives between the rounded corners*
20,1,$1+$1,$2,$3,$4,$5,0*
20,1,$1+$1,$4,$5,$6,$7,0*
20,1,$1+$1,$6,$7,$8,$9,0*
20,1,$1+$1,$8,$9,$2,$3,0*%
G04 Aperture macros list end*
%ADD10C,0.010000*%
%ADD11C,5.000000*%
%ADD12RoundRect,0.062500X-0.062500X0.117500X-0.062500X-0.117500X0.062500X-0.117500X0.062500X0.117500X0*%
%ADD13RoundRect,0.150000X-0.587500X-0.150000X0.587500X-0.150000X0.587500X0.150000X-0.587500X0.150000X0*%
%ADD14RoundRect,0.243750X-0.456250X0.243750X-0.456250X-0.243750X0.456250X-0.243750X0.456250X0.243750X0*%
%ADD15RoundRect,0.250000X-0.450000X0.262500X-0.450000X-0.262500X0.450000X-0.262500X0.450000X0.262500X0*%
%ADD16RoundRect,0.062500X0.062500X-0.117500X0.062500X0.117500X-0.062500X0.117500X-0.062500X-0.117500X0*%
%ADD17RoundRect,0.250000X0.250000X-0.275000X0.250000X0.275000X-0.250000X0.275000X-0.250000X-0.275000X0*%
%ADD18RoundRect,0.250000X0.275000X-0.850000X0.275000X0.850000X-0.275000X0.850000X-0.275000X-0.850000X0*%
%ADD19RoundRect,0.250000X0.650000X-0.325000X0.650000X0.325000X-0.650000X0.325000X-0.650000X-0.325000X0*%
%ADD20RoundRect,0.250000X-0.475000X0.250000X-0.475000X-0.250000X0.475000X-0.250000X0.475000X0.250000X0*%
%ADD21RoundRect,0.200000X-0.200000X-0.800000X0.200000X-0.800000X0.200000X0.800000X-0.200000X0.800000X0*%
%ADD22RoundRect,0.102000X-0.400000X-0.200000X0.400000X-0.200000X0.400000X0.200000X-0.400000X0.200000X0*%
%ADD23RoundRect,0.102000X-0.200000X-0.400000X0.200000X-0.400000X0.200000X0.400000X-0.200000X0.400000X0*%
%ADD24RoundRect,0.102000X-0.725000X-0.725000X0.725000X-0.725000X0.725000X0.725000X-0.725000X0.725000X0*%
%ADD25RoundRect,0.102000X-0.350000X-0.350000X0.350000X-0.350000X0.350000X0.350000X-0.350000X0.350000X0*%
%ADD26RoundRect,0.250000X-0.262500X-0.450000X0.262500X-0.450000X0.262500X0.450000X-0.262500X0.450000X0*%
%ADD27R,0.600000X1.240000*%
%ADD28R,0.300000X1.240000*%
%ADD29O,1.000000X2.100000*%
%ADD30O,1.000000X1.800000*%
%ADD31RoundRect,0.150000X0.587500X0.150000X-0.587500X0.150000X-0.587500X-0.150000X0.587500X-0.150000X0*%
%ADD32RoundRect,0.250000X-0.600000X-0.750000X0.600000X-0.750000X0.600000X0.750000X-0.600000X0.750000X0*%
%ADD33O,1.700000X2.000000*%
%ADD34RoundRect,0.200000X0.800000X-0.200000X0.800000X0.200000X-0.800000X0.200000X-0.800000X-0.200000X0*%
%ADD35R,1.700000X1.700000*%
%ADD36C,1.700000*%
%ADD37RoundRect,0.250000X-0.362500X-0.700000X0.362500X-0.700000X0.362500X0.700000X-0.362500X0.700000X0*%
%ADD38RoundRect,0.250000X0.250000X0.475000X-0.250000X0.475000X-0.250000X-0.475000X0.250000X-0.475000X0*%
%ADD39RoundRect,0.250000X0.450000X-0.262500X0.450000X0.262500X-0.450000X0.262500X-0.450000X-0.262500X0*%
%ADD40RoundRect,0.250000X-0.250000X0.275000X-0.250000X-0.275000X0.250000X-0.275000X0.250000X0.275000X0*%
%ADD41RoundRect,0.250000X-0.275000X0.850000X-0.275000X-0.850000X0.275000X-0.850000X0.275000X0.850000X0*%
%ADD42RoundRect,0.250000X0.475000X-0.250000X0.475000X0.250000X-0.475000X0.250000X-0.475000X-0.250000X0*%
%ADD43O,0.804000X1.804000*%
%ADD44O,1.804000X0.804000*%
%ADD45RoundRect,0.102000X-0.450000X0.550000X-0.450000X-0.550000X0.450000X-0.550000X0.450000X0.550000X0*%
%ADD46RoundRect,0.102000X-0.550000X0.450000X-0.550000X-0.450000X0.550000X-0.450000X0.550000X0.450000X0*%
%ADD47RoundRect,0.102000X-1.550000X1.300000X-1.550000X-1.300000X1.550000X-1.300000X1.550000X1.300000X0*%
%ADD48RoundRect,0.062500X0.117500X0.062500X-0.117500X0.062500X-0.117500X-0.062500X0.117500X-0.062500X0*%
%ADD49RoundRect,0.102000X0.900000X0.450000X-0.900000X0.450000X-0.900000X-0.450000X0.900000X-0.450000X0*%
%ADD50RoundRect,0.102000X0.450000X1.100000X-0.450000X1.100000X-0.450000X-1.100000X0.450000X-1.100000X0*%
%ADD51RoundRect,0.250001X-0.624999X0.462499X-0.624999X-0.462499X0.624999X-0.462499X0.624999X0.462499X0*%
%ADD52R,1.000000X1.000000*%
%ADD53C,1.000000*%
%ADD54RoundRect,0.150000X-0.512500X-0.150000X0.512500X-0.150000X0.512500X0.150000X-0.512500X0.150000X0*%
%ADD55RoundRect,0.250000X-0.250000X-0.475000X0.250000X-0.475000X0.250000X0.475000X-0.250000X0.475000X0*%
%ADD56R,0.900000X1.200000*%
%ADD57R,1.300000X1.800000*%
%ADD58RoundRect,0.050000X0.250000X0.070000X-0.250000X0.070000X-0.250000X-0.070000X0.250000X-0.070000X0*%
%ADD59RoundRect,0.050000X0.070000X-0.250000X0.070000X0.250000X-0.070000X0.250000X-0.070000X-0.250000X0*%
%ADD60RoundRect,0.050000X1.475000X-0.975000X1.475000X0.975000X-1.475000X0.975000X-1.475000X-0.975000X0*%
%ADD61RoundRect,0.375000X-0.375000X0.625000X-0.375000X-0.625000X0.375000X-0.625000X0.375000X0.625000X0*%
%ADD62RoundRect,0.500000X-1.400000X0.500000X-1.400000X-0.500000X1.400000X-0.500000X1.400000X0.500000X0*%
G04 APERTURE END LIST*
%TO.C,J2*%
G36*
X51520000Y-71425000D02*
G01*
X53400000Y-71425000D01*
X53400000Y-69335000D01*
X51520000Y-69335000D01*
X51520000Y-71425000D01*
G37*
D10*
%TO.C,U1*%
X69620000Y-74100000D02*
X67970000Y-74100000D01*
X67970000Y-73110000D01*
X68630000Y-72450000D01*
X69620000Y-72450000D01*
X69620000Y-74100000D01*
G36*
X69620000Y-74100000D02*
G01*
X67970000Y-74100000D01*
X67970000Y-73110000D01*
X68630000Y-72450000D01*
X69620000Y-72450000D01*
X69620000Y-74100000D01*
G37*
%TO.C,J3*%
G36*
X65520000Y-103755000D02*
G01*
X63640000Y-103755000D01*
X63640000Y-105845000D01*
X65520000Y-105845000D01*
X65520000Y-103755000D01*
G37*
%TO.C,U2*%
X66410000Y-89450000D02*
X66410000Y-91220000D01*
X63110000Y-91220000D01*
X63110000Y-88420000D01*
X65380000Y-88420000D01*
X66410000Y-89450000D01*
G36*
X66410000Y-89450000D02*
G01*
X66410000Y-91220000D01*
X63110000Y-91220000D01*
X63110000Y-88420000D01*
X65380000Y-88420000D01*
X66410000Y-89450000D01*
G37*
%TD*%
D11*
%TO.C,H4*%
X90743300Y-126666700D03*
%TD*%
D12*
%TO.C,D8*%
X87980000Y-60515000D03*
X87980000Y-59675000D03*
%TD*%
D13*
%TO.C,Q2*%
X81395000Y-99970000D03*
X81395000Y-101870000D03*
X83270000Y-100920000D03*
%TD*%
D14*
%TO.C,D12*%
X75010000Y-103392500D03*
X75010000Y-105267500D03*
%TD*%
D15*
%TO.C,R17*%
X67500000Y-109087500D03*
X67500000Y-110912500D03*
%TD*%
%TO.C,R2*%
X53270000Y-60377500D03*
X53270000Y-62202500D03*
%TD*%
D16*
%TO.C,D6*%
X94520000Y-54282500D03*
X94520000Y-55122500D03*
%TD*%
D17*
%TO.C,J2*%
X52460000Y-71960000D03*
D18*
X50985000Y-70435000D03*
X53935000Y-70435000D03*
%TD*%
D19*
%TO.C,C6*%
X75215000Y-97225000D03*
X75215000Y-94275000D03*
%TD*%
D20*
%TO.C,C16*%
X53800000Y-76420000D03*
X53800000Y-78320000D03*
%TD*%
D21*
%TO.C,SW1*%
X50400000Y-65000000D03*
X54600000Y-65000000D03*
%TD*%
D13*
%TO.C,Q3*%
X81037500Y-91450000D03*
X81037500Y-93350000D03*
X82912500Y-92400000D03*
%TD*%
D20*
%TO.C,C18*%
X67870000Y-114010000D03*
X67870000Y-115910000D03*
%TD*%
D14*
%TO.C,D4*%
X85480000Y-97882500D03*
X85480000Y-99757500D03*
%TD*%
D20*
%TO.C,C13*%
X58890000Y-111800000D03*
X58890000Y-113700000D03*
%TD*%
D11*
%TO.C,H1*%
X45676700Y-60566700D03*
%TD*%
D22*
%TO.C,U1*%
X64870000Y-71250000D03*
X64870000Y-72050000D03*
X64870000Y-72850000D03*
X64870000Y-73650000D03*
X64870000Y-74450000D03*
X64870000Y-75250000D03*
X64870000Y-76050000D03*
X64870000Y-76850000D03*
X64870000Y-77650000D03*
X64870000Y-78450000D03*
X64870000Y-79250000D03*
D23*
X65970000Y-80150000D03*
X66770000Y-80150000D03*
X67570000Y-80150000D03*
X68370000Y-80150000D03*
X69170000Y-80150000D03*
X69970000Y-80150000D03*
X70770000Y-80150000D03*
X71570000Y-80150000D03*
X72370000Y-80150000D03*
X73170000Y-80150000D03*
X73970000Y-80150000D03*
X74770000Y-80150000D03*
X75570000Y-80150000D03*
D22*
X76670000Y-79250000D03*
X76670000Y-78450000D03*
X76670000Y-77650000D03*
X76670000Y-76850000D03*
X76670000Y-76050000D03*
X76670000Y-75250000D03*
X76670000Y-74450000D03*
X76670000Y-73650000D03*
X76670000Y-72850000D03*
X76670000Y-72050000D03*
X76670000Y-71250000D03*
D23*
X75570000Y-70350000D03*
X74770000Y-70350000D03*
X73970000Y-70350000D03*
X73170000Y-70350000D03*
X72370000Y-70350000D03*
X71570000Y-70350000D03*
X70770000Y-70350000D03*
X69970000Y-70350000D03*
X69170000Y-70350000D03*
X68370000Y-70350000D03*
X67570000Y-70350000D03*
X66770000Y-70350000D03*
X65970000Y-70350000D03*
D24*
X70770000Y-73275000D03*
X72745000Y-73275000D03*
X72745000Y-75250000D03*
X72745000Y-77225000D03*
X70770000Y-77225000D03*
X68795000Y-77225000D03*
X68795000Y-75250000D03*
X70770000Y-75250000D03*
D25*
X76720000Y-70300000D03*
X76720000Y-80200000D03*
X64820000Y-80200000D03*
X64820000Y-70300000D03*
%TD*%
D26*
%TO.C,R15*%
X80905000Y-95530000D03*
X82730000Y-95530000D03*
%TD*%
D27*
%TO.C,J4*%
X91560000Y-55640000D03*
X90760000Y-55640000D03*
D28*
X89610000Y-55640000D03*
X88610000Y-55640000D03*
X88110000Y-55640000D03*
X87110000Y-55640000D03*
D27*
X85960000Y-55640000D03*
X85160000Y-55640000D03*
X85160000Y-55640000D03*
X85960000Y-55640000D03*
D28*
X86610000Y-55640000D03*
X87610000Y-55640000D03*
X89110000Y-55640000D03*
X90110000Y-55640000D03*
D27*
X90760000Y-55640000D03*
X91560000Y-55640000D03*
D29*
X92680000Y-55040000D03*
D30*
X92680000Y-50840000D03*
D29*
X84040000Y-55040000D03*
D30*
X84040000Y-50840000D03*
%TD*%
D26*
%TO.C,R10*%
X80967500Y-97940000D03*
X82792500Y-97940000D03*
%TD*%
D31*
%TO.C,Q1*%
X77990000Y-88740000D03*
X77990000Y-86840000D03*
X76115000Y-87790000D03*
%TD*%
D32*
%TO.C,J6*%
X53250000Y-50200000D03*
D33*
X55750000Y-50200000D03*
%TD*%
D34*
%TO.C,SW2*%
X86300000Y-86107500D03*
X86300000Y-81907500D03*
%TD*%
D20*
%TO.C,C12*%
X56060000Y-111800000D03*
X56060000Y-113700000D03*
%TD*%
D26*
%TO.C,R14*%
X81117500Y-103820000D03*
X82942500Y-103820000D03*
%TD*%
D15*
%TO.C,R19*%
X89710000Y-58397500D03*
X89710000Y-60222500D03*
%TD*%
D26*
%TO.C,R9*%
X78215000Y-82820000D03*
X80040000Y-82820000D03*
%TD*%
D35*
%TO.C,J8*%
X92640000Y-65680000D03*
D36*
X95180000Y-65680000D03*
X92640000Y-68220000D03*
X95180000Y-68220000D03*
X92640000Y-70760000D03*
X95180000Y-70760000D03*
X92640000Y-73300000D03*
X95180000Y-73300000D03*
X92640000Y-75840000D03*
X95180000Y-75840000D03*
X92640000Y-78380000D03*
X95180000Y-78380000D03*
X92640000Y-80920000D03*
X95180000Y-80920000D03*
X92640000Y-83460000D03*
X95180000Y-83460000D03*
X92640000Y-86000000D03*
X95180000Y-86000000D03*
X92640000Y-88540000D03*
X95180000Y-88540000D03*
X92640000Y-91080000D03*
X95180000Y-91080000D03*
X92640000Y-93620000D03*
X95180000Y-93620000D03*
X92640000Y-96160000D03*
X95180000Y-96160000D03*
X92640000Y-98700000D03*
X95180000Y-98700000D03*
X92640000Y-101240000D03*
X95180000Y-101240000D03*
X92640000Y-103780000D03*
X95180000Y-103780000D03*
X92640000Y-106320000D03*
X95180000Y-106320000D03*
X92640000Y-108860000D03*
X95180000Y-108860000D03*
X92640000Y-111400000D03*
X95180000Y-111400000D03*
X92640000Y-113940000D03*
X95180000Y-113940000D03*
X92640000Y-116480000D03*
X95180000Y-116480000D03*
X92640000Y-119020000D03*
X95180000Y-119020000D03*
X92640000Y-121560000D03*
X95180000Y-121560000D03*
%TD*%
D37*
%TO.C,FB1*%
X79797500Y-78010000D03*
X83122500Y-78010000D03*
%TD*%
D20*
%TO.C,C11*%
X57370000Y-102960000D03*
X57370000Y-104860000D03*
%TD*%
D38*
%TO.C,C10*%
X74520000Y-90370000D03*
X72620000Y-90370000D03*
%TD*%
D39*
%TO.C,R1*%
X74120000Y-83952500D03*
X74120000Y-82127500D03*
%TD*%
D26*
%TO.C,R16*%
X68675000Y-105500000D03*
X70500000Y-105500000D03*
%TD*%
D40*
%TO.C,J3*%
X64580000Y-103220000D03*
D41*
X66055000Y-104745000D03*
X63105000Y-104745000D03*
%TD*%
D20*
%TO.C,C19*%
X84450000Y-64320000D03*
X84450000Y-66220000D03*
%TD*%
D15*
%TO.C,R22*%
X72800000Y-103417500D03*
X72800000Y-105242500D03*
%TD*%
%TO.C,R7*%
X60315000Y-107855000D03*
X60315000Y-109680000D03*
%TD*%
D42*
%TO.C,C2*%
X62645000Y-72475000D03*
X62645000Y-70575000D03*
%TD*%
D43*
%TO.C,U2*%
X67410000Y-84870000D03*
X66310000Y-84870000D03*
X65210000Y-84870000D03*
X64110000Y-84870000D03*
X63010000Y-84870000D03*
X61910000Y-84870000D03*
X60810000Y-84870000D03*
X59710000Y-84870000D03*
X58610000Y-84870000D03*
X57510000Y-84870000D03*
X56410000Y-84870000D03*
X55310000Y-84870000D03*
D44*
X52560000Y-88320000D03*
X52560000Y-89420000D03*
X52560000Y-90520000D03*
X52560000Y-91620000D03*
X52560000Y-92720000D03*
X52560000Y-93820000D03*
X52560000Y-94920000D03*
X52560000Y-96020000D03*
X52560000Y-97120000D03*
D43*
X55310000Y-100570000D03*
X56410000Y-100570000D03*
X57510000Y-100570000D03*
X58610000Y-100570000D03*
X59710000Y-100570000D03*
X60810000Y-100570000D03*
X61910000Y-100570000D03*
X63010000Y-100570000D03*
X64110000Y-100570000D03*
X65210000Y-100570000D03*
X66310000Y-100570000D03*
X67410000Y-100570000D03*
D44*
X70160000Y-97120000D03*
X70160000Y-96020000D03*
X70160000Y-94920000D03*
X70160000Y-93820000D03*
X70160000Y-92720000D03*
X70160000Y-91620000D03*
X70160000Y-90520000D03*
X70160000Y-89420000D03*
X70160000Y-88320000D03*
D45*
X66260000Y-87370000D03*
X64860000Y-87370000D03*
X63460000Y-87370000D03*
X62060000Y-87370000D03*
X60660000Y-87370000D03*
X59260000Y-87370000D03*
X57860000Y-87370000D03*
X56460000Y-87370000D03*
D46*
X55060000Y-88520000D03*
X55060000Y-89920000D03*
X55060000Y-91320000D03*
X55060000Y-92720000D03*
X55060000Y-94120000D03*
X55060000Y-95520000D03*
X55060000Y-96920000D03*
D45*
X56460000Y-98070000D03*
X57860000Y-98070000D03*
X59260000Y-98070000D03*
X60660000Y-98070000D03*
X62060000Y-98070000D03*
D46*
X67660000Y-95520000D03*
X67660000Y-94120000D03*
X67660000Y-92720000D03*
X67660000Y-91320000D03*
X67660000Y-89920000D03*
X67660000Y-88520000D03*
D47*
X61360000Y-89820000D03*
X57960000Y-89820000D03*
X57960000Y-92720000D03*
X57960000Y-95620000D03*
X61360000Y-95620000D03*
X64760000Y-95620000D03*
X64760000Y-92720000D03*
X61360000Y-92720000D03*
%TD*%
D42*
%TO.C,C5*%
X72747500Y-97300000D03*
X72747500Y-95400000D03*
%TD*%
D20*
%TO.C,C8*%
X74420000Y-99240000D03*
X74420000Y-101140000D03*
%TD*%
D48*
%TO.C,D2*%
X76450000Y-90230000D03*
X77290000Y-90230000D03*
%TD*%
D26*
%TO.C,R11*%
X80965000Y-89530000D03*
X82790000Y-89530000D03*
%TD*%
D20*
%TO.C,C14*%
X61720000Y-111800000D03*
X61720000Y-113700000D03*
%TD*%
D15*
%TO.C,R5*%
X57440000Y-107855000D03*
X57440000Y-109680000D03*
%TD*%
D11*
%TO.C,H3*%
X48760000Y-126700000D03*
%TD*%
D15*
%TO.C,R13*%
X78777500Y-91427500D03*
X78777500Y-93252500D03*
%TD*%
D26*
%TO.C,R4*%
X50195000Y-110140000D03*
X52020000Y-110140000D03*
%TD*%
D49*
%TO.C,U5*%
X85675000Y-119170000D03*
X85675000Y-117900000D03*
X85675000Y-116630000D03*
X85675000Y-115360000D03*
X85675000Y-114090000D03*
X85675000Y-112820000D03*
X85675000Y-111550000D03*
X85675000Y-110280000D03*
X85675000Y-109010000D03*
X70425000Y-109010000D03*
X70425000Y-110280000D03*
X70425000Y-111550000D03*
X70425000Y-112820000D03*
X70425000Y-114090000D03*
X70425000Y-115360000D03*
X70425000Y-116630000D03*
X70425000Y-117900000D03*
X70425000Y-119170000D03*
D50*
X76780000Y-129810000D03*
X78050000Y-129810000D03*
X79320000Y-129810000D03*
%TD*%
D20*
%TO.C,C20*%
X86740000Y-64320000D03*
X86740000Y-66220000D03*
%TD*%
%TO.C,C4*%
X82930000Y-84827500D03*
X82930000Y-86727500D03*
%TD*%
D42*
%TO.C,C21*%
X81990000Y-75650000D03*
X81990000Y-73750000D03*
%TD*%
D35*
%TO.C,J7*%
X44440000Y-65620000D03*
D36*
X46980000Y-65620000D03*
X44440000Y-68160000D03*
X46980000Y-68160000D03*
X44440000Y-70700000D03*
X46980000Y-70700000D03*
X44440000Y-73240000D03*
X46980000Y-73240000D03*
X44440000Y-75780000D03*
X46980000Y-75780000D03*
X44440000Y-78320000D03*
X46980000Y-78320000D03*
X44440000Y-80860000D03*
X46980000Y-80860000D03*
X44440000Y-83400000D03*
X46980000Y-83400000D03*
X44440000Y-85940000D03*
X46980000Y-85940000D03*
X44440000Y-88480000D03*
X46980000Y-88480000D03*
X44440000Y-91020000D03*
X46980000Y-91020000D03*
X44440000Y-93560000D03*
X46980000Y-93560000D03*
X44440000Y-96100000D03*
X46980000Y-96100000D03*
X44440000Y-98640000D03*
X46980000Y-98640000D03*
X44440000Y-101180000D03*
X46980000Y-101180000D03*
X44440000Y-103720000D03*
X46980000Y-103720000D03*
X44440000Y-106260000D03*
X46980000Y-106260000D03*
X44440000Y-108800000D03*
X46980000Y-108800000D03*
X44440000Y-111340000D03*
X46980000Y-111340000D03*
X44440000Y-113880000D03*
X46980000Y-113880000D03*
X44440000Y-116420000D03*
X46980000Y-116420000D03*
X44440000Y-118960000D03*
X46980000Y-118960000D03*
X44440000Y-121500000D03*
X46980000Y-121500000D03*
%TD*%
D42*
%TO.C,C3*%
X50840000Y-62230000D03*
X50840000Y-60330000D03*
%TD*%
D51*
%TO.C,F1*%
X89300000Y-63032500D03*
X89300000Y-66007500D03*
%TD*%
D52*
%TO.C,J1*%
X60000000Y-64310000D03*
D53*
X58730000Y-64310000D03*
X60000000Y-63040000D03*
X58730000Y-63040000D03*
X60000000Y-61770000D03*
X58730000Y-61770000D03*
X60000000Y-60500000D03*
X58730000Y-60500000D03*
X60000000Y-59230000D03*
X58730000Y-59230000D03*
%TD*%
D26*
%TO.C,R6*%
X76245000Y-84920000D03*
X78070000Y-84920000D03*
%TD*%
D14*
%TO.C,D5*%
X85287500Y-89482500D03*
X85287500Y-91357500D03*
%TD*%
D20*
%TO.C,C15*%
X64550000Y-111800000D03*
X64550000Y-113700000D03*
%TD*%
D12*
%TO.C,D9*%
X86810000Y-60515000D03*
X86810000Y-59675000D03*
%TD*%
D42*
%TO.C,C1*%
X60415000Y-72475000D03*
X60415000Y-70575000D03*
%TD*%
D54*
%TO.C,D3*%
X51712500Y-103680000D03*
X51712500Y-104630000D03*
X51712500Y-105580000D03*
X53987500Y-105580000D03*
X53987500Y-103680000D03*
%TD*%
D16*
%TO.C,D1*%
X53635000Y-109782500D03*
X53635000Y-110622500D03*
%TD*%
D55*
%TO.C,C17*%
X52110000Y-74450000D03*
X54010000Y-74450000D03*
%TD*%
D56*
%TO.C,U3*%
X56390000Y-116250000D03*
X58930000Y-116250000D03*
X61470000Y-116250000D03*
X57660000Y-116250000D03*
X60200000Y-116250000D03*
X62740000Y-116250000D03*
D57*
X53710000Y-120350000D03*
X53710000Y-129150000D03*
X65410000Y-129150000D03*
X65410000Y-120350000D03*
%TD*%
D58*
%TO.C,U4*%
X55620000Y-77640000D03*
D59*
X56020000Y-78540000D03*
X56520000Y-78540000D03*
X57020000Y-78540000D03*
X57520000Y-78540000D03*
X58020000Y-78540000D03*
X58520000Y-78540000D03*
X59020000Y-78540000D03*
X59520000Y-78540000D03*
D58*
X59920000Y-77640000D03*
X59920000Y-76140000D03*
D59*
X59520000Y-75240000D03*
X59020000Y-75240000D03*
X58520000Y-75240000D03*
X58020000Y-75240000D03*
X57520000Y-75240000D03*
X57020000Y-75240000D03*
X56520000Y-75240000D03*
X56020000Y-75240000D03*
D58*
X55620000Y-76140000D03*
D60*
X57770000Y-76890000D03*
%TD*%
D11*
%TO.C,H2*%
X93860000Y-60600000D03*
%TD*%
D15*
%TO.C,R12*%
X79080000Y-99877500D03*
X79080000Y-101702500D03*
%TD*%
D20*
%TO.C,C9*%
X76670000Y-99280000D03*
X76670000Y-101180000D03*
%TD*%
D15*
%TO.C,R18*%
X85060000Y-58397500D03*
X85060000Y-60222500D03*
%TD*%
D42*
%TO.C,C22*%
X79830000Y-75650000D03*
X79830000Y-73750000D03*
%TD*%
D15*
%TO.C,R3*%
X82950000Y-81145000D03*
X82950000Y-82970000D03*
%TD*%
%TO.C,R8*%
X63190000Y-107855000D03*
X63190000Y-109680000D03*
%TD*%
D42*
%TO.C,C7*%
X77682500Y-97300000D03*
X77682500Y-95400000D03*
%TD*%
D61*
%TO.C,U6*%
X89160000Y-68830000D03*
X86860000Y-68830000D03*
D62*
X86860000Y-75130000D03*
D61*
X84560000Y-68830000D03*
%TD*%
M02*
