%TF.GenerationSoftware,KiCad,Pcbnew,9.0.2*%
%TF.CreationDate,2026-07-22T17:03:05+03:00*%
%TF.ProjectId,a0,61302e6b-6963-4616-945f-706362585858,Rev 0.3*%
%TF.SameCoordinates,Original*%
%TF.FileFunction,Soldermask,Bot*%
%TF.FilePolarity,Negative*%
%FSLAX46Y46*%
G04 Gerber Fmt 4.6, Leading zero omitted, Abs format (unit mm)*
G04 Created by KiCad (PCBNEW 9.0.2) date 2026-07-22 17:03:05*
%MOMM*%
%LPD*%
G01*
G04 APERTURE LIST*
G04 Aperture macros list*
%AMRoundRect*
0 Rectangle with rounded corners*
0 $1 Rounding radius*
0 $2 $3 $4 $5 $6 $7 $8 $9 X,Y pos of 4 corners*
0 Add a 4 corners polygon primitive as box body*
4,1,4,$2,$3,$4,$5,$6,$7,$8,$9,$2,$3,0*
0 Add four circle primitives for the rounded corners*
1,1,$1+$1,$2,$3*
1,1,$1+$1,$4,$5*
1,1,$1+$1,$6,$7*
1,1,$1+$1,$8,$9*
0 Add four rect primitives between the rounded corners*
20,1,$1+$1,$2,$3,$4,$5,0*
20,1,$1+$1,$4,$5,$6,$7,0*
20,1,$1+$1,$6,$7,$8,$9,0*
20,1,$1+$1,$8,$9,$2,$3,0*%
%AMFreePoly0*
4,1,23,0.550000,-0.750000,0.000000,-0.750000,0.000000,-0.745722,-0.065263,-0.745722,-0.191342,-0.711940,-0.304381,-0.646677,-0.396677,-0.554381,-0.461940,-0.441342,-0.495722,-0.315263,-0.495722,-0.250000,-0.500000,-0.250000,-0.500000,0.250000,-0.495722,0.250000,-0.495722,0.315263,-0.461940,0.441342,-0.396677,0.554381,-0.304381,0.646677,-0.191342,0.711940,-0.065263,0.745722,0.000000,0.745722,
0.000000,0.750000,0.550000,0.750000,0.550000,-0.750000,0.550000,-0.750000,$1*%
%AMFreePoly1*
4,1,23,0.000000,0.745722,0.065263,0.745722,0.191342,0.711940,0.304381,0.646677,0.396677,0.554381,0.461940,0.441342,0.495722,0.315263,0.495722,0.250000,0.500000,0.250000,0.500000,-0.250000,0.495722,-0.250000,0.495722,-0.315263,0.461940,-0.441342,0.396677,-0.554381,0.304381,-0.646677,0.191342,-0.711940,0.065263,-0.745722,0.000000,-0.745722,0.000000,-0.750000,-0.550000,-0.750000,
-0.550000,0.750000,0.000000,0.750000,0.000000,0.745722,0.000000,0.745722,$1*%
G04 Aperture macros list end*
%ADD10C,5.000000*%
%ADD11RoundRect,0.250000X-0.750000X0.600000X-0.750000X-0.600000X0.750000X-0.600000X0.750000X0.600000X0*%
%ADD12O,2.000000X1.700000*%
%ADD13R,1.700000X1.700000*%
%ADD14C,1.700000*%
%ADD15RoundRect,0.250001X1.149999X1.149999X-1.149999X1.149999X-1.149999X-1.149999X1.149999X-1.149999X0*%
%ADD16C,2.800000*%
%ADD17C,0.650000*%
%ADD18O,1.000000X2.100000*%
%ADD19O,1.000000X1.800000*%
%ADD20R,1.000000X1.000000*%
%ADD21C,1.000000*%
%ADD22FreePoly0,180.000000*%
%ADD23R,1.000000X1.500000*%
%ADD24FreePoly1,180.000000*%
G04 APERTURE END LIST*
%TO.C,JP1*%
G36*
X66750000Y-124750000D02*
G01*
X65250000Y-124750000D01*
X65250000Y-126250000D01*
X66750000Y-126250000D01*
X66750000Y-124750000D01*
G37*
%TD*%
D10*
%TO.C,H4*%
X90743300Y-126666700D03*
%TD*%
D11*
%TO.C,J9*%
X49000000Y-52000000D03*
D12*
X49000000Y-54500000D03*
%TD*%
D13*
%TO.C,J2*%
X56000000Y-106500000D03*
D14*
X58540000Y-106500000D03*
X61080000Y-106500000D03*
X63620000Y-106500000D03*
X66160000Y-106500000D03*
X68700000Y-106500000D03*
X71240000Y-106500000D03*
X73780000Y-106500000D03*
%TD*%
D10*
%TO.C,H1*%
X45676700Y-60566700D03*
%TD*%
D13*
%TO.C,J4*%
X56000000Y-129480000D03*
D14*
X58540000Y-129480000D03*
X61080000Y-129480000D03*
X63620000Y-129480000D03*
X66160000Y-129480000D03*
X68700000Y-129480000D03*
X71240000Y-129480000D03*
X73780000Y-129480000D03*
%TD*%
D15*
%TO.C,J8*%
X59450000Y-52832500D03*
D16*
X54450000Y-52832500D03*
%TD*%
D13*
%TO.C,J3*%
X56625000Y-71425000D03*
D14*
X59165000Y-71425000D03*
X61705000Y-71425000D03*
X64245000Y-71425000D03*
X66785000Y-71425000D03*
X69325000Y-71425000D03*
X71865000Y-71425000D03*
X74405000Y-71425000D03*
%TD*%
D10*
%TO.C,H3*%
X48760000Y-126700000D03*
%TD*%
D17*
%TO.C,J7*%
X91490000Y-54970000D03*
X85710000Y-54970000D03*
D18*
X92920000Y-55490000D03*
D19*
X92920000Y-51290000D03*
D18*
X84280000Y-55490000D03*
D19*
X84280000Y-51290000D03*
%TD*%
D13*
%TO.C,J1*%
X56625000Y-94405000D03*
D14*
X59165000Y-94405000D03*
X61705000Y-94405000D03*
X64245000Y-94405000D03*
X66785000Y-94405000D03*
X69325000Y-94405000D03*
X71865000Y-94405000D03*
X74405000Y-94405000D03*
%TD*%
D20*
%TO.C,J10*%
X86400000Y-117630000D03*
D21*
X87670000Y-117630000D03*
X86400000Y-118900000D03*
X87670000Y-118900000D03*
X86400000Y-120170000D03*
X87670000Y-120170000D03*
X86400000Y-121440000D03*
X87670000Y-121440000D03*
X86400000Y-122710000D03*
X87670000Y-122710000D03*
%TD*%
D10*
%TO.C,H2*%
X93900000Y-60500000D03*
%TD*%
D13*
%TO.C,J6*%
X95100000Y-65600000D03*
D14*
X92560000Y-65600000D03*
X95100000Y-68140000D03*
X92560000Y-68140000D03*
X95100000Y-70680000D03*
X92560000Y-70680000D03*
X95100000Y-73220000D03*
X92560000Y-73220000D03*
X95100000Y-75760000D03*
X92560000Y-75760000D03*
X95100000Y-78300000D03*
X92560000Y-78300000D03*
X95100000Y-80840000D03*
X92560000Y-80840000D03*
X95100000Y-83380000D03*
X92560000Y-83380000D03*
X95100000Y-85920000D03*
X92560000Y-85920000D03*
X95100000Y-88460000D03*
X92560000Y-88460000D03*
X95100000Y-91000000D03*
X92560000Y-91000000D03*
X95100000Y-93540000D03*
X92560000Y-93540000D03*
X95100000Y-96080000D03*
X92560000Y-96080000D03*
X95100000Y-98620000D03*
X92560000Y-98620000D03*
X95100000Y-101160000D03*
X92560000Y-101160000D03*
X95100000Y-103700000D03*
X92560000Y-103700000D03*
X95100000Y-106240000D03*
X92560000Y-106240000D03*
X95100000Y-108780000D03*
X92560000Y-108780000D03*
X95100000Y-111320000D03*
X92560000Y-111320000D03*
X95100000Y-113860000D03*
X92560000Y-113860000D03*
X95100000Y-116400000D03*
X92560000Y-116400000D03*
X95100000Y-118940000D03*
X92560000Y-118940000D03*
X95100000Y-121480000D03*
X92560000Y-121480000D03*
%TD*%
D13*
%TO.C,J5*%
X46900000Y-65660000D03*
D14*
X44360000Y-65660000D03*
X46900000Y-68200000D03*
X44360000Y-68200000D03*
X46900000Y-70740000D03*
X44360000Y-70740000D03*
X46900000Y-73280000D03*
X44360000Y-73280000D03*
X46900000Y-75820000D03*
X44360000Y-75820000D03*
X46900000Y-78360000D03*
X44360000Y-78360000D03*
X46900000Y-80900000D03*
X44360000Y-80900000D03*
X46900000Y-83440000D03*
X44360000Y-83440000D03*
X46900000Y-85980000D03*
X44360000Y-85980000D03*
X46900000Y-88520000D03*
X44360000Y-88520000D03*
X46900000Y-91060000D03*
X44360000Y-91060000D03*
X46900000Y-93600000D03*
X44360000Y-93600000D03*
X46900000Y-96140000D03*
X44360000Y-96140000D03*
X46900000Y-98680000D03*
X44360000Y-98680000D03*
X46900000Y-101220000D03*
X44360000Y-101220000D03*
X46900000Y-103760000D03*
X44360000Y-103760000D03*
X46900000Y-106300000D03*
X44360000Y-106300000D03*
X46900000Y-108840000D03*
X44360000Y-108840000D03*
X46900000Y-111380000D03*
X44360000Y-111380000D03*
X46900000Y-113920000D03*
X44360000Y-113920000D03*
X46900000Y-116460000D03*
X44360000Y-116460000D03*
X46900000Y-119000000D03*
X44360000Y-119000000D03*
X46900000Y-121540000D03*
X44360000Y-121540000D03*
%TD*%
D22*
%TO.C,JP1*%
X67300000Y-125500000D03*
D23*
X66000000Y-125500000D03*
D24*
X64700000Y-125500000D03*
%TD*%
M02*
