M48
; DRILL file {KiCad 9.0.2} date 2026-07-22T17:03:05+0300
; FORMAT={-:-/ absolute / inch / decimal}
; #@! TF.CreationDate,2026-07-22T17:03:05+03:00
; #@! TF.GenerationSoftware,Kicad,Pcbnew,9.0.2
; #@! TF.FileFunction,Plated,1,4,PTH
FMAT,2
INCH
; #@! TA.AperFunction,Plated,PTH,ViaDrill
T1C0.0059
; #@! TA.AperFunction,Plated,PTH,ViaDrill
T2C0.0118
; #@! TA.AperFunction,Plated,PTH,ComponentDrill
T3C0.0236
; #@! TA.AperFunction,Plated,PTH,ComponentDrill
T4C0.0256
; #@! TA.AperFunction,Plated,PTH,ComponentDrill
T5C0.0394
; #@! TA.AperFunction,Plated,PTH,ComponentDrill
T6C0.0512
; #@! TA.AperFunction,Plated,PTH,ComponentDrill
T7C0.0984
%
G90
G05
T1
X3.498Y-2.2083
T2
X1.811Y-3.1299
X1.9055Y-3.2835
X1.9705Y-4.5118
X1.9705Y-4.6102
X1.9744Y-4.7323
X1.9744Y-4.8307
X1.9961Y-3.1629
X2.0118Y-3.9606
X2.0236Y-3.2835
X2.0591Y-2.9528
X2.0591Y-4.6102
X2.061Y-3.5827
X2.0787Y-2.9331
X2.0906Y-4.5118
X2.0906Y-4.6102
X2.0984Y-3.3386
X2.1063Y-3.4331
X2.1299Y-4.5118
X2.1555Y-4.7165
X2.1594Y-4.3976
X2.1614Y-3.2835
X2.1772Y-4.1417
X2.1929Y-3.2402
X2.1929Y-4.5433
X2.1983Y-3.1083
X2.2126Y-3.9173
X2.2126Y-3.9488
X2.252Y-4.185
X2.2638Y-4.3425
X2.2874Y-3.7441
X2.2968Y-3.159
X2.3307Y-2.9331
X2.3465Y-3.0315
X2.3543Y-2.3425
X2.3701Y-3.8268
X2.3701Y-3.8543
X2.374Y-3.2835
X2.378Y-3.063
X2.3819Y-4.0984
X2.3898Y-3.6575
X2.3912Y-3.159
X2.4016Y-3.9409
X2.4055Y-4.3976
X2.4449Y-3.0079
X2.4488Y-4.1693
X2.4843Y-2.874
X2.5039Y-3.6732
X2.5118Y-3.9685
X2.5197Y-4.6654
X2.5354Y-4.5472
X2.5413Y-3.2911
X2.5551Y-4.4173
X2.5551Y-4.5
X2.5551Y-4.5669
X2.5551Y-4.7008
X2.5551Y-4.8228
X2.5669Y-4.7874
X2.5787Y-3.0709
X2.5866Y-4.5984
X2.5906Y-4.622
X2.6024Y-4.5472
X2.6102Y-4.4567
X2.6181Y-4.563
X2.6339Y-3.6102
X2.6339Y-3.8425
X2.6417Y-4.4646
X2.6417Y-4.5512
X2.6457Y-4.2323
X2.6693Y-3.6181
X2.6732Y-4.8189
X2.6841Y-3.5433
X2.6929Y-4.7165
X2.6963Y-4.6186
X2.7047Y-5.0039
X2.7131Y-4.6018
X2.7205Y-3.9291
X2.7244Y-3.5591
X2.7283Y-5.0039
X2.7323Y-4.6772
X2.7362Y-3.2911
X2.7441Y-4.2362
X2.7559Y-5.0354
X2.7598Y-5.0591
X2.7598Y-5.1417
X2.7638Y-3.2126
X2.7677Y-4.4961
X2.7677Y-4.5394
X2.7677Y-4.5709
X2.7677Y-4.6024
X2.7677Y-4.6339
X2.7677Y-4.7598
X2.7677Y-4.7913
X2.7677Y-4.8543
X2.7677Y-4.8858
X2.7677Y-4.9173
X2.7677Y-4.9606
X2.7854Y-4.7126
X2.7874Y-2.8701
X2.7874Y-3.4094
X2.7908Y-3.9921
X2.7913Y-3.8858
X2.7933Y-4.9626
X2.7953Y-2.8976
X2.7953Y-4.4961
X2.7953Y-4.6024
X2.8031Y-3.7598
X2.8031Y-4.1417
X2.8051Y-4.7126
X2.8189Y-3.4331
X2.8189Y-3.5787
X2.8189Y-3.626
X2.8268Y-2.8701
X2.8268Y-3.0079
X2.8268Y-3.2756
X2.8268Y-3.3858
X2.8307Y-4.4685
X2.8307Y-4.4961
X2.8307Y-4.7953
X2.8307Y-4.9882
X2.8346Y-4.063
X2.8386Y-3.9331
X2.8622Y-4.4685
X2.8622Y-4.9882
X2.8661Y-4.4055
X2.874Y-4.1024
X2.8937Y-4.4685
X2.8937Y-4.9882
X2.8976Y-3.5709
X2.8976Y-4.0945
X2.8976Y-4.374
X2.9016Y-4.3071
X2.9173Y-3.3189
X2.9213Y-5.0118
X2.9252Y-4.4685
X2.9252Y-4.9882
X2.9291Y-3.5512
X2.937Y-4.5945
X2.9449Y-3.9803
X2.9469Y-4.4016
X2.9488Y-3.9567
X2.9567Y-3.6299
X2.9567Y-4.9882
X2.9724Y-3.0748
X2.9803Y-3.9764
X2.9882Y-4.4685
X2.9882Y-4.9606
X2.9961Y-3.3898
X2.9961Y-3.6457
X3.0157Y-3.7598
X3.0157Y-4.1929
X3.0197Y-4.4685
X3.0197Y-4.9882
X3.0236Y-3.374
X3.0236Y-4.378
X3.0315Y-2.9331
X3.0315Y-4.5906
X3.0433Y-4.8465
X3.0472Y-4.4567
X3.0669Y-4.8465
X3.0748Y-4.311
X3.0827Y-3.3071
X3.0827Y-3.5512
X3.0827Y-3.752
X3.0827Y-3.8543
X3.0827Y-3.9528
X3.0827Y-4.0512
X3.0827Y-4.1535
X3.0827Y-4.252
X3.0827Y-4.4685
X3.0984Y-3.3819
X3.1024Y-4.6024
X3.1142Y-4.4685
X3.126Y-2.9488
X3.126Y-4.3425
X3.1378Y-4.4055
X3.1457Y-4.4685
X3.1457Y-4.4961
X3.1614Y-3.2087
X3.1654Y-2.9882
X3.1693Y-5.1378
X3.1752Y-4.4016
X3.1811Y-4.9173
X3.1811Y-4.9606
X3.1969Y-3.5669
X3.2087Y-4.4961
X3.2087Y-4.5394
X3.2087Y-4.5709
X3.2087Y-4.6024
X3.2087Y-4.6339
X3.2087Y-4.6654
X3.2087Y-4.6969
X3.2087Y-4.7283
X3.2087Y-4.7598
X3.2087Y-4.7913
X3.2087Y-4.8228
X3.2087Y-4.8543
X3.2087Y-4.8858
X3.2087Y-4.9173
X3.2087Y-4.9606
X3.2362Y-2.8031
X3.248Y-2.6575
X3.252Y-4.4606
X3.2559Y-4.4213
X3.2598Y-3.6535
X3.2677Y-3.5984
X3.2795Y-4.1142
X3.2835Y-4.6614
X3.2874Y-3.311
X3.2913Y-4.4803
X3.2953Y-2.7913
X3.311Y-3.5354
X3.315Y-4.5039
X3.3189Y-2.6063
X3.3346Y-3.5984
X3.3504Y-3.5354
X3.3543Y-2.2992
X3.3701Y-4.4685
X3.3937Y-4.2283
X3.3937Y-4.5669
X3.4134Y-4.2047
X3.4173Y-2.3071
X3.4252Y-3.4685
X3.4291Y-4.2205
X3.4291Y-5.0984
X3.4331Y-4.3386
X3.4409Y-2.3622
X3.4409Y-2.4493
X3.448Y-2.2992
X3.4567Y-2.2283
X3.4567Y-2.8661
X3.4567Y-3.0157
X3.4685Y-4.5866
X3.5039Y-2.2756
X3.5039Y-2.8504
X3.5039Y-2.8819
X3.5039Y-2.9705
X3.5118Y-3.3819
X3.5315Y-2.4493
X3.5315Y-2.8583
X3.5315Y-3.4685
X3.5394Y-3.5512
X3.5394Y-3.6535
X3.5394Y-3.752
X3.5394Y-3.8543
X3.5394Y-3.9528
X3.5394Y-4.0512
X3.5394Y-4.1535
X3.5394Y-4.252
X3.5512Y-3.3819
X3.563Y-2.8819
X3.5677Y-2.2992
X3.5748Y-3.8465
X3.5984Y-3.5354
X3.6811Y-3.5276
X3.7008Y-3.5394
X3.7047Y-2.6811
T4
X3.4016Y-4.6311
X3.4016Y-4.6811
X3.4016Y-4.7311
X3.4016Y-4.7811
X3.4016Y-4.8311
X3.4516Y-4.6311
X3.4516Y-4.6811
X3.4516Y-4.7311
X3.4516Y-4.7811
X3.4516Y-4.8311
T5
X1.7465Y-2.585
X1.7465Y-2.685
X1.7465Y-2.785
X1.7465Y-2.885
X1.7465Y-2.985
X1.7465Y-3.085
X1.7465Y-3.185
X1.7465Y-3.285
X1.7465Y-3.385
X1.7465Y-3.485
X1.7465Y-3.585
X1.7465Y-3.685
X1.7465Y-3.785
X1.7465Y-3.885
X1.7465Y-3.985
X1.7465Y-4.085
X1.7465Y-4.185
X1.7465Y-4.285
X1.7465Y-4.385
X1.7465Y-4.485
X1.7465Y-4.585
X1.7465Y-4.685
X1.7465Y-4.785
X1.8465Y-2.585
X1.8465Y-2.685
X1.8465Y-2.785
X1.8465Y-2.885
X1.8465Y-2.985
X1.8465Y-3.085
X1.8465Y-3.185
X1.8465Y-3.285
X1.8465Y-3.385
X1.8465Y-3.485
X1.8465Y-3.585
X1.8465Y-3.685
X1.8465Y-3.785
X1.8465Y-3.885
X1.8465Y-3.985
X1.8465Y-4.085
X1.8465Y-4.185
X1.8465Y-4.285
X1.8465Y-4.385
X1.8465Y-4.485
X1.8465Y-4.585
X1.8465Y-4.685
X1.8465Y-4.785
X1.9291Y-2.0472
X1.9291Y-2.1457
X2.2047Y-4.1929
X2.2047Y-5.0976
X2.2293Y-2.812
X2.2293Y-3.7167
X2.3047Y-4.1929
X2.3047Y-5.0976
X2.3293Y-2.812
X2.3293Y-3.7167
X2.4047Y-4.1929
X2.4047Y-5.0976
X2.4293Y-2.812
X2.4293Y-3.7167
X2.5047Y-4.1929
X2.5047Y-5.0976
X2.5293Y-2.812
X2.5293Y-3.7167
X2.6047Y-4.1929
X2.6047Y-5.0976
X2.6293Y-2.812
X2.6293Y-3.7167
X2.7047Y-4.1929
X2.7047Y-5.0976
X2.7293Y-2.812
X2.7293Y-3.7167
X2.8047Y-4.1929
X2.8047Y-5.0976
X2.8293Y-2.812
X2.8293Y-3.7167
X2.9047Y-4.1929
X2.9047Y-5.0976
X2.9293Y-2.812
X2.9293Y-3.7167
X3.6441Y-2.5827
X3.6441Y-2.6827
X3.6441Y-2.7827
X3.6441Y-2.8827
X3.6441Y-2.9827
X3.6441Y-3.0827
X3.6441Y-3.1827
X3.6441Y-3.2827
X3.6441Y-3.3827
X3.6441Y-3.4827
X3.6441Y-3.5827
X3.6441Y-3.6827
X3.6441Y-3.7827
X3.6441Y-3.8827
X3.6441Y-3.9827
X3.6441Y-4.0827
X3.6441Y-4.1827
X3.6441Y-4.2827
X3.6441Y-4.3827
X3.6441Y-4.4827
X3.6441Y-4.5827
X3.6441Y-4.6827
X3.6441Y-4.7827
X3.7441Y-2.5827
X3.7441Y-2.6827
X3.7441Y-2.7827
X3.7441Y-2.8827
X3.7441Y-2.9827
X3.7441Y-3.0827
X3.7441Y-3.1827
X3.7441Y-3.2827
X3.7441Y-3.3827
X3.7441Y-3.4827
X3.7441Y-3.5827
X3.7441Y-3.6827
X3.7441Y-3.7827
X3.7441Y-3.8827
X3.7441Y-3.9827
X3.7441Y-4.0827
X3.7441Y-4.1827
X3.7441Y-4.2827
X3.7441Y-4.3827
X3.7441Y-4.4827
X3.7441Y-4.5827
X3.7441Y-4.6827
X3.7441Y-4.7827
T6
X2.1437Y-2.08
X2.3406Y-2.08
T7
X1.7983Y-2.3845
X1.9197Y-4.9882
X3.5726Y-4.9869
X3.6969Y-2.3819
T3
G00X3.3181Y-2.035
M15
G01X3.3181Y-2.0035
M16
G05
G00X3.3181Y-2.2063
M15
G01X3.3181Y-2.163
M16
G05
G00X3.6583Y-2.035
M15
G01X3.6583Y-2.0035
M16
G05
G00X3.6583Y-2.2063
M15
G01X3.6583Y-2.163
M16
G05
M30
