M48
; DRILL file {KiCad 9.0.2} date 2026-07-17T15:33:50+0300
; FORMAT={-:-/ absolute / inch / decimal}
; #@! TF.CreationDate,2026-07-17T15:33:50+03:00
; #@! TF.GenerationSoftware,Kicad,Pcbnew,9.0.2
; #@! TF.FileFunction,Plated,1,4,PTH
FMAT,2
INCH
; #@! TA.AperFunction,Plated,PTH,ViaDrill
T1C0.0118
; #@! TA.AperFunction,Plated,PTH,ComponentDrill
T2C0.0236
; #@! TA.AperFunction,Plated,PTH,ComponentDrill
T3C0.0256
; #@! TA.AperFunction,Plated,PTH,ComponentDrill
T4C0.0394
; #@! TA.AperFunction,Plated,PTH,ComponentDrill
T5C0.0512
; #@! TA.AperFunction,Plated,PTH,ComponentDrill
T6C0.0984
%
G90
G05
T1
X1.7116Y-3.1199
X1.7864Y-3.354
X1.8032Y-3.411
X1.8349Y-2.5361
X1.8958Y-2.6181
X1.9199Y-3.5856
X1.9291Y-2.3512
X1.9409Y-4.8623
X1.978Y-4.6551
X1.9961Y-3.2018
X2.0118Y-3.8274
X2.0317Y-3.9125
X2.0744Y-3.7445
X2.0888Y-3.546
X2.1238Y-3.0436
X2.1555Y-4.6716
X2.1594Y-4.3526
X2.1848Y-4.6243
X2.1929Y-3.1968
X2.2194Y-2.9366
X2.2409Y-3.1002
X2.2746Y-4.0436
X2.2857Y-2.7857
X2.2908Y-3.1203
X2.3467Y-3.3251
X2.3543Y-2.2779
X2.3589Y-4.2351
X2.3871Y-3.1204
X2.5003Y-3.9087
X2.538Y-4.8957
X2.5413Y-3.2639
X2.5551Y-4.859
X2.5823Y-4.7155
X2.5895Y-4.8941
X2.6681Y-3.8137
X2.676Y-4.7121
X2.6811Y-3.4988
X2.7362Y-3.2638
X2.7419Y-4.9155
X2.7638Y-4.5297
X2.7638Y-4.7686
X2.7661Y-3.4939
X2.7926Y-4.0338
X2.7933Y-4.9925
X2.814Y-3.249
X2.814Y-3.8137
X2.826Y-4.6819
X2.8264Y-4.6083
X2.8266Y-4.8839
X2.8269Y-4.6384
X2.8289Y-4.463
X2.8474Y-4.7224
X2.8937Y-4.4432
X2.8937Y-4.9924
X2.9252Y-4.4444
X2.9262Y-4.9918
X2.9301Y-4.9268
X2.9714Y-4.4649
X2.9853Y-2.6827
X2.9882Y-4.8705
X3.0114Y-4.5469
X3.0197Y-4.9287
X3.0315Y-4.4625
X3.05Y-3.8985
X3.0562Y-4.2528
X3.0702Y-4.5272
X3.0709Y-2.9221
X3.072Y-3.8792
X3.0915Y-3.139
X3.1119Y-4.5725
X3.1299Y-2.7307
X3.1693Y-5.1026
X3.1831Y-4.9919
X3.1905Y-3.9868
X3.1941Y-3.4298
X3.1965Y-3.5587
X3.1971Y-3.7674
X3.2123Y-4.656
X3.2245Y-2.7664
X3.2874Y-3.2064
X3.353Y-2.942
X3.4152Y-3.9718
X3.4291Y-5.0436
X3.4315Y-4.288
X3.448Y-2.2785
X3.4554Y-2.7832
X3.4592Y-4.29
X3.465Y-2.3356
X3.4862Y-2.4493
X3.4937Y-2.2789
X3.5039Y-3.0068
X3.537Y-3.6871
X3.5741Y-4.7863
X3.5938Y-3.3827
X3.6044Y-2.3005
X3.6566Y-4.2327
X3.6932Y-4.6827
X3.7441Y-3.0336
X3.747Y-2.5334
X3.7557Y-3.5315
T3
X3.4016Y-4.6311
X3.4016Y-4.6811
X3.4016Y-4.7311
X3.4016Y-4.7811
X3.4016Y-4.8311
X3.4516Y-4.6311
X3.4516Y-4.6811
X3.4516Y-4.7311
X3.4516Y-4.7811
X3.4516Y-4.8311
T4
X1.7465Y-2.585
X1.7465Y-2.685
X1.7465Y-2.785
X1.7465Y-2.885
X1.7465Y-2.985
X1.7465Y-3.085
X1.7465Y-3.185
X1.7465Y-3.285
X1.7465Y-3.385
X1.7465Y-3.485
X1.7465Y-3.585
X1.7465Y-3.685
X1.7465Y-3.785
X1.7465Y-3.885
X1.7465Y-3.985
X1.7465Y-4.085
X1.7465Y-4.185
X1.7465Y-4.285
X1.7465Y-4.385
X1.7465Y-4.485
X1.7465Y-4.585
X1.7465Y-4.685
X1.7465Y-4.785
X1.8465Y-2.585
X1.8465Y-2.685
X1.8465Y-2.785
X1.8465Y-2.885
X1.8465Y-2.985
X1.8465Y-3.085
X1.8465Y-3.185
X1.8465Y-3.285
X1.8465Y-3.385
X1.8465Y-3.485
X1.8465Y-3.585
X1.8465Y-3.685
X1.8465Y-3.785
X1.8465Y-3.885
X1.8465Y-3.985
X1.8465Y-4.085
X1.8465Y-4.185
X1.8465Y-4.285
X1.8465Y-4.385
X1.8465Y-4.485
X1.8465Y-4.585
X1.8465Y-4.685
X1.8465Y-4.785
X1.9291Y-2.0472
X1.9291Y-2.1457
X2.2047Y-4.1929
X2.2047Y-5.0976
X2.2293Y-2.812
X2.2293Y-3.7167
X2.3047Y-4.1929
X2.3047Y-5.0976
X2.3293Y-2.812
X2.3293Y-3.7167
X2.4047Y-4.1929
X2.4047Y-5.0976
X2.4293Y-2.812
X2.4293Y-3.7167
X2.5047Y-4.1929
X2.5047Y-5.0976
X2.5293Y-2.812
X2.5293Y-3.7167
X2.6047Y-4.1929
X2.6047Y-5.0976
X2.6293Y-2.812
X2.6293Y-3.7167
X2.7047Y-4.1929
X2.7047Y-5.0976
X2.7293Y-2.812
X2.7293Y-3.7167
X2.8047Y-4.1929
X2.8047Y-5.0976
X2.8293Y-2.812
X2.8293Y-3.7167
X2.9047Y-4.1929
X2.9047Y-5.0976
X2.9293Y-2.812
X2.9293Y-3.7167
X3.6441Y-2.5827
X3.6441Y-2.6827
X3.6441Y-2.7827
X3.6441Y-2.8827
X3.6441Y-2.9827
X3.6441Y-3.0827
X3.6441Y-3.1827
X3.6441Y-3.2827
X3.6441Y-3.3827
X3.6441Y-3.4827
X3.6441Y-3.5827
X3.6441Y-3.6827
X3.6441Y-3.7827
X3.6441Y-3.8827
X3.6441Y-3.9827
X3.6441Y-4.0827
X3.6441Y-4.1827
X3.6441Y-4.2827
X3.6441Y-4.3827
X3.6441Y-4.4827
X3.6441Y-4.5827
X3.6441Y-4.6827
X3.6441Y-4.7827
X3.7441Y-2.5827
X3.7441Y-2.6827
X3.7441Y-2.7827
X3.7441Y-2.8827
X3.7441Y-2.9827
X3.7441Y-3.0827
X3.7441Y-3.1827
X3.7441Y-3.2827
X3.7441Y-3.3827
X3.7441Y-3.4827
X3.7441Y-3.5827
X3.7441Y-3.6827
X3.7441Y-3.7827
X3.7441Y-3.8827
X3.7441Y-3.9827
X3.7441Y-4.0827
X3.7441Y-4.1827
X3.7441Y-4.2827
X3.7441Y-4.3827
X3.7441Y-4.4827
X3.7441Y-4.5827
X3.7441Y-4.6827
X3.7441Y-4.7827
T5
X2.1437Y-2.08
X2.3406Y-2.08
T6
X1.7983Y-2.3845
X1.9197Y-4.9882
X3.5726Y-4.9869
X3.6969Y-2.3819
T2
G00X3.3181Y-2.035
M15
G01X3.3181Y-2.0035
M16
G05
G00X3.3181Y-2.2063
M15
G01X3.3181Y-2.163
M16
G05
G00X3.6583Y-2.035
M15
G01X3.6583Y-2.0035
M16
G05
G00X3.6583Y-2.2063
M15
G01X3.6583Y-2.163
M16
G05
M30
