M48
; DRILL file {KiCad 9.0.2} date 2026-07-03T16:52:54+0300
; FORMAT={-:-/ absolute / inch / decimal}
; #@! TF.CreationDate,2026-07-03T16:52:54+03:00
; #@! TF.GenerationSoftware,Kicad,Pcbnew,9.0.2
; #@! TF.FileFunction,Plated,1,4,PTH
FMAT,2
INCH
; #@! TA.AperFunction,Plated,PTH,ViaDrill
T1C0.0118
; #@! TA.AperFunction,Plated,PTH,ComponentDrill
T2C0.0236
; #@! TA.AperFunction,Plated,PTH,ComponentDrill
T3C0.0256
; #@! TA.AperFunction,Plated,PTH,ComponentDrill
T4C0.0394
; #@! TA.AperFunction,Plated,PTH,ComponentDrill
T5C0.0984
%
G90
G05
T1
X1.9358Y-4.3435
X1.9749Y-3.6579
X1.9911Y-2.6188
X2.0016Y-2.3357
X2.0073Y-2.7096
X2.0172Y-3.8139
X2.018Y-3.737
X2.0689Y-5.0765
X2.0691Y-4.7133
X2.0693Y-3.8567
X2.0831Y-2.9707
X2.0964Y-4.2577
X2.0972Y-2.3366
X2.1071Y-4.2187
X2.1127Y-3.4987
X2.1365Y-4.3237
X2.1456Y-4.1163
X2.1651Y-2.8058
X2.179Y-2.9183
X2.1805Y-2.9622
X2.1945Y-3.2538
X2.2008Y-4.3606
X2.2032Y-2.7802
X2.2053Y-3.2222
X2.223Y-4.0892
X2.2437Y-2.9203
X2.261Y-3.1414
X2.2696Y-3.9053
X2.2701Y-4.6208
X2.283Y-2.8564
X2.2959Y-3.193
X2.3162Y-2.7032
X2.318Y-4.3621
X2.3268Y-2.9134
X2.3296Y-3.2683
X2.332Y-3.3888
X2.3591Y-3.0223
X2.3671Y-3.2084
X2.3768Y-3.2889
X2.3785Y-2.7389
X2.3883Y-2.8928
X2.3941Y-4.0109
X2.3961Y-3.1028
X2.3994Y-3.1998
X2.4312Y-4.3618
X2.4663Y-2.7382
X2.4663Y-2.8934
X2.4844Y-4.1878
X2.508Y-3.3982
X2.5178Y-3.1338
X2.5297Y-4.7163
X2.5297Y-5.0685
X2.5415Y-4.3615
X2.5454Y-3.3853
X2.5466Y-3.2796
X2.563Y-3.197
X2.5673Y-4.0109
X2.5972Y-2.7332
X2.6006Y-4.1876
X2.6075Y-2.8455
X2.6096Y-3.2644
X2.6144Y-2.9019
X2.6209Y-4.3313
X2.6287Y-2.7189
X2.6292Y-2.9608
X2.631Y-3.0431
X2.6338Y-3.0066
X2.6515Y-4.2344
X2.6602Y-2.734
X2.6602Y-3.2334
X2.6636Y-4.0116
X2.672Y-4.4481
X2.672Y-4.6038
X2.6917Y-2.8064
X2.7102Y-3.0922
X2.7105Y-3.7887
X2.7132Y-3.6663
X2.7165Y-4.3294
X2.7165Y-4.436
X2.7165Y-4.6031
X2.7165Y-4.6732
X2.7185Y-3.4042
X2.7232Y-2.734
X2.7371Y-3.1998
X2.7476Y-3.284
X2.7547Y-2.8053
X2.7805Y-4.0455
X2.7862Y-2.734
X2.8256Y-2.7341
X2.8596Y-2.8061
X2.8608Y-3.194
X2.8641Y-3.7156
X2.8641Y-3.8705
X2.8661Y-4.0315
X2.9122Y-2.734
X2.9181Y-3.3464
X2.9299Y-4.022
X2.9339Y-3.5088
X2.9448Y-2.724
X2.9472Y-3.7677
X2.9763Y-2.724
X2.9795Y-3.0379
X2.9796Y-3.196
X2.9798Y-3.5917
X2.9798Y-4.6957
X2.9811Y-2.8059
X2.9967Y-3.4882
X2.9967Y-2.6869
X3.0025Y-3.7864
X3.0059Y-3.2776
X3.0098Y-3.5269
X3.0139Y-4.1987
X3.0185Y-4.0234
X3.0205Y-2.7336
X3.0228Y-5.1756
X3.0402Y-3.1928
X3.0563Y-3.1633
X3.0584Y-3.8702
X3.0705Y-3.0293
X3.0755Y-2.979
X3.077Y-3.0723
X3.0934Y-2.7802
X3.0936Y-3.7912
X3.1102Y-3.8812
X3.1228Y-5.0466
X3.1429Y-2.8636
X3.1512Y-3.3081
X3.228Y-2.8635
X3.2283Y-3.0544
X3.2643Y-3.606
X3.265Y-3.4544
X3.2655Y-4.1356
X3.2657Y-3.1539
X3.2783Y-4.0052
X3.2848Y-3.7178
X3.2943Y-4.6565
X3.3081Y-3.0093
X3.3206Y-4.2207
X3.3248Y-2.6468
X3.3488Y-2.4119
X3.3528Y-2.2348
X3.3578Y-3.6359
X3.3654Y-3.9666
X3.3826Y-2.6462
X3.3881Y-2.246
X3.3976Y-3.4271
X3.4178Y-2.4111
X3.4287Y-4.2971
X3.4395Y-2.4677
X3.4498Y-4.4645
X3.4603Y-2.4095
X3.4739Y-2.3024
X3.5102Y-2.7709
X3.5177Y-2.4327
X3.5535Y-3.1632
X3.5787Y-3.0158
X3.5937Y-3.4263
X3.6964Y-2.1483
T3
X2.3122Y-2.3319
X2.3122Y-2.3819
X2.3122Y-2.4319
X2.3122Y-2.4819
X2.3122Y-2.5319
X2.3622Y-2.3319
X2.3622Y-2.3819
X2.3622Y-2.4319
X2.3622Y-2.4819
X2.3622Y-2.5319
T4
X1.7496Y-2.5835
X1.7496Y-2.6835
X1.7496Y-2.7835
X1.7496Y-2.8835
X1.7496Y-2.9835
X1.7496Y-3.0835
X1.7496Y-3.1835
X1.7496Y-3.2835
X1.7496Y-3.3835
X1.7496Y-3.4835
X1.7496Y-3.5835
X1.7496Y-3.6835
X1.7496Y-3.7835
X1.7496Y-3.8835
X1.7496Y-3.9835
X1.7496Y-4.0835
X1.7496Y-4.1835
X1.7496Y-4.2835
X1.7496Y-4.3835
X1.7496Y-4.4835
X1.7496Y-4.5835
X1.7496Y-4.6835
X1.7496Y-4.7835
X1.8496Y-2.5835
X1.8496Y-2.6835
X1.8496Y-2.7835
X1.8496Y-2.8835
X1.8496Y-2.9835
X1.8496Y-3.0835
X1.8496Y-3.1835
X1.8496Y-3.2835
X1.8496Y-3.3835
X1.8496Y-3.4835
X1.8496Y-3.5835
X1.8496Y-3.6835
X1.8496Y-3.7835
X1.8496Y-3.8835
X1.8496Y-3.9835
X1.8496Y-4.0835
X1.8496Y-4.1835
X1.8496Y-4.2835
X1.8496Y-4.3835
X1.8496Y-4.4835
X1.8496Y-4.5835
X1.8496Y-4.6835
X1.8496Y-4.7835
X2.0965Y-1.9764
X2.1949Y-1.9764
X3.6472Y-2.5858
X3.6472Y-2.6858
X3.6472Y-2.7858
X3.6472Y-2.8858
X3.6472Y-2.9858
X3.6472Y-3.0858
X3.6472Y-3.1858
X3.6472Y-3.2858
X3.6472Y-3.3858
X3.6472Y-3.4858
X3.6472Y-3.5858
X3.6472Y-3.6858
X3.6472Y-3.7858
X3.6472Y-3.8858
X3.6472Y-3.9858
X3.6472Y-4.0858
X3.6472Y-4.1858
X3.6472Y-4.2858
X3.6472Y-4.3858
X3.6472Y-4.4858
X3.6472Y-4.5858
X3.6472Y-4.6858
X3.6472Y-4.7858
X3.7472Y-2.5858
X3.7472Y-2.6858
X3.7472Y-2.7858
X3.7472Y-2.8858
X3.7472Y-2.9858
X3.7472Y-3.0858
X3.7472Y-3.1858
X3.7472Y-3.2858
X3.7472Y-3.3858
X3.7472Y-3.4858
X3.7472Y-3.5858
X3.7472Y-3.6858
X3.7472Y-3.7858
X3.7472Y-3.8858
X3.7472Y-3.9858
X3.7472Y-4.0858
X3.7472Y-4.1858
X3.7472Y-4.2858
X3.7472Y-4.3858
X3.7472Y-4.4858
X3.7472Y-4.5858
X3.7472Y-4.6858
X3.7472Y-4.7858
T5
X1.7983Y-2.3845
X1.9197Y-4.9882
X3.5726Y-4.9869
X3.6953Y-2.3858
T2
G00X3.3087Y-2.0173
M15
G01X3.3087Y-1.9858
M16
G05
G00X3.3087Y-2.1886
M15
G01X3.3087Y-2.1453
M16
G05
G00X3.6488Y-2.0173
M15
G01X3.6488Y-1.9858
M16
G05
G00X3.6488Y-2.1886
M15
G01X3.6488Y-2.1453
M16
G05
M30
