M48
; DRILL file {KiCad 9.0.2} date 2026-08-05T14:45:05+0300
; FORMAT={-:-/ absolute / inch / decimal}
; #@! TF.CreationDate,2026-08-05T14:45:05+03:00
; #@! TF.GenerationSoftware,Kicad,Pcbnew,9.0.2
; #@! TF.FileFunction,Plated,1,4,PTH
FMAT,2
INCH
; #@! TA.AperFunction,Plated,PTH,ViaDrill
T1C0.0118
; #@! TA.AperFunction,Plated,PTH,ViaDrill
T2C0.0157
; #@! TA.AperFunction,Plated,PTH,ComponentDrill
T3C0.0236
; #@! TA.AperFunction,Plated,PTH,ComponentDrill
T4C0.0256
; #@! TA.AperFunction,Plated,PTH,ComponentDrill
T5C0.0394
; #@! TA.AperFunction,Plated,PTH,ComponentDrill
T6C0.0512
; #@! TA.AperFunction,Plated,PTH,ComponentDrill
T7C0.0984
%
G90
G05
T1
X1.8827Y-3.4213
X1.8941Y-3.1327
X1.9121Y-2.5824
X1.9291Y-2.3235
X1.9573Y-4.6713
X1.9888Y-3.3138
X2.0118Y-3.8294
X2.0417Y-3.2085
X2.0467Y-3.9028
X2.061Y-3.5219
X2.0925Y-4.6093
X2.0951Y-4.6713
X2.0953Y-2.9314
X2.0986Y-3.7102
X2.1751Y-4.3358
X2.1929Y-3.2994
X2.2518Y-3.5699
X2.2992Y-3.3225
X2.3543Y-2.2612
X2.4338Y-4.2431
X2.4645Y-4.2914
X2.5073Y-3.2114
X2.5101Y-4.2773
X2.5605Y-4.7135
X2.5883Y-4.541
X2.5931Y-4.8929
X2.6732Y-4.71
X2.6732Y-4.8708
X2.7368Y-4.5631
X2.7372Y-3.2473
X2.7825Y-5.0191
X2.7908Y-4.0435
X2.7933Y-4.3405
X2.8288Y-4.736
X2.8288Y-4.8947
X2.8296Y-4.6642
X2.8346Y-3.1802
X2.8416Y-4.6339
X2.8623Y-4.9944
X2.8668Y-4.9106
X2.8838Y-2.6827
X2.8941Y-4.4406
X2.8959Y-4.9944
X2.9252Y-4.9265
X2.9567Y-4.9265
X2.9593Y-4.3406
X2.9724Y-2.9346
X2.9725Y-3.1776
X2.9938Y-4.9271
X3.0031Y-4.3457
X3.0146Y-4.4622
X3.0146Y-4.2707
X3.025Y-4.9263
X3.0461Y-3.4354
X3.0533Y-3.9305
X3.0602Y-3.1389
X3.0626Y-4.4085
X3.0953Y-4.5954
X3.1073Y-4.5508
X3.1144Y-3.6041
X3.1683Y-3.9928
X3.1768Y-3.0578
X3.1994Y-3.7532
X3.2155Y-5.1801
X3.2292Y-4.9114
X3.2845Y-2.8359
X3.3123Y-3.1904
X3.3495Y-2.9195
X3.415Y-4.2698
X3.4227Y-4.0621
X3.4291Y-5.0275
X3.432Y-3.6041
X3.4393Y-2.1657
X3.4568Y-2.8757
X3.4724Y-2.3307
X3.4783Y-2.166
X3.4958Y-2.2511
X3.5039Y-3.0221
X3.5479Y-4.8131
X3.5604Y-2.2625
X3.5928Y-3.3827
X3.6903Y-4.7288
X3.6911Y-4.2297
T2
X2.3131Y-3.0185
X3.0234Y-2.7913
T4
X3.4016Y-4.6311
X3.4016Y-4.6811
X3.4016Y-4.7311
X3.4016Y-4.7811
X3.4016Y-4.8311
X3.4516Y-4.6311
X3.4516Y-4.6811
X3.4516Y-4.7311
X3.4516Y-4.7811
X3.4516Y-4.8311
T5
X1.7465Y-2.585
X1.7465Y-2.685
X1.7465Y-2.785
X1.7465Y-2.885
X1.7465Y-2.985
X1.7465Y-3.085
X1.7465Y-3.185
X1.7465Y-3.285
X1.7465Y-3.385
X1.7465Y-3.485
X1.7465Y-3.585
X1.7465Y-3.685
X1.7465Y-3.785
X1.7465Y-3.885
X1.7465Y-3.985
X1.7465Y-4.085
X1.7465Y-4.185
X1.7465Y-4.285
X1.7465Y-4.385
X1.7465Y-4.485
X1.7465Y-4.585
X1.7465Y-4.685
X1.7465Y-4.785
X1.8465Y-2.585
X1.8465Y-2.685
X1.8465Y-2.785
X1.8465Y-2.885
X1.8465Y-2.985
X1.8465Y-3.085
X1.8465Y-3.185
X1.8465Y-3.285
X1.8465Y-3.385
X1.8465Y-3.485
X1.8465Y-3.585
X1.8465Y-3.685
X1.8465Y-3.785
X1.8465Y-3.885
X1.8465Y-3.985
X1.8465Y-4.085
X1.8465Y-4.185
X1.8465Y-4.285
X1.8465Y-4.385
X1.8465Y-4.485
X1.8465Y-4.585
X1.8465Y-4.685
X1.8465Y-4.785
X1.9291Y-2.0472
X1.9291Y-2.1457
X2.2047Y-4.1929
X2.2047Y-5.0976
X2.2293Y-2.812
X2.2293Y-3.7167
X2.3047Y-4.1929
X2.3047Y-5.0976
X2.3293Y-2.812
X2.3293Y-3.7167
X2.4047Y-4.1929
X2.4047Y-5.0976
X2.4293Y-2.812
X2.4293Y-3.7167
X2.5047Y-4.1929
X2.5047Y-5.0976
X2.5293Y-2.812
X2.5293Y-3.7167
X2.6047Y-4.1929
X2.6047Y-5.0976
X2.6293Y-2.812
X2.6293Y-3.7167
X2.7047Y-4.1929
X2.7047Y-5.0976
X2.7293Y-2.812
X2.7293Y-3.7167
X2.8047Y-4.1929
X2.8047Y-5.0976
X2.8293Y-2.812
X2.8293Y-3.7167
X2.9047Y-4.1929
X2.9047Y-5.0976
X2.9293Y-2.812
X2.9293Y-3.7167
X3.6441Y-2.5827
X3.6441Y-2.6827
X3.6441Y-2.7827
X3.6441Y-2.8827
X3.6441Y-2.9827
X3.6441Y-3.0827
X3.6441Y-3.1827
X3.6441Y-3.2827
X3.6441Y-3.3827
X3.6441Y-3.4827
X3.6441Y-3.5827
X3.6441Y-3.6827
X3.6441Y-3.7827
X3.6441Y-3.8827
X3.6441Y-3.9827
X3.6441Y-4.0827
X3.6441Y-4.1827
X3.6441Y-4.2827
X3.6441Y-4.3827
X3.6441Y-4.4827
X3.6441Y-4.5827
X3.6441Y-4.6827
X3.6441Y-4.7827
X3.7441Y-2.5827
X3.7441Y-2.6827
X3.7441Y-2.7827
X3.7441Y-2.8827
X3.7441Y-2.9827
X3.7441Y-3.0827
X3.7441Y-3.1827
X3.7441Y-3.2827
X3.7441Y-3.3827
X3.7441Y-3.4827
X3.7441Y-3.5827
X3.7441Y-3.6827
X3.7441Y-3.7827
X3.7441Y-3.8827
X3.7441Y-3.9827
X3.7441Y-4.0827
X3.7441Y-4.1827
X3.7441Y-4.2827
X3.7441Y-4.3827
X3.7441Y-4.4827
X3.7441Y-4.5827
X3.7441Y-4.6827
X3.7441Y-4.7827
T6
X2.1437Y-2.08
X2.3406Y-2.08
T7
X1.7983Y-2.3845
X1.9197Y-4.9882
X3.5726Y-4.9869
X3.6969Y-2.3819
T3
G00X3.3181Y-2.035
M15
G01X3.3181Y-2.0035
M16
G05
G00X3.3181Y-2.2063
M15
G01X3.3181Y-2.163
M16
G05
G00X3.6583Y-2.035
M15
G01X3.6583Y-2.0035
M16
G05
G00X3.6583Y-2.2063
M15
G01X3.6583Y-2.163
M16
G05
M30
