%TF.GenerationSoftware,KiCad,Pcbnew,9.0.2*%
%TF.CreationDate,2026-07-03T16:52:54+03:00*%
%TF.ProjectId,a0,61302e6b-6963-4616-945f-706362585858,Rev 0.3*%
%TF.SameCoordinates,Original*%
%TF.FileFunction,Legend,Top*%
%TF.FilePolarity,Positive*%
%FSLAX46Y46*%
G04 Gerber Fmt 4.6, Leading zero omitted, Abs format (unit mm)*
G04 Created by KiCad (PCBNEW 9.0.2) date 2026-07-03 16:52:54*
%MOMM*%
%LPD*%
G01*
G04 APERTURE LIST*
G04 Aperture macros list*
%AMRoundRect*
0 Rectangle with rounded corners*
0 $1 Rounding radius*
0 $2 $3 $4 $5 $6 $7 $8 $9 X,Y pos of 4 corners*
0 Add a 4 corners polygon primitive as box body*
4,1,4,$2,$3,$4,$5,$6,$7,$8,$9,$2,$3,0*
0 Add four circle primitives for the rounded corners*
1,1,$1+$1,$2,$3*
1,1,$1+$1,$4,$5*
1,1,$1+$1,$6,$7*
1,1,$1+$1,$8,$9*
0 Add four rect primitives between the rounded corners*
20,1,$1+$1,$2,$3,$4,$5,0*
20,1,$1+$1,$4,$5,$6,$7,0*
20,1,$1+$1,$6,$7,$8,$9,0*
20,1,$1+$1,$8,$9,$2,$3,0*%
G04 Aperture macros list end*
%ADD10C,0.150000*%
%ADD11C,0.120000*%
%ADD12C,0.127000*%
%ADD13C,0.200000*%
%ADD14C,0.000000*%
%ADD15C,0.250000*%
%ADD16C,0.010000*%
%ADD17C,5.000000*%
%ADD18RoundRect,0.062500X-0.062500X0.117500X-0.062500X-0.117500X0.062500X-0.117500X0.062500X0.117500X0*%
%ADD19RoundRect,0.150000X-0.587500X-0.150000X0.587500X-0.150000X0.587500X0.150000X-0.587500X0.150000X0*%
%ADD20RoundRect,0.243750X-0.456250X0.243750X-0.456250X-0.243750X0.456250X-0.243750X0.456250X0.243750X0*%
%ADD21RoundRect,0.250000X-0.450000X0.262500X-0.450000X-0.262500X0.450000X-0.262500X0.450000X0.262500X0*%
%ADD22RoundRect,0.062500X0.062500X-0.117500X0.062500X0.117500X-0.062500X0.117500X-0.062500X-0.117500X0*%
%ADD23RoundRect,0.250000X0.250000X-0.275000X0.250000X0.275000X-0.250000X0.275000X-0.250000X-0.275000X0*%
%ADD24RoundRect,0.250000X0.275000X-0.850000X0.275000X0.850000X-0.275000X0.850000X-0.275000X-0.850000X0*%
%ADD25RoundRect,0.250000X0.650000X-0.325000X0.650000X0.325000X-0.650000X0.325000X-0.650000X-0.325000X0*%
%ADD26RoundRect,0.250000X-0.475000X0.250000X-0.475000X-0.250000X0.475000X-0.250000X0.475000X0.250000X0*%
%ADD27RoundRect,0.200000X-0.200000X-0.800000X0.200000X-0.800000X0.200000X0.800000X-0.200000X0.800000X0*%
%ADD28RoundRect,0.102000X-0.400000X-0.200000X0.400000X-0.200000X0.400000X0.200000X-0.400000X0.200000X0*%
%ADD29RoundRect,0.102000X-0.200000X-0.400000X0.200000X-0.400000X0.200000X0.400000X-0.200000X0.400000X0*%
%ADD30RoundRect,0.102000X-0.725000X-0.725000X0.725000X-0.725000X0.725000X0.725000X-0.725000X0.725000X0*%
%ADD31RoundRect,0.102000X-0.350000X-0.350000X0.350000X-0.350000X0.350000X0.350000X-0.350000X0.350000X0*%
%ADD32RoundRect,0.250000X-0.262500X-0.450000X0.262500X-0.450000X0.262500X0.450000X-0.262500X0.450000X0*%
%ADD33C,0.650000*%
%ADD34R,0.600000X1.240000*%
%ADD35R,0.300000X1.240000*%
%ADD36O,1.000000X2.100000*%
%ADD37O,1.000000X1.800000*%
%ADD38RoundRect,0.150000X0.587500X0.150000X-0.587500X0.150000X-0.587500X-0.150000X0.587500X-0.150000X0*%
%ADD39RoundRect,0.250000X-0.600000X-0.750000X0.600000X-0.750000X0.600000X0.750000X-0.600000X0.750000X0*%
%ADD40O,1.700000X2.000000*%
%ADD41RoundRect,0.200000X0.800000X-0.200000X0.800000X0.200000X-0.800000X0.200000X-0.800000X-0.200000X0*%
%ADD42R,1.700000X1.700000*%
%ADD43C,1.700000*%
%ADD44RoundRect,0.250000X-0.362500X-0.700000X0.362500X-0.700000X0.362500X0.700000X-0.362500X0.700000X0*%
%ADD45RoundRect,0.250000X0.250000X0.475000X-0.250000X0.475000X-0.250000X-0.475000X0.250000X-0.475000X0*%
%ADD46RoundRect,0.250000X0.450000X-0.262500X0.450000X0.262500X-0.450000X0.262500X-0.450000X-0.262500X0*%
%ADD47RoundRect,0.250000X-0.250000X0.275000X-0.250000X-0.275000X0.250000X-0.275000X0.250000X0.275000X0*%
%ADD48RoundRect,0.250000X-0.275000X0.850000X-0.275000X-0.850000X0.275000X-0.850000X0.275000X0.850000X0*%
%ADD49RoundRect,0.250000X0.475000X-0.250000X0.475000X0.250000X-0.475000X0.250000X-0.475000X-0.250000X0*%
%ADD50O,0.804000X1.804000*%
%ADD51O,1.804000X0.804000*%
%ADD52RoundRect,0.102000X-0.450000X0.550000X-0.450000X-0.550000X0.450000X-0.550000X0.450000X0.550000X0*%
%ADD53RoundRect,0.102000X-0.550000X0.450000X-0.550000X-0.450000X0.550000X-0.450000X0.550000X0.450000X0*%
%ADD54RoundRect,0.102000X-1.550000X1.300000X-1.550000X-1.300000X1.550000X-1.300000X1.550000X1.300000X0*%
%ADD55RoundRect,0.062500X0.117500X0.062500X-0.117500X0.062500X-0.117500X-0.062500X0.117500X-0.062500X0*%
%ADD56RoundRect,0.102000X0.900000X0.450000X-0.900000X0.450000X-0.900000X-0.450000X0.900000X-0.450000X0*%
%ADD57RoundRect,0.102000X0.450000X1.100000X-0.450000X1.100000X-0.450000X-1.100000X0.450000X-1.100000X0*%
%ADD58RoundRect,0.250001X-0.624999X0.462499X-0.624999X-0.462499X0.624999X-0.462499X0.624999X0.462499X0*%
%ADD59R,1.000000X1.000000*%
%ADD60C,1.000000*%
%ADD61RoundRect,0.150000X-0.512500X-0.150000X0.512500X-0.150000X0.512500X0.150000X-0.512500X0.150000X0*%
%ADD62RoundRect,0.250000X-0.250000X-0.475000X0.250000X-0.475000X0.250000X0.475000X-0.250000X0.475000X0*%
%ADD63R,0.900000X1.200000*%
%ADD64R,1.300000X1.800000*%
%ADD65RoundRect,0.050000X0.250000X0.070000X-0.250000X0.070000X-0.250000X-0.070000X0.250000X-0.070000X0*%
%ADD66RoundRect,0.050000X0.070000X-0.250000X0.070000X0.250000X-0.070000X0.250000X-0.070000X-0.250000X0*%
%ADD67RoundRect,0.050000X1.475000X-0.975000X1.475000X0.975000X-1.475000X0.975000X-1.475000X-0.975000X0*%
%ADD68RoundRect,0.375000X-0.375000X0.625000X-0.375000X-0.625000X0.375000X-0.625000X0.375000X0.625000X0*%
%ADD69RoundRect,0.500000X-1.400000X0.500000X-1.400000X-0.500000X1.400000X-0.500000X1.400000X0.500000X0*%
G04 APERTURE END LIST*
D10*
X66333095Y-65919819D02*
X66333095Y-66729342D01*
X66333095Y-66729342D02*
X66380714Y-66824580D01*
X66380714Y-66824580D02*
X66428333Y-66872200D01*
X66428333Y-66872200D02*
X66523571Y-66919819D01*
X66523571Y-66919819D02*
X66714047Y-66919819D01*
X66714047Y-66919819D02*
X66809285Y-66872200D01*
X66809285Y-66872200D02*
X66856904Y-66824580D01*
X66856904Y-66824580D02*
X66904523Y-66729342D01*
X66904523Y-66729342D02*
X66904523Y-65919819D01*
X67904523Y-66919819D02*
X67333095Y-66919819D01*
X67618809Y-66919819D02*
X67618809Y-65919819D01*
X67618809Y-65919819D02*
X67523571Y-66062676D01*
X67523571Y-66062676D02*
X67428333Y-66157914D01*
X67428333Y-66157914D02*
X67333095Y-66205533D01*
X45376666Y-62694819D02*
X45376666Y-63409104D01*
X45376666Y-63409104D02*
X45329047Y-63551961D01*
X45329047Y-63551961D02*
X45233809Y-63647200D01*
X45233809Y-63647200D02*
X45090952Y-63694819D01*
X45090952Y-63694819D02*
X44995714Y-63694819D01*
X45757619Y-62694819D02*
X46424285Y-62694819D01*
X46424285Y-62694819D02*
X45995714Y-63694819D01*
D11*
%TO.C,D8*%
X87580000Y-59595000D02*
X87580000Y-60955000D01*
X87580000Y-60955000D02*
X88380000Y-60955000D01*
X88380000Y-59595000D02*
X88380000Y-60955000D01*
%TO.C,Q2*%
X81572500Y-99360000D02*
X83092500Y-99360000D01*
X81572500Y-99410000D02*
X81572500Y-99360000D01*
X81572500Y-101310000D02*
X81572500Y-100530000D01*
X81572500Y-102480000D02*
X81572500Y-102430000D01*
X83092500Y-99360000D02*
X83092500Y-100360000D01*
X83092500Y-101480000D02*
X83092500Y-102480000D01*
X83092500Y-102480000D02*
X81572500Y-102480000D01*
X81272500Y-100870000D02*
X80792500Y-100870000D01*
X81032500Y-100540000D01*
X81272500Y-100870000D01*
G36*
X81272500Y-100870000D02*
G01*
X80792500Y-100870000D01*
X81032500Y-100540000D01*
X81272500Y-100870000D01*
G37*
%TO.C,D12*%
X74050000Y-102645000D02*
X74050000Y-105330000D01*
X75970000Y-102645000D02*
X74050000Y-102645000D01*
X75970000Y-105330000D02*
X75970000Y-102645000D01*
%TO.C,R17*%
X66765000Y-109772936D02*
X66765000Y-110227064D01*
X68235000Y-109772936D02*
X68235000Y-110227064D01*
%TO.C,R2*%
X52535000Y-61062936D02*
X52535000Y-61517064D01*
X54005000Y-61062936D02*
X54005000Y-61517064D01*
%TO.C,D6*%
X94120000Y-55202500D02*
X94120000Y-53842500D01*
X94920000Y-53842500D02*
X94120000Y-53842500D01*
X94920000Y-55202500D02*
X94920000Y-53842500D01*
%TO.C,J2*%
X51060000Y-71795000D02*
X51700000Y-71795000D01*
X51110000Y-69075000D02*
X53810000Y-69075000D01*
X51700000Y-71795000D02*
X51700000Y-72425000D01*
X53860000Y-71795000D02*
X53220000Y-71795000D01*
%TO.C,C6*%
X74305000Y-96461252D02*
X74305000Y-95038748D01*
X76125000Y-96461252D02*
X76125000Y-95038748D01*
%TO.C,C16*%
X53065000Y-77108748D02*
X53065000Y-77631252D01*
X54535000Y-77108748D02*
X54535000Y-77631252D01*
%TO.C,SW1*%
X50430000Y-63430000D02*
X54570000Y-63430000D01*
X50430000Y-63730000D02*
X50430000Y-63430000D01*
X50430000Y-66570000D02*
X50430000Y-66270000D01*
X54570000Y-63430000D02*
X54570000Y-63730000D01*
X54570000Y-66270000D02*
X54570000Y-66570000D01*
X54570000Y-66570000D02*
X50430000Y-66570000D01*
%TO.C,Q3*%
X81215000Y-90840000D02*
X82735000Y-90840000D01*
X81215000Y-90890000D02*
X81215000Y-90840000D01*
X81215000Y-92790000D02*
X81215000Y-92010000D01*
X81215000Y-93960000D02*
X81215000Y-93910000D01*
X82735000Y-90840000D02*
X82735000Y-91840000D01*
X82735000Y-92960000D02*
X82735000Y-93960000D01*
X82735000Y-93960000D02*
X81215000Y-93960000D01*
X80915000Y-92350000D02*
X80435000Y-92350000D01*
X80675000Y-92020000D01*
X80915000Y-92350000D01*
G36*
X80915000Y-92350000D02*
G01*
X80435000Y-92350000D01*
X80675000Y-92020000D01*
X80915000Y-92350000D01*
G37*
%TO.C,C18*%
X67135000Y-114698748D02*
X67135000Y-115221252D01*
X68605000Y-114698748D02*
X68605000Y-115221252D01*
%TO.C,D4*%
X84520000Y-97135000D02*
X84520000Y-99820000D01*
X86440000Y-97135000D02*
X84520000Y-97135000D01*
X86440000Y-99820000D02*
X86440000Y-97135000D01*
%TO.C,C13*%
X58155000Y-112488748D02*
X58155000Y-113011252D01*
X59625000Y-112488748D02*
X59625000Y-113011252D01*
D12*
%TO.C,U1*%
X64170000Y-68350000D02*
X77370000Y-68350000D01*
X64170000Y-69630000D02*
X64170000Y-68350000D01*
X77370000Y-68350000D02*
X77370000Y-69630000D01*
D13*
X63620000Y-71250000D02*
G75*
G02*
X63420000Y-71250000I-100000J0D01*
G01*
X63420000Y-71250000D02*
G75*
G02*
X63620000Y-71250000I100000J0D01*
G01*
D11*
%TO.C,R15*%
X81590436Y-94795000D02*
X82044564Y-94795000D01*
X81590436Y-96265000D02*
X82044564Y-96265000D01*
%TO.C,J4*%
X83780000Y-48130000D02*
X92940000Y-48130000D01*
X83780000Y-49835000D02*
X83780000Y-48130000D01*
X83780000Y-51845000D02*
X83780000Y-53765000D01*
X92940000Y-48130000D02*
X92940000Y-49835000D01*
X92940000Y-53765000D02*
X92940000Y-51845000D01*
%TO.C,R10*%
X81652936Y-97205000D02*
X82107064Y-97205000D01*
X81652936Y-98675000D02*
X82107064Y-98675000D01*
%TO.C,Q1*%
X76292500Y-86230000D02*
X77812500Y-86230000D01*
X76292500Y-87230000D02*
X76292500Y-86230000D01*
X76292500Y-89350000D02*
X76292500Y-88350000D01*
X77812500Y-86230000D02*
X77812500Y-86280000D01*
X77812500Y-87400000D02*
X77812500Y-88180000D01*
X77812500Y-89300000D02*
X77812500Y-89350000D01*
X77812500Y-89350000D02*
X76292500Y-89350000D01*
X78352500Y-88170000D02*
X78112500Y-87840000D01*
X78592500Y-87840000D01*
X78352500Y-88170000D01*
G36*
X78352500Y-88170000D02*
G01*
X78112500Y-87840000D01*
X78592500Y-87840000D01*
X78352500Y-88170000D01*
G37*
%TO.C,J6*%
X50340000Y-50310000D02*
X50340000Y-52810000D01*
X50340000Y-52810000D02*
X52840000Y-52810000D01*
X50640000Y-48490000D02*
X50640000Y-52510000D01*
X50640000Y-50200000D02*
X51140000Y-50200000D01*
X50640000Y-51010000D02*
X51640000Y-51010000D01*
X50640000Y-52510000D02*
X58360000Y-52510000D01*
X51140000Y-48990000D02*
X57860000Y-48990000D01*
X51140000Y-50200000D02*
X51140000Y-48990000D01*
X51640000Y-51010000D02*
X51640000Y-52510000D01*
X57360000Y-51010000D02*
X57360000Y-52510000D01*
X57860000Y-48990000D02*
X57860000Y-50200000D01*
X57860000Y-50200000D02*
X58360000Y-50200000D01*
X58360000Y-48490000D02*
X50640000Y-48490000D01*
X58360000Y-51010000D02*
X57360000Y-51010000D01*
X58360000Y-52510000D02*
X58360000Y-48490000D01*
%TO.C,SW2*%
X84730000Y-81937500D02*
X85030000Y-81937500D01*
X84730000Y-86077500D02*
X84730000Y-81937500D01*
X85030000Y-86077500D02*
X84730000Y-86077500D01*
X87570000Y-81937500D02*
X87870000Y-81937500D01*
X87870000Y-81937500D02*
X87870000Y-86077500D01*
X87870000Y-86077500D02*
X87570000Y-86077500D01*
%TO.C,C12*%
X55325000Y-112488748D02*
X55325000Y-113011252D01*
X56795000Y-112488748D02*
X56795000Y-113011252D01*
%TO.C,R14*%
X81802936Y-103085000D02*
X82257064Y-103085000D01*
X81802936Y-104555000D02*
X82257064Y-104555000D01*
%TO.C,R19*%
X88975000Y-59082936D02*
X88975000Y-59537064D01*
X90445000Y-59082936D02*
X90445000Y-59537064D01*
%TO.C,R9*%
X78900436Y-82085000D02*
X79354564Y-82085000D01*
X78900436Y-83555000D02*
X79354564Y-83555000D01*
%TO.C,J8*%
X91260000Y-64300000D02*
X92640000Y-64300000D01*
X91260000Y-65680000D02*
X91260000Y-64300000D01*
X91260000Y-66950000D02*
X91260000Y-122940000D01*
X91260000Y-66950000D02*
X93910000Y-66950000D01*
X91260000Y-122940000D02*
X96560000Y-122940000D01*
X93910000Y-64300000D02*
X96560000Y-64300000D01*
X93910000Y-66950000D02*
X93910000Y-64300000D01*
X96560000Y-64300000D02*
X96560000Y-122940000D01*
%TO.C,FB1*%
X80624758Y-77100000D02*
X82295242Y-77100000D01*
X80624758Y-78920000D02*
X82295242Y-78920000D01*
%TO.C,C11*%
X56635000Y-103648748D02*
X56635000Y-104171252D01*
X58105000Y-103648748D02*
X58105000Y-104171252D01*
%TO.C,C10*%
X73831252Y-89635000D02*
X73308748Y-89635000D01*
X73831252Y-91105000D02*
X73308748Y-91105000D01*
%TO.C,R1*%
X73385000Y-83267064D02*
X73385000Y-82812936D01*
X74855000Y-83267064D02*
X74855000Y-82812936D01*
%TO.C,R16*%
X69360436Y-104765000D02*
X69814564Y-104765000D01*
X69360436Y-106235000D02*
X69814564Y-106235000D01*
%TO.C,J3*%
X63180000Y-103385000D02*
X63820000Y-103385000D01*
X65340000Y-103385000D02*
X65340000Y-102755000D01*
X65930000Y-106105000D02*
X63230000Y-106105000D01*
X65980000Y-103385000D02*
X65340000Y-103385000D01*
%TO.C,C19*%
X83715000Y-65008748D02*
X83715000Y-65531252D01*
X85185000Y-65008748D02*
X85185000Y-65531252D01*
%TO.C,R22*%
X72065000Y-104102936D02*
X72065000Y-104557064D01*
X73535000Y-104102936D02*
X73535000Y-104557064D01*
%TO.C,R7*%
X59580000Y-108540436D02*
X59580000Y-108994564D01*
X61050000Y-108540436D02*
X61050000Y-108994564D01*
%TO.C,C2*%
X61910000Y-71786252D02*
X61910000Y-71263748D01*
X63380000Y-71786252D02*
X63380000Y-71263748D01*
D12*
%TO.C,U2*%
X52560000Y-84870000D02*
X54660000Y-84870000D01*
X52560000Y-87670000D02*
X52560000Y-84870000D01*
X52560000Y-97770000D02*
X52560000Y-100570000D01*
X52560000Y-100570000D02*
X54660000Y-100570000D01*
X68060000Y-84870000D02*
X70160000Y-84870000D01*
X70160000Y-84870000D02*
X70160000Y-87670000D01*
X70160000Y-97770000D02*
X70160000Y-100570000D01*
X70160000Y-100570000D02*
X68060000Y-100570000D01*
D13*
X68010000Y-83270000D02*
G75*
G02*
X67810000Y-83270000I-100000J0D01*
G01*
X67810000Y-83270000D02*
G75*
G02*
X68010000Y-83270000I100000J0D01*
G01*
D11*
%TO.C,C5*%
X72012500Y-96611252D02*
X72012500Y-96088748D01*
X73482500Y-96611252D02*
X73482500Y-96088748D01*
%TO.C,C8*%
X73685000Y-99928748D02*
X73685000Y-100451252D01*
X75155000Y-99928748D02*
X75155000Y-100451252D01*
%TO.C,D2*%
X76010000Y-89830000D02*
X76010000Y-90630000D01*
X77370000Y-89830000D02*
X76010000Y-89830000D01*
X77370000Y-90630000D02*
X76010000Y-90630000D01*
%TO.C,R11*%
X81650436Y-88795000D02*
X82104564Y-88795000D01*
X81650436Y-90265000D02*
X82104564Y-90265000D01*
%TO.C,C14*%
X60985000Y-112488748D02*
X60985000Y-113011252D01*
X62455000Y-112488748D02*
X62455000Y-113011252D01*
%TO.C,R5*%
X56705000Y-108540436D02*
X56705000Y-108994564D01*
X58175000Y-108540436D02*
X58175000Y-108994564D01*
%TO.C,R13*%
X78042500Y-92112936D02*
X78042500Y-92567064D01*
X79512500Y-92112936D02*
X79512500Y-92567064D01*
%TO.C,R4*%
X50880436Y-109405000D02*
X51334564Y-109405000D01*
X50880436Y-110875000D02*
X51334564Y-110875000D01*
D12*
%TO.C,U5*%
X70050000Y-107210000D02*
X70050000Y-108210000D01*
X70050000Y-120010000D02*
X70050000Y-130210000D01*
X70050000Y-130210000D02*
X74050000Y-130210000D01*
X82050000Y-130210000D02*
X86050000Y-130210000D01*
X86050000Y-107210000D02*
X70050000Y-107210000D01*
X86050000Y-108210000D02*
X86050000Y-107210000D01*
X86050000Y-130210000D02*
X86050000Y-120010000D01*
D13*
X87250000Y-119210000D02*
G75*
G02*
X87050000Y-119210000I-100000J0D01*
G01*
X87050000Y-119210000D02*
G75*
G02*
X87250000Y-119210000I100000J0D01*
G01*
D11*
%TO.C,C20*%
X86005000Y-65008748D02*
X86005000Y-65531252D01*
X87475000Y-65008748D02*
X87475000Y-65531252D01*
%TO.C,C4*%
X82195000Y-85516248D02*
X82195000Y-86038752D01*
X83665000Y-85516248D02*
X83665000Y-86038752D01*
%TO.C,C21*%
X81255000Y-74961252D02*
X81255000Y-74438748D01*
X82725000Y-74961252D02*
X82725000Y-74438748D01*
%TO.C,J7*%
X43060000Y-64240000D02*
X44440000Y-64240000D01*
X43060000Y-65620000D02*
X43060000Y-64240000D01*
X43060000Y-66890000D02*
X43060000Y-122880000D01*
X43060000Y-66890000D02*
X45710000Y-66890000D01*
X43060000Y-122880000D02*
X48360000Y-122880000D01*
X45710000Y-64240000D02*
X48360000Y-64240000D01*
X45710000Y-66890000D02*
X45710000Y-64240000D01*
X48360000Y-64240000D02*
X48360000Y-122880000D01*
%TO.C,C3*%
X50105000Y-61541252D02*
X50105000Y-61018748D01*
X51575000Y-61541252D02*
X51575000Y-61018748D01*
%TO.C,F1*%
X88390000Y-63917936D02*
X88390000Y-65122064D01*
X90210000Y-63917936D02*
X90210000Y-65122064D01*
D14*
%TO.C,kibuzzard-6834745F*%
G36*
X53194572Y-130021890D02*
G01*
X53217835Y-130112036D01*
X53237464Y-130201454D01*
X53254911Y-130294507D01*
X53078982Y-130294507D01*
X53097157Y-130201454D01*
X53117512Y-130112036D01*
X53140775Y-130021890D01*
X53167674Y-129925202D01*
X53194572Y-130021890D01*
G37*
G36*
X54449580Y-130911955D02*
G01*
X54207254Y-130911955D01*
X53939725Y-130911955D01*
X53327609Y-130911955D01*
X52532294Y-130911955D01*
X51668643Y-130911955D01*
X51412746Y-130911955D01*
X51170420Y-130911955D01*
X51170420Y-130589661D01*
X51412746Y-130589661D01*
X51515977Y-130646365D01*
X51584677Y-130663813D01*
X51668643Y-130669628D01*
X51749338Y-130663267D01*
X51816947Y-130644184D01*
X51872379Y-130614196D01*
X51916543Y-130575121D01*
X51971793Y-130473344D01*
X51984334Y-130413368D01*
X51988514Y-130349758D01*
X51988514Y-129899031D01*
X52115008Y-129899031D01*
X52352003Y-129899031D01*
X52352003Y-130650727D01*
X52532294Y-130650727D01*
X52818724Y-130650727D01*
X53004830Y-130650727D01*
X53045541Y-130442811D01*
X53285444Y-130442811D01*
X53327609Y-130650727D01*
X53519532Y-130650727D01*
X53495541Y-130548688D01*
X53471260Y-130449616D01*
X53446688Y-130353509D01*
X53421826Y-130260368D01*
X53404986Y-130200000D01*
X53571874Y-130200000D01*
X53578417Y-130309229D01*
X53598045Y-130404281D01*
X53629669Y-130484976D01*
X53672197Y-130551131D01*
X53725085Y-130602746D01*
X53787787Y-130639822D01*
X53859576Y-130662177D01*
X53939725Y-130669628D01*
X54028599Y-130665994D01*
X54103296Y-130655089D01*
X54202892Y-130628918D01*
X54202892Y-130179645D01*
X54024055Y-130179645D01*
X54024055Y-130508239D01*
X53989160Y-130512601D01*
X53954265Y-130514055D01*
X53867391Y-130494972D01*
X53804507Y-130437722D01*
X53776236Y-130377383D01*
X53759273Y-130298142D01*
X53753619Y-130200000D01*
X53756708Y-130133300D01*
X53765977Y-130072779D01*
X53806688Y-129973910D01*
X53878659Y-129909208D01*
X53986252Y-129885945D01*
X54082213Y-129901939D01*
X54160727Y-129938288D01*
X54207254Y-129795800D01*
X54177447Y-129778352D01*
X54127286Y-129756543D01*
X54055315Y-129738368D01*
X53961535Y-129730372D01*
X53882658Y-129737823D01*
X53808869Y-129760178D01*
X53742351Y-129797435D01*
X53685283Y-129849596D01*
X53638393Y-129916296D01*
X53602407Y-129997173D01*
X53579507Y-130091862D01*
X53571874Y-130200000D01*
X53404986Y-130200000D01*
X53396672Y-130170194D01*
X53365003Y-130060829D01*
X53333243Y-129954463D01*
X53301392Y-129851096D01*
X53269451Y-129750727D01*
X53074620Y-129750727D01*
X53043815Y-129850278D01*
X53012464Y-129952645D01*
X52980567Y-130057830D01*
X52948126Y-130165832D01*
X52922013Y-130255250D01*
X52896016Y-130348449D01*
X52870136Y-130445428D01*
X52844372Y-130546187D01*
X52818724Y-130650727D01*
X52532294Y-130650727D01*
X52532294Y-129899031D01*
X52769289Y-129899031D01*
X52769289Y-129750727D01*
X52115008Y-129750727D01*
X52115008Y-129899031D01*
X51988514Y-129899031D01*
X51988514Y-129750727D01*
X51507254Y-129750727D01*
X51507254Y-129899031D01*
X51808223Y-129899031D01*
X51808223Y-130339580D01*
X51797500Y-130424091D01*
X51765331Y-130476979D01*
X51715715Y-130504786D01*
X51652649Y-130514055D01*
X51561777Y-130492246D01*
X51481082Y-130447173D01*
X51412746Y-130589661D01*
X51170420Y-130589661D01*
X51170420Y-129488045D01*
X51412746Y-129488045D01*
X54207254Y-129488045D01*
X54449580Y-129488045D01*
X54449580Y-130911955D01*
G37*
D11*
%TO.C,J1*%
X57550000Y-65055000D02*
X57550000Y-58485000D01*
X58412077Y-58485000D02*
X57550000Y-58485000D01*
X58412077Y-65055000D02*
X57550000Y-65055000D01*
X59682077Y-58485000D02*
X59047923Y-58485000D01*
X61180000Y-58485000D02*
X60317923Y-58485000D01*
X61180000Y-63500000D02*
X60666708Y-63500000D01*
X61180000Y-63500000D02*
X61180000Y-58485000D01*
X61180000Y-64310000D02*
X61180000Y-65120000D01*
X61180000Y-65120000D02*
X60000000Y-65120000D01*
%TO.C,R6*%
X76930436Y-84185000D02*
X77384564Y-84185000D01*
X76930436Y-85655000D02*
X77384564Y-85655000D01*
%TO.C,D5*%
X84327500Y-88735000D02*
X84327500Y-91420000D01*
X86247500Y-88735000D02*
X84327500Y-88735000D01*
X86247500Y-91420000D02*
X86247500Y-88735000D01*
%TO.C,C15*%
X63815000Y-112488748D02*
X63815000Y-113011252D01*
X65285000Y-112488748D02*
X65285000Y-113011252D01*
%TO.C,D9*%
X86410000Y-59595000D02*
X86410000Y-60955000D01*
X86410000Y-60955000D02*
X87210000Y-60955000D01*
X87210000Y-59595000D02*
X87210000Y-60955000D01*
%TO.C,C1*%
X59680000Y-71786252D02*
X59680000Y-71263748D01*
X61150000Y-71786252D02*
X61150000Y-71263748D01*
%TO.C,D3*%
X51940000Y-103070000D02*
X53760000Y-103070000D01*
X51940000Y-103120000D02*
X51940000Y-103070000D01*
X51940000Y-106190000D02*
X51940000Y-106140000D01*
X53760000Y-103070000D02*
X53760000Y-103120000D01*
X53760000Y-104240000D02*
X53760000Y-105020000D01*
X53760000Y-106140000D02*
X53760000Y-106190000D01*
X53760000Y-106190000D02*
X51940000Y-106190000D01*
X51400000Y-103120000D02*
X51160000Y-102790000D01*
X51640000Y-102790000D01*
X51400000Y-103120000D01*
G36*
X51400000Y-103120000D02*
G01*
X51160000Y-102790000D01*
X51640000Y-102790000D01*
X51400000Y-103120000D01*
G37*
%TO.C,D1*%
X53235000Y-110702500D02*
X53235000Y-109342500D01*
X54035000Y-109342500D02*
X53235000Y-109342500D01*
X54035000Y-110702500D02*
X54035000Y-109342500D01*
%TO.C,C17*%
X52798748Y-73715000D02*
X53321252Y-73715000D01*
X52798748Y-75185000D02*
X53321252Y-75185000D01*
D15*
%TO.C,U3*%
X53210000Y-115840000D02*
X53210000Y-119220000D01*
X53210000Y-121480000D02*
X53210000Y-128020000D01*
X53210000Y-130280000D02*
X53210000Y-130320000D01*
X53210000Y-130320000D02*
X65910000Y-130320000D01*
X55710000Y-115840000D02*
X53210000Y-115840000D01*
X65910000Y-115840000D02*
X63420000Y-115840000D01*
X65910000Y-119220000D02*
X65910000Y-115840000D01*
X65910000Y-128020000D02*
X65910000Y-121480000D01*
X65910000Y-130320000D02*
X65910000Y-130280000D01*
D11*
%TO.C,U4*%
X55410000Y-75030000D02*
X55620000Y-75030000D01*
X55410000Y-75740000D02*
X55410000Y-75030000D01*
X55410000Y-78040000D02*
X55410000Y-78750000D01*
X55410000Y-78750000D02*
X55620000Y-78750000D01*
X60125000Y-78040000D02*
X60125000Y-78750000D01*
X60125000Y-78750000D02*
X59915000Y-78750000D01*
X60130000Y-75030000D02*
X59920000Y-75030000D01*
X60130000Y-75740000D02*
X60130000Y-75030000D01*
X60130000Y-76540000D02*
X60130000Y-77240000D01*
X55410000Y-77240000D02*
X55130000Y-77240000D01*
X55410000Y-76960000D01*
X55410000Y-77240000D01*
G36*
X55410000Y-77240000D02*
G01*
X55130000Y-77240000D01*
X55410000Y-76960000D01*
X55410000Y-77240000D01*
G37*
%TO.C,R12*%
X78345000Y-100562936D02*
X78345000Y-101017064D01*
X79815000Y-100562936D02*
X79815000Y-101017064D01*
%TO.C,C9*%
X75935000Y-99968748D02*
X75935000Y-100491252D01*
X77405000Y-99968748D02*
X77405000Y-100491252D01*
%TO.C,R18*%
X84325000Y-59082936D02*
X84325000Y-59537064D01*
X85795000Y-59082936D02*
X85795000Y-59537064D01*
%TO.C,C22*%
X79095000Y-74961252D02*
X79095000Y-74438748D01*
X80565000Y-74961252D02*
X80565000Y-74438748D01*
%TO.C,R3*%
X82215000Y-81830436D02*
X82215000Y-82284564D01*
X83685000Y-81830436D02*
X83685000Y-82284564D01*
%TO.C,R8*%
X62455000Y-108540436D02*
X62455000Y-108994564D01*
X63925000Y-108540436D02*
X63925000Y-108994564D01*
%TO.C,C7*%
X76947500Y-96611252D02*
X76947500Y-96088748D01*
X78417500Y-96611252D02*
X78417500Y-96088748D01*
%TO.C,U6*%
X83450000Y-70130000D02*
X83450000Y-73890000D01*
X83450000Y-73890000D02*
X84710000Y-73890000D01*
X90270000Y-70130000D02*
X90270000Y-73890000D01*
X90270000Y-73890000D02*
X89010000Y-73890000D01*
X90500000Y-69090000D02*
X90170000Y-68850000D01*
X90500000Y-68610000D01*
X90500000Y-69090000D01*
G36*
X90500000Y-69090000D02*
G01*
X90170000Y-68850000D01*
X90500000Y-68610000D01*
X90500000Y-69090000D01*
G37*
%TD*%
%LPC*%
%TO.C,J2*%
G36*
X51520000Y-71425000D02*
G01*
X53400000Y-71425000D01*
X53400000Y-69335000D01*
X51520000Y-69335000D01*
X51520000Y-71425000D01*
G37*
D16*
%TO.C,U1*%
X69620000Y-74100000D02*
X67970000Y-74100000D01*
X67970000Y-73110000D01*
X68630000Y-72450000D01*
X69620000Y-72450000D01*
X69620000Y-74100000D01*
G36*
X69620000Y-74100000D02*
G01*
X67970000Y-74100000D01*
X67970000Y-73110000D01*
X68630000Y-72450000D01*
X69620000Y-72450000D01*
X69620000Y-74100000D01*
G37*
%TO.C,J3*%
G36*
X65520000Y-103755000D02*
G01*
X63640000Y-103755000D01*
X63640000Y-105845000D01*
X65520000Y-105845000D01*
X65520000Y-103755000D01*
G37*
%TO.C,U2*%
X66410000Y-89450000D02*
X66410000Y-91220000D01*
X63110000Y-91220000D01*
X63110000Y-88420000D01*
X65380000Y-88420000D01*
X66410000Y-89450000D01*
G36*
X66410000Y-89450000D02*
G01*
X66410000Y-91220000D01*
X63110000Y-91220000D01*
X63110000Y-88420000D01*
X65380000Y-88420000D01*
X66410000Y-89450000D01*
G37*
%TD*%
D17*
%TO.C,H4*%
X90743300Y-126666700D03*
%TD*%
D18*
%TO.C,D8*%
X87980000Y-60515000D03*
X87980000Y-59675000D03*
%TD*%
D19*
%TO.C,Q2*%
X81395000Y-99970000D03*
X81395000Y-101870000D03*
X83270000Y-100920000D03*
%TD*%
D20*
%TO.C,D12*%
X75010000Y-103392500D03*
X75010000Y-105267500D03*
%TD*%
D21*
%TO.C,R17*%
X67500000Y-109087500D03*
X67500000Y-110912500D03*
%TD*%
%TO.C,R2*%
X53270000Y-60377500D03*
X53270000Y-62202500D03*
%TD*%
D22*
%TO.C,D6*%
X94520000Y-54282500D03*
X94520000Y-55122500D03*
%TD*%
D23*
%TO.C,J2*%
X52460000Y-71960000D03*
D24*
X50985000Y-70435000D03*
X53935000Y-70435000D03*
%TD*%
D25*
%TO.C,C6*%
X75215000Y-97225000D03*
X75215000Y-94275000D03*
%TD*%
D26*
%TO.C,C16*%
X53800000Y-76420000D03*
X53800000Y-78320000D03*
%TD*%
D27*
%TO.C,SW1*%
X50400000Y-65000000D03*
X54600000Y-65000000D03*
%TD*%
D19*
%TO.C,Q3*%
X81037500Y-91450000D03*
X81037500Y-93350000D03*
X82912500Y-92400000D03*
%TD*%
D26*
%TO.C,C18*%
X67870000Y-114010000D03*
X67870000Y-115910000D03*
%TD*%
D20*
%TO.C,D4*%
X85480000Y-97882500D03*
X85480000Y-99757500D03*
%TD*%
D26*
%TO.C,C13*%
X58890000Y-111800000D03*
X58890000Y-113700000D03*
%TD*%
D17*
%TO.C,H1*%
X45676700Y-60566700D03*
%TD*%
D28*
%TO.C,U1*%
X64870000Y-71250000D03*
X64870000Y-72050000D03*
X64870000Y-72850000D03*
X64870000Y-73650000D03*
X64870000Y-74450000D03*
X64870000Y-75250000D03*
X64870000Y-76050000D03*
X64870000Y-76850000D03*
X64870000Y-77650000D03*
X64870000Y-78450000D03*
X64870000Y-79250000D03*
D29*
X65970000Y-80150000D03*
X66770000Y-80150000D03*
X67570000Y-80150000D03*
X68370000Y-80150000D03*
X69170000Y-80150000D03*
X69970000Y-80150000D03*
X70770000Y-80150000D03*
X71570000Y-80150000D03*
X72370000Y-80150000D03*
X73170000Y-80150000D03*
X73970000Y-80150000D03*
X74770000Y-80150000D03*
X75570000Y-80150000D03*
D28*
X76670000Y-79250000D03*
X76670000Y-78450000D03*
X76670000Y-77650000D03*
X76670000Y-76850000D03*
X76670000Y-76050000D03*
X76670000Y-75250000D03*
X76670000Y-74450000D03*
X76670000Y-73650000D03*
X76670000Y-72850000D03*
X76670000Y-72050000D03*
X76670000Y-71250000D03*
D29*
X75570000Y-70350000D03*
X74770000Y-70350000D03*
X73970000Y-70350000D03*
X73170000Y-70350000D03*
X72370000Y-70350000D03*
X71570000Y-70350000D03*
X70770000Y-70350000D03*
X69970000Y-70350000D03*
X69170000Y-70350000D03*
X68370000Y-70350000D03*
X67570000Y-70350000D03*
X66770000Y-70350000D03*
X65970000Y-70350000D03*
D30*
X70770000Y-73275000D03*
X72745000Y-73275000D03*
X72745000Y-75250000D03*
X72745000Y-77225000D03*
X70770000Y-77225000D03*
X68795000Y-77225000D03*
X68795000Y-75250000D03*
X70770000Y-75250000D03*
D31*
X76720000Y-70300000D03*
X76720000Y-80200000D03*
X64820000Y-80200000D03*
X64820000Y-70300000D03*
%TD*%
D32*
%TO.C,R15*%
X80905000Y-95530000D03*
X82730000Y-95530000D03*
%TD*%
D33*
%TO.C,J4*%
X91250000Y-54520000D03*
X85470000Y-54520000D03*
D34*
X91560000Y-55640000D03*
X90760000Y-55640000D03*
D35*
X89610000Y-55640000D03*
X88610000Y-55640000D03*
X88110000Y-55640000D03*
X87110000Y-55640000D03*
D34*
X85960000Y-55640000D03*
X85160000Y-55640000D03*
X85160000Y-55640000D03*
X85960000Y-55640000D03*
D35*
X86610000Y-55640000D03*
X87610000Y-55640000D03*
X89110000Y-55640000D03*
X90110000Y-55640000D03*
D34*
X90760000Y-55640000D03*
X91560000Y-55640000D03*
D36*
X92680000Y-55040000D03*
D37*
X92680000Y-50840000D03*
D36*
X84040000Y-55040000D03*
D37*
X84040000Y-50840000D03*
%TD*%
D32*
%TO.C,R10*%
X80967500Y-97940000D03*
X82792500Y-97940000D03*
%TD*%
D38*
%TO.C,Q1*%
X77990000Y-88740000D03*
X77990000Y-86840000D03*
X76115000Y-87790000D03*
%TD*%
D39*
%TO.C,J6*%
X53250000Y-50200000D03*
D40*
X55750000Y-50200000D03*
%TD*%
D41*
%TO.C,SW2*%
X86300000Y-86107500D03*
X86300000Y-81907500D03*
%TD*%
D26*
%TO.C,C12*%
X56060000Y-111800000D03*
X56060000Y-113700000D03*
%TD*%
D32*
%TO.C,R14*%
X81117500Y-103820000D03*
X82942500Y-103820000D03*
%TD*%
D21*
%TO.C,R19*%
X89710000Y-58397500D03*
X89710000Y-60222500D03*
%TD*%
D32*
%TO.C,R9*%
X78215000Y-82820000D03*
X80040000Y-82820000D03*
%TD*%
D42*
%TO.C,J8*%
X92640000Y-65680000D03*
D43*
X95180000Y-65680000D03*
X92640000Y-68220000D03*
X95180000Y-68220000D03*
X92640000Y-70760000D03*
X95180000Y-70760000D03*
X92640000Y-73300000D03*
X95180000Y-73300000D03*
X92640000Y-75840000D03*
X95180000Y-75840000D03*
X92640000Y-78380000D03*
X95180000Y-78380000D03*
X92640000Y-80920000D03*
X95180000Y-80920000D03*
X92640000Y-83460000D03*
X95180000Y-83460000D03*
X92640000Y-86000000D03*
X95180000Y-86000000D03*
X92640000Y-88540000D03*
X95180000Y-88540000D03*
X92640000Y-91080000D03*
X95180000Y-91080000D03*
X92640000Y-93620000D03*
X95180000Y-93620000D03*
X92640000Y-96160000D03*
X95180000Y-96160000D03*
X92640000Y-98700000D03*
X95180000Y-98700000D03*
X92640000Y-101240000D03*
X95180000Y-101240000D03*
X92640000Y-103780000D03*
X95180000Y-103780000D03*
X92640000Y-106320000D03*
X95180000Y-106320000D03*
X92640000Y-108860000D03*
X95180000Y-108860000D03*
X92640000Y-111400000D03*
X95180000Y-111400000D03*
X92640000Y-113940000D03*
X95180000Y-113940000D03*
X92640000Y-116480000D03*
X95180000Y-116480000D03*
X92640000Y-119020000D03*
X95180000Y-119020000D03*
X92640000Y-121560000D03*
X95180000Y-121560000D03*
%TD*%
D44*
%TO.C,FB1*%
X79797500Y-78010000D03*
X83122500Y-78010000D03*
%TD*%
D26*
%TO.C,C11*%
X57370000Y-102960000D03*
X57370000Y-104860000D03*
%TD*%
D45*
%TO.C,C10*%
X74520000Y-90370000D03*
X72620000Y-90370000D03*
%TD*%
D46*
%TO.C,R1*%
X74120000Y-83952500D03*
X74120000Y-82127500D03*
%TD*%
D32*
%TO.C,R16*%
X68675000Y-105500000D03*
X70500000Y-105500000D03*
%TD*%
D47*
%TO.C,J3*%
X64580000Y-103220000D03*
D48*
X66055000Y-104745000D03*
X63105000Y-104745000D03*
%TD*%
D26*
%TO.C,C19*%
X84450000Y-64320000D03*
X84450000Y-66220000D03*
%TD*%
D21*
%TO.C,R22*%
X72800000Y-103417500D03*
X72800000Y-105242500D03*
%TD*%
%TO.C,R7*%
X60315000Y-107855000D03*
X60315000Y-109680000D03*
%TD*%
D49*
%TO.C,C2*%
X62645000Y-72475000D03*
X62645000Y-70575000D03*
%TD*%
D50*
%TO.C,U2*%
X67410000Y-84870000D03*
X66310000Y-84870000D03*
X65210000Y-84870000D03*
X64110000Y-84870000D03*
X63010000Y-84870000D03*
X61910000Y-84870000D03*
X60810000Y-84870000D03*
X59710000Y-84870000D03*
X58610000Y-84870000D03*
X57510000Y-84870000D03*
X56410000Y-84870000D03*
X55310000Y-84870000D03*
D51*
X52560000Y-88320000D03*
X52560000Y-89420000D03*
X52560000Y-90520000D03*
X52560000Y-91620000D03*
X52560000Y-92720000D03*
X52560000Y-93820000D03*
X52560000Y-94920000D03*
X52560000Y-96020000D03*
X52560000Y-97120000D03*
D50*
X55310000Y-100570000D03*
X56410000Y-100570000D03*
X57510000Y-100570000D03*
X58610000Y-100570000D03*
X59710000Y-100570000D03*
X60810000Y-100570000D03*
X61910000Y-100570000D03*
X63010000Y-100570000D03*
X64110000Y-100570000D03*
X65210000Y-100570000D03*
X66310000Y-100570000D03*
X67410000Y-100570000D03*
D51*
X70160000Y-97120000D03*
X70160000Y-96020000D03*
X70160000Y-94920000D03*
X70160000Y-93820000D03*
X70160000Y-92720000D03*
X70160000Y-91620000D03*
X70160000Y-90520000D03*
X70160000Y-89420000D03*
X70160000Y-88320000D03*
D52*
X66260000Y-87370000D03*
X64860000Y-87370000D03*
X63460000Y-87370000D03*
X62060000Y-87370000D03*
X60660000Y-87370000D03*
X59260000Y-87370000D03*
X57860000Y-87370000D03*
X56460000Y-87370000D03*
D53*
X55060000Y-88520000D03*
X55060000Y-89920000D03*
X55060000Y-91320000D03*
X55060000Y-92720000D03*
X55060000Y-94120000D03*
X55060000Y-95520000D03*
X55060000Y-96920000D03*
D52*
X56460000Y-98070000D03*
X57860000Y-98070000D03*
X59260000Y-98070000D03*
X60660000Y-98070000D03*
X62060000Y-98070000D03*
D53*
X67660000Y-95520000D03*
X67660000Y-94120000D03*
X67660000Y-92720000D03*
X67660000Y-91320000D03*
X67660000Y-89920000D03*
X67660000Y-88520000D03*
D54*
X61360000Y-89820000D03*
X57960000Y-89820000D03*
X57960000Y-92720000D03*
X57960000Y-95620000D03*
X61360000Y-95620000D03*
X64760000Y-95620000D03*
X64760000Y-92720000D03*
X61360000Y-92720000D03*
%TD*%
D49*
%TO.C,C5*%
X72747500Y-97300000D03*
X72747500Y-95400000D03*
%TD*%
D26*
%TO.C,C8*%
X74420000Y-99240000D03*
X74420000Y-101140000D03*
%TD*%
D55*
%TO.C,D2*%
X76450000Y-90230000D03*
X77290000Y-90230000D03*
%TD*%
D32*
%TO.C,R11*%
X80965000Y-89530000D03*
X82790000Y-89530000D03*
%TD*%
D26*
%TO.C,C14*%
X61720000Y-111800000D03*
X61720000Y-113700000D03*
%TD*%
D21*
%TO.C,R5*%
X57440000Y-107855000D03*
X57440000Y-109680000D03*
%TD*%
D17*
%TO.C,H3*%
X48760000Y-126700000D03*
%TD*%
D21*
%TO.C,R13*%
X78777500Y-91427500D03*
X78777500Y-93252500D03*
%TD*%
D32*
%TO.C,R4*%
X50195000Y-110140000D03*
X52020000Y-110140000D03*
%TD*%
D56*
%TO.C,U5*%
X85675000Y-119170000D03*
X85675000Y-117900000D03*
X85675000Y-116630000D03*
X85675000Y-115360000D03*
X85675000Y-114090000D03*
X85675000Y-112820000D03*
X85675000Y-111550000D03*
X85675000Y-110280000D03*
X85675000Y-109010000D03*
X70425000Y-109010000D03*
X70425000Y-110280000D03*
X70425000Y-111550000D03*
X70425000Y-112820000D03*
X70425000Y-114090000D03*
X70425000Y-115360000D03*
X70425000Y-116630000D03*
X70425000Y-117900000D03*
X70425000Y-119170000D03*
D57*
X76780000Y-129810000D03*
X78050000Y-129810000D03*
X79320000Y-129810000D03*
%TD*%
D26*
%TO.C,C20*%
X86740000Y-64320000D03*
X86740000Y-66220000D03*
%TD*%
%TO.C,C4*%
X82930000Y-84827500D03*
X82930000Y-86727500D03*
%TD*%
D49*
%TO.C,C21*%
X81990000Y-75650000D03*
X81990000Y-73750000D03*
%TD*%
D42*
%TO.C,J7*%
X44440000Y-65620000D03*
D43*
X46980000Y-65620000D03*
X44440000Y-68160000D03*
X46980000Y-68160000D03*
X44440000Y-70700000D03*
X46980000Y-70700000D03*
X44440000Y-73240000D03*
X46980000Y-73240000D03*
X44440000Y-75780000D03*
X46980000Y-75780000D03*
X44440000Y-78320000D03*
X46980000Y-78320000D03*
X44440000Y-80860000D03*
X46980000Y-80860000D03*
X44440000Y-83400000D03*
X46980000Y-83400000D03*
X44440000Y-85940000D03*
X46980000Y-85940000D03*
X44440000Y-88480000D03*
X46980000Y-88480000D03*
X44440000Y-91020000D03*
X46980000Y-91020000D03*
X44440000Y-93560000D03*
X46980000Y-93560000D03*
X44440000Y-96100000D03*
X46980000Y-96100000D03*
X44440000Y-98640000D03*
X46980000Y-98640000D03*
X44440000Y-101180000D03*
X46980000Y-101180000D03*
X44440000Y-103720000D03*
X46980000Y-103720000D03*
X44440000Y-106260000D03*
X46980000Y-106260000D03*
X44440000Y-108800000D03*
X46980000Y-108800000D03*
X44440000Y-111340000D03*
X46980000Y-111340000D03*
X44440000Y-113880000D03*
X46980000Y-113880000D03*
X44440000Y-116420000D03*
X46980000Y-116420000D03*
X44440000Y-118960000D03*
X46980000Y-118960000D03*
X44440000Y-121500000D03*
X46980000Y-121500000D03*
%TD*%
D49*
%TO.C,C3*%
X50840000Y-62230000D03*
X50840000Y-60330000D03*
%TD*%
D58*
%TO.C,F1*%
X89300000Y-63032500D03*
X89300000Y-66007500D03*
%TD*%
D59*
%TO.C,J1*%
X60000000Y-64310000D03*
D60*
X58730000Y-64310000D03*
X60000000Y-63040000D03*
X58730000Y-63040000D03*
X60000000Y-61770000D03*
X58730000Y-61770000D03*
X60000000Y-60500000D03*
X58730000Y-60500000D03*
X60000000Y-59230000D03*
X58730000Y-59230000D03*
%TD*%
D32*
%TO.C,R6*%
X76245000Y-84920000D03*
X78070000Y-84920000D03*
%TD*%
D20*
%TO.C,D5*%
X85287500Y-89482500D03*
X85287500Y-91357500D03*
%TD*%
D26*
%TO.C,C15*%
X64550000Y-111800000D03*
X64550000Y-113700000D03*
%TD*%
D18*
%TO.C,D9*%
X86810000Y-60515000D03*
X86810000Y-59675000D03*
%TD*%
D49*
%TO.C,C1*%
X60415000Y-72475000D03*
X60415000Y-70575000D03*
%TD*%
D61*
%TO.C,D3*%
X51712500Y-103680000D03*
X51712500Y-104630000D03*
X51712500Y-105580000D03*
X53987500Y-105580000D03*
X53987500Y-103680000D03*
%TD*%
D22*
%TO.C,D1*%
X53635000Y-109782500D03*
X53635000Y-110622500D03*
%TD*%
D62*
%TO.C,C17*%
X52110000Y-74450000D03*
X54010000Y-74450000D03*
%TD*%
D63*
%TO.C,U3*%
X56390000Y-116250000D03*
X58930000Y-116250000D03*
X61470000Y-116250000D03*
X57660000Y-116250000D03*
X60200000Y-116250000D03*
X62740000Y-116250000D03*
D64*
X53710000Y-120350000D03*
X53710000Y-129150000D03*
X65410000Y-129150000D03*
X65410000Y-120350000D03*
%TD*%
D65*
%TO.C,U4*%
X55620000Y-77640000D03*
D66*
X56020000Y-78540000D03*
X56520000Y-78540000D03*
X57020000Y-78540000D03*
X57520000Y-78540000D03*
X58020000Y-78540000D03*
X58520000Y-78540000D03*
X59020000Y-78540000D03*
X59520000Y-78540000D03*
D65*
X59920000Y-77640000D03*
X59920000Y-76140000D03*
D66*
X59520000Y-75240000D03*
X59020000Y-75240000D03*
X58520000Y-75240000D03*
X58020000Y-75240000D03*
X57520000Y-75240000D03*
X57020000Y-75240000D03*
X56520000Y-75240000D03*
X56020000Y-75240000D03*
D65*
X55620000Y-76140000D03*
D67*
X57770000Y-76890000D03*
%TD*%
D17*
%TO.C,H2*%
X93860000Y-60600000D03*
%TD*%
D21*
%TO.C,R12*%
X79080000Y-99877500D03*
X79080000Y-101702500D03*
%TD*%
D26*
%TO.C,C9*%
X76670000Y-99280000D03*
X76670000Y-101180000D03*
%TD*%
D21*
%TO.C,R18*%
X85060000Y-58397500D03*
X85060000Y-60222500D03*
%TD*%
D49*
%TO.C,C22*%
X79830000Y-75650000D03*
X79830000Y-73750000D03*
%TD*%
D21*
%TO.C,R3*%
X82950000Y-81145000D03*
X82950000Y-82970000D03*
%TD*%
%TO.C,R8*%
X63190000Y-107855000D03*
X63190000Y-109680000D03*
%TD*%
D49*
%TO.C,C7*%
X77682500Y-97300000D03*
X77682500Y-95400000D03*
%TD*%
D68*
%TO.C,U6*%
X89160000Y-68830000D03*
X86860000Y-68830000D03*
D69*
X86860000Y-75130000D03*
D68*
X84560000Y-68830000D03*
%TD*%
%LPD*%
M02*
