%TF.GenerationSoftware,KiCad,Pcbnew,9.0.2*%
%TF.CreationDate,2026-07-22T17:03:05+03:00*%
%TF.ProjectId,a0,61302e6b-6963-4616-945f-706362585858,Rev 0.3*%
%TF.SameCoordinates,Original*%
%TF.FileFunction,Legend,Bot*%
%TF.FilePolarity,Positive*%
%FSLAX46Y46*%
G04 Gerber Fmt 4.6, Leading zero omitted, Abs format (unit mm)*
G04 Created by KiCad (PCBNEW 9.0.2) date 2026-07-22 17:03:05*
%MOMM*%
%LPD*%
G01*
G04 APERTURE LIST*
G04 Aperture macros list*
%AMRoundRect*
0 Rectangle with rounded corners*
0 $1 Rounding radius*
0 $2 $3 $4 $5 $6 $7 $8 $9 X,Y pos of 4 corners*
0 Add a 4 corners polygon primitive as box body*
4,1,4,$2,$3,$4,$5,$6,$7,$8,$9,$2,$3,0*
0 Add four circle primitives for the rounded corners*
1,1,$1+$1,$2,$3*
1,1,$1+$1,$4,$5*
1,1,$1+$1,$6,$7*
1,1,$1+$1,$8,$9*
0 Add four rect primitives between the rounded corners*
20,1,$1+$1,$2,$3,$4,$5,0*
20,1,$1+$1,$4,$5,$6,$7,0*
20,1,$1+$1,$6,$7,$8,$9,0*
20,1,$1+$1,$8,$9,$2,$3,0*%
%AMFreePoly0*
4,1,23,0.550000,-0.750000,0.000000,-0.750000,0.000000,-0.745722,-0.065263,-0.745722,-0.191342,-0.711940,-0.304381,-0.646677,-0.396677,-0.554381,-0.461940,-0.441342,-0.495722,-0.315263,-0.495722,-0.250000,-0.500000,-0.250000,-0.500000,0.250000,-0.495722,0.250000,-0.495722,0.315263,-0.461940,0.441342,-0.396677,0.554381,-0.304381,0.646677,-0.191342,0.711940,-0.065263,0.745722,0.000000,0.745722,
0.000000,0.750000,0.550000,0.750000,0.550000,-0.750000,0.550000,-0.750000,$1*%
%AMFreePoly1*
4,1,23,0.000000,0.745722,0.065263,0.745722,0.191342,0.711940,0.304381,0.646677,0.396677,0.554381,0.461940,0.441342,0.495722,0.315263,0.495722,0.250000,0.500000,0.250000,0.500000,-0.250000,0.495722,-0.250000,0.495722,-0.315263,0.461940,-0.441342,0.396677,-0.554381,0.304381,-0.646677,0.191342,-0.711940,0.065263,-0.745722,0.000000,-0.745722,0.000000,-0.750000,-0.550000,-0.750000,
-0.550000,0.750000,0.000000,0.750000,0.000000,0.745722,0.000000,0.745722,$1*%
G04 Aperture macros list end*
%ADD10C,0.250000*%
%ADD11C,0.000000*%
%ADD12C,0.120000*%
%ADD13C,5.000000*%
%ADD14RoundRect,0.250000X-0.750000X0.600000X-0.750000X-0.600000X0.750000X-0.600000X0.750000X0.600000X0*%
%ADD15O,2.000000X1.700000*%
%ADD16R,1.700000X1.700000*%
%ADD17C,1.700000*%
%ADD18RoundRect,0.250001X1.149999X1.149999X-1.149999X1.149999X-1.149999X-1.149999X1.149999X-1.149999X0*%
%ADD19C,2.800000*%
%ADD20C,0.650000*%
%ADD21O,1.000000X2.100000*%
%ADD22O,1.000000X1.800000*%
%ADD23R,1.000000X1.000000*%
%ADD24C,1.000000*%
%ADD25FreePoly0,180.000000*%
%ADD26R,1.000000X1.500000*%
%ADD27FreePoly1,180.000000*%
G04 APERTURE END LIST*
D10*
G36*
X90348982Y-65891100D02*
G01*
X90348982Y-65733495D01*
X89898904Y-65733495D01*
X89898904Y-64681834D01*
X89927555Y-64722379D01*
X89982430Y-64766063D01*
X90074576Y-64813466D01*
X90171152Y-64847813D01*
X90265426Y-64867881D01*
X90358233Y-64874472D01*
X90358233Y-64713691D01*
X90257087Y-64706085D01*
X90161423Y-64683583D01*
X90070088Y-64646146D01*
X89986211Y-64594415D01*
X89924882Y-64537190D01*
X89882326Y-64474248D01*
X89707387Y-64474248D01*
X89707387Y-65733495D01*
X89345419Y-65733495D01*
X89345419Y-65891100D01*
X90348982Y-65891100D01*
G37*
G36*
X90362355Y-68461500D02*
G01*
X90362355Y-68335472D01*
X90324107Y-68261649D01*
X90272346Y-68184874D01*
X90205276Y-68104624D01*
X90087306Y-67987436D01*
X89916215Y-67840144D01*
X89767972Y-67707989D01*
X89682108Y-67609763D01*
X89640706Y-67541850D01*
X89617936Y-67479843D01*
X89610758Y-67421983D01*
X89619173Y-67348776D01*
X89642663Y-67291133D01*
X89680642Y-67245414D01*
X89730632Y-67212473D01*
X89795825Y-67191191D01*
X89880586Y-67183381D01*
X89955389Y-67191120D01*
X90016852Y-67212925D01*
X90067798Y-67248030D01*
X90107878Y-67295514D01*
X90136395Y-67355978D01*
X90152794Y-67432633D01*
X90347334Y-67414229D01*
X90329713Y-67325536D01*
X90299758Y-67249415D01*
X90257859Y-67183844D01*
X90203444Y-67127421D01*
X90139688Y-67082946D01*
X90065928Y-67050329D01*
X89980328Y-67029830D01*
X89880586Y-67022600D01*
X89769938Y-67029868D01*
X89677969Y-67050136D01*
X89601579Y-67081728D01*
X89538218Y-67123871D01*
X89485091Y-67178817D01*
X89447118Y-67243456D01*
X89423533Y-67319724D01*
X89415211Y-67410492D01*
X89423463Y-67489119D01*
X89448891Y-67569139D01*
X89493522Y-67652084D01*
X89550213Y-67728114D01*
X89626862Y-67809899D01*
X89726987Y-67898159D01*
X89920550Y-68059862D01*
X90019346Y-68150401D01*
X90091061Y-68232799D01*
X90132278Y-68302774D01*
X89392588Y-68302774D01*
X89392588Y-68461500D01*
X90362355Y-68461500D01*
G37*
G36*
X89377201Y-70641952D02*
G01*
X89385999Y-70737815D01*
X89410951Y-70818503D01*
X89451157Y-70887020D01*
X89507444Y-70945390D01*
X89574544Y-70990092D01*
X89655484Y-71023607D01*
X89752978Y-71045114D01*
X89870327Y-71052826D01*
X89981151Y-71045631D01*
X90075182Y-71025382D01*
X90155056Y-70993528D01*
X90222953Y-70950715D01*
X90280935Y-70895009D01*
X90326182Y-70827369D01*
X90359155Y-70745830D01*
X90379116Y-70647558D01*
X90182653Y-70629247D01*
X90162705Y-70712018D01*
X90130766Y-70775775D01*
X90087522Y-70824348D01*
X90031813Y-70859917D01*
X89960805Y-70882721D01*
X89870327Y-70891018D01*
X89780038Y-70882905D01*
X89709083Y-70860615D01*
X89653348Y-70825902D01*
X89610668Y-70777322D01*
X89584315Y-70715321D01*
X89574855Y-70635693D01*
X89580176Y-70585911D01*
X89595532Y-70542908D01*
X89620925Y-70505181D01*
X89673753Y-70459179D01*
X89746313Y-70423530D01*
X89828736Y-70402384D01*
X89924641Y-70394942D01*
X90032169Y-70394942D01*
X90032169Y-70225847D01*
X89928763Y-70225847D01*
X89843743Y-70218234D01*
X89768478Y-70196232D01*
X89702449Y-70159798D01*
X89654264Y-70112992D01*
X89623329Y-70055020D01*
X89612773Y-69986124D01*
X89620816Y-69916182D01*
X89643400Y-69860309D01*
X89680093Y-69815253D01*
X89728516Y-69782857D01*
X89793654Y-69761655D01*
X89880586Y-69753781D01*
X89959016Y-69761396D01*
X90023189Y-69782753D01*
X90076041Y-69816841D01*
X90117915Y-69863572D01*
X90147022Y-69922808D01*
X90163053Y-69997708D01*
X90354478Y-69982574D01*
X90336497Y-69892426D01*
X90305639Y-69815865D01*
X90262336Y-69750635D01*
X90205917Y-69695205D01*
X90140039Y-69651762D01*
X90064691Y-69619941D01*
X89978195Y-69600004D01*
X89878479Y-69593000D01*
X89768215Y-69600112D01*
X89676825Y-69619912D01*
X89601175Y-69650701D01*
X89538676Y-69691655D01*
X89485910Y-69745306D01*
X89448453Y-69807664D01*
X89425341Y-69880460D01*
X89417226Y-69966318D01*
X89426414Y-70046851D01*
X89453397Y-70118932D01*
X89498926Y-70184741D01*
X89558333Y-70238480D01*
X89631067Y-70279137D01*
X89719752Y-70306564D01*
X89719752Y-70305537D01*
X89621413Y-70326657D01*
X89539806Y-70363980D01*
X89471906Y-70417083D01*
X89418839Y-70484563D01*
X89387748Y-70558664D01*
X89377201Y-70641952D01*
G37*
G36*
X90404395Y-73118276D02*
G01*
X90404395Y-73268686D01*
X89733765Y-73268686D01*
X89733765Y-73602300D01*
X89543347Y-73602300D01*
X89543347Y-73268686D01*
X89350548Y-73268686D01*
X89350548Y-73114165D01*
X89543347Y-73114165D01*
X89733765Y-73114165D01*
X90237791Y-73114165D01*
X89733765Y-72401629D01*
X89733765Y-73114165D01*
X89543347Y-73114165D01*
X89543347Y-72185448D01*
X89751809Y-72185448D01*
X90404395Y-73118276D01*
G37*
G36*
X89377201Y-75705305D02*
G01*
X89384323Y-75801083D01*
X89404844Y-75886060D01*
X89438109Y-75962031D01*
X89484648Y-76029785D01*
X89543510Y-76086543D01*
X89616162Y-76133088D01*
X89696242Y-76165886D01*
X89787780Y-76186421D01*
X89892859Y-76193626D01*
X89994925Y-76187268D01*
X90082165Y-76169331D01*
X90156816Y-76141072D01*
X90220755Y-76103099D01*
X90276692Y-76053418D01*
X90321513Y-75993645D01*
X90355813Y-75922394D01*
X90379299Y-75837592D01*
X90186958Y-75814983D01*
X90155563Y-75895192D01*
X90111598Y-75954667D01*
X90054604Y-75997225D01*
X89981849Y-76024129D01*
X89888737Y-76033873D01*
X89796688Y-76023507D01*
X89721752Y-75994282D01*
X89660126Y-75946896D01*
X89613860Y-75883949D01*
X89585116Y-75806230D01*
X89574855Y-75709509D01*
X89584592Y-75627627D01*
X89612586Y-75558592D01*
X89659118Y-75499401D01*
X89719651Y-75454966D01*
X89793571Y-75427381D01*
X89884616Y-75417562D01*
X89957147Y-75423667D01*
X90023101Y-75441479D01*
X90085436Y-75472592D01*
X90152245Y-75523224D01*
X90336892Y-75523224D01*
X90288349Y-74755848D01*
X89461282Y-74755848D01*
X89461282Y-74913452D01*
X90112586Y-74913452D01*
X90141712Y-75348523D01*
X90060401Y-75299395D01*
X89963356Y-75268697D01*
X89846697Y-75257809D01*
X89742600Y-75266205D01*
X89652806Y-75290131D01*
X89574835Y-75328546D01*
X89506803Y-75381594D01*
X89450527Y-75447588D01*
X89410448Y-75522270D01*
X89385793Y-75607363D01*
X89377201Y-75705305D01*
G37*
G36*
X89932471Y-77312632D02*
G01*
X90017474Y-77336871D01*
X90092642Y-77376257D01*
X90159585Y-77431379D01*
X90219198Y-77504032D01*
X90274908Y-77605420D01*
X90317481Y-77730111D01*
X90345187Y-77882730D01*
X90355211Y-78068680D01*
X90345608Y-78237702D01*
X90319031Y-78376524D01*
X90278077Y-78490119D01*
X90224235Y-78582692D01*
X90167506Y-78647822D01*
X90103021Y-78697776D01*
X90029770Y-78733831D01*
X89946095Y-78756202D01*
X89849811Y-78764026D01*
X89741722Y-78754870D01*
X89650229Y-78728949D01*
X89572300Y-78687516D01*
X89505703Y-78630338D01*
X89452106Y-78559955D01*
X89413192Y-78478562D01*
X89388876Y-78384053D01*
X89380960Y-78281964D01*
X89573847Y-78281964D01*
X89583207Y-78379494D01*
X89609207Y-78457264D01*
X89650417Y-78519539D01*
X89706409Y-78567265D01*
X89773773Y-78596234D01*
X89855948Y-78606422D01*
X89917343Y-78599730D01*
X89971772Y-78580233D01*
X90020833Y-78547753D01*
X90065508Y-78500761D01*
X90110112Y-78426327D01*
X90137636Y-78339458D01*
X90147299Y-78237028D01*
X90137640Y-78162864D01*
X90109289Y-78097921D01*
X90064382Y-78043463D01*
X90004325Y-78001789D01*
X89935242Y-77975724D01*
X89862084Y-77967036D01*
X89776874Y-77976898D01*
X89707908Y-78004683D01*
X89651516Y-78049808D01*
X89609781Y-78109566D01*
X89583392Y-78185413D01*
X89573847Y-78281964D01*
X89380960Y-78281964D01*
X89380315Y-78273649D01*
X89388470Y-78170625D01*
X89411651Y-78082397D01*
X89448811Y-78006345D01*
X89500116Y-77940503D01*
X89563647Y-77886751D01*
X89636491Y-77848087D01*
X89720460Y-77824100D01*
X89818029Y-77815690D01*
X89895865Y-77821518D01*
X89965649Y-77838371D01*
X90028688Y-77865765D01*
X90085709Y-77903786D01*
X90130971Y-77948803D01*
X90165800Y-78001322D01*
X90159473Y-77873950D01*
X90141891Y-77767891D01*
X90114770Y-77679931D01*
X90079247Y-77607264D01*
X90030093Y-77542476D01*
X89974424Y-77498360D01*
X89911026Y-77472012D01*
X89837446Y-77462926D01*
X89768066Y-77470592D01*
X89712098Y-77492103D01*
X89666554Y-77526786D01*
X89629760Y-77576081D01*
X89601599Y-77643325D01*
X89419516Y-77609693D01*
X89456376Y-77513886D01*
X89504958Y-77439103D01*
X89565140Y-77381813D01*
X89638294Y-77340057D01*
X89727130Y-77313647D01*
X89835431Y-77304200D01*
X89932471Y-77312632D01*
G37*
G36*
X89407976Y-80045938D02*
G01*
X89549560Y-80267488D01*
X89662750Y-80473259D01*
X89750443Y-80664633D01*
X89815237Y-80842985D01*
X89859397Y-81009682D01*
X89884830Y-81166078D01*
X89893042Y-81313500D01*
X90091612Y-81313500D01*
X90084331Y-81177096D01*
X90061827Y-81032781D01*
X90022856Y-80879448D01*
X89965857Y-80715967D01*
X89872651Y-80508463D01*
X89750179Y-80288361D01*
X89595096Y-80054252D01*
X90347975Y-80054252D01*
X90347975Y-79896648D01*
X89407976Y-79896648D01*
X89407976Y-80045938D01*
G37*
G36*
X89970626Y-82450464D02*
G01*
X90049892Y-82466153D01*
X90120737Y-82491338D01*
X90186373Y-82527368D01*
X90239749Y-82570889D01*
X90282396Y-82622130D01*
X90314356Y-82680621D01*
X90333385Y-82742790D01*
X90339823Y-82809910D01*
X90331908Y-82886234D01*
X90308613Y-82955661D01*
X90269481Y-83019925D01*
X90217712Y-83074012D01*
X90156917Y-83113629D01*
X90086475Y-83139235D01*
X90164400Y-83161824D01*
X90232594Y-83200588D01*
X90291921Y-83256098D01*
X90337042Y-83323731D01*
X90364234Y-83400086D01*
X90373620Y-83487693D01*
X90364790Y-83583427D01*
X90339654Y-83664672D01*
X90298998Y-83734292D01*
X90241912Y-83794214D01*
X90173859Y-83840404D01*
X90092282Y-83874889D01*
X89994559Y-83896939D01*
X89877472Y-83904826D01*
X89757517Y-83896695D01*
X89658762Y-83874098D01*
X89577553Y-83838974D01*
X89510924Y-83792158D01*
X89455171Y-83731407D01*
X89415450Y-83661417D01*
X89390925Y-83580355D01*
X89382330Y-83485544D01*
X89384171Y-83467794D01*
X89579984Y-83467794D01*
X89589256Y-83563108D01*
X89614288Y-83634009D01*
X89652982Y-83686404D01*
X89705964Y-83723957D01*
X89778107Y-83748532D01*
X89875457Y-83757685D01*
X89971946Y-83748473D01*
X90045171Y-83723469D01*
X90100496Y-83684815D01*
X90141635Y-83631315D01*
X90167621Y-83561982D01*
X90177066Y-83471998D01*
X90167935Y-83396920D01*
X90141813Y-83334644D01*
X90098481Y-83282163D01*
X90042184Y-83243597D01*
X89971242Y-83219154D01*
X89881593Y-83210320D01*
X89787973Y-83218696D01*
X89715302Y-83241583D01*
X89659027Y-83277024D01*
X89615920Y-83326524D01*
X89589439Y-83388794D01*
X89579984Y-83467794D01*
X89384171Y-83467794D01*
X89391707Y-83395150D01*
X89418560Y-83318262D01*
X89462564Y-83251987D01*
X89521061Y-83198194D01*
X89590937Y-83159922D01*
X89673347Y-83137233D01*
X89603184Y-83114590D01*
X89542122Y-83076712D01*
X89489675Y-83023008D01*
X89449944Y-82958654D01*
X89426282Y-82888904D01*
X89419329Y-82822429D01*
X89615887Y-82822429D01*
X89623783Y-82898550D01*
X89645391Y-82956571D01*
X89679420Y-83000790D01*
X89727112Y-83033616D01*
X89792019Y-83055154D01*
X89879487Y-83063179D01*
X89961416Y-83055355D01*
X90025442Y-83033851D01*
X90075491Y-83000212D01*
X90113445Y-82953875D01*
X90136898Y-82895798D01*
X90145284Y-82822429D01*
X90136876Y-82749960D01*
X90113539Y-82693800D01*
X90075949Y-82650063D01*
X90026574Y-82618745D01*
X89963089Y-82598574D01*
X89881593Y-82591207D01*
X89797228Y-82598621D01*
X89732933Y-82618704D01*
X89684214Y-82649503D01*
X89647287Y-82692902D01*
X89624231Y-82749192D01*
X89615887Y-82822429D01*
X89419329Y-82822429D01*
X89418234Y-82811965D01*
X89424594Y-82742738D01*
X89443205Y-82679920D01*
X89474105Y-82622130D01*
X89515792Y-82571615D01*
X89568913Y-82528258D01*
X89635213Y-82491898D01*
X89706780Y-82466539D01*
X89788363Y-82450597D01*
X89881593Y-82445000D01*
X89970626Y-82450464D01*
G37*
G36*
X89993065Y-85024379D02*
G01*
X90087359Y-85049752D01*
X90167525Y-85090142D01*
X90235867Y-85145538D01*
X90291271Y-85214393D01*
X90331425Y-85294570D01*
X90356524Y-85388278D01*
X90365377Y-85498490D01*
X90357351Y-85605324D01*
X90334473Y-85697710D01*
X90297776Y-85778092D01*
X90247225Y-85848359D01*
X90183840Y-85906696D01*
X90111768Y-85948182D01*
X90029283Y-85973703D01*
X89933892Y-85982607D01*
X89855568Y-85976118D01*
X89782640Y-85957002D01*
X89713982Y-85925246D01*
X89651684Y-85882026D01*
X89607360Y-85835681D01*
X89577969Y-85785859D01*
X89585248Y-85908755D01*
X89603610Y-86012409D01*
X89631546Y-86099618D01*
X89668094Y-86172816D01*
X89717965Y-86237806D01*
X89774286Y-86282077D01*
X89838274Y-86308511D01*
X89912368Y-86317622D01*
X89983776Y-86309759D01*
X90041285Y-86287719D01*
X90087990Y-86252219D01*
X90125634Y-86201816D01*
X90154351Y-86133112D01*
X90336434Y-86162260D01*
X90297425Y-86267970D01*
X90247881Y-86346074D01*
X90188423Y-86401983D01*
X90116441Y-86441061D01*
X90026866Y-86466149D01*
X89915390Y-86475226D01*
X89816476Y-86466803D01*
X89730094Y-86442633D01*
X89653992Y-86403469D01*
X89586504Y-86348837D01*
X89526678Y-86277076D01*
X89470472Y-86176314D01*
X89427566Y-86052426D01*
X89399660Y-85900811D01*
X89389566Y-85716072D01*
X89398753Y-85549779D01*
X89596379Y-85549779D01*
X89606409Y-85625950D01*
X89635946Y-85693090D01*
X89682410Y-85749411D01*
X89744023Y-85792398D01*
X89814742Y-85819161D01*
X89889745Y-85828086D01*
X89972249Y-85817512D01*
X90039764Y-85787398D01*
X90095825Y-85737559D01*
X90136994Y-85673110D01*
X90162751Y-85594654D01*
X90171937Y-85498490D01*
X90162828Y-85405174D01*
X90137145Y-85328211D01*
X90095825Y-85264185D01*
X90039750Y-85214735D01*
X89971615Y-85184710D01*
X89887730Y-85174126D01*
X89825663Y-85180772D01*
X89770943Y-85200081D01*
X89721933Y-85232121D01*
X89677620Y-85278292D01*
X89633762Y-85351797D01*
X89606210Y-85440968D01*
X89596379Y-85549779D01*
X89398753Y-85549779D01*
X89400035Y-85526571D01*
X89428467Y-85377439D01*
X89471305Y-85261304D01*
X89526383Y-85171947D01*
X89593124Y-85104597D01*
X89672613Y-85056277D01*
X89767475Y-85026105D01*
X89881593Y-85015400D01*
X89993065Y-85024379D01*
G37*
G36*
X90348982Y-89024700D02*
G01*
X90348982Y-88867095D01*
X89898904Y-88867095D01*
X89898904Y-87815434D01*
X89927555Y-87855979D01*
X89982430Y-87899663D01*
X90074576Y-87947066D01*
X90171152Y-87981413D01*
X90265426Y-88001481D01*
X90358233Y-88008072D01*
X90358233Y-87847291D01*
X90257087Y-87839685D01*
X90161423Y-87817183D01*
X90070088Y-87779746D01*
X89986211Y-87728015D01*
X89924882Y-87670790D01*
X89882326Y-87607848D01*
X89707387Y-87607848D01*
X89707387Y-88867095D01*
X89345419Y-88867095D01*
X89345419Y-89024700D01*
X90348982Y-89024700D01*
G37*
G36*
X88742567Y-88444263D02*
G01*
X88495729Y-88444263D01*
X88495729Y-88177821D01*
X88742567Y-88177821D01*
X88742567Y-88444263D01*
G37*
G36*
X88720846Y-87593994D02*
G01*
X88809523Y-87617080D01*
X88884471Y-87653664D01*
X88947931Y-87703557D01*
X89001311Y-87767788D01*
X89050608Y-87859654D01*
X89089101Y-87977570D01*
X89114653Y-88127346D01*
X89124043Y-88315713D01*
X89114605Y-88498341D01*
X89088714Y-88645989D01*
X89049311Y-88764517D01*
X88998289Y-88858967D01*
X88943340Y-88925784D01*
X88879700Y-88977106D01*
X88806249Y-89014282D01*
X88721103Y-89037471D01*
X88621758Y-89045626D01*
X88522485Y-89037463D01*
X88437061Y-89014212D01*
X88363046Y-88976867D01*
X88298610Y-88925233D01*
X88242663Y-88857940D01*
X88190424Y-88762744D01*
X88150236Y-88644015D01*
X88123915Y-88496893D01*
X88114344Y-88315713D01*
X88307784Y-88315713D01*
X88313719Y-88466736D01*
X88329716Y-88585090D01*
X88353429Y-88676447D01*
X88383072Y-88745832D01*
X88426708Y-88807768D01*
X88479376Y-88850575D01*
X88542645Y-88876680D01*
X88619651Y-88885873D01*
X88697501Y-88876822D01*
X88761083Y-88851222D01*
X88813615Y-88809486D01*
X88856781Y-88749476D01*
X88885934Y-88682007D01*
X88909489Y-88591155D01*
X88925526Y-88471212D01*
X88931519Y-88315713D01*
X88925501Y-88155163D01*
X88909514Y-88033336D01*
X88886258Y-87942868D01*
X88857788Y-87877280D01*
X88815293Y-87819502D01*
X88762346Y-87778816D01*
X88696949Y-87753546D01*
X88615530Y-87744526D01*
X88536508Y-87753567D01*
X88472874Y-87778967D01*
X88421154Y-87820083D01*
X88379500Y-87878868D01*
X88351741Y-87945125D01*
X88329116Y-88035765D01*
X88313608Y-88156964D01*
X88307784Y-88315713D01*
X88114344Y-88315713D01*
X88123643Y-88129189D01*
X88149010Y-87980098D01*
X88187327Y-87862011D01*
X88236526Y-87769376D01*
X88289849Y-87704213D01*
X88352731Y-87653838D01*
X88426458Y-87617076D01*
X88513135Y-87593975D01*
X88615530Y-87585800D01*
X88720846Y-87593994D01*
G37*
G36*
X90348982Y-91595100D02*
G01*
X90348982Y-91437495D01*
X89898904Y-91437495D01*
X89898904Y-90385834D01*
X89927555Y-90426379D01*
X89982430Y-90470063D01*
X90074576Y-90517466D01*
X90171152Y-90551813D01*
X90265426Y-90571881D01*
X90358233Y-90578472D01*
X90358233Y-90417691D01*
X90257087Y-90410085D01*
X90161423Y-90387583D01*
X90070088Y-90350146D01*
X89986211Y-90298415D01*
X89924882Y-90241190D01*
X89882326Y-90178248D01*
X89707387Y-90178248D01*
X89707387Y-91437495D01*
X89345419Y-91437495D01*
X89345419Y-91595100D01*
X90348982Y-91595100D01*
G37*
G36*
X89090155Y-91595100D02*
G01*
X89090155Y-91437495D01*
X88640076Y-91437495D01*
X88640076Y-90385834D01*
X88668727Y-90426379D01*
X88723602Y-90470063D01*
X88815748Y-90517466D01*
X88912324Y-90551813D01*
X89006599Y-90571881D01*
X89099405Y-90578472D01*
X89099405Y-90417691D01*
X88998260Y-90410085D01*
X88902595Y-90387583D01*
X88811260Y-90350146D01*
X88727383Y-90298415D01*
X88666054Y-90241190D01*
X88623498Y-90178248D01*
X88448559Y-90178248D01*
X88448559Y-91437495D01*
X88086591Y-91437495D01*
X88086591Y-91595100D01*
X89090155Y-91595100D01*
G37*
G36*
X90348982Y-94165500D02*
G01*
X90348982Y-94007895D01*
X89898904Y-94007895D01*
X89898904Y-92956234D01*
X89927555Y-92996779D01*
X89982430Y-93040463D01*
X90074576Y-93087866D01*
X90171152Y-93122213D01*
X90265426Y-93142281D01*
X90358233Y-93148872D01*
X90358233Y-92988091D01*
X90257087Y-92980485D01*
X90161423Y-92957983D01*
X90070088Y-92920546D01*
X89986211Y-92868815D01*
X89924882Y-92811590D01*
X89882326Y-92748648D01*
X89707387Y-92748648D01*
X89707387Y-94007895D01*
X89345419Y-94007895D01*
X89345419Y-94165500D01*
X90348982Y-94165500D01*
G37*
G36*
X89103527Y-94165500D02*
G01*
X89103527Y-94039472D01*
X89065279Y-93965649D01*
X89013519Y-93888874D01*
X88946448Y-93808624D01*
X88828478Y-93691436D01*
X88657387Y-93544144D01*
X88509145Y-93411989D01*
X88423280Y-93313763D01*
X88381879Y-93245850D01*
X88359109Y-93183843D01*
X88351931Y-93125983D01*
X88360345Y-93052776D01*
X88383835Y-92995133D01*
X88421815Y-92949414D01*
X88471804Y-92916473D01*
X88536997Y-92895191D01*
X88621758Y-92887381D01*
X88696562Y-92895120D01*
X88758025Y-92916925D01*
X88808970Y-92952030D01*
X88849051Y-92999514D01*
X88877567Y-93059978D01*
X88893967Y-93136633D01*
X89088506Y-93118229D01*
X89070885Y-93029536D01*
X89040930Y-92953415D01*
X88999031Y-92887844D01*
X88944617Y-92831421D01*
X88880861Y-92786946D01*
X88807101Y-92754329D01*
X88721500Y-92733830D01*
X88621758Y-92726600D01*
X88511110Y-92733868D01*
X88419142Y-92754136D01*
X88342752Y-92785728D01*
X88279391Y-92827871D01*
X88226264Y-92882817D01*
X88188290Y-92947456D01*
X88164706Y-93023724D01*
X88156384Y-93114492D01*
X88164635Y-93193119D01*
X88190063Y-93273139D01*
X88234694Y-93356084D01*
X88291385Y-93432114D01*
X88368034Y-93513899D01*
X88468160Y-93602159D01*
X88661723Y-93763862D01*
X88760519Y-93854401D01*
X88832234Y-93936799D01*
X88873450Y-94006774D01*
X88133761Y-94006774D01*
X88133761Y-94165500D01*
X89103527Y-94165500D01*
G37*
G36*
X90348982Y-96735900D02*
G01*
X90348982Y-96578295D01*
X89898904Y-96578295D01*
X89898904Y-95526634D01*
X89927555Y-95567179D01*
X89982430Y-95610863D01*
X90074576Y-95658266D01*
X90171152Y-95692613D01*
X90265426Y-95712681D01*
X90358233Y-95719272D01*
X90358233Y-95558491D01*
X90257087Y-95550885D01*
X90161423Y-95528383D01*
X90070088Y-95490946D01*
X89986211Y-95439215D01*
X89924882Y-95381990D01*
X89882326Y-95319048D01*
X89707387Y-95319048D01*
X89707387Y-96578295D01*
X89345419Y-96578295D01*
X89345419Y-96735900D01*
X90348982Y-96735900D01*
G37*
G36*
X88118374Y-96345952D02*
G01*
X88127171Y-96441815D01*
X88152123Y-96522503D01*
X88192330Y-96591020D01*
X88248616Y-96649390D01*
X88315716Y-96694092D01*
X88396656Y-96727607D01*
X88494151Y-96749114D01*
X88611500Y-96756826D01*
X88722323Y-96749631D01*
X88816354Y-96729382D01*
X88896228Y-96697528D01*
X88964125Y-96654715D01*
X89022108Y-96599009D01*
X89067355Y-96531369D01*
X89100327Y-96449830D01*
X89120288Y-96351558D01*
X88923825Y-96333247D01*
X88903878Y-96416018D01*
X88871939Y-96479775D01*
X88828694Y-96528348D01*
X88772986Y-96563917D01*
X88701977Y-96586721D01*
X88611500Y-96595018D01*
X88521211Y-96586905D01*
X88450255Y-96564615D01*
X88394521Y-96529902D01*
X88351841Y-96481322D01*
X88325488Y-96419321D01*
X88316027Y-96339693D01*
X88321348Y-96289911D01*
X88336704Y-96246908D01*
X88362097Y-96209181D01*
X88414925Y-96163179D01*
X88487486Y-96127530D01*
X88569909Y-96106384D01*
X88665813Y-96098942D01*
X88773341Y-96098942D01*
X88773341Y-95929847D01*
X88669935Y-95929847D01*
X88584915Y-95922234D01*
X88509651Y-95900232D01*
X88443621Y-95863798D01*
X88395437Y-95816992D01*
X88364502Y-95759020D01*
X88353946Y-95690124D01*
X88361988Y-95620182D01*
X88384572Y-95564309D01*
X88421265Y-95519253D01*
X88469688Y-95486857D01*
X88534826Y-95465655D01*
X88621758Y-95457781D01*
X88700189Y-95465396D01*
X88764362Y-95486753D01*
X88817213Y-95520841D01*
X88859088Y-95567572D01*
X88888194Y-95626808D01*
X88904225Y-95701708D01*
X89095650Y-95686574D01*
X89077669Y-95596426D01*
X89046811Y-95519865D01*
X89003508Y-95454635D01*
X88947090Y-95399205D01*
X88881211Y-95355762D01*
X88805863Y-95323941D01*
X88719367Y-95304004D01*
X88619651Y-95297000D01*
X88509388Y-95304112D01*
X88417997Y-95323912D01*
X88342347Y-95354701D01*
X88279849Y-95395655D01*
X88227083Y-95449306D01*
X88189625Y-95511664D01*
X88166513Y-95584460D01*
X88158399Y-95670318D01*
X88167586Y-95750851D01*
X88194569Y-95822932D01*
X88240098Y-95888741D01*
X88299505Y-95942480D01*
X88372239Y-95983137D01*
X88460924Y-96010564D01*
X88460924Y-96009537D01*
X88362585Y-96030657D01*
X88280978Y-96067980D01*
X88213079Y-96121083D01*
X88160011Y-96188563D01*
X88128920Y-96262664D01*
X88118374Y-96345952D01*
G37*
G36*
X90348982Y-99306300D02*
G01*
X90348982Y-99148695D01*
X89898904Y-99148695D01*
X89898904Y-98097034D01*
X89927555Y-98137579D01*
X89982430Y-98181263D01*
X90074576Y-98228666D01*
X90171152Y-98263013D01*
X90265426Y-98283081D01*
X90358233Y-98289672D01*
X90358233Y-98128891D01*
X90257087Y-98121285D01*
X90161423Y-98098783D01*
X90070088Y-98061346D01*
X89986211Y-98009615D01*
X89924882Y-97952390D01*
X89882326Y-97889448D01*
X89707387Y-97889448D01*
X89707387Y-99148695D01*
X89345419Y-99148695D01*
X89345419Y-99306300D01*
X90348982Y-99306300D01*
G37*
G36*
X89145567Y-98822276D02*
G01*
X89145567Y-98972686D01*
X88474938Y-98972686D01*
X88474938Y-99306300D01*
X88284520Y-99306300D01*
X88284520Y-98972686D01*
X88091721Y-98972686D01*
X88091721Y-98818165D01*
X88284520Y-98818165D01*
X88474938Y-98818165D01*
X88978963Y-98818165D01*
X88474938Y-98105629D01*
X88474938Y-98818165D01*
X88284520Y-98818165D01*
X88284520Y-97889448D01*
X88492981Y-97889448D01*
X89145567Y-98822276D01*
G37*
G36*
X90348982Y-101876700D02*
G01*
X90348982Y-101719095D01*
X89898904Y-101719095D01*
X89898904Y-100667434D01*
X89927555Y-100707979D01*
X89982430Y-100751663D01*
X90074576Y-100799066D01*
X90171152Y-100833413D01*
X90265426Y-100853481D01*
X90358233Y-100860072D01*
X90358233Y-100699291D01*
X90257087Y-100691685D01*
X90161423Y-100669183D01*
X90070088Y-100631746D01*
X89986211Y-100580015D01*
X89924882Y-100522790D01*
X89882326Y-100459848D01*
X89707387Y-100459848D01*
X89707387Y-101719095D01*
X89345419Y-101719095D01*
X89345419Y-101876700D01*
X90348982Y-101876700D01*
G37*
G36*
X88118374Y-101409305D02*
G01*
X88125496Y-101505083D01*
X88146016Y-101590060D01*
X88179282Y-101666031D01*
X88225820Y-101733785D01*
X88284682Y-101790543D01*
X88357335Y-101837088D01*
X88437415Y-101869886D01*
X88528952Y-101890421D01*
X88634031Y-101897626D01*
X88736097Y-101891268D01*
X88823337Y-101873331D01*
X88897988Y-101845072D01*
X88961927Y-101807099D01*
X89017864Y-101757418D01*
X89062685Y-101697645D01*
X89096985Y-101626394D01*
X89120471Y-101541592D01*
X88928130Y-101518983D01*
X88896735Y-101599192D01*
X88852770Y-101658667D01*
X88795776Y-101701225D01*
X88723021Y-101728129D01*
X88629910Y-101737873D01*
X88537860Y-101727507D01*
X88462925Y-101698282D01*
X88401298Y-101650896D01*
X88355033Y-101587949D01*
X88326289Y-101510230D01*
X88316027Y-101413509D01*
X88325764Y-101331627D01*
X88353758Y-101262592D01*
X88400291Y-101203401D01*
X88460824Y-101158966D01*
X88534743Y-101131381D01*
X88625788Y-101121562D01*
X88698319Y-101127667D01*
X88764274Y-101145479D01*
X88826608Y-101176592D01*
X88893417Y-101227224D01*
X89078065Y-101227224D01*
X89029521Y-100459848D01*
X88202454Y-100459848D01*
X88202454Y-100617452D01*
X88853758Y-100617452D01*
X88882884Y-101052523D01*
X88801574Y-101003395D01*
X88704529Y-100972697D01*
X88587869Y-100961809D01*
X88483773Y-100970205D01*
X88393979Y-100994131D01*
X88316008Y-101032546D01*
X88247975Y-101085594D01*
X88191699Y-101151588D01*
X88151621Y-101226270D01*
X88126966Y-101311363D01*
X88118374Y-101409305D01*
G37*
G36*
X90348982Y-104447100D02*
G01*
X90348982Y-104289495D01*
X89898904Y-104289495D01*
X89898904Y-103237834D01*
X89927555Y-103278379D01*
X89982430Y-103322063D01*
X90074576Y-103369466D01*
X90171152Y-103403813D01*
X90265426Y-103423881D01*
X90358233Y-103430472D01*
X90358233Y-103269691D01*
X90257087Y-103262085D01*
X90161423Y-103239583D01*
X90070088Y-103202146D01*
X89986211Y-103150415D01*
X89924882Y-103093190D01*
X89882326Y-103030248D01*
X89707387Y-103030248D01*
X89707387Y-104289495D01*
X89345419Y-104289495D01*
X89345419Y-104447100D01*
X90348982Y-104447100D01*
G37*
G36*
X88673643Y-103016632D02*
G01*
X88758646Y-103040871D01*
X88833814Y-103080257D01*
X88900757Y-103135379D01*
X88960370Y-103208032D01*
X89016080Y-103309420D01*
X89058653Y-103434111D01*
X89086360Y-103586730D01*
X89096383Y-103772680D01*
X89086781Y-103941702D01*
X89060203Y-104080524D01*
X89019249Y-104194119D01*
X88965408Y-104286692D01*
X88908678Y-104351822D01*
X88844193Y-104401776D01*
X88770942Y-104437831D01*
X88687267Y-104460202D01*
X88590983Y-104468026D01*
X88482894Y-104458870D01*
X88391401Y-104432949D01*
X88313472Y-104391516D01*
X88246876Y-104334338D01*
X88193278Y-104263955D01*
X88154364Y-104182562D01*
X88130048Y-104088053D01*
X88122133Y-103985964D01*
X88315020Y-103985964D01*
X88324380Y-104083494D01*
X88350380Y-104161264D01*
X88391590Y-104223539D01*
X88447581Y-104271265D01*
X88514945Y-104300234D01*
X88597120Y-104310422D01*
X88658515Y-104303730D01*
X88712944Y-104284233D01*
X88762006Y-104251753D01*
X88806680Y-104204761D01*
X88851285Y-104130327D01*
X88878808Y-104043458D01*
X88888471Y-103941028D01*
X88878812Y-103866864D01*
X88850461Y-103801921D01*
X88805554Y-103747463D01*
X88745498Y-103705789D01*
X88676414Y-103679724D01*
X88603257Y-103671036D01*
X88518046Y-103680898D01*
X88449081Y-103708683D01*
X88392689Y-103753808D01*
X88350953Y-103813566D01*
X88324565Y-103889413D01*
X88315020Y-103985964D01*
X88122133Y-103985964D01*
X88121488Y-103977649D01*
X88129643Y-103874625D01*
X88152824Y-103786397D01*
X88189983Y-103710345D01*
X88241289Y-103644503D01*
X88304819Y-103590751D01*
X88377663Y-103552087D01*
X88461632Y-103528100D01*
X88559201Y-103519690D01*
X88637037Y-103525518D01*
X88706821Y-103542371D01*
X88769861Y-103569765D01*
X88826882Y-103607786D01*
X88872143Y-103652803D01*
X88906973Y-103705322D01*
X88900645Y-103577950D01*
X88883064Y-103471891D01*
X88855943Y-103383931D01*
X88820419Y-103311264D01*
X88771266Y-103246476D01*
X88715596Y-103202360D01*
X88652198Y-103176012D01*
X88578619Y-103166926D01*
X88509239Y-103174592D01*
X88453270Y-103196103D01*
X88407726Y-103230786D01*
X88370932Y-103280081D01*
X88342772Y-103347325D01*
X88160689Y-103313693D01*
X88197548Y-103217886D01*
X88246130Y-103143103D01*
X88306312Y-103085813D01*
X88379467Y-103044057D01*
X88468302Y-103017647D01*
X88576604Y-103008200D01*
X88673643Y-103016632D01*
G37*
G36*
X90348982Y-107017500D02*
G01*
X90348982Y-106859895D01*
X89898904Y-106859895D01*
X89898904Y-105808234D01*
X89927555Y-105848779D01*
X89982430Y-105892463D01*
X90074576Y-105939866D01*
X90171152Y-105974213D01*
X90265426Y-105994281D01*
X90358233Y-106000872D01*
X90358233Y-105840091D01*
X90257087Y-105832485D01*
X90161423Y-105809983D01*
X90070088Y-105772546D01*
X89986211Y-105720815D01*
X89924882Y-105663590D01*
X89882326Y-105600648D01*
X89707387Y-105600648D01*
X89707387Y-106859895D01*
X89345419Y-106859895D01*
X89345419Y-107017500D01*
X90348982Y-107017500D01*
G37*
G36*
X88149148Y-105749938D02*
G01*
X88290733Y-105971488D01*
X88403923Y-106177259D01*
X88491616Y-106368633D01*
X88556409Y-106546985D01*
X88600570Y-106713682D01*
X88626002Y-106870078D01*
X88634214Y-107017500D01*
X88832784Y-107017500D01*
X88825503Y-106881096D01*
X88802999Y-106736781D01*
X88764029Y-106583448D01*
X88707029Y-106419967D01*
X88613824Y-106212463D01*
X88491352Y-105992361D01*
X88336269Y-105758252D01*
X89089147Y-105758252D01*
X89089147Y-105600648D01*
X88149148Y-105600648D01*
X88149148Y-105749938D01*
G37*
G36*
X90348982Y-109587900D02*
G01*
X90348982Y-109430295D01*
X89898904Y-109430295D01*
X89898904Y-108378634D01*
X89927555Y-108419179D01*
X89982430Y-108462863D01*
X90074576Y-108510266D01*
X90171152Y-108544613D01*
X90265426Y-108564681D01*
X90358233Y-108571272D01*
X90358233Y-108410491D01*
X90257087Y-108402885D01*
X90161423Y-108380383D01*
X90070088Y-108342946D01*
X89986211Y-108291215D01*
X89924882Y-108233990D01*
X89882326Y-108171048D01*
X89707387Y-108171048D01*
X89707387Y-109430295D01*
X89345419Y-109430295D01*
X89345419Y-109587900D01*
X90348982Y-109587900D01*
G37*
G36*
X88711798Y-108154464D02*
G01*
X88791065Y-108170153D01*
X88861910Y-108195338D01*
X88927546Y-108231368D01*
X88980921Y-108274889D01*
X89023568Y-108326130D01*
X89055528Y-108384621D01*
X89074557Y-108446790D01*
X89080996Y-108513910D01*
X89073080Y-108590234D01*
X89049785Y-108659661D01*
X89010654Y-108723925D01*
X88958885Y-108778012D01*
X88898090Y-108817629D01*
X88827647Y-108843235D01*
X88905572Y-108865824D01*
X88973766Y-108904588D01*
X89033094Y-108960098D01*
X89078215Y-109027731D01*
X89105406Y-109104086D01*
X89114793Y-109191693D01*
X89105963Y-109287427D01*
X89080826Y-109368672D01*
X89040170Y-109438292D01*
X88983085Y-109498214D01*
X88915031Y-109544404D01*
X88833455Y-109578889D01*
X88735731Y-109600939D01*
X88618644Y-109608826D01*
X88498690Y-109600695D01*
X88399934Y-109578098D01*
X88318725Y-109542974D01*
X88252096Y-109496158D01*
X88196344Y-109435407D01*
X88156622Y-109365417D01*
X88132097Y-109284355D01*
X88123503Y-109189544D01*
X88125344Y-109171794D01*
X88321156Y-109171794D01*
X88330429Y-109267108D01*
X88355461Y-109338009D01*
X88394154Y-109390404D01*
X88447136Y-109427957D01*
X88519280Y-109452532D01*
X88616629Y-109461685D01*
X88713119Y-109452473D01*
X88786343Y-109427469D01*
X88841668Y-109388815D01*
X88882807Y-109335315D01*
X88908794Y-109265982D01*
X88918238Y-109175998D01*
X88909107Y-109100920D01*
X88882986Y-109038644D01*
X88839653Y-108986163D01*
X88783356Y-108947597D01*
X88712415Y-108923154D01*
X88622766Y-108914320D01*
X88529145Y-108922696D01*
X88456475Y-108945583D01*
X88400199Y-108981024D01*
X88357092Y-109030524D01*
X88330611Y-109092794D01*
X88321156Y-109171794D01*
X88125344Y-109171794D01*
X88132879Y-109099150D01*
X88159732Y-109022262D01*
X88203736Y-108955987D01*
X88262233Y-108902194D01*
X88332110Y-108863922D01*
X88414520Y-108841233D01*
X88344357Y-108818590D01*
X88283294Y-108780712D01*
X88230847Y-108727008D01*
X88191116Y-108662654D01*
X88167455Y-108592904D01*
X88160501Y-108526429D01*
X88357060Y-108526429D01*
X88364955Y-108602550D01*
X88386564Y-108660571D01*
X88420592Y-108704790D01*
X88468284Y-108737616D01*
X88533192Y-108759154D01*
X88620659Y-108767179D01*
X88702588Y-108759355D01*
X88766615Y-108737851D01*
X88816664Y-108704212D01*
X88854617Y-108657875D01*
X88878070Y-108599798D01*
X88886456Y-108526429D01*
X88878049Y-108453960D01*
X88854712Y-108397800D01*
X88817122Y-108354063D01*
X88767746Y-108322745D01*
X88704261Y-108302574D01*
X88622766Y-108295207D01*
X88538400Y-108302621D01*
X88474106Y-108322704D01*
X88425387Y-108353503D01*
X88388459Y-108396902D01*
X88365404Y-108453192D01*
X88357060Y-108526429D01*
X88160501Y-108526429D01*
X88159406Y-108515965D01*
X88165766Y-108446738D01*
X88184377Y-108383920D01*
X88215277Y-108326130D01*
X88256964Y-108275615D01*
X88310086Y-108232258D01*
X88376386Y-108195898D01*
X88447953Y-108170539D01*
X88529535Y-108154597D01*
X88622766Y-108149000D01*
X88711798Y-108154464D01*
G37*
G36*
X90348982Y-112158300D02*
G01*
X90348982Y-112000695D01*
X89898904Y-112000695D01*
X89898904Y-110949034D01*
X89927555Y-110989579D01*
X89982430Y-111033263D01*
X90074576Y-111080666D01*
X90171152Y-111115013D01*
X90265426Y-111135081D01*
X90358233Y-111141672D01*
X90358233Y-110980891D01*
X90257087Y-110973285D01*
X90161423Y-110950783D01*
X90070088Y-110913346D01*
X89986211Y-110861615D01*
X89924882Y-110804390D01*
X89882326Y-110741448D01*
X89707387Y-110741448D01*
X89707387Y-112000695D01*
X89345419Y-112000695D01*
X89345419Y-112158300D01*
X90348982Y-112158300D01*
G37*
G36*
X88734237Y-110728379D02*
G01*
X88828532Y-110753752D01*
X88908697Y-110794142D01*
X88977040Y-110849538D01*
X89032443Y-110918393D01*
X89072597Y-110998570D01*
X89097696Y-111092278D01*
X89106550Y-111202490D01*
X89098523Y-111309324D01*
X89075645Y-111401710D01*
X89038948Y-111482092D01*
X88988397Y-111552359D01*
X88925012Y-111610696D01*
X88852941Y-111652182D01*
X88770455Y-111677703D01*
X88675064Y-111686607D01*
X88596741Y-111680118D01*
X88523812Y-111661002D01*
X88455154Y-111629246D01*
X88392857Y-111586026D01*
X88348532Y-111539681D01*
X88319141Y-111489859D01*
X88326420Y-111612755D01*
X88344782Y-111716409D01*
X88372719Y-111803618D01*
X88409267Y-111876816D01*
X88459137Y-111941806D01*
X88515458Y-111986077D01*
X88579447Y-112012511D01*
X88653540Y-112021622D01*
X88724948Y-112013759D01*
X88782458Y-111991719D01*
X88829162Y-111956219D01*
X88866807Y-111905816D01*
X88895524Y-111837112D01*
X89077607Y-111866260D01*
X89038597Y-111971970D01*
X88989054Y-112050074D01*
X88929596Y-112105983D01*
X88857614Y-112145061D01*
X88768038Y-112170149D01*
X88656563Y-112179226D01*
X88557648Y-112170803D01*
X88471266Y-112146633D01*
X88395164Y-112107469D01*
X88327677Y-112052837D01*
X88267850Y-111981076D01*
X88211645Y-111880314D01*
X88168739Y-111756426D01*
X88140832Y-111604811D01*
X88130738Y-111420072D01*
X88139925Y-111253779D01*
X88337551Y-111253779D01*
X88347581Y-111329950D01*
X88377118Y-111397090D01*
X88423583Y-111453411D01*
X88485196Y-111496398D01*
X88555914Y-111523161D01*
X88630917Y-111532086D01*
X88713421Y-111521512D01*
X88780936Y-111491398D01*
X88836997Y-111441559D01*
X88878166Y-111377110D01*
X88903923Y-111298654D01*
X88913109Y-111202490D01*
X88904000Y-111109174D01*
X88878318Y-111032211D01*
X88836997Y-110968185D01*
X88780922Y-110918735D01*
X88712788Y-110888710D01*
X88628902Y-110878126D01*
X88566836Y-110884772D01*
X88512115Y-110904081D01*
X88463105Y-110936121D01*
X88418792Y-110982292D01*
X88374934Y-111055797D01*
X88347382Y-111144968D01*
X88337551Y-111253779D01*
X88139925Y-111253779D01*
X88141207Y-111230571D01*
X88169639Y-111081439D01*
X88212477Y-110965304D01*
X88267556Y-110875947D01*
X88334297Y-110808597D01*
X88413785Y-110760277D01*
X88508648Y-110730105D01*
X88622766Y-110719400D01*
X88734237Y-110728379D01*
G37*
G36*
X90362355Y-114728700D02*
G01*
X90362355Y-114602672D01*
X90324107Y-114528849D01*
X90272346Y-114452074D01*
X90205276Y-114371824D01*
X90087306Y-114254636D01*
X89916215Y-114107344D01*
X89767972Y-113975189D01*
X89682108Y-113876963D01*
X89640706Y-113809050D01*
X89617936Y-113747043D01*
X89610758Y-113689183D01*
X89619173Y-113615976D01*
X89642663Y-113558333D01*
X89680642Y-113512614D01*
X89730632Y-113479673D01*
X89795825Y-113458391D01*
X89880586Y-113450581D01*
X89955389Y-113458320D01*
X90016852Y-113480125D01*
X90067798Y-113515230D01*
X90107878Y-113562714D01*
X90136395Y-113623178D01*
X90152794Y-113699833D01*
X90347334Y-113681429D01*
X90329713Y-113592736D01*
X90299758Y-113516615D01*
X90257859Y-113451044D01*
X90203444Y-113394621D01*
X90139688Y-113350146D01*
X90065928Y-113317529D01*
X89980328Y-113297030D01*
X89880586Y-113289800D01*
X89769938Y-113297068D01*
X89677969Y-113317336D01*
X89601579Y-113348928D01*
X89538218Y-113391071D01*
X89485091Y-113446017D01*
X89447118Y-113510656D01*
X89423533Y-113586924D01*
X89415211Y-113677692D01*
X89423463Y-113756319D01*
X89448891Y-113836339D01*
X89493522Y-113919284D01*
X89550213Y-113995314D01*
X89626862Y-114077099D01*
X89726987Y-114165359D01*
X89920550Y-114327062D01*
X90019346Y-114417601D01*
X90091061Y-114499999D01*
X90132278Y-114569974D01*
X89392588Y-114569974D01*
X89392588Y-114728700D01*
X90362355Y-114728700D01*
G37*
G36*
X88742567Y-114148263D02*
G01*
X88495729Y-114148263D01*
X88495729Y-113881821D01*
X88742567Y-113881821D01*
X88742567Y-114148263D01*
G37*
G36*
X88720846Y-113297994D02*
G01*
X88809523Y-113321080D01*
X88884471Y-113357664D01*
X88947931Y-113407557D01*
X89001311Y-113471788D01*
X89050608Y-113563654D01*
X89089101Y-113681570D01*
X89114653Y-113831346D01*
X89124043Y-114019713D01*
X89114605Y-114202341D01*
X89088714Y-114349989D01*
X89049311Y-114468517D01*
X88998289Y-114562967D01*
X88943340Y-114629784D01*
X88879700Y-114681106D01*
X88806249Y-114718282D01*
X88721103Y-114741471D01*
X88621758Y-114749626D01*
X88522485Y-114741463D01*
X88437061Y-114718212D01*
X88363046Y-114680867D01*
X88298610Y-114629233D01*
X88242663Y-114561940D01*
X88190424Y-114466744D01*
X88150236Y-114348015D01*
X88123915Y-114200893D01*
X88114344Y-114019713D01*
X88307784Y-114019713D01*
X88313719Y-114170736D01*
X88329716Y-114289090D01*
X88353429Y-114380447D01*
X88383072Y-114449832D01*
X88426708Y-114511768D01*
X88479376Y-114554575D01*
X88542645Y-114580680D01*
X88619651Y-114589873D01*
X88697501Y-114580822D01*
X88761083Y-114555222D01*
X88813615Y-114513486D01*
X88856781Y-114453476D01*
X88885934Y-114386007D01*
X88909489Y-114295155D01*
X88925526Y-114175212D01*
X88931519Y-114019713D01*
X88925501Y-113859163D01*
X88909514Y-113737336D01*
X88886258Y-113646868D01*
X88857788Y-113581280D01*
X88815293Y-113523502D01*
X88762346Y-113482816D01*
X88696949Y-113457546D01*
X88615530Y-113448526D01*
X88536508Y-113457567D01*
X88472874Y-113482967D01*
X88421154Y-113524083D01*
X88379500Y-113582868D01*
X88351741Y-113649125D01*
X88329116Y-113739765D01*
X88313608Y-113860964D01*
X88307784Y-114019713D01*
X88114344Y-114019713D01*
X88123643Y-113833189D01*
X88149010Y-113684098D01*
X88187327Y-113566011D01*
X88236526Y-113473376D01*
X88289849Y-113408213D01*
X88352731Y-113357838D01*
X88426458Y-113321076D01*
X88513135Y-113297975D01*
X88615530Y-113289800D01*
X88720846Y-113297994D01*
G37*
G36*
X90362355Y-117299100D02*
G01*
X90362355Y-117173072D01*
X90324107Y-117099249D01*
X90272346Y-117022474D01*
X90205276Y-116942224D01*
X90087306Y-116825036D01*
X89916215Y-116677744D01*
X89767972Y-116545589D01*
X89682108Y-116447363D01*
X89640706Y-116379450D01*
X89617936Y-116317443D01*
X89610758Y-116259583D01*
X89619173Y-116186376D01*
X89642663Y-116128733D01*
X89680642Y-116083014D01*
X89730632Y-116050073D01*
X89795825Y-116028791D01*
X89880586Y-116020981D01*
X89955389Y-116028720D01*
X90016852Y-116050525D01*
X90067798Y-116085630D01*
X90107878Y-116133114D01*
X90136395Y-116193578D01*
X90152794Y-116270233D01*
X90347334Y-116251829D01*
X90329713Y-116163136D01*
X90299758Y-116087015D01*
X90257859Y-116021444D01*
X90203444Y-115965021D01*
X90139688Y-115920546D01*
X90065928Y-115887929D01*
X89980328Y-115867430D01*
X89880586Y-115860200D01*
X89769938Y-115867468D01*
X89677969Y-115887736D01*
X89601579Y-115919328D01*
X89538218Y-115961471D01*
X89485091Y-116016417D01*
X89447118Y-116081056D01*
X89423533Y-116157324D01*
X89415211Y-116248092D01*
X89423463Y-116326719D01*
X89448891Y-116406739D01*
X89493522Y-116489684D01*
X89550213Y-116565714D01*
X89626862Y-116647499D01*
X89726987Y-116735759D01*
X89920550Y-116897462D01*
X90019346Y-116988001D01*
X90091061Y-117070399D01*
X90132278Y-117140374D01*
X89392588Y-117140374D01*
X89392588Y-117299100D01*
X90362355Y-117299100D01*
G37*
G36*
X89090155Y-117299100D02*
G01*
X89090155Y-117141495D01*
X88640076Y-117141495D01*
X88640076Y-116089834D01*
X88668727Y-116130379D01*
X88723602Y-116174063D01*
X88815748Y-116221466D01*
X88912324Y-116255813D01*
X89006599Y-116275881D01*
X89099405Y-116282472D01*
X89099405Y-116121691D01*
X88998260Y-116114085D01*
X88902595Y-116091583D01*
X88811260Y-116054146D01*
X88727383Y-116002415D01*
X88666054Y-115945190D01*
X88623498Y-115882248D01*
X88448559Y-115882248D01*
X88448559Y-117141495D01*
X88086591Y-117141495D01*
X88086591Y-117299100D01*
X89090155Y-117299100D01*
G37*
G36*
X90362355Y-119869500D02*
G01*
X90362355Y-119743472D01*
X90324107Y-119669649D01*
X90272346Y-119592874D01*
X90205276Y-119512624D01*
X90087306Y-119395436D01*
X89916215Y-119248144D01*
X89767972Y-119115989D01*
X89682108Y-119017763D01*
X89640706Y-118949850D01*
X89617936Y-118887843D01*
X89610758Y-118829983D01*
X89619173Y-118756776D01*
X89642663Y-118699133D01*
X89680642Y-118653414D01*
X89730632Y-118620473D01*
X89795825Y-118599191D01*
X89880586Y-118591381D01*
X89955389Y-118599120D01*
X90016852Y-118620925D01*
X90067798Y-118656030D01*
X90107878Y-118703514D01*
X90136395Y-118763978D01*
X90152794Y-118840633D01*
X90347334Y-118822229D01*
X90329713Y-118733536D01*
X90299758Y-118657415D01*
X90257859Y-118591844D01*
X90203444Y-118535421D01*
X90139688Y-118490946D01*
X90065928Y-118458329D01*
X89980328Y-118437830D01*
X89880586Y-118430600D01*
X89769938Y-118437868D01*
X89677969Y-118458136D01*
X89601579Y-118489728D01*
X89538218Y-118531871D01*
X89485091Y-118586817D01*
X89447118Y-118651456D01*
X89423533Y-118727724D01*
X89415211Y-118818492D01*
X89423463Y-118897119D01*
X89448891Y-118977139D01*
X89493522Y-119060084D01*
X89550213Y-119136114D01*
X89626862Y-119217899D01*
X89726987Y-119306159D01*
X89920550Y-119467862D01*
X90019346Y-119558401D01*
X90091061Y-119640799D01*
X90132278Y-119710774D01*
X89392588Y-119710774D01*
X89392588Y-119869500D01*
X90362355Y-119869500D01*
G37*
G36*
X89103527Y-119869500D02*
G01*
X89103527Y-119743472D01*
X89065279Y-119669649D01*
X89013519Y-119592874D01*
X88946448Y-119512624D01*
X88828478Y-119395436D01*
X88657387Y-119248144D01*
X88509145Y-119115989D01*
X88423280Y-119017763D01*
X88381879Y-118949850D01*
X88359109Y-118887843D01*
X88351931Y-118829983D01*
X88360345Y-118756776D01*
X88383835Y-118699133D01*
X88421815Y-118653414D01*
X88471804Y-118620473D01*
X88536997Y-118599191D01*
X88621758Y-118591381D01*
X88696562Y-118599120D01*
X88758025Y-118620925D01*
X88808970Y-118656030D01*
X88849051Y-118703514D01*
X88877567Y-118763978D01*
X88893967Y-118840633D01*
X89088506Y-118822229D01*
X89070885Y-118733536D01*
X89040930Y-118657415D01*
X88999031Y-118591844D01*
X88944617Y-118535421D01*
X88880861Y-118490946D01*
X88807101Y-118458329D01*
X88721500Y-118437830D01*
X88621758Y-118430600D01*
X88511110Y-118437868D01*
X88419142Y-118458136D01*
X88342752Y-118489728D01*
X88279391Y-118531871D01*
X88226264Y-118586817D01*
X88188290Y-118651456D01*
X88164706Y-118727724D01*
X88156384Y-118818492D01*
X88164635Y-118897119D01*
X88190063Y-118977139D01*
X88234694Y-119060084D01*
X88291385Y-119136114D01*
X88368034Y-119217899D01*
X88468160Y-119306159D01*
X88661723Y-119467862D01*
X88760519Y-119558401D01*
X88832234Y-119640799D01*
X88873450Y-119710774D01*
X88133761Y-119710774D01*
X88133761Y-119869500D01*
X89103527Y-119869500D01*
G37*
G36*
X90362355Y-122439900D02*
G01*
X90362355Y-122313872D01*
X90324107Y-122240049D01*
X90272346Y-122163274D01*
X90205276Y-122083024D01*
X90087306Y-121965836D01*
X89916215Y-121818544D01*
X89767972Y-121686389D01*
X89682108Y-121588163D01*
X89640706Y-121520250D01*
X89617936Y-121458243D01*
X89610758Y-121400383D01*
X89619173Y-121327176D01*
X89642663Y-121269533D01*
X89680642Y-121223814D01*
X89730632Y-121190873D01*
X89795825Y-121169591D01*
X89880586Y-121161781D01*
X89955389Y-121169520D01*
X90016852Y-121191325D01*
X90067798Y-121226430D01*
X90107878Y-121273914D01*
X90136395Y-121334378D01*
X90152794Y-121411033D01*
X90347334Y-121392629D01*
X90329713Y-121303936D01*
X90299758Y-121227815D01*
X90257859Y-121162244D01*
X90203444Y-121105821D01*
X90139688Y-121061346D01*
X90065928Y-121028729D01*
X89980328Y-121008230D01*
X89880586Y-121001000D01*
X89769938Y-121008268D01*
X89677969Y-121028536D01*
X89601579Y-121060128D01*
X89538218Y-121102271D01*
X89485091Y-121157217D01*
X89447118Y-121221856D01*
X89423533Y-121298124D01*
X89415211Y-121388892D01*
X89423463Y-121467519D01*
X89448891Y-121547539D01*
X89493522Y-121630484D01*
X89550213Y-121706514D01*
X89626862Y-121788299D01*
X89726987Y-121876559D01*
X89920550Y-122038262D01*
X90019346Y-122128801D01*
X90091061Y-122211199D01*
X90132278Y-122281174D01*
X89392588Y-122281174D01*
X89392588Y-122439900D01*
X90362355Y-122439900D01*
G37*
G36*
X88118374Y-122049952D02*
G01*
X88127171Y-122145815D01*
X88152123Y-122226503D01*
X88192330Y-122295020D01*
X88248616Y-122353390D01*
X88315716Y-122398092D01*
X88396656Y-122431607D01*
X88494151Y-122453114D01*
X88611500Y-122460826D01*
X88722323Y-122453631D01*
X88816354Y-122433382D01*
X88896228Y-122401528D01*
X88964125Y-122358715D01*
X89022108Y-122303009D01*
X89067355Y-122235369D01*
X89100327Y-122153830D01*
X89120288Y-122055558D01*
X88923825Y-122037247D01*
X88903878Y-122120018D01*
X88871939Y-122183775D01*
X88828694Y-122232348D01*
X88772986Y-122267917D01*
X88701977Y-122290721D01*
X88611500Y-122299018D01*
X88521211Y-122290905D01*
X88450255Y-122268615D01*
X88394521Y-122233902D01*
X88351841Y-122185322D01*
X88325488Y-122123321D01*
X88316027Y-122043693D01*
X88321348Y-121993911D01*
X88336704Y-121950908D01*
X88362097Y-121913181D01*
X88414925Y-121867179D01*
X88487486Y-121831530D01*
X88569909Y-121810384D01*
X88665813Y-121802942D01*
X88773341Y-121802942D01*
X88773341Y-121633847D01*
X88669935Y-121633847D01*
X88584915Y-121626234D01*
X88509651Y-121604232D01*
X88443621Y-121567798D01*
X88395437Y-121520992D01*
X88364502Y-121463020D01*
X88353946Y-121394124D01*
X88361988Y-121324182D01*
X88384572Y-121268309D01*
X88421265Y-121223253D01*
X88469688Y-121190857D01*
X88534826Y-121169655D01*
X88621758Y-121161781D01*
X88700189Y-121169396D01*
X88764362Y-121190753D01*
X88817213Y-121224841D01*
X88859088Y-121271572D01*
X88888194Y-121330808D01*
X88904225Y-121405708D01*
X89095650Y-121390574D01*
X89077669Y-121300426D01*
X89046811Y-121223865D01*
X89003508Y-121158635D01*
X88947090Y-121103205D01*
X88881211Y-121059762D01*
X88805863Y-121027941D01*
X88719367Y-121008004D01*
X88619651Y-121001000D01*
X88509388Y-121008112D01*
X88417997Y-121027912D01*
X88342347Y-121058701D01*
X88279849Y-121099655D01*
X88227083Y-121153306D01*
X88189625Y-121215664D01*
X88166513Y-121288460D01*
X88158399Y-121374318D01*
X88167586Y-121454851D01*
X88194569Y-121526932D01*
X88240098Y-121592741D01*
X88299505Y-121646480D01*
X88372239Y-121687137D01*
X88460924Y-121714564D01*
X88460924Y-121713537D01*
X88362585Y-121734657D01*
X88280978Y-121771980D01*
X88213079Y-121825083D01*
X88160011Y-121892563D01*
X88128920Y-121966664D01*
X88118374Y-122049952D01*
G37*
D11*
%TO.C,G2*%
G36*
X63072539Y-110648765D02*
G01*
X61777182Y-110648765D01*
X61777182Y-109276237D01*
X63072539Y-109276237D01*
X63072539Y-110648765D01*
G37*
G36*
X61028000Y-101518285D02*
G01*
X61028000Y-101856952D01*
X59745905Y-101856952D01*
X58463810Y-101856952D01*
X58463810Y-101518285D01*
X58463810Y-101179619D01*
X59745905Y-101179619D01*
X61028000Y-101179619D01*
X61028000Y-101518285D01*
G37*
G36*
X59358857Y-90656762D02*
G01*
X59358857Y-90777714D01*
X59250000Y-90777714D01*
X59141143Y-90777714D01*
X59141143Y-90656762D01*
X59141143Y-90535809D01*
X59250000Y-90535809D01*
X59358857Y-90535809D01*
X59358857Y-90656762D01*
G37*
G36*
X59358857Y-91636476D02*
G01*
X59358857Y-92350095D01*
X59250000Y-92350095D01*
X59141143Y-92350095D01*
X59141143Y-91636476D01*
X59141143Y-90922857D01*
X59250000Y-90922857D01*
X59358857Y-90922857D01*
X59358857Y-91636476D01*
G37*
G36*
X60568381Y-97067238D02*
G01*
X60568381Y-97164000D01*
X60471619Y-97164000D01*
X60374857Y-97164000D01*
X60374857Y-97067238D01*
X60374857Y-96970476D01*
X60471619Y-96970476D01*
X60568381Y-96970476D01*
X60568381Y-97067238D01*
G37*
G36*
X63084190Y-101518285D02*
G01*
X63084190Y-101856952D01*
X62745524Y-101856952D01*
X62406857Y-101856952D01*
X62406857Y-101518285D01*
X62406857Y-101179619D01*
X62745524Y-101179619D01*
X63084190Y-101179619D01*
X63084190Y-101518285D01*
G37*
G36*
X67196571Y-101518285D02*
G01*
X67196571Y-101856952D01*
X65829810Y-101856952D01*
X64463048Y-101856952D01*
X64463048Y-101518285D01*
X64463048Y-101179619D01*
X65829810Y-101179619D01*
X67196571Y-101179619D01*
X67196571Y-101518285D01*
G37*
G36*
X69252762Y-101518285D02*
G01*
X69252762Y-101856952D01*
X68914095Y-101856952D01*
X68575429Y-101856952D01*
X68575429Y-101518285D01*
X68575429Y-101179619D01*
X68914095Y-101179619D01*
X69252762Y-101179619D01*
X69252762Y-101518285D01*
G37*
G36*
X69301143Y-97067238D02*
G01*
X69301143Y-97164000D01*
X69204381Y-97164000D01*
X69107619Y-97164000D01*
X69107619Y-97067238D01*
X69107619Y-96970476D01*
X69204381Y-96970476D01*
X69301143Y-96970476D01*
X69301143Y-97067238D01*
G37*
G36*
X73365143Y-101518285D02*
G01*
X73365143Y-101856952D01*
X71998381Y-101856952D01*
X70631619Y-101856952D01*
X70631619Y-101518285D01*
X70631619Y-101179619D01*
X71998381Y-101179619D01*
X73365143Y-101179619D01*
X73365143Y-101518285D01*
G37*
G36*
X72252381Y-116770381D02*
G01*
X72252381Y-116879238D01*
X71925810Y-116879238D01*
X71599238Y-116879238D01*
X71599238Y-117750095D01*
X71599238Y-118620952D01*
X71466190Y-118620952D01*
X71333143Y-118620952D01*
X71333143Y-117750095D01*
X71333143Y-116879238D01*
X71006571Y-116879238D01*
X70680000Y-116879238D01*
X70680000Y-116770381D01*
X70680000Y-116661524D01*
X71466190Y-116661524D01*
X72252381Y-116661524D01*
X72252381Y-116770381D01*
G37*
G36*
X72581008Y-113708008D02*
G01*
X71500624Y-113708008D01*
X70745459Y-111602363D01*
X67642111Y-111602363D01*
X66881430Y-113708008D01*
X65812079Y-113708008D01*
X66899109Y-110781051D01*
X67912207Y-110781051D01*
X70464339Y-110781051D01*
X69632003Y-108449409D01*
X69251662Y-107280830D01*
X69185515Y-107065857D01*
X68865813Y-108024971D01*
X67912207Y-110781051D01*
X66899109Y-110781051D01*
X68573668Y-106272102D01*
X69769805Y-106272102D01*
X71474449Y-110781051D01*
X72581008Y-113708008D01*
G37*
G36*
X56282312Y-78083762D02*
G01*
X56290100Y-78631340D01*
X56298336Y-79257440D01*
X56305886Y-79883313D01*
X56312704Y-80503610D01*
X56318743Y-81112981D01*
X56323957Y-81706079D01*
X56328298Y-82277553D01*
X56331720Y-82822055D01*
X56334176Y-83334236D01*
X56335621Y-83808747D01*
X56336006Y-84240238D01*
X56335048Y-86689524D01*
X55573048Y-86689524D01*
X54811048Y-86689524D01*
X54811048Y-80533047D01*
X54811048Y-74376571D01*
X55519354Y-74376571D01*
X56227661Y-74376571D01*
X56282312Y-78083762D01*
G37*
G36*
X75687429Y-116770381D02*
G01*
X75687429Y-116879238D01*
X75457619Y-116879238D01*
X75227810Y-116879238D01*
X75227810Y-117641238D01*
X75227810Y-118403238D01*
X75457619Y-118403238D01*
X75687429Y-118403238D01*
X75687429Y-118512095D01*
X75687429Y-118620952D01*
X75082667Y-118620952D01*
X74477905Y-118620952D01*
X74477905Y-118512095D01*
X74477905Y-118403238D01*
X74719810Y-118403238D01*
X74961714Y-118403238D01*
X74961714Y-117641238D01*
X74961714Y-116879238D01*
X74719810Y-116879238D01*
X74477905Y-116879238D01*
X74477905Y-116770381D01*
X74477905Y-116661524D01*
X75082667Y-116661524D01*
X75687429Y-116661524D01*
X75687429Y-116770381D01*
G37*
G36*
X70908371Y-90917538D02*
G01*
X71005790Y-90955122D01*
X71083199Y-91009380D01*
X71113797Y-91039169D01*
X71147156Y-91063123D01*
X71161040Y-91049025D01*
X71163810Y-90995428D01*
X71164425Y-90968050D01*
X71174025Y-90937107D01*
X71205729Y-90924961D01*
X71272667Y-90922857D01*
X71381524Y-90922857D01*
X71381524Y-91636476D01*
X71381524Y-92350095D01*
X71272667Y-92350095D01*
X71163810Y-92350095D01*
X71163810Y-91841244D01*
X71163669Y-91739641D01*
X71162509Y-91588618D01*
X71159784Y-91475664D01*
X71155029Y-91394129D01*
X71147779Y-91337362D01*
X71137569Y-91298713D01*
X71123932Y-91271531D01*
X71057810Y-91202966D01*
X70952052Y-91150294D01*
X70825143Y-91130146D01*
X70716286Y-91128476D01*
X70708886Y-91026467D01*
X70707739Y-91009445D01*
X70708525Y-90951986D01*
X70725280Y-90923515D01*
X70765506Y-90908389D01*
X70812091Y-90903350D01*
X70908371Y-90917538D01*
G37*
G36*
X61705333Y-96438285D02*
G01*
X61705333Y-97164000D01*
X61632762Y-97164000D01*
X61560190Y-97164000D01*
X61560190Y-96824556D01*
X61558308Y-96671583D01*
X61550636Y-96539454D01*
X61535311Y-96441424D01*
X61510494Y-96370042D01*
X61474343Y-96317860D01*
X61425019Y-96277431D01*
X61393811Y-96260031D01*
X61294900Y-96234639D01*
X61196028Y-96245509D01*
X61114030Y-96291861D01*
X61112170Y-96293610D01*
X61090044Y-96315915D01*
X61074163Y-96339869D01*
X61063491Y-96373261D01*
X61056994Y-96423880D01*
X61053635Y-96499513D01*
X61052379Y-96607949D01*
X61052190Y-96756978D01*
X61052190Y-97164000D01*
X60965603Y-97164000D01*
X60879015Y-97164000D01*
X60886984Y-96722524D01*
X60888634Y-96638239D01*
X60893174Y-96486100D01*
X60900503Y-96372271D01*
X60912465Y-96289839D01*
X60930905Y-96231896D01*
X60957666Y-96191532D01*
X60994592Y-96161836D01*
X61043527Y-96135897D01*
X61155357Y-96102336D01*
X61283360Y-96102722D01*
X61403087Y-96139967D01*
X61500641Y-96211762D01*
X61560190Y-96276017D01*
X61560190Y-95994294D01*
X61560190Y-95712571D01*
X61632762Y-95712571D01*
X61705333Y-95712571D01*
X61705333Y-96438285D01*
G37*
G36*
X58246672Y-96432238D02*
G01*
X58246674Y-96432905D01*
X58248640Y-96559945D01*
X58253536Y-96678119D01*
X58260626Y-96774257D01*
X58269175Y-96835190D01*
X58275865Y-96859881D01*
X58329548Y-96962821D01*
X58412007Y-97034796D01*
X58514126Y-97070006D01*
X58626791Y-97062655D01*
X58668086Y-97048498D01*
X58709096Y-97021199D01*
X58738700Y-96977591D01*
X58758661Y-96911273D01*
X58770737Y-96815845D01*
X58776692Y-96684907D01*
X58778286Y-96512058D01*
X58778286Y-96123809D01*
X58850857Y-96123809D01*
X58923429Y-96123809D01*
X58923072Y-96565285D01*
X58922868Y-96647753D01*
X58920841Y-96803998D01*
X58915314Y-96921677D01*
X58904651Y-97007602D01*
X58887218Y-97068586D01*
X58861380Y-97111440D01*
X58825502Y-97142977D01*
X58777949Y-97170010D01*
X58724245Y-97190700D01*
X58619921Y-97209427D01*
X58515277Y-97207923D01*
X58431981Y-97185234D01*
X58428049Y-97183144D01*
X58372292Y-97145712D01*
X58312619Y-97096042D01*
X58246095Y-97033996D01*
X58246095Y-97098998D01*
X58244136Y-97129920D01*
X58225165Y-97157724D01*
X58173524Y-97164000D01*
X58100952Y-97164000D01*
X58100952Y-96643905D01*
X58100952Y-96123809D01*
X58173524Y-96123809D01*
X58246095Y-96123809D01*
X58246672Y-96432238D01*
G37*
G36*
X67559429Y-90753524D02*
G01*
X67559429Y-90922857D01*
X67692476Y-90922857D01*
X67825524Y-90922857D01*
X67825524Y-91019619D01*
X67825524Y-91116381D01*
X67692476Y-91116381D01*
X67559429Y-91116381D01*
X67559429Y-91613062D01*
X67558902Y-91761735D01*
X67555884Y-91922186D01*
X67548992Y-92045401D01*
X67536892Y-92137732D01*
X67518247Y-92205533D01*
X67491723Y-92255157D01*
X67455984Y-92292956D01*
X67409694Y-92325284D01*
X67350911Y-92352460D01*
X67231228Y-92373339D01*
X67105857Y-92359039D01*
X67081887Y-92349846D01*
X67057671Y-92318777D01*
X67051429Y-92255920D01*
X67051538Y-92232840D01*
X67057448Y-92187646D01*
X67082874Y-92172581D01*
X67142143Y-92174838D01*
X67153589Y-92175579D01*
X67221555Y-92172605D01*
X67267704Y-92159106D01*
X67270168Y-92157253D01*
X67294521Y-92110824D01*
X67313813Y-92017169D01*
X67327960Y-91877113D01*
X67336875Y-91691480D01*
X67340472Y-91461095D01*
X67341714Y-91116381D01*
X67208667Y-91116381D01*
X67075619Y-91116381D01*
X67075619Y-91019619D01*
X67075619Y-90922857D01*
X67208667Y-90922857D01*
X67341714Y-90922857D01*
X67341714Y-90753524D01*
X67341714Y-90584190D01*
X67450571Y-90584190D01*
X67559429Y-90584190D01*
X67559429Y-90753524D01*
G37*
G36*
X58277326Y-90943847D02*
G01*
X58400797Y-91020637D01*
X58424355Y-91040788D01*
X58471601Y-91077598D01*
X58497241Y-91092190D01*
X58499189Y-91091469D01*
X58508431Y-91063514D01*
X58512190Y-91007524D01*
X58512862Y-90969847D01*
X58522488Y-90936914D01*
X58554161Y-90924664D01*
X58621048Y-90922857D01*
X58729905Y-90922857D01*
X58729905Y-91636476D01*
X58729905Y-92350095D01*
X58608952Y-92350095D01*
X58488000Y-92350095D01*
X58487462Y-91823952D01*
X58486925Y-91653794D01*
X58485339Y-91518422D01*
X58482236Y-91418659D01*
X58477140Y-91348003D01*
X58469573Y-91299951D01*
X58459062Y-91268000D01*
X58445129Y-91245646D01*
X58364623Y-91171873D01*
X58249663Y-91113862D01*
X58128771Y-91092281D01*
X58062692Y-91097057D01*
X58003584Y-91120919D01*
X57941295Y-91174438D01*
X57859048Y-91256685D01*
X57859048Y-91803390D01*
X57859048Y-92350095D01*
X57738095Y-92350095D01*
X57617143Y-92350095D01*
X57617278Y-91823952D01*
X57618556Y-91648415D01*
X57622189Y-91489204D01*
X57627867Y-91356892D01*
X57635282Y-91258636D01*
X57644125Y-91201593D01*
X57655548Y-91170215D01*
X57700874Y-91089396D01*
X57759701Y-91016512D01*
X57824197Y-90960518D01*
X57891070Y-90928392D01*
X57982148Y-90910958D01*
X58129843Y-90907986D01*
X58277326Y-90943847D01*
G37*
G36*
X60858667Y-91346190D02*
G01*
X60858667Y-92350095D01*
X60749810Y-92350095D01*
X60640952Y-92350095D01*
X60640952Y-91839782D01*
X60640904Y-91749962D01*
X60640279Y-91600737D01*
X60638428Y-91489427D01*
X60634727Y-91409025D01*
X60628550Y-91352527D01*
X60619272Y-91312926D01*
X60606270Y-91283216D01*
X60588917Y-91256391D01*
X60558245Y-91221505D01*
X60471449Y-91157782D01*
X60368494Y-91111172D01*
X60270846Y-91092721D01*
X60202662Y-91103169D01*
X60129845Y-91130083D01*
X60095520Y-91150350D01*
X60059710Y-91182483D01*
X60032716Y-91226745D01*
X60013335Y-91289175D01*
X60000359Y-91375810D01*
X59992583Y-91492687D01*
X59988802Y-91645844D01*
X59987810Y-91841318D01*
X59987810Y-92350095D01*
X59878952Y-92350095D01*
X59770095Y-92350095D01*
X59770627Y-91787666D01*
X59770709Y-91740748D01*
X59772436Y-91542052D01*
X59777285Y-91384563D01*
X59786497Y-91262363D01*
X59801313Y-91169533D01*
X59822976Y-91100153D01*
X59852729Y-91048306D01*
X59891812Y-91008073D01*
X59941469Y-90973534D01*
X59966059Y-90959645D01*
X60103398Y-90913429D01*
X60251822Y-90908566D01*
X60400965Y-90944255D01*
X60540462Y-91019699D01*
X60640952Y-91092494D01*
X60640952Y-90717390D01*
X60640952Y-90342285D01*
X60749810Y-90342285D01*
X60858667Y-90342285D01*
X60858667Y-91346190D01*
G37*
G36*
X66059619Y-91393466D02*
G01*
X66059619Y-92350095D01*
X65951102Y-92350095D01*
X65842584Y-92350095D01*
X65836197Y-91583537D01*
X65829810Y-90816979D01*
X65523346Y-91577489D01*
X65216882Y-92338000D01*
X65123340Y-92345185D01*
X65029798Y-92352370D01*
X64730339Y-91607375D01*
X64682376Y-91488232D01*
X64613018Y-91316595D01*
X64550254Y-91162051D01*
X64496362Y-91030164D01*
X64453618Y-90926499D01*
X64424299Y-90856621D01*
X64410683Y-90826095D01*
X64407752Y-90829854D01*
X64404165Y-90871985D01*
X64401879Y-90953739D01*
X64400923Y-91069765D01*
X64401329Y-91214710D01*
X64403129Y-91383223D01*
X64406353Y-91569952D01*
X64422221Y-92350095D01*
X64297491Y-92350095D01*
X64172762Y-92350095D01*
X64172762Y-91393466D01*
X64172762Y-90436837D01*
X64333419Y-90443990D01*
X64494077Y-90451143D01*
X64798130Y-91219190D01*
X64855036Y-91362356D01*
X64923015Y-91531775D01*
X64983991Y-91681965D01*
X65035832Y-91807762D01*
X65076408Y-91904005D01*
X65103586Y-91965530D01*
X65115235Y-91987176D01*
X65123049Y-91973643D01*
X65147181Y-91920182D01*
X65185223Y-91830925D01*
X65235033Y-91711033D01*
X65294474Y-91565663D01*
X65361407Y-91399975D01*
X65433692Y-91219128D01*
X65739097Y-90451143D01*
X65899358Y-90443990D01*
X66059619Y-90436837D01*
X66059619Y-91393466D01*
G37*
G36*
X62406406Y-96103336D02*
G01*
X62537274Y-96141178D01*
X62644695Y-96218046D01*
X62725432Y-96329964D01*
X62776247Y-96472959D01*
X62793905Y-96643057D01*
X62793382Y-96682122D01*
X62774468Y-96855597D01*
X62727304Y-96992281D01*
X62650408Y-97095262D01*
X62542298Y-97167630D01*
X62420516Y-97205491D01*
X62288442Y-97208590D01*
X62164670Y-97176128D01*
X62058123Y-97111963D01*
X61977725Y-97019951D01*
X61932398Y-96903952D01*
X61932045Y-96902144D01*
X61925435Y-96849607D01*
X61941754Y-96828936D01*
X61992271Y-96825333D01*
X62029652Y-96828104D01*
X62070380Y-96850479D01*
X62101596Y-96906838D01*
X62155855Y-96993772D01*
X62239857Y-97049219D01*
X62353624Y-97067238D01*
X62396628Y-97065503D01*
X62466136Y-97046658D01*
X62527390Y-96998808D01*
X62573198Y-96940787D01*
X62623921Y-96823197D01*
X62644674Y-96688833D01*
X62635460Y-96550848D01*
X62596283Y-96422395D01*
X62527150Y-96316627D01*
X62487938Y-96279694D01*
X62431203Y-96251802D01*
X62352033Y-96244762D01*
X62333612Y-96245225D01*
X62228549Y-96268398D01*
X62149951Y-96322429D01*
X62106734Y-96401617D01*
X62097807Y-96428159D01*
X62068677Y-96455662D01*
X62009203Y-96462476D01*
X61926948Y-96462476D01*
X61951507Y-96371762D01*
X62000095Y-96262277D01*
X62086641Y-96173249D01*
X62204919Y-96118421D01*
X62351652Y-96100017D01*
X62406406Y-96103336D01*
G37*
G36*
X64415727Y-116637389D02*
G01*
X64447516Y-116640454D01*
X64470837Y-116653681D01*
X64489143Y-116684552D01*
X64505889Y-116740550D01*
X64524528Y-116829158D01*
X64548513Y-116957857D01*
X64565194Y-117048571D01*
X64695549Y-117048571D01*
X64825905Y-117048571D01*
X64825905Y-117145333D01*
X64825905Y-117242095D01*
X64694040Y-117242095D01*
X64562175Y-117242095D01*
X64554944Y-117845314D01*
X64547714Y-118448532D01*
X64476052Y-118523287D01*
X64463002Y-118536118D01*
X64395668Y-118587660D01*
X64330909Y-118619410D01*
X64276701Y-118630533D01*
X64165206Y-118640314D01*
X64032789Y-118641546D01*
X63895540Y-118634255D01*
X63769553Y-118618469D01*
X63616381Y-118591795D01*
X63616381Y-118497305D01*
X63616381Y-118402815D01*
X63755476Y-118421169D01*
X63815618Y-118427686D01*
X63934589Y-118435729D01*
X64046226Y-118438387D01*
X64075058Y-118437957D01*
X64156854Y-118431695D01*
X64210534Y-118414893D01*
X64251845Y-118383336D01*
X64268002Y-118365723D01*
X64281676Y-118343526D01*
X64291830Y-118311941D01*
X64299132Y-118264471D01*
X64304247Y-118194616D01*
X64307844Y-118095877D01*
X64310587Y-117961758D01*
X64313144Y-117785758D01*
X64320478Y-117242095D01*
X64004715Y-117242095D01*
X63688952Y-117242095D01*
X63688952Y-117145333D01*
X63688952Y-117048571D01*
X64003429Y-117048571D01*
X64317905Y-117048571D01*
X64317905Y-116842952D01*
X64317905Y-116637333D01*
X64400567Y-116637333D01*
X64415727Y-116637389D01*
G37*
G36*
X76820511Y-91669428D02*
G01*
X76888128Y-91848877D01*
X76947477Y-92007186D01*
X76996763Y-92139543D01*
X77034190Y-92241136D01*
X77057962Y-92307151D01*
X77066286Y-92332776D01*
X77059029Y-92338747D01*
X77016486Y-92346898D01*
X76948531Y-92350095D01*
X76830775Y-92350095D01*
X76740280Y-92096095D01*
X76649785Y-91842095D01*
X76243810Y-91842095D01*
X75837835Y-91842095D01*
X75747339Y-92096095D01*
X75656844Y-92350095D01*
X75537315Y-92350095D01*
X75480957Y-92348280D01*
X75435114Y-92338264D01*
X75425607Y-92317740D01*
X75427622Y-92311412D01*
X75443967Y-92265925D01*
X75474946Y-92182149D01*
X75518698Y-92065044D01*
X75573360Y-91919571D01*
X75637071Y-91750690D01*
X75675720Y-91648571D01*
X75907232Y-91648571D01*
X76243810Y-91648571D01*
X76580387Y-91648571D01*
X76494341Y-91412714D01*
X76478734Y-91369877D01*
X76428414Y-91231216D01*
X76376669Y-91087988D01*
X76332537Y-90965190D01*
X76313860Y-90914080D01*
X76281793Y-90831593D01*
X76257036Y-90774719D01*
X76243810Y-90753524D01*
X76238430Y-90759803D01*
X76218516Y-90801322D01*
X76189326Y-90873140D01*
X76155082Y-90965190D01*
X76141063Y-91004292D01*
X76093238Y-91137086D01*
X76040964Y-91281558D01*
X75993278Y-91412714D01*
X75907232Y-91648571D01*
X75675720Y-91648571D01*
X75707969Y-91563361D01*
X75784190Y-91362545D01*
X76134952Y-90439705D01*
X76244163Y-90439376D01*
X76353374Y-90439047D01*
X76709830Y-91377252D01*
X76746422Y-91473654D01*
X76812618Y-91648571D01*
X76820511Y-91669428D01*
G37*
G36*
X72179810Y-90753524D02*
G01*
X72179810Y-90922857D01*
X72314317Y-90922857D01*
X72448825Y-90922857D01*
X72441317Y-91013571D01*
X72433810Y-91104285D01*
X72308109Y-91111552D01*
X72182409Y-91118819D01*
X72175062Y-91648087D01*
X72173737Y-91739540D01*
X72170951Y-91892680D01*
X72167490Y-92007563D01*
X72162696Y-92090974D01*
X72155909Y-92149696D01*
X72146471Y-92190515D01*
X72133721Y-92220215D01*
X72117001Y-92245582D01*
X72116663Y-92246037D01*
X72063867Y-92302760D01*
X72008144Y-92343691D01*
X72007585Y-92343976D01*
X71926530Y-92367264D01*
X71824613Y-92372728D01*
X71726238Y-92359039D01*
X71701841Y-92349608D01*
X71677954Y-92318410D01*
X71671810Y-92255369D01*
X71671886Y-92234876D01*
X71677238Y-92187726D01*
X71701138Y-92172493D01*
X71757555Y-92176296D01*
X71824065Y-92175618D01*
X71890603Y-92143499D01*
X71894498Y-92139868D01*
X71909589Y-92121495D01*
X71920724Y-92095177D01*
X71928498Y-92054174D01*
X71933507Y-91991748D01*
X71936348Y-91901158D01*
X71937615Y-91775668D01*
X71937905Y-91608536D01*
X71937905Y-91116381D01*
X71818380Y-91116381D01*
X71776868Y-91115282D01*
X71716532Y-91108730D01*
X71688213Y-91098238D01*
X71687727Y-91097302D01*
X71684234Y-91060818D01*
X71689531Y-91001476D01*
X71696176Y-90965256D01*
X71712240Y-90936081D01*
X71748761Y-90924758D01*
X71819698Y-90922857D01*
X71937905Y-90922857D01*
X71937905Y-90753524D01*
X71937905Y-90584190D01*
X72058857Y-90584190D01*
X72179810Y-90584190D01*
X72179810Y-90753524D01*
G37*
G36*
X67680381Y-97164000D02*
G01*
X67619905Y-97164000D01*
X67602211Y-97163311D01*
X67567874Y-97147283D01*
X67559429Y-97098998D01*
X67559429Y-97033996D01*
X67492905Y-97097611D01*
X67487679Y-97102510D01*
X67424954Y-97151797D01*
X67365905Y-97185270D01*
X67261843Y-97209892D01*
X67128997Y-97202326D01*
X67002896Y-97156808D01*
X66898127Y-97076723D01*
X66841254Y-96997436D01*
X66789053Y-96867744D01*
X66763360Y-96721096D01*
X66763494Y-96682389D01*
X66924061Y-96682389D01*
X66936074Y-96801217D01*
X66982885Y-96923200D01*
X67066303Y-97016721D01*
X67075995Y-97023831D01*
X67165826Y-97059702D01*
X67269872Y-97062353D01*
X67368772Y-97030877D01*
X67403769Y-97006699D01*
X67468343Y-96922540D01*
X67509007Y-96803522D01*
X67523143Y-96656000D01*
X67509419Y-96509489D01*
X67467025Y-96388463D01*
X67398191Y-96303412D01*
X67305180Y-96257082D01*
X67190257Y-96252217D01*
X67151722Y-96259708D01*
X67051947Y-96308796D01*
X66980261Y-96396388D01*
X66937390Y-96521310D01*
X66924061Y-96682389D01*
X66763494Y-96682389D01*
X66763887Y-96569160D01*
X66790343Y-96423603D01*
X66842441Y-96296094D01*
X66919890Y-96198301D01*
X66993395Y-96148608D01*
X67108973Y-96108725D01*
X67230480Y-96100771D01*
X67344209Y-96125170D01*
X67436451Y-96182346D01*
X67446694Y-96191966D01*
X67491555Y-96229540D01*
X67518419Y-96244762D01*
X67524255Y-96228143D01*
X67529945Y-96172007D01*
X67533812Y-96085594D01*
X67535238Y-95978666D01*
X67535238Y-95712571D01*
X67607810Y-95712571D01*
X67680381Y-95712571D01*
X67680381Y-96438285D01*
X67680381Y-96656000D01*
X67680381Y-97164000D01*
G37*
G36*
X57302667Y-91673453D02*
G01*
X57302652Y-91678788D01*
X57281305Y-91867480D01*
X57221574Y-92033712D01*
X57126571Y-92172887D01*
X56999410Y-92280410D01*
X56843204Y-92351683D01*
X56787991Y-92364774D01*
X56640605Y-92372441D01*
X56487885Y-92348622D01*
X56346137Y-92296817D01*
X56231672Y-92220523D01*
X56173248Y-92162382D01*
X56146919Y-92117865D01*
X56156706Y-92082415D01*
X56200874Y-92046227D01*
X56230814Y-92028462D01*
X56262143Y-92023144D01*
X56299652Y-92041182D01*
X56358735Y-92086504D01*
X56451732Y-92142664D01*
X56581244Y-92178398D01*
X56713878Y-92175934D01*
X56835272Y-92133844D01*
X56937270Y-92054616D01*
X57016341Y-91939964D01*
X57054755Y-91806066D01*
X57067054Y-91696952D01*
X56592194Y-91696952D01*
X56117333Y-91696952D01*
X56117333Y-91540621D01*
X56118066Y-91515524D01*
X56347143Y-91515524D01*
X56707226Y-91522237D01*
X57067308Y-91528950D01*
X57053300Y-91442626D01*
X57051213Y-91431544D01*
X57024996Y-91349368D01*
X56986037Y-91270135D01*
X56931068Y-91199063D01*
X56835611Y-91128128D01*
X56730218Y-91095072D01*
X56623408Y-91097813D01*
X56523704Y-91134266D01*
X56439627Y-91202348D01*
X56379698Y-91299975D01*
X56352438Y-91425064D01*
X56347143Y-91515524D01*
X56118066Y-91515524D01*
X56118855Y-91488481D01*
X56148127Y-91315222D01*
X56211024Y-91166834D01*
X56302788Y-91047192D01*
X56418657Y-90960170D01*
X56553871Y-90909642D01*
X56703670Y-90899481D01*
X56863294Y-90933561D01*
X56879128Y-90939385D01*
X57025977Y-91020337D01*
X57143865Y-91137772D01*
X57230682Y-91288138D01*
X57284319Y-91467882D01*
X57289770Y-91528950D01*
X57302667Y-91673453D01*
G37*
G36*
X60088622Y-96662041D02*
G01*
X60087177Y-96721070D01*
X60066224Y-96880259D01*
X60018275Y-97004096D01*
X59940626Y-97097874D01*
X59830571Y-97166885D01*
X59721969Y-97200826D01*
X59583989Y-97206766D01*
X59450411Y-97176857D01*
X59333157Y-97114057D01*
X59244148Y-97021327D01*
X59217759Y-96978818D01*
X59192837Y-96917949D01*
X59203849Y-96884153D01*
X59250969Y-96873714D01*
X59257196Y-96873972D01*
X59324157Y-96900886D01*
X59404462Y-96970476D01*
X59422845Y-96989462D01*
X59479606Y-97039017D01*
X59531710Y-97061769D01*
X59598218Y-97067238D01*
X59704951Y-97054524D01*
X59810442Y-97004161D01*
X59885307Y-96916493D01*
X59928266Y-96792584D01*
X59944813Y-96704381D01*
X59555073Y-96704381D01*
X59165333Y-96704381D01*
X59165333Y-96582651D01*
X59165784Y-96558006D01*
X59171888Y-96521751D01*
X59334667Y-96521751D01*
X59334667Y-96583428D01*
X59620921Y-96583428D01*
X59731213Y-96582369D01*
X59826161Y-96579387D01*
X59892798Y-96574946D01*
X59921091Y-96569512D01*
X59925575Y-96554750D01*
X59919197Y-96504479D01*
X59898812Y-96437093D01*
X59868796Y-96369336D01*
X59824717Y-96317590D01*
X59741741Y-96271090D01*
X59642624Y-96247443D01*
X59543590Y-96250100D01*
X59460863Y-96282516D01*
X59403625Y-96340038D01*
X59354027Y-96429961D01*
X59334667Y-96521751D01*
X59171888Y-96521751D01*
X59191590Y-96404723D01*
X59254077Y-96277841D01*
X59349101Y-96181763D01*
X59472518Y-96120888D01*
X59620184Y-96099619D01*
X59694267Y-96104719D01*
X59829313Y-96145913D01*
X59939089Y-96225624D01*
X60020777Y-96340470D01*
X60071560Y-96487070D01*
X60078160Y-96554750D01*
X60088622Y-96662041D01*
G37*
G36*
X61874481Y-90929028D02*
G01*
X62007714Y-90979636D01*
X62110129Y-91048877D01*
X62215460Y-91163867D01*
X62286403Y-91307548D01*
X62324318Y-91482925D01*
X62330566Y-91693009D01*
X62319023Y-91819758D01*
X62272644Y-92001614D01*
X62192223Y-92149119D01*
X62077732Y-92262318D01*
X61929144Y-92341256D01*
X61841992Y-92363742D01*
X61693756Y-92367895D01*
X61542438Y-92337830D01*
X61402732Y-92277041D01*
X61289331Y-92189025D01*
X61280816Y-92179539D01*
X61237094Y-92119046D01*
X61194334Y-92045318D01*
X61161850Y-91975700D01*
X61148952Y-91927539D01*
X61153852Y-91923722D01*
X61192654Y-91917232D01*
X61257485Y-91914666D01*
X61287299Y-91914957D01*
X61343070Y-91921987D01*
X61375048Y-91946434D01*
X61401172Y-91998803D01*
X61412712Y-92022593D01*
X61482007Y-92102963D01*
X61579231Y-92157129D01*
X61692401Y-92182016D01*
X61809534Y-92174546D01*
X61918646Y-92131645D01*
X61957877Y-92101384D01*
X62025599Y-92010651D01*
X62074609Y-91890838D01*
X62103879Y-91752821D01*
X62112385Y-91607475D01*
X62099103Y-91465677D01*
X62063005Y-91338301D01*
X62003068Y-91236222D01*
X61908845Y-91151848D01*
X61797045Y-91102352D01*
X61682037Y-91093773D01*
X61572401Y-91125143D01*
X61476721Y-91195494D01*
X61403578Y-91303857D01*
X61385765Y-91340886D01*
X61355727Y-91385447D01*
X61317162Y-91403366D01*
X61252388Y-91406666D01*
X61244983Y-91406667D01*
X61183942Y-91404453D01*
X61156551Y-91390130D01*
X61155780Y-91352160D01*
X61174597Y-91279005D01*
X61182734Y-91253955D01*
X61243557Y-91144097D01*
X61336510Y-91043074D01*
X61449043Y-90965233D01*
X61576486Y-90921992D01*
X61724910Y-90909663D01*
X61874481Y-90929028D01*
G37*
G36*
X56276436Y-117053346D02*
G01*
X56415777Y-117060666D01*
X56652807Y-117665428D01*
X56714661Y-117822945D01*
X56773992Y-117973438D01*
X56825985Y-118104708D01*
X56868071Y-118210293D01*
X56897687Y-118283734D01*
X56912264Y-118318571D01*
X56934693Y-118366952D01*
X56952549Y-118318571D01*
X56970080Y-118272514D01*
X57005351Y-118183046D01*
X57051330Y-118068567D01*
X57105130Y-117936063D01*
X57163862Y-117792518D01*
X57224641Y-117644918D01*
X57284578Y-117500248D01*
X57340786Y-117365494D01*
X57390378Y-117247639D01*
X57430466Y-117153670D01*
X57458163Y-117090572D01*
X57470582Y-117065330D01*
X57484511Y-117059055D01*
X57537167Y-117052550D01*
X57610669Y-117053235D01*
X57732056Y-117060666D01*
X57396975Y-117822666D01*
X57334905Y-117964545D01*
X57260852Y-118135861D01*
X57195166Y-118290115D01*
X57140108Y-118421879D01*
X57097941Y-118525727D01*
X57070927Y-118596231D01*
X57061328Y-118627963D01*
X57063204Y-118644089D01*
X57081090Y-118702669D01*
X57111873Y-118773106D01*
X57169538Y-118872073D01*
X57262416Y-118976100D01*
X57369795Y-119036719D01*
X57494989Y-119056381D01*
X57592952Y-119056381D01*
X57592952Y-119153143D01*
X57592952Y-119249905D01*
X57453857Y-119249373D01*
X57401145Y-119247424D01*
X57254124Y-119218028D01*
X57129665Y-119150783D01*
X57022990Y-119042415D01*
X56929324Y-118889646D01*
X56928624Y-118888248D01*
X56905657Y-118838671D01*
X56866613Y-118750496D01*
X56813962Y-118629464D01*
X56750175Y-118481311D01*
X56677724Y-118311778D01*
X56599081Y-118126602D01*
X56516716Y-117931524D01*
X56505172Y-117904105D01*
X56425630Y-117715420D01*
X56352089Y-117541369D01*
X56286672Y-117386945D01*
X56231502Y-117257145D01*
X56188700Y-117156964D01*
X56160390Y-117091397D01*
X56148695Y-117065441D01*
X56158209Y-117057563D01*
X56204104Y-117052446D01*
X56276436Y-117053346D01*
G37*
G36*
X68696979Y-90938583D02*
G01*
X68831391Y-90996543D01*
X68940185Y-91085954D01*
X69034889Y-91228590D01*
X69096266Y-91400846D01*
X69121300Y-91593870D01*
X69108248Y-91800258D01*
X69090764Y-91890641D01*
X69033461Y-92056011D01*
X68946651Y-92185644D01*
X68827294Y-92283399D01*
X68672347Y-92353134D01*
X68641715Y-92360648D01*
X68542393Y-92367713D01*
X68426265Y-92359803D01*
X68313422Y-92338975D01*
X68223955Y-92307282D01*
X68186736Y-92286703D01*
X68071147Y-92193563D01*
X67985592Y-92067058D01*
X67952940Y-91992423D01*
X67949272Y-91944375D01*
X67980373Y-91921050D01*
X68049286Y-91915190D01*
X68058129Y-91915264D01*
X68122292Y-91921054D01*
X68159350Y-91943575D01*
X68188381Y-91993580D01*
X68194426Y-92005274D01*
X68244743Y-92071668D01*
X68309333Y-92128245D01*
X68324585Y-92138175D01*
X68382332Y-92166689D01*
X68446085Y-92177558D01*
X68536601Y-92175058D01*
X68589313Y-92170492D01*
X68656832Y-92156914D01*
X68706691Y-92129089D01*
X68758595Y-92078439D01*
X68808645Y-92014390D01*
X68855887Y-91915583D01*
X68881760Y-91793402D01*
X68889635Y-91636476D01*
X68885926Y-91524609D01*
X68865158Y-91388748D01*
X68823674Y-91282997D01*
X68758691Y-91198043D01*
X68710869Y-91158389D01*
X68607329Y-91110462D01*
X68495732Y-91096441D01*
X68386286Y-91113982D01*
X68289204Y-91160738D01*
X68214695Y-91234368D01*
X68172971Y-91332525D01*
X68168654Y-91352415D01*
X68152665Y-91388826D01*
X68118987Y-91403774D01*
X68052310Y-91406666D01*
X68047873Y-91406660D01*
X67983211Y-91402971D01*
X67953578Y-91388522D01*
X67946476Y-91357508D01*
X67950987Y-91319491D01*
X67978545Y-91233475D01*
X68022947Y-91143884D01*
X68074631Y-91072023D01*
X68126734Y-91024853D01*
X68251826Y-90955209D01*
X68396017Y-90917737D01*
X68548128Y-90912254D01*
X68696979Y-90938583D01*
G37*
G36*
X72128165Y-96612386D02*
G01*
X72114852Y-96658279D01*
X72072885Y-96802453D01*
X72035661Y-96929599D01*
X72005351Y-97032353D01*
X71984122Y-97103353D01*
X71974145Y-97135233D01*
X71943195Y-97156556D01*
X71872519Y-97159424D01*
X71782554Y-97151905D01*
X71685586Y-96758809D01*
X71660764Y-96659959D01*
X71630050Y-96542786D01*
X71604081Y-96449550D01*
X71585024Y-96387957D01*
X71575048Y-96365714D01*
X71568510Y-96378382D01*
X71551525Y-96430832D01*
X71527084Y-96516857D01*
X71497354Y-96628752D01*
X71464501Y-96758809D01*
X71367524Y-97151905D01*
X71271715Y-97158877D01*
X71175905Y-97165849D01*
X71032654Y-96675067D01*
X71019199Y-96628998D01*
X70977073Y-96485091D01*
X70939813Y-96358311D01*
X70909584Y-96255990D01*
X70888550Y-96185458D01*
X70878875Y-96154047D01*
X70878077Y-96151226D01*
X70893961Y-96130550D01*
X70954670Y-96123809D01*
X70961866Y-96123832D01*
X71016174Y-96129597D01*
X71044803Y-96155182D01*
X71064652Y-96214524D01*
X71065395Y-96217376D01*
X71081163Y-96278478D01*
X71105438Y-96373156D01*
X71135047Y-96489018D01*
X71166819Y-96613666D01*
X71173245Y-96638728D01*
X71202924Y-96749674D01*
X71228975Y-96839674D01*
X71248784Y-96900042D01*
X71259734Y-96922095D01*
X71266479Y-96909434D01*
X71283713Y-96856988D01*
X71308353Y-96770962D01*
X71338216Y-96659064D01*
X71371118Y-96529000D01*
X71468095Y-96135905D01*
X71566780Y-96128621D01*
X71665466Y-96121337D01*
X71769625Y-96539276D01*
X71801578Y-96663581D01*
X71832374Y-96775395D01*
X71858010Y-96860086D01*
X71876466Y-96911007D01*
X71885723Y-96921512D01*
X71890432Y-96905663D01*
X71906683Y-96847046D01*
X71931380Y-96755806D01*
X71962134Y-96640793D01*
X71996558Y-96510857D01*
X72095455Y-96135905D01*
X72182989Y-96128577D01*
X72270524Y-96121249D01*
X72128165Y-96612386D01*
G37*
G36*
X75179429Y-92350095D02*
G01*
X75070571Y-92350095D01*
X75029504Y-92349685D01*
X74983090Y-92343285D01*
X74964870Y-92322149D01*
X74961714Y-92277524D01*
X74959465Y-92229330D01*
X74946516Y-92209892D01*
X74913941Y-92222766D01*
X74852816Y-92267100D01*
X74839215Y-92277085D01*
X74767425Y-92321259D01*
X74703240Y-92349687D01*
X74691658Y-92353025D01*
X74539079Y-92372915D01*
X74390352Y-92351117D01*
X74256037Y-92290578D01*
X74146690Y-92194249D01*
X74096889Y-92123900D01*
X74038386Y-91992957D01*
X74004819Y-91833562D01*
X73994095Y-91638089D01*
X73994114Y-91636476D01*
X74223905Y-91636476D01*
X74225981Y-91733375D01*
X74241134Y-91873314D01*
X74273601Y-91979754D01*
X74326479Y-92061164D01*
X74402863Y-92126014D01*
X74418352Y-92135666D01*
X74531205Y-92175367D01*
X74652613Y-92173539D01*
X74768190Y-92130025D01*
X74809731Y-92104470D01*
X74861009Y-92066428D01*
X74896195Y-92024181D01*
X74918293Y-91968894D01*
X74930309Y-91891736D01*
X74935249Y-91783874D01*
X74936116Y-91636476D01*
X74935537Y-91508649D01*
X74933198Y-91409614D01*
X74927902Y-91341518D01*
X74918445Y-91295328D01*
X74903621Y-91262010D01*
X74882225Y-91232530D01*
X74845790Y-91194673D01*
X74743457Y-91130065D01*
X74626482Y-91098958D01*
X74508429Y-91103775D01*
X74402863Y-91146938D01*
X74356707Y-91181978D01*
X74293962Y-91255127D01*
X74252977Y-91349613D01*
X74230657Y-91473906D01*
X74223905Y-91636476D01*
X73994114Y-91636476D01*
X73994802Y-91577792D01*
X74007859Y-91406798D01*
X74039594Y-91269439D01*
X74092895Y-91156215D01*
X74170651Y-91057630D01*
X74271244Y-90974941D01*
X74406711Y-90915542D01*
X74552109Y-90900828D01*
X74701761Y-90931220D01*
X74849991Y-91007140D01*
X74937524Y-91066542D01*
X74937524Y-90692318D01*
X74937524Y-90318095D01*
X75058476Y-90318095D01*
X75179429Y-90318095D01*
X75179429Y-91334095D01*
X75179429Y-91636476D01*
X75179429Y-92350095D01*
G37*
G36*
X67926092Y-116634242D02*
G01*
X68077860Y-116667872D01*
X68204555Y-116731029D01*
X68315721Y-116827258D01*
X68398898Y-116929569D01*
X68461728Y-117042450D01*
X68504985Y-117173132D01*
X68531909Y-117331471D01*
X68545737Y-117527320D01*
X68547558Y-117586181D01*
X68543833Y-117816182D01*
X68519907Y-118009527D01*
X68474041Y-118172903D01*
X68404500Y-118312995D01*
X68309547Y-118436490D01*
X68223601Y-118517809D01*
X68094884Y-118596729D01*
X67940012Y-118644522D01*
X67829900Y-118657374D01*
X67647592Y-118646122D01*
X67454999Y-118600110D01*
X67263706Y-118521445D01*
X67124000Y-118450922D01*
X67124000Y-118027937D01*
X67124000Y-117604952D01*
X67462667Y-117604952D01*
X67801333Y-117604952D01*
X67801333Y-117712867D01*
X67801333Y-117820783D01*
X67589667Y-117827772D01*
X67378000Y-117834762D01*
X67370863Y-118040381D01*
X67368118Y-118138966D01*
X67369772Y-118234775D01*
X67380742Y-118298327D01*
X67404570Y-118338774D01*
X67444799Y-118365271D01*
X67504971Y-118386972D01*
X67542120Y-118398086D01*
X67718905Y-118433237D01*
X67868432Y-118429495D01*
X67992856Y-118386187D01*
X68094332Y-118302643D01*
X68175015Y-118178191D01*
X68216767Y-118072049D01*
X68253091Y-117917338D01*
X68271684Y-117748100D01*
X68273370Y-117573105D01*
X68258970Y-117401127D01*
X68229307Y-117240938D01*
X68185204Y-117101308D01*
X68127482Y-116991010D01*
X68056964Y-116918816D01*
X68055912Y-116918130D01*
X67933814Y-116863176D01*
X67797432Y-116841057D01*
X67667740Y-116855200D01*
X67593734Y-116887220D01*
X67501423Y-116953806D01*
X67424341Y-117036372D01*
X67378198Y-117120518D01*
X67361511Y-117151144D01*
X67329740Y-117162252D01*
X67273761Y-117152174D01*
X67183919Y-117120931D01*
X67167467Y-117113627D01*
X67137945Y-117084972D01*
X67137905Y-117040679D01*
X67168620Y-116974263D01*
X67231364Y-116879238D01*
X67296400Y-116802588D01*
X67428249Y-116705639D01*
X67588408Y-116646432D01*
X67774198Y-116626217D01*
X67926092Y-116634242D01*
G37*
G36*
X63084190Y-117826558D02*
G01*
X63069328Y-118029487D01*
X63021486Y-118219938D01*
X62942456Y-118379397D01*
X62834110Y-118505066D01*
X62698322Y-118594149D01*
X62536963Y-118643849D01*
X62434517Y-118654809D01*
X62252219Y-118647540D01*
X62077956Y-118609347D01*
X61928287Y-118542975D01*
X61897564Y-118520559D01*
X61841305Y-118466968D01*
X61786874Y-118403930D01*
X61745779Y-118345240D01*
X61729524Y-118304690D01*
X61732501Y-118300173D01*
X61766524Y-118282029D01*
X61826321Y-118260942D01*
X61882606Y-118246101D01*
X61921933Y-118247883D01*
X61959926Y-118272830D01*
X62013797Y-118327009D01*
X62047952Y-118359433D01*
X62166668Y-118434116D01*
X62298124Y-118470753D01*
X62432122Y-118469000D01*
X62558463Y-118428515D01*
X62666949Y-118348956D01*
X62672126Y-118343500D01*
X62746977Y-118235357D01*
X62798755Y-118105460D01*
X62818095Y-117976863D01*
X62818095Y-117895238D01*
X62246069Y-117895238D01*
X61674044Y-117895238D01*
X61688977Y-117719857D01*
X61690817Y-117701714D01*
X61941055Y-117701714D01*
X62382667Y-117701714D01*
X62824279Y-117701714D01*
X62807949Y-117599595D01*
X62797925Y-117551621D01*
X62752667Y-117431391D01*
X62686668Y-117329377D01*
X62608763Y-117260611D01*
X62586287Y-117249239D01*
X62503989Y-117220781D01*
X62415240Y-117203281D01*
X62296228Y-117207260D01*
X62175109Y-117252098D01*
X62074730Y-117335490D01*
X62000389Y-117452852D01*
X61957384Y-117599595D01*
X61941055Y-117701714D01*
X61690817Y-117701714D01*
X61694318Y-117667179D01*
X61733887Y-117469161D01*
X61801914Y-117308531D01*
X61899612Y-117183034D01*
X62028197Y-117090414D01*
X62045196Y-117081673D01*
X62101352Y-117058919D01*
X62165408Y-117045244D01*
X62250831Y-117038536D01*
X62371090Y-117036687D01*
X62441970Y-117037040D01*
X62539215Y-117040761D01*
X62610540Y-117050520D01*
X62670328Y-117068749D01*
X62732961Y-117097880D01*
X62827770Y-117160386D01*
X62936899Y-117280053D01*
X63017370Y-117433787D01*
X63067146Y-117617364D01*
X63074018Y-117701714D01*
X63084190Y-117826558D01*
G37*
G36*
X65071442Y-96104565D02*
G01*
X65104345Y-96107291D01*
X65182399Y-96120483D01*
X65239907Y-96147418D01*
X65297888Y-96196641D01*
X65382286Y-96278443D01*
X65382286Y-96201126D01*
X65385136Y-96155661D01*
X65404550Y-96129246D01*
X65454857Y-96123809D01*
X65527429Y-96123809D01*
X65527429Y-96643905D01*
X65527429Y-97164000D01*
X65442762Y-97164000D01*
X65358095Y-97164000D01*
X65358095Y-96782335D01*
X65357331Y-96638628D01*
X65353354Y-96515465D01*
X65344001Y-96426216D01*
X65327117Y-96363223D01*
X65300546Y-96318825D01*
X65262132Y-96285366D01*
X65209718Y-96255184D01*
X65197644Y-96249390D01*
X65107545Y-96230109D01*
X65022771Y-96248068D01*
X64958982Y-96300441D01*
X64954207Y-96308129D01*
X64941381Y-96343152D01*
X64932366Y-96398710D01*
X64926609Y-96481758D01*
X64923560Y-96599251D01*
X64922667Y-96758144D01*
X64922667Y-97164000D01*
X64838000Y-97164000D01*
X64753333Y-97164000D01*
X64753243Y-96795095D01*
X64752878Y-96686458D01*
X64750796Y-96569880D01*
X64746053Y-96486688D01*
X64737737Y-96428146D01*
X64724935Y-96385517D01*
X64706734Y-96350065D01*
X64677612Y-96311626D01*
X64599463Y-96254610D01*
X64509334Y-96232029D01*
X64422109Y-96249160D01*
X64393961Y-96264289D01*
X64356493Y-96294963D01*
X64329623Y-96338485D01*
X64311648Y-96401952D01*
X64300866Y-96492461D01*
X64295574Y-96617111D01*
X64294071Y-96783000D01*
X64293714Y-97164000D01*
X64221143Y-97164000D01*
X64148571Y-97164000D01*
X64148571Y-96727370D01*
X64148619Y-96683268D01*
X64150381Y-96514849D01*
X64155828Y-96386801D01*
X64166517Y-96292611D01*
X64184006Y-96225765D01*
X64209853Y-96179751D01*
X64245616Y-96148055D01*
X64292854Y-96124166D01*
X64355145Y-96106981D01*
X64471742Y-96103808D01*
X64589392Y-96128423D01*
X64686633Y-96177898D01*
X64767116Y-96239285D01*
X64848255Y-96166788D01*
X64887771Y-96133661D01*
X64933023Y-96108892D01*
X64987843Y-96100979D01*
X65071442Y-96104565D01*
G37*
G36*
X73681004Y-96276203D02*
G01*
X73673407Y-96302751D01*
X73646421Y-96396919D01*
X73611242Y-96519559D01*
X73571575Y-96657754D01*
X73531126Y-96798587D01*
X73425619Y-97165811D01*
X73330059Y-97158858D01*
X73234500Y-97151905D01*
X73140290Y-96757071D01*
X73115412Y-96655605D01*
X73085438Y-96541032D01*
X73059834Y-96451693D01*
X73040724Y-96394902D01*
X73030230Y-96377971D01*
X73024252Y-96391051D01*
X73006900Y-96444729D01*
X72981774Y-96531755D01*
X72951228Y-96643867D01*
X72917619Y-96772805D01*
X72820857Y-97151905D01*
X72725525Y-97151905D01*
X72630192Y-97151905D01*
X72478281Y-96643905D01*
X72458685Y-96578334D01*
X72416303Y-96436200D01*
X72379809Y-96313382D01*
X72351204Y-96216638D01*
X72332488Y-96152723D01*
X72325661Y-96128397D01*
X72326949Y-96127188D01*
X72357054Y-96125337D01*
X72414723Y-96128397D01*
X72504494Y-96135905D01*
X72601462Y-96529000D01*
X72626339Y-96627775D01*
X72657368Y-96744976D01*
X72683850Y-96838235D01*
X72703570Y-96899845D01*
X72714315Y-96922095D01*
X72715833Y-96921108D01*
X72729194Y-96890405D01*
X72750578Y-96823127D01*
X72777370Y-96727979D01*
X72806954Y-96613666D01*
X72838149Y-96487713D01*
X72871121Y-96354881D01*
X72896181Y-96258647D01*
X72915937Y-96193191D01*
X72932999Y-96152690D01*
X72949975Y-96131322D01*
X72969474Y-96123267D01*
X72994105Y-96122704D01*
X73026476Y-96123809D01*
X73049455Y-96123354D01*
X73077203Y-96123629D01*
X73098979Y-96130215D01*
X73117316Y-96148913D01*
X73134742Y-96185529D01*
X73153787Y-96245865D01*
X73176982Y-96335726D01*
X73206856Y-96460914D01*
X73245940Y-96627234D01*
X73254796Y-96664464D01*
X73282153Y-96775348D01*
X73305450Y-96863748D01*
X73322454Y-96921434D01*
X73330930Y-96940180D01*
X73336894Y-96924223D01*
X73353796Y-96868033D01*
X73379037Y-96778964D01*
X73410408Y-96664848D01*
X73445698Y-96533518D01*
X73551417Y-96135905D01*
X73638396Y-96128475D01*
X73725376Y-96121045D01*
X73681004Y-96276203D01*
G37*
G36*
X66301941Y-96110870D02*
G01*
X66424833Y-96154422D01*
X66513650Y-96229233D01*
X66565706Y-96333680D01*
X66575264Y-96379440D01*
X66568818Y-96487458D01*
X66518161Y-96578134D01*
X66424597Y-96649738D01*
X66289429Y-96700539D01*
X66276544Y-96703842D01*
X66182527Y-96728055D01*
X66089792Y-96752083D01*
X66070522Y-96757713D01*
X65987684Y-96801256D01*
X65939881Y-96860709D01*
X65929159Y-96926656D01*
X65957563Y-96989684D01*
X66027139Y-97040380D01*
X66108773Y-97064489D01*
X66213461Y-97065929D01*
X66311320Y-97040053D01*
X66389405Y-96990640D01*
X66434772Y-96921464D01*
X66436481Y-96916560D01*
X66466906Y-96883423D01*
X66530416Y-96873714D01*
X66550513Y-96873796D01*
X66591558Y-96879242D01*
X66601846Y-96903496D01*
X66591282Y-96960719D01*
X66558527Y-97045407D01*
X66485417Y-97133764D01*
X66387523Y-97187984D01*
X66318117Y-97201056D01*
X66211433Y-97205029D01*
X66097513Y-97197255D01*
X65994702Y-97179145D01*
X65921342Y-97152112D01*
X65920518Y-97151624D01*
X65836769Y-97078890D01*
X65784807Y-96986201D01*
X65766741Y-96885261D01*
X65784686Y-96787778D01*
X65840752Y-96705457D01*
X65857032Y-96690809D01*
X65893569Y-96663698D01*
X65938972Y-96640586D01*
X66002822Y-96617800D01*
X66094698Y-96591669D01*
X66224181Y-96558522D01*
X66252865Y-96550285D01*
X66340111Y-96509802D01*
X66400139Y-96457232D01*
X66422476Y-96400900D01*
X66422327Y-96398100D01*
X66403612Y-96354766D01*
X66363100Y-96304138D01*
X66337980Y-96281862D01*
X66277709Y-96252778D01*
X66192667Y-96244762D01*
X66149482Y-96246282D01*
X66078409Y-96262956D01*
X66022234Y-96304138D01*
X66016996Y-96309474D01*
X65978591Y-96355968D01*
X65962857Y-96388805D01*
X65962851Y-96389125D01*
X65941236Y-96406771D01*
X65890286Y-96414095D01*
X65854541Y-96412199D01*
X65824392Y-96394640D01*
X65817714Y-96346906D01*
X65820512Y-96311993D01*
X65857397Y-96224595D01*
X65932883Y-96157615D01*
X66041611Y-96114731D01*
X66178220Y-96099619D01*
X66301941Y-96110870D01*
G37*
G36*
X73957634Y-117834762D02*
G01*
X73957530Y-117882110D01*
X73955767Y-118004070D01*
X73950665Y-118092883D01*
X73940723Y-118160109D01*
X73924440Y-118217307D01*
X73900313Y-118276036D01*
X73849048Y-118370921D01*
X73740207Y-118497713D01*
X73599647Y-118588613D01*
X73425619Y-118644980D01*
X73315806Y-118658099D01*
X73152829Y-118647629D01*
X72995253Y-118606038D01*
X72856014Y-118537149D01*
X72748047Y-118444783D01*
X72683452Y-118357693D01*
X72633710Y-118257001D01*
X72601535Y-118138926D01*
X72584264Y-117993454D01*
X72579895Y-117834762D01*
X72845127Y-117834762D01*
X72845132Y-117839825D01*
X72851055Y-118016167D01*
X72869831Y-118153109D01*
X72903922Y-118258322D01*
X72955788Y-118339477D01*
X73027892Y-118404246D01*
X73110219Y-118445268D01*
X73230411Y-118470274D01*
X73354300Y-118467267D01*
X73461423Y-118434803D01*
X73553310Y-118369530D01*
X73625514Y-118272843D01*
X73673044Y-118144074D01*
X73697317Y-117979298D01*
X73699751Y-117774588D01*
X73697287Y-117713572D01*
X73690040Y-117608039D01*
X73678223Y-117531567D01*
X73659303Y-117470871D01*
X73630747Y-117412665D01*
X73609466Y-117377564D01*
X73521182Y-117280874D01*
X73408998Y-117224751D01*
X73268381Y-117206616D01*
X73195286Y-117210540D01*
X73074027Y-117243416D01*
X72979770Y-117313150D01*
X72905524Y-117423929D01*
X72898558Y-117438003D01*
X72874553Y-117493124D01*
X72858984Y-117548278D01*
X72850074Y-117615548D01*
X72846047Y-117707015D01*
X72845127Y-117834762D01*
X72579895Y-117834762D01*
X72579229Y-117810571D01*
X72580350Y-117688468D01*
X72584824Y-117591349D01*
X72594306Y-117518973D01*
X72610462Y-117459061D01*
X72634954Y-117399333D01*
X72675932Y-117319755D01*
X72769360Y-117195127D01*
X72885666Y-117107785D01*
X73030902Y-117053843D01*
X73211120Y-117029414D01*
X73361782Y-117030201D01*
X73535793Y-117062006D01*
X73680050Y-117130285D01*
X73797164Y-117236392D01*
X73889748Y-117381684D01*
X73912545Y-117429758D01*
X73933479Y-117483579D01*
X73946717Y-117539394D01*
X73953997Y-117608800D01*
X73957057Y-117703391D01*
X73957370Y-117774588D01*
X73957634Y-117834762D01*
G37*
G36*
X55462024Y-90925569D02*
G01*
X55597744Y-90979260D01*
X55615052Y-90989375D01*
X55719974Y-91077247D01*
X55782283Y-91187737D01*
X55802857Y-91322315D01*
X55797761Y-91398094D01*
X55772304Y-91481920D01*
X55720500Y-91550353D01*
X55636871Y-91608112D01*
X55515941Y-91659915D01*
X55352231Y-91710478D01*
X55295341Y-91726583D01*
X55165543Y-91768924D01*
X55075302Y-91810362D01*
X55018465Y-91855237D01*
X54988876Y-91907888D01*
X54980381Y-91972654D01*
X54987533Y-92028077D01*
X55032435Y-92102834D01*
X55118000Y-92152267D01*
X55243566Y-92175867D01*
X55319627Y-92177522D01*
X55449057Y-92155253D01*
X55544762Y-92098504D01*
X55607015Y-92007148D01*
X55621911Y-91973241D01*
X55648582Y-91933721D01*
X55688006Y-91917902D01*
X55757976Y-91914912D01*
X55870334Y-91914666D01*
X55852474Y-91993855D01*
X55834824Y-92053861D01*
X55764617Y-92176855D01*
X55655153Y-92272071D01*
X55507206Y-92338732D01*
X55353655Y-92369779D01*
X55203185Y-92368450D01*
X55064701Y-92337574D01*
X54944181Y-92280899D01*
X54847607Y-92202173D01*
X54780956Y-92105146D01*
X54750211Y-91993566D01*
X54761348Y-91871181D01*
X54768634Y-91847774D01*
X54830509Y-91742798D01*
X54936165Y-91654452D01*
X55086318Y-91582260D01*
X55281686Y-91525745D01*
X55328269Y-91514142D01*
X55453683Y-91466656D01*
X55538237Y-91406201D01*
X55580066Y-91335443D01*
X55577302Y-91257051D01*
X55528079Y-91173690D01*
X55493290Y-91137759D01*
X55454455Y-91115808D01*
X55398824Y-91106328D01*
X55310635Y-91104285D01*
X55233843Y-91105797D01*
X55170994Y-91114608D01*
X55125026Y-91136030D01*
X55078731Y-91175335D01*
X55062462Y-91191992D01*
X55021130Y-91246832D01*
X55004571Y-91290240D01*
X55004400Y-91295678D01*
X54993345Y-91319773D01*
X54956879Y-91331202D01*
X54883619Y-91334095D01*
X54871980Y-91334048D01*
X54800035Y-91328229D01*
X54766718Y-91306521D01*
X54767024Y-91260144D01*
X54795947Y-91180318D01*
X54828649Y-91120230D01*
X54917070Y-91027629D01*
X55034285Y-90959438D01*
X55170628Y-90918082D01*
X55316430Y-90905984D01*
X55462024Y-90925569D01*
G37*
G36*
X70304546Y-96503580D02*
G01*
X70324978Y-96588691D01*
X70355101Y-96710729D01*
X70381009Y-96811617D01*
X70400459Y-96882696D01*
X70411208Y-96915307D01*
X70420489Y-96906121D01*
X70440017Y-96857373D01*
X70467095Y-96774616D01*
X70499511Y-96664658D01*
X70535052Y-96534307D01*
X70643008Y-96123809D01*
X70721980Y-96123809D01*
X70728174Y-96123866D01*
X70779776Y-96129780D01*
X70800952Y-96142449D01*
X70797987Y-96156014D01*
X70784015Y-96209442D01*
X70760716Y-96295208D01*
X70730457Y-96404880D01*
X70695605Y-96530028D01*
X70658528Y-96662221D01*
X70621593Y-96793027D01*
X70587167Y-96914015D01*
X70557618Y-97016754D01*
X70535312Y-97092814D01*
X70522617Y-97133762D01*
X70520089Y-97138293D01*
X70483467Y-97156705D01*
X70419921Y-97164000D01*
X70327658Y-97164000D01*
X70234673Y-96783000D01*
X70213480Y-96697507D01*
X70182505Y-96577436D01*
X70155709Y-96479304D01*
X70135409Y-96411492D01*
X70123922Y-96382383D01*
X70121921Y-96381903D01*
X70107685Y-96406772D01*
X70085720Y-96468840D01*
X70058634Y-96560132D01*
X70029034Y-96672668D01*
X69997991Y-96797966D01*
X69964883Y-96931266D01*
X69939740Y-97027918D01*
X69919997Y-97093739D01*
X69903091Y-97134547D01*
X69886460Y-97156159D01*
X69867541Y-97164393D01*
X69843771Y-97165068D01*
X69812588Y-97164000D01*
X69721135Y-97164000D01*
X69580087Y-96686238D01*
X69570296Y-96653063D01*
X69527829Y-96508942D01*
X69490092Y-96380514D01*
X69459333Y-96275455D01*
X69437802Y-96201439D01*
X69427746Y-96166143D01*
X69425540Y-96145711D01*
X69444793Y-96128263D01*
X69501290Y-96123809D01*
X69586128Y-96123809D01*
X69636327Y-96311285D01*
X69642367Y-96333983D01*
X69674130Y-96456211D01*
X69709025Y-96594040D01*
X69740528Y-96721766D01*
X69754940Y-96779741D01*
X69777184Y-96862789D01*
X69794198Y-96918175D01*
X69803139Y-96936162D01*
X69808782Y-96920777D01*
X69825192Y-96865157D01*
X69849831Y-96776540D01*
X69880527Y-96662780D01*
X69915104Y-96531729D01*
X70018462Y-96135905D01*
X70116116Y-96128627D01*
X70213771Y-96121350D01*
X70304546Y-96503580D01*
G37*
G36*
X73355111Y-90936248D02*
G01*
X73476886Y-90996391D01*
X73571803Y-91082418D01*
X73633454Y-91190610D01*
X73655429Y-91317246D01*
X73655315Y-91329587D01*
X73643917Y-91424353D01*
X73610191Y-91501970D01*
X73548953Y-91566598D01*
X73455021Y-91622396D01*
X73323211Y-91673521D01*
X73148341Y-91724134D01*
X73045640Y-91754720D01*
X72947510Y-91794394D01*
X72888293Y-91832936D01*
X72864748Y-91861367D01*
X72833541Y-91944919D01*
X72843872Y-92032560D01*
X72895377Y-92110021D01*
X72931866Y-92139368D01*
X72975894Y-92158024D01*
X73038961Y-92166601D01*
X73135694Y-92168666D01*
X73162508Y-92168602D01*
X73247663Y-92165862D01*
X73303517Y-92155880D01*
X73345399Y-92134300D01*
X73388634Y-92096765D01*
X73403917Y-92081278D01*
X73451507Y-92021275D01*
X73477511Y-91969765D01*
X73477596Y-91969428D01*
X73493896Y-91934530D01*
X73529013Y-91918513D01*
X73597575Y-91914666D01*
X73606436Y-91914690D01*
X73668950Y-91918633D01*
X73697199Y-91933538D01*
X73703810Y-91965439D01*
X73700695Y-92002743D01*
X73662579Y-92105557D01*
X73587586Y-92201761D01*
X73483918Y-92282452D01*
X73359778Y-92338732D01*
X73324669Y-92348760D01*
X73171479Y-92371706D01*
X73024749Y-92362990D01*
X72890433Y-92326435D01*
X72774483Y-92265859D01*
X72682852Y-92185084D01*
X72621493Y-92087928D01*
X72596358Y-91978212D01*
X72613401Y-91859757D01*
X72632135Y-91813611D01*
X72695276Y-91724444D01*
X72792387Y-91649812D01*
X72928179Y-91586582D01*
X73107366Y-91531625D01*
X73142020Y-91522515D01*
X73266344Y-91483567D01*
X73350968Y-91443161D01*
X73402852Y-91397181D01*
X73428955Y-91341513D01*
X73434472Y-91281996D01*
X73407661Y-91203160D01*
X73344241Y-91142785D01*
X73250731Y-91106228D01*
X73133647Y-91098844D01*
X73130931Y-91099043D01*
X73006593Y-91125754D01*
X72914529Y-91182888D01*
X72859411Y-91267571D01*
X72854967Y-91279352D01*
X72833039Y-91315109D01*
X72795220Y-91330685D01*
X72725354Y-91334095D01*
X72712451Y-91334046D01*
X72650190Y-91329948D01*
X72621913Y-91315295D01*
X72615238Y-91284513D01*
X72626290Y-91219676D01*
X72676069Y-91125575D01*
X72757330Y-91038501D01*
X72860624Y-90967906D01*
X72976499Y-90923240D01*
X73056627Y-90908494D01*
X73212888Y-90905709D01*
X73355111Y-90936248D01*
G37*
G36*
X61371594Y-117049328D02*
G01*
X61416183Y-117055263D01*
X61431299Y-117071466D01*
X61427712Y-117103000D01*
X61427428Y-117104282D01*
X61419789Y-117145216D01*
X61405589Y-117226648D01*
X61385964Y-117341842D01*
X61362056Y-117484066D01*
X61335004Y-117646585D01*
X61305946Y-117822666D01*
X61304055Y-117834170D01*
X61274971Y-118010488D01*
X61247884Y-118173573D01*
X61223955Y-118316522D01*
X61204344Y-118432433D01*
X61190213Y-118514402D01*
X61182722Y-118555526D01*
X61180756Y-118564893D01*
X61169908Y-118597844D01*
X61147665Y-118614302D01*
X61101726Y-118618833D01*
X61019789Y-118616003D01*
X60870762Y-118608857D01*
X60725619Y-118131542D01*
X60713357Y-118091368D01*
X60670131Y-117952211D01*
X60631649Y-117832025D01*
X60600179Y-117737659D01*
X60577990Y-117675961D01*
X60567351Y-117653780D01*
X60560919Y-117660784D01*
X60543844Y-117702100D01*
X60524023Y-117768238D01*
X60517163Y-117793487D01*
X60493909Y-117875149D01*
X60461391Y-117986345D01*
X60422937Y-118115753D01*
X60381872Y-118252047D01*
X60269924Y-118620952D01*
X60121966Y-118620952D01*
X59974009Y-118620952D01*
X59844553Y-117865000D01*
X59827959Y-117768410D01*
X59796831Y-117588923D01*
X59768403Y-117427177D01*
X59743750Y-117289162D01*
X59723947Y-117180873D01*
X59710071Y-117108300D01*
X59703195Y-117077437D01*
X59707562Y-117059309D01*
X59744285Y-117051659D01*
X59821134Y-117053247D01*
X59950973Y-117060666D01*
X60028847Y-117532381D01*
X60052933Y-117682285D01*
X60077088Y-117840810D01*
X60097970Y-117986211D01*
X60113929Y-118106971D01*
X60123315Y-118191571D01*
X60130402Y-118260061D01*
X60143810Y-118340306D01*
X60158550Y-118374243D01*
X60174197Y-118361180D01*
X60190325Y-118300428D01*
X60195203Y-118278906D01*
X60213868Y-118208400D01*
X60242497Y-118107168D01*
X60278208Y-117985305D01*
X60318119Y-117852905D01*
X60430875Y-117484000D01*
X60568656Y-117484000D01*
X60706437Y-117484000D01*
X60792874Y-117756143D01*
X60820174Y-117842503D01*
X60863820Y-117981889D01*
X60905057Y-118114949D01*
X60937704Y-118221809D01*
X60996097Y-118415333D01*
X61012186Y-118270190D01*
X61014289Y-118252111D01*
X61024653Y-118170696D01*
X61040296Y-118054046D01*
X61059927Y-117911573D01*
X61082253Y-117752690D01*
X61105983Y-117586809D01*
X61183690Y-117048571D01*
X61311925Y-117048571D01*
X61371594Y-117049328D01*
G37*
G36*
X70559100Y-91971863D02*
G01*
X70549911Y-92068728D01*
X70538163Y-92102199D01*
X70482609Y-92189046D01*
X70400574Y-92269558D01*
X70306048Y-92328815D01*
X70270435Y-92342908D01*
X70132686Y-92367883D01*
X69986569Y-92356775D01*
X69847547Y-92312075D01*
X69731082Y-92236270D01*
X69702578Y-92214617D01*
X69685981Y-92223899D01*
X69673194Y-92273886D01*
X69662748Y-92315324D01*
X69643344Y-92339288D01*
X69602401Y-92348555D01*
X69526501Y-92350095D01*
X69450434Y-92347367D01*
X69414884Y-92337887D01*
X69414176Y-92319857D01*
X69416677Y-92311934D01*
X69423185Y-92261851D01*
X69430028Y-92173923D01*
X69436758Y-92055587D01*
X69442926Y-91914277D01*
X69448084Y-91757428D01*
X69449037Y-91723715D01*
X69451738Y-91641385D01*
X69688190Y-91641385D01*
X69688190Y-91809786D01*
X69688191Y-91811295D01*
X69690180Y-91902868D01*
X69699006Y-91961626D01*
X69719056Y-92002870D01*
X69754714Y-92041905D01*
X69759945Y-92046779D01*
X69832019Y-92100451D01*
X69911175Y-92143193D01*
X70016779Y-92174815D01*
X70122810Y-92171481D01*
X70222851Y-92125519D01*
X70252098Y-92102898D01*
X70313902Y-92020718D01*
X70335890Y-91925088D01*
X70314367Y-91828024D01*
X70271855Y-91769133D01*
X70186970Y-91714295D01*
X70062739Y-91677055D01*
X69895810Y-91656037D01*
X69688190Y-91641385D01*
X69451738Y-91641385D01*
X69454851Y-91546468D01*
X69461170Y-91410199D01*
X69468567Y-91308556D01*
X69477611Y-91235188D01*
X69488875Y-91183743D01*
X69502931Y-91147869D01*
X69530035Y-91103382D01*
X69620049Y-91012422D01*
X69734969Y-90949945D01*
X69866303Y-90915157D01*
X70005561Y-90907263D01*
X70144251Y-90925467D01*
X70273881Y-90968976D01*
X70385961Y-91036994D01*
X70471998Y-91128727D01*
X70523501Y-91243381D01*
X70530087Y-91273120D01*
X70526102Y-91298668D01*
X70495749Y-91308373D01*
X70428024Y-91309905D01*
X70414899Y-91309849D01*
X70349364Y-91304956D01*
X70313952Y-91287163D01*
X70292957Y-91249439D01*
X70275591Y-91215897D01*
X70206499Y-91150556D01*
X70105433Y-91107714D01*
X69982105Y-91092281D01*
X69946968Y-91092671D01*
X69877544Y-91100482D01*
X69826029Y-91124893D01*
X69770438Y-91174438D01*
X69760491Y-91184502D01*
X69713878Y-91240887D01*
X69693001Y-91297385D01*
X69688190Y-91377917D01*
X69688190Y-91499148D01*
X69948238Y-91507336D01*
X70010887Y-91510123D01*
X70181419Y-91529432D01*
X70314011Y-91566384D01*
X70414858Y-91623204D01*
X70490155Y-91702119D01*
X70519432Y-91758695D01*
X70547724Y-91861055D01*
X70554298Y-91925088D01*
X70559100Y-91971863D01*
G37*
G36*
X63786490Y-91945764D02*
G01*
X63769842Y-92067475D01*
X63716155Y-92179354D01*
X63626957Y-92272746D01*
X63503770Y-92339000D01*
X63397048Y-92365384D01*
X63248349Y-92368005D01*
X63108496Y-92333735D01*
X62990735Y-92264499D01*
X62977976Y-92253918D01*
X62932557Y-92219029D01*
X62908341Y-92204952D01*
X62908093Y-92204968D01*
X62895684Y-92226777D01*
X62882200Y-92277524D01*
X62874000Y-92311221D01*
X62855818Y-92337645D01*
X62816943Y-92348189D01*
X62743540Y-92350095D01*
X62704066Y-92349748D01*
X62651487Y-92345313D01*
X62632949Y-92332623D01*
X62638759Y-92307762D01*
X62641200Y-92298744D01*
X62647683Y-92245621D01*
X62654400Y-92154855D01*
X62660915Y-92034099D01*
X62666789Y-91891009D01*
X62669545Y-91800355D01*
X62895489Y-91800355D01*
X62896276Y-91879521D01*
X62922972Y-91983735D01*
X62986286Y-92064095D01*
X63091997Y-92130304D01*
X63193287Y-92166854D01*
X63317843Y-92176269D01*
X63428297Y-92143053D01*
X63494530Y-92092570D01*
X63532495Y-92019768D01*
X63543810Y-91915102D01*
X63543096Y-91892651D01*
X63521238Y-91805493D01*
X63466461Y-91740543D01*
X63375512Y-91696053D01*
X63245141Y-91670275D01*
X63072095Y-91661460D01*
X62902762Y-91660666D01*
X62895489Y-91800355D01*
X62669545Y-91800355D01*
X62671585Y-91733238D01*
X62675051Y-91612922D01*
X62682611Y-91428686D01*
X62691740Y-91289338D01*
X62702351Y-91196035D01*
X62714361Y-91149936D01*
X62738272Y-91114868D01*
X62818547Y-91033824D01*
X62918107Y-90964330D01*
X63017349Y-90921185D01*
X63083275Y-90908462D01*
X63223749Y-90904522D01*
X63366128Y-90924828D01*
X63487375Y-90967129D01*
X63541804Y-91001216D01*
X63610209Y-91056263D01*
X63673216Y-91117206D01*
X63719400Y-91172852D01*
X63737333Y-91212006D01*
X63738981Y-91226104D01*
X63752017Y-91271640D01*
X63753922Y-91277261D01*
X63750226Y-91297684D01*
X63717355Y-91307421D01*
X63645782Y-91309905D01*
X63611615Y-91309578D01*
X63553669Y-91303922D01*
X63524505Y-91286542D01*
X63510187Y-91251426D01*
X63484525Y-91201806D01*
X63417568Y-91145536D01*
X63324773Y-91106684D01*
X63218840Y-91092190D01*
X63204758Y-91092338D01*
X63078354Y-91111396D01*
X62988118Y-91162539D01*
X62933861Y-91245933D01*
X62915395Y-91361745D01*
X62915403Y-91378398D01*
X62919803Y-91436831D01*
X62937781Y-91473517D01*
X62978031Y-91493490D01*
X63049247Y-91501783D01*
X63160124Y-91503428D01*
X63243328Y-91505343D01*
X63399809Y-91524153D01*
X63525110Y-91565112D01*
X63628562Y-91630756D01*
X63702578Y-91707452D01*
X63764577Y-91822872D01*
X63781023Y-91915102D01*
X63786490Y-91945764D01*
G37*
G36*
X63880563Y-97018424D02*
G01*
X63821990Y-97112250D01*
X63730809Y-97176516D01*
X63618991Y-97205385D01*
X63484881Y-97202620D01*
X63355801Y-97166375D01*
X63248977Y-97099408D01*
X63224169Y-97079417D01*
X63202538Y-97081375D01*
X63182423Y-97123846D01*
X63173601Y-97141759D01*
X63127104Y-97186274D01*
X63063976Y-97210148D01*
X62998660Y-97212175D01*
X62945595Y-97191147D01*
X62919222Y-97145857D01*
X62920489Y-97110480D01*
X62947733Y-97091428D01*
X62975786Y-97084359D01*
X63021986Y-97053415D01*
X63027629Y-97046939D01*
X63041139Y-97019191D01*
X63050435Y-96972810D01*
X63056213Y-96900367D01*
X63059169Y-96794427D01*
X63059223Y-96784911D01*
X63205143Y-96784911D01*
X63206004Y-96836708D01*
X63214915Y-96898156D01*
X63240365Y-96943269D01*
X63290651Y-96992160D01*
X63316991Y-97013757D01*
X63375430Y-97052195D01*
X63417651Y-97067568D01*
X63445740Y-97069494D01*
X63507524Y-97080291D01*
X63515663Y-97081657D01*
X63573268Y-97074801D01*
X63640571Y-97049723D01*
X63693737Y-97017575D01*
X63719584Y-96978023D01*
X63725238Y-96912610D01*
X63725001Y-96900548D01*
X63707782Y-96825633D01*
X63659366Y-96770526D01*
X63574211Y-96731055D01*
X63446771Y-96703049D01*
X63368380Y-96689997D01*
X63292711Y-96675869D01*
X63247476Y-96665548D01*
X63233508Y-96662642D01*
X63215379Y-96671808D01*
X63207109Y-96709222D01*
X63205143Y-96784911D01*
X63059223Y-96784911D01*
X63060000Y-96647559D01*
X63060059Y-96603178D01*
X63061499Y-96466371D01*
X63065424Y-96367891D01*
X63072567Y-96299837D01*
X63083663Y-96254307D01*
X63099447Y-96223398D01*
X63114124Y-96204857D01*
X63195876Y-96144409D01*
X63303260Y-96108887D01*
X63424651Y-96097444D01*
X63548424Y-96109238D01*
X63662955Y-96143422D01*
X63756618Y-96199154D01*
X63817788Y-96275587D01*
X63846498Y-96342186D01*
X63853654Y-96388015D01*
X63830298Y-96409045D01*
X63773619Y-96414095D01*
X63710125Y-96405701D01*
X63688952Y-96379565D01*
X63688862Y-96377648D01*
X63669085Y-96338946D01*
X63625214Y-96294898D01*
X63560270Y-96261589D01*
X63466232Y-96245081D01*
X63367939Y-96251348D01*
X63281657Y-96279088D01*
X63223656Y-96327002D01*
X63223602Y-96327084D01*
X63210977Y-96368750D01*
X63205513Y-96431387D01*
X63205511Y-96432122D01*
X63211490Y-96482472D01*
X63234896Y-96518753D01*
X63283446Y-96545192D01*
X63364857Y-96566015D01*
X63486848Y-96585448D01*
X63625198Y-96610646D01*
X63744537Y-96650652D01*
X63826306Y-96706110D01*
X63875911Y-96780870D01*
X63898758Y-96878780D01*
X63900338Y-96906012D01*
X63899177Y-96912610D01*
X63880563Y-97018424D01*
G37*
G36*
X68809014Y-97019013D02*
G01*
X68754530Y-97113541D01*
X68664317Y-97177084D01*
X68657242Y-97180002D01*
X68576600Y-97201761D01*
X68490762Y-97210903D01*
X68462145Y-97209386D01*
X68378539Y-97193178D01*
X68291971Y-97164307D01*
X68219414Y-97129115D01*
X68177842Y-97093947D01*
X68160867Y-97075133D01*
X68130278Y-97070729D01*
X68115810Y-97101796D01*
X68115735Y-97105245D01*
X68091457Y-97160216D01*
X68030943Y-97198202D01*
X67944748Y-97212381D01*
X67943232Y-97212380D01*
X67882227Y-97208653D01*
X67855580Y-97192123D01*
X67849714Y-97154527D01*
X67860702Y-97110456D01*
X67908108Y-97082017D01*
X67908289Y-97081972D01*
X67929848Y-97075366D01*
X67945453Y-97063293D01*
X67956259Y-97038602D01*
X67963424Y-96994142D01*
X67968104Y-96922762D01*
X67971454Y-96817313D01*
X67972407Y-96773344D01*
X68140000Y-96773344D01*
X68143268Y-96866900D01*
X68157676Y-96931129D01*
X68189550Y-96975717D01*
X68245210Y-97015194D01*
X68269793Y-97028945D01*
X68375528Y-97067729D01*
X68475947Y-97076073D01*
X68562966Y-97056910D01*
X68628501Y-97013173D01*
X68664467Y-96947795D01*
X68662781Y-96863709D01*
X68649306Y-96828422D01*
X68598111Y-96772693D01*
X68509645Y-96731720D01*
X68378767Y-96702588D01*
X68303368Y-96690043D01*
X68227764Y-96675926D01*
X68182333Y-96665548D01*
X68172760Y-96663172D01*
X68151877Y-96668704D01*
X68142299Y-96702012D01*
X68140000Y-96773344D01*
X67972407Y-96773344D01*
X67974632Y-96670644D01*
X67975314Y-96638089D01*
X67978965Y-96497107D01*
X67983564Y-96395112D01*
X67990095Y-96324242D01*
X67999545Y-96276629D01*
X68012899Y-96244410D01*
X68031143Y-96219719D01*
X68095918Y-96165253D01*
X68217896Y-96116050D01*
X68375080Y-96099656D01*
X68509620Y-96114103D01*
X68633329Y-96163524D01*
X68724761Y-96246069D01*
X68780684Y-96359666D01*
X68786122Y-96395267D01*
X68766521Y-96410858D01*
X68710106Y-96414095D01*
X68697577Y-96413827D01*
X68645100Y-96405393D01*
X68623810Y-96388805D01*
X68623579Y-96386343D01*
X68604588Y-96350995D01*
X68564433Y-96304138D01*
X68519336Y-96268368D01*
X68462089Y-96249653D01*
X68376292Y-96244762D01*
X68278920Y-96251536D01*
X68198503Y-96279642D01*
X68153816Y-96332837D01*
X68140000Y-96414616D01*
X68140209Y-96430104D01*
X68147636Y-96482857D01*
X68171562Y-96519955D01*
X68219924Y-96546211D01*
X68300660Y-96566437D01*
X68421705Y-96585448D01*
X68427006Y-96586192D01*
X68582778Y-96616922D01*
X68695871Y-96660943D01*
X68770918Y-96721981D01*
X68812549Y-96803759D01*
X68825397Y-96910000D01*
X68819717Y-96947795D01*
X68809014Y-97019013D01*
G37*
G36*
X59452374Y-118247911D02*
G01*
X59427382Y-118396608D01*
X59369165Y-118511142D01*
X59276885Y-118592900D01*
X59149707Y-118643272D01*
X59071194Y-118656615D01*
X58914637Y-118652705D01*
X58764779Y-118612080D01*
X58633174Y-118538611D01*
X58531373Y-118436167D01*
X58453936Y-118328338D01*
X58423078Y-118434166D01*
X58414462Y-118460412D01*
X58381569Y-118532663D01*
X58346348Y-118581507D01*
X58335528Y-118590295D01*
X58255846Y-118626397D01*
X58151969Y-118642313D01*
X58041828Y-118634897D01*
X57990428Y-118621782D01*
X57962088Y-118596613D01*
X57955810Y-118547285D01*
X57957510Y-118513845D01*
X57974777Y-118482687D01*
X58022333Y-118475439D01*
X58064343Y-118472553D01*
X58108295Y-118458205D01*
X58141569Y-118427028D01*
X58165607Y-118373773D01*
X58181851Y-118293187D01*
X58191744Y-118180017D01*
X58196728Y-118029013D01*
X58198196Y-117841253D01*
X58432272Y-117841253D01*
X58445974Y-117974016D01*
X58448744Y-117997425D01*
X58490476Y-118158766D01*
X58567086Y-118290055D01*
X58675983Y-118387950D01*
X58814571Y-118449108D01*
X58860333Y-118460961D01*
X58932021Y-118472689D01*
X58990398Y-118466592D01*
X59057063Y-118442041D01*
X59123923Y-118394601D01*
X59172975Y-118305913D01*
X59189524Y-118183184D01*
X59183004Y-118096045D01*
X59152563Y-118005765D01*
X59093140Y-117939168D01*
X59000235Y-117893228D01*
X58869353Y-117864919D01*
X58695993Y-117851216D01*
X58432272Y-117841253D01*
X58198196Y-117841253D01*
X58198246Y-117834921D01*
X58199109Y-117672718D01*
X58201708Y-117550619D01*
X58206729Y-117460602D01*
X58214857Y-117394519D01*
X58226780Y-117344224D01*
X58243184Y-117301570D01*
X58298484Y-117206807D01*
X58389426Y-117118671D01*
X58509259Y-117060923D01*
X58662220Y-117031665D01*
X58852545Y-117029005D01*
X58935849Y-117034250D01*
X59028044Y-117046570D01*
X59099689Y-117067822D01*
X59167281Y-117101822D01*
X59199751Y-117123261D01*
X59265849Y-117182114D01*
X59320954Y-117249918D01*
X59360530Y-117317935D01*
X59380039Y-117377427D01*
X59374946Y-117419656D01*
X59340714Y-117435885D01*
X59338151Y-117435923D01*
X59283394Y-117440485D01*
X59213302Y-117450231D01*
X59209940Y-117450784D01*
X59153480Y-117455562D01*
X59124553Y-117437486D01*
X59104445Y-117385410D01*
X59087172Y-117341071D01*
X59029404Y-117269549D01*
X58939406Y-117227894D01*
X58812336Y-117213252D01*
X58704493Y-117218812D01*
X58594070Y-117250656D01*
X58518386Y-117313738D01*
X58473593Y-117411673D01*
X58455841Y-117548077D01*
X58451714Y-117665428D01*
X58766680Y-117678723D01*
X58887013Y-117684711D01*
X58994875Y-117693462D01*
X59074977Y-117705682D01*
X59138524Y-117723170D01*
X59196719Y-117747723D01*
X59288284Y-117800982D01*
X59376711Y-117887368D01*
X59429335Y-117998079D01*
X59451773Y-118141790D01*
X59452007Y-118183184D01*
X59452374Y-118247911D01*
G37*
G36*
X66708348Y-118272559D02*
G01*
X66682199Y-118413232D01*
X66624113Y-118519915D01*
X66532241Y-118595531D01*
X66404735Y-118643001D01*
X66327727Y-118655743D01*
X66170990Y-118651644D01*
X66021191Y-118611102D01*
X65889857Y-118537987D01*
X65788515Y-118436167D01*
X65711078Y-118328338D01*
X65680220Y-118434166D01*
X65671605Y-118460412D01*
X65638712Y-118532663D01*
X65603491Y-118581507D01*
X65592671Y-118590295D01*
X65512989Y-118626397D01*
X65409112Y-118642313D01*
X65298971Y-118634897D01*
X65247571Y-118621782D01*
X65219231Y-118596613D01*
X65212952Y-118547285D01*
X65214653Y-118513845D01*
X65231920Y-118482687D01*
X65279476Y-118475439D01*
X65321074Y-118472866D01*
X65365544Y-118459528D01*
X65399072Y-118429960D01*
X65423167Y-118378808D01*
X65439338Y-118300722D01*
X65449093Y-118190348D01*
X65453940Y-118042335D01*
X65455388Y-117851330D01*
X65455405Y-117841254D01*
X65689442Y-117841254D01*
X65705619Y-117978894D01*
X65707493Y-117993753D01*
X65749179Y-118159118D01*
X65824530Y-118291099D01*
X65932419Y-118388246D01*
X66071714Y-118449108D01*
X66117476Y-118460961D01*
X66189164Y-118472689D01*
X66247541Y-118466592D01*
X66314205Y-118442041D01*
X66381066Y-118394601D01*
X66430118Y-118305913D01*
X66446667Y-118183184D01*
X66440149Y-118096060D01*
X66409711Y-118005775D01*
X66350290Y-117939174D01*
X66257388Y-117893231D01*
X66126507Y-117864920D01*
X65953150Y-117851217D01*
X65689442Y-117841254D01*
X65455405Y-117841254D01*
X65455437Y-117821666D01*
X65456464Y-117663560D01*
X65459207Y-117544608D01*
X65464316Y-117456871D01*
X65472440Y-117392412D01*
X65484227Y-117343291D01*
X65500327Y-117301570D01*
X65555627Y-117206807D01*
X65646569Y-117118671D01*
X65766402Y-117060923D01*
X65919363Y-117031665D01*
X66109688Y-117029005D01*
X66203682Y-117035137D01*
X66291484Y-117047839D01*
X66361363Y-117069864D01*
X66430252Y-117105237D01*
X66459564Y-117124368D01*
X66526122Y-117182774D01*
X66581199Y-117250270D01*
X66620352Y-117318090D01*
X66639141Y-117377475D01*
X66633123Y-117419661D01*
X66597857Y-117435885D01*
X66595294Y-117435923D01*
X66540536Y-117440485D01*
X66470445Y-117450231D01*
X66467083Y-117450784D01*
X66410623Y-117455562D01*
X66381696Y-117437486D01*
X66361588Y-117385410D01*
X66344315Y-117341071D01*
X66286546Y-117269549D01*
X66196549Y-117227894D01*
X66069479Y-117213252D01*
X65958539Y-117218855D01*
X65850896Y-117249802D01*
X65777523Y-117311482D01*
X65733758Y-117408255D01*
X65714934Y-117544476D01*
X65708857Y-117665428D01*
X66023823Y-117678723D01*
X66088384Y-117681932D01*
X66255595Y-117697124D01*
X66385702Y-117722694D01*
X66486846Y-117761452D01*
X66567166Y-117816211D01*
X66634801Y-117889782D01*
X66664340Y-117932860D01*
X66688396Y-117987883D01*
X66701839Y-118058772D01*
X66709107Y-118161771D01*
X66708960Y-118183184D01*
X66708348Y-118272559D01*
G37*
G36*
X73896599Y-74624139D02*
G01*
X73897331Y-74626058D01*
X73915393Y-74673715D01*
X73949493Y-74763964D01*
X73998692Y-74894320D01*
X74062056Y-75062298D01*
X74138648Y-75265414D01*
X74227530Y-75501182D01*
X74327767Y-75767117D01*
X74438423Y-76060736D01*
X74558560Y-76379554D01*
X74687243Y-76721084D01*
X74823534Y-77082844D01*
X74966499Y-77462348D01*
X75115199Y-77857111D01*
X75268699Y-78264648D01*
X75426063Y-78682476D01*
X75450588Y-78747598D01*
X75606167Y-79160700D01*
X75757065Y-79561371D01*
X75902399Y-79947266D01*
X76041285Y-80316038D01*
X76172840Y-80665341D01*
X76296181Y-80992829D01*
X76410423Y-81296157D01*
X76514682Y-81572976D01*
X76608076Y-81820943D01*
X76689721Y-82037710D01*
X76758732Y-82220931D01*
X76814227Y-82368260D01*
X76855322Y-82477351D01*
X76881132Y-82545857D01*
X76890775Y-82571434D01*
X76889748Y-82576787D01*
X76871836Y-82584276D01*
X76830079Y-82589951D01*
X76760391Y-82593942D01*
X76658683Y-82596376D01*
X76520868Y-82597383D01*
X76342858Y-82597089D01*
X76120566Y-82595624D01*
X75338744Y-82589238D01*
X74267589Y-79664518D01*
X74243945Y-79599966D01*
X74112457Y-79241168D01*
X73985648Y-78895456D01*
X73864513Y-78565526D01*
X73750046Y-78254075D01*
X73643242Y-77963798D01*
X73545095Y-77697392D01*
X73456601Y-77457553D01*
X73378753Y-77246976D01*
X73312546Y-77068357D01*
X73258976Y-76924394D01*
X73219036Y-76817781D01*
X73193721Y-76751214D01*
X73184026Y-76727391D01*
X73183987Y-76727352D01*
X73162767Y-76725063D01*
X73162377Y-76725966D01*
X73150638Y-76757071D01*
X73123301Y-76830636D01*
X73081283Y-76944171D01*
X73025499Y-77095188D01*
X72956865Y-77281196D01*
X72876296Y-77499707D01*
X72784707Y-77748231D01*
X72683014Y-78024280D01*
X72572132Y-78325363D01*
X72452978Y-78648991D01*
X72326465Y-78992676D01*
X72193510Y-79353928D01*
X72055029Y-79730258D01*
X71911936Y-80119176D01*
X71765148Y-80518194D01*
X71615579Y-80924821D01*
X71464145Y-81336570D01*
X71311761Y-81750949D01*
X71159344Y-82165471D01*
X71007808Y-82577646D01*
X70858069Y-82984985D01*
X70711042Y-83384998D01*
X70567644Y-83775196D01*
X70428788Y-84153090D01*
X70295391Y-84516190D01*
X70168369Y-84862008D01*
X70048636Y-85188054D01*
X69937109Y-85491839D01*
X69834702Y-85770874D01*
X69742331Y-86022669D01*
X69660912Y-86244735D01*
X69591359Y-86434583D01*
X69534590Y-86589723D01*
X69491518Y-86707666D01*
X69471674Y-86762095D01*
X68672789Y-86762095D01*
X68541832Y-86762013D01*
X68361244Y-86761613D01*
X68200874Y-86760919D01*
X68066354Y-86759972D01*
X67963317Y-86758816D01*
X67897396Y-86757494D01*
X67874223Y-86756047D01*
X67874443Y-86755391D01*
X67885539Y-86725497D01*
X67912893Y-86652464D01*
X67955811Y-86538130D01*
X68013601Y-86384337D01*
X68085570Y-86192924D01*
X68171026Y-85965732D01*
X68269276Y-85704600D01*
X68379627Y-85411368D01*
X68501387Y-85087877D01*
X68633862Y-84735967D01*
X68776360Y-84357478D01*
X68928189Y-83954250D01*
X69088656Y-83528122D01*
X69257068Y-83080936D01*
X69432732Y-82614531D01*
X69614956Y-82130747D01*
X69803047Y-81631424D01*
X69996312Y-81118403D01*
X70194059Y-80593524D01*
X72513577Y-74437047D01*
X73166905Y-74430615D01*
X73820233Y-74424183D01*
X73896599Y-74624139D01*
G37*
G36*
X66640190Y-78488650D02*
G01*
X66640190Y-82601333D01*
X65890286Y-82601333D01*
X65140381Y-82601333D01*
X65140377Y-81530905D01*
X65140434Y-81456290D01*
X65141247Y-81207540D01*
X65142947Y-80922808D01*
X65145439Y-80611341D01*
X65148629Y-80282388D01*
X65152422Y-79945198D01*
X65156724Y-79609019D01*
X65161441Y-79283100D01*
X65166478Y-78976688D01*
X65166919Y-78951509D01*
X65171337Y-78689388D01*
X65175186Y-78442265D01*
X65178420Y-78214310D01*
X65180997Y-78009696D01*
X65182870Y-77832596D01*
X65183996Y-77687180D01*
X65184329Y-77577620D01*
X65183826Y-77508089D01*
X65182442Y-77482759D01*
X65178164Y-77490821D01*
X65156657Y-77538701D01*
X65117869Y-77627810D01*
X65062682Y-77756065D01*
X64991976Y-77921385D01*
X64906633Y-78121690D01*
X64807534Y-78354897D01*
X64695559Y-78618926D01*
X64571590Y-78911695D01*
X64436508Y-79231122D01*
X64291194Y-79575128D01*
X64136529Y-79941629D01*
X63973394Y-80328546D01*
X63802670Y-80733797D01*
X63625239Y-81155299D01*
X63441980Y-81590973D01*
X63253776Y-82038737D01*
X63138751Y-82312484D01*
X62953110Y-82754221D01*
X62772860Y-83183046D01*
X62598891Y-83596847D01*
X62432092Y-83993511D01*
X62273354Y-84370925D01*
X62123565Y-84726975D01*
X61983614Y-85059549D01*
X61854393Y-85366534D01*
X61736789Y-85645817D01*
X61631693Y-85895284D01*
X61539993Y-86112822D01*
X61462581Y-86296320D01*
X61400344Y-86443662D01*
X61354173Y-86552738D01*
X61324957Y-86621432D01*
X61313585Y-86647633D01*
X61308124Y-86656317D01*
X61293314Y-86667914D01*
X61266122Y-86676333D01*
X61220551Y-86681951D01*
X61150602Y-86685142D01*
X61050277Y-86686283D01*
X60913576Y-86685750D01*
X60734502Y-86683919D01*
X60177085Y-86677428D01*
X59211590Y-84381883D01*
X59106896Y-84132915D01*
X58978148Y-83826600D01*
X58855783Y-83535312D01*
X58741038Y-83262008D01*
X58635153Y-83009643D01*
X58539366Y-82781174D01*
X58454918Y-82579558D01*
X58383045Y-82407750D01*
X58324988Y-82268708D01*
X58281984Y-82165389D01*
X58255274Y-82100747D01*
X58246095Y-82077740D01*
X58253554Y-82076547D01*
X58301442Y-82074551D01*
X58388755Y-82072774D01*
X58509760Y-82071281D01*
X58658720Y-82070136D01*
X58829901Y-82069402D01*
X59017568Y-82069143D01*
X59789041Y-82069143D01*
X59908314Y-82353381D01*
X59939170Y-82427079D01*
X59990042Y-82548901D01*
X60053805Y-82701815D01*
X60127401Y-82878482D01*
X60207771Y-83071559D01*
X60291857Y-83273705D01*
X60376603Y-83477580D01*
X60386216Y-83500701D01*
X60464553Y-83688102D01*
X60537194Y-83860119D01*
X60602017Y-84011859D01*
X60656904Y-84138429D01*
X60699735Y-84234938D01*
X60728391Y-84296492D01*
X60740752Y-84318199D01*
X60744610Y-84311579D01*
X60765358Y-84266410D01*
X60802831Y-84180841D01*
X60855861Y-84057642D01*
X60923278Y-83899580D01*
X61003916Y-83709426D01*
X61096605Y-83489948D01*
X61200176Y-83243915D01*
X61313462Y-82974095D01*
X61435294Y-82683258D01*
X61564504Y-82374173D01*
X61699923Y-82049608D01*
X61840382Y-81712333D01*
X61875717Y-81627409D01*
X62045713Y-81218836D01*
X62227845Y-80781096D01*
X62419041Y-80321574D01*
X62616229Y-79847653D01*
X62816337Y-79366715D01*
X63016292Y-78886146D01*
X63213023Y-78413328D01*
X63403458Y-77955644D01*
X63584523Y-77520479D01*
X63753148Y-77115216D01*
X63906260Y-76747238D01*
X64887640Y-74388666D01*
X65763915Y-74382317D01*
X66640190Y-74375968D01*
X66640190Y-78488650D01*
G37*
G36*
X65120434Y-110218076D02*
G01*
X65112553Y-110441879D01*
X65099419Y-110658706D01*
X65081031Y-110868556D01*
X65057389Y-111071430D01*
X65028493Y-111267327D01*
X64994344Y-111456248D01*
X64954941Y-111638193D01*
X64910283Y-111813161D01*
X64860372Y-111981153D01*
X64805208Y-112142168D01*
X64744789Y-112296207D01*
X64679116Y-112443269D01*
X64608190Y-112583355D01*
X64532010Y-112716465D01*
X64450576Y-112842598D01*
X64363909Y-112960743D01*
X64272032Y-113071267D01*
X64174944Y-113174168D01*
X64072646Y-113269447D01*
X63965137Y-113357103D01*
X63852417Y-113437137D01*
X63734487Y-113509549D01*
X63611346Y-113574339D01*
X63482994Y-113631506D01*
X63349432Y-113681051D01*
X63210659Y-113722974D01*
X63066676Y-113757274D01*
X62917482Y-113783952D01*
X62763077Y-113803008D01*
X62603462Y-113814441D01*
X62438636Y-113818252D01*
X62273766Y-113814420D01*
X62114022Y-113802922D01*
X61959402Y-113783758D01*
X61809906Y-113756929D01*
X61665535Y-113722435D01*
X61526288Y-113680276D01*
X61392166Y-113630451D01*
X61327026Y-113602664D01*
X61263168Y-113572961D01*
X61200591Y-113541341D01*
X61139295Y-113507805D01*
X61079280Y-113472353D01*
X61020546Y-113434984D01*
X60963094Y-113395700D01*
X60906922Y-113354498D01*
X60852032Y-113311381D01*
X60798423Y-113266347D01*
X60746095Y-113219397D01*
X60695048Y-113170531D01*
X60596798Y-113067049D01*
X60503672Y-112955902D01*
X60415671Y-112837089D01*
X60332236Y-112710331D01*
X60254183Y-112576726D01*
X60181513Y-112436274D01*
X60114227Y-112288975D01*
X60052323Y-112134828D01*
X59995802Y-111973834D01*
X59944664Y-111805994D01*
X59898908Y-111631306D01*
X59858536Y-111449770D01*
X59823547Y-111261388D01*
X59793940Y-111066159D01*
X59769717Y-110864082D01*
X59750876Y-110655158D01*
X59737419Y-110439388D01*
X59729344Y-110216770D01*
X59726653Y-109987305D01*
X60735381Y-109987305D01*
X60736974Y-110175772D01*
X60741754Y-110358082D01*
X60749721Y-110534234D01*
X60760874Y-110704228D01*
X60775214Y-110868064D01*
X60792741Y-111025742D01*
X60813454Y-111177261D01*
X60837354Y-111322623D01*
X60864441Y-111461827D01*
X60894715Y-111594872D01*
X60928175Y-111721759D01*
X60964822Y-111842489D01*
X61004656Y-111957060D01*
X61047677Y-112065473D01*
X61093884Y-112167728D01*
X61143279Y-112263824D01*
X61196097Y-112353935D01*
X61252575Y-112438232D01*
X61312713Y-112516716D01*
X61376512Y-112589386D01*
X61443972Y-112656242D01*
X61515091Y-112717285D01*
X61589871Y-112772514D01*
X61668312Y-112821930D01*
X61750413Y-112865532D01*
X61836174Y-112903320D01*
X61925596Y-112935295D01*
X62018678Y-112961456D01*
X62115420Y-112981804D01*
X62215823Y-112996338D01*
X62319887Y-113005058D01*
X62427611Y-113007965D01*
X62536003Y-113005144D01*
X62588810Y-113001618D01*
X62640691Y-112996682D01*
X62691647Y-112990336D01*
X62741676Y-112982579D01*
X62790780Y-112973411D01*
X62838958Y-112962834D01*
X62886209Y-112950846D01*
X62932535Y-112937448D01*
X62977935Y-112922639D01*
X63022410Y-112906420D01*
X63065958Y-112888791D01*
X63108580Y-112869751D01*
X63150277Y-112849301D01*
X63191047Y-112827441D01*
X63230892Y-112804170D01*
X63269811Y-112779490D01*
X63307804Y-112753398D01*
X63344871Y-112725897D01*
X63381012Y-112696985D01*
X63416228Y-112666663D01*
X63450517Y-112634930D01*
X63483881Y-112601787D01*
X63516319Y-112567234D01*
X63547831Y-112531271D01*
X63578417Y-112493897D01*
X63608077Y-112455113D01*
X63636811Y-112414918D01*
X63664620Y-112373314D01*
X63691503Y-112330299D01*
X63717459Y-112285873D01*
X63766186Y-112191628D01*
X63811769Y-112090795D01*
X63854208Y-111983372D01*
X63893504Y-111869361D01*
X63929656Y-111748761D01*
X63962664Y-111621573D01*
X63992529Y-111487795D01*
X64019251Y-111347429D01*
X64042828Y-111200474D01*
X64063262Y-111046931D01*
X64080553Y-110886798D01*
X64094699Y-110720077D01*
X64113561Y-110366868D01*
X64119849Y-109987305D01*
X64118299Y-109788975D01*
X64113648Y-109597751D01*
X64105896Y-109413632D01*
X64095044Y-109236619D01*
X64081091Y-109066712D01*
X64064038Y-108903909D01*
X64043884Y-108748213D01*
X64020630Y-108599622D01*
X63994275Y-108458136D01*
X63964819Y-108323755D01*
X63932263Y-108196481D01*
X63896607Y-108076311D01*
X63857849Y-107963247D01*
X63815992Y-107857288D01*
X63771034Y-107758435D01*
X63722975Y-107666687D01*
X63670675Y-107581248D01*
X63614369Y-107501321D01*
X63554058Y-107426906D01*
X63489742Y-107358004D01*
X63421421Y-107294614D01*
X63349096Y-107236736D01*
X63272765Y-107184370D01*
X63192429Y-107137517D01*
X63108089Y-107096176D01*
X63019743Y-107060347D01*
X62927393Y-107030030D01*
X62831038Y-107005225D01*
X62730678Y-106985933D01*
X62626313Y-106972152D01*
X62517944Y-106963884D01*
X62405570Y-106961128D01*
X62295929Y-106963927D01*
X62242595Y-106967426D01*
X62190251Y-106972325D01*
X62138897Y-106978623D01*
X62088534Y-106986320D01*
X62039161Y-106995418D01*
X61990779Y-107005915D01*
X61943387Y-107017811D01*
X61896986Y-107031107D01*
X61851575Y-107045802D01*
X61807154Y-107061898D01*
X61763724Y-107079392D01*
X61721285Y-107098287D01*
X61679836Y-107118580D01*
X61639377Y-107140274D01*
X61599909Y-107163367D01*
X61561432Y-107187859D01*
X61523945Y-107213752D01*
X61487448Y-107241043D01*
X61451942Y-107269735D01*
X61417426Y-107299826D01*
X61383901Y-107331316D01*
X61351366Y-107364206D01*
X61319822Y-107398496D01*
X61289268Y-107434185D01*
X61259705Y-107471274D01*
X61231132Y-107509762D01*
X61203550Y-107549650D01*
X61176958Y-107590938D01*
X61151357Y-107633625D01*
X61126746Y-107677711D01*
X61079354Y-107770061D01*
X61035020Y-107869345D01*
X60993743Y-107975561D01*
X60955524Y-108088711D01*
X60920362Y-108208795D01*
X60888258Y-108335811D01*
X60859211Y-108469761D01*
X60833222Y-108610644D01*
X60810291Y-108758460D01*
X60790417Y-108913210D01*
X60773600Y-109074893D01*
X60759841Y-109243509D01*
X60741496Y-109601540D01*
X60735381Y-109987305D01*
X59726653Y-109987305D01*
X59726660Y-109987297D01*
X59729223Y-109752599D01*
X59736910Y-109525307D01*
X59749721Y-109305423D01*
X59767657Y-109092947D01*
X59790718Y-108887877D01*
X59818903Y-108690214D01*
X59852213Y-108499958D01*
X59890648Y-108317110D01*
X59934207Y-108141668D01*
X59982890Y-107973634D01*
X60036698Y-107813006D01*
X60095630Y-107659785D01*
X60159687Y-107513972D01*
X60228869Y-107375565D01*
X60303175Y-107244565D01*
X60382605Y-107120972D01*
X60466731Y-107004160D01*
X60556497Y-106894886D01*
X60651905Y-106793147D01*
X60752955Y-106698945D01*
X60859645Y-106612279D01*
X60971977Y-106533149D01*
X61089951Y-106461555D01*
X61213566Y-106397498D01*
X61342822Y-106340977D01*
X61477719Y-106291992D01*
X61618258Y-106250543D01*
X61764438Y-106216630D01*
X61916259Y-106190254D01*
X62073721Y-106171414D01*
X62236825Y-106160109D01*
X62405570Y-106156341D01*
X62578341Y-106160066D01*
X62745256Y-106171242D01*
X62906314Y-106189867D01*
X63061516Y-106215942D01*
X63210861Y-106249467D01*
X63354350Y-106290443D01*
X63491982Y-106338868D01*
X63558602Y-106365875D01*
X63623757Y-106394744D01*
X63687448Y-106425475D01*
X63749676Y-106458069D01*
X63810439Y-106492526D01*
X63869737Y-106528845D01*
X63927572Y-106567026D01*
X63983943Y-106607070D01*
X64038849Y-106648977D01*
X64092291Y-106692746D01*
X64144269Y-106738377D01*
X64194782Y-106785871D01*
X64243832Y-106835227D01*
X64291417Y-106886446D01*
X64337538Y-106939528D01*
X64382195Y-106994472D01*
X64425388Y-107051278D01*
X64467116Y-107109947D01*
X64546546Y-107232937D01*
X64620852Y-107363506D01*
X64690034Y-107501655D01*
X64754091Y-107647383D01*
X64813023Y-107800690D01*
X64866831Y-107961577D01*
X64915515Y-108130042D01*
X64959074Y-108306087D01*
X64997508Y-108489712D01*
X65030818Y-108680915D01*
X65059003Y-108879697D01*
X65082064Y-109086059D01*
X65100000Y-109300000D01*
X65112812Y-109521520D01*
X65120499Y-109750619D01*
X65123061Y-109987297D01*
X65123061Y-109987305D01*
X65120434Y-110218076D01*
G37*
D12*
%TO.C,J6*%
X91180000Y-64220000D02*
X91180000Y-122860000D01*
X93830000Y-64220000D02*
X91180000Y-64220000D01*
X93830000Y-66870000D02*
X93830000Y-64220000D01*
X96480000Y-64220000D02*
X95100000Y-64220000D01*
X96480000Y-65600000D02*
X96480000Y-64220000D01*
X96480000Y-66870000D02*
X93830000Y-66870000D01*
X96480000Y-66870000D02*
X96480000Y-122860000D01*
X96480000Y-122860000D02*
X91180000Y-122860000D01*
D11*
%TO.C,kibuzzard-6A56059C1*%
G36*
X44051696Y-124206866D02*
G01*
X44111066Y-124335299D01*
X44055331Y-124473425D01*
X43978393Y-124527948D01*
X43859047Y-124584895D01*
X43752423Y-124462520D01*
X43720921Y-124332876D01*
X43777868Y-124205654D01*
X43914782Y-124163247D01*
X44051696Y-124206866D01*
G37*
G36*
X44113489Y-124908401D02*
G01*
X44149838Y-125040468D01*
X44080775Y-125187076D01*
X43917205Y-125236753D01*
X43743942Y-125184653D01*
X43679725Y-125059855D01*
X43697900Y-124975040D01*
X43756058Y-124908401D01*
X43859047Y-124847819D01*
X44009289Y-124783603D01*
X44113489Y-124908401D01*
G37*
G36*
X45229402Y-124195961D02*
G01*
X45303312Y-124202019D01*
X45303312Y-124686672D01*
X45182149Y-124686672D01*
X45056745Y-124672435D01*
X44966478Y-124629725D01*
X44911955Y-124552484D01*
X44893780Y-124434653D01*
X44911652Y-124322880D01*
X44965267Y-124249273D01*
X45048566Y-124208380D01*
X45155493Y-124194750D01*
X45229402Y-124195961D01*
G37*
G36*
X46005250Y-125887803D02*
G01*
X45601373Y-125887803D01*
X45303312Y-125887803D01*
X43922052Y-125887803D01*
X43398627Y-125887803D01*
X42994750Y-125887803D01*
X42994750Y-125064701D01*
X43398627Y-125064701D01*
X43426494Y-125212520D01*
X43516155Y-125347011D01*
X43677302Y-125445153D01*
X43788166Y-125474233D01*
X43922052Y-125483926D01*
X44030796Y-125476959D01*
X44129241Y-125456058D01*
X44289176Y-125376090D01*
X44392165Y-125247658D01*
X44428514Y-125076817D01*
X44415186Y-124966256D01*
X44375202Y-124862359D01*
X44306745Y-124767548D01*
X44207997Y-124684249D01*
X44297658Y-124609128D01*
X44353393Y-124529160D01*
X44373856Y-124437076D01*
X44588449Y-124437076D01*
X44606085Y-124599838D01*
X44658993Y-124729483D01*
X44747173Y-124826010D01*
X44867663Y-124892649D01*
X45017501Y-124932633D01*
X45196688Y-124945961D01*
X45303312Y-124945961D01*
X45303312Y-125452423D01*
X45601373Y-125452423D01*
X45601373Y-123971809D01*
X45503231Y-123954847D01*
X45392973Y-123943942D01*
X45283926Y-123937884D01*
X45189418Y-123935460D01*
X45013059Y-123948519D01*
X44865240Y-123987695D01*
X44745961Y-124052989D01*
X44658454Y-124147900D01*
X44605950Y-124275929D01*
X44588449Y-124437076D01*
X44373856Y-124437076D01*
X44392165Y-124354685D01*
X44366721Y-124203231D01*
X44285541Y-124061470D01*
X44137722Y-123957270D01*
X44034733Y-123926373D01*
X43909935Y-123916074D01*
X43716377Y-123942730D01*
X43567044Y-124022698D01*
X43471628Y-124147496D01*
X43439822Y-124308643D01*
X43452544Y-124411935D01*
X43490711Y-124513409D01*
X43556139Y-124605796D01*
X43650646Y-124681826D01*
X43532815Y-124765428D01*
X43455574Y-124856300D01*
X43412863Y-124955654D01*
X43398627Y-125064701D01*
X42994750Y-125064701D01*
X42994750Y-123512197D01*
X43398627Y-123512197D01*
X45601373Y-123512197D01*
X46005250Y-123512197D01*
X46005250Y-125887803D01*
G37*
%TO.C,kibuzzard-6A5605438*%
G36*
X96022132Y-124210501D02*
G01*
X96096042Y-124216559D01*
X96096042Y-124701212D01*
X95974879Y-124701212D01*
X95849475Y-124686975D01*
X95759208Y-124644265D01*
X95704685Y-124567023D01*
X95686511Y-124449192D01*
X95704382Y-124337419D01*
X95757997Y-124263813D01*
X95841296Y-124222920D01*
X95948223Y-124209289D01*
X96022132Y-124210501D01*
G37*
G36*
X94808078Y-124203231D02*
G01*
X94868659Y-124257754D01*
X94902585Y-124337722D01*
X94913489Y-124434653D01*
X94860178Y-124609128D01*
X94788691Y-124654564D01*
X94680856Y-124669709D01*
X94583926Y-124660016D01*
X94501535Y-124633360D01*
X94497900Y-124586107D01*
X94496688Y-124531583D01*
X94507593Y-124409208D01*
X94543942Y-124296527D01*
X94611793Y-124214136D01*
X94717205Y-124182633D01*
X94808078Y-124203231D01*
G37*
G36*
X96797981Y-125875687D02*
G01*
X96394103Y-125875687D01*
X96096042Y-125875687D01*
X95102504Y-125875687D01*
X94205897Y-125875687D01*
X93802019Y-125875687D01*
X93802019Y-124570355D01*
X94205897Y-124570355D01*
X94221648Y-124776030D01*
X94268901Y-124956866D01*
X94345537Y-125111652D01*
X94449435Y-125239176D01*
X94579079Y-125339439D01*
X94732956Y-125412439D01*
X94908340Y-125456967D01*
X95102504Y-125471809D01*
X95112197Y-125214943D01*
X94928635Y-125192831D01*
X94765670Y-125131341D01*
X94635420Y-125026838D01*
X94550000Y-124875687D01*
X94719628Y-124916882D01*
X94840792Y-124907492D01*
X94942569Y-124879321D01*
X95092811Y-124776333D01*
X95177625Y-124624879D01*
X95202539Y-124451616D01*
X95381179Y-124451616D01*
X95398815Y-124614378D01*
X95451723Y-124744023D01*
X95539903Y-124840549D01*
X95660393Y-124907189D01*
X95810232Y-124947173D01*
X95989418Y-124960501D01*
X96096042Y-124960501D01*
X96096042Y-125466963D01*
X96394103Y-125466963D01*
X96394103Y-123986349D01*
X96295961Y-123969386D01*
X96185703Y-123958481D01*
X96076656Y-123952423D01*
X95982149Y-123950000D01*
X95805789Y-123963059D01*
X95657970Y-124002235D01*
X95538691Y-124067528D01*
X95451185Y-124162439D01*
X95398681Y-124290468D01*
X95381179Y-124451616D01*
X95202539Y-124451616D01*
X95204281Y-124439499D01*
X95173990Y-124261389D01*
X95084330Y-124096607D01*
X94935299Y-123975444D01*
X94837763Y-123940004D01*
X94724475Y-123928191D01*
X94569655Y-123947038D01*
X94441222Y-124003581D01*
X94339176Y-124097819D01*
X94265132Y-124225714D01*
X94220705Y-124383226D01*
X94205897Y-124570355D01*
X93802019Y-124570355D01*
X93802019Y-123524313D01*
X94205897Y-123524313D01*
X96394103Y-123524313D01*
X96797981Y-123524313D01*
X96797981Y-125875687D01*
G37*
D12*
%TO.C,J5*%
X42980000Y-64280000D02*
X42980000Y-122920000D01*
X45630000Y-64280000D02*
X42980000Y-64280000D01*
X45630000Y-66930000D02*
X45630000Y-64280000D01*
X48280000Y-64280000D02*
X46900000Y-64280000D01*
X48280000Y-65660000D02*
X48280000Y-64280000D01*
X48280000Y-66930000D02*
X45630000Y-66930000D01*
X48280000Y-66930000D02*
X48280000Y-122920000D01*
X48280000Y-122920000D02*
X42980000Y-122920000D01*
%TO.C,JP1*%
X63950000Y-125200000D02*
X63950000Y-125800000D01*
X64600000Y-126500000D02*
X67400000Y-126500000D01*
X67200000Y-126700000D02*
X66900000Y-127000000D01*
X67200000Y-126700000D02*
X67500000Y-127000000D01*
X67400000Y-124500000D02*
X64600000Y-124500000D01*
X67500000Y-127000000D02*
X66900000Y-127000000D01*
X68050000Y-125800000D02*
X68050000Y-125200000D01*
X63950000Y-125200000D02*
G75*
G02*
X64650000Y-124500000I700000J0D01*
G01*
X64650000Y-126500000D02*
G75*
G02*
X63950000Y-125800000I0J700000D01*
G01*
X67350000Y-124500000D02*
G75*
G02*
X68050000Y-125200000I1J-699999D01*
G01*
X68050000Y-125800000D02*
G75*
G02*
X67350000Y-126500000I-699999J-1D01*
G01*
%TD*%
%LPC*%
%TO.C,JP1*%
G36*
X66750000Y-124750000D02*
G01*
X65250000Y-124750000D01*
X65250000Y-126250000D01*
X66750000Y-126250000D01*
X66750000Y-124750000D01*
G37*
%TD*%
D13*
%TO.C,H4*%
X90743300Y-126666700D03*
%TD*%
D14*
%TO.C,J9*%
X49000000Y-52000000D03*
D15*
X49000000Y-54500000D03*
%TD*%
D16*
%TO.C,J2*%
X56000000Y-106500000D03*
D17*
X58540000Y-106500000D03*
X61080000Y-106500000D03*
X63620000Y-106500000D03*
X66160000Y-106500000D03*
X68700000Y-106500000D03*
X71240000Y-106500000D03*
X73780000Y-106500000D03*
%TD*%
D13*
%TO.C,H1*%
X45676700Y-60566700D03*
%TD*%
D16*
%TO.C,J4*%
X56000000Y-129480000D03*
D17*
X58540000Y-129480000D03*
X61080000Y-129480000D03*
X63620000Y-129480000D03*
X66160000Y-129480000D03*
X68700000Y-129480000D03*
X71240000Y-129480000D03*
X73780000Y-129480000D03*
%TD*%
D18*
%TO.C,J8*%
X59450000Y-52832500D03*
D19*
X54450000Y-52832500D03*
%TD*%
D16*
%TO.C,J3*%
X56625000Y-71425000D03*
D17*
X59165000Y-71425000D03*
X61705000Y-71425000D03*
X64245000Y-71425000D03*
X66785000Y-71425000D03*
X69325000Y-71425000D03*
X71865000Y-71425000D03*
X74405000Y-71425000D03*
%TD*%
D13*
%TO.C,H3*%
X48760000Y-126700000D03*
%TD*%
D20*
%TO.C,J7*%
X91490000Y-54970000D03*
X85710000Y-54970000D03*
D21*
X92920000Y-55490000D03*
D22*
X92920000Y-51290000D03*
D21*
X84280000Y-55490000D03*
D22*
X84280000Y-51290000D03*
%TD*%
D16*
%TO.C,J1*%
X56625000Y-94405000D03*
D17*
X59165000Y-94405000D03*
X61705000Y-94405000D03*
X64245000Y-94405000D03*
X66785000Y-94405000D03*
X69325000Y-94405000D03*
X71865000Y-94405000D03*
X74405000Y-94405000D03*
%TD*%
D23*
%TO.C,J10*%
X86400000Y-117630000D03*
D24*
X87670000Y-117630000D03*
X86400000Y-118900000D03*
X87670000Y-118900000D03*
X86400000Y-120170000D03*
X87670000Y-120170000D03*
X86400000Y-121440000D03*
X87670000Y-121440000D03*
X86400000Y-122710000D03*
X87670000Y-122710000D03*
%TD*%
D13*
%TO.C,H2*%
X93900000Y-60500000D03*
%TD*%
D16*
%TO.C,J6*%
X95100000Y-65600000D03*
D17*
X92560000Y-65600000D03*
X95100000Y-68140000D03*
X92560000Y-68140000D03*
X95100000Y-70680000D03*
X92560000Y-70680000D03*
X95100000Y-73220000D03*
X92560000Y-73220000D03*
X95100000Y-75760000D03*
X92560000Y-75760000D03*
X95100000Y-78300000D03*
X92560000Y-78300000D03*
X95100000Y-80840000D03*
X92560000Y-80840000D03*
X95100000Y-83380000D03*
X92560000Y-83380000D03*
X95100000Y-85920000D03*
X92560000Y-85920000D03*
X95100000Y-88460000D03*
X92560000Y-88460000D03*
X95100000Y-91000000D03*
X92560000Y-91000000D03*
X95100000Y-93540000D03*
X92560000Y-93540000D03*
X95100000Y-96080000D03*
X92560000Y-96080000D03*
X95100000Y-98620000D03*
X92560000Y-98620000D03*
X95100000Y-101160000D03*
X92560000Y-101160000D03*
X95100000Y-103700000D03*
X92560000Y-103700000D03*
X95100000Y-106240000D03*
X92560000Y-106240000D03*
X95100000Y-108780000D03*
X92560000Y-108780000D03*
X95100000Y-111320000D03*
X92560000Y-111320000D03*
X95100000Y-113860000D03*
X92560000Y-113860000D03*
X95100000Y-116400000D03*
X92560000Y-116400000D03*
X95100000Y-118940000D03*
X92560000Y-118940000D03*
X95100000Y-121480000D03*
X92560000Y-121480000D03*
%TD*%
D16*
%TO.C,J5*%
X46900000Y-65660000D03*
D17*
X44360000Y-65660000D03*
X46900000Y-68200000D03*
X44360000Y-68200000D03*
X46900000Y-70740000D03*
X44360000Y-70740000D03*
X46900000Y-73280000D03*
X44360000Y-73280000D03*
X46900000Y-75820000D03*
X44360000Y-75820000D03*
X46900000Y-78360000D03*
X44360000Y-78360000D03*
X46900000Y-80900000D03*
X44360000Y-80900000D03*
X46900000Y-83440000D03*
X44360000Y-83440000D03*
X46900000Y-85980000D03*
X44360000Y-85980000D03*
X46900000Y-88520000D03*
X44360000Y-88520000D03*
X46900000Y-91060000D03*
X44360000Y-91060000D03*
X46900000Y-93600000D03*
X44360000Y-93600000D03*
X46900000Y-96140000D03*
X44360000Y-96140000D03*
X46900000Y-98680000D03*
X44360000Y-98680000D03*
X46900000Y-101220000D03*
X44360000Y-101220000D03*
X46900000Y-103760000D03*
X44360000Y-103760000D03*
X46900000Y-106300000D03*
X44360000Y-106300000D03*
X46900000Y-108840000D03*
X44360000Y-108840000D03*
X46900000Y-111380000D03*
X44360000Y-111380000D03*
X46900000Y-113920000D03*
X44360000Y-113920000D03*
X46900000Y-116460000D03*
X44360000Y-116460000D03*
X46900000Y-119000000D03*
X44360000Y-119000000D03*
X46900000Y-121540000D03*
X44360000Y-121540000D03*
%TD*%
D25*
%TO.C,JP1*%
X67300000Y-125500000D03*
D26*
X66000000Y-125500000D03*
D27*
X64700000Y-125500000D03*
%TD*%
%LPD*%
M02*
