M48
; DRILL file {KiCad 9.0.2} date 2026-07-22T10:58:38+0300
; FORMAT={-:-/ absolute / inch / decimal}
; #@! TF.CreationDate,2026-07-22T10:58:38+03:00
; #@! TF.GenerationSoftware,Kicad,Pcbnew,9.0.2
; #@! TF.FileFunction,Plated,1,2,PTH
FMAT,2
INCH
; #@! TA.AperFunction,Plated,PTH,ViaDrill
T1C0.0118
; #@! TA.AperFunction,Plated,PTH,ComponentDrill
T2C0.0394
%
G90
G05
T1
X1.748Y-2.2087
X1.8071Y-1.7913
X1.8071Y-2.1106
X1.8071Y-2.4606
X1.8366Y-2.6063
X1.8661Y-2.2402
X1.8701Y-2.2047
X2.3583Y-1.7913
X2.3583Y-1.8913
X2.3583Y-2.4606
T2
X1.6181Y-1.8272
X1.6181Y-1.9272
X1.6181Y-2.0272
X1.6181Y-2.1272
X1.6181Y-2.2272
X1.6181Y-2.3272
X1.6181Y-2.4272
X1.6181Y-2.5272
X2.5181Y-1.8272
X2.5181Y-1.9272
X2.5181Y-2.0272
X2.5181Y-2.1272
X2.5181Y-2.2272
X2.5181Y-2.3272
X2.5181Y-2.4272
X2.5181Y-2.5272
M30
