%TF.GenerationSoftware,KiCad,Pcbnew,9.0.2*%
%TF.CreationDate,2026-07-22T10:58:38+03:00*%
%TF.ProjectId,E07400M10S,45303734-3030-44d3-9130-532e6b696361,rev?*%
%TF.SameCoordinates,Original*%
%TF.FileFunction,Copper,L2,Bot*%
%TF.FilePolarity,Positive*%
%FSLAX46Y46*%
G04 Gerber Fmt 4.6, Leading zero omitted, Abs format (unit mm)*
G04 Created by KiCad (PCBNEW 9.0.2) date 2026-07-22 10:58:38*
%MOMM*%
%LPD*%
G01*
G04 APERTURE LIST*
%TA.AperFunction,ComponentPad*%
%ADD10R,1.700000X1.700000*%
%TD*%
%TA.AperFunction,ComponentPad*%
%ADD11C,1.700000*%
%TD*%
%TA.AperFunction,ViaPad*%
%ADD12C,0.700000*%
%TD*%
%TA.AperFunction,Conductor*%
%ADD13C,0.199999*%
%TD*%
G04 APERTURE END LIST*
D10*
%TO.P,J2,1,Pin_1*%
%TO.N,unconnected-(J2-Pin_1-Pad1)*%
X63960000Y-46410000D03*
D11*
%TO.P,J2,2,Pin_2*%
%TO.N,GDO1*%
X63960000Y-48950000D03*
%TO.P,J2,3,Pin_3*%
%TO.N,unconnected-(J2-Pin_3-Pad3)*%
X63960000Y-51490000D03*
%TO.P,J2,4,Pin_4*%
%TO.N,unconnected-(J2-Pin_4-Pad4)*%
X63960000Y-54030000D03*
%TO.P,J2,5,Pin_5*%
%TO.N,unconnected-(J2-Pin_5-Pad5)*%
X63960000Y-56570000D03*
%TO.P,J2,6,Pin_6*%
%TO.N,unconnected-(J2-Pin_6-Pad6)*%
X63960000Y-59110000D03*
%TO.P,J2,7,Pin_7*%
%TO.N,unconnected-(J2-Pin_7-Pad7)*%
X63960000Y-61650000D03*
%TO.P,J2,8,Pin_8*%
%TO.N,GND*%
X63960000Y-64190000D03*
%TD*%
D10*
%TO.P,J1,1,Pin_1*%
%TO.N,unconnected-(J1-Pin_1-Pad1)*%
X41100000Y-46410000D03*
D11*
%TO.P,J1,2,Pin_2*%
%TO.N,GDO0*%
X41100000Y-48950000D03*
%TO.P,J1,3,Pin_3*%
%TO.N,CS*%
X41100000Y-51490000D03*
%TO.P,J1,4,Pin_4*%
%TO.N,SCK*%
X41100000Y-54030000D03*
%TO.P,J1,5,Pin_5*%
%TO.N,MISO*%
X41100000Y-56570000D03*
%TO.P,J1,6,Pin_6*%
%TO.N,MOSI*%
X41100000Y-59110000D03*
%TO.P,J1,7,Pin_7*%
%TO.N,+3V3*%
X41100000Y-61650000D03*
%TO.P,J1,8,Pin_8*%
%TO.N,GND*%
X41100000Y-64190000D03*
%TD*%
D12*
%TO.N,GND*%
X45900000Y-62500000D03*
X45900000Y-45500000D03*
X59900000Y-48040000D03*
X45900000Y-53610000D03*
X59900000Y-45500000D03*
X46650000Y-66200000D03*
X59900000Y-62500000D03*
%TO.N,MOSI*%
X44400000Y-56100000D03*
X47500000Y-56000000D03*
%TO.N,MISO*%
X47400000Y-56900000D03*
%TD*%
D13*
%TO.N,MOSI*%
X47400000Y-56100000D02*
X44400000Y-56100000D01*
%TO.N,MISO*%
X47400000Y-56900000D02*
X41400000Y-56900000D01*
X41400000Y-56900000D02*
X41100000Y-56600000D01*
%TD*%
%TA.AperFunction,Conductor*%
%TO.N,GND*%
G36*
X64642539Y-40060185D02*
G01*
X64688294Y-40112989D01*
X64699500Y-40164500D01*
X64699500Y-44935500D01*
X64679815Y-45002539D01*
X64627011Y-45048294D01*
X64575500Y-45059500D01*
X63062129Y-45059500D01*
X63062123Y-45059501D01*
X63002516Y-45065908D01*
X62867671Y-45116202D01*
X62867664Y-45116206D01*
X62752455Y-45202452D01*
X62752452Y-45202455D01*
X62666206Y-45317664D01*
X62666202Y-45317671D01*
X62615908Y-45452517D01*
X62609501Y-45512116D01*
X62609501Y-45512123D01*
X62609500Y-45512135D01*
X62609500Y-47307870D01*
X62609501Y-47307876D01*
X62615908Y-47367483D01*
X62666202Y-47502328D01*
X62666206Y-47502335D01*
X62752452Y-47617544D01*
X62752455Y-47617547D01*
X62867664Y-47703793D01*
X62867671Y-47703797D01*
X62999082Y-47752810D01*
X63055016Y-47794681D01*
X63079433Y-47860145D01*
X63064582Y-47928418D01*
X63043431Y-47956673D01*
X62929889Y-48070215D01*
X62804951Y-48242179D01*
X62708444Y-48431585D01*
X62642753Y-48633760D01*
X62609500Y-48843713D01*
X62609500Y-49056286D01*
X62642753Y-49266239D01*
X62708444Y-49468414D01*
X62804951Y-49657820D01*
X62929890Y-49829786D01*
X63080213Y-49980109D01*
X63252182Y-50105050D01*
X63260946Y-50109516D01*
X63311742Y-50157491D01*
X63328536Y-50225312D01*
X63305998Y-50291447D01*
X63260946Y-50330484D01*
X63252182Y-50334949D01*
X63080213Y-50459890D01*
X62929890Y-50610213D01*
X62804951Y-50782179D01*
X62708444Y-50971585D01*
X62642753Y-51173760D01*
X62609500Y-51383713D01*
X62609500Y-51596286D01*
X62642753Y-51806239D01*
X62708444Y-52008414D01*
X62804951Y-52197820D01*
X62929890Y-52369786D01*
X63080213Y-52520109D01*
X63252182Y-52645050D01*
X63260946Y-52649516D01*
X63311742Y-52697491D01*
X63328536Y-52765312D01*
X63305998Y-52831447D01*
X63260946Y-52870484D01*
X63252182Y-52874949D01*
X63080213Y-52999890D01*
X62929890Y-53150213D01*
X62804951Y-53322179D01*
X62708444Y-53511585D01*
X62642753Y-53713760D01*
X62609500Y-53923713D01*
X62609500Y-54136286D01*
X62642753Y-54346239D01*
X62708444Y-54548414D01*
X62804951Y-54737820D01*
X62929890Y-54909786D01*
X63080213Y-55060109D01*
X63252182Y-55185050D01*
X63260946Y-55189516D01*
X63311742Y-55237491D01*
X63328536Y-55305312D01*
X63305998Y-55371447D01*
X63260946Y-55410484D01*
X63252182Y-55414949D01*
X63080213Y-55539890D01*
X62929890Y-55690213D01*
X62804951Y-55862179D01*
X62708444Y-56051585D01*
X62642753Y-56253760D01*
X62609500Y-56463713D01*
X62609500Y-56676286D01*
X62642753Y-56886239D01*
X62708444Y-57088414D01*
X62804951Y-57277820D01*
X62929890Y-57449786D01*
X63080213Y-57600109D01*
X63252182Y-57725050D01*
X63260946Y-57729516D01*
X63311742Y-57777491D01*
X63328536Y-57845312D01*
X63305998Y-57911447D01*
X63260946Y-57950484D01*
X63252182Y-57954949D01*
X63080213Y-58079890D01*
X62929890Y-58230213D01*
X62804951Y-58402179D01*
X62708444Y-58591585D01*
X62642753Y-58793760D01*
X62609500Y-59003713D01*
X62609500Y-59216286D01*
X62642753Y-59426239D01*
X62708444Y-59628414D01*
X62804951Y-59817820D01*
X62929890Y-59989786D01*
X63080213Y-60140109D01*
X63252182Y-60265050D01*
X63260946Y-60269516D01*
X63311742Y-60317491D01*
X63328536Y-60385312D01*
X63305998Y-60451447D01*
X63260946Y-60490484D01*
X63252182Y-60494949D01*
X63080213Y-60619890D01*
X62929890Y-60770213D01*
X62804951Y-60942179D01*
X62708444Y-61131585D01*
X62642753Y-61333760D01*
X62609500Y-61543713D01*
X62609500Y-61756286D01*
X62642753Y-61966239D01*
X62708444Y-62168414D01*
X62804951Y-62357820D01*
X62929890Y-62529786D01*
X63080213Y-62680109D01*
X63252179Y-62805048D01*
X63252181Y-62805049D01*
X63252184Y-62805051D01*
X63261493Y-62809794D01*
X63312290Y-62857766D01*
X63329087Y-62925587D01*
X63306552Y-62991722D01*
X63261505Y-63030760D01*
X63252446Y-63035376D01*
X63252440Y-63035380D01*
X63198282Y-63074727D01*
X63198282Y-63074728D01*
X63830591Y-63707037D01*
X63767007Y-63724075D01*
X63652993Y-63789901D01*
X63559901Y-63882993D01*
X63494075Y-63997007D01*
X63477037Y-64060591D01*
X62844728Y-63428282D01*
X62844727Y-63428282D01*
X62805380Y-63482439D01*
X62708904Y-63671782D01*
X62643242Y-63873869D01*
X62643242Y-63873872D01*
X62610000Y-64083753D01*
X62610000Y-64296246D01*
X62643242Y-64506127D01*
X62643242Y-64506130D01*
X62708904Y-64708217D01*
X62805375Y-64897550D01*
X62844728Y-64951716D01*
X63477037Y-64319408D01*
X63494075Y-64382993D01*
X63559901Y-64497007D01*
X63652993Y-64590099D01*
X63767007Y-64655925D01*
X63830589Y-64672962D01*
X63198282Y-65305269D01*
X63198282Y-65305270D01*
X63252449Y-65344624D01*
X63441782Y-65441095D01*
X63643870Y-65506757D01*
X63853754Y-65540000D01*
X64066246Y-65540000D01*
X64276127Y-65506757D01*
X64276130Y-65506757D01*
X64478217Y-65441095D01*
X64519205Y-65420211D01*
X64587874Y-65407315D01*
X64652614Y-65433591D01*
X64692872Y-65490697D01*
X64699500Y-65530696D01*
X64699500Y-67515500D01*
X64679815Y-67582539D01*
X64627011Y-67628294D01*
X64575500Y-67639500D01*
X40424500Y-67639500D01*
X40357461Y-67619815D01*
X40311706Y-67567011D01*
X40300500Y-67515500D01*
X40300500Y-65500124D01*
X40320185Y-65433085D01*
X40372989Y-65387330D01*
X40442147Y-65377386D01*
X40480795Y-65389639D01*
X40581782Y-65441095D01*
X40783870Y-65506757D01*
X40993754Y-65540000D01*
X41206246Y-65540000D01*
X41416127Y-65506757D01*
X41416130Y-65506757D01*
X41618217Y-65441095D01*
X41807554Y-65344622D01*
X41861716Y-65305270D01*
X41861717Y-65305270D01*
X41229409Y-64672962D01*
X41292993Y-64655925D01*
X41407007Y-64590099D01*
X41500099Y-64497007D01*
X41565925Y-64382993D01*
X41582962Y-64319409D01*
X42215270Y-64951717D01*
X42215270Y-64951716D01*
X42254622Y-64897554D01*
X42351095Y-64708217D01*
X42416757Y-64506130D01*
X42416757Y-64506127D01*
X42450000Y-64296246D01*
X42450000Y-64083753D01*
X42416757Y-63873872D01*
X42416757Y-63873869D01*
X42351095Y-63671782D01*
X42254624Y-63482449D01*
X42215270Y-63428282D01*
X42215269Y-63428282D01*
X41582962Y-64060590D01*
X41565925Y-63997007D01*
X41500099Y-63882993D01*
X41407007Y-63789901D01*
X41292993Y-63724075D01*
X41229407Y-63707036D01*
X41861716Y-63074728D01*
X41807547Y-63035373D01*
X41807547Y-63035372D01*
X41798500Y-63030763D01*
X41747706Y-62982788D01*
X41730912Y-62914966D01*
X41753451Y-62848832D01*
X41798508Y-62809793D01*
X41807816Y-62805051D01*
X41899500Y-62738439D01*
X41979786Y-62680109D01*
X41979788Y-62680106D01*
X41979792Y-62680104D01*
X42130104Y-62529792D01*
X42130106Y-62529788D01*
X42130109Y-62529786D01*
X42255048Y-62357820D01*
X42255047Y-62357820D01*
X42255051Y-62357816D01*
X42351557Y-62168412D01*
X42417246Y-61966243D01*
X42450500Y-61756287D01*
X42450500Y-61543713D01*
X42417246Y-61333757D01*
X42351557Y-61131588D01*
X42255051Y-60942184D01*
X42255049Y-60942181D01*
X42255048Y-60942179D01*
X42130109Y-60770213D01*
X41979786Y-60619890D01*
X41807820Y-60494951D01*
X41807115Y-60494591D01*
X41799054Y-60490485D01*
X41748259Y-60442512D01*
X41731463Y-60374692D01*
X41753999Y-60308556D01*
X41799054Y-60269515D01*
X41807816Y-60265051D01*
X41839501Y-60242031D01*
X41979786Y-60140109D01*
X41979788Y-60140106D01*
X41979792Y-60140104D01*
X42130104Y-59989792D01*
X42130106Y-59989788D01*
X42130109Y-59989786D01*
X42255048Y-59817820D01*
X42255047Y-59817820D01*
X42255051Y-59817816D01*
X42351557Y-59628412D01*
X42417246Y-59426243D01*
X42450500Y-59216287D01*
X42450500Y-59003713D01*
X42417246Y-58793757D01*
X42351557Y-58591588D01*
X42255051Y-58402184D01*
X42255049Y-58402181D01*
X42255048Y-58402179D01*
X42130109Y-58230213D01*
X41979786Y-58079890D01*
X41807820Y-57954951D01*
X41807115Y-57954591D01*
X41799054Y-57950485D01*
X41748259Y-57902512D01*
X41731463Y-57834692D01*
X41753999Y-57768556D01*
X41799054Y-57729515D01*
X41807816Y-57725051D01*
X41839501Y-57702031D01*
X41979786Y-57600109D01*
X41979788Y-57600106D01*
X41979792Y-57600104D01*
X42043078Y-57536818D01*
X42104401Y-57503333D01*
X42130759Y-57500499D01*
X46746348Y-57500499D01*
X46813387Y-57520184D01*
X46834029Y-57536818D01*
X46857837Y-57560626D01*
X46916922Y-57600105D01*
X46997137Y-57653703D01*
X46997138Y-57653703D01*
X46997139Y-57653704D01*
X47032201Y-57668227D01*
X47151918Y-57717816D01*
X47316228Y-57750499D01*
X47316232Y-57750500D01*
X47316233Y-57750500D01*
X47483768Y-57750500D01*
X47483769Y-57750499D01*
X47648082Y-57717816D01*
X47802863Y-57653703D01*
X47942162Y-57560626D01*
X48060626Y-57442162D01*
X48153703Y-57302863D01*
X48217816Y-57148082D01*
X48250500Y-56983767D01*
X48250500Y-56816233D01*
X48217816Y-56651918D01*
X48193228Y-56592560D01*
X48185760Y-56523092D01*
X48204685Y-56476221D01*
X48253703Y-56402863D01*
X48317816Y-56248082D01*
X48350500Y-56083767D01*
X48350500Y-55916233D01*
X48317816Y-55751918D01*
X48253703Y-55597137D01*
X48215452Y-55539890D01*
X48160626Y-55457837D01*
X48042162Y-55339373D01*
X47902860Y-55246295D01*
X47748082Y-55182184D01*
X47748074Y-55182182D01*
X47583771Y-55149500D01*
X47583767Y-55149500D01*
X47416233Y-55149500D01*
X47416228Y-55149500D01*
X47251925Y-55182182D01*
X47251917Y-55182184D01*
X47097139Y-55246295D01*
X46957837Y-55339373D01*
X46957834Y-55339376D01*
X46835066Y-55462145D01*
X46833285Y-55460364D01*
X46784645Y-55493499D01*
X46746534Y-55499501D01*
X45053652Y-55499501D01*
X44986613Y-55479816D01*
X44965971Y-55463182D01*
X44942162Y-55439373D01*
X44802860Y-55346295D01*
X44648082Y-55282184D01*
X44648074Y-55282182D01*
X44483771Y-55249500D01*
X44483767Y-55249500D01*
X44316233Y-55249500D01*
X44316228Y-55249500D01*
X44151925Y-55282182D01*
X44151917Y-55282184D01*
X43997139Y-55346295D01*
X43857837Y-55439373D01*
X43739373Y-55557837D01*
X43646295Y-55697139D01*
X43582184Y-55851917D01*
X43582182Y-55851925D01*
X43549500Y-56016228D01*
X43549500Y-56175501D01*
X43529815Y-56242540D01*
X43477011Y-56288295D01*
X43425500Y-56299501D01*
X42522201Y-56299501D01*
X42455162Y-56279816D01*
X42409407Y-56227012D01*
X42404270Y-56213820D01*
X42362013Y-56083768D01*
X42351557Y-56051588D01*
X42351555Y-56051585D01*
X42351555Y-56051583D01*
X42255048Y-55862179D01*
X42130109Y-55690213D01*
X41979786Y-55539890D01*
X41807820Y-55414951D01*
X41807115Y-55414591D01*
X41799054Y-55410485D01*
X41748259Y-55362512D01*
X41731463Y-55294692D01*
X41753999Y-55228556D01*
X41799054Y-55189515D01*
X41807816Y-55185051D01*
X41856748Y-55149500D01*
X41979786Y-55060109D01*
X41979788Y-55060106D01*
X41979792Y-55060104D01*
X42130104Y-54909792D01*
X42130106Y-54909788D01*
X42130109Y-54909786D01*
X42255048Y-54737820D01*
X42255047Y-54737820D01*
X42255051Y-54737816D01*
X42351557Y-54548412D01*
X42417246Y-54346243D01*
X42450500Y-54136287D01*
X42450500Y-53923713D01*
X42417246Y-53713757D01*
X42351557Y-53511588D01*
X42255051Y-53322184D01*
X42255049Y-53322181D01*
X42255048Y-53322179D01*
X42130109Y-53150213D01*
X41979786Y-52999890D01*
X41807820Y-52874951D01*
X41807115Y-52874591D01*
X41799054Y-52870485D01*
X41748259Y-52822512D01*
X41731463Y-52754692D01*
X41753999Y-52688556D01*
X41799054Y-52649515D01*
X41807816Y-52645051D01*
X41839501Y-52622031D01*
X41979786Y-52520109D01*
X41979788Y-52520106D01*
X41979792Y-52520104D01*
X42130104Y-52369792D01*
X42130106Y-52369788D01*
X42130109Y-52369786D01*
X42255048Y-52197820D01*
X42255047Y-52197820D01*
X42255051Y-52197816D01*
X42351557Y-52008412D01*
X42417246Y-51806243D01*
X42450500Y-51596287D01*
X42450500Y-51383713D01*
X42417246Y-51173757D01*
X42351557Y-50971588D01*
X42255051Y-50782184D01*
X42255049Y-50782181D01*
X42255048Y-50782179D01*
X42130109Y-50610213D01*
X41979786Y-50459890D01*
X41807820Y-50334951D01*
X41807115Y-50334591D01*
X41799054Y-50330485D01*
X41748259Y-50282512D01*
X41731463Y-50214692D01*
X41753999Y-50148556D01*
X41799054Y-50109515D01*
X41807816Y-50105051D01*
X41839501Y-50082031D01*
X41979786Y-49980109D01*
X41979788Y-49980106D01*
X41979792Y-49980104D01*
X42130104Y-49829792D01*
X42130106Y-49829788D01*
X42130109Y-49829786D01*
X42255048Y-49657820D01*
X42255047Y-49657820D01*
X42255051Y-49657816D01*
X42351557Y-49468412D01*
X42417246Y-49266243D01*
X42450500Y-49056287D01*
X42450500Y-48843713D01*
X42417246Y-48633757D01*
X42351557Y-48431588D01*
X42255051Y-48242184D01*
X42255049Y-48242181D01*
X42255048Y-48242179D01*
X42130109Y-48070213D01*
X42016569Y-47956673D01*
X41983084Y-47895350D01*
X41988068Y-47825658D01*
X42029940Y-47769725D01*
X42060915Y-47752810D01*
X42192331Y-47703796D01*
X42307546Y-47617546D01*
X42393796Y-47502331D01*
X42444091Y-47367483D01*
X42450500Y-47307873D01*
X42450499Y-45512128D01*
X42444091Y-45452517D01*
X42393796Y-45317669D01*
X42393795Y-45317668D01*
X42393793Y-45317664D01*
X42307547Y-45202455D01*
X42307544Y-45202452D01*
X42192335Y-45116206D01*
X42192328Y-45116202D01*
X42057482Y-45065908D01*
X42057483Y-45065908D01*
X41997883Y-45059501D01*
X41997881Y-45059500D01*
X41997873Y-45059500D01*
X41997865Y-45059500D01*
X40424500Y-45059500D01*
X40357461Y-45039815D01*
X40311706Y-44987011D01*
X40300500Y-44935500D01*
X40300500Y-40164500D01*
X40320185Y-40097461D01*
X40372989Y-40051706D01*
X40424500Y-40040500D01*
X64575500Y-40040500D01*
X64642539Y-40060185D01*
G37*
%TD.AperFunction*%
%TD*%
M02*
