%TF.GenerationSoftware,KiCad,Pcbnew,9.0.2*%
%TF.CreationDate,2026-07-22T10:58:38+03:00*%
%TF.ProjectId,E07400M10S,45303734-3030-44d3-9130-532e6b696361,rev?*%
%TF.SameCoordinates,Original*%
%TF.FileFunction,Legend,Bot*%
%TF.FilePolarity,Positive*%
%FSLAX46Y46*%
G04 Gerber Fmt 4.6, Leading zero omitted, Abs format (unit mm)*
G04 Created by KiCad (PCBNEW 9.0.2) date 2026-07-22 10:58:38*
%MOMM*%
%LPD*%
G01*
G04 APERTURE LIST*
%ADD10C,0.000000*%
%ADD11C,0.120000*%
%ADD12R,1.700000X1.700000*%
%ADD13C,1.700000*%
G04 APERTURE END LIST*
D10*
%TO.C,kibuzzard-6A563B71*%
G36*
X45943995Y-58684438D02*
G01*
X46015481Y-58797119D01*
X46049407Y-58963113D01*
X46055768Y-59061255D01*
X46057888Y-59166667D01*
X46055768Y-59272382D01*
X46049407Y-59371433D01*
X46015481Y-59537426D01*
X45943995Y-59648896D01*
X45820409Y-59690092D01*
X45698034Y-59648896D01*
X45625336Y-59536215D01*
X45591410Y-59370221D01*
X45585049Y-59272079D01*
X45582929Y-59166667D01*
X45585049Y-59060952D01*
X45591410Y-58961901D01*
X45625336Y-58795908D01*
X45696822Y-58684438D01*
X45820409Y-58643242D01*
X45943995Y-58684438D01*
G37*
G36*
X47976156Y-58200934D02*
G01*
X48160870Y-58256967D01*
X48331103Y-58347958D01*
X48480314Y-58470412D01*
X48602768Y-58619623D01*
X48693760Y-58789857D01*
X48749792Y-58974571D01*
X48768712Y-59166667D01*
X48749792Y-59358763D01*
X48693760Y-59543477D01*
X48602768Y-59713711D01*
X48480314Y-59862922D01*
X48331103Y-59985376D01*
X48160870Y-60076367D01*
X47976156Y-60132400D01*
X47784060Y-60151320D01*
X47582121Y-60151320D01*
X46481959Y-60151320D01*
X45817985Y-60151320D01*
X44652396Y-60151320D01*
X43872105Y-60151320D01*
X42919762Y-60151320D01*
X42717824Y-60151320D01*
X42717824Y-58665051D01*
X42919762Y-58665051D01*
X43244480Y-58665051D01*
X43244480Y-59670706D01*
X42919762Y-59670706D01*
X42919762Y-59917879D01*
X43872105Y-59917879D01*
X43872105Y-59670706D01*
X43544964Y-59670706D01*
X43544964Y-59508347D01*
X44099892Y-59508347D01*
X44134120Y-59695241D01*
X44236806Y-59834276D01*
X44343833Y-59898223D01*
X44482363Y-59936592D01*
X44652396Y-59949381D01*
X44820207Y-59939385D01*
X44950457Y-59909397D01*
X45117662Y-59835488D01*
X45030425Y-59593161D01*
X44874124Y-59665859D01*
X44773256Y-59691304D01*
X44652396Y-59699785D01*
X44527598Y-59684034D01*
X44448842Y-59640415D01*
X44408858Y-59577410D01*
X44397953Y-59505924D01*
X44424609Y-59423533D01*
X44492460Y-59359316D01*
X44584544Y-59308428D01*
X44686321Y-59266021D01*
X44826871Y-59210286D01*
X44898908Y-59166667D01*
X45280021Y-59166667D01*
X45288805Y-59348639D01*
X45315158Y-59506833D01*
X45359080Y-59641248D01*
X45420570Y-59751885D01*
X45527194Y-59861605D01*
X45659665Y-59927437D01*
X45817985Y-59949381D01*
X45980209Y-59927437D01*
X45999735Y-59917879D01*
X46481959Y-59917879D01*
X46755788Y-59917879D01*
X46741249Y-58752289D01*
X46925417Y-59387184D01*
X47143510Y-59387184D01*
X47320409Y-58752289D01*
X47308292Y-59917879D01*
X47582121Y-59917879D01*
X47574548Y-59730076D01*
X47566370Y-59535003D01*
X47557585Y-59336901D01*
X47548195Y-59140011D01*
X47537594Y-58946756D01*
X47525174Y-58759559D01*
X47510938Y-58582055D01*
X47494884Y-58417879D01*
X47247711Y-58417879D01*
X47205304Y-58548735D01*
X47150780Y-58720787D01*
X47092622Y-58907378D01*
X47036887Y-59081853D01*
X46976305Y-58896473D01*
X46915724Y-58712305D01*
X46862412Y-58546312D01*
X46818793Y-58417879D01*
X46571620Y-58417879D01*
X46554960Y-58611740D01*
X46538906Y-58800754D01*
X46524367Y-58986437D01*
X46512250Y-59170302D01*
X46502254Y-59353864D01*
X46494076Y-59538638D01*
X46487412Y-59726138D01*
X46481959Y-59917879D01*
X45999735Y-59917879D01*
X46114700Y-59861605D01*
X46221459Y-59751885D01*
X46282419Y-59641248D01*
X46325962Y-59506833D01*
X46352088Y-59348639D01*
X46360796Y-59166667D01*
X46351860Y-58984695D01*
X46325053Y-58826501D01*
X46280374Y-58692086D01*
X46217824Y-58581449D01*
X46110123Y-58471729D01*
X45977651Y-58405897D01*
X45820409Y-58383953D01*
X45658319Y-58405897D01*
X45524232Y-58471729D01*
X45418147Y-58581449D01*
X45357717Y-58692086D01*
X45314552Y-58826501D01*
X45288654Y-58984695D01*
X45280021Y-59166667D01*
X44898908Y-59166667D01*
X44958938Y-59130318D01*
X45057081Y-59010367D01*
X45095853Y-58832257D01*
X45061624Y-58644454D01*
X44958938Y-58502693D01*
X44856219Y-58436726D01*
X44730613Y-58397146D01*
X44582121Y-58383953D01*
X44452779Y-58391829D01*
X44341006Y-58415455D01*
X44167743Y-58485730D01*
X44254980Y-58715940D01*
X44389472Y-58657782D01*
X44560312Y-58633549D01*
X44692245Y-58652666D01*
X44771405Y-58710016D01*
X44797791Y-58805601D01*
X44773559Y-58881934D01*
X44711766Y-58940092D01*
X44626951Y-58984922D01*
X44533656Y-59021271D01*
X44387048Y-59080641D01*
X44246499Y-59167879D01*
X44141087Y-59303581D01*
X44110190Y-59395362D01*
X44099892Y-59508347D01*
X43544964Y-59508347D01*
X43544964Y-58665051D01*
X43872105Y-58665051D01*
X43872105Y-58417879D01*
X42919762Y-58417879D01*
X42919762Y-58665051D01*
X42717824Y-58665051D01*
X42717824Y-58182014D01*
X42919762Y-58182014D01*
X47582121Y-58182014D01*
X47784060Y-58182014D01*
X47976156Y-58200934D01*
G37*
%TO.C,kibuzzard-6A5A4D90*%
G36*
X60614459Y-48694750D02*
G01*
X60658078Y-48700808D01*
X60658078Y-49708885D01*
X60631422Y-49711309D01*
X60604766Y-49711309D01*
X60433926Y-49672536D01*
X60322456Y-49565913D01*
X60261874Y-49404766D01*
X60248243Y-49306926D01*
X60243700Y-49200000D01*
X60258239Y-49010985D01*
X60309128Y-48848627D01*
X60408481Y-48735945D01*
X60570840Y-48693538D01*
X60614459Y-48694750D01*
G37*
G36*
X59393134Y-48717771D02*
G01*
X59464620Y-48830452D01*
X59498546Y-48996446D01*
X59504907Y-49094588D01*
X59507027Y-49200000D01*
X59504907Y-49305715D01*
X59498546Y-49404766D01*
X59464620Y-49570759D01*
X59393134Y-49682229D01*
X59269548Y-49723425D01*
X59147173Y-49682229D01*
X59074475Y-49569548D01*
X59040549Y-49403554D01*
X59034188Y-49305412D01*
X59032068Y-49200000D01*
X59034188Y-49094285D01*
X59040549Y-48995234D01*
X59074475Y-48829241D01*
X59145961Y-48717771D01*
X59269548Y-48676575D01*
X59393134Y-48717771D01*
G37*
G36*
X62435137Y-50184653D02*
G01*
X62233199Y-50184653D01*
X61620113Y-50184653D01*
X60636268Y-50184653D01*
X59267124Y-50184653D01*
X57551454Y-50184653D01*
X57349515Y-50184653D01*
X57157419Y-50165733D01*
X56972705Y-50109700D01*
X56802472Y-50018709D01*
X56653261Y-49896255D01*
X56530807Y-49747044D01*
X56507820Y-49704039D01*
X57551454Y-49704039D01*
X57551454Y-49951212D01*
X58462601Y-49951212D01*
X58462601Y-49704039D01*
X58147577Y-49704039D01*
X58147577Y-49200000D01*
X58729160Y-49200000D01*
X58737944Y-49381972D01*
X58764297Y-49540166D01*
X58808219Y-49674581D01*
X58869709Y-49785218D01*
X58976333Y-49894938D01*
X59108805Y-49960770D01*
X59267124Y-49982714D01*
X59429348Y-49960770D01*
X59563840Y-49894938D01*
X59670598Y-49785218D01*
X59731558Y-49674581D01*
X59775101Y-49540166D01*
X59801227Y-49381972D01*
X59809935Y-49200000D01*
X59940792Y-49200000D01*
X59953817Y-49392952D01*
X59992892Y-49555008D01*
X60054988Y-49687985D01*
X60137076Y-49793700D01*
X60237944Y-49873364D01*
X60356381Y-49928191D01*
X60489964Y-49959996D01*
X60636268Y-49970598D01*
X60792569Y-49962116D01*
X60956139Y-49934249D01*
X60956139Y-48526333D01*
X61174233Y-48526333D01*
X61251777Y-48763813D01*
X61382633Y-48703231D01*
X61542569Y-48676575D01*
X61721890Y-48715347D01*
X61841842Y-48823183D01*
X61909693Y-48987964D01*
X61925141Y-49088833D01*
X61930291Y-49200000D01*
X61920867Y-49363570D01*
X61892596Y-49495638D01*
X61845477Y-49596204D01*
X61740670Y-49691620D01*
X61595880Y-49723425D01*
X61537722Y-49721002D01*
X61479564Y-49713732D01*
X61479564Y-49166074D01*
X61181502Y-49166074D01*
X61181502Y-49914863D01*
X61347496Y-49958481D01*
X61471991Y-49976656D01*
X61620113Y-49982714D01*
X61753695Y-49970295D01*
X61873344Y-49933037D01*
X61977847Y-49871244D01*
X62065994Y-49785218D01*
X62136874Y-49674960D01*
X62189580Y-49540468D01*
X62222294Y-49382048D01*
X62233199Y-49200000D01*
X62220477Y-49019770D01*
X62182310Y-48861955D01*
X62122334Y-48727161D01*
X62044184Y-48615994D01*
X61949071Y-48529059D01*
X61838207Y-48466963D01*
X61715226Y-48429705D01*
X61583764Y-48417286D01*
X61427464Y-48430614D01*
X61307512Y-48460905D01*
X61223910Y-48497254D01*
X61174233Y-48526333D01*
X60956139Y-48526333D01*
X60956139Y-48470598D01*
X60764701Y-48441519D01*
X60597496Y-48434249D01*
X60456038Y-48445153D01*
X60327302Y-48477868D01*
X60214317Y-48533905D01*
X60120113Y-48614782D01*
X60044689Y-48720800D01*
X59988045Y-48852262D01*
X59952605Y-49011288D01*
X59940792Y-49200000D01*
X59809935Y-49200000D01*
X59801000Y-49018028D01*
X59774192Y-48859834D01*
X59729513Y-48725419D01*
X59666963Y-48614782D01*
X59559262Y-48505062D01*
X59426791Y-48439230D01*
X59269548Y-48417286D01*
X59107458Y-48439230D01*
X58973371Y-48505062D01*
X58867286Y-48614782D01*
X58806856Y-48725419D01*
X58763691Y-48859834D01*
X58737793Y-49018028D01*
X58729160Y-49200000D01*
X58147577Y-49200000D01*
X58147577Y-48865590D01*
X58302666Y-48951616D01*
X58450485Y-49010985D01*
X58547415Y-48763813D01*
X58421405Y-48708078D01*
X58285703Y-48632956D01*
X58157270Y-48545719D01*
X58053069Y-48451212D01*
X57849515Y-48451212D01*
X57849515Y-49704039D01*
X57551454Y-49704039D01*
X56507820Y-49704039D01*
X56439815Y-49576810D01*
X56383783Y-49392096D01*
X56364863Y-49200000D01*
X56383783Y-49007904D01*
X56439815Y-48823190D01*
X56530807Y-48652956D01*
X56653261Y-48503745D01*
X56802472Y-48381291D01*
X56972705Y-48290300D01*
X57157419Y-48234267D01*
X57349515Y-48215347D01*
X57551454Y-48215347D01*
X62233199Y-48215347D01*
X62435137Y-48215347D01*
X62435137Y-50184653D01*
G37*
%TO.C,kibuzzard-6A563B96*%
G36*
X59349865Y-63794750D02*
G01*
X59393484Y-63800808D01*
X59393484Y-64808885D01*
X59366828Y-64811309D01*
X59340172Y-64811309D01*
X59169332Y-64772536D01*
X59057862Y-64665913D01*
X58997281Y-64504766D01*
X58983650Y-64406926D01*
X58979106Y-64300000D01*
X58993646Y-64110985D01*
X59044534Y-63948627D01*
X59143888Y-63835945D01*
X59306247Y-63793538D01*
X59349865Y-63794750D01*
G37*
G36*
X62382176Y-65284653D02*
G01*
X62180237Y-65284653D01*
X61567151Y-65284653D01*
X60173775Y-65284653D01*
X59371675Y-65284653D01*
X58676198Y-65284653D01*
X58474260Y-65284653D01*
X57817824Y-64300000D01*
X58676198Y-64300000D01*
X58689223Y-64492952D01*
X58728298Y-64655008D01*
X58790394Y-64787985D01*
X58872482Y-64893700D01*
X58973351Y-64973364D01*
X59091788Y-65028191D01*
X59225370Y-65059996D01*
X59371675Y-65070598D01*
X59527975Y-65062116D01*
X59591978Y-65051212D01*
X59933872Y-65051212D01*
X60173775Y-65051212D01*
X60243646Y-64884949D01*
X60317555Y-64718955D01*
X60395504Y-64553231D01*
X60477491Y-64387507D01*
X60563516Y-64221513D01*
X60653581Y-64055250D01*
X60653581Y-65051212D01*
X60922563Y-65051212D01*
X60922563Y-63626333D01*
X61121271Y-63626333D01*
X61198815Y-63863813D01*
X61329672Y-63803231D01*
X61489607Y-63776575D01*
X61668928Y-63815347D01*
X61788880Y-63923183D01*
X61856731Y-64087964D01*
X61872180Y-64188833D01*
X61877329Y-64300000D01*
X61867905Y-64463570D01*
X61839634Y-64595638D01*
X61792515Y-64696204D01*
X61687709Y-64791620D01*
X61542919Y-64823425D01*
X61484760Y-64821002D01*
X61426602Y-64813732D01*
X61426602Y-64266074D01*
X61128541Y-64266074D01*
X61128541Y-65014863D01*
X61294534Y-65058481D01*
X61419029Y-65076656D01*
X61567151Y-65082714D01*
X61700734Y-65070295D01*
X61820382Y-65033037D01*
X61924886Y-64971244D01*
X62013032Y-64885218D01*
X62083912Y-64774960D01*
X62136618Y-64640468D01*
X62169332Y-64482048D01*
X62180237Y-64300000D01*
X62167515Y-64119770D01*
X62129348Y-63961955D01*
X62069373Y-63827161D01*
X61991222Y-63715994D01*
X61896109Y-63629059D01*
X61785245Y-63566963D01*
X61662264Y-63529705D01*
X61530802Y-63517286D01*
X61374502Y-63530614D01*
X61254550Y-63560905D01*
X61170948Y-63597254D01*
X61121271Y-63626333D01*
X60922563Y-63626333D01*
X60922563Y-63551212D01*
X60682660Y-63551212D01*
X60614809Y-63662379D01*
X60546957Y-63782633D01*
X60480015Y-63907128D01*
X60414890Y-64031018D01*
X60353096Y-64152787D01*
X60296150Y-64270921D01*
X60245564Y-64379968D01*
X60202854Y-64474475D01*
X60202854Y-63551212D01*
X59933872Y-63551212D01*
X59933872Y-65051212D01*
X59591978Y-65051212D01*
X59691546Y-65034249D01*
X59691546Y-63570598D01*
X59500108Y-63541519D01*
X59332903Y-63534249D01*
X59191445Y-63545153D01*
X59062709Y-63577868D01*
X58949724Y-63633905D01*
X58855520Y-63714782D01*
X58780096Y-63820800D01*
X58723452Y-63952262D01*
X58688012Y-64111288D01*
X58676198Y-64300000D01*
X57817824Y-64300000D01*
X58474260Y-63315347D01*
X58676198Y-63315347D01*
X62180237Y-63315347D01*
X62382176Y-63315347D01*
X62382176Y-65284653D01*
G37*
D11*
%TO.C,J2*%
X62580000Y-47680000D02*
X62580000Y-65570000D01*
X65340000Y-45030000D02*
X63960000Y-45030000D01*
X65340000Y-46410000D02*
X65340000Y-45030000D01*
X65340000Y-47680000D02*
X62580000Y-47680000D01*
X65340000Y-47680000D02*
X65340000Y-65570000D01*
X65340000Y-65570000D02*
X62580000Y-65570000D01*
D10*
%TO.C,kibuzzard-6A563B88*%
G36*
X43593430Y-63794750D02*
G01*
X43637049Y-63800808D01*
X43637049Y-64808885D01*
X43610393Y-64811309D01*
X43583737Y-64811309D01*
X43412897Y-64772536D01*
X43301427Y-64665913D01*
X43240845Y-64504766D01*
X43227215Y-64406926D01*
X43222671Y-64300000D01*
X43237211Y-64110985D01*
X43288099Y-63948627D01*
X43387453Y-63835945D01*
X43549812Y-63793538D01*
X43593430Y-63794750D01*
G37*
G36*
X47282176Y-64300000D02*
G01*
X46625740Y-65284653D01*
X46423802Y-65284653D01*
X45810716Y-65284653D01*
X44417340Y-65284653D01*
X43615240Y-65284653D01*
X42919763Y-65284653D01*
X42717824Y-65284653D01*
X42717824Y-64300000D01*
X42919763Y-64300000D01*
X42932788Y-64492952D01*
X42971863Y-64655008D01*
X43033959Y-64787985D01*
X43116047Y-64893700D01*
X43216916Y-64973364D01*
X43335353Y-65028191D01*
X43468935Y-65059996D01*
X43615240Y-65070598D01*
X43771540Y-65062116D01*
X43835543Y-65051212D01*
X44177437Y-65051212D01*
X44417340Y-65051212D01*
X44487211Y-64884949D01*
X44561120Y-64718955D01*
X44639068Y-64553231D01*
X44721055Y-64387507D01*
X44807081Y-64221513D01*
X44897146Y-64055250D01*
X44897146Y-65051212D01*
X45166128Y-65051212D01*
X45166128Y-63626333D01*
X45364836Y-63626333D01*
X45442380Y-63863813D01*
X45573236Y-63803231D01*
X45733172Y-63776575D01*
X45912493Y-63815347D01*
X46032445Y-63923183D01*
X46100296Y-64087964D01*
X46115744Y-64188833D01*
X46120894Y-64300000D01*
X46111470Y-64463570D01*
X46083199Y-64595638D01*
X46036080Y-64696204D01*
X45931274Y-64791620D01*
X45786484Y-64823425D01*
X45728325Y-64821002D01*
X45670167Y-64813732D01*
X45670167Y-64266074D01*
X45372106Y-64266074D01*
X45372106Y-65014863D01*
X45538099Y-65058481D01*
X45662594Y-65076656D01*
X45810716Y-65082714D01*
X45944299Y-65070295D01*
X46063947Y-65033037D01*
X46168450Y-64971244D01*
X46256597Y-64885218D01*
X46327477Y-64774960D01*
X46380183Y-64640468D01*
X46412897Y-64482048D01*
X46423802Y-64300000D01*
X46411080Y-64119770D01*
X46372913Y-63961955D01*
X46312938Y-63827161D01*
X46234787Y-63715994D01*
X46139674Y-63629059D01*
X46028810Y-63566963D01*
X45905829Y-63529705D01*
X45774367Y-63517286D01*
X45618067Y-63530614D01*
X45498115Y-63560905D01*
X45414513Y-63597254D01*
X45364836Y-63626333D01*
X45166128Y-63626333D01*
X45166128Y-63551212D01*
X44926225Y-63551212D01*
X44858374Y-63662379D01*
X44790522Y-63782633D01*
X44723580Y-63907128D01*
X44658454Y-64031018D01*
X44596661Y-64152787D01*
X44539715Y-64270921D01*
X44489129Y-64379968D01*
X44446419Y-64474475D01*
X44446419Y-63551212D01*
X44177437Y-63551212D01*
X44177437Y-65051212D01*
X43835543Y-65051212D01*
X43935110Y-65034249D01*
X43935110Y-63570598D01*
X43743673Y-63541519D01*
X43576467Y-63534249D01*
X43435009Y-63545153D01*
X43306274Y-63577868D01*
X43193289Y-63633905D01*
X43099085Y-63714782D01*
X43023660Y-63820800D01*
X42967017Y-63952262D01*
X42931576Y-64111288D01*
X42919763Y-64300000D01*
X42717824Y-64300000D01*
X42717824Y-63315347D01*
X42919763Y-63315347D01*
X46423802Y-63315347D01*
X46625740Y-63315347D01*
X47282176Y-64300000D01*
G37*
%TO.C,kibuzzard-6A563B65*%
G36*
X43583737Y-56117771D02*
G01*
X43655223Y-56230452D01*
X43689149Y-56396446D01*
X43695510Y-56494588D01*
X43697630Y-56600000D01*
X43695510Y-56705715D01*
X43689149Y-56804766D01*
X43655223Y-56970759D01*
X43583737Y-57082229D01*
X43460151Y-57123425D01*
X43337776Y-57082229D01*
X43265078Y-56969548D01*
X43231152Y-56803554D01*
X43224791Y-56705412D01*
X43222671Y-56600000D01*
X43224791Y-56494285D01*
X43231152Y-56395234D01*
X43265078Y-56229241D01*
X43336564Y-56117771D01*
X43460151Y-56076575D01*
X43583737Y-56117771D01*
G37*
G36*
X48039161Y-55634267D02*
G01*
X48223875Y-55690300D01*
X48394109Y-55781291D01*
X48543320Y-55903745D01*
X48665774Y-56052956D01*
X48756765Y-56223190D01*
X48812798Y-56407904D01*
X48831718Y-56600000D01*
X48812798Y-56792096D01*
X48756765Y-56976810D01*
X48665774Y-57147044D01*
X48543320Y-57296255D01*
X48394109Y-57418709D01*
X48223875Y-57509700D01*
X48039161Y-57565733D01*
X47847065Y-57584653D01*
X47645126Y-57584653D01*
X46544965Y-57584653D01*
X46358374Y-57584653D01*
X44715401Y-57584653D01*
X43457727Y-57584653D01*
X42919763Y-57584653D01*
X42717824Y-57584653D01*
X42717824Y-56600000D01*
X42919763Y-56600000D01*
X42928547Y-56781972D01*
X42954900Y-56940166D01*
X42998822Y-57074581D01*
X43060312Y-57185218D01*
X43166936Y-57294938D01*
X43299408Y-57360770D01*
X43457727Y-57382714D01*
X43619951Y-57360770D01*
X43754443Y-57294938D01*
X43861201Y-57185218D01*
X43922161Y-57074581D01*
X43965214Y-56941680D01*
X44162897Y-56941680D01*
X44197126Y-57128574D01*
X44299811Y-57267609D01*
X44406839Y-57331556D01*
X44545369Y-57369925D01*
X44715401Y-57382714D01*
X44883212Y-57372718D01*
X45013462Y-57342730D01*
X45180668Y-57268821D01*
X45093430Y-57026494D01*
X44937130Y-57099192D01*
X44836261Y-57124637D01*
X44715401Y-57133118D01*
X44590603Y-57117367D01*
X44511847Y-57073748D01*
X44471863Y-57010743D01*
X44460958Y-56939257D01*
X44487614Y-56856866D01*
X44555466Y-56792649D01*
X44647550Y-56741761D01*
X44749327Y-56699354D01*
X44889876Y-56643619D01*
X45021944Y-56563651D01*
X45120086Y-56443700D01*
X45158858Y-56265590D01*
X45128384Y-56098384D01*
X45406031Y-56098384D01*
X45730748Y-56098384D01*
X45730748Y-57104039D01*
X45406031Y-57104039D01*
X45406031Y-57351212D01*
X46358374Y-57351212D01*
X46544965Y-57351212D01*
X46818794Y-57351212D01*
X46804254Y-56185622D01*
X46988422Y-56820517D01*
X47206516Y-56820517D01*
X47383414Y-56185622D01*
X47371298Y-57351212D01*
X47645126Y-57351212D01*
X47637554Y-57163409D01*
X47629375Y-56968336D01*
X47620591Y-56770234D01*
X47611201Y-56573344D01*
X47600599Y-56380089D01*
X47588180Y-56192892D01*
X47573943Y-56015388D01*
X47557889Y-55851212D01*
X47310716Y-55851212D01*
X47268309Y-55982068D01*
X47213786Y-56154120D01*
X47155627Y-56340711D01*
X47099892Y-56515186D01*
X47039311Y-56329806D01*
X46978729Y-56145638D01*
X46925417Y-55979645D01*
X46881798Y-55851212D01*
X46634626Y-55851212D01*
X46617966Y-56045073D01*
X46601912Y-56234087D01*
X46587372Y-56419770D01*
X46575256Y-56603635D01*
X46565260Y-56787197D01*
X46557081Y-56971971D01*
X46550417Y-57159471D01*
X46544965Y-57351212D01*
X46358374Y-57351212D01*
X46358374Y-57104039D01*
X46031233Y-57104039D01*
X46031233Y-56098384D01*
X46358374Y-56098384D01*
X46358374Y-55851212D01*
X45406031Y-55851212D01*
X45406031Y-56098384D01*
X45128384Y-56098384D01*
X45124630Y-56077787D01*
X45021944Y-55936026D01*
X44919224Y-55870059D01*
X44793619Y-55830479D01*
X44645126Y-55817286D01*
X44515785Y-55825162D01*
X44404012Y-55848788D01*
X44230748Y-55919063D01*
X44317986Y-56149273D01*
X44452477Y-56091115D01*
X44623317Y-56066882D01*
X44755250Y-56085999D01*
X44834410Y-56143349D01*
X44860797Y-56238934D01*
X44836564Y-56315267D01*
X44774771Y-56373425D01*
X44689957Y-56418255D01*
X44596661Y-56454604D01*
X44450054Y-56513974D01*
X44309504Y-56601212D01*
X44204092Y-56736914D01*
X44173196Y-56828695D01*
X44162897Y-56941680D01*
X43965214Y-56941680D01*
X43965704Y-56940166D01*
X43991830Y-56781972D01*
X44000538Y-56600000D01*
X43991603Y-56418028D01*
X43964795Y-56259834D01*
X43920116Y-56125419D01*
X43857566Y-56014782D01*
X43749865Y-55905062D01*
X43617394Y-55839230D01*
X43460151Y-55817286D01*
X43298061Y-55839230D01*
X43163974Y-55905062D01*
X43057889Y-56014782D01*
X42997459Y-56125419D01*
X42954294Y-56259834D01*
X42928396Y-56418028D01*
X42919763Y-56600000D01*
X42717824Y-56600000D01*
X42717824Y-55615347D01*
X42919763Y-55615347D01*
X47645126Y-55615347D01*
X47847065Y-55615347D01*
X48039161Y-55634267D01*
G37*
D11*
%TO.C,J1*%
X39720000Y-47680000D02*
X39720000Y-65570000D01*
X42480000Y-45030000D02*
X41100000Y-45030000D01*
X42480000Y-46410000D02*
X42480000Y-45030000D01*
X42480000Y-47680000D02*
X39720000Y-47680000D01*
X42480000Y-47680000D02*
X42480000Y-65570000D01*
X42480000Y-65570000D02*
X39720000Y-65570000D01*
D10*
%TO.C,kibuzzard-6A563B41*%
G36*
X45574702Y-50500934D02*
G01*
X45759416Y-50556967D01*
X45929649Y-50647958D01*
X46078860Y-50770412D01*
X46201314Y-50919623D01*
X46292306Y-51089857D01*
X46348338Y-51274571D01*
X46367258Y-51466667D01*
X46348338Y-51658763D01*
X46292306Y-51843477D01*
X46201314Y-52013711D01*
X46078860Y-52162922D01*
X45929649Y-52285376D01*
X45759416Y-52376367D01*
X45574702Y-52432400D01*
X45382606Y-52451320D01*
X45180667Y-52451320D01*
X44528809Y-52451320D01*
X43472266Y-52451320D01*
X42919762Y-52451320D01*
X42717824Y-52451320D01*
X42717824Y-51808347D01*
X42919762Y-51808347D01*
X42953991Y-51995241D01*
X43056677Y-52134276D01*
X43163704Y-52198223D01*
X43302234Y-52236592D01*
X43472266Y-52249381D01*
X43640077Y-52239385D01*
X43770328Y-52209397D01*
X43915604Y-52145181D01*
X44109585Y-52145181D01*
X44280425Y-52216667D01*
X44396438Y-52241203D01*
X44528809Y-52249381D01*
X44723747Y-52226764D01*
X44885298Y-52158913D01*
X45013462Y-52045827D01*
X45086614Y-51933297D01*
X45138866Y-51799260D01*
X45170217Y-51643717D01*
X45180667Y-51466667D01*
X45167945Y-51290375D01*
X45129778Y-51134680D01*
X45068894Y-51000492D01*
X44988018Y-50888719D01*
X44888664Y-50800270D01*
X44772347Y-50736053D01*
X44641794Y-50696978D01*
X44499730Y-50683953D01*
X44355546Y-50697281D01*
X44242864Y-50727572D01*
X44161685Y-50763921D01*
X44112008Y-50793000D01*
X44189552Y-51030480D01*
X44324043Y-50968686D01*
X44504577Y-50943242D01*
X44641491Y-50968686D01*
X44760231Y-51053501D01*
X44845045Y-51212224D01*
X44869581Y-51323694D01*
X44877759Y-51459397D01*
X44867931Y-51617313D01*
X44838448Y-51748573D01*
X44789310Y-51853178D01*
X44672690Y-51955863D01*
X44499730Y-51990092D01*
X44307081Y-51963436D01*
X44184706Y-51910124D01*
X44109585Y-52145181D01*
X43915604Y-52145181D01*
X43937533Y-52135488D01*
X43850295Y-51893161D01*
X43693995Y-51965859D01*
X43593127Y-51991304D01*
X43472266Y-51999785D01*
X43347468Y-51984034D01*
X43268712Y-51940415D01*
X43228728Y-51877410D01*
X43217824Y-51805924D01*
X43244480Y-51723533D01*
X43312331Y-51659316D01*
X43404415Y-51608428D01*
X43506192Y-51566021D01*
X43646741Y-51510286D01*
X43778809Y-51430318D01*
X43876951Y-51310367D01*
X43915724Y-51132257D01*
X43881495Y-50944454D01*
X43778809Y-50802693D01*
X43676090Y-50736726D01*
X43550484Y-50697146D01*
X43401992Y-50683953D01*
X43272650Y-50691829D01*
X43160877Y-50715455D01*
X42987614Y-50785730D01*
X43074851Y-51015940D01*
X43209342Y-50957782D01*
X43380182Y-50933549D01*
X43512116Y-50952666D01*
X43591276Y-51010016D01*
X43617662Y-51105601D01*
X43593430Y-51181934D01*
X43531636Y-51240092D01*
X43446822Y-51284922D01*
X43353526Y-51321271D01*
X43206919Y-51380641D01*
X43066370Y-51467879D01*
X42960958Y-51603581D01*
X42930061Y-51695362D01*
X42919762Y-51808347D01*
X42717824Y-51808347D01*
X42717824Y-50482014D01*
X42919762Y-50482014D01*
X45180667Y-50482014D01*
X45382606Y-50482014D01*
X45574702Y-50500934D01*
G37*
%TO.C,kibuzzard-6A563B7D*%
G36*
X48408992Y-61733333D02*
G01*
X47752557Y-62717986D01*
X47550619Y-62717986D01*
X46913300Y-62717986D01*
X45919762Y-62717986D01*
X44773559Y-62717986D01*
X43496499Y-62717986D01*
X42919762Y-62717986D01*
X42717824Y-62717986D01*
X42717824Y-62038664D01*
X42919762Y-62038664D01*
X42953688Y-62230102D01*
X43057888Y-62381556D01*
X43137856Y-62438503D01*
X43237210Y-62480910D01*
X43356556Y-62507263D01*
X43496499Y-62516047D01*
X43614027Y-62507566D01*
X43732767Y-62486968D01*
X43838179Y-62460312D01*
X43913300Y-62433656D01*
X43855142Y-62184060D01*
X43710958Y-62234949D01*
X43613724Y-62254940D01*
X43498922Y-62261604D01*
X43368975Y-62245247D01*
X43284463Y-62196176D01*
X43222670Y-62033818D01*
X43246297Y-61932949D01*
X43317178Y-61867824D01*
X43424407Y-61832384D01*
X43557081Y-61820570D01*
X43649165Y-61820570D01*
X43649165Y-61573398D01*
X43537694Y-61573398D01*
X43445610Y-61563705D01*
X43363220Y-61532202D01*
X43303850Y-61474044D01*
X43280829Y-61381960D01*
X43330505Y-61252315D01*
X43467420Y-61205062D01*
X43635837Y-61232929D01*
X43780021Y-61301992D01*
X43886644Y-61083898D01*
X43713381Y-60995449D01*
X43676149Y-60984545D01*
X44041733Y-60984545D01*
X44074144Y-61138422D01*
X44113220Y-61309262D01*
X44158656Y-61493127D01*
X44210150Y-61686079D01*
X44247711Y-61818551D01*
X44287694Y-61952638D01*
X44330102Y-62088341D01*
X44374259Y-62223371D01*
X44419493Y-62355439D01*
X44465804Y-62484545D01*
X44773559Y-62484545D01*
X44833535Y-62306435D01*
X44897145Y-62106516D01*
X44917832Y-62038664D01*
X45343026Y-62038664D01*
X45376951Y-62230102D01*
X45481152Y-62381556D01*
X45561119Y-62438503D01*
X45660473Y-62480910D01*
X45779819Y-62507263D01*
X45919762Y-62516047D01*
X46037291Y-62507566D01*
X46156031Y-62486968D01*
X46261442Y-62460312D01*
X46336564Y-62433656D01*
X46278405Y-62184060D01*
X46134221Y-62234949D01*
X46036988Y-62254940D01*
X45922186Y-62261604D01*
X45792238Y-62245247D01*
X45707727Y-62196176D01*
X45645934Y-62033818D01*
X45669560Y-61932949D01*
X45740441Y-61867824D01*
X45847670Y-61832384D01*
X45980344Y-61820570D01*
X46072428Y-61820570D01*
X46072428Y-61726063D01*
X46532848Y-61726063D01*
X46532848Y-61970813D01*
X46913300Y-61970813D01*
X46913300Y-62392461D01*
X47170166Y-62392461D01*
X47170166Y-61970813D01*
X47550619Y-61970813D01*
X47550619Y-61726063D01*
X47170166Y-61726063D01*
X47170166Y-61304415D01*
X46913300Y-61304415D01*
X46913300Y-61726063D01*
X46532848Y-61726063D01*
X46072428Y-61726063D01*
X46072428Y-61573398D01*
X45960958Y-61573398D01*
X45868874Y-61563705D01*
X45786483Y-61532202D01*
X45727113Y-61474044D01*
X45704092Y-61381960D01*
X45753769Y-61252315D01*
X45890683Y-61205062D01*
X46059100Y-61232929D01*
X46203284Y-61301992D01*
X46309908Y-61083898D01*
X46136644Y-60995449D01*
X46021842Y-60961827D01*
X45893106Y-60950619D01*
X45775275Y-60958495D01*
X45673801Y-60982121D01*
X45519924Y-61070570D01*
X45430263Y-61205062D01*
X45401184Y-61372267D01*
X45452073Y-61544318D01*
X45587775Y-61670328D01*
X45484484Y-61730304D01*
X45407242Y-61813301D01*
X45359080Y-61916895D01*
X45343026Y-62038664D01*
X44917832Y-62038664D01*
X44939956Y-61966101D01*
X44981152Y-61825956D01*
X45020732Y-61686079D01*
X45058158Y-61548896D01*
X45092891Y-61416828D01*
X45124932Y-61289876D01*
X45164916Y-61120247D01*
X45192783Y-60984545D01*
X44877759Y-60984545D01*
X44859585Y-61110251D01*
X44834140Y-61254738D01*
X44803547Y-61411039D01*
X44769924Y-61572186D01*
X44733575Y-61734545D01*
X44694803Y-61894480D01*
X44655122Y-62045025D01*
X44616047Y-62179213D01*
X44577274Y-62046843D01*
X44538502Y-61896903D01*
X44500942Y-61736968D01*
X44465804Y-61574609D01*
X44433090Y-61413159D01*
X44402799Y-61255950D01*
X44376144Y-61110554D01*
X44354334Y-60984545D01*
X44041733Y-60984545D01*
X43676149Y-60984545D01*
X43598579Y-60961827D01*
X43469843Y-60950619D01*
X43352012Y-60958495D01*
X43250538Y-60982121D01*
X43096661Y-61070570D01*
X43007000Y-61205062D01*
X42977921Y-61372267D01*
X43028809Y-61544318D01*
X43164512Y-61670328D01*
X43061220Y-61730304D01*
X42983979Y-61813301D01*
X42935816Y-61916895D01*
X42919762Y-62038664D01*
X42717824Y-62038664D01*
X42717824Y-60748680D01*
X42919762Y-60748680D01*
X47550619Y-60748680D01*
X47752557Y-60748680D01*
X48408992Y-61733333D01*
G37*
%TO.C,kibuzzard-6A5A4D79*%
G36*
X46037076Y-48394750D02*
G01*
X46080695Y-48400808D01*
X46080695Y-49408885D01*
X46054039Y-49411309D01*
X46027383Y-49411309D01*
X45856543Y-49372536D01*
X45745073Y-49265913D01*
X45684491Y-49104766D01*
X45670860Y-49006926D01*
X45666317Y-48900000D01*
X45680856Y-48710985D01*
X45731745Y-48548627D01*
X45831099Y-48435945D01*
X45993457Y-48393538D01*
X46037076Y-48394750D01*
G37*
G36*
X44815751Y-48417771D02*
G01*
X44887237Y-48530452D01*
X44921163Y-48696446D01*
X44927524Y-48794588D01*
X44929645Y-48900000D01*
X44927524Y-49005715D01*
X44921163Y-49104766D01*
X44887237Y-49270759D01*
X44815751Y-49382229D01*
X44692165Y-49423425D01*
X44569790Y-49382229D01*
X44497092Y-49269548D01*
X44463166Y-49103554D01*
X44456805Y-49005412D01*
X44454685Y-48900000D01*
X44456805Y-48794285D01*
X44463166Y-48695234D01*
X44497092Y-48529241D01*
X44568578Y-48417771D01*
X44692165Y-48376575D01*
X44815751Y-48417771D01*
G37*
G36*
X43587763Y-48405351D02*
G01*
X43667124Y-48506220D01*
X43703473Y-48609478D01*
X43725283Y-48739930D01*
X43732553Y-48897577D01*
X43725283Y-49056570D01*
X43703473Y-49187830D01*
X43667124Y-49291357D01*
X43587763Y-49392225D01*
X43480533Y-49425848D01*
X43478110Y-49425099D01*
X43371789Y-49392225D01*
X43292730Y-49291357D01*
X43257054Y-49187830D01*
X43235649Y-49056570D01*
X43228514Y-48897577D01*
X43229611Y-48873344D01*
X43344830Y-48873344D01*
X43382391Y-48986026D01*
X43478110Y-49033279D01*
X43577464Y-48986026D01*
X43613813Y-48873344D01*
X43577464Y-48759451D01*
X43478110Y-48710985D01*
X43382391Y-48759451D01*
X43344830Y-48873344D01*
X43229611Y-48873344D01*
X43235649Y-48739930D01*
X43257054Y-48609478D01*
X43292730Y-48506220D01*
X43371789Y-48405351D01*
X43480533Y-48371729D01*
X43587763Y-48405351D01*
G37*
G36*
X48049851Y-47934267D02*
G01*
X48234565Y-47990300D01*
X48404798Y-48081291D01*
X48554009Y-48203745D01*
X48676463Y-48352956D01*
X48767455Y-48523190D01*
X48823487Y-48707904D01*
X48842407Y-48900000D01*
X48823487Y-49092096D01*
X48767455Y-49276810D01*
X48676463Y-49447044D01*
X48554009Y-49596255D01*
X48404798Y-49718709D01*
X48234565Y-49809700D01*
X48049851Y-49865733D01*
X47857754Y-49884653D01*
X47655816Y-49884653D01*
X47042730Y-49884653D01*
X46058885Y-49884653D01*
X44689742Y-49884653D01*
X43480533Y-49884653D01*
X42959532Y-49884653D01*
X42757593Y-49884653D01*
X42757593Y-48897577D01*
X42959532Y-48897577D01*
X42967861Y-49083562D01*
X42992851Y-49244103D01*
X43034501Y-49379200D01*
X43092811Y-49488853D01*
X43195127Y-49596554D01*
X43324367Y-49661174D01*
X43480533Y-49682714D01*
X43636699Y-49661174D01*
X43765940Y-49596554D01*
X43868255Y-49488853D01*
X43926565Y-49379200D01*
X43968215Y-49244103D01*
X43993205Y-49083562D01*
X44001426Y-48900000D01*
X44151777Y-48900000D01*
X44160561Y-49081972D01*
X44186914Y-49240166D01*
X44230836Y-49374581D01*
X44292326Y-49485218D01*
X44398950Y-49594938D01*
X44531422Y-49660770D01*
X44689742Y-49682714D01*
X44851966Y-49660770D01*
X44986457Y-49594938D01*
X45093215Y-49485218D01*
X45154175Y-49374581D01*
X45197718Y-49240166D01*
X45223844Y-49081972D01*
X45232553Y-48900000D01*
X45363409Y-48900000D01*
X45376434Y-49092952D01*
X45415509Y-49255008D01*
X45477605Y-49387985D01*
X45559693Y-49493700D01*
X45660561Y-49573364D01*
X45778998Y-49628191D01*
X45912581Y-49659996D01*
X46058885Y-49670598D01*
X46215186Y-49662116D01*
X46378756Y-49634249D01*
X46378756Y-48226333D01*
X46596850Y-48226333D01*
X46674394Y-48463813D01*
X46805250Y-48403231D01*
X46965186Y-48376575D01*
X47144507Y-48415347D01*
X47264459Y-48523183D01*
X47332310Y-48687964D01*
X47347758Y-48788833D01*
X47352908Y-48900000D01*
X47343484Y-49063570D01*
X47315213Y-49195638D01*
X47268094Y-49296204D01*
X47163288Y-49391620D01*
X47018498Y-49423425D01*
X46960339Y-49421002D01*
X46902181Y-49413732D01*
X46902181Y-48866074D01*
X46604120Y-48866074D01*
X46604120Y-49614863D01*
X46770113Y-49658481D01*
X46894608Y-49676656D01*
X47042730Y-49682714D01*
X47176313Y-49670295D01*
X47295961Y-49633037D01*
X47400464Y-49571244D01*
X47488611Y-49485218D01*
X47559491Y-49374960D01*
X47612197Y-49240468D01*
X47644911Y-49082048D01*
X47655816Y-48900000D01*
X47643094Y-48719770D01*
X47604927Y-48561955D01*
X47544952Y-48427161D01*
X47466801Y-48315994D01*
X47371688Y-48229059D01*
X47260824Y-48166963D01*
X47137843Y-48129705D01*
X47006381Y-48117286D01*
X46850081Y-48130614D01*
X46730129Y-48160905D01*
X46646527Y-48197254D01*
X46596850Y-48226333D01*
X46378756Y-48226333D01*
X46378756Y-48170598D01*
X46187318Y-48141519D01*
X46020113Y-48134249D01*
X45878655Y-48145153D01*
X45749919Y-48177868D01*
X45636935Y-48233905D01*
X45542730Y-48314782D01*
X45467306Y-48420800D01*
X45410662Y-48552262D01*
X45375222Y-48711288D01*
X45363409Y-48900000D01*
X45232553Y-48900000D01*
X45223617Y-48718028D01*
X45196809Y-48559834D01*
X45152130Y-48425419D01*
X45089580Y-48314782D01*
X44981879Y-48205062D01*
X44849408Y-48139230D01*
X44692165Y-48117286D01*
X44530075Y-48139230D01*
X44395988Y-48205062D01*
X44289903Y-48314782D01*
X44229473Y-48425419D01*
X44186309Y-48559834D01*
X44160410Y-48718028D01*
X44151777Y-48900000D01*
X44001426Y-48900000D01*
X44001535Y-48897577D01*
X43993053Y-48713712D01*
X43967609Y-48554685D01*
X43925202Y-48420497D01*
X43865832Y-48311147D01*
X43762709Y-48203446D01*
X43634276Y-48138826D01*
X43480533Y-48117286D01*
X43324367Y-48138691D01*
X43195127Y-48202908D01*
X43092811Y-48309935D01*
X43034501Y-48418907D01*
X42992851Y-48553170D01*
X42967861Y-48712727D01*
X42959532Y-48897577D01*
X42757593Y-48897577D01*
X42757593Y-47915347D01*
X42959532Y-47915347D01*
X47655816Y-47915347D01*
X47857754Y-47915347D01*
X48049851Y-47934267D01*
G37*
%TO.C,kibuzzard-6A563B50*%
G36*
X46825106Y-53067600D02*
G01*
X47009820Y-53123633D01*
X47180053Y-53214624D01*
X47329264Y-53337078D01*
X47451718Y-53486289D01*
X47542710Y-53656523D01*
X47598742Y-53841237D01*
X47617662Y-54033333D01*
X47598742Y-54225429D01*
X47542710Y-54410143D01*
X47451718Y-54580377D01*
X47329264Y-54729588D01*
X47180053Y-54852042D01*
X47009820Y-54943033D01*
X46825106Y-54999066D01*
X46633010Y-55017986D01*
X46431071Y-55017986D01*
X45965804Y-55017986D01*
X44599084Y-55017986D01*
X43256596Y-55017986D01*
X42919762Y-55017986D01*
X42717824Y-55017986D01*
X42717824Y-54784545D01*
X42919762Y-54784545D01*
X43256596Y-54784545D01*
X43332929Y-54601588D01*
X43385332Y-54504658D01*
X43443187Y-54410150D01*
X43505283Y-54319884D01*
X43570409Y-54235675D01*
X43697630Y-54098761D01*
X43697630Y-54784545D01*
X43995691Y-54784545D01*
X43995691Y-54711847D01*
X44179859Y-54711847D01*
X44350699Y-54783333D01*
X44466713Y-54807869D01*
X44599084Y-54816047D01*
X44794022Y-54793430D01*
X44955573Y-54725579D01*
X45083737Y-54612493D01*
X45156889Y-54499963D01*
X45205598Y-54375013D01*
X45413300Y-54375013D01*
X45447529Y-54561907D01*
X45550215Y-54700942D01*
X45657242Y-54764889D01*
X45795772Y-54803258D01*
X45965804Y-54816047D01*
X46133615Y-54806051D01*
X46263866Y-54776063D01*
X46431071Y-54702154D01*
X46343833Y-54459827D01*
X46187533Y-54532525D01*
X46086665Y-54557970D01*
X45965804Y-54566451D01*
X45841006Y-54550700D01*
X45762250Y-54507081D01*
X45722266Y-54444076D01*
X45711362Y-54372590D01*
X45738018Y-54290199D01*
X45805869Y-54225982D01*
X45897953Y-54175094D01*
X45999730Y-54132687D01*
X46140279Y-54076952D01*
X46272347Y-53996984D01*
X46370489Y-53877033D01*
X46409262Y-53698923D01*
X46375033Y-53511120D01*
X46272347Y-53369359D01*
X46169628Y-53303392D01*
X46044022Y-53263812D01*
X45895530Y-53250619D01*
X45766188Y-53258495D01*
X45654415Y-53282121D01*
X45481152Y-53352396D01*
X45568389Y-53582606D01*
X45702880Y-53524448D01*
X45873720Y-53500215D01*
X46005654Y-53519332D01*
X46084814Y-53576682D01*
X46111200Y-53672267D01*
X46086968Y-53748600D01*
X46025174Y-53806758D01*
X45940360Y-53851588D01*
X45847064Y-53887937D01*
X45700457Y-53947307D01*
X45559908Y-54034545D01*
X45454496Y-54170247D01*
X45423599Y-54262028D01*
X45413300Y-54375013D01*
X45205598Y-54375013D01*
X45209140Y-54365926D01*
X45240491Y-54210383D01*
X45250942Y-54033333D01*
X45238220Y-53857041D01*
X45200053Y-53701346D01*
X45139169Y-53567158D01*
X45058292Y-53455385D01*
X44958938Y-53366936D01*
X44842622Y-53302719D01*
X44712069Y-53263644D01*
X44570005Y-53250619D01*
X44425821Y-53263947D01*
X44313139Y-53294238D01*
X44231959Y-53330587D01*
X44182283Y-53359666D01*
X44259827Y-53597146D01*
X44394318Y-53535352D01*
X44574851Y-53509908D01*
X44711766Y-53535352D01*
X44830506Y-53620167D01*
X44915320Y-53778890D01*
X44939855Y-53890360D01*
X44948034Y-54026063D01*
X44938206Y-54183979D01*
X44908723Y-54315239D01*
X44859585Y-54419844D01*
X44742965Y-54522529D01*
X44570005Y-54556758D01*
X44377355Y-54530102D01*
X44254980Y-54476790D01*
X44179859Y-54711847D01*
X43995691Y-54711847D01*
X43995691Y-53284545D01*
X43697630Y-53284545D01*
X43697630Y-53907323D01*
X43586160Y-53757081D01*
X43475901Y-53592299D01*
X43380182Y-53429940D01*
X43307485Y-53284545D01*
X42970651Y-53284545D01*
X43051830Y-53433575D01*
X43102416Y-53518995D01*
X43159665Y-53608050D01*
X43222367Y-53699831D01*
X43289310Y-53793430D01*
X43359888Y-53886120D01*
X43433494Y-53975175D01*
X43357767Y-54053325D01*
X43280829Y-54142380D01*
X43205405Y-54240219D01*
X43134221Y-54344722D01*
X43068490Y-54453769D01*
X43009423Y-54565239D01*
X42959140Y-54676407D01*
X42919762Y-54784545D01*
X42717824Y-54784545D01*
X42717824Y-53048680D01*
X42919762Y-53048680D01*
X46431071Y-53048680D01*
X46633010Y-53048680D01*
X46825106Y-53067600D01*
G37*
%TO.C,kibuzzard-6A5A4D23*%
G36*
X57785057Y-41243134D02*
G01*
X57875929Y-41375202D01*
X57961955Y-41514540D01*
X58034653Y-41652666D01*
X57695396Y-41652666D01*
X57695396Y-41124394D01*
X57785057Y-41243134D01*
G37*
G36*
X45797173Y-40994750D02*
G01*
X45840792Y-41000808D01*
X45840792Y-42008885D01*
X45814136Y-42011309D01*
X45787480Y-42011309D01*
X45616640Y-41972536D01*
X45505170Y-41865913D01*
X45444588Y-41704766D01*
X45430957Y-41606926D01*
X45426414Y-41500000D01*
X45440953Y-41310985D01*
X45491842Y-41148627D01*
X45591195Y-41035945D01*
X45753554Y-40993538D01*
X45797173Y-40994750D01*
G37*
G36*
X46999111Y-41017771D02*
G01*
X47070598Y-41130452D01*
X47104523Y-41296446D01*
X47110884Y-41394588D01*
X47113005Y-41500000D01*
X47110884Y-41605715D01*
X47104523Y-41704766D01*
X47070598Y-41870759D01*
X46999111Y-41982229D01*
X46875525Y-42023425D01*
X46753150Y-41982229D01*
X46680452Y-41869548D01*
X46646527Y-41703554D01*
X46640166Y-41605412D01*
X46638045Y-41500000D01*
X46640166Y-41394285D01*
X46646527Y-41295234D01*
X46680452Y-41129241D01*
X46751939Y-41017771D01*
X46875525Y-40976575D01*
X46999111Y-41017771D01*
G37*
G36*
X51829281Y-41005351D02*
G01*
X51908643Y-41106220D01*
X51944992Y-41209478D01*
X51966801Y-41339930D01*
X51974071Y-41497577D01*
X51966801Y-41656570D01*
X51944992Y-41787830D01*
X51908643Y-41891357D01*
X51829281Y-41992225D01*
X51722052Y-42025848D01*
X51719628Y-42025099D01*
X51613308Y-41992225D01*
X51534249Y-41891357D01*
X51498573Y-41787830D01*
X51477167Y-41656570D01*
X51470032Y-41497577D01*
X51471129Y-41473344D01*
X51586349Y-41473344D01*
X51623910Y-41586026D01*
X51719628Y-41633279D01*
X51818982Y-41586026D01*
X51855331Y-41473344D01*
X51818982Y-41359451D01*
X51719628Y-41310985D01*
X51623910Y-41359451D01*
X51586349Y-41473344D01*
X51471129Y-41473344D01*
X51477167Y-41339930D01*
X51498573Y-41209478D01*
X51534249Y-41106220D01*
X51613308Y-41005351D01*
X51722052Y-40971729D01*
X51829281Y-41005351D01*
G37*
G36*
X55464176Y-41005351D02*
G01*
X55543538Y-41106220D01*
X55579887Y-41209478D01*
X55601696Y-41339930D01*
X55608966Y-41497577D01*
X55601696Y-41656570D01*
X55579887Y-41787830D01*
X55543538Y-41891357D01*
X55464176Y-41992225D01*
X55356947Y-42025848D01*
X55354523Y-42025099D01*
X55248203Y-41992225D01*
X55169144Y-41891357D01*
X55133468Y-41787830D01*
X55112062Y-41656570D01*
X55104927Y-41497577D01*
X55106024Y-41473344D01*
X55221244Y-41473344D01*
X55258805Y-41586026D01*
X55354523Y-41633279D01*
X55453877Y-41586026D01*
X55490226Y-41473344D01*
X55453877Y-41359451D01*
X55354523Y-41310985D01*
X55258805Y-41359451D01*
X55221244Y-41473344D01*
X55106024Y-41473344D01*
X55112062Y-41339930D01*
X55133468Y-41209478D01*
X55169144Y-41106220D01*
X55248203Y-41005351D01*
X55356947Y-40971729D01*
X55464176Y-41005351D01*
G37*
G36*
X56675808Y-41005351D02*
G01*
X56755170Y-41106220D01*
X56791519Y-41209478D01*
X56813328Y-41339930D01*
X56820598Y-41497577D01*
X56813328Y-41656570D01*
X56791519Y-41787830D01*
X56755170Y-41891357D01*
X56675808Y-41992225D01*
X56568578Y-42025848D01*
X56566155Y-42025099D01*
X56459834Y-41992225D01*
X56380775Y-41891357D01*
X56345100Y-41787830D01*
X56323694Y-41656570D01*
X56316559Y-41497577D01*
X56317656Y-41473344D01*
X56432876Y-41473344D01*
X56470436Y-41586026D01*
X56566155Y-41633279D01*
X56665509Y-41586026D01*
X56701858Y-41473344D01*
X56665509Y-41359451D01*
X56566155Y-41310985D01*
X56470436Y-41359451D01*
X56432876Y-41473344D01*
X56317656Y-41473344D01*
X56323694Y-41339930D01*
X56345100Y-41209478D01*
X56380775Y-41106220D01*
X56459834Y-41005351D01*
X56568578Y-40971729D01*
X56675808Y-41005351D01*
G37*
G36*
X61522334Y-41005351D02*
G01*
X61601696Y-41106220D01*
X61638045Y-41209478D01*
X61659855Y-41339930D01*
X61667124Y-41497577D01*
X61659855Y-41656570D01*
X61638045Y-41787830D01*
X61601696Y-41891357D01*
X61522334Y-41992225D01*
X61415105Y-42025848D01*
X61412682Y-42025099D01*
X61306361Y-41992225D01*
X61227302Y-41891357D01*
X61191626Y-41787830D01*
X61170221Y-41656570D01*
X61163086Y-41497577D01*
X61164183Y-41473344D01*
X61279402Y-41473344D01*
X61316963Y-41586026D01*
X61412682Y-41633279D01*
X61512036Y-41586026D01*
X61548384Y-41473344D01*
X61512036Y-41359451D01*
X61412682Y-41310985D01*
X61316963Y-41359451D01*
X61279402Y-41473344D01*
X61164183Y-41473344D01*
X61170221Y-41339930D01*
X61191626Y-41209478D01*
X61227302Y-41106220D01*
X61306361Y-41005351D01*
X61415105Y-40971729D01*
X61522334Y-41005351D01*
G37*
G36*
X63281826Y-42484653D02*
G01*
X63079887Y-42484653D01*
X61415105Y-42484653D01*
X60489418Y-42484653D01*
X58659855Y-42484653D01*
X57397334Y-42484653D01*
X56568578Y-42484653D01*
X55356947Y-42484653D01*
X53595234Y-42484653D01*
X52427221Y-42484653D01*
X51722052Y-42484653D01*
X50554039Y-42484653D01*
X47537076Y-42484653D01*
X46873102Y-42484653D01*
X45818982Y-42484653D01*
X44457108Y-42484653D01*
X42731745Y-42484653D01*
X42482149Y-42484653D01*
X41520113Y-42484653D01*
X41318174Y-42484653D01*
X41318174Y-42004039D01*
X41520113Y-42004039D01*
X41520113Y-42251212D01*
X42482149Y-42251212D01*
X42482149Y-42004039D01*
X42731745Y-42004039D01*
X42731745Y-42251212D01*
X43674394Y-42251212D01*
X43674394Y-41708401D01*
X43940953Y-41708401D01*
X43947011Y-41833199D01*
X43965186Y-41945880D01*
X43998506Y-42044628D01*
X44050000Y-42127625D01*
X44120275Y-42193962D01*
X44209935Y-42242730D01*
X44321405Y-42272718D01*
X44457108Y-42282714D01*
X44590691Y-42272718D01*
X44700646Y-42242730D01*
X44856947Y-42127625D01*
X44906624Y-42044628D01*
X44939338Y-41945880D01*
X44957512Y-41833199D01*
X44963570Y-41708401D01*
X44963570Y-41500000D01*
X45123506Y-41500000D01*
X45136531Y-41692952D01*
X45175606Y-41855008D01*
X45237702Y-41987985D01*
X45319790Y-42093700D01*
X45420658Y-42173364D01*
X45539095Y-42228191D01*
X45672678Y-42259996D01*
X45818982Y-42270598D01*
X45975283Y-42262116D01*
X46138853Y-42234249D01*
X46138853Y-41500000D01*
X46335137Y-41500000D01*
X46343922Y-41681972D01*
X46370275Y-41840166D01*
X46414196Y-41974581D01*
X46475687Y-42085218D01*
X46582310Y-42194938D01*
X46714782Y-42260770D01*
X46873102Y-42282714D01*
X47035326Y-42260770D01*
X47054852Y-42251212D01*
X47537076Y-42251212D01*
X47810905Y-42251212D01*
X47796365Y-41085622D01*
X47980533Y-41720517D01*
X48198627Y-41720517D01*
X48375525Y-41085622D01*
X48363409Y-42251212D01*
X48637237Y-42251212D01*
X48629665Y-42063409D01*
X48621486Y-41868336D01*
X48620304Y-41841680D01*
X50001535Y-41841680D01*
X50035763Y-42028574D01*
X50138449Y-42167609D01*
X50245477Y-42231556D01*
X50384006Y-42269925D01*
X50554039Y-42282714D01*
X50721850Y-42272718D01*
X50852100Y-42242730D01*
X51019305Y-42168821D01*
X50932068Y-41926494D01*
X50775767Y-41999192D01*
X50674899Y-42024637D01*
X50554039Y-42033118D01*
X50429241Y-42017367D01*
X50350485Y-41973748D01*
X50310501Y-41910743D01*
X50299596Y-41839257D01*
X50326252Y-41756866D01*
X50394103Y-41692649D01*
X50486187Y-41641761D01*
X50587964Y-41599354D01*
X50728514Y-41543619D01*
X50804553Y-41497577D01*
X51201050Y-41497577D01*
X51209380Y-41683562D01*
X51234370Y-41844103D01*
X51276020Y-41979200D01*
X51334330Y-42088853D01*
X51436645Y-42196554D01*
X51565886Y-42261174D01*
X51722052Y-42282714D01*
X51878218Y-42261174D01*
X52007458Y-42196554D01*
X52109774Y-42088853D01*
X52154875Y-42004039D01*
X52427221Y-42004039D01*
X52427221Y-42251212D01*
X53338368Y-42251212D01*
X53595234Y-42251212D01*
X53869063Y-42251212D01*
X53854523Y-41085622D01*
X54038691Y-41720517D01*
X54256785Y-41720517D01*
X54433683Y-41085622D01*
X54421567Y-42251212D01*
X54695396Y-42251212D01*
X54687823Y-42063409D01*
X54679645Y-41868336D01*
X54670860Y-41670234D01*
X54662626Y-41497577D01*
X54835945Y-41497577D01*
X54844275Y-41683562D01*
X54869265Y-41844103D01*
X54910915Y-41979200D01*
X54969225Y-42088853D01*
X55071540Y-42196554D01*
X55200781Y-42261174D01*
X55356947Y-42282714D01*
X55513113Y-42261174D01*
X55642353Y-42196554D01*
X55744669Y-42088853D01*
X55802979Y-41979200D01*
X55844628Y-41844103D01*
X55869618Y-41683562D01*
X55877948Y-41497577D01*
X56047577Y-41497577D01*
X56055907Y-41683562D01*
X56080897Y-41844103D01*
X56122546Y-41979200D01*
X56180856Y-42088853D01*
X56283172Y-42196554D01*
X56412412Y-42261174D01*
X56568578Y-42282714D01*
X56724744Y-42261174D01*
X56853985Y-42196554D01*
X56956300Y-42088853D01*
X57014610Y-41979200D01*
X57056260Y-41844103D01*
X57081250Y-41683562D01*
X57082634Y-41652666D01*
X57234976Y-41652666D01*
X57234976Y-41897415D01*
X57397334Y-41897415D01*
X57397334Y-42251212D01*
X57695396Y-42251212D01*
X57695396Y-41897415D01*
X58320598Y-41897415D01*
X58320598Y-41776252D01*
X58659855Y-41776252D01*
X59323829Y-41776252D01*
X59323829Y-41483037D01*
X58659855Y-41483037D01*
X58659855Y-41776252D01*
X58320598Y-41776252D01*
X58320598Y-41679321D01*
X58267892Y-41578453D01*
X58201858Y-41464863D01*
X58125525Y-41343397D01*
X58041922Y-41218901D01*
X57952262Y-41093800D01*
X57862398Y-40976575D01*
X59711551Y-40976575D01*
X59780008Y-41066842D01*
X59854523Y-41187399D01*
X59929947Y-41332189D01*
X60001131Y-41495153D01*
X60065953Y-41672960D01*
X60122294Y-41862278D01*
X60164398Y-42057048D01*
X60186511Y-42251212D01*
X60489418Y-42251212D01*
X60473061Y-42091579D01*
X60438530Y-41922859D01*
X60390368Y-41750505D01*
X60333118Y-41579968D01*
X60300918Y-41497577D01*
X60894103Y-41497577D01*
X60902433Y-41683562D01*
X60927423Y-41844103D01*
X60969073Y-41979200D01*
X61027383Y-42088853D01*
X61129698Y-42196554D01*
X61258939Y-42261174D01*
X61415105Y-42282714D01*
X61571271Y-42261174D01*
X61700512Y-42196554D01*
X61802827Y-42088853D01*
X61847928Y-42004039D01*
X62117851Y-42004039D01*
X62117851Y-42251212D01*
X63079887Y-42251212D01*
X63079887Y-40751212D01*
X62171163Y-40751212D01*
X62171163Y-40998384D01*
X62781826Y-40998384D01*
X62781826Y-41335218D01*
X62251131Y-41335218D01*
X62251131Y-41582391D01*
X62781826Y-41582391D01*
X62781826Y-42004039D01*
X62117851Y-42004039D01*
X61847928Y-42004039D01*
X61861137Y-41979200D01*
X61902787Y-41844103D01*
X61927777Y-41683562D01*
X61936107Y-41497577D01*
X61927625Y-41313712D01*
X61902181Y-41154685D01*
X61859774Y-41020497D01*
X61800404Y-40911147D01*
X61697281Y-40803446D01*
X61568848Y-40738826D01*
X61415105Y-40717286D01*
X61258939Y-40738691D01*
X61129698Y-40802908D01*
X61027383Y-40909935D01*
X60969073Y-41018907D01*
X60927423Y-41153170D01*
X60902433Y-41312727D01*
X60894103Y-41497577D01*
X60300918Y-41497577D01*
X60268599Y-41414883D01*
X60198627Y-41258885D01*
X60127746Y-41118033D01*
X60060501Y-40998384D01*
X60690549Y-40998384D01*
X60690549Y-40751212D01*
X59711551Y-40751212D01*
X59711551Y-40976575D01*
X57862398Y-40976575D01*
X57857754Y-40970517D01*
X57760824Y-40854503D01*
X57663893Y-40751212D01*
X57397334Y-40751212D01*
X57397334Y-41652666D01*
X57234976Y-41652666D01*
X57082634Y-41652666D01*
X57089580Y-41497577D01*
X57081099Y-41313712D01*
X57055654Y-41154685D01*
X57013247Y-41020497D01*
X56953877Y-40911147D01*
X56850754Y-40803446D01*
X56722321Y-40738826D01*
X56568578Y-40717286D01*
X56412412Y-40738691D01*
X56283172Y-40802908D01*
X56180856Y-40909935D01*
X56122546Y-41018907D01*
X56080897Y-41153170D01*
X56055907Y-41312727D01*
X56047577Y-41497577D01*
X55877948Y-41497577D01*
X55869467Y-41313712D01*
X55844023Y-41154685D01*
X55801616Y-41020497D01*
X55742246Y-40911147D01*
X55639122Y-40803446D01*
X55510689Y-40738826D01*
X55356947Y-40717286D01*
X55200781Y-40738691D01*
X55071540Y-40802908D01*
X54969225Y-40909935D01*
X54910915Y-41018907D01*
X54869265Y-41153170D01*
X54844275Y-41312727D01*
X54835945Y-41497577D01*
X54662626Y-41497577D01*
X54661470Y-41473344D01*
X54650868Y-41280089D01*
X54638449Y-41092892D01*
X54624212Y-40915388D01*
X54608158Y-40751212D01*
X54360985Y-40751212D01*
X54318578Y-40882068D01*
X54264055Y-41054120D01*
X54205897Y-41240711D01*
X54150162Y-41415186D01*
X54089580Y-41229806D01*
X54028998Y-41045638D01*
X53975687Y-40879645D01*
X53932068Y-40751212D01*
X53684895Y-40751212D01*
X53668235Y-40945073D01*
X53652181Y-41134087D01*
X53637641Y-41319770D01*
X53625525Y-41503635D01*
X53615529Y-41687197D01*
X53607351Y-41871971D01*
X53600687Y-42059471D01*
X53595234Y-42251212D01*
X53338368Y-42251212D01*
X53338368Y-42004039D01*
X53023344Y-42004039D01*
X53023344Y-41165590D01*
X53178433Y-41251616D01*
X53326252Y-41310985D01*
X53423183Y-41063813D01*
X53297173Y-41008078D01*
X53161470Y-40932956D01*
X53033037Y-40845719D01*
X52928837Y-40751212D01*
X52725283Y-40751212D01*
X52725283Y-42004039D01*
X52427221Y-42004039D01*
X52154875Y-42004039D01*
X52168084Y-41979200D01*
X52209733Y-41844103D01*
X52234723Y-41683562D01*
X52243053Y-41497577D01*
X52234572Y-41313712D01*
X52209128Y-41154685D01*
X52166721Y-41020497D01*
X52107351Y-40911147D01*
X52004227Y-40803446D01*
X51875794Y-40738826D01*
X51722052Y-40717286D01*
X51565886Y-40738691D01*
X51436645Y-40802908D01*
X51334330Y-40909935D01*
X51276020Y-41018907D01*
X51234370Y-41153170D01*
X51209380Y-41312727D01*
X51201050Y-41497577D01*
X50804553Y-41497577D01*
X50860582Y-41463651D01*
X50958724Y-41343700D01*
X50997496Y-41165590D01*
X50963267Y-40977787D01*
X50860582Y-40836026D01*
X50757862Y-40770059D01*
X50632256Y-40730479D01*
X50483764Y-40717286D01*
X50354422Y-40725162D01*
X50242649Y-40748788D01*
X50069386Y-40819063D01*
X50156624Y-41049273D01*
X50291115Y-40991115D01*
X50461955Y-40966882D01*
X50593888Y-40985999D01*
X50673048Y-41043349D01*
X50699435Y-41138934D01*
X50675202Y-41215267D01*
X50613409Y-41273425D01*
X50528595Y-41318255D01*
X50435299Y-41354604D01*
X50288691Y-41413974D01*
X50148142Y-41501212D01*
X50042730Y-41636914D01*
X50011834Y-41728695D01*
X50001535Y-41841680D01*
X48620304Y-41841680D01*
X48612702Y-41670234D01*
X48603312Y-41473344D01*
X48592710Y-41280089D01*
X48580291Y-41092892D01*
X48566054Y-40915388D01*
X48550000Y-40751212D01*
X48302827Y-40751212D01*
X48260420Y-40882068D01*
X48205897Y-41054120D01*
X48147738Y-41240711D01*
X48092003Y-41415186D01*
X48031422Y-41229806D01*
X47970840Y-41045638D01*
X47917528Y-40879645D01*
X47873910Y-40751212D01*
X47626737Y-40751212D01*
X47610077Y-40945073D01*
X47594023Y-41134087D01*
X47579483Y-41319770D01*
X47567367Y-41503635D01*
X47557371Y-41687197D01*
X47549192Y-41871971D01*
X47542528Y-42059471D01*
X47537076Y-42251212D01*
X47054852Y-42251212D01*
X47169817Y-42194938D01*
X47276575Y-42085218D01*
X47337535Y-41974581D01*
X47381078Y-41840166D01*
X47407204Y-41681972D01*
X47415913Y-41500000D01*
X47406977Y-41318028D01*
X47380170Y-41159834D01*
X47335491Y-41025419D01*
X47272940Y-40914782D01*
X47165240Y-40805062D01*
X47032768Y-40739230D01*
X46875525Y-40717286D01*
X46713436Y-40739230D01*
X46579348Y-40805062D01*
X46473263Y-40914782D01*
X46412833Y-41025419D01*
X46369669Y-41159834D01*
X46343770Y-41318028D01*
X46335137Y-41500000D01*
X46138853Y-41500000D01*
X46138853Y-40770598D01*
X45947415Y-40741519D01*
X45780210Y-40734249D01*
X45638752Y-40745153D01*
X45510016Y-40777868D01*
X45397032Y-40833905D01*
X45302827Y-40914782D01*
X45227403Y-41020800D01*
X45170759Y-41152262D01*
X45135319Y-41311288D01*
X45123506Y-41500000D01*
X44963570Y-41500000D01*
X44963570Y-40751212D01*
X44663086Y-40751212D01*
X44663086Y-41689015D01*
X44653393Y-41847738D01*
X44620679Y-41950727D01*
X44556462Y-42006462D01*
X44452262Y-42023425D01*
X44348061Y-42006462D01*
X44282633Y-41949515D01*
X44248708Y-41845315D01*
X44239015Y-41686591D01*
X44239015Y-40751212D01*
X43940953Y-40751212D01*
X43940953Y-41708401D01*
X43674394Y-41708401D01*
X43674394Y-40751212D01*
X43373910Y-40751212D01*
X43373910Y-42004039D01*
X42731745Y-42004039D01*
X42482149Y-42004039D01*
X42482149Y-40751212D01*
X41573425Y-40751212D01*
X41573425Y-40998384D01*
X42184087Y-40998384D01*
X42184087Y-41335218D01*
X41653393Y-41335218D01*
X41653393Y-41582391D01*
X42184087Y-41582391D01*
X42184087Y-42004039D01*
X41520113Y-42004039D01*
X41318174Y-42004039D01*
X41318174Y-40515347D01*
X41520113Y-40515347D01*
X63079887Y-40515347D01*
X63281826Y-40515347D01*
X63281826Y-42484653D01*
G37*
%TD*%
%LPC*%
D12*
%TO.C,J2*%
X63960000Y-46410000D03*
D13*
X63960000Y-48950000D03*
X63960000Y-51490000D03*
X63960000Y-54030000D03*
X63960000Y-56570000D03*
X63960000Y-59110000D03*
X63960000Y-61650000D03*
X63960000Y-64190000D03*
%TD*%
D12*
%TO.C,J1*%
X41100000Y-46410000D03*
D13*
X41100000Y-48950000D03*
X41100000Y-51490000D03*
X41100000Y-54030000D03*
X41100000Y-56570000D03*
X41100000Y-59110000D03*
X41100000Y-61650000D03*
X41100000Y-64190000D03*
%TD*%
%LPD*%
M02*
