%TF.GenerationSoftware,KiCad,Pcbnew,9.0.2*%
%TF.CreationDate,2026-07-22T10:58:38+03:00*%
%TF.ProjectId,E07400M10S,45303734-3030-44d3-9130-532e6b696361,rev?*%
%TF.SameCoordinates,Original*%
%TF.FileFunction,Copper,L1,Top*%
%TF.FilePolarity,Positive*%
%FSLAX46Y46*%
G04 Gerber Fmt 4.6, Leading zero omitted, Abs format (unit mm)*
G04 Created by KiCad (PCBNEW 9.0.2) date 2026-07-22 10:58:38*
%MOMM*%
%LPD*%
G01*
G04 APERTURE LIST*
G04 Aperture macros list*
%AMRoundRect*
0 Rectangle with rounded corners*
0 $1 Rounding radius*
0 $2 $3 $4 $5 $6 $7 $8 $9 X,Y pos of 4 corners*
0 Add a 4 corners polygon primitive as box body*
4,1,4,$2,$3,$4,$5,$6,$7,$8,$9,$2,$3,0*
0 Add four circle primitives for the rounded corners*
1,1,$1+$1,$2,$3*
1,1,$1+$1,$4,$5*
1,1,$1+$1,$6,$7*
1,1,$1+$1,$8,$9*
0 Add four rect primitives between the rounded corners*
20,1,$1+$1,$2,$3,$4,$5,0*
20,1,$1+$1,$4,$5,$6,$7,0*
20,1,$1+$1,$6,$7,$8,$9,0*
20,1,$1+$1,$8,$9,$2,$3,0*%
G04 Aperture macros list end*
%TA.AperFunction,SMDPad,CuDef*%
%ADD10R,1.800000X0.800000*%
%TD*%
%TA.AperFunction,SMDPad,CuDef*%
%ADD11RoundRect,0.250000X0.250000X0.475000X-0.250000X0.475000X-0.250000X-0.475000X0.250000X-0.475000X0*%
%TD*%
%TA.AperFunction,ComponentPad*%
%ADD12R,1.700000X1.700000*%
%TD*%
%TA.AperFunction,ComponentPad*%
%ADD13C,1.700000*%
%TD*%
%TA.AperFunction,ViaPad*%
%ADD14C,0.700000*%
%TD*%
%TA.AperFunction,Conductor*%
%ADD15C,0.199999*%
%TD*%
G04 APERTURE END LIST*
D10*
%TO.P,U1,1,GND*%
%TO.N,GND*%
X45900000Y-45500000D03*
%TO.P,U1,2,GND*%
X45900000Y-46770000D03*
%TO.P,U1,3,GND*%
X45900000Y-48040000D03*
%TO.P,U1,4,GND*%
X45900000Y-53610000D03*
%TO.P,U1,5,GND*%
X45900000Y-54880000D03*
%TO.P,U1,6,NC*%
%TO.N,unconnected-(U1-NC-Pad6)*%
X45900000Y-56150000D03*
%TO.P,U1,7,NC*%
%TO.N,unconnected-(U1-NC-Pad7)*%
X45900000Y-57420000D03*
%TO.P,U1,8,NC*%
%TO.N,unconnected-(U1-NC-Pad8)*%
X45900000Y-58690000D03*
%TO.P,U1,9,VCC*%
%TO.N,+3V3*%
X45900000Y-59960000D03*
%TO.P,U1,10,NC*%
%TO.N,unconnected-(U1-NC-Pad10)*%
X45900000Y-61230000D03*
%TO.P,U1,11,GND*%
%TO.N,GND*%
X45900000Y-62500000D03*
%TO.P,U1,12,GND*%
X59900000Y-62500000D03*
%TO.P,U1,13,NC*%
%TO.N,unconnected-(U1-NC-Pad13)*%
X59900000Y-61230000D03*
%TO.P,U1,14,GD02*%
%TO.N,GDO1*%
X59900000Y-59960000D03*
%TO.P,U1,15,GD00*%
%TO.N,GDO0*%
X59900000Y-58690000D03*
%TO.P,U1,16,MISO/GD01*%
%TO.N,MISO*%
X59900000Y-57420000D03*
%TO.P,U1,17,MOSI*%
%TO.N,MOSI*%
X59900000Y-56150000D03*
%TO.P,U1,18,SCK*%
%TO.N,SCK*%
X59900000Y-54880000D03*
%TO.P,U1,19,CSN*%
%TO.N,CS*%
X59900000Y-53610000D03*
%TO.P,U1,20,GND*%
%TO.N,GND*%
X59900000Y-48040000D03*
%TO.P,U1,21,ANT*%
%TO.N,unconnected-(U1-ANT-Pad21)*%
X59900000Y-46770000D03*
%TO.P,U1,22,GND*%
%TO.N,GND*%
X59900000Y-45500000D03*
%TD*%
D11*
%TO.P,C1,1*%
%TO.N,+3V3*%
X48550000Y-66200000D03*
%TO.P,C1,2*%
%TO.N,GND*%
X46650000Y-66200000D03*
%TD*%
D12*
%TO.P,J2,1,Pin_1*%
%TO.N,unconnected-(J2-Pin_1-Pad1)*%
X63960000Y-46410000D03*
D13*
%TO.P,J2,2,Pin_2*%
%TO.N,GDO1*%
X63960000Y-48950000D03*
%TO.P,J2,3,Pin_3*%
%TO.N,unconnected-(J2-Pin_3-Pad3)*%
X63960000Y-51490000D03*
%TO.P,J2,4,Pin_4*%
%TO.N,unconnected-(J2-Pin_4-Pad4)*%
X63960000Y-54030000D03*
%TO.P,J2,5,Pin_5*%
%TO.N,unconnected-(J2-Pin_5-Pad5)*%
X63960000Y-56570000D03*
%TO.P,J2,6,Pin_6*%
%TO.N,unconnected-(J2-Pin_6-Pad6)*%
X63960000Y-59110000D03*
%TO.P,J2,7,Pin_7*%
%TO.N,unconnected-(J2-Pin_7-Pad7)*%
X63960000Y-61650000D03*
%TO.P,J2,8,Pin_8*%
%TO.N,GND*%
X63960000Y-64190000D03*
%TD*%
D12*
%TO.P,J1,1,Pin_1*%
%TO.N,unconnected-(J1-Pin_1-Pad1)*%
X41100000Y-46410000D03*
D13*
%TO.P,J1,2,Pin_2*%
%TO.N,GDO0*%
X41100000Y-48950000D03*
%TO.P,J1,3,Pin_3*%
%TO.N,CS*%
X41100000Y-51490000D03*
%TO.P,J1,4,Pin_4*%
%TO.N,SCK*%
X41100000Y-54030000D03*
%TO.P,J1,5,Pin_5*%
%TO.N,MISO*%
X41100000Y-56570000D03*
%TO.P,J1,6,Pin_6*%
%TO.N,MOSI*%
X41100000Y-59110000D03*
%TO.P,J1,7,Pin_7*%
%TO.N,+3V3*%
X41100000Y-61650000D03*
%TO.P,J1,8,Pin_8*%
%TO.N,GND*%
X41100000Y-64190000D03*
%TD*%
D14*
%TO.N,GND*%
X45900000Y-62500000D03*
X45900000Y-45500000D03*
X59900000Y-48040000D03*
X45900000Y-53610000D03*
X59900000Y-45500000D03*
X46650000Y-66200000D03*
X59900000Y-62500000D03*
%TO.N,MOSI*%
X44400000Y-56100000D03*
X47500000Y-56000000D03*
%TO.N,MISO*%
X47400000Y-56900000D03*
%TD*%
D15*
%TO.N,GND*%
X45900000Y-46770000D02*
X45900000Y-46800000D01*
X45900000Y-46800000D02*
X45900000Y-46770000D01*
X45900000Y-47700000D02*
X45900000Y-47800000D01*
X45900000Y-53610000D02*
X45900000Y-53600000D01*
X45900000Y-54800000D02*
X45900000Y-54900000D01*
X45900000Y-47400000D02*
X45900000Y-47500000D01*
X45900000Y-53900000D02*
X45900000Y-54000000D01*
X45900000Y-46600000D02*
X45900000Y-46700000D01*
X45900000Y-46500000D02*
X45900000Y-46600000D01*
X45900000Y-46800000D02*
X45900000Y-46900000D01*
X45900000Y-47600000D02*
X45900000Y-47700000D01*
X45900000Y-54600000D02*
X45900000Y-54700000D01*
X45900000Y-47800000D02*
X45900000Y-47900000D01*
X45900000Y-54400000D02*
X45900000Y-54500000D01*
X45900000Y-47200000D02*
X45900000Y-47300000D01*
X45900000Y-46200000D02*
X45900000Y-46300000D01*
X45900000Y-47300000D02*
X45900000Y-47400000D01*
X45900000Y-53800000D02*
X45900000Y-53900000D01*
X45900000Y-54100000D02*
X45900000Y-54200000D01*
X45900000Y-46000000D02*
X45900000Y-46100000D01*
X45900000Y-53700000D02*
X45900000Y-53800000D01*
X45900000Y-45900000D02*
X45900000Y-46000000D01*
X45900000Y-45600000D02*
X45900000Y-45700000D01*
X45900000Y-54300000D02*
X45900000Y-54400000D01*
X45900000Y-46700000D02*
X45900000Y-46800000D01*
X45900000Y-47500000D02*
X45900000Y-47600000D01*
X45900000Y-54200000D02*
X45900000Y-54300000D01*
X45900000Y-46400000D02*
X45900000Y-46500000D01*
X45900000Y-45700000D02*
X45900000Y-45800000D01*
X45900000Y-47900000D02*
X45900000Y-48000000D01*
X45900000Y-47000000D02*
X45900000Y-47100000D01*
X45900000Y-46300000D02*
X45900000Y-46400000D01*
X45900000Y-45500000D02*
X45900000Y-45600000D01*
X45900000Y-46100000D02*
X45900000Y-46200000D01*
X45900000Y-54000000D02*
X45900000Y-54100000D01*
X45900000Y-46900000D02*
X45900000Y-47000000D01*
X45900000Y-45800000D02*
X45900000Y-45900000D01*
X45900000Y-54700000D02*
X45900000Y-54800000D01*
X45900000Y-47100000D02*
X45900000Y-47200000D01*
X45900000Y-53600000D02*
X45900000Y-53700000D01*
X45900000Y-54500000D02*
X45900000Y-54600000D01*
X45900000Y-54900000D02*
X45900000Y-54880000D01*
X45900000Y-48000000D02*
X45900000Y-48040000D01*
%TO.N,+3V3*%
X42300000Y-60400000D02*
X41100000Y-61600000D01*
X46900000Y-60400000D02*
X48600000Y-62100000D01*
X45900000Y-59960000D02*
X45900000Y-60000000D01*
X45000000Y-60400000D02*
X42300000Y-60400000D01*
X45100000Y-60500000D02*
X45000000Y-60400000D01*
X48600000Y-66200000D02*
X48550000Y-66200000D01*
X45900000Y-60000000D02*
X46300000Y-60400000D01*
X45400000Y-60500000D02*
X45100000Y-60500000D01*
X48600000Y-62100000D02*
X48600000Y-66200000D01*
X45900000Y-60000000D02*
X45400000Y-60500000D01*
X46300000Y-60400000D02*
X46900000Y-60400000D01*
%TO.N,CS*%
X59900000Y-53600000D02*
X57800000Y-51500000D01*
X57800000Y-51500000D02*
X41100000Y-51500000D01*
%TO.N,SCK*%
X42300000Y-52800000D02*
X41100000Y-54000000D01*
X47800000Y-53700000D02*
X46900000Y-52800000D01*
X59900000Y-54900000D02*
X59400000Y-54400000D01*
X46900000Y-52800000D02*
X42300000Y-52800000D01*
X59900000Y-54880000D02*
X59900000Y-54900000D01*
X48000000Y-54400000D02*
X47800000Y-54200000D01*
X47800000Y-54200000D02*
X47800000Y-53700000D01*
X59400000Y-54400000D02*
X48000000Y-54400000D01*
%TO.N,MOSI*%
X59900000Y-56200000D02*
X59600000Y-56500000D01*
X59600000Y-56500000D02*
X48100000Y-56500000D01*
X44400000Y-56100000D02*
X41400000Y-59100000D01*
X59900000Y-56150000D02*
X59900000Y-56200000D01*
X47600000Y-56000000D02*
X47500000Y-56000000D01*
X48100000Y-56500000D02*
X47600000Y-56000000D01*
%TO.N,GDO0*%
X41100000Y-49000000D02*
X43100000Y-51000000D01*
X59700000Y-52800000D02*
X60900000Y-52800000D01*
X57900000Y-51000000D02*
X59700000Y-52800000D01*
X43100000Y-51000000D02*
X57900000Y-51000000D01*
X60500000Y-58700000D02*
X59900000Y-58700000D01*
X60900000Y-52800000D02*
X61200000Y-53100000D01*
X61200000Y-53100000D02*
X61200000Y-58000000D01*
X61200000Y-58000000D02*
X60500000Y-58700000D01*
%TO.N,MISO*%
X59400000Y-56900000D02*
X47400000Y-56900000D01*
X59900000Y-57400000D02*
X59400000Y-56900000D01*
%TO.N,GDO1*%
X63000000Y-57400000D02*
X63000000Y-57300000D01*
X60400000Y-59500000D02*
X60900000Y-59500000D01*
X60900000Y-59500000D02*
X63000000Y-57400000D01*
X63000000Y-57300000D02*
X62800000Y-57100000D01*
X59900000Y-59960000D02*
X59900000Y-60000000D01*
X62800000Y-57100000D02*
X62800000Y-56900000D01*
X59900000Y-60000000D02*
X60400000Y-59500000D01*
X62800000Y-56900000D02*
X62700000Y-56800000D01*
X62700000Y-50300000D02*
X64000000Y-49000000D01*
X62700000Y-56800000D02*
X62700000Y-50300000D01*
%TD*%
%TA.AperFunction,Conductor*%
%TO.N,GND*%
G36*
X44442539Y-61020184D02*
G01*
X44488294Y-61072988D01*
X44499500Y-61124499D01*
X44499500Y-61677870D01*
X44499501Y-61677876D01*
X44505909Y-61737484D01*
X44537573Y-61822382D01*
X44542557Y-61892073D01*
X44537573Y-61909046D01*
X44506404Y-61992616D01*
X44506401Y-61992627D01*
X44500000Y-62052155D01*
X44500000Y-62250000D01*
X47300000Y-62250000D01*
X47300000Y-62052172D01*
X47299999Y-62052155D01*
X47293597Y-61992622D01*
X47293597Y-61992620D01*
X47284727Y-61968839D01*
X47279741Y-61899147D01*
X47313226Y-61837824D01*
X47374548Y-61804338D01*
X47444240Y-61809322D01*
X47488589Y-61837823D01*
X47963182Y-62312416D01*
X47996667Y-62373739D01*
X47999501Y-62400097D01*
X47999501Y-64959361D01*
X47979816Y-65026400D01*
X47940598Y-65064900D01*
X47831342Y-65132289D01*
X47707288Y-65256343D01*
X47707283Y-65256349D01*
X47705241Y-65259661D01*
X47703247Y-65261453D01*
X47702807Y-65262011D01*
X47702711Y-65261935D01*
X47653291Y-65306383D01*
X47584328Y-65317602D01*
X47520247Y-65289755D01*
X47494168Y-65259656D01*
X47492319Y-65256659D01*
X47492316Y-65256655D01*
X47368345Y-65132684D01*
X47219124Y-65040643D01*
X47219119Y-65040641D01*
X47052697Y-64985494D01*
X47052690Y-64985493D01*
X46949986Y-64975000D01*
X46900000Y-64975000D01*
X46900000Y-66076000D01*
X46880315Y-66143039D01*
X46827511Y-66188794D01*
X46776000Y-66200000D01*
X46650000Y-66200000D01*
X46650000Y-66326000D01*
X46630315Y-66393039D01*
X46577511Y-66438794D01*
X46526000Y-66450000D01*
X45650001Y-66450000D01*
X45650001Y-66724986D01*
X45660494Y-66827697D01*
X45715641Y-66994119D01*
X45715643Y-66994124D01*
X45807684Y-67143345D01*
X45931654Y-67267315D01*
X46080875Y-67359356D01*
X46080880Y-67359358D01*
X46196872Y-67397794D01*
X46254317Y-67437566D01*
X46281140Y-67502082D01*
X46268825Y-67570858D01*
X46221282Y-67622058D01*
X46157868Y-67639500D01*
X40424500Y-67639500D01*
X40357461Y-67619815D01*
X40311706Y-67567011D01*
X40300500Y-67515500D01*
X40300500Y-65675013D01*
X45650000Y-65675013D01*
X45650000Y-65950000D01*
X46400000Y-65950000D01*
X46400000Y-64975000D01*
X46399999Y-64974999D01*
X46350029Y-64975000D01*
X46350011Y-64975001D01*
X46247302Y-64985494D01*
X46080880Y-65040641D01*
X46080875Y-65040643D01*
X45931654Y-65132684D01*
X45807684Y-65256654D01*
X45715643Y-65405875D01*
X45715641Y-65405880D01*
X45660494Y-65572302D01*
X45660493Y-65572309D01*
X45650000Y-65675013D01*
X40300500Y-65675013D01*
X40300500Y-65500124D01*
X40320185Y-65433085D01*
X40372989Y-65387330D01*
X40442147Y-65377386D01*
X40480795Y-65389639D01*
X40581782Y-65441095D01*
X40783870Y-65506757D01*
X40993754Y-65540000D01*
X41206246Y-65540000D01*
X41416127Y-65506757D01*
X41416130Y-65506757D01*
X41618217Y-65441095D01*
X41807554Y-65344622D01*
X41861716Y-65305270D01*
X41861717Y-65305270D01*
X41229409Y-64672962D01*
X41292993Y-64655925D01*
X41407007Y-64590099D01*
X41500099Y-64497007D01*
X41565925Y-64382993D01*
X41582962Y-64319409D01*
X42215270Y-64951717D01*
X42215270Y-64951716D01*
X42254622Y-64897554D01*
X42351095Y-64708217D01*
X42416757Y-64506130D01*
X42416757Y-64506127D01*
X42450000Y-64296246D01*
X42450000Y-64083753D01*
X42416757Y-63873872D01*
X42416757Y-63873869D01*
X42351095Y-63671782D01*
X42254624Y-63482449D01*
X42215270Y-63428282D01*
X42215269Y-63428282D01*
X41582962Y-64060590D01*
X41565925Y-63997007D01*
X41500099Y-63882993D01*
X41407007Y-63789901D01*
X41292993Y-63724075D01*
X41229407Y-63707036D01*
X41861716Y-63074728D01*
X41807547Y-63035373D01*
X41807547Y-63035372D01*
X41798500Y-63030763D01*
X41747706Y-62982788D01*
X41739053Y-62947844D01*
X44500000Y-62947844D01*
X44506401Y-63007372D01*
X44506403Y-63007379D01*
X44556645Y-63142086D01*
X44556649Y-63142093D01*
X44642809Y-63257187D01*
X44642812Y-63257190D01*
X44757906Y-63343350D01*
X44757913Y-63343354D01*
X44892620Y-63393596D01*
X44892627Y-63393598D01*
X44952155Y-63399999D01*
X44952172Y-63400000D01*
X45650000Y-63400000D01*
X46150000Y-63400000D01*
X46847828Y-63400000D01*
X46847844Y-63399999D01*
X46907372Y-63393598D01*
X46907379Y-63393596D01*
X47042086Y-63343354D01*
X47042093Y-63343350D01*
X47157187Y-63257190D01*
X47157190Y-63257187D01*
X47243350Y-63142093D01*
X47243354Y-63142086D01*
X47293596Y-63007379D01*
X47293598Y-63007372D01*
X47299999Y-62947844D01*
X47300000Y-62947827D01*
X47300000Y-62750000D01*
X46150000Y-62750000D01*
X46150000Y-63400000D01*
X45650000Y-63400000D01*
X45650000Y-62750000D01*
X44500000Y-62750000D01*
X44500000Y-62947844D01*
X41739053Y-62947844D01*
X41730912Y-62914966D01*
X41753451Y-62848832D01*
X41798508Y-62809793D01*
X41807816Y-62805051D01*
X41899500Y-62738439D01*
X41979786Y-62680109D01*
X41979788Y-62680106D01*
X41979792Y-62680104D01*
X42130104Y-62529792D01*
X42130106Y-62529788D01*
X42130109Y-62529786D01*
X42255048Y-62357820D01*
X42255047Y-62357820D01*
X42255051Y-62357816D01*
X42351557Y-62168412D01*
X42417246Y-61966243D01*
X42450500Y-61756287D01*
X42450500Y-61543713D01*
X42417246Y-61333757D01*
X42391244Y-61253734D01*
X42390810Y-61238522D01*
X42385492Y-61224263D01*
X42389833Y-61204307D01*
X42389250Y-61183895D01*
X42397338Y-61169808D01*
X42400344Y-61155991D01*
X42421491Y-61127741D01*
X42512416Y-61036816D01*
X42573739Y-61003333D01*
X42600096Y-61000499D01*
X44375500Y-61000499D01*
X44442539Y-61020184D01*
G37*
%TD.AperFunction*%
%TA.AperFunction,Conductor*%
G36*
X58442540Y-57520184D02*
G01*
X58488295Y-57572988D01*
X58499501Y-57624499D01*
X58499501Y-57867872D01*
X58505909Y-57927483D01*
X58539773Y-58018279D01*
X58541473Y-58025127D01*
X58540281Y-58053264D01*
X58542291Y-58081358D01*
X58538553Y-58094084D01*
X58538518Y-58094934D01*
X58538151Y-58095454D01*
X58537307Y-58098331D01*
X58505909Y-58182514D01*
X58505908Y-58182516D01*
X58499501Y-58242116D01*
X58499501Y-58242123D01*
X58499500Y-58242135D01*
X58499500Y-59137870D01*
X58499501Y-59137876D01*
X58505908Y-59197482D01*
X58537307Y-59281666D01*
X58542291Y-59351358D01*
X58537307Y-59368331D01*
X58505909Y-59452514D01*
X58505908Y-59452516D01*
X58499501Y-59512116D01*
X58499501Y-59512123D01*
X58499500Y-59512135D01*
X58499500Y-60407870D01*
X58499501Y-60407876D01*
X58505908Y-60467482D01*
X58537307Y-60551666D01*
X58542291Y-60621358D01*
X58537307Y-60638331D01*
X58505909Y-60722514D01*
X58505908Y-60722516D01*
X58500781Y-60770208D01*
X58499501Y-60782123D01*
X58499500Y-60782135D01*
X58499500Y-61677870D01*
X58499501Y-61677876D01*
X58505909Y-61737484D01*
X58537573Y-61822382D01*
X58542557Y-61892073D01*
X58537573Y-61909046D01*
X58506404Y-61992616D01*
X58506401Y-61992627D01*
X58500000Y-62052155D01*
X58500000Y-62250000D01*
X61300000Y-62250000D01*
X61300000Y-62052172D01*
X61299999Y-62052155D01*
X61293598Y-61992623D01*
X61262425Y-61909047D01*
X61257441Y-61839356D01*
X61262418Y-61822402D01*
X61294091Y-61737483D01*
X61300500Y-61677873D01*
X61300499Y-60782128D01*
X61294091Y-60722517D01*
X61262691Y-60638331D01*
X61257708Y-60568642D01*
X61262689Y-60551673D01*
X61294091Y-60467483D01*
X61300500Y-60407873D01*
X61300499Y-60000094D01*
X61320183Y-59933056D01*
X61336813Y-59912419D01*
X62408145Y-58841087D01*
X62469466Y-58807604D01*
X62539158Y-58812588D01*
X62595091Y-58854460D01*
X62619508Y-58919924D01*
X62618298Y-58948164D01*
X62609500Y-59003713D01*
X62609500Y-59003717D01*
X62609500Y-59003718D01*
X62609500Y-59216286D01*
X62633581Y-59368331D01*
X62642754Y-59426243D01*
X62670660Y-59512129D01*
X62708444Y-59628414D01*
X62804951Y-59817820D01*
X62929890Y-59989786D01*
X63080213Y-60140109D01*
X63252182Y-60265050D01*
X63260946Y-60269516D01*
X63311742Y-60317491D01*
X63328536Y-60385312D01*
X63305998Y-60451447D01*
X63260946Y-60490484D01*
X63252182Y-60494949D01*
X63080213Y-60619890D01*
X62929890Y-60770213D01*
X62804951Y-60942179D01*
X62708444Y-61131585D01*
X62642753Y-61333760D01*
X62609500Y-61543713D01*
X62609500Y-61756286D01*
X62631006Y-61892073D01*
X62642754Y-61966243D01*
X62696124Y-62130499D01*
X62708444Y-62168414D01*
X62804951Y-62357820D01*
X62929890Y-62529786D01*
X63080213Y-62680109D01*
X63252179Y-62805048D01*
X63252181Y-62805049D01*
X63252184Y-62805051D01*
X63261493Y-62809794D01*
X63312290Y-62857766D01*
X63329087Y-62925587D01*
X63306552Y-62991722D01*
X63261505Y-63030760D01*
X63252446Y-63035376D01*
X63252440Y-63035380D01*
X63198282Y-63074727D01*
X63198282Y-63074728D01*
X63830591Y-63707037D01*
X63767007Y-63724075D01*
X63652993Y-63789901D01*
X63559901Y-63882993D01*
X63494075Y-63997007D01*
X63477037Y-64060591D01*
X62844728Y-63428282D01*
X62844727Y-63428282D01*
X62805380Y-63482439D01*
X62708904Y-63671782D01*
X62643242Y-63873869D01*
X62643242Y-63873872D01*
X62610000Y-64083753D01*
X62610000Y-64296246D01*
X62643242Y-64506127D01*
X62643242Y-64506130D01*
X62708904Y-64708217D01*
X62805375Y-64897550D01*
X62844728Y-64951716D01*
X63477037Y-64319408D01*
X63494075Y-64382993D01*
X63559901Y-64497007D01*
X63652993Y-64590099D01*
X63767007Y-64655925D01*
X63830589Y-64672962D01*
X63198282Y-65305269D01*
X63198282Y-65305270D01*
X63252449Y-65344624D01*
X63441782Y-65441095D01*
X63643870Y-65506757D01*
X63853754Y-65540000D01*
X64066246Y-65540000D01*
X64276127Y-65506757D01*
X64276130Y-65506757D01*
X64478217Y-65441095D01*
X64519205Y-65420211D01*
X64587874Y-65407315D01*
X64652614Y-65433591D01*
X64692872Y-65490697D01*
X64699500Y-65530696D01*
X64699500Y-67515500D01*
X64679815Y-67582539D01*
X64627011Y-67628294D01*
X64575500Y-67639500D01*
X49043722Y-67639500D01*
X48976683Y-67619815D01*
X48930928Y-67567011D01*
X48920984Y-67497853D01*
X48950009Y-67434297D01*
X49004718Y-67397794D01*
X49119334Y-67359814D01*
X49268656Y-67267712D01*
X49392712Y-67143656D01*
X49484814Y-66994334D01*
X49539999Y-66827797D01*
X49550500Y-66725009D01*
X49550499Y-65674992D01*
X49539999Y-65572203D01*
X49484814Y-65405666D01*
X49392712Y-65256344D01*
X49268656Y-65132288D01*
X49259399Y-65126578D01*
X49212676Y-65074629D01*
X49200499Y-65021041D01*
X49200499Y-62947844D01*
X58500000Y-62947844D01*
X58506401Y-63007372D01*
X58506403Y-63007379D01*
X58556645Y-63142086D01*
X58556649Y-63142093D01*
X58642809Y-63257187D01*
X58642812Y-63257190D01*
X58757906Y-63343350D01*
X58757913Y-63343354D01*
X58892620Y-63393596D01*
X58892627Y-63393598D01*
X58952155Y-63399999D01*
X58952172Y-63400000D01*
X59650000Y-63400000D01*
X60150000Y-63400000D01*
X60847828Y-63400000D01*
X60847844Y-63399999D01*
X60907372Y-63393598D01*
X60907379Y-63393596D01*
X61042086Y-63343354D01*
X61042093Y-63343350D01*
X61157187Y-63257190D01*
X61157190Y-63257187D01*
X61243350Y-63142093D01*
X61243354Y-63142086D01*
X61293596Y-63007379D01*
X61293598Y-63007372D01*
X61299999Y-62947844D01*
X61300000Y-62947827D01*
X61300000Y-62750000D01*
X60150000Y-62750000D01*
X60150000Y-63400000D01*
X59650000Y-63400000D01*
X59650000Y-62750000D01*
X58500000Y-62750000D01*
X58500000Y-62947844D01*
X49200499Y-62947844D01*
X49200499Y-62020945D01*
X49200499Y-62020943D01*
X49159576Y-61868216D01*
X49080519Y-61731285D01*
X48968715Y-61619481D01*
X47336818Y-59987584D01*
X47303333Y-59926261D01*
X47300499Y-59899903D01*
X47300499Y-59512129D01*
X47300498Y-59512123D01*
X47300497Y-59512116D01*
X47294091Y-59452517D01*
X47262691Y-59368331D01*
X47257708Y-59298642D01*
X47262689Y-59281673D01*
X47294091Y-59197483D01*
X47300500Y-59137873D01*
X47300499Y-58242128D01*
X47294091Y-58182517D01*
X47262691Y-58098331D01*
X47261279Y-58078587D01*
X47254968Y-58059826D01*
X47258405Y-58038393D01*
X47257708Y-58028642D01*
X47258627Y-58024722D01*
X47260297Y-58018087D01*
X47294091Y-57927483D01*
X47300500Y-57867873D01*
X47300499Y-57858424D01*
X47304076Y-57844222D01*
X47315954Y-57824053D01*
X47323739Y-57801982D01*
X47333354Y-57794511D01*
X47339534Y-57784019D01*
X47360430Y-57773474D01*
X47378913Y-57759114D01*
X47394896Y-57756081D01*
X47401912Y-57752542D01*
X47409428Y-57753325D01*
X47424323Y-57750500D01*
X47483768Y-57750500D01*
X47483769Y-57750499D01*
X47648082Y-57717816D01*
X47802863Y-57653703D01*
X47942162Y-57560626D01*
X47942165Y-57560623D01*
X47965971Y-57536818D01*
X48027294Y-57503333D01*
X48053652Y-57500499D01*
X58375501Y-57500499D01*
X58442540Y-57520184D01*
G37*
%TD.AperFunction*%
%TA.AperFunction,Conductor*%
G36*
X64642539Y-40060185D02*
G01*
X64688294Y-40112989D01*
X64699500Y-40164500D01*
X64699500Y-44935500D01*
X64679815Y-45002539D01*
X64627011Y-45048294D01*
X64575500Y-45059500D01*
X63062129Y-45059500D01*
X63062123Y-45059501D01*
X63002516Y-45065908D01*
X62867671Y-45116202D01*
X62867664Y-45116206D01*
X62752455Y-45202452D01*
X62752452Y-45202455D01*
X62666206Y-45317664D01*
X62666202Y-45317671D01*
X62615908Y-45452517D01*
X62609501Y-45512116D01*
X62609501Y-45512123D01*
X62609500Y-45512135D01*
X62609500Y-47307870D01*
X62609501Y-47307876D01*
X62615908Y-47367483D01*
X62666202Y-47502328D01*
X62666206Y-47502335D01*
X62752452Y-47617544D01*
X62752455Y-47617547D01*
X62867664Y-47703793D01*
X62867671Y-47703797D01*
X62999082Y-47752810D01*
X63055016Y-47794681D01*
X63079433Y-47860145D01*
X63064582Y-47928418D01*
X63043431Y-47956673D01*
X62929889Y-48070215D01*
X62804951Y-48242179D01*
X62708444Y-48431585D01*
X62642753Y-48633760D01*
X62609500Y-48843713D01*
X62609500Y-49056286D01*
X62642754Y-49266246D01*
X62678562Y-49376454D01*
X62680557Y-49446295D01*
X62648312Y-49502452D01*
X62331285Y-49819481D01*
X62219482Y-49931283D01*
X62140425Y-50068213D01*
X62140424Y-50068216D01*
X62099501Y-50220943D01*
X62099501Y-56879057D01*
X62140424Y-57031784D01*
X62182889Y-57105336D01*
X62197095Y-57143024D01*
X62199501Y-57155059D01*
X62199501Y-57179057D01*
X62218397Y-57249582D01*
X62219182Y-57253505D01*
X62216440Y-57284483D01*
X62215700Y-57315572D01*
X62213346Y-57319432D01*
X62213022Y-57323103D01*
X62204074Y-57334644D01*
X62185269Y-57365495D01*
X62012180Y-57538585D01*
X61950857Y-57572070D01*
X61881166Y-57567086D01*
X61825232Y-57525215D01*
X61800815Y-57459750D01*
X61800499Y-57450904D01*
X61800499Y-53020945D01*
X61800499Y-53020943D01*
X61759576Y-52868216D01*
X61680519Y-52731285D01*
X61568715Y-52619481D01*
X61268715Y-52319481D01*
X61131784Y-52240424D01*
X60979057Y-52199501D01*
X60979056Y-52199501D01*
X60000096Y-52199501D01*
X59933057Y-52179816D01*
X59912415Y-52163182D01*
X58268716Y-50519482D01*
X58268715Y-50519481D01*
X58131784Y-50440424D01*
X57979057Y-50399501D01*
X57979056Y-50399501D01*
X43400097Y-50399501D01*
X43333058Y-50379816D01*
X43312416Y-50363182D01*
X42421495Y-49472261D01*
X42388010Y-49410938D01*
X42391244Y-49346264D01*
X42417246Y-49266243D01*
X42450500Y-49056287D01*
X42450500Y-48843713D01*
X42417246Y-48633757D01*
X42369836Y-48487844D01*
X44500000Y-48487844D01*
X44506401Y-48547372D01*
X44506403Y-48547379D01*
X44556645Y-48682086D01*
X44556649Y-48682093D01*
X44642809Y-48797187D01*
X44642812Y-48797190D01*
X44757906Y-48883350D01*
X44757913Y-48883354D01*
X44892620Y-48933596D01*
X44892627Y-48933598D01*
X44952155Y-48939999D01*
X44952172Y-48940000D01*
X45650000Y-48940000D01*
X46150000Y-48940000D01*
X46847828Y-48940000D01*
X46847844Y-48939999D01*
X46907372Y-48933598D01*
X46907379Y-48933596D01*
X47042086Y-48883354D01*
X47042093Y-48883350D01*
X47157187Y-48797190D01*
X47157190Y-48797187D01*
X47243350Y-48682093D01*
X47243354Y-48682086D01*
X47293596Y-48547379D01*
X47293598Y-48547372D01*
X47299999Y-48487844D01*
X58500000Y-48487844D01*
X58506401Y-48547372D01*
X58506403Y-48547379D01*
X58556645Y-48682086D01*
X58556649Y-48682093D01*
X58642809Y-48797187D01*
X58642812Y-48797190D01*
X58757906Y-48883350D01*
X58757913Y-48883354D01*
X58892620Y-48933596D01*
X58892627Y-48933598D01*
X58952155Y-48939999D01*
X58952172Y-48940000D01*
X59650000Y-48940000D01*
X60150000Y-48940000D01*
X60847828Y-48940000D01*
X60847844Y-48939999D01*
X60907372Y-48933598D01*
X60907379Y-48933596D01*
X61042086Y-48883354D01*
X61042093Y-48883350D01*
X61157187Y-48797190D01*
X61157190Y-48797187D01*
X61243350Y-48682093D01*
X61243354Y-48682086D01*
X61293596Y-48547379D01*
X61293598Y-48547372D01*
X61299999Y-48487844D01*
X61300000Y-48487827D01*
X61300000Y-48290000D01*
X60150000Y-48290000D01*
X60150000Y-48940000D01*
X59650000Y-48940000D01*
X59650000Y-48290000D01*
X58500000Y-48290000D01*
X58500000Y-48487844D01*
X47299999Y-48487844D01*
X47300000Y-48487827D01*
X47300000Y-48290000D01*
X46150000Y-48290000D01*
X46150000Y-48940000D01*
X45650000Y-48940000D01*
X45650000Y-48290000D01*
X44500000Y-48290000D01*
X44500000Y-48487844D01*
X42369836Y-48487844D01*
X42351557Y-48431588D01*
X42255051Y-48242184D01*
X42247023Y-48231134D01*
X42130109Y-48070213D01*
X42016569Y-47956673D01*
X41983084Y-47895350D01*
X41988068Y-47825658D01*
X42029940Y-47769725D01*
X42060915Y-47752810D01*
X42192331Y-47703796D01*
X42307546Y-47617546D01*
X42393796Y-47502331D01*
X42444091Y-47367483D01*
X42450500Y-47307873D01*
X42450500Y-47217844D01*
X44500000Y-47217844D01*
X44506401Y-47277372D01*
X44506404Y-47277383D01*
X44537839Y-47361668D01*
X44542823Y-47431360D01*
X44537839Y-47448332D01*
X44506404Y-47532616D01*
X44506401Y-47532627D01*
X44500000Y-47592155D01*
X44500000Y-47790000D01*
X45650000Y-47790000D01*
X46150000Y-47790000D01*
X47300000Y-47790000D01*
X47300000Y-47592172D01*
X47299999Y-47592155D01*
X47293598Y-47532627D01*
X47293597Y-47532623D01*
X47262159Y-47448334D01*
X47257175Y-47378642D01*
X47262159Y-47361666D01*
X47293597Y-47277376D01*
X47293598Y-47277372D01*
X47299999Y-47217844D01*
X47300000Y-47217827D01*
X47300000Y-47020000D01*
X46150000Y-47020000D01*
X46150000Y-47790000D01*
X45650000Y-47790000D01*
X45650000Y-47020000D01*
X44500000Y-47020000D01*
X44500000Y-47217844D01*
X42450500Y-47217844D01*
X42450499Y-46333984D01*
X42450499Y-45947844D01*
X44500000Y-45947844D01*
X44506401Y-46007372D01*
X44506404Y-46007383D01*
X44537839Y-46091668D01*
X44542823Y-46161360D01*
X44537839Y-46178332D01*
X44506404Y-46262616D01*
X44506401Y-46262627D01*
X44500000Y-46322155D01*
X44500000Y-46520000D01*
X45650000Y-46520000D01*
X46150000Y-46520000D01*
X47300000Y-46520000D01*
X47300000Y-46333984D01*
X47297057Y-46322135D01*
X58499500Y-46322135D01*
X58499500Y-47217870D01*
X58499501Y-47217876D01*
X58505909Y-47277484D01*
X58537573Y-47362382D01*
X58542557Y-47432073D01*
X58537573Y-47449046D01*
X58506404Y-47532616D01*
X58506401Y-47532627D01*
X58500000Y-47592155D01*
X58500000Y-47790000D01*
X61300000Y-47790000D01*
X61300000Y-47592172D01*
X61299999Y-47592155D01*
X61293598Y-47532623D01*
X61262425Y-47449047D01*
X61257441Y-47379356D01*
X61262418Y-47362402D01*
X61294091Y-47277483D01*
X61300500Y-47217873D01*
X61300499Y-46322128D01*
X61294091Y-46262517D01*
X61262424Y-46177615D01*
X61257441Y-46107926D01*
X61262426Y-46090950D01*
X61293597Y-46007377D01*
X61293598Y-46007374D01*
X61299999Y-45947844D01*
X61300000Y-45947827D01*
X61300000Y-45750000D01*
X58500000Y-45750000D01*
X58500000Y-45947844D01*
X58506401Y-46007372D01*
X58506403Y-46007382D01*
X58537573Y-46090953D01*
X58542557Y-46160644D01*
X58537573Y-46177617D01*
X58505909Y-46262514D01*
X58505908Y-46262516D01*
X58499501Y-46322116D01*
X58499501Y-46322123D01*
X58499500Y-46322135D01*
X47297057Y-46322135D01*
X47257998Y-46164893D01*
X47259184Y-46136744D01*
X47257175Y-46108642D01*
X47260905Y-46095936D01*
X47260941Y-46095085D01*
X47261308Y-46094562D01*
X47262159Y-46091666D01*
X47293597Y-46007376D01*
X47293598Y-46007372D01*
X47299999Y-45947844D01*
X47300000Y-45947827D01*
X47300000Y-45750000D01*
X46150000Y-45750000D01*
X46150000Y-46520000D01*
X45650000Y-46520000D01*
X45650000Y-45750000D01*
X44500000Y-45750000D01*
X44500000Y-45947844D01*
X42450499Y-45947844D01*
X42450499Y-45698638D01*
X42450499Y-45512129D01*
X42450498Y-45512123D01*
X42450497Y-45512116D01*
X42444091Y-45452517D01*
X42393796Y-45317669D01*
X42393795Y-45317668D01*
X42393793Y-45317664D01*
X42307547Y-45202455D01*
X42307544Y-45202452D01*
X42234974Y-45148126D01*
X42234961Y-45148117D01*
X42192331Y-45116204D01*
X42192328Y-45116202D01*
X42057482Y-45065908D01*
X42057483Y-45065908D01*
X41997883Y-45059501D01*
X41997881Y-45059500D01*
X41997873Y-45059500D01*
X41997865Y-45059500D01*
X40424500Y-45059500D01*
X40399486Y-45052155D01*
X44500000Y-45052155D01*
X44500000Y-45250000D01*
X45650000Y-45250000D01*
X46150000Y-45250000D01*
X47300000Y-45250000D01*
X47300000Y-45052172D01*
X47299999Y-45052155D01*
X58500000Y-45052155D01*
X58500000Y-45250000D01*
X59650000Y-45250000D01*
X60150000Y-45250000D01*
X61300000Y-45250000D01*
X61300000Y-45052172D01*
X61299999Y-45052155D01*
X61293598Y-44992627D01*
X61293596Y-44992620D01*
X61243354Y-44857913D01*
X61243350Y-44857906D01*
X61157190Y-44742812D01*
X61157187Y-44742809D01*
X61042093Y-44656649D01*
X61042086Y-44656645D01*
X60907379Y-44606403D01*
X60907372Y-44606401D01*
X60847844Y-44600000D01*
X60150000Y-44600000D01*
X60150000Y-45250000D01*
X59650000Y-45250000D01*
X59650000Y-44600000D01*
X58952155Y-44600000D01*
X58892627Y-44606401D01*
X58892620Y-44606403D01*
X58757913Y-44656645D01*
X58757906Y-44656649D01*
X58642812Y-44742809D01*
X58642809Y-44742812D01*
X58556649Y-44857906D01*
X58556645Y-44857913D01*
X58506403Y-44992620D01*
X58506401Y-44992627D01*
X58500000Y-45052155D01*
X47299999Y-45052155D01*
X47293598Y-44992627D01*
X47293596Y-44992620D01*
X47243354Y-44857913D01*
X47243350Y-44857906D01*
X47157190Y-44742812D01*
X47157187Y-44742809D01*
X47042093Y-44656649D01*
X47042086Y-44656645D01*
X46907379Y-44606403D01*
X46907372Y-44606401D01*
X46847844Y-44600000D01*
X46150000Y-44600000D01*
X46150000Y-45250000D01*
X45650000Y-45250000D01*
X45650000Y-44600000D01*
X44952155Y-44600000D01*
X44892627Y-44606401D01*
X44892620Y-44606403D01*
X44757913Y-44656645D01*
X44757906Y-44656649D01*
X44642812Y-44742809D01*
X44642809Y-44742812D01*
X44556649Y-44857906D01*
X44556645Y-44857913D01*
X44506403Y-44992620D01*
X44506401Y-44992627D01*
X44500000Y-45052155D01*
X40399486Y-45052155D01*
X40357461Y-45039815D01*
X40311706Y-44987011D01*
X40300500Y-44935500D01*
X40300500Y-40164500D01*
X40320185Y-40097461D01*
X40372989Y-40051706D01*
X40424500Y-40040500D01*
X64575500Y-40040500D01*
X64642539Y-40060185D01*
G37*
%TD.AperFunction*%
%TA.AperFunction,Conductor*%
G36*
X45843039Y-53420184D02*
G01*
X45888794Y-53472988D01*
X45900000Y-53524499D01*
X45900000Y-53610000D01*
X46026000Y-53610000D01*
X46093039Y-53629685D01*
X46138794Y-53682489D01*
X46150000Y-53734000D01*
X46150000Y-54630000D01*
X47329404Y-54630000D01*
X47396443Y-54649685D01*
X47417085Y-54666319D01*
X47519481Y-54768715D01*
X47631285Y-54880519D01*
X47716596Y-54929773D01*
X47764809Y-54980337D01*
X47778033Y-55048944D01*
X47752065Y-55113809D01*
X47695151Y-55154338D01*
X47630405Y-55158776D01*
X47583767Y-55149500D01*
X47416233Y-55149500D01*
X47416231Y-55149500D01*
X47400545Y-55152619D01*
X47330954Y-55146387D01*
X47305951Y-55130000D01*
X44500000Y-55130000D01*
X44498129Y-55131870D01*
X44480315Y-55192539D01*
X44427511Y-55238294D01*
X44376000Y-55249500D01*
X44316228Y-55249500D01*
X44151925Y-55282182D01*
X44151917Y-55282184D01*
X43997139Y-55346295D01*
X43857837Y-55439373D01*
X43739373Y-55557837D01*
X43646295Y-55697139D01*
X43582184Y-55851917D01*
X43582182Y-55851925D01*
X43549500Y-56016228D01*
X43549500Y-56049903D01*
X43529815Y-56116942D01*
X43513181Y-56137584D01*
X42615317Y-57035447D01*
X42553994Y-57068932D01*
X42484302Y-57063948D01*
X42428369Y-57022076D01*
X42403952Y-56956612D01*
X42409705Y-56909451D01*
X42417246Y-56886243D01*
X42450500Y-56676287D01*
X42450500Y-56463713D01*
X42417246Y-56253757D01*
X42351557Y-56051588D01*
X42255051Y-55862184D01*
X42255049Y-55862181D01*
X42255048Y-55862179D01*
X42130109Y-55690213D01*
X41979786Y-55539890D01*
X41807820Y-55414951D01*
X41807115Y-55414591D01*
X41799054Y-55410485D01*
X41748259Y-55362512D01*
X41731463Y-55294692D01*
X41753999Y-55228556D01*
X41799054Y-55189515D01*
X41807816Y-55185051D01*
X41885069Y-55128924D01*
X41979786Y-55060109D01*
X41979788Y-55060106D01*
X41979792Y-55060104D01*
X42130104Y-54909792D01*
X42130106Y-54909788D01*
X42130109Y-54909786D01*
X42255048Y-54737820D01*
X42255047Y-54737820D01*
X42255051Y-54737816D01*
X42351557Y-54548412D01*
X42417246Y-54346243D01*
X42450500Y-54136287D01*
X42450500Y-54057844D01*
X44500000Y-54057844D01*
X44506401Y-54117372D01*
X44506404Y-54117383D01*
X44537839Y-54201668D01*
X44542823Y-54271360D01*
X44537839Y-54288332D01*
X44506404Y-54372616D01*
X44506401Y-54372627D01*
X44500000Y-54432155D01*
X44500000Y-54630000D01*
X45650000Y-54630000D01*
X45650000Y-53860000D01*
X44500000Y-53860000D01*
X44500000Y-54057844D01*
X42450500Y-54057844D01*
X42450500Y-53923713D01*
X42417246Y-53713757D01*
X42394290Y-53643107D01*
X42392996Y-53637244D01*
X42394987Y-53608143D01*
X42394155Y-53578990D01*
X42397365Y-53573397D01*
X42397767Y-53567537D01*
X42410763Y-53550063D01*
X42426397Y-53522835D01*
X42512417Y-53436815D01*
X42573739Y-53403333D01*
X42600096Y-53400499D01*
X45776000Y-53400499D01*
X45843039Y-53420184D01*
G37*
%TD.AperFunction*%
%TD*%
M02*
