M48
; DRILL file {KiCad 9.0.2} date 2026-07-16T13:54:30+0300
; FORMAT={-:-/ absolute / inch / decimal}
; #@! TF.CreationDate,2026-07-16T13:54:30+03:00
; #@! TF.GenerationSoftware,Kicad,Pcbnew,9.0.2
; #@! TF.FileFunction,Plated,1,2,PTH
FMAT,2
INCH
; #@! TA.AperFunction,Plated,PTH,ViaDrill
T1C0.0118
; #@! TA.AperFunction,Plated,PTH,ComponentDrill
T2C0.0394
%
G90
G05
T1
X2.0276Y-4.6654
X2.0935Y-4.9409
X2.1693Y-4.9094
X2.2008Y-4.9409
X2.3437Y-4.122
X2.406Y-5.0957
X2.4437Y-4.122
X2.4449Y-4.9528
X2.4764Y-4.9843
X2.5138Y-5.0945
X2.6939Y-4.5409
X2.6939Y-4.8409
T2
X1.9409Y-4.3075
X1.9409Y-4.4075
X1.9409Y-4.5075
X1.9409Y-4.6075
X1.9409Y-4.7075
X1.9409Y-4.8075
X1.9409Y-4.9075
X1.9409Y-5.0075
X2.8409Y-4.3075
X2.8409Y-4.4075
X2.8409Y-4.5075
X2.8409Y-4.6075
X2.8409Y-4.7075
X2.8409Y-4.8075
X2.8409Y-4.9075
X2.8409Y-5.0075
M30
