M48
; DRILL file {KiCad 9.0.2} date 2026-07-14T16:55:55+0300
; FORMAT={-:-/ absolute / inch / decimal}
; #@! TF.CreationDate,2026-07-14T16:55:55+03:00
; #@! TF.GenerationSoftware,Kicad,Pcbnew,9.0.2
; #@! TF.FileFunction,Plated,1,2,PTH
FMAT,2
INCH
; #@! TA.AperFunction,Plated,PTH,ViaDrill
T1C0.0118
; #@! TA.AperFunction,Plated,PTH,ComponentDrill
T2C0.0394
%
G90
G05
T1
X2.0672Y-4.6182
X2.5Y-4.9016
X2.5787Y-4.8228
X2.5984Y-4.9803
X2.6575Y-4.9213
T2
X1.9884Y-4.2963
X1.9884Y-4.3963
X1.9884Y-4.4963
X1.9884Y-4.5963
X1.9884Y-4.6963
X1.9884Y-4.7963
X1.9884Y-4.8963
X1.9884Y-4.9963
X2.8931Y-4.2963
X2.8931Y-4.3963
X2.8931Y-4.4963
X2.8931Y-4.5963
X2.8931Y-4.6963
X2.8931Y-4.7963
X2.8931Y-4.8963
X2.8931Y-4.9963
M30
