%TF.GenerationSoftware,KiCad,Pcbnew,9.0.2*%
%TF.CreationDate,2026-07-14T16:55:55+03:00*%
%TF.ProjectId,wmbus,776d6275-732e-46b6-9963-61645f706362,rev?*%
%TF.SameCoordinates,Original*%
%TF.FileFunction,Legend,Top*%
%TF.FilePolarity,Positive*%
%FSLAX46Y46*%
G04 Gerber Fmt 4.6, Leading zero omitted, Abs format (unit mm)*
G04 Created by KiCad (PCBNEW 9.0.2) date 2026-07-14 16:55:55*
%MOMM*%
%LPD*%
G01*
G04 APERTURE LIST*
G04 Aperture macros list*
%AMRoundRect*
0 Rectangle with rounded corners*
0 $1 Rounding radius*
0 $2 $3 $4 $5 $6 $7 $8 $9 X,Y pos of 4 corners*
0 Add a 4 corners polygon primitive as box body*
4,1,4,$2,$3,$4,$5,$6,$7,$8,$9,$2,$3,0*
0 Add four circle primitives for the rounded corners*
1,1,$1+$1,$2,$3*
1,1,$1+$1,$4,$5*
1,1,$1+$1,$6,$7*
1,1,$1+$1,$8,$9*
0 Add four rect primitives between the rounded corners*
20,1,$1+$1,$2,$3,$4,$5,0*
20,1,$1+$1,$4,$5,$6,$7,0*
20,1,$1+$1,$6,$7,$8,$9,0*
20,1,$1+$1,$8,$9,$2,$3,0*%
G04 Aperture macros list end*
%ADD10C,0.300000*%
%ADD11C,0.200000*%
%ADD12C,0.127000*%
%ADD13C,0.120000*%
%ADD14R,1.700000X1.700000*%
%ADD15C,1.700000*%
%ADD16RoundRect,0.102000X-0.450000X-1.100000X0.450000X-1.100000X0.450000X1.100000X-0.450000X1.100000X0*%
%ADD17RoundRect,0.102000X-0.900000X-0.450000X0.900000X-0.450000X0.900000X0.450000X-0.900000X0.450000X0*%
%ADD18RoundRect,0.250000X-0.250000X-0.475000X0.250000X-0.475000X0.250000X0.475000X-0.250000X0.475000X0*%
%ADD19RoundRect,0.250000X0.262500X0.450000X-0.262500X0.450000X-0.262500X-0.450000X0.262500X-0.450000X0*%
G04 APERTURE END LIST*
D10*
X55483082Y-110300828D02*
X55483082Y-111372257D01*
X55483082Y-111372257D02*
X55411653Y-111586542D01*
X55411653Y-111586542D02*
X55268796Y-111729400D01*
X55268796Y-111729400D02*
X55054510Y-111800828D01*
X55054510Y-111800828D02*
X54911653Y-111800828D01*
X56911653Y-111800828D02*
X56197367Y-111800828D01*
X56197367Y-111800828D02*
X56197367Y-110300828D01*
X58268796Y-111657971D02*
X58197368Y-111729400D01*
X58197368Y-111729400D02*
X57983082Y-111800828D01*
X57983082Y-111800828D02*
X57840225Y-111800828D01*
X57840225Y-111800828D02*
X57625939Y-111729400D01*
X57625939Y-111729400D02*
X57483082Y-111586542D01*
X57483082Y-111586542D02*
X57411653Y-111443685D01*
X57411653Y-111443685D02*
X57340225Y-111157971D01*
X57340225Y-111157971D02*
X57340225Y-110943685D01*
X57340225Y-110943685D02*
X57411653Y-110657971D01*
X57411653Y-110657971D02*
X57483082Y-110515114D01*
X57483082Y-110515114D02*
X57625939Y-110372257D01*
X57625939Y-110372257D02*
X57840225Y-110300828D01*
X57840225Y-110300828D02*
X57983082Y-110300828D01*
X57983082Y-110300828D02*
X58197368Y-110372257D01*
X58197368Y-110372257D02*
X58268796Y-110443685D01*
X59340225Y-110300828D02*
X59340225Y-111372257D01*
X59340225Y-111372257D02*
X59268796Y-111586542D01*
X59268796Y-111586542D02*
X59125939Y-111729400D01*
X59125939Y-111729400D02*
X58911653Y-111800828D01*
X58911653Y-111800828D02*
X58768796Y-111800828D01*
X60768796Y-111800828D02*
X60054510Y-111800828D01*
X60054510Y-111800828D02*
X60054510Y-110300828D01*
X62125939Y-111657971D02*
X62054511Y-111729400D01*
X62054511Y-111729400D02*
X61840225Y-111800828D01*
X61840225Y-111800828D02*
X61697368Y-111800828D01*
X61697368Y-111800828D02*
X61483082Y-111729400D01*
X61483082Y-111729400D02*
X61340225Y-111586542D01*
X61340225Y-111586542D02*
X61268796Y-111443685D01*
X61268796Y-111443685D02*
X61197368Y-111157971D01*
X61197368Y-111157971D02*
X61197368Y-110943685D01*
X61197368Y-110943685D02*
X61268796Y-110657971D01*
X61268796Y-110657971D02*
X61340225Y-110515114D01*
X61340225Y-110515114D02*
X61483082Y-110372257D01*
X61483082Y-110372257D02*
X61697368Y-110300828D01*
X61697368Y-110300828D02*
X61840225Y-110300828D01*
X61840225Y-110300828D02*
X62054511Y-110372257D01*
X62054511Y-110372257D02*
X62125939Y-110443685D01*
X63197368Y-110300828D02*
X63197368Y-111372257D01*
X63197368Y-111372257D02*
X63125939Y-111586542D01*
X63125939Y-111586542D02*
X62983082Y-111729400D01*
X62983082Y-111729400D02*
X62768796Y-111800828D01*
X62768796Y-111800828D02*
X62625939Y-111800828D01*
X64625939Y-111800828D02*
X63911653Y-111800828D01*
X63911653Y-111800828D02*
X63911653Y-110300828D01*
X65983082Y-111657971D02*
X65911654Y-111729400D01*
X65911654Y-111729400D02*
X65697368Y-111800828D01*
X65697368Y-111800828D02*
X65554511Y-111800828D01*
X65554511Y-111800828D02*
X65340225Y-111729400D01*
X65340225Y-111729400D02*
X65197368Y-111586542D01*
X65197368Y-111586542D02*
X65125939Y-111443685D01*
X65125939Y-111443685D02*
X65054511Y-111157971D01*
X65054511Y-111157971D02*
X65054511Y-110943685D01*
X65054511Y-110943685D02*
X65125939Y-110657971D01*
X65125939Y-110657971D02*
X65197368Y-110515114D01*
X65197368Y-110515114D02*
X65340225Y-110372257D01*
X65340225Y-110372257D02*
X65554511Y-110300828D01*
X65554511Y-110300828D02*
X65697368Y-110300828D01*
X65697368Y-110300828D02*
X65911654Y-110372257D01*
X65911654Y-110372257D02*
X65983082Y-110443685D01*
X67054511Y-110300828D02*
X67054511Y-111372257D01*
X67054511Y-111372257D02*
X66983082Y-111586542D01*
X66983082Y-111586542D02*
X66840225Y-111729400D01*
X66840225Y-111729400D02*
X66625939Y-111800828D01*
X66625939Y-111800828D02*
X66483082Y-111800828D01*
X68483082Y-111800828D02*
X67768796Y-111800828D01*
X67768796Y-111800828D02*
X67768796Y-110300828D01*
X69840225Y-111657971D02*
X69768797Y-111729400D01*
X69768797Y-111729400D02*
X69554511Y-111800828D01*
X69554511Y-111800828D02*
X69411654Y-111800828D01*
X69411654Y-111800828D02*
X69197368Y-111729400D01*
X69197368Y-111729400D02*
X69054511Y-111586542D01*
X69054511Y-111586542D02*
X68983082Y-111443685D01*
X68983082Y-111443685D02*
X68911654Y-111157971D01*
X68911654Y-111157971D02*
X68911654Y-110943685D01*
X68911654Y-110943685D02*
X68983082Y-110657971D01*
X68983082Y-110657971D02*
X69054511Y-110515114D01*
X69054511Y-110515114D02*
X69197368Y-110372257D01*
X69197368Y-110372257D02*
X69411654Y-110300828D01*
X69411654Y-110300828D02*
X69554511Y-110300828D01*
X69554511Y-110300828D02*
X69768797Y-110372257D01*
X69768797Y-110372257D02*
X69840225Y-110443685D01*
D11*
%TO.C,U2*%
X53220000Y-115340000D02*
G75*
G02*
X53020000Y-115340000I-100000J0D01*
G01*
X53020000Y-115340000D02*
G75*
G02*
X53220000Y-115340000I100000J0D01*
G01*
D12*
X54220000Y-104340000D02*
X54220000Y-114540000D01*
X54220000Y-126340000D02*
X54220000Y-127340000D01*
X54220000Y-127340000D02*
X70220000Y-127340000D01*
X58220000Y-104340000D02*
X54220000Y-104340000D01*
X70220000Y-104340000D02*
X66220000Y-104340000D01*
X70220000Y-114540000D02*
X70220000Y-104340000D01*
X70220000Y-127340000D02*
X70220000Y-126340000D01*
D13*
%TO.C,C1*%
X57188748Y-130235000D02*
X57711252Y-130235000D01*
X57188748Y-128765000D02*
X57711252Y-128765000D01*
%TO.C,R2*%
X62227064Y-128795000D02*
X61772936Y-128795000D01*
X62227064Y-130265000D02*
X61772936Y-130265000D01*
%TO.C,R1*%
X66727064Y-128795000D02*
X66272936Y-128795000D01*
X66727064Y-130265000D02*
X66272936Y-130265000D01*
%TD*%
%LPC*%
D14*
%TO.C,J2*%
X73485000Y-109125000D03*
D15*
X73485000Y-111665000D03*
X73485000Y-114205000D03*
X73485000Y-116745000D03*
X73485000Y-119285000D03*
X73485000Y-121825000D03*
X73485000Y-124365000D03*
X73485000Y-126905000D03*
%TD*%
D14*
%TO.C,J1*%
X50505000Y-109125000D03*
D15*
X50505000Y-111665000D03*
X50505000Y-114205000D03*
X50505000Y-116745000D03*
X50505000Y-119285000D03*
X50505000Y-121825000D03*
X50505000Y-124365000D03*
X50505000Y-126905000D03*
%TD*%
D16*
%TO.C,U2*%
X60950000Y-104740000D03*
X62220000Y-104740000D03*
X63490000Y-104740000D03*
D17*
X69845000Y-115380000D03*
X69845000Y-116650000D03*
X69845000Y-117920000D03*
X69845000Y-119190000D03*
X69845000Y-120460000D03*
X69845000Y-121730000D03*
X69845000Y-123000000D03*
X69845000Y-124270000D03*
X69845000Y-125540000D03*
X54595000Y-125540000D03*
X54595000Y-124270000D03*
X54595000Y-123000000D03*
X54595000Y-121730000D03*
X54595000Y-120460000D03*
X54595000Y-119190000D03*
X54595000Y-117920000D03*
X54595000Y-116650000D03*
X54595000Y-115380000D03*
%TD*%
D18*
%TO.C,C1*%
X58400000Y-129500000D03*
X56500000Y-129500000D03*
%TD*%
D19*
%TO.C,R2*%
X61087500Y-129530000D03*
X62912500Y-129530000D03*
%TD*%
%TO.C,R1*%
X65587500Y-129530000D03*
X67412500Y-129530000D03*
%TD*%
%LPD*%
M02*
