%TF.GenerationSoftware,KiCad,Pcbnew,9.0.2*%
%TF.CreationDate,2026-07-22T11:31:35+03:00*%
%TF.ProjectId,wmbus,776d6275-732e-46b6-9963-61645f706362,rev?*%
%TF.SameCoordinates,Original*%
%TF.FileFunction,Legend,Top*%
%TF.FilePolarity,Positive*%
%FSLAX46Y46*%
G04 Gerber Fmt 4.6, Leading zero omitted, Abs format (unit mm)*
G04 Created by KiCad (PCBNEW 9.0.2) date 2026-07-22 11:31:35*
%MOMM*%
%LPD*%
G01*
G04 APERTURE LIST*
G04 Aperture macros list*
%AMRoundRect*
0 Rectangle with rounded corners*
0 $1 Rounding radius*
0 $2 $3 $4 $5 $6 $7 $8 $9 X,Y pos of 4 corners*
0 Add a 4 corners polygon primitive as box body*
4,1,4,$2,$3,$4,$5,$6,$7,$8,$9,$2,$3,0*
0 Add four circle primitives for the rounded corners*
1,1,$1+$1,$2,$3*
1,1,$1+$1,$4,$5*
1,1,$1+$1,$6,$7*
1,1,$1+$1,$8,$9*
0 Add four rect primitives between the rounded corners*
20,1,$1+$1,$2,$3,$4,$5,0*
20,1,$1+$1,$4,$5,$6,$7,0*
20,1,$1+$1,$6,$7,$8,$9,0*
20,1,$1+$1,$8,$9,$2,$3,0*%
G04 Aperture macros list end*
%ADD10C,0.300000*%
%ADD11C,0.120000*%
%ADD12C,0.127000*%
%ADD13C,0.200000*%
%ADD14RoundRect,0.250000X-0.262500X-0.450000X0.262500X-0.450000X0.262500X0.450000X-0.262500X0.450000X0*%
%ADD15RoundRect,0.102000X-0.900000X-0.450000X0.900000X-0.450000X0.900000X0.450000X-0.900000X0.450000X0*%
%ADD16RoundRect,0.102000X-0.450000X-1.100000X0.450000X-1.100000X0.450000X1.100000X-0.450000X1.100000X0*%
%ADD17RoundRect,0.250000X0.250000X0.475000X-0.250000X0.475000X-0.250000X-0.475000X0.250000X-0.475000X0*%
%ADD18R,1.700000X1.700000*%
%ADD19C,1.700000*%
G04 APERTURE END LIST*
D10*
X54063082Y-110260828D02*
X54063082Y-111332257D01*
X54063082Y-111332257D02*
X53991653Y-111546542D01*
X53991653Y-111546542D02*
X53848796Y-111689400D01*
X53848796Y-111689400D02*
X53634510Y-111760828D01*
X53634510Y-111760828D02*
X53491653Y-111760828D01*
X55491653Y-111760828D02*
X54777367Y-111760828D01*
X54777367Y-111760828D02*
X54777367Y-110260828D01*
X56848796Y-111617971D02*
X56777368Y-111689400D01*
X56777368Y-111689400D02*
X56563082Y-111760828D01*
X56563082Y-111760828D02*
X56420225Y-111760828D01*
X56420225Y-111760828D02*
X56205939Y-111689400D01*
X56205939Y-111689400D02*
X56063082Y-111546542D01*
X56063082Y-111546542D02*
X55991653Y-111403685D01*
X55991653Y-111403685D02*
X55920225Y-111117971D01*
X55920225Y-111117971D02*
X55920225Y-110903685D01*
X55920225Y-110903685D02*
X55991653Y-110617971D01*
X55991653Y-110617971D02*
X56063082Y-110475114D01*
X56063082Y-110475114D02*
X56205939Y-110332257D01*
X56205939Y-110332257D02*
X56420225Y-110260828D01*
X56420225Y-110260828D02*
X56563082Y-110260828D01*
X56563082Y-110260828D02*
X56777368Y-110332257D01*
X56777368Y-110332257D02*
X56848796Y-110403685D01*
X57920225Y-110260828D02*
X57920225Y-111332257D01*
X57920225Y-111332257D02*
X57848796Y-111546542D01*
X57848796Y-111546542D02*
X57705939Y-111689400D01*
X57705939Y-111689400D02*
X57491653Y-111760828D01*
X57491653Y-111760828D02*
X57348796Y-111760828D01*
X59348796Y-111760828D02*
X58634510Y-111760828D01*
X58634510Y-111760828D02*
X58634510Y-110260828D01*
X60705939Y-111617971D02*
X60634511Y-111689400D01*
X60634511Y-111689400D02*
X60420225Y-111760828D01*
X60420225Y-111760828D02*
X60277368Y-111760828D01*
X60277368Y-111760828D02*
X60063082Y-111689400D01*
X60063082Y-111689400D02*
X59920225Y-111546542D01*
X59920225Y-111546542D02*
X59848796Y-111403685D01*
X59848796Y-111403685D02*
X59777368Y-111117971D01*
X59777368Y-111117971D02*
X59777368Y-110903685D01*
X59777368Y-110903685D02*
X59848796Y-110617971D01*
X59848796Y-110617971D02*
X59920225Y-110475114D01*
X59920225Y-110475114D02*
X60063082Y-110332257D01*
X60063082Y-110332257D02*
X60277368Y-110260828D01*
X60277368Y-110260828D02*
X60420225Y-110260828D01*
X60420225Y-110260828D02*
X60634511Y-110332257D01*
X60634511Y-110332257D02*
X60705939Y-110403685D01*
X61777368Y-110260828D02*
X61777368Y-111332257D01*
X61777368Y-111332257D02*
X61705939Y-111546542D01*
X61705939Y-111546542D02*
X61563082Y-111689400D01*
X61563082Y-111689400D02*
X61348796Y-111760828D01*
X61348796Y-111760828D02*
X61205939Y-111760828D01*
X63205939Y-111760828D02*
X62491653Y-111760828D01*
X62491653Y-111760828D02*
X62491653Y-110260828D01*
X64563082Y-111617971D02*
X64491654Y-111689400D01*
X64491654Y-111689400D02*
X64277368Y-111760828D01*
X64277368Y-111760828D02*
X64134511Y-111760828D01*
X64134511Y-111760828D02*
X63920225Y-111689400D01*
X63920225Y-111689400D02*
X63777368Y-111546542D01*
X63777368Y-111546542D02*
X63705939Y-111403685D01*
X63705939Y-111403685D02*
X63634511Y-111117971D01*
X63634511Y-111117971D02*
X63634511Y-110903685D01*
X63634511Y-110903685D02*
X63705939Y-110617971D01*
X63705939Y-110617971D02*
X63777368Y-110475114D01*
X63777368Y-110475114D02*
X63920225Y-110332257D01*
X63920225Y-110332257D02*
X64134511Y-110260828D01*
X64134511Y-110260828D02*
X64277368Y-110260828D01*
X64277368Y-110260828D02*
X64491654Y-110332257D01*
X64491654Y-110332257D02*
X64563082Y-110403685D01*
X65634511Y-110260828D02*
X65634511Y-111332257D01*
X65634511Y-111332257D02*
X65563082Y-111546542D01*
X65563082Y-111546542D02*
X65420225Y-111689400D01*
X65420225Y-111689400D02*
X65205939Y-111760828D01*
X65205939Y-111760828D02*
X65063082Y-111760828D01*
X67063082Y-111760828D02*
X66348796Y-111760828D01*
X66348796Y-111760828D02*
X66348796Y-110260828D01*
X68420225Y-111617971D02*
X68348797Y-111689400D01*
X68348797Y-111689400D02*
X68134511Y-111760828D01*
X68134511Y-111760828D02*
X67991654Y-111760828D01*
X67991654Y-111760828D02*
X67777368Y-111689400D01*
X67777368Y-111689400D02*
X67634511Y-111546542D01*
X67634511Y-111546542D02*
X67563082Y-111403685D01*
X67563082Y-111403685D02*
X67491654Y-111117971D01*
X67491654Y-111117971D02*
X67491654Y-110903685D01*
X67491654Y-110903685D02*
X67563082Y-110617971D01*
X67563082Y-110617971D02*
X67634511Y-110475114D01*
X67634511Y-110475114D02*
X67777368Y-110332257D01*
X67777368Y-110332257D02*
X67991654Y-110260828D01*
X67991654Y-110260828D02*
X68134511Y-110260828D01*
X68134511Y-110260828D02*
X68348797Y-110332257D01*
X68348797Y-110332257D02*
X68420225Y-110403685D01*
D11*
%TO.C,R1*%
X55472936Y-128695000D02*
X55927064Y-128695000D01*
X55472936Y-130165000D02*
X55927064Y-130165000D01*
D12*
%TO.C,U2*%
X52800000Y-104300000D02*
X52800000Y-114500000D01*
X52800000Y-126300000D02*
X52800000Y-127300000D01*
X52800000Y-127300000D02*
X68800000Y-127300000D01*
X56800000Y-104300000D02*
X52800000Y-104300000D01*
X68800000Y-104300000D02*
X64800000Y-104300000D01*
X68800000Y-114500000D02*
X68800000Y-104300000D01*
X68800000Y-127300000D02*
X68800000Y-126300000D01*
D13*
X51800000Y-115300000D02*
G75*
G02*
X51600000Y-115300000I-100000J0D01*
G01*
X51600000Y-115300000D02*
G75*
G02*
X51800000Y-115300000I100000J0D01*
G01*
D11*
%TO.C,C1*%
X65061252Y-128665000D02*
X64538748Y-128665000D01*
X65061252Y-130135000D02*
X64538748Y-130135000D01*
%TO.C,R2*%
X59972936Y-128695000D02*
X60427064Y-128695000D01*
X59972936Y-130165000D02*
X60427064Y-130165000D01*
%TD*%
%LPC*%
D14*
%TO.C,R1*%
X54787500Y-129430000D03*
X56612500Y-129430000D03*
%TD*%
D15*
%TO.C,U2*%
X53175000Y-115340000D03*
X53175000Y-116610000D03*
X53175000Y-117880000D03*
X53175000Y-119150000D03*
X53175000Y-120420000D03*
X53175000Y-121690000D03*
X53175000Y-122960000D03*
X53175000Y-124230000D03*
X53175000Y-125500000D03*
X68425000Y-125500000D03*
X68425000Y-124230000D03*
X68425000Y-122960000D03*
X68425000Y-121690000D03*
X68425000Y-120420000D03*
X68425000Y-119150000D03*
X68425000Y-117880000D03*
X68425000Y-116610000D03*
X68425000Y-115340000D03*
D16*
X62070000Y-104700000D03*
X60800000Y-104700000D03*
X59530000Y-104700000D03*
%TD*%
D17*
%TO.C,C1*%
X65750000Y-129400000D03*
X63850000Y-129400000D03*
%TD*%
D14*
%TO.C,R2*%
X59287500Y-129430000D03*
X61112500Y-129430000D03*
%TD*%
D18*
%TO.C,J2*%
X72160000Y-109410000D03*
D19*
X72160000Y-111950000D03*
X72160000Y-114490000D03*
X72160000Y-117030000D03*
X72160000Y-119570000D03*
X72160000Y-122110000D03*
X72160000Y-124650000D03*
X72160000Y-127190000D03*
%TD*%
D18*
%TO.C,J1*%
X49300000Y-109410000D03*
D19*
X49300000Y-111950000D03*
X49300000Y-114490000D03*
X49300000Y-117030000D03*
X49300000Y-119570000D03*
X49300000Y-122110000D03*
X49300000Y-124650000D03*
X49300000Y-127190000D03*
%TD*%
%LPD*%
M02*
