%TF.GenerationSoftware,KiCad,Pcbnew,9.0.2*%
%TF.CreationDate,2026-08-03T22:34:29+03:00*%
%TF.ProjectId,wmbus,776d6275-732e-46b6-9963-61645f706362,rev?*%
%TF.SameCoordinates,Original*%
%TF.FileFunction,Legend,Bot*%
%TF.FilePolarity,Positive*%
%FSLAX46Y46*%
G04 Gerber Fmt 4.6, Leading zero omitted, Abs format (unit mm)*
G04 Created by KiCad (PCBNEW 9.0.2) date 2026-08-03 22:34:29*
%MOMM*%
%LPD*%
G01*
G04 APERTURE LIST*
%ADD10C,0.000000*%
%ADD11C,0.120000*%
%ADD12R,1.700000X1.700000*%
%ADD13C,1.700000*%
G04 APERTURE END LIST*
D10*
G36*
X62440465Y-116341450D02*
G01*
X62436925Y-116358480D01*
X62433385Y-116375511D01*
X62423665Y-116396208D01*
X62413945Y-116416905D01*
X62390929Y-116440017D01*
X62367913Y-116463130D01*
X62344185Y-116474495D01*
X62320455Y-116485859D01*
X62306055Y-116489784D01*
X62291655Y-116493708D01*
X62272455Y-116496229D01*
X62253441Y-116498706D01*
X62227841Y-116497226D01*
X62202243Y-116495745D01*
X62182047Y-116491053D01*
X62161850Y-116486361D01*
X62138068Y-116474722D01*
X62114289Y-116463070D01*
X62092043Y-116444313D01*
X62069799Y-116425555D01*
X62068398Y-116431051D01*
X62066797Y-116436547D01*
X62064717Y-116449401D01*
X62062638Y-116462255D01*
X62059137Y-116474307D01*
X62055637Y-116486357D01*
X62001747Y-116486357D01*
X61947855Y-116486357D01*
X61947855Y-116481749D01*
X61947855Y-116477140D01*
X61951335Y-116468092D01*
X61954816Y-116459043D01*
X61959816Y-116438156D01*
X61964817Y-116417268D01*
X61967057Y-116227667D01*
X61967425Y-116196481D01*
X62069295Y-116196481D01*
X62069295Y-116257244D01*
X62069295Y-116318006D01*
X62078395Y-116332295D01*
X62087496Y-116346580D01*
X62103235Y-116361267D01*
X62118975Y-116375953D01*
X62133574Y-116384545D01*
X62148174Y-116393150D01*
X62167115Y-116399870D01*
X62186054Y-116406539D01*
X62219654Y-116408000D01*
X62253252Y-116409460D01*
X62269892Y-116403472D01*
X62286531Y-116397473D01*
X62300051Y-116388089D01*
X62313570Y-116378704D01*
X62322690Y-116364292D01*
X62331810Y-116349882D01*
X62335271Y-116336978D01*
X62338732Y-116324073D01*
X62337331Y-116299971D01*
X62335930Y-116275869D01*
X62329230Y-116262796D01*
X62322530Y-116249722D01*
X62309650Y-116238031D01*
X62296770Y-116226339D01*
X62283570Y-116219575D01*
X62270369Y-116212811D01*
X62245829Y-116206106D01*
X62221288Y-116199401D01*
X62145291Y-116197941D01*
X62069295Y-116196481D01*
X61967425Y-116196481D01*
X61969297Y-116038067D01*
X61974637Y-116017511D01*
X61979978Y-115996954D01*
X61991478Y-115974958D01*
X62002979Y-115952963D01*
X62024857Y-115932235D01*
X62046736Y-115911508D01*
X62070075Y-115900399D01*
X62093410Y-115889291D01*
X62115810Y-115883413D01*
X62138208Y-115877536D01*
X62191008Y-115877516D01*
X62243807Y-115877496D01*
X62264218Y-115883107D01*
X62284629Y-115888717D01*
X62303508Y-115896376D01*
X62322388Y-115904034D01*
X62340409Y-115914814D01*
X62358429Y-115925595D01*
X62380069Y-115947158D01*
X62401711Y-115968722D01*
X62413311Y-115992295D01*
X62424910Y-116015869D01*
X62426711Y-116034199D01*
X62428511Y-116052529D01*
X62376865Y-116052529D01*
X62325219Y-116052529D01*
X62325219Y-116043519D01*
X62325219Y-116034509D01*
X62316919Y-116017775D01*
X62308620Y-116001040D01*
X62295101Y-115989914D01*
X62281581Y-115978787D01*
X62264041Y-115970721D01*
X62246501Y-115962657D01*
X62222121Y-115958851D01*
X62197739Y-115955046D01*
X62171375Y-115958790D01*
X62145006Y-115962535D01*
X62125527Y-115973237D01*
X62106047Y-115983940D01*
X62094327Y-115999424D01*
X62082607Y-116014909D01*
X62077147Y-116032322D01*
X62071688Y-116049739D01*
X62071288Y-116085678D01*
X62070888Y-116121617D01*
X62154084Y-116123597D01*
X62237279Y-116125578D01*
X62261280Y-116130532D01*
X62285280Y-116135487D01*
X62306078Y-116142495D01*
X62326877Y-116149504D01*
X62346077Y-116159564D01*
X62365277Y-116169624D01*
X62389531Y-116193834D01*
X62413787Y-116218043D01*
X62422226Y-116235717D01*
X62430666Y-116253392D01*
X62435565Y-116272546D01*
X62440465Y-116291700D01*
X62440465Y-116316575D01*
X62440465Y-116324073D01*
X62440465Y-116341450D01*
G37*
G36*
X58929493Y-115880802D02*
G01*
X58955391Y-115885737D01*
X58977045Y-115894592D01*
X58998697Y-115903447D01*
X59017897Y-115916551D01*
X59037097Y-115929655D01*
X59050417Y-115944174D01*
X59063736Y-115958693D01*
X59071877Y-115971661D01*
X59080017Y-115984629D01*
X59086858Y-116004966D01*
X59093698Y-116025303D01*
X59092499Y-116057438D01*
X59091300Y-116089575D01*
X59082820Y-116108007D01*
X59074341Y-116126440D01*
X59065581Y-116137976D01*
X59056821Y-116149511D01*
X59036881Y-116163807D01*
X59016941Y-116178103D01*
X58993453Y-116188963D01*
X58969965Y-116199821D01*
X58942765Y-116207855D01*
X58915567Y-116215889D01*
X58872370Y-116226129D01*
X58829172Y-116236369D01*
X58806183Y-116245935D01*
X58783194Y-116255500D01*
X58768836Y-116268202D01*
X58754477Y-116280903D01*
X58749097Y-116295071D01*
X58743717Y-116309239D01*
X58743317Y-116331364D01*
X58742917Y-116353488D01*
X58751877Y-116367118D01*
X58760837Y-116380749D01*
X58775876Y-116390338D01*
X58790915Y-116399926D01*
X58811713Y-116406419D01*
X58832514Y-116412912D01*
X58864740Y-116413151D01*
X58896967Y-116413391D01*
X58914347Y-116409335D01*
X58931726Y-116405279D01*
X58947406Y-116397528D01*
X58963086Y-116389776D01*
X58975566Y-116379840D01*
X58988047Y-116369903D01*
X58997426Y-116353431D01*
X59006806Y-116336959D01*
X59010306Y-116320088D01*
X59013806Y-116303216D01*
X59064974Y-116303216D01*
X59116141Y-116303216D01*
X59114061Y-116318479D01*
X59111982Y-116333746D01*
X59108782Y-116346600D01*
X59105582Y-116359454D01*
X59094062Y-116381561D01*
X59082541Y-116403668D01*
X59066361Y-116421492D01*
X59050180Y-116439315D01*
X59027178Y-116454422D01*
X59004175Y-116469528D01*
X58980779Y-116478048D01*
X58957383Y-116486569D01*
X58936583Y-116491224D01*
X58915406Y-116495951D01*
X58861008Y-116494871D01*
X58806613Y-116493791D01*
X58777899Y-116485102D01*
X58749189Y-116476414D01*
X58729947Y-116466166D01*
X58710706Y-116455918D01*
X58689029Y-116435415D01*
X58667347Y-116414910D01*
X58656226Y-116392031D01*
X58645105Y-116369152D01*
X58641544Y-116345382D01*
X58637982Y-116321614D01*
X58641544Y-116297180D01*
X58645105Y-116272746D01*
X58654724Y-116252954D01*
X58664344Y-116233161D01*
X58682984Y-116215997D01*
X58701624Y-116198832D01*
X58719965Y-116187852D01*
X58738306Y-116176872D01*
X58767667Y-116165751D01*
X58797031Y-116154631D01*
X58858768Y-116138938D01*
X58920507Y-116123246D01*
X58941965Y-116113481D01*
X58963423Y-116103715D01*
X58973763Y-116093661D01*
X58984102Y-116083607D01*
X58987783Y-116072419D01*
X58991463Y-116061232D01*
X58991342Y-116044020D01*
X58991222Y-116026809D01*
X58984282Y-116012405D01*
X58977343Y-115998001D01*
X58964283Y-115986770D01*
X58951223Y-115975540D01*
X58933362Y-115968499D01*
X58915502Y-115961459D01*
X58877101Y-115961357D01*
X58838703Y-115961254D01*
X58821103Y-115968417D01*
X58803504Y-115975579D01*
X58788843Y-115986418D01*
X58774182Y-115997256D01*
X58764203Y-116012387D01*
X58754224Y-116027517D01*
X58750345Y-116044885D01*
X58746466Y-116062252D01*
X58695780Y-116062252D01*
X58645090Y-116062252D01*
X58645090Y-116054809D01*
X58645090Y-116047364D01*
X58648529Y-116028297D01*
X58651969Y-116009230D01*
X58663089Y-115985850D01*
X58674210Y-115962471D01*
X58692530Y-115943669D01*
X58710849Y-115924867D01*
X58730451Y-115912149D01*
X58750052Y-115899430D01*
X58775348Y-115891035D01*
X58800644Y-115882640D01*
X58821274Y-115879278D01*
X58841901Y-115875917D01*
X58872748Y-115875892D01*
X58903594Y-115875868D01*
X58929493Y-115880802D01*
G37*
G36*
X65431359Y-117744256D02*
G01*
X65510596Y-117443154D01*
X65585355Y-117443154D01*
X65664247Y-117744256D01*
X65743485Y-117443154D01*
X65806874Y-117443154D01*
X65705933Y-117829007D01*
X65631174Y-117829007D01*
X65547803Y-117512747D01*
X65464777Y-117829007D01*
X65390018Y-117829007D01*
X65289077Y-117443154D01*
X65352466Y-117443154D01*
X65431359Y-117744256D01*
G37*
G36*
X62779021Y-117433931D02*
G01*
X62784482Y-117434169D01*
X62789851Y-117434566D01*
X62795129Y-117435122D01*
X62800316Y-117435836D01*
X62805410Y-117436709D01*
X62810414Y-117437742D01*
X62815326Y-117438933D01*
X62820146Y-117440282D01*
X62824875Y-117441791D01*
X62829513Y-117443458D01*
X62834058Y-117445284D01*
X62838513Y-117447270D01*
X62842875Y-117449413D01*
X62847147Y-117451716D01*
X62851326Y-117454177D01*
X62855424Y-117456806D01*
X62859449Y-117459609D01*
X62863402Y-117462587D01*
X62867282Y-117465740D01*
X62871089Y-117469068D01*
X62874823Y-117472571D01*
X62878485Y-117476249D01*
X62882074Y-117480102D01*
X62885590Y-117484130D01*
X62889034Y-117488333D01*
X62892405Y-117492710D01*
X62895704Y-117497263D01*
X62898929Y-117501991D01*
X62902082Y-117506893D01*
X62905162Y-117511971D01*
X62908170Y-117517224D01*
X62908177Y-117517222D01*
X62910004Y-117512216D01*
X62911951Y-117507361D01*
X62914020Y-117502656D01*
X62916210Y-117498102D01*
X62918520Y-117493699D01*
X62920952Y-117489446D01*
X62923505Y-117485344D01*
X62926179Y-117481393D01*
X62928974Y-117477593D01*
X62931891Y-117473944D01*
X62934928Y-117470445D01*
X62938087Y-117467097D01*
X62941366Y-117463899D01*
X62944767Y-117460853D01*
X62948289Y-117457957D01*
X62951932Y-117455212D01*
X62955642Y-117452626D01*
X62959452Y-117450206D01*
X62963361Y-117447953D01*
X62967370Y-117445867D01*
X62971479Y-117443948D01*
X62975687Y-117442196D01*
X62979995Y-117440611D01*
X62984402Y-117439193D01*
X62988909Y-117437941D01*
X62993516Y-117436856D01*
X62998222Y-117435939D01*
X63003027Y-117435188D01*
X63007933Y-117434604D01*
X63012937Y-117434186D01*
X63018042Y-117433936D01*
X63023246Y-117433853D01*
X63028412Y-117433919D01*
X63033489Y-117434116D01*
X63038477Y-117434446D01*
X63043377Y-117434908D01*
X63048188Y-117435501D01*
X63052910Y-117436226D01*
X63057543Y-117437083D01*
X63062088Y-117438072D01*
X63066544Y-117439193D01*
X63070911Y-117440446D01*
X63075189Y-117441831D01*
X63079378Y-117443347D01*
X63083478Y-117444995D01*
X63087490Y-117446776D01*
X63091413Y-117448688D01*
X63095247Y-117450732D01*
X63099003Y-117452915D01*
X63102692Y-117455243D01*
X63106313Y-117457717D01*
X63109867Y-117460336D01*
X63113353Y-117463100D01*
X63116773Y-117466010D01*
X63120125Y-117469065D01*
X63123410Y-117472265D01*
X63126628Y-117475611D01*
X63129778Y-117479102D01*
X63132861Y-117482738D01*
X63135877Y-117486519D01*
X63138825Y-117490446D01*
X63141707Y-117494518D01*
X63144521Y-117498736D01*
X63147267Y-117503099D01*
X63147267Y-117443153D01*
X63211003Y-117443153D01*
X63211003Y-117829005D01*
X63147267Y-117829005D01*
X63147267Y-117610929D01*
X63147156Y-117604002D01*
X63146821Y-117597257D01*
X63146262Y-117590695D01*
X63145480Y-117584317D01*
X63144475Y-117578121D01*
X63143247Y-117572108D01*
X63141795Y-117566278D01*
X63140119Y-117560632D01*
X63138221Y-117555168D01*
X63136098Y-117549887D01*
X63133753Y-117544789D01*
X63131184Y-117539875D01*
X63128392Y-117535143D01*
X63125376Y-117530594D01*
X63122137Y-117526228D01*
X63118674Y-117522045D01*
X63115022Y-117518041D01*
X63111213Y-117514294D01*
X63107249Y-117510806D01*
X63103128Y-117507577D01*
X63098851Y-117504605D01*
X63094418Y-117501893D01*
X63089830Y-117499438D01*
X63085084Y-117497242D01*
X63080183Y-117495304D01*
X63075126Y-117493624D01*
X63069913Y-117492203D01*
X63064543Y-117491041D01*
X63059018Y-117490136D01*
X63053336Y-117489490D01*
X63047498Y-117489103D01*
X63041504Y-117488974D01*
X63036463Y-117489079D01*
X63031589Y-117489393D01*
X63026882Y-117489918D01*
X63022342Y-117490653D01*
X63017968Y-117491598D01*
X63013761Y-117492752D01*
X63009722Y-117494117D01*
X63005849Y-117495691D01*
X63002142Y-117497476D01*
X62998603Y-117499470D01*
X62996896Y-117500546D01*
X62995231Y-117501675D01*
X62993607Y-117502856D01*
X62992025Y-117504089D01*
X62990485Y-117505375D01*
X62988986Y-117506713D01*
X62987529Y-117508104D01*
X62986114Y-117509547D01*
X62983409Y-117512592D01*
X62980870Y-117515846D01*
X62978492Y-117519276D01*
X62976267Y-117522935D01*
X62974196Y-117526823D01*
X62972278Y-117530940D01*
X62970513Y-117535285D01*
X62968902Y-117539859D01*
X62967445Y-117544662D01*
X62966140Y-117549694D01*
X62964990Y-117554955D01*
X62963992Y-117560444D01*
X62963149Y-117566162D01*
X62962458Y-117572109D01*
X62961921Y-117578284D01*
X62961538Y-117584689D01*
X62961307Y-117591322D01*
X62961231Y-117598184D01*
X62961231Y-117829005D01*
X62897496Y-117829005D01*
X62897496Y-117610929D01*
X62897385Y-117603960D01*
X62897050Y-117597176D01*
X62896491Y-117590578D01*
X62895709Y-117584165D01*
X62894704Y-117577939D01*
X62893475Y-117571898D01*
X62892023Y-117566042D01*
X62890347Y-117560373D01*
X62888448Y-117554889D01*
X62886326Y-117549591D01*
X62883980Y-117544478D01*
X62881411Y-117539552D01*
X62878618Y-117534811D01*
X62875602Y-117530256D01*
X62872363Y-117525886D01*
X62868900Y-117521702D01*
X62865245Y-117517739D01*
X62861428Y-117514032D01*
X62857450Y-117510580D01*
X62853311Y-117507384D01*
X62849010Y-117504443D01*
X62844548Y-117501758D01*
X62839924Y-117499329D01*
X62835138Y-117497156D01*
X62830192Y-117495238D01*
X62825083Y-117493576D01*
X62819813Y-117492170D01*
X62814382Y-117491019D01*
X62808789Y-117490124D01*
X62803035Y-117489485D01*
X62797119Y-117489101D01*
X62791042Y-117488974D01*
X62786084Y-117489079D01*
X62781288Y-117489393D01*
X62776654Y-117489918D01*
X62772181Y-117490653D01*
X62767869Y-117491598D01*
X62763719Y-117492752D01*
X62759730Y-117494117D01*
X62755903Y-117495691D01*
X62752237Y-117497476D01*
X62748732Y-117499470D01*
X62745389Y-117501675D01*
X62743778Y-117502856D01*
X62742208Y-117504089D01*
X62739188Y-117506713D01*
X62736329Y-117509547D01*
X62733632Y-117512592D01*
X62731096Y-117515846D01*
X62728718Y-117519317D01*
X62726493Y-117523011D01*
X62724422Y-117526928D01*
X62722504Y-117531069D01*
X62720739Y-117535434D01*
X62719128Y-117540021D01*
X62717670Y-117544832D01*
X62716366Y-117549867D01*
X62715216Y-117555125D01*
X62714218Y-117560606D01*
X62713374Y-117566310D01*
X62712684Y-117572238D01*
X62712147Y-117578390D01*
X62711763Y-117584764D01*
X62711533Y-117591362D01*
X62711457Y-117598184D01*
X62711457Y-117829007D01*
X62647722Y-117829007D01*
X62647722Y-117596116D01*
X62647850Y-117586524D01*
X62648234Y-117577211D01*
X62648873Y-117568179D01*
X62649768Y-117559426D01*
X62650918Y-117550953D01*
X62652325Y-117542761D01*
X62653987Y-117534848D01*
X62655905Y-117527215D01*
X62658078Y-117519862D01*
X62660507Y-117512789D01*
X62663192Y-117505995D01*
X62666132Y-117499482D01*
X62669328Y-117493249D01*
X62672780Y-117487295D01*
X62676488Y-117481622D01*
X62680451Y-117476228D01*
X62684649Y-117471096D01*
X62689063Y-117466296D01*
X62693693Y-117461826D01*
X62698537Y-117457688D01*
X62703597Y-117453881D01*
X62708873Y-117450404D01*
X62714363Y-117447259D01*
X62720069Y-117444445D01*
X62725990Y-117441962D01*
X62732127Y-117439810D01*
X62738479Y-117437989D01*
X62745046Y-117436500D01*
X62751829Y-117435341D01*
X62758827Y-117434513D01*
X62766040Y-117434017D01*
X62773468Y-117433851D01*
X62779021Y-117433931D01*
G37*
G36*
X60089524Y-115880867D02*
G01*
X60112554Y-115885977D01*
X60139218Y-115898761D01*
X60165883Y-115911546D01*
X60190749Y-115935405D01*
X60215616Y-115959263D01*
X60217676Y-115934698D01*
X60219736Y-115910134D01*
X60219736Y-115897764D01*
X60219736Y-115885394D01*
X60267733Y-115885394D01*
X60315732Y-115885394D01*
X60315732Y-116185862D01*
X60315909Y-116486338D01*
X60264711Y-116486338D01*
X60213515Y-116486338D01*
X60213515Y-116269928D01*
X60213515Y-116053517D01*
X60197734Y-116030961D01*
X60181954Y-116008406D01*
X60162514Y-115993724D01*
X60143074Y-115979042D01*
X60124694Y-115971627D01*
X60106313Y-115964213D01*
X60066315Y-115964175D01*
X60026313Y-115964135D01*
X60008693Y-115972435D01*
X59991074Y-115980734D01*
X59980175Y-115991694D01*
X59969254Y-116002655D01*
X59961954Y-116018742D01*
X59954654Y-116034829D01*
X59951314Y-116055717D01*
X59947974Y-116076605D01*
X59947953Y-116281469D01*
X59947928Y-116486334D01*
X59896517Y-116486334D01*
X59845105Y-116486334D01*
X59846305Y-116263795D01*
X59847504Y-116041256D01*
X59853044Y-116017155D01*
X59858585Y-115993054D01*
X59871285Y-115966499D01*
X59883985Y-115939944D01*
X59901285Y-115922847D01*
X59918586Y-115905749D01*
X59938771Y-115895823D01*
X59958959Y-115885897D01*
X59983623Y-115880827D01*
X60008287Y-115875756D01*
X60037392Y-115875756D01*
X60066492Y-115875756D01*
X60089524Y-115880867D01*
G37*
G36*
X66008412Y-117744256D02*
G01*
X66087650Y-117443154D01*
X66162409Y-117443154D01*
X66241301Y-117744256D01*
X66320539Y-117443154D01*
X66383928Y-117443154D01*
X66282988Y-117829007D01*
X66208229Y-117829007D01*
X66124858Y-117512747D01*
X66041831Y-117829007D01*
X65967072Y-117829007D01*
X65866130Y-117443154D01*
X65929520Y-117443154D01*
X66008412Y-117744256D01*
G37*
G36*
X64671715Y-117829007D02*
G01*
X64599024Y-117829007D01*
X64599024Y-117741500D01*
X64671715Y-117741500D01*
X64671715Y-117829007D01*
G37*
G36*
X61244876Y-117829005D02*
G01*
X61172185Y-117829005D01*
X61172185Y-117741499D01*
X61244876Y-117741499D01*
X61244876Y-117829005D01*
G37*
G36*
X60581321Y-115772920D02*
G01*
X60581321Y-115824337D01*
X60531725Y-115824337D01*
X60482125Y-115824337D01*
X60482125Y-115772920D01*
X60482125Y-115721502D01*
X60531725Y-115721502D01*
X60581321Y-115721502D01*
X60581321Y-115772920D01*
G37*
G36*
X61055325Y-117605719D02*
G01*
X61056320Y-117616795D01*
X61056918Y-117628177D01*
X61057117Y-117639866D01*
X61056907Y-117651173D01*
X61056277Y-117662184D01*
X61055228Y-117672898D01*
X61053758Y-117683317D01*
X61051868Y-117693439D01*
X61049559Y-117703266D01*
X61046830Y-117712796D01*
X61043681Y-117722031D01*
X61040112Y-117730969D01*
X61036123Y-117739612D01*
X61031714Y-117747958D01*
X61026886Y-117756008D01*
X61021637Y-117763763D01*
X61015969Y-117771221D01*
X61009881Y-117778383D01*
X61003373Y-117785249D01*
X60996462Y-117791757D01*
X60989253Y-117797845D01*
X60981745Y-117803513D01*
X60973939Y-117808762D01*
X60965834Y-117813591D01*
X60957429Y-117817999D01*
X60948727Y-117821988D01*
X60939725Y-117825557D01*
X60930425Y-117828706D01*
X60920826Y-117831435D01*
X60910928Y-117833745D01*
X60900731Y-117835634D01*
X60890236Y-117837104D01*
X60879441Y-117838154D01*
X60868348Y-117838783D01*
X60856957Y-117838993D01*
X60847758Y-117838875D01*
X60838591Y-117838520D01*
X60829456Y-117837927D01*
X60820354Y-117837098D01*
X60811283Y-117836032D01*
X60802245Y-117834729D01*
X60793239Y-117833190D01*
X60784265Y-117831413D01*
X60775336Y-117829409D01*
X60766459Y-117827190D01*
X60757637Y-117824756D01*
X60748868Y-117822107D01*
X60740153Y-117819244D01*
X60731491Y-117816166D01*
X60722884Y-117812873D01*
X60714330Y-117809365D01*
X60714330Y-117749420D01*
X60722781Y-117753758D01*
X60731254Y-117757816D01*
X60739749Y-117761595D01*
X60748265Y-117765094D01*
X60756802Y-117768313D01*
X60765362Y-117771252D01*
X60773942Y-117773912D01*
X60782544Y-117776292D01*
X60791108Y-117778392D01*
X60799748Y-117780212D01*
X60808463Y-117781752D01*
X60817253Y-117783012D01*
X60826119Y-117783992D01*
X60835060Y-117784692D01*
X60844076Y-117785112D01*
X60853168Y-117785252D01*
X60860941Y-117785119D01*
X60868499Y-117784719D01*
X60875841Y-117784053D01*
X60882968Y-117783120D01*
X60889880Y-117781921D01*
X60896577Y-117780456D01*
X60903058Y-117778724D01*
X60909324Y-117776725D01*
X60915374Y-117774460D01*
X60921210Y-117771929D01*
X60926829Y-117769131D01*
X60932234Y-117766067D01*
X60937423Y-117762736D01*
X60942397Y-117759139D01*
X60947155Y-117755276D01*
X60951699Y-117751146D01*
X60955969Y-117746718D01*
X60959998Y-117742048D01*
X60963785Y-117737136D01*
X60967329Y-117731981D01*
X60970631Y-117726585D01*
X60973691Y-117720946D01*
X60976509Y-117715065D01*
X60979085Y-117708942D01*
X60981418Y-117702576D01*
X60983510Y-117695969D01*
X60985359Y-117689119D01*
X60986966Y-117682027D01*
X60988331Y-117674693D01*
X60989454Y-117667117D01*
X60990335Y-117659298D01*
X60990973Y-117651237D01*
X60699517Y-117651237D01*
X60699517Y-117620231D01*
X60699515Y-117620228D01*
X60699693Y-117609603D01*
X60700104Y-117601631D01*
X60762906Y-117601631D01*
X60988907Y-117601976D01*
X60988199Y-117595267D01*
X60987281Y-117588749D01*
X60986153Y-117582423D01*
X60984815Y-117576287D01*
X60983268Y-117570343D01*
X60981510Y-117564590D01*
X60979542Y-117559028D01*
X60977365Y-117553657D01*
X60974977Y-117548477D01*
X60972380Y-117543489D01*
X60969572Y-117538691D01*
X60966555Y-117534085D01*
X60963328Y-117529669D01*
X60959891Y-117525445D01*
X60956244Y-117521412D01*
X60952387Y-117517570D01*
X60948300Y-117513941D01*
X60944049Y-117510545D01*
X60939633Y-117507384D01*
X60935054Y-117504457D01*
X60930310Y-117501765D01*
X60925402Y-117499306D01*
X60920330Y-117497082D01*
X60915094Y-117495091D01*
X60909694Y-117493335D01*
X60904129Y-117491813D01*
X60898401Y-117490526D01*
X60892508Y-117489472D01*
X60886451Y-117488652D01*
X60880229Y-117488067D01*
X60873844Y-117487716D01*
X60867295Y-117487599D01*
X60861511Y-117487720D01*
X60855872Y-117488083D01*
X60850378Y-117488689D01*
X60845030Y-117489537D01*
X60839828Y-117490627D01*
X60834770Y-117491959D01*
X60829858Y-117493533D01*
X60825092Y-117495350D01*
X60820471Y-117497409D01*
X60815995Y-117499710D01*
X60811664Y-117502254D01*
X60807479Y-117505039D01*
X60803439Y-117508067D01*
X60799544Y-117511337D01*
X60795795Y-117514850D01*
X60792191Y-117518605D01*
X60788738Y-117522563D01*
X60785502Y-117526685D01*
X60782482Y-117530971D01*
X60779679Y-117535421D01*
X60777091Y-117540036D01*
X60774720Y-117544814D01*
X60772566Y-117549757D01*
X60770627Y-117554864D01*
X60768905Y-117560135D01*
X60767399Y-117565571D01*
X60766109Y-117571170D01*
X60765036Y-117576934D01*
X60764179Y-117582862D01*
X60763539Y-117588954D01*
X60763114Y-117595210D01*
X60762906Y-117601631D01*
X60700104Y-117601631D01*
X60700226Y-117599261D01*
X60701114Y-117589202D01*
X60702357Y-117579425D01*
X60703956Y-117569931D01*
X60705910Y-117560719D01*
X60708219Y-117551790D01*
X60710884Y-117543143D01*
X60713904Y-117534779D01*
X60717279Y-117526698D01*
X60721009Y-117518899D01*
X60725095Y-117511383D01*
X60729536Y-117504150D01*
X60734332Y-117497199D01*
X60739484Y-117490531D01*
X60744991Y-117484146D01*
X60750760Y-117478055D01*
X60756785Y-117472357D01*
X60763066Y-117467053D01*
X60769602Y-117462141D01*
X60776394Y-117457622D01*
X60783442Y-117453496D01*
X60790745Y-117449763D01*
X60798304Y-117446423D01*
X60806119Y-117443476D01*
X60814189Y-117440921D01*
X60822515Y-117438760D01*
X60831097Y-117436992D01*
X60839935Y-117435616D01*
X60849028Y-117434634D01*
X60858377Y-117434045D01*
X60867981Y-117433848D01*
X60878695Y-117434066D01*
X60889131Y-117434720D01*
X60899290Y-117435810D01*
X60909172Y-117437336D01*
X60918777Y-117439298D01*
X60928104Y-117441697D01*
X60937154Y-117444531D01*
X60945927Y-117447801D01*
X60954423Y-117451507D01*
X60962641Y-117455650D01*
X60970582Y-117460228D01*
X60978246Y-117465242D01*
X60985633Y-117470693D01*
X60992742Y-117476579D01*
X60999575Y-117482902D01*
X61006130Y-117489660D01*
X61012304Y-117496747D01*
X61018080Y-117504140D01*
X61023458Y-117511840D01*
X61028437Y-117519847D01*
X61033018Y-117528161D01*
X61037200Y-117536782D01*
X61040985Y-117545710D01*
X61044370Y-117554944D01*
X61047358Y-117564485D01*
X61049947Y-117574334D01*
X61052138Y-117584489D01*
X61053930Y-117594950D01*
X61054840Y-117601976D01*
X61055325Y-117605719D01*
G37*
G36*
X62751512Y-115722305D02*
G01*
X62768912Y-115764885D01*
X62882270Y-116050042D01*
X62995627Y-116335200D01*
X62997228Y-116335200D01*
X62998828Y-116335200D01*
X63105794Y-116066110D01*
X63212760Y-115797020D01*
X63236566Y-115738372D01*
X63260372Y-115679725D01*
X63330391Y-115679725D01*
X63400411Y-115679725D01*
X63400411Y-116083027D01*
X63400396Y-116486323D01*
X63347597Y-116486323D01*
X63294799Y-116486323D01*
X63294916Y-116295919D01*
X63295037Y-116105516D01*
X63299416Y-115972152D01*
X63303795Y-115838789D01*
X63302996Y-115837909D01*
X63302196Y-115837028D01*
X63219419Y-116041966D01*
X63136641Y-116246904D01*
X63088538Y-116365805D01*
X63040435Y-116484707D01*
X62998879Y-116484707D01*
X62957323Y-116484707D01*
X62826377Y-116160945D01*
X62695430Y-115837182D01*
X62694231Y-115838362D01*
X62693032Y-115839541D01*
X62697931Y-116004667D01*
X62702831Y-116169793D01*
X62702835Y-116328060D01*
X62702840Y-116486329D01*
X62650042Y-116486329D01*
X62597243Y-116486329D01*
X62597243Y-116083027D01*
X62597243Y-115679725D01*
X62665677Y-115679725D01*
X62734113Y-115679725D01*
X62751512Y-115722305D01*
G37*
G36*
X66424552Y-115880296D02*
G01*
X66448622Y-115884608D01*
X66470951Y-115893466D01*
X66493279Y-115902323D01*
X66514502Y-115916351D01*
X66535726Y-115930378D01*
X66547557Y-115943530D01*
X66559389Y-115956681D01*
X66568846Y-115971652D01*
X66578304Y-115986622D01*
X66584587Y-116007046D01*
X66590871Y-116027470D01*
X66590833Y-116050430D01*
X66590795Y-116073390D01*
X66586310Y-116090306D01*
X66581826Y-116107222D01*
X66573856Y-116120880D01*
X66565886Y-116134538D01*
X66548780Y-116150770D01*
X66531673Y-116167002D01*
X66510874Y-116178620D01*
X66490074Y-116190239D01*
X66472475Y-116197224D01*
X66454875Y-116204209D01*
X66386208Y-116221562D01*
X66317540Y-116238914D01*
X66296613Y-116248725D01*
X66275682Y-116258540D01*
X66265003Y-116268800D01*
X66254323Y-116279060D01*
X66248583Y-116290307D01*
X66242842Y-116301554D01*
X66240302Y-116316017D01*
X66237761Y-116330479D01*
X66238561Y-116340078D01*
X66239360Y-116349678D01*
X66245140Y-116360969D01*
X66250920Y-116372261D01*
X66260021Y-116380757D01*
X66269121Y-116389253D01*
X66285121Y-116397197D01*
X66301122Y-116405140D01*
X66318662Y-116409292D01*
X66336202Y-116413444D01*
X66368256Y-116413205D01*
X66400310Y-116412965D01*
X66420191Y-116406677D01*
X66440071Y-116400389D01*
X66454212Y-116392060D01*
X66468352Y-116383732D01*
X66482833Y-116367564D01*
X66497309Y-116351394D01*
X66502402Y-116336380D01*
X66507495Y-116321365D01*
X66507495Y-116312297D01*
X66507495Y-116303228D01*
X66558693Y-116303228D01*
X66609891Y-116303228D01*
X66609891Y-116315406D01*
X66609891Y-116327584D01*
X66604927Y-116346722D01*
X66599964Y-116365860D01*
X66588597Y-116386270D01*
X66577231Y-116406678D01*
X66557561Y-116426712D01*
X66537891Y-116446745D01*
X66515491Y-116459959D01*
X66493091Y-116473173D01*
X66468567Y-116481381D01*
X66444045Y-116489589D01*
X66426964Y-116492445D01*
X66410007Y-116495178D01*
X66366806Y-116495538D01*
X66323609Y-116495898D01*
X66293210Y-116489634D01*
X66262810Y-116483371D01*
X66233802Y-116468946D01*
X66204792Y-116454521D01*
X66187151Y-116437495D01*
X66169510Y-116420471D01*
X66160630Y-116406350D01*
X66151749Y-116392230D01*
X66145529Y-116374214D01*
X66139310Y-116356198D01*
X66137509Y-116330490D01*
X66135709Y-116304779D01*
X66140828Y-116284742D01*
X66145948Y-116264708D01*
X66153768Y-116249195D01*
X66161588Y-116233683D01*
X66181938Y-116214566D01*
X66202289Y-116195448D01*
X66224590Y-116183703D01*
X66246888Y-116171958D01*
X66264487Y-116165124D01*
X66282086Y-116158290D01*
X66347684Y-116141052D01*
X66413280Y-116123814D01*
X66431340Y-116116983D01*
X66449401Y-116110151D01*
X66462461Y-116100657D01*
X66475501Y-116091163D01*
X66481981Y-116078393D01*
X66488469Y-116065623D01*
X66488469Y-116046789D01*
X66488469Y-116027955D01*
X66479669Y-116010530D01*
X66470870Y-115993104D01*
X66457129Y-115982721D01*
X66443389Y-115972337D01*
X66426729Y-115967218D01*
X66410070Y-115962098D01*
X66385425Y-115960258D01*
X66360781Y-115958418D01*
X66340732Y-115962381D01*
X66320687Y-115966343D01*
X66305266Y-115974191D01*
X66289846Y-115982038D01*
X66277765Y-115993002D01*
X66265685Y-116003965D01*
X66257225Y-116019586D01*
X66248766Y-116035206D01*
X66246627Y-116048680D01*
X66244487Y-116062153D01*
X66193697Y-116062153D01*
X66142910Y-116062153D01*
X66142910Y-116049974D01*
X66142910Y-116037794D01*
X66147809Y-116018640D01*
X66152709Y-115999485D01*
X66161409Y-115981811D01*
X66170110Y-115964137D01*
X66192617Y-115941642D01*
X66215123Y-115919148D01*
X66232823Y-115908667D01*
X66250524Y-115898185D01*
X66269504Y-115891433D01*
X66288485Y-115884681D01*
X66312485Y-115880333D01*
X66336483Y-115875984D01*
X66368483Y-115875984D01*
X66400481Y-115875984D01*
X66424552Y-115880296D01*
G37*
G36*
X59275772Y-109237336D02*
G01*
X59275785Y-109543428D01*
X59293364Y-110693883D01*
X59310944Y-111844339D01*
X59310959Y-112977923D01*
X59310958Y-114111515D01*
X58989371Y-114111515D01*
X58667783Y-114111515D01*
X58667783Y-111521385D01*
X58667783Y-108931243D01*
X58971770Y-108931243D01*
X59275759Y-108931243D01*
X59275772Y-109237336D01*
G37*
G36*
X61617701Y-115880279D02*
G01*
X61647582Y-115885525D01*
X61670946Y-115894638D01*
X61694313Y-115903750D01*
X61716912Y-115918838D01*
X61739511Y-115933926D01*
X61758211Y-115954420D01*
X61776911Y-115974914D01*
X61792011Y-116001673D01*
X61807111Y-116028433D01*
X61816371Y-116057354D01*
X61825632Y-116086276D01*
X61829493Y-116112822D01*
X61833353Y-116139367D01*
X61831752Y-116202801D01*
X61830152Y-116266236D01*
X61821712Y-116298371D01*
X61813272Y-116330508D01*
X61798952Y-116359430D01*
X61784632Y-116388353D01*
X61768491Y-116408357D01*
X61752330Y-116428361D01*
X61733150Y-116443939D01*
X61713970Y-116459516D01*
X61690708Y-116471072D01*
X61667446Y-116482627D01*
X61646762Y-116488040D01*
X61626079Y-116493452D01*
X61605280Y-116496116D01*
X61584825Y-116498776D01*
X61556917Y-116497296D01*
X61529006Y-116495816D01*
X61504303Y-116489468D01*
X61479601Y-116483120D01*
X61457016Y-116471876D01*
X61434432Y-116460632D01*
X61412972Y-116444442D01*
X61391513Y-116428250D01*
X61376993Y-116409922D01*
X61362473Y-116391595D01*
X61351332Y-116370376D01*
X61340192Y-116349157D01*
X61335372Y-116328601D01*
X61330551Y-116308044D01*
X61330504Y-116302420D01*
X61330458Y-116296795D01*
X61378394Y-116296795D01*
X61426332Y-116296795D01*
X61428133Y-116305632D01*
X61429933Y-116314468D01*
X61434934Y-116328930D01*
X61439934Y-116343393D01*
X61448174Y-116354637D01*
X61456414Y-116365881D01*
X61466153Y-116375169D01*
X61475893Y-116384457D01*
X61488353Y-116392376D01*
X61500814Y-116400285D01*
X61518294Y-116406321D01*
X61535775Y-116412358D01*
X61555675Y-116414398D01*
X61575576Y-116416450D01*
X61598760Y-116412526D01*
X61621945Y-116408601D01*
X61643322Y-116397850D01*
X61664699Y-116387098D01*
X61676499Y-116374879D01*
X61688298Y-116362657D01*
X61699799Y-116343377D01*
X61711299Y-116324095D01*
X61718860Y-116299993D01*
X61726421Y-116275892D01*
X61729941Y-116246971D01*
X61733461Y-116218049D01*
X61733469Y-116189042D01*
X61733480Y-116160035D01*
X61730159Y-116132804D01*
X61726839Y-116105574D01*
X61722039Y-116086393D01*
X61717238Y-116067213D01*
X61706238Y-116044264D01*
X61695238Y-116021316D01*
X61677799Y-116003517D01*
X61660360Y-115985717D01*
X61640108Y-115975775D01*
X61619858Y-115965832D01*
X61595076Y-115962020D01*
X61570295Y-115958209D01*
X61547469Y-115961756D01*
X61524645Y-115965304D01*
X61504904Y-115975064D01*
X61485164Y-115984823D01*
X61469844Y-115999983D01*
X61454525Y-116015142D01*
X61445244Y-116031433D01*
X61435964Y-116047723D01*
X61430783Y-116071022D01*
X61425603Y-116094320D01*
X61377558Y-116094320D01*
X61329512Y-116094320D01*
X61331752Y-116076236D01*
X61333992Y-116058154D01*
X61338633Y-116040084D01*
X61343273Y-116022015D01*
X61352292Y-116002732D01*
X61361312Y-115983450D01*
X61374492Y-115965776D01*
X61387673Y-115948101D01*
X61407747Y-115931013D01*
X61427823Y-115913925D01*
X61453421Y-115901420D01*
X61479021Y-115888916D01*
X61499820Y-115883874D01*
X61520618Y-115878833D01*
X61554216Y-115876933D01*
X61587816Y-115875033D01*
X61617701Y-115880279D01*
G37*
G36*
X60342263Y-117661920D02*
G01*
X60342380Y-117668889D01*
X60342731Y-117675673D01*
X60343316Y-117682271D01*
X60344136Y-117688684D01*
X60345189Y-117694910D01*
X60346477Y-117700951D01*
X60347999Y-117706807D01*
X60349755Y-117712476D01*
X60351745Y-117717960D01*
X60353970Y-117723258D01*
X60356428Y-117728371D01*
X60359121Y-117733297D01*
X60362048Y-117738038D01*
X60365209Y-117742594D01*
X60368604Y-117746963D01*
X60372234Y-117751147D01*
X60376022Y-117755110D01*
X60379980Y-117758818D01*
X60384108Y-117762269D01*
X60388405Y-117765466D01*
X60392871Y-117768406D01*
X60397507Y-117771091D01*
X60402313Y-117773520D01*
X60407288Y-117775693D01*
X60412433Y-117777611D01*
X60417747Y-117779273D01*
X60423231Y-117780679D01*
X60428885Y-117781830D01*
X60434708Y-117782725D01*
X60440700Y-117783364D01*
X60446862Y-117783748D01*
X60453194Y-117783876D01*
X60458451Y-117783769D01*
X60463540Y-117783450D01*
X60468463Y-117782919D01*
X60473219Y-117782175D01*
X60477808Y-117781218D01*
X60482230Y-117780049D01*
X60486486Y-117778667D01*
X60490574Y-117777072D01*
X60494495Y-117775265D01*
X60498250Y-117773245D01*
X60501838Y-117771012D01*
X60505259Y-117768567D01*
X60508513Y-117765909D01*
X60511600Y-117763039D01*
X60514520Y-117759956D01*
X60517273Y-117756660D01*
X60519859Y-117753109D01*
X60522279Y-117749345D01*
X60524531Y-117745368D01*
X60526617Y-117741179D01*
X60528536Y-117736777D01*
X60530288Y-117732163D01*
X60531873Y-117727336D01*
X60533291Y-117722296D01*
X60534543Y-117717043D01*
X60535627Y-117711578D01*
X60536545Y-117705900D01*
X60537296Y-117700010D01*
X60537880Y-117693907D01*
X60538297Y-117687591D01*
X60538548Y-117681063D01*
X60538631Y-117674322D01*
X60538631Y-117443156D01*
X60602021Y-117443156D01*
X60602021Y-117676735D01*
X60602022Y-117676731D01*
X60601888Y-117686530D01*
X60601484Y-117696029D01*
X60600811Y-117705230D01*
X60599869Y-117714132D01*
X60598658Y-117722735D01*
X60597177Y-117731039D01*
X60595428Y-117739045D01*
X60593409Y-117746752D01*
X60591122Y-117754160D01*
X60588565Y-117761270D01*
X60585739Y-117768080D01*
X60582644Y-117774592D01*
X60579280Y-117780806D01*
X60575646Y-117786720D01*
X60571744Y-117792336D01*
X60567572Y-117797653D01*
X60563141Y-117802659D01*
X60558459Y-117807342D01*
X60553527Y-117811703D01*
X60548344Y-117815740D01*
X60542911Y-117819455D01*
X60537228Y-117822846D01*
X60531295Y-117825914D01*
X60525111Y-117828660D01*
X60518677Y-117831082D01*
X60511993Y-117833181D01*
X60505058Y-117834958D01*
X60497874Y-117836411D01*
X60490438Y-117837542D01*
X60482753Y-117838349D01*
X60474817Y-117838833D01*
X60466631Y-117838995D01*
X60461631Y-117838929D01*
X60456710Y-117838731D01*
X60451867Y-117838402D01*
X60447101Y-117837940D01*
X60442414Y-117837347D01*
X60437805Y-117836621D01*
X60433274Y-117835764D01*
X60428821Y-117834775D01*
X60424446Y-117833654D01*
X60420149Y-117832402D01*
X60415930Y-117831017D01*
X60411789Y-117829501D01*
X60407727Y-117827852D01*
X60403742Y-117826072D01*
X60399836Y-117824160D01*
X60396007Y-117822116D01*
X60392204Y-117819893D01*
X60388460Y-117817530D01*
X60384775Y-117815027D01*
X60381149Y-117812384D01*
X60377583Y-117809601D01*
X60374076Y-117806679D01*
X60370628Y-117803616D01*
X60367240Y-117800413D01*
X60363910Y-117797070D01*
X60360640Y-117793588D01*
X60357429Y-117789965D01*
X60354277Y-117786202D01*
X60351185Y-117782300D01*
X60348152Y-117778257D01*
X60345178Y-117774075D01*
X60342263Y-117769752D01*
X60342263Y-117829008D01*
X60278873Y-117829008D01*
X60278873Y-117443156D01*
X60342263Y-117443156D01*
X60342263Y-117661920D01*
G37*
G36*
X64466964Y-115880618D02*
G01*
X64494390Y-115885420D01*
X64515355Y-115893061D01*
X64536319Y-115900703D01*
X64554740Y-115911555D01*
X64573160Y-115922407D01*
X64599041Y-115948115D01*
X64624918Y-115973823D01*
X64637798Y-115996318D01*
X64650678Y-116018812D01*
X64659517Y-116041265D01*
X64668357Y-116063719D01*
X64674176Y-116092269D01*
X64679996Y-116120820D01*
X64682096Y-116158189D01*
X64684195Y-116195558D01*
X64680655Y-116232948D01*
X64677115Y-116270338D01*
X64669335Y-116301115D01*
X64661554Y-116331892D01*
X64647855Y-116359652D01*
X64634156Y-116387413D01*
X64616335Y-116408731D01*
X64598514Y-116430050D01*
X64579435Y-116445571D01*
X64560355Y-116461091D01*
X64537957Y-116471904D01*
X64515557Y-116482704D01*
X64494847Y-116488032D01*
X64474137Y-116493360D01*
X64454857Y-116496109D01*
X64435700Y-116498838D01*
X64407065Y-116497418D01*
X64378429Y-116495997D01*
X64357466Y-116490921D01*
X64336502Y-116485844D01*
X64303031Y-116469657D01*
X64269559Y-116453474D01*
X64240549Y-116424136D01*
X64211539Y-116394798D01*
X64199559Y-116370697D01*
X64187580Y-116346595D01*
X64182959Y-116324139D01*
X64178339Y-116301683D01*
X64180860Y-116299142D01*
X64183380Y-116296601D01*
X64229166Y-116297502D01*
X64274951Y-116298402D01*
X64279431Y-116315998D01*
X64283911Y-116333595D01*
X64291512Y-116346637D01*
X64299132Y-116359678D01*
X64315493Y-116375041D01*
X64331853Y-116390403D01*
X64351773Y-116399775D01*
X64371694Y-116409135D01*
X64388913Y-116412411D01*
X64406133Y-116415687D01*
X64419294Y-116415631D01*
X64432454Y-116415576D01*
X64454485Y-116410884D01*
X64476514Y-116406192D01*
X64491274Y-116399075D01*
X64506053Y-116391958D01*
X64525513Y-116372485D01*
X64544992Y-116353012D01*
X64555213Y-116331468D01*
X64565433Y-116309924D01*
X64572254Y-116284872D01*
X64579074Y-116259819D01*
X64579274Y-116190727D01*
X64579474Y-116121635D01*
X64572394Y-116093591D01*
X64565314Y-116065547D01*
X64553734Y-116042474D01*
X64542174Y-116019401D01*
X64524935Y-116002098D01*
X64507695Y-115984794D01*
X64487381Y-115975248D01*
X64467069Y-115965702D01*
X64441335Y-115961937D01*
X64415602Y-115958171D01*
X64392664Y-115962289D01*
X64369728Y-115966404D01*
X64351068Y-115975769D01*
X64332408Y-115985130D01*
X64316309Y-116002233D01*
X64300209Y-116019337D01*
X64291590Y-116036431D01*
X64282970Y-116053526D01*
X64278990Y-116073121D01*
X64275011Y-116092720D01*
X64229142Y-116093620D01*
X64183272Y-116094520D01*
X64180953Y-116092018D01*
X64178633Y-116089515D01*
X64181534Y-116068628D01*
X64184435Y-116047740D01*
X64191194Y-116026852D01*
X64197954Y-116005964D01*
X64207674Y-115988610D01*
X64217394Y-115971257D01*
X64237770Y-115949565D01*
X64258144Y-115927873D01*
X64278064Y-115914851D01*
X64297985Y-115901829D01*
X64320383Y-115893299D01*
X64342781Y-115884770D01*
X64366782Y-115880406D01*
X64390779Y-115876042D01*
X64415160Y-115875929D01*
X64439540Y-115875816D01*
X64466964Y-115880618D01*
G37*
G36*
X64026450Y-117829007D02*
G01*
X63962715Y-117829007D01*
X63962715Y-117771128D01*
X63960177Y-117775366D01*
X63957559Y-117779467D01*
X63954859Y-117783431D01*
X63952079Y-117787257D01*
X63949218Y-117790945D01*
X63946276Y-117794497D01*
X63943253Y-117797911D01*
X63940150Y-117801188D01*
X63936966Y-117804327D01*
X63933701Y-117807330D01*
X63930356Y-117810195D01*
X63926930Y-117812922D01*
X63923423Y-117815513D01*
X63919835Y-117817966D01*
X63916167Y-117820282D01*
X63912418Y-117822461D01*
X63908539Y-117824464D01*
X63904569Y-117826337D01*
X63900508Y-117828082D01*
X63896354Y-117829697D01*
X63892110Y-117831183D01*
X63887774Y-117832540D01*
X63883346Y-117833768D01*
X63878827Y-117834866D01*
X63874217Y-117835835D01*
X63869515Y-117836675D01*
X63864721Y-117837386D01*
X63859836Y-117837967D01*
X63854860Y-117838420D01*
X63849792Y-117838743D01*
X63844633Y-117838936D01*
X63839382Y-117839001D01*
X63830700Y-117838783D01*
X63822226Y-117838129D01*
X63813958Y-117837039D01*
X63805899Y-117835513D01*
X63798046Y-117833551D01*
X63790401Y-117831153D01*
X63782963Y-117828319D01*
X63775732Y-117825048D01*
X63768709Y-117821342D01*
X63761892Y-117817200D01*
X63755283Y-117812622D01*
X63748882Y-117807608D01*
X63742688Y-117802157D01*
X63736700Y-117796271D01*
X63730921Y-117789949D01*
X63725348Y-117783190D01*
X63720008Y-117776077D01*
X63715013Y-117768688D01*
X63710362Y-117761026D01*
X63706055Y-117753088D01*
X63702093Y-117744876D01*
X63698476Y-117736390D01*
X63695203Y-117727629D01*
X63692275Y-117718594D01*
X63689691Y-117709284D01*
X63687451Y-117699700D01*
X63685557Y-117689841D01*
X63684006Y-117679707D01*
X63682801Y-117669299D01*
X63681939Y-117658617D01*
X63681423Y-117647660D01*
X63681250Y-117636428D01*
X63681250Y-117636427D01*
X63747051Y-117636427D01*
X63747164Y-117645052D01*
X63747503Y-117653442D01*
X63748068Y-117661599D01*
X63748860Y-117669521D01*
X63749877Y-117677209D01*
X63751120Y-117684663D01*
X63752590Y-117691883D01*
X63754286Y-117698868D01*
X63756208Y-117705620D01*
X63758355Y-117712137D01*
X63760729Y-117718420D01*
X63763329Y-117724469D01*
X63766156Y-117730283D01*
X63769208Y-117735864D01*
X63772486Y-117741210D01*
X63775991Y-117746322D01*
X63779650Y-117751120D01*
X63783478Y-117755608D01*
X63787477Y-117759787D01*
X63791644Y-117763656D01*
X63795982Y-117767215D01*
X63800489Y-117770465D01*
X63805165Y-117773406D01*
X63810011Y-117776037D01*
X63815027Y-117778358D01*
X63820212Y-117780370D01*
X63825567Y-117782073D01*
X63831091Y-117783465D01*
X63836785Y-117784549D01*
X63842648Y-117785323D01*
X63848681Y-117785787D01*
X63854883Y-117785942D01*
X63861087Y-117785787D01*
X63867124Y-117785323D01*
X63872994Y-117784549D01*
X63878697Y-117783465D01*
X63884233Y-117782073D01*
X63889603Y-117780370D01*
X63894805Y-117778358D01*
X63899841Y-117776037D01*
X63904710Y-117773406D01*
X63909412Y-117770465D01*
X63913947Y-117767215D01*
X63918316Y-117763656D01*
X63922517Y-117759787D01*
X63926552Y-117755608D01*
X63930420Y-117751120D01*
X63934120Y-117746322D01*
X63937583Y-117741210D01*
X63940822Y-117735864D01*
X63943838Y-117730283D01*
X63946630Y-117724469D01*
X63949199Y-117718420D01*
X63951545Y-117712137D01*
X63953667Y-117705620D01*
X63955566Y-117698868D01*
X63957241Y-117691883D01*
X63958693Y-117684663D01*
X63959922Y-117677209D01*
X63960927Y-117669521D01*
X63961709Y-117661599D01*
X63962267Y-117653442D01*
X63962602Y-117645052D01*
X63962714Y-117636427D01*
X63962602Y-117627803D01*
X63962267Y-117619416D01*
X63961709Y-117611266D01*
X63960927Y-117603352D01*
X63959922Y-117595676D01*
X63958693Y-117588236D01*
X63957241Y-117581034D01*
X63955566Y-117574068D01*
X63953667Y-117567339D01*
X63951545Y-117560847D01*
X63949199Y-117554592D01*
X63946630Y-117548574D01*
X63943838Y-117542793D01*
X63940822Y-117537248D01*
X63937583Y-117531941D01*
X63934120Y-117526870D01*
X63930420Y-117522031D01*
X63926552Y-117517504D01*
X63922517Y-117513289D01*
X63918316Y-117509386D01*
X63913947Y-117505795D01*
X63909412Y-117502517D01*
X63904710Y-117499551D01*
X63899841Y-117496897D01*
X63894805Y-117494555D01*
X63889603Y-117492526D01*
X63884233Y-117490809D01*
X63878697Y-117489404D01*
X63872994Y-117488311D01*
X63867124Y-117487530D01*
X63861087Y-117487062D01*
X63854883Y-117486906D01*
X63848681Y-117487062D01*
X63842648Y-117487530D01*
X63836784Y-117488311D01*
X63831090Y-117489404D01*
X63825566Y-117490809D01*
X63820211Y-117492526D01*
X63815026Y-117494555D01*
X63810011Y-117496897D01*
X63805165Y-117499551D01*
X63800488Y-117502517D01*
X63795981Y-117505795D01*
X63791644Y-117509386D01*
X63787476Y-117513289D01*
X63783478Y-117517504D01*
X63779650Y-117522031D01*
X63775991Y-117526870D01*
X63772486Y-117531941D01*
X63769208Y-117537248D01*
X63766156Y-117542793D01*
X63763329Y-117548574D01*
X63760729Y-117554592D01*
X63758355Y-117560847D01*
X63756208Y-117567339D01*
X63754286Y-117574068D01*
X63752590Y-117581034D01*
X63751120Y-117588236D01*
X63749877Y-117595676D01*
X63748860Y-117603352D01*
X63748068Y-117611266D01*
X63747503Y-117619416D01*
X63747164Y-117627803D01*
X63747051Y-117636427D01*
X63681250Y-117636427D01*
X63681423Y-117625197D01*
X63681939Y-117614240D01*
X63682801Y-117603557D01*
X63684006Y-117593149D01*
X63685557Y-117583016D01*
X63687451Y-117573157D01*
X63689691Y-117563573D01*
X63692275Y-117554263D01*
X63695203Y-117545228D01*
X63698476Y-117536467D01*
X63702093Y-117527981D01*
X63706055Y-117519769D01*
X63710362Y-117511832D01*
X63715013Y-117504170D01*
X63720008Y-117496781D01*
X63725348Y-117489668D01*
X63730921Y-117482909D01*
X63736700Y-117476587D01*
X63742688Y-117470700D01*
X63748882Y-117465250D01*
X63755283Y-117460235D01*
X63761892Y-117455657D01*
X63768709Y-117451515D01*
X63775732Y-117447809D01*
X63782963Y-117444538D01*
X63790401Y-117441704D01*
X63798046Y-117439306D01*
X63805899Y-117437344D01*
X63813958Y-117435818D01*
X63822226Y-117434728D01*
X63830700Y-117434074D01*
X63839382Y-117433856D01*
X63844633Y-117433922D01*
X63849792Y-117434119D01*
X63854860Y-117434449D01*
X63859836Y-117434911D01*
X63864721Y-117435504D01*
X63869515Y-117436229D01*
X63874217Y-117437086D01*
X63878827Y-117438075D01*
X63883346Y-117439196D01*
X63887774Y-117440449D01*
X63892110Y-117441834D01*
X63896354Y-117443350D01*
X63900508Y-117444999D01*
X63904569Y-117446779D01*
X63908539Y-117448691D01*
X63912418Y-117450735D01*
X63916167Y-117452872D01*
X63919836Y-117455149D01*
X63923424Y-117457566D01*
X63926931Y-117460123D01*
X63930357Y-117462820D01*
X63933703Y-117465657D01*
X63936967Y-117468633D01*
X63940151Y-117471750D01*
X63943255Y-117475007D01*
X63946277Y-117478403D01*
X63949219Y-117481940D01*
X63952080Y-117485616D01*
X63954860Y-117489433D01*
X63957559Y-117493389D01*
X63960178Y-117497486D01*
X63962715Y-117501722D01*
X63962715Y-117292948D01*
X64026450Y-117292948D01*
X64026450Y-117636427D01*
X64026450Y-117829007D01*
G37*
G36*
X65287659Y-116309948D02*
G01*
X65289060Y-116347192D01*
X65283600Y-116366047D01*
X65278141Y-116384903D01*
X65270441Y-116400175D01*
X65262741Y-116415448D01*
X65243842Y-116435662D01*
X65224962Y-116455876D01*
X65207022Y-116466723D01*
X65189083Y-116477571D01*
X65168045Y-116485238D01*
X65147008Y-116492906D01*
X65125676Y-116495869D01*
X65104357Y-116498819D01*
X65076683Y-116497338D01*
X65049010Y-116495858D01*
X65030291Y-116491095D01*
X65011571Y-116486331D01*
X64985971Y-116473710D01*
X64960373Y-116461090D01*
X64939031Y-116443356D01*
X64917688Y-116425622D01*
X64915609Y-116439138D01*
X64913529Y-116452653D01*
X64908849Y-116469525D01*
X64904169Y-116486395D01*
X64849488Y-116486395D01*
X64794806Y-116486395D01*
X64796607Y-116479171D01*
X64798407Y-116471936D01*
X64805027Y-116448040D01*
X64811646Y-116424145D01*
X64814826Y-116382164D01*
X64818026Y-116340182D01*
X64818080Y-116196493D01*
X64920325Y-116196493D01*
X64920325Y-116259721D01*
X64920325Y-116322950D01*
X64929885Y-116336900D01*
X64939444Y-116350849D01*
X64956044Y-116365431D01*
X64972644Y-116380012D01*
X64992264Y-116389708D01*
X65011884Y-116399403D01*
X65032514Y-116404287D01*
X65053105Y-116409082D01*
X65077106Y-116408961D01*
X65101104Y-116408841D01*
X65114583Y-116404605D01*
X65128063Y-116400369D01*
X65142243Y-116392028D01*
X65156423Y-116383688D01*
X65165242Y-116373176D01*
X65174062Y-116362664D01*
X65178621Y-116351733D01*
X65183181Y-116340802D01*
X65185800Y-116324424D01*
X65188420Y-116308044D01*
X65185761Y-116291308D01*
X65183101Y-116274572D01*
X65177881Y-116263513D01*
X65172661Y-116252453D01*
X65160881Y-116240564D01*
X65149102Y-116228674D01*
X65133602Y-116220750D01*
X65118102Y-116212826D01*
X65093610Y-116206140D01*
X65069118Y-116199453D01*
X64994721Y-116197973D01*
X64920325Y-116196493D01*
X64818080Y-116196493D01*
X64818082Y-116190751D01*
X64818135Y-116041320D01*
X64822975Y-116020715D01*
X64827816Y-116000109D01*
X64837676Y-115979376D01*
X64847536Y-115958642D01*
X64868798Y-115937107D01*
X64890059Y-115915573D01*
X64905640Y-115906955D01*
X64921221Y-115898336D01*
X64942435Y-115890658D01*
X64963649Y-115882980D01*
X64986661Y-115879400D01*
X65009673Y-115875821D01*
X65042659Y-115875863D01*
X65075646Y-115875906D01*
X65105486Y-115882090D01*
X65135324Y-115888275D01*
X65165290Y-115902914D01*
X65195253Y-115917553D01*
X65214453Y-115933599D01*
X65233654Y-115949646D01*
X65248453Y-115970471D01*
X65263253Y-115991296D01*
X65269112Y-116008274D01*
X65274971Y-116025253D01*
X65277211Y-116038990D01*
X65279451Y-116052728D01*
X65227243Y-116051847D01*
X65175037Y-116050967D01*
X65172676Y-116037098D01*
X65170316Y-116023230D01*
X65163655Y-116012417D01*
X65156995Y-116001605D01*
X65145275Y-115991265D01*
X65133554Y-115980926D01*
X65113343Y-115971426D01*
X65093131Y-115961926D01*
X65069193Y-115958552D01*
X65045255Y-115955178D01*
X65021529Y-115958523D01*
X64997805Y-115961868D01*
X64980724Y-115969822D01*
X64963643Y-115977777D01*
X64951203Y-115990269D01*
X64938762Y-116002761D01*
X64930442Y-116020436D01*
X64922121Y-116038110D01*
X64920922Y-116080690D01*
X64919722Y-116123269D01*
X64989632Y-116123288D01*
X65059545Y-116123306D01*
X65091542Y-116128096D01*
X65123543Y-116132885D01*
X65145941Y-116139619D01*
X65168341Y-116146353D01*
X65189141Y-116157295D01*
X65209938Y-116168237D01*
X65227838Y-116182370D01*
X65245739Y-116196502D01*
X65258818Y-116216171D01*
X65271898Y-116235839D01*
X65278978Y-116254272D01*
X65286058Y-116272705D01*
X65287577Y-116308044D01*
X65287659Y-116309948D01*
G37*
G36*
X67224272Y-116060531D02*
G01*
X67224272Y-116486413D01*
X67177074Y-116485572D01*
X67129875Y-116484732D01*
X67129096Y-116471878D01*
X67128316Y-116459024D01*
X67126476Y-116439308D01*
X67124636Y-116419593D01*
X67110231Y-116435060D01*
X67095826Y-116450526D01*
X67075841Y-116463601D01*
X67055857Y-116476677D01*
X67032062Y-116484813D01*
X67008268Y-116492948D01*
X66987468Y-116495864D01*
X66966686Y-116498663D01*
X66939012Y-116497183D01*
X66911339Y-116495703D01*
X66892615Y-116490902D01*
X66873891Y-116486102D01*
X66853708Y-116476239D01*
X66833525Y-116466375D01*
X66815000Y-116450891D01*
X66796474Y-116435406D01*
X66781098Y-116415029D01*
X66765721Y-116394653D01*
X66752011Y-116365730D01*
X66738301Y-116336808D01*
X66731745Y-116311099D01*
X66725188Y-116285391D01*
X66722003Y-116262896D01*
X66718819Y-116240402D01*
X66718755Y-116188414D01*
X66718748Y-116182672D01*
X66818798Y-116182672D01*
X66821460Y-116221234D01*
X66824123Y-116259797D01*
X66830619Y-116285505D01*
X66837114Y-116311213D01*
X66846854Y-116331214D01*
X66856594Y-116351216D01*
X66872684Y-116368896D01*
X66888774Y-116386576D01*
X66908522Y-116396272D01*
X66928270Y-116405967D01*
X66945507Y-116409196D01*
X66962749Y-116412423D01*
X66977510Y-116412184D01*
X66992272Y-116411944D01*
X67011786Y-116407684D01*
X67031301Y-116403424D01*
X67048320Y-116394760D01*
X67065340Y-116386096D01*
X67082521Y-116369776D01*
X67099703Y-116353457D01*
X67110782Y-116335138D01*
X67121865Y-116316818D01*
X67121865Y-116187785D01*
X67121865Y-116058752D01*
X67113948Y-116043066D01*
X67106032Y-116027380D01*
X67088137Y-116007968D01*
X67070241Y-115988555D01*
X67051155Y-115978978D01*
X67032070Y-115969400D01*
X67013782Y-115965588D01*
X66995494Y-115961776D01*
X66964724Y-115963256D01*
X66933953Y-115964737D01*
X66912636Y-115974754D01*
X66891320Y-115984771D01*
X66874596Y-116001776D01*
X66857872Y-116018780D01*
X66849271Y-116034918D01*
X66840670Y-116051055D01*
X66832430Y-116079609D01*
X66824190Y-116108163D01*
X66821494Y-116145417D01*
X66818798Y-116182672D01*
X66718748Y-116182672D01*
X66718691Y-116136425D01*
X66722101Y-116111288D01*
X66725511Y-116086151D01*
X66731949Y-116060443D01*
X66738387Y-116034735D01*
X66750872Y-116007922D01*
X66763356Y-115981109D01*
X66777782Y-115960806D01*
X66792208Y-115940504D01*
X66809047Y-115925596D01*
X66825887Y-115910688D01*
X66851487Y-115897938D01*
X66877086Y-115885188D01*
X66899486Y-115880482D01*
X66921884Y-115875776D01*
X66951274Y-115875720D01*
X66980664Y-115875663D01*
X67004073Y-115880493D01*
X67027481Y-115885322D01*
X67053984Y-115898375D01*
X67080486Y-115911427D01*
X67101181Y-115930870D01*
X67121877Y-115950312D01*
X67121877Y-115792480D01*
X67121877Y-115634648D01*
X67173075Y-115634648D01*
X67224272Y-115634648D01*
X67224272Y-116058752D01*
X67224272Y-116060531D01*
G37*
G36*
X62545400Y-117716699D02*
G01*
X62545264Y-117723588D01*
X62544856Y-117730302D01*
X62544177Y-117736840D01*
X62543225Y-117743204D01*
X62542002Y-117749393D01*
X62540507Y-117755408D01*
X62538740Y-117761247D01*
X62536701Y-117766911D01*
X62534390Y-117772400D01*
X62531808Y-117777714D01*
X62528953Y-117782854D01*
X62525827Y-117787818D01*
X62522429Y-117792608D01*
X62518759Y-117797222D01*
X62514817Y-117801662D01*
X62510604Y-117805926D01*
X62506117Y-117809931D01*
X62501442Y-117813678D01*
X62496578Y-117817166D01*
X62491526Y-117820396D01*
X62486286Y-117823367D01*
X62480857Y-117826080D01*
X62475240Y-117828535D01*
X62469435Y-117830731D01*
X62463441Y-117832669D01*
X62457258Y-117834349D01*
X62450888Y-117835770D01*
X62444329Y-117836932D01*
X62437581Y-117837837D01*
X62430645Y-117838483D01*
X62423521Y-117838870D01*
X62416208Y-117839000D01*
X62410408Y-117838935D01*
X62404721Y-117838741D01*
X62399147Y-117838418D01*
X62393686Y-117837966D01*
X62388339Y-117837384D01*
X62383104Y-117836674D01*
X62377982Y-117835834D01*
X62372973Y-117834865D01*
X62368078Y-117833766D01*
X62363295Y-117832539D01*
X62358625Y-117831182D01*
X62354069Y-117829696D01*
X62349625Y-117828080D01*
X62345295Y-117826336D01*
X62341077Y-117824462D01*
X62336972Y-117822459D01*
X62332966Y-117820277D01*
X62329043Y-117817953D01*
X62325204Y-117815486D01*
X62321448Y-117812877D01*
X62317775Y-117810125D01*
X62314186Y-117807230D01*
X62310681Y-117804193D01*
X62307259Y-117801013D01*
X62303920Y-117797690D01*
X62300665Y-117794225D01*
X62297493Y-117790617D01*
X62294404Y-117786866D01*
X62291399Y-117782973D01*
X62288478Y-117778937D01*
X62285639Y-117774758D01*
X62282885Y-117770437D01*
X62282885Y-117829005D01*
X62219495Y-117829005D01*
X62219495Y-117635063D01*
X62282888Y-117635063D01*
X62282888Y-117649183D01*
X62283013Y-117656839D01*
X62283388Y-117664304D01*
X62284014Y-117671577D01*
X62284890Y-117678660D01*
X62286016Y-117685551D01*
X62287393Y-117692252D01*
X62289020Y-117698761D01*
X62290897Y-117705079D01*
X62293025Y-117711206D01*
X62295402Y-117717142D01*
X62298030Y-117722887D01*
X62300909Y-117728441D01*
X62304037Y-117733803D01*
X62307416Y-117738975D01*
X62311045Y-117743956D01*
X62314925Y-117748745D01*
X62318969Y-117753251D01*
X62323177Y-117757466D01*
X62327550Y-117761391D01*
X62332086Y-117765024D01*
X62336787Y-117768367D01*
X62341652Y-117771419D01*
X62346681Y-117774181D01*
X62351874Y-117776652D01*
X62357232Y-117778832D01*
X62362753Y-117780722D01*
X62368439Y-117782320D01*
X62374289Y-117783628D01*
X62380303Y-117784646D01*
X62386481Y-117785372D01*
X62392824Y-117785809D01*
X62399330Y-117785954D01*
X62404048Y-117785877D01*
X62408643Y-117785647D01*
X62413113Y-117785263D01*
X62417460Y-117784726D01*
X62421683Y-117784036D01*
X62425782Y-117783192D01*
X62429757Y-117782195D01*
X62433609Y-117781044D01*
X62437336Y-117779740D01*
X62440940Y-117778282D01*
X62444421Y-117776671D01*
X62447777Y-117774907D01*
X62451009Y-117772989D01*
X62454118Y-117770917D01*
X62457103Y-117768693D01*
X62459964Y-117766314D01*
X62462634Y-117763763D01*
X62465132Y-117761103D01*
X62467457Y-117758336D01*
X62469610Y-117755462D01*
X62471591Y-117752479D01*
X62473400Y-117749389D01*
X62475036Y-117746192D01*
X62476500Y-117742887D01*
X62477792Y-117739474D01*
X62478911Y-117735953D01*
X62479859Y-117732325D01*
X62480634Y-117728590D01*
X62481237Y-117724746D01*
X62481667Y-117720795D01*
X62481926Y-117716736D01*
X62482012Y-117712570D01*
X62481896Y-117707371D01*
X62481549Y-117702366D01*
X62480970Y-117697555D01*
X62480594Y-117695222D01*
X62480160Y-117692937D01*
X62479668Y-117690701D01*
X62479118Y-117688513D01*
X62478511Y-117686373D01*
X62477845Y-117684282D01*
X62477122Y-117682239D01*
X62476341Y-117680245D01*
X62475502Y-117678299D01*
X62474605Y-117676402D01*
X62473650Y-117674553D01*
X62472637Y-117672752D01*
X62471567Y-117671000D01*
X62470439Y-117669296D01*
X62469252Y-117667641D01*
X62468008Y-117666034D01*
X62466706Y-117664475D01*
X62465346Y-117662965D01*
X62463928Y-117661503D01*
X62462453Y-117660090D01*
X62460919Y-117658725D01*
X62459328Y-117657408D01*
X62457679Y-117656140D01*
X62455972Y-117654920D01*
X62454207Y-117653749D01*
X62452384Y-117652626D01*
X62448496Y-117650497D01*
X62444239Y-117648505D01*
X62439614Y-117646651D01*
X62434620Y-117644934D01*
X62429257Y-117643355D01*
X62423525Y-117641913D01*
X62417425Y-117640608D01*
X62410956Y-117639441D01*
X62404118Y-117638411D01*
X62396912Y-117637518D01*
X62381393Y-117636145D01*
X62364398Y-117635321D01*
X62345929Y-117635046D01*
X62282888Y-117635063D01*
X62219495Y-117635063D01*
X62219495Y-117608863D01*
X62219493Y-117608877D01*
X62219655Y-117598028D01*
X62220139Y-117587528D01*
X62220947Y-117577379D01*
X62222077Y-117567579D01*
X62223531Y-117558129D01*
X62225307Y-117549029D01*
X62227406Y-117540279D01*
X62229829Y-117531879D01*
X62232574Y-117523829D01*
X62235642Y-117516128D01*
X62239033Y-117508778D01*
X62242748Y-117501778D01*
X62246785Y-117495127D01*
X62251145Y-117488826D01*
X62255828Y-117482876D01*
X62260834Y-117477275D01*
X62266167Y-117472018D01*
X62271832Y-117467101D01*
X62277827Y-117462523D01*
X62284154Y-117458284D01*
X62290811Y-117454384D01*
X62297800Y-117450823D01*
X62305119Y-117447601D01*
X62312770Y-117444719D01*
X62320751Y-117442175D01*
X62329064Y-117439971D01*
X62337708Y-117438106D01*
X62346683Y-117436580D01*
X62355988Y-117435393D01*
X62365625Y-117434545D01*
X62375593Y-117434036D01*
X62385892Y-117433866D01*
X62393671Y-117433974D01*
X62401503Y-117434296D01*
X62409389Y-117434834D01*
X62417329Y-117435587D01*
X62425323Y-117436554D01*
X62433370Y-117437737D01*
X62441471Y-117439134D01*
X62449626Y-117440747D01*
X62457841Y-117442489D01*
X62466120Y-117444448D01*
X62474463Y-117446622D01*
X62482872Y-117449011D01*
X62491344Y-117451617D01*
X62499882Y-117454438D01*
X62508484Y-117457474D01*
X62517151Y-117460727D01*
X62517151Y-117519293D01*
X62509879Y-117515454D01*
X62502531Y-117511863D01*
X62495108Y-117508520D01*
X62487610Y-117505425D01*
X62480036Y-117502578D01*
X62472386Y-117499978D01*
X62464661Y-117497626D01*
X62456861Y-117495523D01*
X62448996Y-117493667D01*
X62441078Y-117492058D01*
X62433106Y-117490697D01*
X62425080Y-117489583D01*
X62417000Y-117488717D01*
X62408866Y-117488098D01*
X62400679Y-117487727D01*
X62392438Y-117487603D01*
X62386027Y-117487698D01*
X62379798Y-117487980D01*
X62373753Y-117488451D01*
X62367891Y-117489111D01*
X62362212Y-117489958D01*
X62356716Y-117490995D01*
X62351403Y-117492219D01*
X62346273Y-117493632D01*
X62341326Y-117495234D01*
X62336562Y-117497024D01*
X62331981Y-117499002D01*
X62327583Y-117501169D01*
X62323368Y-117503524D01*
X62319336Y-117506067D01*
X62315487Y-117508799D01*
X62311821Y-117511720D01*
X62308317Y-117514769D01*
X62305039Y-117517974D01*
X62301987Y-117521336D01*
X62299161Y-117524854D01*
X62296561Y-117528527D01*
X62294187Y-117532357D01*
X62292039Y-117536343D01*
X62290118Y-117540485D01*
X62288422Y-117544784D01*
X62286953Y-117549238D01*
X62285709Y-117553848D01*
X62284692Y-117558615D01*
X62283900Y-117563537D01*
X62283335Y-117568616D01*
X62282996Y-117573851D01*
X62282883Y-117579242D01*
X62282883Y-117585441D01*
X62371765Y-117585441D01*
X62382408Y-117585570D01*
X62392716Y-117585958D01*
X62402690Y-117586604D01*
X62412331Y-117587508D01*
X62421638Y-117588671D01*
X62430612Y-117590092D01*
X62439252Y-117591772D01*
X62447558Y-117593710D01*
X62455530Y-117595906D01*
X62463168Y-117598360D01*
X62470473Y-117601074D01*
X62477444Y-117604045D01*
X62484082Y-117607275D01*
X62490385Y-117610763D01*
X62496355Y-117614510D01*
X62501992Y-117618515D01*
X62507248Y-117622774D01*
X62512165Y-117627283D01*
X62516743Y-117632043D01*
X62520982Y-117637053D01*
X62524882Y-117642313D01*
X62528443Y-117647824D01*
X62531665Y-117653585D01*
X62534548Y-117659596D01*
X62537091Y-117665858D01*
X62539295Y-117672370D01*
X62541161Y-117679132D01*
X62542687Y-117686145D01*
X62543874Y-117693408D01*
X62544722Y-117700921D01*
X62545230Y-117708685D01*
X62545312Y-117712570D01*
X62545400Y-117716699D01*
G37*
G36*
X67297684Y-110659339D02*
G01*
X67938930Y-112361724D01*
X67944684Y-112376988D01*
X67950438Y-112392251D01*
X67620064Y-112392190D01*
X67289690Y-112392129D01*
X66837191Y-111156728D01*
X66384691Y-109921327D01*
X66382891Y-109918307D01*
X66381090Y-109915287D01*
X65605175Y-112026252D01*
X64829096Y-114137219D01*
X64490313Y-114137219D01*
X64151532Y-114137219D01*
X64153752Y-114131594D01*
X64155973Y-114125970D01*
X65125551Y-111551907D01*
X66095130Y-108977843D01*
X66099469Y-108967399D01*
X66103809Y-108956955D01*
X66380124Y-108956955D01*
X66656438Y-108956955D01*
X67297684Y-110659339D01*
G37*
G36*
X64854305Y-117744256D02*
G01*
X64933542Y-117443154D01*
X65008301Y-117443154D01*
X65087194Y-117744256D01*
X65166431Y-117443154D01*
X65229821Y-117443154D01*
X65128879Y-117829007D01*
X65054120Y-117829007D01*
X64970749Y-117512747D01*
X64887723Y-117829007D01*
X64812964Y-117829007D01*
X64712023Y-117443154D01*
X64775412Y-117443154D01*
X64854305Y-117744256D01*
G37*
G36*
X65401923Y-115876631D02*
G01*
X65430721Y-115878210D01*
X65449921Y-115885072D01*
X65469121Y-115891934D01*
X65486422Y-115903886D01*
X65503722Y-115915838D01*
X65518422Y-115934317D01*
X65533123Y-115952795D01*
X65534723Y-115919925D01*
X65536324Y-115887054D01*
X65585121Y-115886174D01*
X65633919Y-115885293D01*
X65633919Y-116185846D01*
X65633901Y-116486346D01*
X65582703Y-116486346D01*
X65531505Y-116486346D01*
X65531475Y-116271841D01*
X65531444Y-116057336D01*
X65522225Y-116041201D01*
X65513005Y-116025067D01*
X65498545Y-116011674D01*
X65484084Y-115998284D01*
X65468604Y-115990434D01*
X65453124Y-115982583D01*
X65435324Y-115978610D01*
X65417525Y-115974636D01*
X65381725Y-115975877D01*
X65345925Y-115977118D01*
X65345925Y-115929791D01*
X65345925Y-115882464D01*
X65359525Y-115878758D01*
X65373125Y-115875051D01*
X65401923Y-115876631D01*
G37*
G36*
X63643633Y-110661756D02*
G01*
X63643633Y-112392233D01*
X63322046Y-112392233D01*
X63000458Y-112392233D01*
X63000560Y-112100602D01*
X63000663Y-111808972D01*
X63013042Y-111024862D01*
X63025421Y-110240754D01*
X63024222Y-110239514D01*
X63023023Y-110238274D01*
X63020043Y-110245950D01*
X63017063Y-110253626D01*
X62208533Y-112176812D01*
X61400000Y-114100000D01*
X61396920Y-114105774D01*
X61393874Y-114111521D01*
X61158338Y-114110702D01*
X60922803Y-114109883D01*
X60513965Y-113137780D01*
X60105123Y-112165678D01*
X60432035Y-112164859D01*
X60758945Y-112164039D01*
X60762145Y-112168434D01*
X60765345Y-112172828D01*
X60962137Y-112644061D01*
X61158930Y-113115293D01*
X61160530Y-113115292D01*
X61162131Y-113115290D01*
X62032497Y-111023300D01*
X62902863Y-108931310D01*
X63273249Y-108931282D01*
X63643633Y-108931253D01*
X63643633Y-110661756D01*
G37*
G36*
X60581321Y-116185862D02*
G01*
X60581321Y-116486331D01*
X60531725Y-116486331D01*
X60482125Y-116486331D01*
X60482125Y-116185862D01*
X60482125Y-115885394D01*
X60531725Y-115885394D01*
X60581321Y-115885394D01*
X60581321Y-116185862D01*
G37*
G36*
X64480510Y-117716702D02*
G01*
X64480374Y-117723590D01*
X64479967Y-117730304D01*
X64479287Y-117736843D01*
X64478336Y-117743207D01*
X64477112Y-117749396D01*
X64475617Y-117755409D01*
X64473850Y-117761249D01*
X64471812Y-117766913D01*
X64469501Y-117772402D01*
X64466919Y-117777716D01*
X64464064Y-117782855D01*
X64460938Y-117787820D01*
X64457540Y-117792609D01*
X64453871Y-117797224D01*
X64449929Y-117801663D01*
X64445716Y-117805928D01*
X64441229Y-117809933D01*
X64436554Y-117813679D01*
X64431690Y-117817167D01*
X64426638Y-117820397D01*
X64421398Y-117823369D01*
X64415969Y-117826082D01*
X64410352Y-117828536D01*
X64404547Y-117830733D01*
X64398553Y-117832671D01*
X64392370Y-117834350D01*
X64386000Y-117835771D01*
X64379441Y-117836934D01*
X64372693Y-117837838D01*
X64365757Y-117838484D01*
X64358633Y-117838872D01*
X64351320Y-117839001D01*
X64345520Y-117838936D01*
X64339833Y-117838743D01*
X64334259Y-117838420D01*
X64328798Y-117837967D01*
X64323451Y-117837386D01*
X64318216Y-117836675D01*
X64313094Y-117835835D01*
X64308085Y-117834866D01*
X64303190Y-117833768D01*
X64298407Y-117832540D01*
X64293737Y-117831183D01*
X64289181Y-117829697D01*
X64284737Y-117828082D01*
X64280407Y-117826337D01*
X64276189Y-117824464D01*
X64272084Y-117822461D01*
X64268078Y-117820279D01*
X64264155Y-117817955D01*
X64260316Y-117815488D01*
X64256560Y-117812878D01*
X64252887Y-117810126D01*
X64249298Y-117807231D01*
X64245793Y-117804194D01*
X64242371Y-117801014D01*
X64239032Y-117797691D01*
X64235777Y-117794226D01*
X64232605Y-117790618D01*
X64229516Y-117786868D01*
X64226511Y-117782974D01*
X64223590Y-117778938D01*
X64220751Y-117774760D01*
X64217997Y-117770439D01*
X64217997Y-117829007D01*
X64154607Y-117829007D01*
X64154607Y-117635067D01*
X64217998Y-117635067D01*
X64217998Y-117649188D01*
X64218123Y-117656844D01*
X64218499Y-117664308D01*
X64219124Y-117671582D01*
X64220000Y-117678665D01*
X64221127Y-117685556D01*
X64222503Y-117692257D01*
X64224130Y-117698766D01*
X64226008Y-117705084D01*
X64228135Y-117711211D01*
X64230513Y-117717147D01*
X64233141Y-117722893D01*
X64236019Y-117728446D01*
X64239148Y-117733809D01*
X64242527Y-117738981D01*
X64246156Y-117743962D01*
X64250035Y-117748751D01*
X64254079Y-117753257D01*
X64258288Y-117757471D01*
X64262660Y-117761395D01*
X64267196Y-117765029D01*
X64271897Y-117768371D01*
X64276762Y-117771423D01*
X64281791Y-117774185D01*
X64286984Y-117776655D01*
X64292341Y-117778835D01*
X64297863Y-117780725D01*
X64303548Y-117782323D01*
X64309398Y-117783632D01*
X64315412Y-117784649D01*
X64321590Y-117785376D01*
X64327933Y-117785812D01*
X64334439Y-117785957D01*
X64339158Y-117785880D01*
X64343752Y-117785650D01*
X64348223Y-117785267D01*
X64352570Y-117784730D01*
X64356793Y-117784039D01*
X64360892Y-117783195D01*
X64364867Y-117782198D01*
X64368719Y-117781047D01*
X64372447Y-117779743D01*
X64376050Y-117778285D01*
X64379531Y-117776674D01*
X64382887Y-117774910D01*
X64386119Y-117772992D01*
X64389228Y-117770921D01*
X64392212Y-117768696D01*
X64395073Y-117766317D01*
X64397743Y-117763766D01*
X64400241Y-117761106D01*
X64402567Y-117758339D01*
X64404720Y-117755464D01*
X64406701Y-117752482D01*
X64408510Y-117749392D01*
X64410147Y-117746194D01*
X64411611Y-117742889D01*
X64412903Y-117739476D01*
X64414023Y-117735955D01*
X64414970Y-117732327D01*
X64415746Y-117728591D01*
X64416349Y-117724748D01*
X64416779Y-117720797D01*
X64417038Y-117716738D01*
X64417124Y-117712571D01*
X64417008Y-117707370D01*
X64416661Y-117702364D01*
X64416082Y-117697551D01*
X64415706Y-117695217D01*
X64415272Y-117692932D01*
X64414780Y-117690695D01*
X64414230Y-117688506D01*
X64413623Y-117686367D01*
X64412957Y-117684275D01*
X64412234Y-117682232D01*
X64411453Y-117680238D01*
X64410614Y-117678292D01*
X64409717Y-117676394D01*
X64408762Y-117674545D01*
X64407749Y-117672745D01*
X64406679Y-117670993D01*
X64405551Y-117669289D01*
X64404364Y-117667634D01*
X64403120Y-117666028D01*
X64401818Y-117664470D01*
X64400458Y-117662960D01*
X64399040Y-117661499D01*
X64397565Y-117660086D01*
X64396031Y-117658722D01*
X64394440Y-117657406D01*
X64392791Y-117656139D01*
X64391084Y-117654921D01*
X64389319Y-117653750D01*
X64387496Y-117652629D01*
X64383608Y-117650500D01*
X64379351Y-117648508D01*
X64374726Y-117646654D01*
X64369732Y-117644937D01*
X64364369Y-117643358D01*
X64358637Y-117641916D01*
X64352537Y-117640611D01*
X64346068Y-117639444D01*
X64339230Y-117638414D01*
X64332024Y-117637521D01*
X64316505Y-117636148D01*
X64299510Y-117635324D01*
X64281041Y-117635049D01*
X64217998Y-117635067D01*
X64154607Y-117635067D01*
X64154607Y-117608865D01*
X64154604Y-117608876D01*
X64154765Y-117598026D01*
X64155250Y-117587527D01*
X64156057Y-117577377D01*
X64157188Y-117567577D01*
X64158641Y-117558128D01*
X64160417Y-117549028D01*
X64162517Y-117540278D01*
X64164939Y-117531877D01*
X64167684Y-117523827D01*
X64170753Y-117516127D01*
X64174144Y-117508777D01*
X64177858Y-117501776D01*
X64181895Y-117495125D01*
X64186255Y-117488825D01*
X64190938Y-117482874D01*
X64195945Y-117477273D01*
X64201278Y-117472017D01*
X64206942Y-117467099D01*
X64212938Y-117462521D01*
X64219264Y-117458282D01*
X64225922Y-117454382D01*
X64232910Y-117450821D01*
X64240230Y-117447600D01*
X64247880Y-117444717D01*
X64255862Y-117442174D01*
X64264175Y-117439969D01*
X64272818Y-117438104D01*
X64281793Y-117436578D01*
X64291099Y-117435391D01*
X64300736Y-117434543D01*
X64310704Y-117434035D01*
X64321003Y-117433865D01*
X64328781Y-117433972D01*
X64336613Y-117434295D01*
X64344498Y-117434832D01*
X64352438Y-117435585D01*
X64360432Y-117436553D01*
X64368480Y-117437735D01*
X64376581Y-117439133D01*
X64384737Y-117440745D01*
X64392951Y-117442488D01*
X64401230Y-117444446D01*
X64409574Y-117446620D01*
X64417982Y-117449010D01*
X64426455Y-117451615D01*
X64434993Y-117454436D01*
X64443595Y-117457473D01*
X64452262Y-117460725D01*
X64452262Y-117519291D01*
X64444989Y-117515453D01*
X64437641Y-117511862D01*
X64430218Y-117508519D01*
X64422719Y-117505424D01*
X64415145Y-117502576D01*
X64407496Y-117499977D01*
X64399771Y-117497625D01*
X64391971Y-117495521D01*
X64384107Y-117493665D01*
X64376188Y-117492056D01*
X64368216Y-117490695D01*
X64360190Y-117489582D01*
X64352110Y-117488715D01*
X64343977Y-117488097D01*
X64335789Y-117487726D01*
X64327549Y-117487602D01*
X64321137Y-117487696D01*
X64314909Y-117487979D01*
X64308864Y-117488450D01*
X64303002Y-117489109D01*
X64297323Y-117489957D01*
X64291827Y-117490993D01*
X64286514Y-117492218D01*
X64281384Y-117493631D01*
X64276437Y-117495232D01*
X64271673Y-117497022D01*
X64267092Y-117499000D01*
X64262694Y-117501167D01*
X64258480Y-117503522D01*
X64254448Y-117506066D01*
X64250599Y-117508798D01*
X64246933Y-117511718D01*
X64243429Y-117514768D01*
X64240151Y-117517973D01*
X64237099Y-117521334D01*
X64234273Y-117524852D01*
X64231673Y-117528526D01*
X64229299Y-117532356D01*
X64227151Y-117536342D01*
X64225230Y-117540484D01*
X64223534Y-117544783D01*
X64222065Y-117549237D01*
X64220821Y-117553848D01*
X64219804Y-117558615D01*
X64219012Y-117563537D01*
X64218447Y-117568616D01*
X64218108Y-117573852D01*
X64217995Y-117579243D01*
X64217995Y-117585443D01*
X64306877Y-117585443D01*
X64317520Y-117585572D01*
X64327828Y-117585959D01*
X64337803Y-117586605D01*
X64347444Y-117587510D01*
X64356751Y-117588673D01*
X64365725Y-117590094D01*
X64374365Y-117591773D01*
X64382671Y-117593711D01*
X64390643Y-117595907D01*
X64398281Y-117598362D01*
X64405586Y-117601075D01*
X64412556Y-117604046D01*
X64419194Y-117607276D01*
X64425497Y-117610765D01*
X64431466Y-117614511D01*
X64437102Y-117618516D01*
X64442358Y-117622775D01*
X64447276Y-117627285D01*
X64451854Y-117632044D01*
X64456093Y-117637054D01*
X64459993Y-117642315D01*
X64463554Y-117647826D01*
X64466775Y-117653587D01*
X64469658Y-117659598D01*
X64472201Y-117665860D01*
X64474406Y-117672372D01*
X64476271Y-117679134D01*
X64477797Y-117686147D01*
X64478984Y-117693410D01*
X64479832Y-117700924D01*
X64480341Y-117708688D01*
X64480423Y-117712571D01*
X64480510Y-117716702D01*
G37*
G36*
X64027707Y-115813008D02*
G01*
X64027707Y-115885284D01*
X64081305Y-115886164D01*
X64134903Y-115887045D01*
X64135903Y-115926411D01*
X64136702Y-115965777D01*
X64082378Y-115965777D01*
X64028054Y-115965777D01*
X64026854Y-116172248D01*
X64025655Y-116378720D01*
X64020235Y-116397251D01*
X64014815Y-116415783D01*
X64006595Y-116432087D01*
X63998375Y-116448391D01*
X63985775Y-116462127D01*
X63973174Y-116475863D01*
X63954474Y-116484288D01*
X63935794Y-116492712D01*
X63918494Y-116495748D01*
X63901509Y-116498725D01*
X63875826Y-116497105D01*
X63850139Y-116495484D01*
X63831020Y-116491693D01*
X63811901Y-116487901D01*
X63810901Y-116446661D01*
X63810102Y-116405421D01*
X63831798Y-116408001D01*
X63853495Y-116410582D01*
X63869394Y-116409741D01*
X63885294Y-116408900D01*
X63897914Y-116401820D01*
X63910535Y-116394740D01*
X63917215Y-116381886D01*
X63923896Y-116369032D01*
X63924695Y-116167381D01*
X63925495Y-115965730D01*
X63869405Y-115965730D01*
X63813315Y-115965730D01*
X63813315Y-115925561D01*
X63813315Y-115885391D01*
X63869313Y-115885391D01*
X63925312Y-115885391D01*
X63925312Y-115813086D01*
X63925312Y-115740780D01*
X63976509Y-115740780D01*
X64027707Y-115740780D01*
X64027707Y-115813008D01*
G37*
G36*
X68022618Y-116480749D02*
G01*
X68023719Y-116483653D01*
X68024797Y-116486523D01*
X67969767Y-116485682D01*
X67914736Y-116484841D01*
X67877162Y-116380401D01*
X67839589Y-116275961D01*
X67671387Y-116275141D01*
X67503185Y-116274322D01*
X67498065Y-116288008D01*
X67492946Y-116301693D01*
X67459807Y-116393280D01*
X67426668Y-116484866D01*
X67371874Y-116485707D01*
X67317079Y-116486547D01*
X67323610Y-116469909D01*
X67330141Y-116453270D01*
X67431287Y-116187553D01*
X67533956Y-116187553D01*
X67670293Y-116187553D01*
X67806630Y-116187553D01*
X67806630Y-116186453D01*
X67806630Y-116185353D01*
X67739373Y-115999472D01*
X67672115Y-115813591D01*
X67671015Y-115812471D01*
X67669915Y-115811351D01*
X67603434Y-115995427D01*
X67536953Y-116179504D01*
X67535453Y-116183520D01*
X67533956Y-116187553D01*
X67431287Y-116187553D01*
X67467874Y-116091436D01*
X67605608Y-115729602D01*
X67615154Y-115704696D01*
X67624700Y-115679791D01*
X67671665Y-115679846D01*
X67718630Y-115679901D01*
X67870624Y-116080325D01*
X67910491Y-116185353D01*
X68022618Y-116480749D01*
G37*
G36*
X65966663Y-115813098D02*
G01*
X65966663Y-115885403D01*
X66021060Y-115885403D01*
X66075458Y-115885403D01*
X66075458Y-115925573D01*
X66075458Y-115965741D01*
X66021210Y-115965741D01*
X65966970Y-115965741D01*
X65965970Y-116175425D01*
X65964971Y-116385110D01*
X65958191Y-116405081D01*
X65951412Y-116425051D01*
X65943132Y-116439256D01*
X65934853Y-116453460D01*
X65918692Y-116468063D01*
X65902532Y-116482663D01*
X65882611Y-116489166D01*
X65862711Y-116495669D01*
X65853112Y-116496949D01*
X65843454Y-116498283D01*
X65832254Y-116498643D01*
X65821054Y-116499003D01*
X65797608Y-116495944D01*
X65774160Y-116492884D01*
X65761600Y-116489488D01*
X65749041Y-116486091D01*
X65749041Y-116446045D01*
X65749041Y-116405999D01*
X65756241Y-116406239D01*
X65763442Y-116406478D01*
X65781041Y-116409071D01*
X65798641Y-116411663D01*
X65815541Y-116408987D01*
X65832442Y-116406311D01*
X65842322Y-116399243D01*
X65852202Y-116392175D01*
X65858162Y-116379003D01*
X65864122Y-116365832D01*
X65864194Y-116165788D01*
X65864264Y-115965744D01*
X65808168Y-115965744D01*
X65752071Y-115965744D01*
X65753070Y-115926377D01*
X65753870Y-115887011D01*
X65809069Y-115886131D01*
X65864267Y-115885250D01*
X65864267Y-115813021D01*
X65864267Y-115740792D01*
X65915465Y-115740792D01*
X65966663Y-115740792D01*
X65966663Y-115813098D01*
G37*
G36*
X59717998Y-116153402D02*
G01*
X59716397Y-116209845D01*
X59714797Y-116266287D01*
X59708136Y-116292755D01*
X59701476Y-116319224D01*
X59693056Y-116339352D01*
X59684636Y-116359480D01*
X59670797Y-116380989D01*
X59656957Y-116402496D01*
X59638057Y-116421466D01*
X59619178Y-116440435D01*
X59605077Y-116450143D01*
X59590976Y-116459851D01*
X59571656Y-116469619D01*
X59552335Y-116479388D01*
X59530049Y-116486108D01*
X59507764Y-116492828D01*
X59485364Y-116495636D01*
X59462764Y-116498405D01*
X59459565Y-116498765D01*
X59456365Y-116499125D01*
X59419565Y-116496017D01*
X59382767Y-116492909D01*
X59358857Y-116486213D01*
X59334944Y-116479518D01*
X59309462Y-116466204D01*
X59283980Y-116452891D01*
X59263259Y-116433477D01*
X59242539Y-116414062D01*
X59230019Y-116398194D01*
X59217479Y-116382328D01*
X59223879Y-116377313D01*
X59230278Y-116372297D01*
X59254563Y-116353450D01*
X59278844Y-116334602D01*
X59302655Y-116357318D01*
X59326470Y-116380035D01*
X59343410Y-116389863D01*
X59360350Y-116399691D01*
X59381148Y-116406327D01*
X59401947Y-116412963D01*
X59435547Y-116412963D01*
X59469146Y-116412963D01*
X59490175Y-116406352D01*
X59511205Y-116399740D01*
X59530165Y-116387251D01*
X59549126Y-116374762D01*
X59560807Y-116362300D01*
X59572487Y-116349836D01*
X59583467Y-116332162D01*
X59594448Y-116314486D01*
X59600107Y-116300026D01*
X59605767Y-116285563D01*
X59610266Y-116261982D01*
X59614766Y-116238401D01*
X59614766Y-116227438D01*
X59614766Y-116216474D01*
X59413175Y-116216474D01*
X59211583Y-116216474D01*
X59211595Y-116169075D01*
X59211607Y-116127415D01*
X59311255Y-116127415D01*
X59312856Y-116130165D01*
X59314667Y-116132927D01*
X59463684Y-116132927D01*
X59612702Y-116132927D01*
X59610541Y-116116540D01*
X59608380Y-116100154D01*
X59600560Y-116075315D01*
X59592740Y-116050476D01*
X59580440Y-116031445D01*
X59568140Y-116012414D01*
X59554000Y-115998526D01*
X59539879Y-115984637D01*
X59522280Y-115975615D01*
X59504680Y-115966592D01*
X59486620Y-115962558D01*
X59468579Y-115958523D01*
X59443367Y-115959983D01*
X59418157Y-115961444D01*
X59399556Y-115970002D01*
X59380936Y-115978561D01*
X59368856Y-115988165D01*
X59356775Y-115997769D01*
X59345156Y-116014727D01*
X59333536Y-116031686D01*
X59326715Y-116050969D01*
X59319895Y-116070251D01*
X59315575Y-116098832D01*
X59311255Y-116127415D01*
X59211607Y-116127415D01*
X59211609Y-116121675D01*
X59216529Y-116091146D01*
X59221448Y-116060618D01*
X59230368Y-116034602D01*
X59239289Y-116008586D01*
X59251189Y-115987236D01*
X59263089Y-115965886D01*
X59281189Y-115946260D01*
X59299289Y-115926634D01*
X59317229Y-115914392D01*
X59335189Y-115902150D01*
X59354209Y-115894226D01*
X59373229Y-115886302D01*
X59390828Y-115881874D01*
X59408428Y-115877446D01*
X59456426Y-115877557D01*
X59504424Y-115877670D01*
X59530024Y-115886608D01*
X59555622Y-115895547D01*
X59574822Y-115906362D01*
X59594022Y-115917178D01*
X59613121Y-115932714D01*
X59632201Y-115948251D01*
X59648880Y-115969003D01*
X59665560Y-115989755D01*
X59678260Y-116013940D01*
X59690959Y-116038125D01*
X59699439Y-116063833D01*
X59707918Y-116089541D01*
X59712958Y-116121472D01*
X59714766Y-116132927D01*
X59717998Y-116153402D01*
G37*
G36*
X61703418Y-117829005D02*
G01*
X61639684Y-117829005D01*
X61639684Y-117610929D01*
X61639568Y-117603960D01*
X61639221Y-117597176D01*
X61638642Y-117590578D01*
X61637832Y-117584165D01*
X61636791Y-117577939D01*
X61635518Y-117571898D01*
X61634013Y-117566042D01*
X61632277Y-117560373D01*
X61630310Y-117554889D01*
X61628111Y-117549591D01*
X61625680Y-117544478D01*
X61623018Y-117539552D01*
X61620125Y-117534811D01*
X61617000Y-117530256D01*
X61613644Y-117525886D01*
X61610056Y-117521702D01*
X61606267Y-117517739D01*
X61602310Y-117514032D01*
X61598182Y-117510580D01*
X61593885Y-117507384D01*
X61589418Y-117504443D01*
X61584782Y-117501758D01*
X61579977Y-117499329D01*
X61575001Y-117497156D01*
X61569857Y-117495238D01*
X61564542Y-117493576D01*
X61559058Y-117492170D01*
X61553405Y-117491019D01*
X61547582Y-117490124D01*
X61541589Y-117489485D01*
X61535427Y-117489101D01*
X61529096Y-117488974D01*
X61523839Y-117489080D01*
X61518750Y-117489399D01*
X61513827Y-117489930D01*
X61509071Y-117490674D01*
X61504483Y-117491631D01*
X61500061Y-117492801D01*
X61495805Y-117494183D01*
X61491717Y-117495777D01*
X61487796Y-117497585D01*
X61484041Y-117499604D01*
X61480453Y-117501837D01*
X61477033Y-117504282D01*
X61473779Y-117506940D01*
X61470692Y-117509810D01*
X61467771Y-117512893D01*
X61465018Y-117516189D01*
X61462432Y-117519699D01*
X61460012Y-117523424D01*
X61457759Y-117527364D01*
X61455673Y-117531520D01*
X61453754Y-117535891D01*
X61452002Y-117540477D01*
X61450417Y-117545279D01*
X61448999Y-117550296D01*
X61447747Y-117555528D01*
X61446662Y-117560976D01*
X61445745Y-117566639D01*
X61444994Y-117572517D01*
X61444410Y-117578611D01*
X61443992Y-117584920D01*
X61443742Y-117591444D01*
X61443659Y-117598184D01*
X61443659Y-117829005D01*
X61380269Y-117829005D01*
X61380269Y-117596115D01*
X61380268Y-117596121D01*
X61380401Y-117586282D01*
X61380801Y-117576748D01*
X61381467Y-117567517D01*
X61382399Y-117558591D01*
X61383598Y-117549969D01*
X61385064Y-117541651D01*
X61386796Y-117533637D01*
X61388794Y-117525928D01*
X61391059Y-117518522D01*
X61393591Y-117511421D01*
X61396388Y-117504623D01*
X61399453Y-117498130D01*
X61402783Y-117491941D01*
X61406381Y-117486057D01*
X61410244Y-117480476D01*
X61414374Y-117475199D01*
X61418764Y-117470193D01*
X61423407Y-117465510D01*
X61428303Y-117461149D01*
X61433452Y-117457112D01*
X61438854Y-117453398D01*
X61444509Y-117450006D01*
X61450417Y-117446938D01*
X61456578Y-117444193D01*
X61462991Y-117441770D01*
X61469658Y-117439671D01*
X61476578Y-117437895D01*
X61483751Y-117436441D01*
X61491177Y-117435311D01*
X61498856Y-117434503D01*
X61506787Y-117434019D01*
X61514972Y-117433857D01*
X61519974Y-117433925D01*
X61524904Y-117434126D01*
X61529761Y-117434463D01*
X61534545Y-117434934D01*
X61539256Y-117435539D01*
X61543895Y-117436279D01*
X61548461Y-117437153D01*
X61552954Y-117438162D01*
X61557375Y-117439306D01*
X61561723Y-117440584D01*
X61565999Y-117441996D01*
X61570201Y-117443544D01*
X61574331Y-117445225D01*
X61578389Y-117447041D01*
X61582374Y-117448992D01*
X61586286Y-117451077D01*
X61590087Y-117453299D01*
X61593827Y-117455658D01*
X61597504Y-117458154D01*
X61601120Y-117460788D01*
X61604674Y-117463559D01*
X61608166Y-117466467D01*
X61611596Y-117469512D01*
X61614965Y-117472695D01*
X61618271Y-117476015D01*
X61621516Y-117479472D01*
X61624698Y-117483067D01*
X61627819Y-117486799D01*
X61630878Y-117490668D01*
X61633875Y-117494674D01*
X61636810Y-117498818D01*
X61639684Y-117503099D01*
X61639684Y-117292947D01*
X61703418Y-117292947D01*
X61703418Y-117829005D01*
G37*
G36*
X61933659Y-117434056D02*
G01*
X61944493Y-117434690D01*
X61955029Y-117435747D01*
X61965266Y-117437225D01*
X61975204Y-117439127D01*
X61984844Y-117441451D01*
X61994185Y-117444197D01*
X62003227Y-117447366D01*
X62011970Y-117450958D01*
X62020415Y-117454972D01*
X62028560Y-117459409D01*
X62036407Y-117464268D01*
X62043955Y-117469550D01*
X62051205Y-117475255D01*
X62058156Y-117481382D01*
X62064807Y-117487931D01*
X62071065Y-117494850D01*
X62076920Y-117502083D01*
X62082370Y-117509631D01*
X62087417Y-117517494D01*
X62092060Y-117525672D01*
X62096299Y-117534165D01*
X62100135Y-117542973D01*
X62103566Y-117552096D01*
X62106594Y-117561534D01*
X62109219Y-117571286D01*
X62111439Y-117581354D01*
X62113256Y-117591736D01*
X62114669Y-117602433D01*
X62115678Y-117613446D01*
X62116284Y-117624773D01*
X62116486Y-117636415D01*
X62116285Y-117647892D01*
X62115684Y-117659072D01*
X62114681Y-117669952D01*
X62113278Y-117680533D01*
X62111473Y-117690816D01*
X62109267Y-117700800D01*
X62106660Y-117710485D01*
X62103653Y-117719872D01*
X62100244Y-117728960D01*
X62096434Y-117737749D01*
X62092223Y-117746239D01*
X62087611Y-117754430D01*
X62082599Y-117762323D01*
X62077185Y-117769917D01*
X62071370Y-117777212D01*
X62065154Y-117784208D01*
X62058597Y-117790842D01*
X62051761Y-117797047D01*
X62044645Y-117802824D01*
X62037249Y-117808174D01*
X62029572Y-117813095D01*
X62021616Y-117817589D01*
X62013380Y-117821654D01*
X62004864Y-117825292D01*
X61996069Y-117828501D01*
X61986993Y-117831283D01*
X61977637Y-117833637D01*
X61968002Y-117835562D01*
X61958086Y-117837060D01*
X61947891Y-117838130D01*
X61937416Y-117838772D01*
X61926660Y-117838986D01*
X61918710Y-117838889D01*
X61910879Y-117838598D01*
X61903165Y-117838114D01*
X61895570Y-117837436D01*
X61888094Y-117836564D01*
X61880735Y-117835499D01*
X61873495Y-117834239D01*
X61866373Y-117832786D01*
X61859256Y-117831139D01*
X61852204Y-117829298D01*
X61845217Y-117827264D01*
X61838294Y-117825035D01*
X61831436Y-117822613D01*
X61824643Y-117819998D01*
X61817914Y-117817189D01*
X61811251Y-117814186D01*
X61811251Y-117755619D01*
X61817974Y-117759209D01*
X61824708Y-117762573D01*
X61831453Y-117765711D01*
X61838209Y-117768623D01*
X61844975Y-117771309D01*
X61851752Y-117773769D01*
X61858540Y-117776004D01*
X61865338Y-117778012D01*
X61872067Y-117779708D01*
X61878818Y-117781179D01*
X61885590Y-117782423D01*
X61892383Y-117783442D01*
X61899198Y-117784234D01*
X61906034Y-117784799D01*
X61912892Y-117785139D01*
X61919771Y-117785252D01*
X61927372Y-117785100D01*
X61934757Y-117784644D01*
X61941928Y-117783883D01*
X61948882Y-117782819D01*
X61955622Y-117781450D01*
X61962146Y-117779778D01*
X61968455Y-117777801D01*
X61974548Y-117775520D01*
X61980426Y-117772935D01*
X61986089Y-117770045D01*
X61991537Y-117766852D01*
X61996769Y-117763354D01*
X62001786Y-117759552D01*
X62006587Y-117755447D01*
X62011174Y-117751036D01*
X62015544Y-117746322D01*
X62019674Y-117741291D01*
X62023538Y-117736014D01*
X62027135Y-117730492D01*
X62030466Y-117724726D01*
X62033530Y-117718715D01*
X62036328Y-117712459D01*
X62038859Y-117705957D01*
X62041124Y-117699211D01*
X62043123Y-117692221D01*
X62044855Y-117684985D01*
X62046320Y-117677504D01*
X62047519Y-117669778D01*
X62048452Y-117661808D01*
X62049118Y-117653592D01*
X62049518Y-117645132D01*
X62049651Y-117636427D01*
X62049518Y-117627722D01*
X62049118Y-117619266D01*
X62048452Y-117611056D01*
X62047519Y-117603095D01*
X62046320Y-117595381D01*
X62044855Y-117587915D01*
X62043123Y-117580696D01*
X62041124Y-117573725D01*
X62038859Y-117567001D01*
X62036328Y-117560525D01*
X62033530Y-117554297D01*
X62030466Y-117548317D01*
X62027135Y-117542584D01*
X62023538Y-117537098D01*
X62019674Y-117531860D01*
X62015544Y-117526870D01*
X62011174Y-117522114D01*
X62006587Y-117517665D01*
X62001786Y-117513523D01*
X61996769Y-117509688D01*
X61991537Y-117506159D01*
X61986089Y-117502938D01*
X61980426Y-117500023D01*
X61974548Y-117497415D01*
X61968455Y-117495113D01*
X61962146Y-117493119D01*
X61955622Y-117491431D01*
X61948882Y-117490050D01*
X61941928Y-117488976D01*
X61934757Y-117488209D01*
X61927372Y-117487749D01*
X61919771Y-117487596D01*
X61912892Y-117487714D01*
X61906034Y-117488069D01*
X61899198Y-117488662D01*
X61892383Y-117489491D01*
X61885590Y-117490557D01*
X61878818Y-117491860D01*
X61872067Y-117493400D01*
X61865338Y-117495176D01*
X61858540Y-117497102D01*
X61851752Y-117499265D01*
X61844975Y-117501665D01*
X61838209Y-117504302D01*
X61831453Y-117507176D01*
X61824708Y-117510288D01*
X61817974Y-117513637D01*
X61811251Y-117517224D01*
X61811251Y-117457969D01*
X61811249Y-117457965D01*
X61817822Y-117455047D01*
X61824448Y-117452322D01*
X61831128Y-117449792D01*
X61837862Y-117447455D01*
X61844650Y-117445311D01*
X61851492Y-117443362D01*
X61858387Y-117441607D01*
X61865337Y-117440045D01*
X61872334Y-117438592D01*
X61879375Y-117437332D01*
X61886459Y-117436267D01*
X61893586Y-117435395D01*
X61900756Y-117434717D01*
X61907969Y-117434233D01*
X61915226Y-117433942D01*
X61922525Y-117433845D01*
X61933659Y-117434056D01*
G37*
G36*
X63462282Y-117433952D02*
G01*
X63470773Y-117434299D01*
X63479012Y-117434878D01*
X63486997Y-117435688D01*
X63494729Y-117436729D01*
X63502209Y-117438002D01*
X63509435Y-117439507D01*
X63516409Y-117441243D01*
X63523130Y-117443210D01*
X63529597Y-117445409D01*
X63535812Y-117447840D01*
X63541774Y-117450501D01*
X63547482Y-117453395D01*
X63552938Y-117456520D01*
X63558141Y-117459876D01*
X63563091Y-117463464D01*
X63567763Y-117467264D01*
X63572135Y-117471259D01*
X63576204Y-117475447D01*
X63579973Y-117479828D01*
X63583439Y-117484404D01*
X63586605Y-117489173D01*
X63589468Y-117494136D01*
X63592031Y-117499293D01*
X63594292Y-117504644D01*
X63596251Y-117510188D01*
X63597909Y-117515927D01*
X63599266Y-117521859D01*
X63600321Y-117527984D01*
X63601074Y-117534304D01*
X63601527Y-117540817D01*
X63601677Y-117547525D01*
X63601575Y-117553049D01*
X63601268Y-117558425D01*
X63600757Y-117563653D01*
X63600041Y-117568733D01*
X63599120Y-117573665D01*
X63597995Y-117578449D01*
X63596665Y-117583085D01*
X63595131Y-117587573D01*
X63593392Y-117591913D01*
X63591449Y-117596105D01*
X63589301Y-117600149D01*
X63586949Y-117604045D01*
X63584392Y-117607793D01*
X63581630Y-117611393D01*
X63578664Y-117614845D01*
X63575493Y-117618148D01*
X63572093Y-117621284D01*
X63568436Y-117624318D01*
X63564524Y-117627249D01*
X63560357Y-117630079D01*
X63555933Y-117632805D01*
X63551254Y-117635430D01*
X63546319Y-117637952D01*
X63541129Y-117640371D01*
X63535683Y-117642689D01*
X63529981Y-117644904D01*
X63524023Y-117647017D01*
X63517810Y-117649027D01*
X63511341Y-117650935D01*
X63504616Y-117652741D01*
X63497636Y-117654444D01*
X63490399Y-117656045D01*
X63468352Y-117661225D01*
X63461150Y-117662823D01*
X63454274Y-117664428D01*
X63447724Y-117666042D01*
X63441500Y-117667663D01*
X63435601Y-117669293D01*
X63430028Y-117670931D01*
X63424781Y-117672577D01*
X63419860Y-117674231D01*
X63415264Y-117675893D01*
X63410995Y-117677563D01*
X63407051Y-117679241D01*
X63403432Y-117680927D01*
X63400140Y-117682621D01*
X63397173Y-117684324D01*
X63394532Y-117686034D01*
X63392217Y-117687753D01*
X63390088Y-117689523D01*
X63388096Y-117691386D01*
X63386242Y-117693344D01*
X63384525Y-117695397D01*
X63382946Y-117697543D01*
X63381504Y-117699784D01*
X63380199Y-117702118D01*
X63379032Y-117704547D01*
X63378002Y-117707071D01*
X63377109Y-117709688D01*
X63376354Y-117712400D01*
X63375736Y-117715205D01*
X63375255Y-117718105D01*
X63374912Y-117721100D01*
X63374706Y-117724188D01*
X63374637Y-117727371D01*
X63374731Y-117730811D01*
X63375014Y-117734154D01*
X63375226Y-117735789D01*
X63375485Y-117737400D01*
X63375791Y-117738987D01*
X63376144Y-117740549D01*
X63376545Y-117742087D01*
X63376992Y-117743602D01*
X63377487Y-117745091D01*
X63378028Y-117746557D01*
X63378617Y-117747998D01*
X63379253Y-117749415D01*
X63379936Y-117750808D01*
X63380666Y-117752177D01*
X63381443Y-117753521D01*
X63382267Y-117754841D01*
X63383138Y-117756137D01*
X63384057Y-117757409D01*
X63385022Y-117758656D01*
X63386035Y-117759880D01*
X63387094Y-117761079D01*
X63388201Y-117762253D01*
X63389355Y-117763404D01*
X63390556Y-117764530D01*
X63393099Y-117766710D01*
X63395831Y-117768793D01*
X63398751Y-117770779D01*
X63401846Y-117772615D01*
X63405103Y-117774332D01*
X63408521Y-117775931D01*
X63412101Y-117777411D01*
X63415842Y-117778773D01*
X63419745Y-117780017D01*
X63423809Y-117781142D01*
X63428035Y-117782149D01*
X63432422Y-117783037D01*
X63436971Y-117783807D01*
X63441681Y-117784458D01*
X63446552Y-117784991D01*
X63451585Y-117785406D01*
X63456780Y-117785702D01*
X63462136Y-117785879D01*
X63467653Y-117785939D01*
X63476019Y-117785799D01*
X63484406Y-117785379D01*
X63492814Y-117784679D01*
X63501244Y-117783699D01*
X63509695Y-117782439D01*
X63518168Y-117780899D01*
X63526662Y-117779079D01*
X63535178Y-117776979D01*
X63543721Y-117774513D01*
X63552296Y-117771768D01*
X63560904Y-117768743D01*
X63569544Y-117765437D01*
X63578216Y-117761852D01*
X63586920Y-117757987D01*
X63595656Y-117753842D01*
X63604425Y-117749417D01*
X63604425Y-117814875D01*
X63595183Y-117817793D01*
X63586059Y-117820518D01*
X63577053Y-117823049D01*
X63568166Y-117825385D01*
X63559397Y-117827529D01*
X63550746Y-117829478D01*
X63542214Y-117831234D01*
X63533800Y-117832795D01*
X63525403Y-117834248D01*
X63517091Y-117835508D01*
X63508866Y-117836573D01*
X63500727Y-117837445D01*
X63492675Y-117838123D01*
X63484708Y-117838608D01*
X63476827Y-117838898D01*
X63469033Y-117838995D01*
X63459856Y-117838872D01*
X63450930Y-117838505D01*
X63442254Y-117837893D01*
X63433828Y-117837035D01*
X63425653Y-117835933D01*
X63417728Y-117834586D01*
X63410053Y-117832994D01*
X63402628Y-117831157D01*
X63395454Y-117829075D01*
X63388531Y-117826748D01*
X63381857Y-117824177D01*
X63375434Y-117821360D01*
X63369261Y-117818298D01*
X63363339Y-117814992D01*
X63357667Y-117811441D01*
X63352245Y-117807644D01*
X63347072Y-117803638D01*
X63342232Y-117799457D01*
X63337727Y-117795101D01*
X63333555Y-117790570D01*
X63329717Y-117785864D01*
X63326212Y-117780983D01*
X63323042Y-117775927D01*
X63320205Y-117770696D01*
X63317702Y-117765290D01*
X63315532Y-117759709D01*
X63313697Y-117753953D01*
X63312195Y-117748023D01*
X63311027Y-117741917D01*
X63310192Y-117735637D01*
X63309692Y-117729181D01*
X63309525Y-117722551D01*
X63309637Y-117716733D01*
X63309972Y-117711079D01*
X63310530Y-117705590D01*
X63311312Y-117700265D01*
X63312317Y-117695104D01*
X63313546Y-117690108D01*
X63314998Y-117685275D01*
X63316674Y-117680607D01*
X63318573Y-117676103D01*
X63320695Y-117671763D01*
X63323041Y-117667587D01*
X63325610Y-117663575D01*
X63328403Y-117659728D01*
X63331419Y-117656045D01*
X63334658Y-117652526D01*
X63338121Y-117649171D01*
X63341806Y-117645904D01*
X63345797Y-117642730D01*
X63350095Y-117639651D01*
X63354700Y-117636665D01*
X63359611Y-117633774D01*
X63364830Y-117630976D01*
X63370355Y-117628273D01*
X63376188Y-117625664D01*
X63382327Y-117623148D01*
X63388773Y-117620727D01*
X63395526Y-117618400D01*
X63402586Y-117616167D01*
X63409952Y-117614027D01*
X63417626Y-117611982D01*
X63425606Y-117610031D01*
X63433893Y-117608174D01*
X63455597Y-117603353D01*
X63461838Y-117601928D01*
X63467812Y-117600495D01*
X63473519Y-117599053D01*
X63478960Y-117597604D01*
X63484135Y-117596146D01*
X63489043Y-117594681D01*
X63493685Y-117593207D01*
X63498060Y-117591725D01*
X63502168Y-117590236D01*
X63506010Y-117588738D01*
X63509586Y-117587232D01*
X63512895Y-117585718D01*
X63515938Y-117584197D01*
X63518714Y-117582667D01*
X63521224Y-117581129D01*
X63523467Y-117579583D01*
X63525511Y-117577953D01*
X63527423Y-117576251D01*
X63529203Y-117574476D01*
X63530852Y-117572628D01*
X63532368Y-117570707D01*
X63533753Y-117568714D01*
X63535006Y-117566649D01*
X63536126Y-117564510D01*
X63537115Y-117562299D01*
X63537973Y-117560015D01*
X63538698Y-117557659D01*
X63539291Y-117555230D01*
X63539753Y-117552728D01*
X63540082Y-117550154D01*
X63540280Y-117547507D01*
X63540346Y-117544787D01*
X63540255Y-117541225D01*
X63539980Y-117537777D01*
X63539774Y-117536095D01*
X63539523Y-117534441D01*
X63539225Y-117532816D01*
X63538882Y-117531219D01*
X63538493Y-117529650D01*
X63538059Y-117528110D01*
X63537578Y-117526598D01*
X63537052Y-117525114D01*
X63536480Y-117523658D01*
X63535862Y-117522231D01*
X63535199Y-117520832D01*
X63534490Y-117519462D01*
X63533735Y-117518119D01*
X63532934Y-117516805D01*
X63532088Y-117515519D01*
X63531196Y-117514262D01*
X63530258Y-117513033D01*
X63529274Y-117511832D01*
X63528245Y-117510659D01*
X63527170Y-117509515D01*
X63526049Y-117508399D01*
X63524882Y-117507311D01*
X63523669Y-117506252D01*
X63522411Y-117505221D01*
X63521107Y-117504218D01*
X63519758Y-117503243D01*
X63518362Y-117502297D01*
X63516921Y-117501379D01*
X63513858Y-117499625D01*
X63510612Y-117497985D01*
X63507183Y-117496458D01*
X63503571Y-117495044D01*
X63499776Y-117493743D01*
X63495798Y-117492555D01*
X63491636Y-117491480D01*
X63487292Y-117490518D01*
X63482765Y-117489670D01*
X63478055Y-117488935D01*
X63473162Y-117488312D01*
X63468085Y-117487803D01*
X63462826Y-117487407D01*
X63457384Y-117487125D01*
X63451759Y-117486955D01*
X63445951Y-117486898D01*
X63438231Y-117487006D01*
X63430577Y-117487330D01*
X63422987Y-117487869D01*
X63415461Y-117488623D01*
X63408001Y-117489593D01*
X63400605Y-117490779D01*
X63393273Y-117492181D01*
X63386006Y-117493798D01*
X63378804Y-117495628D01*
X63371667Y-117497674D01*
X63364594Y-117499934D01*
X63357585Y-117502410D01*
X63350641Y-117505102D01*
X63343761Y-117508008D01*
X63336946Y-117511130D01*
X63330196Y-117514468D01*
X63330196Y-117454524D01*
X63330204Y-117454516D01*
X63336824Y-117452016D01*
X63343596Y-117449677D01*
X63350518Y-117447499D01*
X63357592Y-117445481D01*
X63364816Y-117443624D01*
X63372190Y-117441927D01*
X63379716Y-117440392D01*
X63387392Y-117439016D01*
X63395208Y-117437802D01*
X63403153Y-117436750D01*
X63411228Y-117435860D01*
X63419431Y-117435131D01*
X63427764Y-117434565D01*
X63436226Y-117434160D01*
X63444817Y-117433917D01*
X63453537Y-117433836D01*
X63462282Y-117433952D01*
G37*
G36*
X61214896Y-116060533D02*
G01*
X61214820Y-116486343D01*
X61163622Y-116486343D01*
X61112424Y-116486343D01*
X61112424Y-116270880D01*
X61112424Y-116055416D01*
X61101764Y-116038700D01*
X61091104Y-116021984D01*
X61071524Y-116003807D01*
X61051944Y-115985629D01*
X61035004Y-115977598D01*
X61018064Y-115969567D01*
X60997910Y-115965602D01*
X60977756Y-115961636D01*
X60953112Y-115963456D01*
X60928466Y-115965277D01*
X60913445Y-115970565D01*
X60898424Y-115975854D01*
X60884024Y-115988581D01*
X60869625Y-116001309D01*
X60861605Y-116018341D01*
X60853585Y-116035373D01*
X60850264Y-116055984D01*
X60846944Y-116076596D01*
X60846920Y-116281460D01*
X60846895Y-116486325D01*
X60795697Y-116486325D01*
X60744500Y-116486325D01*
X60744500Y-116285817D01*
X60744500Y-116085310D01*
X60747820Y-116052763D01*
X60751140Y-116020216D01*
X60757781Y-115998594D01*
X60764421Y-115976973D01*
X60772422Y-115961079D01*
X60780422Y-115945185D01*
X60797782Y-115926916D01*
X60815142Y-115908644D01*
X60833422Y-115898901D01*
X60851702Y-115889158D01*
X60870902Y-115884013D01*
X60890102Y-115878868D01*
X60920642Y-115876864D01*
X60951183Y-115874861D01*
X60973441Y-115878643D01*
X60995699Y-115882426D01*
X61015499Y-115888928D01*
X61035318Y-115895430D01*
X61055509Y-115908386D01*
X61075699Y-115921342D01*
X61094100Y-115939421D01*
X61112500Y-115957499D01*
X61112500Y-115796118D01*
X61112500Y-115634736D01*
X61163698Y-115634736D01*
X61214896Y-115634736D01*
X61214896Y-116060533D01*
G37*
%TO.C,kibuzzard-6A563B65*%
G36*
X51783737Y-119117771D02*
G01*
X51855223Y-119230452D01*
X51889149Y-119396446D01*
X51895510Y-119494588D01*
X51897630Y-119600000D01*
X51895510Y-119705715D01*
X51889149Y-119804766D01*
X51855223Y-119970759D01*
X51783737Y-120082229D01*
X51660151Y-120123425D01*
X51537776Y-120082229D01*
X51465078Y-119969548D01*
X51431152Y-119803554D01*
X51424791Y-119705412D01*
X51422671Y-119600000D01*
X51424791Y-119494285D01*
X51431152Y-119395234D01*
X51465078Y-119229241D01*
X51536564Y-119117771D01*
X51660151Y-119076575D01*
X51783737Y-119117771D01*
G37*
G36*
X56239161Y-118634267D02*
G01*
X56423875Y-118690300D01*
X56594109Y-118781291D01*
X56743320Y-118903745D01*
X56865774Y-119052956D01*
X56956765Y-119223190D01*
X57012798Y-119407904D01*
X57031718Y-119600000D01*
X57012798Y-119792096D01*
X56956765Y-119976810D01*
X56865774Y-120147044D01*
X56743320Y-120296255D01*
X56594109Y-120418709D01*
X56423875Y-120509700D01*
X56239161Y-120565733D01*
X56047065Y-120584653D01*
X55845126Y-120584653D01*
X54744965Y-120584653D01*
X54558374Y-120584653D01*
X52915401Y-120584653D01*
X51657727Y-120584653D01*
X51119763Y-120584653D01*
X50917824Y-120584653D01*
X50917824Y-119600000D01*
X51119763Y-119600000D01*
X51128547Y-119781972D01*
X51154900Y-119940166D01*
X51198822Y-120074581D01*
X51260312Y-120185218D01*
X51366936Y-120294938D01*
X51499408Y-120360770D01*
X51657727Y-120382714D01*
X51819951Y-120360770D01*
X51954443Y-120294938D01*
X52061201Y-120185218D01*
X52122161Y-120074581D01*
X52165214Y-119941680D01*
X52362897Y-119941680D01*
X52397126Y-120128574D01*
X52499811Y-120267609D01*
X52606839Y-120331556D01*
X52745369Y-120369925D01*
X52915401Y-120382714D01*
X53083212Y-120372718D01*
X53213462Y-120342730D01*
X53380668Y-120268821D01*
X53293430Y-120026494D01*
X53137130Y-120099192D01*
X53036261Y-120124637D01*
X52915401Y-120133118D01*
X52790603Y-120117367D01*
X52711847Y-120073748D01*
X52671863Y-120010743D01*
X52660958Y-119939257D01*
X52687614Y-119856866D01*
X52755466Y-119792649D01*
X52847550Y-119741761D01*
X52949327Y-119699354D01*
X53089876Y-119643619D01*
X53221944Y-119563651D01*
X53320086Y-119443700D01*
X53358858Y-119265590D01*
X53328384Y-119098384D01*
X53606031Y-119098384D01*
X53930748Y-119098384D01*
X53930748Y-120104039D01*
X53606031Y-120104039D01*
X53606031Y-120351212D01*
X54558374Y-120351212D01*
X54744965Y-120351212D01*
X55018794Y-120351212D01*
X55004254Y-119185622D01*
X55188422Y-119820517D01*
X55406516Y-119820517D01*
X55583414Y-119185622D01*
X55571298Y-120351212D01*
X55845126Y-120351212D01*
X55837554Y-120163409D01*
X55829375Y-119968336D01*
X55820591Y-119770234D01*
X55811201Y-119573344D01*
X55800599Y-119380089D01*
X55788180Y-119192892D01*
X55773943Y-119015388D01*
X55757889Y-118851212D01*
X55510716Y-118851212D01*
X55468309Y-118982068D01*
X55413786Y-119154120D01*
X55355627Y-119340711D01*
X55299892Y-119515186D01*
X55239311Y-119329806D01*
X55178729Y-119145638D01*
X55125417Y-118979645D01*
X55081798Y-118851212D01*
X54834626Y-118851212D01*
X54817966Y-119045073D01*
X54801912Y-119234087D01*
X54787372Y-119419770D01*
X54775256Y-119603635D01*
X54765260Y-119787197D01*
X54757081Y-119971971D01*
X54750417Y-120159471D01*
X54744965Y-120351212D01*
X54558374Y-120351212D01*
X54558374Y-120104039D01*
X54231233Y-120104039D01*
X54231233Y-119098384D01*
X54558374Y-119098384D01*
X54558374Y-118851212D01*
X53606031Y-118851212D01*
X53606031Y-119098384D01*
X53328384Y-119098384D01*
X53324630Y-119077787D01*
X53221944Y-118936026D01*
X53119224Y-118870059D01*
X52993619Y-118830479D01*
X52845126Y-118817286D01*
X52715785Y-118825162D01*
X52604012Y-118848788D01*
X52430748Y-118919063D01*
X52517986Y-119149273D01*
X52652477Y-119091115D01*
X52823317Y-119066882D01*
X52955250Y-119085999D01*
X53034410Y-119143349D01*
X53060797Y-119238934D01*
X53036564Y-119315267D01*
X52974771Y-119373425D01*
X52889957Y-119418255D01*
X52796661Y-119454604D01*
X52650054Y-119513974D01*
X52509504Y-119601212D01*
X52404092Y-119736914D01*
X52373196Y-119828695D01*
X52362897Y-119941680D01*
X52165214Y-119941680D01*
X52165704Y-119940166D01*
X52191830Y-119781972D01*
X52200538Y-119600000D01*
X52191603Y-119418028D01*
X52164795Y-119259834D01*
X52120116Y-119125419D01*
X52057566Y-119014782D01*
X51949865Y-118905062D01*
X51817394Y-118839230D01*
X51660151Y-118817286D01*
X51498061Y-118839230D01*
X51363974Y-118905062D01*
X51257889Y-119014782D01*
X51197459Y-119125419D01*
X51154294Y-119259834D01*
X51128396Y-119418028D01*
X51119763Y-119600000D01*
X50917824Y-119600000D01*
X50917824Y-118615347D01*
X51119763Y-118615347D01*
X55845126Y-118615347D01*
X56047065Y-118615347D01*
X56239161Y-118634267D01*
G37*
D11*
%TO.C,J2*%
X70780000Y-110680000D02*
X70780000Y-128570000D01*
X73540000Y-108030000D02*
X72160000Y-108030000D01*
X73540000Y-109410000D02*
X73540000Y-108030000D01*
X73540000Y-110680000D02*
X70780000Y-110680000D01*
X73540000Y-110680000D02*
X73540000Y-128570000D01*
X73540000Y-128570000D02*
X70780000Y-128570000D01*
D10*
%TO.C,kibuzzard-6A563B71*%
G36*
X54143995Y-121684438D02*
G01*
X54215481Y-121797119D01*
X54249407Y-121963113D01*
X54255768Y-122061255D01*
X54257888Y-122166667D01*
X54255768Y-122272382D01*
X54249407Y-122371433D01*
X54215481Y-122537426D01*
X54143995Y-122648896D01*
X54020409Y-122690092D01*
X53898034Y-122648896D01*
X53825336Y-122536215D01*
X53791410Y-122370221D01*
X53785049Y-122272079D01*
X53782929Y-122166667D01*
X53785049Y-122060952D01*
X53791410Y-121961901D01*
X53825336Y-121795908D01*
X53896822Y-121684438D01*
X54020409Y-121643242D01*
X54143995Y-121684438D01*
G37*
G36*
X56176156Y-121200934D02*
G01*
X56360870Y-121256967D01*
X56531103Y-121347958D01*
X56680314Y-121470412D01*
X56802768Y-121619623D01*
X56893760Y-121789857D01*
X56949792Y-121974571D01*
X56968712Y-122166667D01*
X56949792Y-122358763D01*
X56893760Y-122543477D01*
X56802768Y-122713711D01*
X56680314Y-122862922D01*
X56531103Y-122985376D01*
X56360870Y-123076367D01*
X56176156Y-123132400D01*
X55984060Y-123151320D01*
X55782121Y-123151320D01*
X54681959Y-123151320D01*
X54017985Y-123151320D01*
X52852396Y-123151320D01*
X52072105Y-123151320D01*
X51119762Y-123151320D01*
X50917824Y-123151320D01*
X50917824Y-121665051D01*
X51119762Y-121665051D01*
X51444480Y-121665051D01*
X51444480Y-122670706D01*
X51119762Y-122670706D01*
X51119762Y-122917879D01*
X52072105Y-122917879D01*
X52072105Y-122670706D01*
X51744964Y-122670706D01*
X51744964Y-122508347D01*
X52299892Y-122508347D01*
X52334120Y-122695241D01*
X52436806Y-122834276D01*
X52543833Y-122898223D01*
X52682363Y-122936592D01*
X52852396Y-122949381D01*
X53020207Y-122939385D01*
X53150457Y-122909397D01*
X53317662Y-122835488D01*
X53230425Y-122593161D01*
X53074124Y-122665859D01*
X52973256Y-122691304D01*
X52852396Y-122699785D01*
X52727598Y-122684034D01*
X52648842Y-122640415D01*
X52608858Y-122577410D01*
X52597953Y-122505924D01*
X52624609Y-122423533D01*
X52692460Y-122359316D01*
X52784544Y-122308428D01*
X52886321Y-122266021D01*
X53026871Y-122210286D01*
X53098908Y-122166667D01*
X53480021Y-122166667D01*
X53488805Y-122348639D01*
X53515158Y-122506833D01*
X53559080Y-122641248D01*
X53620570Y-122751885D01*
X53727194Y-122861605D01*
X53859665Y-122927437D01*
X54017985Y-122949381D01*
X54180209Y-122927437D01*
X54199735Y-122917879D01*
X54681959Y-122917879D01*
X54955788Y-122917879D01*
X54941249Y-121752289D01*
X55125417Y-122387184D01*
X55343510Y-122387184D01*
X55520409Y-121752289D01*
X55508292Y-122917879D01*
X55782121Y-122917879D01*
X55774548Y-122730076D01*
X55766370Y-122535003D01*
X55757585Y-122336901D01*
X55748195Y-122140011D01*
X55737594Y-121946756D01*
X55725174Y-121759559D01*
X55710938Y-121582055D01*
X55694884Y-121417879D01*
X55447711Y-121417879D01*
X55405304Y-121548735D01*
X55350780Y-121720787D01*
X55292622Y-121907378D01*
X55236887Y-122081853D01*
X55176305Y-121896473D01*
X55115724Y-121712305D01*
X55062412Y-121546312D01*
X55018793Y-121417879D01*
X54771620Y-121417879D01*
X54754960Y-121611740D01*
X54738906Y-121800754D01*
X54724367Y-121986437D01*
X54712250Y-122170302D01*
X54702254Y-122353864D01*
X54694076Y-122538638D01*
X54687412Y-122726138D01*
X54681959Y-122917879D01*
X54199735Y-122917879D01*
X54314700Y-122861605D01*
X54421459Y-122751885D01*
X54482419Y-122641248D01*
X54525962Y-122506833D01*
X54552088Y-122348639D01*
X54560796Y-122166667D01*
X54551860Y-121984695D01*
X54525053Y-121826501D01*
X54480374Y-121692086D01*
X54417824Y-121581449D01*
X54310123Y-121471729D01*
X54177651Y-121405897D01*
X54020409Y-121383953D01*
X53858319Y-121405897D01*
X53724232Y-121471729D01*
X53618147Y-121581449D01*
X53557717Y-121692086D01*
X53514552Y-121826501D01*
X53488654Y-121984695D01*
X53480021Y-122166667D01*
X53098908Y-122166667D01*
X53158938Y-122130318D01*
X53257081Y-122010367D01*
X53295853Y-121832257D01*
X53261624Y-121644454D01*
X53158938Y-121502693D01*
X53056219Y-121436726D01*
X52930613Y-121397146D01*
X52782121Y-121383953D01*
X52652779Y-121391829D01*
X52541006Y-121415455D01*
X52367743Y-121485730D01*
X52454980Y-121715940D01*
X52589472Y-121657782D01*
X52760312Y-121633549D01*
X52892245Y-121652666D01*
X52971405Y-121710016D01*
X52997791Y-121805601D01*
X52973559Y-121881934D01*
X52911766Y-121940092D01*
X52826951Y-121984922D01*
X52733656Y-122021271D01*
X52587048Y-122080641D01*
X52446499Y-122167879D01*
X52341087Y-122303581D01*
X52310190Y-122395362D01*
X52299892Y-122508347D01*
X51744964Y-122508347D01*
X51744964Y-121665051D01*
X52072105Y-121665051D01*
X52072105Y-121417879D01*
X51119762Y-121417879D01*
X51119762Y-121665051D01*
X50917824Y-121665051D01*
X50917824Y-121182014D01*
X51119762Y-121182014D01*
X55782121Y-121182014D01*
X55984060Y-121182014D01*
X56176156Y-121200934D01*
G37*
%TO.C,kibuzzard-6A563B41*%
G36*
X53774702Y-113500934D02*
G01*
X53959416Y-113556967D01*
X54129649Y-113647958D01*
X54278860Y-113770412D01*
X54401314Y-113919623D01*
X54492306Y-114089857D01*
X54548338Y-114274571D01*
X54567258Y-114466667D01*
X54548338Y-114658763D01*
X54492306Y-114843477D01*
X54401314Y-115013711D01*
X54278860Y-115162922D01*
X54129649Y-115285376D01*
X53959416Y-115376367D01*
X53774702Y-115432400D01*
X53582606Y-115451320D01*
X53380667Y-115451320D01*
X52728809Y-115451320D01*
X51672266Y-115451320D01*
X51119762Y-115451320D01*
X50917824Y-115451320D01*
X50917824Y-114808347D01*
X51119762Y-114808347D01*
X51153991Y-114995241D01*
X51256677Y-115134276D01*
X51363704Y-115198223D01*
X51502234Y-115236592D01*
X51672266Y-115249381D01*
X51840077Y-115239385D01*
X51970328Y-115209397D01*
X52115604Y-115145181D01*
X52309585Y-115145181D01*
X52480425Y-115216667D01*
X52596438Y-115241203D01*
X52728809Y-115249381D01*
X52923747Y-115226764D01*
X53085298Y-115158913D01*
X53213462Y-115045827D01*
X53286614Y-114933297D01*
X53338866Y-114799260D01*
X53370217Y-114643717D01*
X53380667Y-114466667D01*
X53367945Y-114290375D01*
X53329778Y-114134680D01*
X53268894Y-114000492D01*
X53188018Y-113888719D01*
X53088664Y-113800270D01*
X52972347Y-113736053D01*
X52841794Y-113696978D01*
X52699730Y-113683953D01*
X52555546Y-113697281D01*
X52442864Y-113727572D01*
X52361685Y-113763921D01*
X52312008Y-113793000D01*
X52389552Y-114030480D01*
X52524043Y-113968686D01*
X52704577Y-113943242D01*
X52841491Y-113968686D01*
X52960231Y-114053501D01*
X53045045Y-114212224D01*
X53069581Y-114323694D01*
X53077759Y-114459397D01*
X53067931Y-114617313D01*
X53038448Y-114748573D01*
X52989310Y-114853178D01*
X52872690Y-114955863D01*
X52699730Y-114990092D01*
X52507081Y-114963436D01*
X52384706Y-114910124D01*
X52309585Y-115145181D01*
X52115604Y-115145181D01*
X52137533Y-115135488D01*
X52050295Y-114893161D01*
X51893995Y-114965859D01*
X51793127Y-114991304D01*
X51672266Y-114999785D01*
X51547468Y-114984034D01*
X51468712Y-114940415D01*
X51428728Y-114877410D01*
X51417824Y-114805924D01*
X51444480Y-114723533D01*
X51512331Y-114659316D01*
X51604415Y-114608428D01*
X51706192Y-114566021D01*
X51846741Y-114510286D01*
X51978809Y-114430318D01*
X52076951Y-114310367D01*
X52115724Y-114132257D01*
X52081495Y-113944454D01*
X51978809Y-113802693D01*
X51876090Y-113736726D01*
X51750484Y-113697146D01*
X51601992Y-113683953D01*
X51472650Y-113691829D01*
X51360877Y-113715455D01*
X51187614Y-113785730D01*
X51274851Y-114015940D01*
X51409342Y-113957782D01*
X51580182Y-113933549D01*
X51712116Y-113952666D01*
X51791276Y-114010016D01*
X51817662Y-114105601D01*
X51793430Y-114181934D01*
X51731636Y-114240092D01*
X51646822Y-114284922D01*
X51553526Y-114321271D01*
X51406919Y-114380641D01*
X51266370Y-114467879D01*
X51160958Y-114603581D01*
X51130061Y-114695362D01*
X51119762Y-114808347D01*
X50917824Y-114808347D01*
X50917824Y-113482014D01*
X51119762Y-113482014D01*
X53380667Y-113482014D01*
X53582606Y-113482014D01*
X53774702Y-113500934D01*
G37*
%TO.C,kibuzzard-6A563B31*%
G36*
X52959019Y-111394750D02*
G01*
X53002638Y-111400808D01*
X53002638Y-112408885D01*
X52975982Y-112411309D01*
X52949326Y-112411309D01*
X52778486Y-112372536D01*
X52667016Y-112265913D01*
X52606435Y-112104766D01*
X52592804Y-112006926D01*
X52588260Y-111900000D01*
X52602800Y-111710985D01*
X52653688Y-111548627D01*
X52753042Y-111435945D01*
X52915401Y-111393538D01*
X52959019Y-111394750D01*
G37*
G36*
X54940292Y-110934267D02*
G01*
X55125006Y-110990300D01*
X55295239Y-111081291D01*
X55444450Y-111203745D01*
X55566904Y-111352956D01*
X55657896Y-111523190D01*
X55713928Y-111707904D01*
X55732848Y-111900000D01*
X55713928Y-112092096D01*
X55657896Y-112276810D01*
X55566904Y-112447044D01*
X55444450Y-112596255D01*
X55295239Y-112718709D01*
X55125006Y-112809700D01*
X54940292Y-112865733D01*
X54748195Y-112884653D01*
X54546257Y-112884653D01*
X54080990Y-112884653D01*
X52980829Y-112884653D01*
X51359666Y-112884653D01*
X51119762Y-112884653D01*
X50917824Y-112884653D01*
X50917824Y-112651212D01*
X51119762Y-112651212D01*
X51359666Y-112651212D01*
X51429536Y-112484949D01*
X51503446Y-112318955D01*
X51581394Y-112153231D01*
X51663381Y-111987507D01*
X51749407Y-111821513D01*
X51839472Y-111655250D01*
X51839472Y-112651212D01*
X52108454Y-112651212D01*
X52108454Y-111900000D01*
X52285352Y-111900000D01*
X52298377Y-112092952D01*
X52337452Y-112255008D01*
X52399548Y-112387985D01*
X52481636Y-112493700D01*
X52582505Y-112573364D01*
X52700942Y-112628191D01*
X52834524Y-112659996D01*
X52980829Y-112670598D01*
X53137129Y-112662116D01*
X53300699Y-112634249D01*
X53300699Y-112241680D01*
X53528486Y-112241680D01*
X53562715Y-112428574D01*
X53665401Y-112567609D01*
X53772428Y-112631556D01*
X53910958Y-112669925D01*
X54080990Y-112682714D01*
X54248801Y-112672718D01*
X54379052Y-112642730D01*
X54546257Y-112568821D01*
X54459019Y-112326494D01*
X54302719Y-112399192D01*
X54201851Y-112424637D01*
X54080990Y-112433118D01*
X53956192Y-112417367D01*
X53877436Y-112373748D01*
X53837452Y-112310743D01*
X53826548Y-112239257D01*
X53853204Y-112156866D01*
X53921055Y-112092649D01*
X54013139Y-112041761D01*
X54114916Y-111999354D01*
X54255465Y-111943619D01*
X54387533Y-111863651D01*
X54485675Y-111743700D01*
X54524447Y-111565590D01*
X54490219Y-111377787D01*
X54387533Y-111236026D01*
X54284814Y-111170059D01*
X54159208Y-111130479D01*
X54010716Y-111117286D01*
X53881374Y-111125162D01*
X53769601Y-111148788D01*
X53596338Y-111219063D01*
X53683575Y-111449273D01*
X53818066Y-111391115D01*
X53988906Y-111366882D01*
X54120840Y-111385999D01*
X54199999Y-111443349D01*
X54226386Y-111538934D01*
X54202153Y-111615267D01*
X54140360Y-111673425D01*
X54055546Y-111718255D01*
X53962250Y-111754604D01*
X53815643Y-111813974D01*
X53675094Y-111901212D01*
X53569682Y-112036914D01*
X53538785Y-112128695D01*
X53528486Y-112241680D01*
X53300699Y-112241680D01*
X53300699Y-111170598D01*
X53109262Y-111141519D01*
X52942057Y-111134249D01*
X52800599Y-111145153D01*
X52671863Y-111177868D01*
X52558878Y-111233905D01*
X52464674Y-111314782D01*
X52389250Y-111420800D01*
X52332606Y-111552262D01*
X52297166Y-111711288D01*
X52285352Y-111900000D01*
X52108454Y-111900000D01*
X52108454Y-111151212D01*
X51868551Y-111151212D01*
X51800699Y-111262379D01*
X51732848Y-111382633D01*
X51665905Y-111507128D01*
X51600780Y-111631018D01*
X51538987Y-111752787D01*
X51482040Y-111870921D01*
X51431455Y-111979968D01*
X51388745Y-112074475D01*
X51388745Y-111151212D01*
X51119762Y-111151212D01*
X51119762Y-112651212D01*
X50917824Y-112651212D01*
X50917824Y-110915347D01*
X51119762Y-110915347D01*
X54546257Y-110915347D01*
X54748195Y-110915347D01*
X54940292Y-110934267D01*
G37*
%TO.C,kibuzzard-6A563B88*%
G36*
X51793430Y-126794750D02*
G01*
X51837049Y-126800808D01*
X51837049Y-127808885D01*
X51810393Y-127811309D01*
X51783737Y-127811309D01*
X51612897Y-127772536D01*
X51501427Y-127665913D01*
X51440845Y-127504766D01*
X51427215Y-127406926D01*
X51422671Y-127300000D01*
X51437211Y-127110985D01*
X51488099Y-126948627D01*
X51587453Y-126835945D01*
X51749812Y-126793538D01*
X51793430Y-126794750D01*
G37*
G36*
X55482176Y-127300000D02*
G01*
X54825740Y-128284653D01*
X54623802Y-128284653D01*
X54010716Y-128284653D01*
X52617340Y-128284653D01*
X51815240Y-128284653D01*
X51119763Y-128284653D01*
X50917824Y-128284653D01*
X50917824Y-127300000D01*
X51119763Y-127300000D01*
X51132788Y-127492952D01*
X51171863Y-127655008D01*
X51233959Y-127787985D01*
X51316047Y-127893700D01*
X51416916Y-127973364D01*
X51535353Y-128028191D01*
X51668935Y-128059996D01*
X51815240Y-128070598D01*
X51971540Y-128062116D01*
X52035543Y-128051212D01*
X52377437Y-128051212D01*
X52617340Y-128051212D01*
X52687211Y-127884949D01*
X52761120Y-127718955D01*
X52839068Y-127553231D01*
X52921055Y-127387507D01*
X53007081Y-127221513D01*
X53097146Y-127055250D01*
X53097146Y-128051212D01*
X53366128Y-128051212D01*
X53366128Y-126626333D01*
X53564836Y-126626333D01*
X53642380Y-126863813D01*
X53773236Y-126803231D01*
X53933172Y-126776575D01*
X54112493Y-126815347D01*
X54232445Y-126923183D01*
X54300296Y-127087964D01*
X54315744Y-127188833D01*
X54320894Y-127300000D01*
X54311470Y-127463570D01*
X54283199Y-127595638D01*
X54236080Y-127696204D01*
X54131274Y-127791620D01*
X53986484Y-127823425D01*
X53928325Y-127821002D01*
X53870167Y-127813732D01*
X53870167Y-127266074D01*
X53572106Y-127266074D01*
X53572106Y-128014863D01*
X53738099Y-128058481D01*
X53862594Y-128076656D01*
X54010716Y-128082714D01*
X54144299Y-128070295D01*
X54263947Y-128033037D01*
X54368450Y-127971244D01*
X54456597Y-127885218D01*
X54527477Y-127774960D01*
X54580183Y-127640468D01*
X54612897Y-127482048D01*
X54623802Y-127300000D01*
X54611080Y-127119770D01*
X54572913Y-126961955D01*
X54512938Y-126827161D01*
X54434787Y-126715994D01*
X54339674Y-126629059D01*
X54228810Y-126566963D01*
X54105829Y-126529705D01*
X53974367Y-126517286D01*
X53818067Y-126530614D01*
X53698115Y-126560905D01*
X53614513Y-126597254D01*
X53564836Y-126626333D01*
X53366128Y-126626333D01*
X53366128Y-126551212D01*
X53126225Y-126551212D01*
X53058374Y-126662379D01*
X52990522Y-126782633D01*
X52923580Y-126907128D01*
X52858454Y-127031018D01*
X52796661Y-127152787D01*
X52739715Y-127270921D01*
X52689129Y-127379968D01*
X52646419Y-127474475D01*
X52646419Y-126551212D01*
X52377437Y-126551212D01*
X52377437Y-128051212D01*
X52035543Y-128051212D01*
X52135110Y-128034249D01*
X52135110Y-126570598D01*
X51943673Y-126541519D01*
X51776467Y-126534249D01*
X51635009Y-126545153D01*
X51506274Y-126577868D01*
X51393289Y-126633905D01*
X51299085Y-126714782D01*
X51223660Y-126820800D01*
X51167017Y-126952262D01*
X51131576Y-127111288D01*
X51119763Y-127300000D01*
X50917824Y-127300000D01*
X50917824Y-126315347D01*
X51119763Y-126315347D01*
X54623802Y-126315347D01*
X54825740Y-126315347D01*
X55482176Y-127300000D01*
G37*
%TO.C,kibuzzard-6A563B96*%
G36*
X67549865Y-126794750D02*
G01*
X67593484Y-126800808D01*
X67593484Y-127808885D01*
X67566828Y-127811309D01*
X67540172Y-127811309D01*
X67369332Y-127772536D01*
X67257862Y-127665913D01*
X67197281Y-127504766D01*
X67183650Y-127406926D01*
X67179106Y-127300000D01*
X67193646Y-127110985D01*
X67244534Y-126948627D01*
X67343888Y-126835945D01*
X67506247Y-126793538D01*
X67549865Y-126794750D01*
G37*
G36*
X70582176Y-128284653D02*
G01*
X70380237Y-128284653D01*
X69767151Y-128284653D01*
X68373775Y-128284653D01*
X67571675Y-128284653D01*
X66876198Y-128284653D01*
X66674260Y-128284653D01*
X66017824Y-127300000D01*
X66876198Y-127300000D01*
X66889223Y-127492952D01*
X66928298Y-127655008D01*
X66990394Y-127787985D01*
X67072482Y-127893700D01*
X67173351Y-127973364D01*
X67291788Y-128028191D01*
X67425370Y-128059996D01*
X67571675Y-128070598D01*
X67727975Y-128062116D01*
X67791978Y-128051212D01*
X68133872Y-128051212D01*
X68373775Y-128051212D01*
X68443646Y-127884949D01*
X68517555Y-127718955D01*
X68595504Y-127553231D01*
X68677491Y-127387507D01*
X68763516Y-127221513D01*
X68853581Y-127055250D01*
X68853581Y-128051212D01*
X69122563Y-128051212D01*
X69122563Y-126626333D01*
X69321271Y-126626333D01*
X69398815Y-126863813D01*
X69529672Y-126803231D01*
X69689607Y-126776575D01*
X69868928Y-126815347D01*
X69988880Y-126923183D01*
X70056731Y-127087964D01*
X70072180Y-127188833D01*
X70077329Y-127300000D01*
X70067905Y-127463570D01*
X70039634Y-127595638D01*
X69992515Y-127696204D01*
X69887709Y-127791620D01*
X69742919Y-127823425D01*
X69684760Y-127821002D01*
X69626602Y-127813732D01*
X69626602Y-127266074D01*
X69328541Y-127266074D01*
X69328541Y-128014863D01*
X69494534Y-128058481D01*
X69619029Y-128076656D01*
X69767151Y-128082714D01*
X69900734Y-128070295D01*
X70020382Y-128033037D01*
X70124886Y-127971244D01*
X70213032Y-127885218D01*
X70283912Y-127774960D01*
X70336618Y-127640468D01*
X70369332Y-127482048D01*
X70380237Y-127300000D01*
X70367515Y-127119770D01*
X70329348Y-126961955D01*
X70269373Y-126827161D01*
X70191222Y-126715994D01*
X70096109Y-126629059D01*
X69985245Y-126566963D01*
X69862264Y-126529705D01*
X69730802Y-126517286D01*
X69574502Y-126530614D01*
X69454550Y-126560905D01*
X69370948Y-126597254D01*
X69321271Y-126626333D01*
X69122563Y-126626333D01*
X69122563Y-126551212D01*
X68882660Y-126551212D01*
X68814809Y-126662379D01*
X68746957Y-126782633D01*
X68680015Y-126907128D01*
X68614890Y-127031018D01*
X68553096Y-127152787D01*
X68496150Y-127270921D01*
X68445564Y-127379968D01*
X68402854Y-127474475D01*
X68402854Y-126551212D01*
X68133872Y-126551212D01*
X68133872Y-128051212D01*
X67791978Y-128051212D01*
X67891546Y-128034249D01*
X67891546Y-126570598D01*
X67700108Y-126541519D01*
X67532903Y-126534249D01*
X67391445Y-126545153D01*
X67262709Y-126577868D01*
X67149724Y-126633905D01*
X67055520Y-126714782D01*
X66980096Y-126820800D01*
X66923452Y-126952262D01*
X66888012Y-127111288D01*
X66876198Y-127300000D01*
X66017824Y-127300000D01*
X66674260Y-126315347D01*
X66876198Y-126315347D01*
X70380237Y-126315347D01*
X70582176Y-126315347D01*
X70582176Y-128284653D01*
G37*
%TO.C,kibuzzard-6A563B50*%
G36*
X55025106Y-116067600D02*
G01*
X55209820Y-116123633D01*
X55380053Y-116214624D01*
X55529264Y-116337078D01*
X55651718Y-116486289D01*
X55742710Y-116656523D01*
X55798742Y-116841237D01*
X55817662Y-117033333D01*
X55798742Y-117225429D01*
X55742710Y-117410143D01*
X55651718Y-117580377D01*
X55529264Y-117729588D01*
X55380053Y-117852042D01*
X55209820Y-117943033D01*
X55025106Y-117999066D01*
X54833010Y-118017986D01*
X54631071Y-118017986D01*
X54165804Y-118017986D01*
X52799084Y-118017986D01*
X51456596Y-118017986D01*
X51119762Y-118017986D01*
X50917824Y-118017986D01*
X50917824Y-117784545D01*
X51119762Y-117784545D01*
X51456596Y-117784545D01*
X51532929Y-117601588D01*
X51585332Y-117504658D01*
X51643187Y-117410150D01*
X51705283Y-117319884D01*
X51770409Y-117235675D01*
X51897630Y-117098761D01*
X51897630Y-117784545D01*
X52195691Y-117784545D01*
X52195691Y-117711847D01*
X52379859Y-117711847D01*
X52550699Y-117783333D01*
X52666713Y-117807869D01*
X52799084Y-117816047D01*
X52994022Y-117793430D01*
X53155573Y-117725579D01*
X53283737Y-117612493D01*
X53356889Y-117499963D01*
X53405598Y-117375013D01*
X53613300Y-117375013D01*
X53647529Y-117561907D01*
X53750215Y-117700942D01*
X53857242Y-117764889D01*
X53995772Y-117803258D01*
X54165804Y-117816047D01*
X54333615Y-117806051D01*
X54463866Y-117776063D01*
X54631071Y-117702154D01*
X54543833Y-117459827D01*
X54387533Y-117532525D01*
X54286665Y-117557970D01*
X54165804Y-117566451D01*
X54041006Y-117550700D01*
X53962250Y-117507081D01*
X53922266Y-117444076D01*
X53911362Y-117372590D01*
X53938018Y-117290199D01*
X54005869Y-117225982D01*
X54097953Y-117175094D01*
X54199730Y-117132687D01*
X54340279Y-117076952D01*
X54472347Y-116996984D01*
X54570489Y-116877033D01*
X54609262Y-116698923D01*
X54575033Y-116511120D01*
X54472347Y-116369359D01*
X54369628Y-116303392D01*
X54244022Y-116263812D01*
X54095530Y-116250619D01*
X53966188Y-116258495D01*
X53854415Y-116282121D01*
X53681152Y-116352396D01*
X53768389Y-116582606D01*
X53902880Y-116524448D01*
X54073720Y-116500215D01*
X54205654Y-116519332D01*
X54284814Y-116576682D01*
X54311200Y-116672267D01*
X54286968Y-116748600D01*
X54225174Y-116806758D01*
X54140360Y-116851588D01*
X54047064Y-116887937D01*
X53900457Y-116947307D01*
X53759908Y-117034545D01*
X53654496Y-117170247D01*
X53623599Y-117262028D01*
X53613300Y-117375013D01*
X53405598Y-117375013D01*
X53409140Y-117365926D01*
X53440491Y-117210383D01*
X53450942Y-117033333D01*
X53438220Y-116857041D01*
X53400053Y-116701346D01*
X53339169Y-116567158D01*
X53258292Y-116455385D01*
X53158938Y-116366936D01*
X53042622Y-116302719D01*
X52912069Y-116263644D01*
X52770005Y-116250619D01*
X52625821Y-116263947D01*
X52513139Y-116294238D01*
X52431959Y-116330587D01*
X52382283Y-116359666D01*
X52459827Y-116597146D01*
X52594318Y-116535352D01*
X52774851Y-116509908D01*
X52911766Y-116535352D01*
X53030506Y-116620167D01*
X53115320Y-116778890D01*
X53139855Y-116890360D01*
X53148034Y-117026063D01*
X53138206Y-117183979D01*
X53108723Y-117315239D01*
X53059585Y-117419844D01*
X52942965Y-117522529D01*
X52770005Y-117556758D01*
X52577355Y-117530102D01*
X52454980Y-117476790D01*
X52379859Y-117711847D01*
X52195691Y-117711847D01*
X52195691Y-116284545D01*
X51897630Y-116284545D01*
X51897630Y-116907323D01*
X51786160Y-116757081D01*
X51675901Y-116592299D01*
X51580182Y-116429940D01*
X51507485Y-116284545D01*
X51170651Y-116284545D01*
X51251830Y-116433575D01*
X51302416Y-116518995D01*
X51359665Y-116608050D01*
X51422367Y-116699831D01*
X51489310Y-116793430D01*
X51559888Y-116886120D01*
X51633494Y-116975175D01*
X51557767Y-117053325D01*
X51480829Y-117142380D01*
X51405405Y-117240219D01*
X51334221Y-117344722D01*
X51268490Y-117453769D01*
X51209423Y-117565239D01*
X51159140Y-117676407D01*
X51119762Y-117784545D01*
X50917824Y-117784545D01*
X50917824Y-116048680D01*
X51119762Y-116048680D01*
X54631071Y-116048680D01*
X54833010Y-116048680D01*
X55025106Y-116067600D01*
G37*
D11*
%TO.C,J1*%
X47920000Y-110680000D02*
X47920000Y-128570000D01*
X50680000Y-108030000D02*
X49300000Y-108030000D01*
X50680000Y-109410000D02*
X50680000Y-108030000D01*
X50680000Y-110680000D02*
X47920000Y-110680000D01*
X50680000Y-110680000D02*
X50680000Y-128570000D01*
X50680000Y-128570000D02*
X47920000Y-128570000D01*
D10*
%TO.C,kibuzzard-6A563BEF*%
G36*
X65031583Y-105095961D02*
G01*
X65097011Y-105103231D01*
X65097011Y-105447334D01*
X64980695Y-105447334D01*
X64808643Y-105397658D01*
X64750485Y-105260743D01*
X64767447Y-105174717D01*
X64813489Y-105123829D01*
X64881341Y-105099596D01*
X64961309Y-105093538D01*
X65031583Y-105095961D01*
G37*
G36*
X65097011Y-106101616D02*
G01*
X65027948Y-106108885D01*
X64954039Y-106111309D01*
X64854685Y-106102827D01*
X64768659Y-106071325D01*
X64706866Y-106005897D01*
X64682633Y-105898061D01*
X64751696Y-105741761D01*
X64937076Y-105694507D01*
X65097011Y-105694507D01*
X65097011Y-106101616D01*
G37*
G36*
X57783603Y-105094750D02*
G01*
X57827221Y-105100808D01*
X57827221Y-106108885D01*
X57800565Y-106111309D01*
X57773910Y-106111309D01*
X57603069Y-106072536D01*
X57491599Y-105965913D01*
X57431018Y-105804766D01*
X57417387Y-105706926D01*
X57412843Y-105600000D01*
X57427383Y-105410985D01*
X57478271Y-105248627D01*
X57577625Y-105135945D01*
X57739984Y-105093538D01*
X57783603Y-105094750D01*
G37*
G36*
X58985541Y-105117771D02*
G01*
X59057027Y-105230452D01*
X59090953Y-105396446D01*
X59097314Y-105494588D01*
X59099435Y-105600000D01*
X59097314Y-105705715D01*
X59090953Y-105804766D01*
X59057027Y-105970759D01*
X58985541Y-106082229D01*
X58861955Y-106123425D01*
X58739580Y-106082229D01*
X58666882Y-105969548D01*
X58632956Y-105803554D01*
X58626595Y-105705412D01*
X58624475Y-105600000D01*
X58626595Y-105494285D01*
X58632956Y-105395234D01*
X58666882Y-105229241D01*
X58738368Y-105117771D01*
X58861955Y-105076575D01*
X58985541Y-105117771D01*
G37*
G36*
X68095396Y-106584653D02*
G01*
X67893457Y-106584653D01*
X66878110Y-106584653D01*
X65581664Y-106584653D01*
X64978271Y-106584653D01*
X63713328Y-106584653D01*
X62540468Y-106584653D01*
X59523506Y-106584653D01*
X58859532Y-106584653D01*
X57805412Y-106584653D01*
X56443538Y-106584653D01*
X54718174Y-106584653D01*
X54468578Y-106584653D01*
X53506543Y-106584653D01*
X53304604Y-106584653D01*
X53304604Y-106104039D01*
X53506543Y-106104039D01*
X53506543Y-106351212D01*
X54468578Y-106351212D01*
X54468578Y-106104039D01*
X54718174Y-106104039D01*
X54718174Y-106351212D01*
X55660824Y-106351212D01*
X55660824Y-105808401D01*
X55927383Y-105808401D01*
X55933441Y-105933199D01*
X55951616Y-106045880D01*
X55984935Y-106144628D01*
X56036430Y-106227625D01*
X56106704Y-106293962D01*
X56196365Y-106342730D01*
X56307835Y-106372718D01*
X56443538Y-106382714D01*
X56577120Y-106372718D01*
X56687076Y-106342730D01*
X56843376Y-106227625D01*
X56893053Y-106144628D01*
X56925767Y-106045880D01*
X56943942Y-105933199D01*
X56950000Y-105808401D01*
X56950000Y-105600000D01*
X57109935Y-105600000D01*
X57122960Y-105792952D01*
X57162036Y-105955008D01*
X57224132Y-106087985D01*
X57306220Y-106193700D01*
X57407088Y-106273364D01*
X57525525Y-106328191D01*
X57659107Y-106359996D01*
X57805412Y-106370598D01*
X57961712Y-106362116D01*
X58125283Y-106334249D01*
X58125283Y-105600000D01*
X58321567Y-105600000D01*
X58330351Y-105781972D01*
X58356704Y-105940166D01*
X58400626Y-106074581D01*
X58462116Y-106185218D01*
X58568740Y-106294938D01*
X58701212Y-106360770D01*
X58859532Y-106382714D01*
X59021756Y-106360770D01*
X59041282Y-106351212D01*
X59523506Y-106351212D01*
X59797334Y-106351212D01*
X59782795Y-105185622D01*
X59966963Y-105820517D01*
X60185057Y-105820517D01*
X60361955Y-105185622D01*
X60349838Y-106351212D01*
X60623667Y-106351212D01*
X60616095Y-106163409D01*
X60607916Y-105968336D01*
X60606734Y-105941680D01*
X61987964Y-105941680D01*
X62022193Y-106128574D01*
X62124879Y-106267609D01*
X62231906Y-106331556D01*
X62370436Y-106369925D01*
X62540468Y-106382714D01*
X62708279Y-106372718D01*
X62838530Y-106342730D01*
X63005735Y-106268821D01*
X62918498Y-106026494D01*
X62762197Y-106099192D01*
X62661329Y-106124637D01*
X62540468Y-106133118D01*
X62415670Y-106117367D01*
X62336914Y-106073748D01*
X62296931Y-106010743D01*
X62286026Y-105939257D01*
X62312682Y-105856866D01*
X62363890Y-105808401D01*
X63197173Y-105808401D01*
X63203231Y-105933199D01*
X63221405Y-106045880D01*
X63254725Y-106144628D01*
X63306220Y-106227625D01*
X63376494Y-106293962D01*
X63466155Y-106342730D01*
X63577625Y-106372718D01*
X63713328Y-106382714D01*
X63846910Y-106372718D01*
X63956866Y-106342730D01*
X64113166Y-106227625D01*
X64162843Y-106144628D01*
X64195557Y-106045880D01*
X64213732Y-105933199D01*
X64215438Y-105898061D01*
X64389418Y-105898061D01*
X64400929Y-106022557D01*
X64435460Y-106124637D01*
X64560258Y-106270032D01*
X64646284Y-106316680D01*
X64746850Y-106347577D01*
X64858623Y-106364842D01*
X64978271Y-106370598D01*
X65079443Y-106367872D01*
X65184249Y-106359693D01*
X65250212Y-106351212D01*
X65581664Y-106351212D01*
X65855493Y-106351212D01*
X65840953Y-105185622D01*
X66025121Y-105820517D01*
X66243215Y-105820517D01*
X66420113Y-105185622D01*
X66407997Y-106351212D01*
X66681826Y-106351212D01*
X66674253Y-106163409D01*
X66666074Y-105968336D01*
X66657290Y-105770234D01*
X66647900Y-105573344D01*
X66637298Y-105380089D01*
X66624879Y-105192892D01*
X66610642Y-105015388D01*
X66594588Y-104851212D01*
X66793296Y-104851212D01*
X66800565Y-105038106D01*
X66807835Y-105230452D01*
X66815711Y-105424919D01*
X66824798Y-105618174D01*
X66835400Y-105809309D01*
X66847819Y-105997415D01*
X66862056Y-106179160D01*
X66878110Y-106351212D01*
X67125283Y-106351212D01*
X67178595Y-106192791D01*
X67231906Y-106022859D01*
X67285218Y-105851111D01*
X67338530Y-105687237D01*
X67393053Y-105846567D01*
X67450000Y-106019225D01*
X67505735Y-106191882D01*
X67556624Y-106351212D01*
X67803796Y-106351212D01*
X67821971Y-106178857D01*
X67837722Y-105996204D01*
X67851353Y-105807189D01*
X67863166Y-105615751D01*
X67873162Y-105422496D01*
X67881341Y-105228029D01*
X67888005Y-105036288D01*
X67893457Y-104851212D01*
X67617205Y-104851212D01*
X67619628Y-104996607D01*
X67622052Y-105146850D01*
X67624475Y-105299212D01*
X67626898Y-105450969D01*
X67629321Y-105600606D01*
X67631745Y-105746607D01*
X67633562Y-105886248D01*
X67634168Y-106016801D01*
X67584491Y-105847173D01*
X67531179Y-105665428D01*
X67483926Y-105500646D01*
X67450000Y-105381906D01*
X67231906Y-105381906D01*
X67202827Y-105495800D01*
X67160420Y-105646042D01*
X67109532Y-105822940D01*
X67055008Y-106016801D01*
X67055614Y-105886248D01*
X67057431Y-105746607D01*
X67059855Y-105600909D01*
X67062278Y-105452181D01*
X67064701Y-105301030D01*
X67067124Y-105148061D01*
X67068942Y-104996910D01*
X67069548Y-104851212D01*
X66793296Y-104851212D01*
X66594588Y-104851212D01*
X66347415Y-104851212D01*
X66305008Y-104982068D01*
X66250485Y-105154120D01*
X66192326Y-105340711D01*
X66136591Y-105515186D01*
X66076010Y-105329806D01*
X66015428Y-105145638D01*
X65962116Y-104979645D01*
X65918498Y-104851212D01*
X65671325Y-104851212D01*
X65654665Y-105045073D01*
X65638611Y-105234087D01*
X65624071Y-105419770D01*
X65611955Y-105603635D01*
X65601959Y-105787197D01*
X65593780Y-105971971D01*
X65587116Y-106159471D01*
X65581664Y-106351212D01*
X65250212Y-106351212D01*
X65290267Y-106346062D01*
X65395073Y-106326979D01*
X65395073Y-104870598D01*
X65208481Y-104845153D01*
X65007351Y-104834249D01*
X64853473Y-104843033D01*
X64731099Y-104869386D01*
X64563893Y-104961470D01*
X64481502Y-105088691D01*
X64459693Y-105229241D01*
X64472718Y-105329806D01*
X64511793Y-105418255D01*
X64651131Y-105549111D01*
X64523001Y-105614540D01*
X64443942Y-105699354D01*
X64403049Y-105796284D01*
X64389418Y-105898061D01*
X64215438Y-105898061D01*
X64219790Y-105808401D01*
X64219790Y-104851212D01*
X63919305Y-104851212D01*
X63919305Y-105789015D01*
X63909612Y-105947738D01*
X63876898Y-106050727D01*
X63812682Y-106106462D01*
X63708481Y-106123425D01*
X63604281Y-106106462D01*
X63538853Y-106049515D01*
X63504927Y-105945315D01*
X63495234Y-105786591D01*
X63495234Y-104851212D01*
X63197173Y-104851212D01*
X63197173Y-105808401D01*
X62363890Y-105808401D01*
X62380533Y-105792649D01*
X62472617Y-105741761D01*
X62574394Y-105699354D01*
X62714943Y-105643619D01*
X62847011Y-105563651D01*
X62945153Y-105443700D01*
X62983926Y-105265590D01*
X62949697Y-105077787D01*
X62847011Y-104936026D01*
X62744292Y-104870059D01*
X62618686Y-104830479D01*
X62470194Y-104817286D01*
X62340852Y-104825162D01*
X62229079Y-104848788D01*
X62055816Y-104919063D01*
X62143053Y-105149273D01*
X62277544Y-105091115D01*
X62448384Y-105066882D01*
X62580318Y-105085999D01*
X62659478Y-105143349D01*
X62685864Y-105238934D01*
X62661632Y-105315267D01*
X62599838Y-105373425D01*
X62515024Y-105418255D01*
X62421729Y-105454604D01*
X62275121Y-105513974D01*
X62134572Y-105601212D01*
X62029160Y-105736914D01*
X61998263Y-105828695D01*
X61987964Y-105941680D01*
X60606734Y-105941680D01*
X60599132Y-105770234D01*
X60589742Y-105573344D01*
X60579140Y-105380089D01*
X60566721Y-105192892D01*
X60552484Y-105015388D01*
X60536430Y-104851212D01*
X60289257Y-104851212D01*
X60246850Y-104982068D01*
X60192326Y-105154120D01*
X60134168Y-105340711D01*
X60078433Y-105515186D01*
X60017851Y-105329806D01*
X59957270Y-105145638D01*
X59903958Y-104979645D01*
X59860339Y-104851212D01*
X59613166Y-104851212D01*
X59596506Y-105045073D01*
X59580452Y-105234087D01*
X59565913Y-105419770D01*
X59553796Y-105603635D01*
X59543800Y-105787197D01*
X59535622Y-105971971D01*
X59528958Y-106159471D01*
X59523506Y-106351212D01*
X59041282Y-106351212D01*
X59156247Y-106294938D01*
X59263005Y-106185218D01*
X59323965Y-106074581D01*
X59367508Y-105940166D01*
X59393634Y-105781972D01*
X59402342Y-105600000D01*
X59393407Y-105418028D01*
X59366599Y-105259834D01*
X59321920Y-105125419D01*
X59259370Y-105014782D01*
X59151669Y-104905062D01*
X59019198Y-104839230D01*
X58861955Y-104817286D01*
X58699865Y-104839230D01*
X58565778Y-104905062D01*
X58459693Y-105014782D01*
X58399263Y-105125419D01*
X58356099Y-105259834D01*
X58330200Y-105418028D01*
X58321567Y-105600000D01*
X58125283Y-105600000D01*
X58125283Y-104870598D01*
X57933845Y-104841519D01*
X57766640Y-104834249D01*
X57625182Y-104845153D01*
X57496446Y-104877868D01*
X57383461Y-104933905D01*
X57289257Y-105014782D01*
X57213833Y-105120800D01*
X57157189Y-105252262D01*
X57121749Y-105411288D01*
X57109935Y-105600000D01*
X56950000Y-105600000D01*
X56950000Y-104851212D01*
X56649515Y-104851212D01*
X56649515Y-105789015D01*
X56639822Y-105947738D01*
X56607108Y-106050727D01*
X56542892Y-106106462D01*
X56438691Y-106123425D01*
X56334491Y-106106462D01*
X56269063Y-106049515D01*
X56235137Y-105945315D01*
X56225444Y-105786591D01*
X56225444Y-104851212D01*
X55927383Y-104851212D01*
X55927383Y-105808401D01*
X55660824Y-105808401D01*
X55660824Y-104851212D01*
X55360339Y-104851212D01*
X55360339Y-106104039D01*
X54718174Y-106104039D01*
X54468578Y-106104039D01*
X54468578Y-104851212D01*
X53559855Y-104851212D01*
X53559855Y-105098384D01*
X54170517Y-105098384D01*
X54170517Y-105435218D01*
X53639822Y-105435218D01*
X53639822Y-105682391D01*
X54170517Y-105682391D01*
X54170517Y-106104039D01*
X53506543Y-106104039D01*
X53304604Y-106104039D01*
X53304604Y-104615347D01*
X53506543Y-104615347D01*
X67893457Y-104615347D01*
X68095396Y-104615347D01*
X68095396Y-106584653D01*
G37*
%TO.C,kibuzzard-6A563B7D*%
G36*
X56608992Y-124733333D02*
G01*
X55952557Y-125717986D01*
X55750619Y-125717986D01*
X55113300Y-125717986D01*
X54119762Y-125717986D01*
X52973559Y-125717986D01*
X51696499Y-125717986D01*
X51119762Y-125717986D01*
X50917824Y-125717986D01*
X50917824Y-125038664D01*
X51119762Y-125038664D01*
X51153688Y-125230102D01*
X51257888Y-125381556D01*
X51337856Y-125438503D01*
X51437210Y-125480910D01*
X51556556Y-125507263D01*
X51696499Y-125516047D01*
X51814027Y-125507566D01*
X51932767Y-125486968D01*
X52038179Y-125460312D01*
X52113300Y-125433656D01*
X52055142Y-125184060D01*
X51910958Y-125234949D01*
X51813724Y-125254940D01*
X51698922Y-125261604D01*
X51568975Y-125245247D01*
X51484463Y-125196176D01*
X51422670Y-125033818D01*
X51446297Y-124932949D01*
X51517178Y-124867824D01*
X51624407Y-124832384D01*
X51757081Y-124820570D01*
X51849165Y-124820570D01*
X51849165Y-124573398D01*
X51737694Y-124573398D01*
X51645610Y-124563705D01*
X51563220Y-124532202D01*
X51503850Y-124474044D01*
X51480829Y-124381960D01*
X51530505Y-124252315D01*
X51667420Y-124205062D01*
X51835837Y-124232929D01*
X51980021Y-124301992D01*
X52086644Y-124083898D01*
X51913381Y-123995449D01*
X51876149Y-123984545D01*
X52241733Y-123984545D01*
X52274144Y-124138422D01*
X52313220Y-124309262D01*
X52358656Y-124493127D01*
X52410150Y-124686079D01*
X52447711Y-124818551D01*
X52487694Y-124952638D01*
X52530102Y-125088341D01*
X52574259Y-125223371D01*
X52619493Y-125355439D01*
X52665804Y-125484545D01*
X52973559Y-125484545D01*
X53033535Y-125306435D01*
X53097145Y-125106516D01*
X53117832Y-125038664D01*
X53543026Y-125038664D01*
X53576951Y-125230102D01*
X53681152Y-125381556D01*
X53761119Y-125438503D01*
X53860473Y-125480910D01*
X53979819Y-125507263D01*
X54119762Y-125516047D01*
X54237291Y-125507566D01*
X54356031Y-125486968D01*
X54461442Y-125460312D01*
X54536564Y-125433656D01*
X54478405Y-125184060D01*
X54334221Y-125234949D01*
X54236988Y-125254940D01*
X54122186Y-125261604D01*
X53992238Y-125245247D01*
X53907727Y-125196176D01*
X53845934Y-125033818D01*
X53869560Y-124932949D01*
X53940441Y-124867824D01*
X54047670Y-124832384D01*
X54180344Y-124820570D01*
X54272428Y-124820570D01*
X54272428Y-124726063D01*
X54732848Y-124726063D01*
X54732848Y-124970813D01*
X55113300Y-124970813D01*
X55113300Y-125392461D01*
X55370166Y-125392461D01*
X55370166Y-124970813D01*
X55750619Y-124970813D01*
X55750619Y-124726063D01*
X55370166Y-124726063D01*
X55370166Y-124304415D01*
X55113300Y-124304415D01*
X55113300Y-124726063D01*
X54732848Y-124726063D01*
X54272428Y-124726063D01*
X54272428Y-124573398D01*
X54160958Y-124573398D01*
X54068874Y-124563705D01*
X53986483Y-124532202D01*
X53927113Y-124474044D01*
X53904092Y-124381960D01*
X53953769Y-124252315D01*
X54090683Y-124205062D01*
X54259100Y-124232929D01*
X54403284Y-124301992D01*
X54509908Y-124083898D01*
X54336644Y-123995449D01*
X54221842Y-123961827D01*
X54093106Y-123950619D01*
X53975275Y-123958495D01*
X53873801Y-123982121D01*
X53719924Y-124070570D01*
X53630263Y-124205062D01*
X53601184Y-124372267D01*
X53652073Y-124544318D01*
X53787775Y-124670328D01*
X53684484Y-124730304D01*
X53607242Y-124813301D01*
X53559080Y-124916895D01*
X53543026Y-125038664D01*
X53117832Y-125038664D01*
X53139956Y-124966101D01*
X53181152Y-124825956D01*
X53220732Y-124686079D01*
X53258158Y-124548896D01*
X53292891Y-124416828D01*
X53324932Y-124289876D01*
X53364916Y-124120247D01*
X53392783Y-123984545D01*
X53077759Y-123984545D01*
X53059585Y-124110251D01*
X53034140Y-124254738D01*
X53003547Y-124411039D01*
X52969924Y-124572186D01*
X52933575Y-124734545D01*
X52894803Y-124894480D01*
X52855122Y-125045025D01*
X52816047Y-125179213D01*
X52777274Y-125046843D01*
X52738502Y-124896903D01*
X52700942Y-124736968D01*
X52665804Y-124574609D01*
X52633090Y-124413159D01*
X52602799Y-124255950D01*
X52576144Y-124110554D01*
X52554334Y-123984545D01*
X52241733Y-123984545D01*
X51876149Y-123984545D01*
X51798579Y-123961827D01*
X51669843Y-123950619D01*
X51552012Y-123958495D01*
X51450538Y-123982121D01*
X51296661Y-124070570D01*
X51207000Y-124205062D01*
X51177921Y-124372267D01*
X51228809Y-124544318D01*
X51364512Y-124670328D01*
X51261220Y-124730304D01*
X51183979Y-124813301D01*
X51135816Y-124916895D01*
X51119762Y-125038664D01*
X50917824Y-125038664D01*
X50917824Y-123748680D01*
X51119762Y-123748680D01*
X55750619Y-123748680D01*
X55952557Y-123748680D01*
X56608992Y-124733333D01*
G37*
%TD*%
%LPC*%
D12*
%TO.C,J2*%
X72160000Y-109410000D03*
D13*
X72160000Y-111950000D03*
X72160000Y-114490000D03*
X72160000Y-117030000D03*
X72160000Y-119570000D03*
X72160000Y-122110000D03*
X72160000Y-124650000D03*
X72160000Y-127190000D03*
%TD*%
D12*
%TO.C,J1*%
X49300000Y-109410000D03*
D13*
X49300000Y-111950000D03*
X49300000Y-114490000D03*
X49300000Y-117030000D03*
X49300000Y-119570000D03*
X49300000Y-122110000D03*
X49300000Y-124650000D03*
X49300000Y-127190000D03*
%TD*%
%LPD*%
M02*
