M48
; DRILL file {KiCad 9.0.2} date 2026-08-03T22:34:29+0300
; FORMAT={-:-/ absolute / inch / decimal}
; #@! TF.CreationDate,2026-08-03T22:34:29+03:00
; #@! TF.GenerationSoftware,Kicad,Pcbnew,9.0.2
; #@! TF.FileFunction,Plated,1,2,PTH
FMAT,2
INCH
; #@! TA.AperFunction,Plated,PTH,ViaDrill
T1C0.0118
; #@! TA.AperFunction,Plated,PTH,ComponentDrill
T2C0.0394
%
G90
G05
T1
X2.0472Y-4.6457
X2.0827Y-4.5945
X2.0935Y-4.9409
X2.1181Y-4.689
X2.3437Y-4.122
X2.406Y-5.0957
X2.4437Y-4.122
X2.5138Y-5.0945
X2.5591Y-5.0551
X2.6457Y-4.7953
X2.6939Y-4.6909
X2.6939Y-4.8909
T2
X1.9409Y-4.3075
X1.9409Y-4.4075
X1.9409Y-4.5075
X1.9409Y-4.6075
X1.9409Y-4.7075
X1.9409Y-4.8075
X1.9409Y-4.9075
X1.9409Y-5.0075
X2.8409Y-4.3075
X2.8409Y-4.4075
X2.8409Y-4.5075
X2.8409Y-4.6075
X2.8409Y-4.7075
X2.8409Y-4.8075
X2.8409Y-4.9075
X2.8409Y-5.0075
M30
