%TF.GenerationSoftware,KiCad,Pcbnew,9.0.2*%
%TF.CreationDate,2026-07-22T11:31:35+03:00*%
%TF.ProjectId,wmbus,776d6275-732e-46b6-9963-61645f706362,rev?*%
%TF.SameCoordinates,Original*%
%TF.FileFunction,Profile,NP*%
%FSLAX46Y46*%
G04 Gerber Fmt 4.6, Leading zero omitted, Abs format (unit mm)*
G04 Created by KiCad (PCBNEW 9.0.2) date 2026-07-22 11:31:35*
%MOMM*%
%LPD*%
G01*
G04 APERTURE LIST*
%TA.AperFunction,Profile*%
%ADD10C,0.200000*%
%TD*%
%ADD11C,0.150000*%
%TA.AperFunction,Profile*%
%ADD12C,0.050000*%
%TD*%
G04 APERTURE END LIST*
D10*
X48000000Y-102500000D02*
X73400000Y-102500000D01*
X73400000Y-131100000D01*
X48000000Y-131100000D01*
X48000000Y-102500000D01*
D11*
X40700057Y-118276189D02*
X40652438Y-118228570D01*
X40652438Y-118228570D02*
X40604819Y-118133332D01*
X40604819Y-118133332D02*
X40604819Y-117895237D01*
X40604819Y-117895237D02*
X40652438Y-117799999D01*
X40652438Y-117799999D02*
X40700057Y-117752380D01*
X40700057Y-117752380D02*
X40795295Y-117704761D01*
X40795295Y-117704761D02*
X40890533Y-117704761D01*
X40890533Y-117704761D02*
X41033390Y-117752380D01*
X41033390Y-117752380D02*
X41604819Y-118323808D01*
X41604819Y-118323808D02*
X41604819Y-117704761D01*
X41033390Y-117133332D02*
X40985771Y-117228570D01*
X40985771Y-117228570D02*
X40938152Y-117276189D01*
X40938152Y-117276189D02*
X40842914Y-117323808D01*
X40842914Y-117323808D02*
X40795295Y-117323808D01*
X40795295Y-117323808D02*
X40700057Y-117276189D01*
X40700057Y-117276189D02*
X40652438Y-117228570D01*
X40652438Y-117228570D02*
X40604819Y-117133332D01*
X40604819Y-117133332D02*
X40604819Y-116942856D01*
X40604819Y-116942856D02*
X40652438Y-116847618D01*
X40652438Y-116847618D02*
X40700057Y-116799999D01*
X40700057Y-116799999D02*
X40795295Y-116752380D01*
X40795295Y-116752380D02*
X40842914Y-116752380D01*
X40842914Y-116752380D02*
X40938152Y-116799999D01*
X40938152Y-116799999D02*
X40985771Y-116847618D01*
X40985771Y-116847618D02*
X41033390Y-116942856D01*
X41033390Y-116942856D02*
X41033390Y-117133332D01*
X41033390Y-117133332D02*
X41081009Y-117228570D01*
X41081009Y-117228570D02*
X41128628Y-117276189D01*
X41128628Y-117276189D02*
X41223866Y-117323808D01*
X41223866Y-117323808D02*
X41414342Y-117323808D01*
X41414342Y-117323808D02*
X41509580Y-117276189D01*
X41509580Y-117276189D02*
X41557200Y-117228570D01*
X41557200Y-117228570D02*
X41604819Y-117133332D01*
X41604819Y-117133332D02*
X41604819Y-116942856D01*
X41604819Y-116942856D02*
X41557200Y-116847618D01*
X41557200Y-116847618D02*
X41509580Y-116799999D01*
X41509580Y-116799999D02*
X41414342Y-116752380D01*
X41414342Y-116752380D02*
X41223866Y-116752380D01*
X41223866Y-116752380D02*
X41128628Y-116799999D01*
X41128628Y-116799999D02*
X41081009Y-116847618D01*
X41081009Y-116847618D02*
X41033390Y-116942856D01*
X41509580Y-116323808D02*
X41557200Y-116276189D01*
X41557200Y-116276189D02*
X41604819Y-116323808D01*
X41604819Y-116323808D02*
X41557200Y-116371427D01*
X41557200Y-116371427D02*
X41509580Y-116323808D01*
X41509580Y-116323808D02*
X41604819Y-116323808D01*
X40604819Y-115419047D02*
X40604819Y-115609523D01*
X40604819Y-115609523D02*
X40652438Y-115704761D01*
X40652438Y-115704761D02*
X40700057Y-115752380D01*
X40700057Y-115752380D02*
X40842914Y-115847618D01*
X40842914Y-115847618D02*
X41033390Y-115895237D01*
X41033390Y-115895237D02*
X41414342Y-115895237D01*
X41414342Y-115895237D02*
X41509580Y-115847618D01*
X41509580Y-115847618D02*
X41557200Y-115799999D01*
X41557200Y-115799999D02*
X41604819Y-115704761D01*
X41604819Y-115704761D02*
X41604819Y-115514285D01*
X41604819Y-115514285D02*
X41557200Y-115419047D01*
X41557200Y-115419047D02*
X41509580Y-115371428D01*
X41509580Y-115371428D02*
X41414342Y-115323809D01*
X41414342Y-115323809D02*
X41176247Y-115323809D01*
X41176247Y-115323809D02*
X41081009Y-115371428D01*
X41081009Y-115371428D02*
X41033390Y-115419047D01*
X41033390Y-115419047D02*
X40985771Y-115514285D01*
X40985771Y-115514285D02*
X40985771Y-115704761D01*
X40985771Y-115704761D02*
X41033390Y-115799999D01*
X41033390Y-115799999D02*
X41081009Y-115847618D01*
X41081009Y-115847618D02*
X41176247Y-115895237D01*
D12*
X47500000Y-131100000D02*
X41713580Y-131100000D01*
X41713580Y-102500000D02*
X47500000Y-102500000D01*
X42300000Y-131100000D02*
X42300000Y-102500000D01*
X42300000Y-131100000D02*
X41713579Y-129973496D01*
X42300000Y-131100000D02*
X42886421Y-129973496D01*
X42300000Y-102500000D02*
X42886421Y-103626504D01*
X42300000Y-102500000D02*
X41713579Y-103626504D01*
D11*
X58777619Y-135800057D02*
X58825238Y-135752438D01*
X58825238Y-135752438D02*
X58920476Y-135704819D01*
X58920476Y-135704819D02*
X59158571Y-135704819D01*
X59158571Y-135704819D02*
X59253809Y-135752438D01*
X59253809Y-135752438D02*
X59301428Y-135800057D01*
X59301428Y-135800057D02*
X59349047Y-135895295D01*
X59349047Y-135895295D02*
X59349047Y-135990533D01*
X59349047Y-135990533D02*
X59301428Y-136133390D01*
X59301428Y-136133390D02*
X58730000Y-136704819D01*
X58730000Y-136704819D02*
X59349047Y-136704819D01*
X59730000Y-135800057D02*
X59777619Y-135752438D01*
X59777619Y-135752438D02*
X59872857Y-135704819D01*
X59872857Y-135704819D02*
X60110952Y-135704819D01*
X60110952Y-135704819D02*
X60206190Y-135752438D01*
X60206190Y-135752438D02*
X60253809Y-135800057D01*
X60253809Y-135800057D02*
X60301428Y-135895295D01*
X60301428Y-135895295D02*
X60301428Y-135990533D01*
X60301428Y-135990533D02*
X60253809Y-136133390D01*
X60253809Y-136133390D02*
X59682381Y-136704819D01*
X59682381Y-136704819D02*
X60301428Y-136704819D01*
X60730000Y-136609580D02*
X60777619Y-136657200D01*
X60777619Y-136657200D02*
X60730000Y-136704819D01*
X60730000Y-136704819D02*
X60682381Y-136657200D01*
X60682381Y-136657200D02*
X60730000Y-136609580D01*
X60730000Y-136609580D02*
X60730000Y-136704819D01*
X61349047Y-136133390D02*
X61253809Y-136085771D01*
X61253809Y-136085771D02*
X61206190Y-136038152D01*
X61206190Y-136038152D02*
X61158571Y-135942914D01*
X61158571Y-135942914D02*
X61158571Y-135895295D01*
X61158571Y-135895295D02*
X61206190Y-135800057D01*
X61206190Y-135800057D02*
X61253809Y-135752438D01*
X61253809Y-135752438D02*
X61349047Y-135704819D01*
X61349047Y-135704819D02*
X61539523Y-135704819D01*
X61539523Y-135704819D02*
X61634761Y-135752438D01*
X61634761Y-135752438D02*
X61682380Y-135800057D01*
X61682380Y-135800057D02*
X61729999Y-135895295D01*
X61729999Y-135895295D02*
X61729999Y-135942914D01*
X61729999Y-135942914D02*
X61682380Y-136038152D01*
X61682380Y-136038152D02*
X61634761Y-136085771D01*
X61634761Y-136085771D02*
X61539523Y-136133390D01*
X61539523Y-136133390D02*
X61349047Y-136133390D01*
X61349047Y-136133390D02*
X61253809Y-136181009D01*
X61253809Y-136181009D02*
X61206190Y-136228628D01*
X61206190Y-136228628D02*
X61158571Y-136323866D01*
X61158571Y-136323866D02*
X61158571Y-136514342D01*
X61158571Y-136514342D02*
X61206190Y-136609580D01*
X61206190Y-136609580D02*
X61253809Y-136657200D01*
X61253809Y-136657200D02*
X61349047Y-136704819D01*
X61349047Y-136704819D02*
X61539523Y-136704819D01*
X61539523Y-136704819D02*
X61634761Y-136657200D01*
X61634761Y-136657200D02*
X61682380Y-136609580D01*
X61682380Y-136609580D02*
X61729999Y-136514342D01*
X61729999Y-136514342D02*
X61729999Y-136323866D01*
X61729999Y-136323866D02*
X61682380Y-136228628D01*
X61682380Y-136228628D02*
X61634761Y-136181009D01*
X61634761Y-136181009D02*
X61539523Y-136133390D01*
X62587142Y-135704819D02*
X62396666Y-135704819D01*
X62396666Y-135704819D02*
X62301428Y-135752438D01*
X62301428Y-135752438D02*
X62253809Y-135800057D01*
X62253809Y-135800057D02*
X62158571Y-135942914D01*
X62158571Y-135942914D02*
X62110952Y-136133390D01*
X62110952Y-136133390D02*
X62110952Y-136514342D01*
X62110952Y-136514342D02*
X62158571Y-136609580D01*
X62158571Y-136609580D02*
X62206190Y-136657200D01*
X62206190Y-136657200D02*
X62301428Y-136704819D01*
X62301428Y-136704819D02*
X62491904Y-136704819D01*
X62491904Y-136704819D02*
X62587142Y-136657200D01*
X62587142Y-136657200D02*
X62634761Y-136609580D01*
X62634761Y-136609580D02*
X62682380Y-136514342D01*
X62682380Y-136514342D02*
X62682380Y-136276247D01*
X62682380Y-136276247D02*
X62634761Y-136181009D01*
X62634761Y-136181009D02*
X62587142Y-136133390D01*
X62587142Y-136133390D02*
X62491904Y-136085771D01*
X62491904Y-136085771D02*
X62301428Y-136085771D01*
X62301428Y-136085771D02*
X62206190Y-136133390D01*
X62206190Y-136133390D02*
X62158571Y-136181009D01*
X62158571Y-136181009D02*
X62110952Y-136276247D01*
D12*
X72160000Y-109910000D02*
X72160000Y-137986420D01*
X49300000Y-137986420D02*
X49300000Y-109910000D01*
X72160000Y-137400000D02*
X49300000Y-137400000D01*
X72160000Y-137400000D02*
X71033496Y-137986421D01*
X72160000Y-137400000D02*
X71033496Y-136813579D01*
X49300000Y-137400000D02*
X50426504Y-136813579D01*
X49300000Y-137400000D02*
X50426504Y-137986421D01*
D11*
X59223810Y-138100057D02*
X59271429Y-138052438D01*
X59271429Y-138052438D02*
X59366667Y-138004819D01*
X59366667Y-138004819D02*
X59604762Y-138004819D01*
X59604762Y-138004819D02*
X59700000Y-138052438D01*
X59700000Y-138052438D02*
X59747619Y-138100057D01*
X59747619Y-138100057D02*
X59795238Y-138195295D01*
X59795238Y-138195295D02*
X59795238Y-138290533D01*
X59795238Y-138290533D02*
X59747619Y-138433390D01*
X59747619Y-138433390D02*
X59176191Y-139004819D01*
X59176191Y-139004819D02*
X59795238Y-139004819D01*
X60700000Y-138004819D02*
X60223810Y-138004819D01*
X60223810Y-138004819D02*
X60176191Y-138481009D01*
X60176191Y-138481009D02*
X60223810Y-138433390D01*
X60223810Y-138433390D02*
X60319048Y-138385771D01*
X60319048Y-138385771D02*
X60557143Y-138385771D01*
X60557143Y-138385771D02*
X60652381Y-138433390D01*
X60652381Y-138433390D02*
X60700000Y-138481009D01*
X60700000Y-138481009D02*
X60747619Y-138576247D01*
X60747619Y-138576247D02*
X60747619Y-138814342D01*
X60747619Y-138814342D02*
X60700000Y-138909580D01*
X60700000Y-138909580D02*
X60652381Y-138957200D01*
X60652381Y-138957200D02*
X60557143Y-139004819D01*
X60557143Y-139004819D02*
X60319048Y-139004819D01*
X60319048Y-139004819D02*
X60223810Y-138957200D01*
X60223810Y-138957200D02*
X60176191Y-138909580D01*
X61176191Y-138909580D02*
X61223810Y-138957200D01*
X61223810Y-138957200D02*
X61176191Y-139004819D01*
X61176191Y-139004819D02*
X61128572Y-138957200D01*
X61128572Y-138957200D02*
X61176191Y-138909580D01*
X61176191Y-138909580D02*
X61176191Y-139004819D01*
X62080952Y-138338152D02*
X62080952Y-139004819D01*
X61842857Y-137957200D02*
X61604762Y-138671485D01*
X61604762Y-138671485D02*
X62223809Y-138671485D01*
D12*
X73400000Y-131600000D02*
X73400000Y-140286420D01*
X48000000Y-140286420D02*
X48000000Y-131600000D01*
X73400000Y-139700000D02*
X48000000Y-139700000D01*
X73400000Y-139700000D02*
X72273496Y-140286421D01*
X73400000Y-139700000D02*
X72273496Y-139113579D01*
X48000000Y-139700000D02*
X49126504Y-139113579D01*
X48000000Y-139700000D02*
X49126504Y-140286421D01*
M02*
