M48
; DRILL file {KiCad 8.0.8} date 2025-05-06T17:48:01+0300
; FORMAT={-:-/ absolute / inch / decimal}
; #@! TF.CreationDate,2025-05-06T17:48:01+03:00
; #@! TF.GenerationSoftware,Kicad,Pcbnew,8.0.8
; #@! TF.FileFunction,Plated,1,2,PTH
FMAT,2
INCH
; #@! TA.AperFunction,Plated,PTH,ViaDrill
T1C0.0118
; #@! TA.AperFunction,Plated,PTH,ComponentDrill
T2C0.0354
; #@! TA.AperFunction,Plated,PTH,ComponentDrill
T3C0.0394
; #@! TA.AperFunction,Plated,PTH,ComponentDrill
T4C0.0433
; #@! TA.AperFunction,Plated,PTH,ComponentDrill
T5C0.0512
; #@! TA.AperFunction,Plated,PTH,ComponentDrill
T6C0.0630
%
G90
G05
T1
X6.603Y-4.3606
X6.6732Y-2.0866
X6.6929Y-3.1693
X6.7043Y-4.5766
X6.7437Y-3.911
X6.8307Y-3.7992
X6.8701Y-3.2677
X6.9291Y-2.7756
X6.9291Y-2.9921
X6.9291Y-3.3268
X6.9488Y-3.878
X6.9518Y-2.7195
X6.9685Y-3.7008
X7.0079Y-4.2126
X7.0268Y-3.0898
X7.0276Y-2.4409
X7.0347Y-2.8478
X7.0669Y-4.5276
X7.0866Y-5.0197
X7.0879Y-2.4001
X7.126Y-3.3071
X7.126Y-3.6811
X7.126Y-3.8865
X7.1654Y-4.6457
X7.189Y-3.9764
X7.2441Y-3.3071
X7.2441Y-3.9961
X7.2874Y-4.4717
X7.3011Y-3.4029
X7.3022Y-3.868
X7.3252Y-3.3819
X7.3589Y-3.5425
X7.3819Y-3.1693
X7.3903Y-3.5394
X7.3917Y-4.5374
X7.4146Y-3.4262
X7.4316Y-3.9687
X7.4321Y-3.8168
X7.4323Y-4.5766
X7.4561Y-3.8618
X7.4644Y-3.9715
X7.4979Y-3.9433
X7.5015Y-3.551
X7.5421Y-4.063
X7.5453Y-2.6809
X7.5472Y-3.189
X7.5787Y-3.5827
X7.6378Y-3.4055
X7.689Y-2.5257
X7.7431Y-4.5427
X7.8303Y-3.0046
X7.8346Y-1.9094
X7.8543Y-3.937
X7.8587Y-2.463
X7.9331Y-4.8425
X7.939Y-2.576
X7.9528Y-3.189
X7.9528Y-3.937
X7.9724Y-4.1535
X7.9843Y-2.4606
X8.0206Y-2.6809
X8.0709Y-2.5984
X8.0709Y-2.7362
X8.0906Y-4.7441
X8.1102Y-2.3583
T2
X7.2413Y-2.4508
X7.2913Y-2.3508
X7.3413Y-2.4508
X7.3913Y-2.3508
X7.4413Y-2.4508
X7.4913Y-2.3508
X7.5413Y-2.4508
X7.5913Y-2.3508
T3
X6.3094Y-2.465
X6.3094Y-2.565
X6.3094Y-2.665
X6.3094Y-2.765
X6.3094Y-2.865
X6.3094Y-2.965
X6.3094Y-3.065
X6.3094Y-3.165
X6.3094Y-3.265
X6.3094Y-3.365
X6.3094Y-3.465
X6.3094Y-3.565
X6.3094Y-3.665
X6.3094Y-3.765
X6.3094Y-3.865
X6.3094Y-3.965
X6.3094Y-4.065
X6.3094Y-4.165
X6.3094Y-4.265
X6.3094Y-4.365
X6.3094Y-4.465
X6.3094Y-4.565
X6.3094Y-4.665
X6.4094Y-2.465
X6.4094Y-2.565
X6.4094Y-2.665
X6.4094Y-2.765
X6.4094Y-2.865
X6.4094Y-2.965
X6.4094Y-3.065
X6.4094Y-3.165
X6.4094Y-3.265
X6.4094Y-3.365
X6.4094Y-3.465
X6.4094Y-3.565
X6.4094Y-3.665
X6.4094Y-3.765
X6.4094Y-3.865
X6.4094Y-3.965
X6.4094Y-4.065
X6.4094Y-4.165
X6.4094Y-4.265
X6.4094Y-4.365
X6.4094Y-4.465
X6.4094Y-4.565
X6.4094Y-4.665
X8.0315Y-1.8228
X8.1299Y-1.8228
X8.1992Y-2.463
X8.1992Y-2.563
X8.1992Y-2.663
X8.1992Y-2.763
X8.1992Y-2.863
X8.1992Y-2.963
X8.1992Y-3.063
X8.1992Y-3.163
X8.1992Y-3.263
X8.1992Y-3.363
X8.1992Y-3.463
X8.1992Y-3.563
X8.1992Y-3.663
X8.1992Y-3.763
X8.1992Y-3.863
X8.1992Y-3.963
X8.1992Y-4.063
X8.1992Y-4.163
X8.1992Y-4.263
X8.1992Y-4.363
X8.1992Y-4.463
X8.1992Y-4.563
X8.1992Y-4.663
X8.2992Y-2.463
X8.2992Y-2.563
X8.2992Y-2.663
X8.2992Y-2.763
X8.2992Y-2.863
X8.2992Y-2.963
X8.2992Y-3.063
X8.2992Y-3.163
X8.2992Y-3.263
X8.2992Y-3.363
X8.2992Y-3.463
X8.2992Y-3.563
X8.2992Y-3.663
X8.2992Y-3.763
X8.2992Y-3.863
X8.2992Y-3.963
X8.2992Y-4.063
X8.2992Y-4.163
X8.2992Y-4.263
X8.2992Y-4.363
X8.2992Y-4.463
X8.2992Y-4.563
X8.2992Y-4.663
T4
X7.1555Y-1.9409
X7.2555Y-1.9409
X7.5772Y-1.9409
X7.6772Y-1.9409
T5
X6.5748Y-1.8898
X6.7717Y-1.8898
T6
X7.1114Y-2.2209
X7.7213Y-2.2209
M30
