%TF.GenerationSoftware,KiCad,Pcbnew,8.0.8*%
%TF.CreationDate,2025-05-06T17:48:01+03:00*%
%TF.ProjectId,s0-base-board,73302d62-6173-4652-9d62-6f6172642e6b,rev?*%
%TF.SameCoordinates,Original*%
%TF.FileFunction,Copper,L2,Bot*%
%TF.FilePolarity,Positive*%
%FSLAX46Y46*%
G04 Gerber Fmt 4.6, Leading zero omitted, Abs format (unit mm)*
G04 Created by KiCad (PCBNEW 8.0.8) date 2025-05-06 17:48:01*
%MOMM*%
%LPD*%
G01*
G04 APERTURE LIST*
G04 Aperture macros list*
%AMRoundRect*
0 Rectangle with rounded corners*
0 $1 Rounding radius*
0 $2 $3 $4 $5 $6 $7 $8 $9 X,Y pos of 4 corners*
0 Add a 4 corners polygon primitive as box body*
4,1,4,$2,$3,$4,$5,$6,$7,$8,$9,$2,$3,0*
0 Add four circle primitives for the rounded corners*
1,1,$1+$1,$2,$3*
1,1,$1+$1,$4,$5*
1,1,$1+$1,$6,$7*
1,1,$1+$1,$8,$9*
0 Add four rect primitives between the rounded corners*
20,1,$1+$1,$2,$3,$4,$5,0*
20,1,$1+$1,$4,$5,$6,$7,0*
20,1,$1+$1,$6,$7,$8,$9,0*
20,1,$1+$1,$8,$9,$2,$3,0*%
G04 Aperture macros list end*
%TA.AperFunction,ComponentPad*%
%ADD10R,1.700000X1.700000*%
%TD*%
%TA.AperFunction,ComponentPad*%
%ADD11O,1.700000X1.700000*%
%TD*%
%TA.AperFunction,ComponentPad*%
%ADD12RoundRect,0.250000X-0.600000X-0.750000X0.600000X-0.750000X0.600000X0.750000X-0.600000X0.750000X0*%
%TD*%
%TA.AperFunction,ComponentPad*%
%ADD13O,1.700000X2.000000*%
%TD*%
%TA.AperFunction,ComponentPad*%
%ADD14R,1.900000X1.900000*%
%TD*%
%TA.AperFunction,ComponentPad*%
%ADD15C,1.900000*%
%TD*%
%TA.AperFunction,ComponentPad*%
%ADD16C,2.100000*%
%TD*%
%TA.AperFunction,ComponentPad*%
%ADD17C,2.600000*%
%TD*%
%TA.AperFunction,ComponentPad*%
%ADD18RoundRect,0.250001X-1.149999X-1.149999X1.149999X-1.149999X1.149999X1.149999X-1.149999X1.149999X0*%
%TD*%
%TA.AperFunction,ComponentPad*%
%ADD19C,2.800000*%
%TD*%
%TA.AperFunction,ViaPad*%
%ADD20C,0.600000*%
%TD*%
%TA.AperFunction,Conductor*%
%ADD21C,0.200000*%
%TD*%
%TA.AperFunction,Conductor*%
%ADD22C,0.550000*%
%TD*%
G04 APERTURE END LIST*
D10*
%TO.P,J5,1,Pin_1*%
%TO.N,GND*%
X210800000Y-62560000D03*
D11*
%TO.P,J5,2,Pin_2*%
X208260000Y-62560000D03*
%TO.P,J5,3,Pin_3*%
%TO.N,unconnected-(J5-Pin_3-Pad3)*%
X210800000Y-65100000D03*
%TO.P,J5,4,Pin_4*%
%TO.N,unconnected-(J5-Pin_4-Pad4)*%
X208260000Y-65100000D03*
%TO.P,J5,5,Pin_5*%
%TO.N,unconnected-(J5-Pin_5-Pad5)*%
X210800000Y-67640000D03*
%TO.P,J5,6,Pin_6*%
%TO.N,unconnected-(J5-Pin_6-Pad6)*%
X208260000Y-67640000D03*
%TO.P,J5,7,Pin_7*%
%TO.N,unconnected-(J5-Pin_7-Pad7)*%
X210800000Y-70180000D03*
%TO.P,J5,8,Pin_8*%
%TO.N,unconnected-(J5-Pin_8-Pad8)*%
X208260000Y-70180000D03*
%TO.P,J5,9,Pin_9*%
%TO.N,unconnected-(J5-Pin_9-Pad9)*%
X210800000Y-72720000D03*
%TO.P,J5,10,Pin_10*%
%TO.N,unconnected-(J5-Pin_10-Pad10)*%
X208260000Y-72720000D03*
%TO.P,J5,11,Pin_11*%
%TO.N,unconnected-(J5-Pin_11-Pad11)*%
X210800000Y-75260000D03*
%TO.P,J5,12,Pin_12*%
%TO.N,unconnected-(J5-Pin_12-Pad12)*%
X208260000Y-75260000D03*
%TO.P,J5,13,Pin_13*%
%TO.N,unconnected-(J5-Pin_13-Pad13)*%
X210800000Y-77800000D03*
%TO.P,J5,14,Pin_14*%
%TO.N,unconnected-(J5-Pin_14-Pad14)*%
X208260000Y-77800000D03*
%TO.P,J5,15,Pin_15*%
%TO.N,unconnected-(J5-Pin_15-Pad15)*%
X210800000Y-80340000D03*
%TO.P,J5,16,Pin_16*%
%TO.N,unconnected-(J5-Pin_16-Pad16)*%
X208260000Y-80340000D03*
%TO.P,J5,17,Pin_17*%
%TO.N,unconnected-(J5-Pin_17-Pad17)*%
X210800000Y-82880000D03*
%TO.P,J5,18,Pin_18*%
%TO.N,unconnected-(J5-Pin_18-Pad18)*%
X208260000Y-82880000D03*
%TO.P,J5,19,Pin_19*%
%TO.N,unconnected-(J5-Pin_19-Pad19)*%
X210800000Y-85420000D03*
%TO.P,J5,20,Pin_20*%
%TO.N,unconnected-(J5-Pin_20-Pad20)*%
X208260000Y-85420000D03*
%TO.P,J5,21,Pin_21*%
%TO.N,unconnected-(J5-Pin_21-Pad21)*%
X210800000Y-87960000D03*
%TO.P,J5,22,Pin_22*%
%TO.N,unconnected-(J5-Pin_22-Pad22)*%
X208260000Y-87960000D03*
%TO.P,J5,23,Pin_23*%
%TO.N,unconnected-(J5-Pin_23-Pad23)*%
X210800000Y-90500000D03*
%TO.P,J5,24,Pin_24*%
%TO.N,unconnected-(J5-Pin_24-Pad24)*%
X208260000Y-90500000D03*
%TO.P,J5,25,Pin_25*%
%TO.N,unconnected-(J5-Pin_25-Pad25)*%
X210800000Y-93040000D03*
%TO.P,J5,26,Pin_26*%
%TO.N,unconnected-(J5-Pin_26-Pad26)*%
X208260000Y-93040000D03*
%TO.P,J5,27,Pin_27*%
%TO.N,unconnected-(J5-Pin_27-Pad27)*%
X210800000Y-95580000D03*
%TO.P,J5,28,Pin_28*%
%TO.N,unconnected-(J5-Pin_28-Pad28)*%
X208260000Y-95580000D03*
%TO.P,J5,29,Pin_29*%
%TO.N,MISO*%
X210800000Y-98120000D03*
%TO.P,J5,30,Pin_30*%
%TO.N,MOSI*%
X208260000Y-98120000D03*
%TO.P,J5,31,Pin_31*%
%TO.N,SCLK*%
X210800000Y-100660000D03*
%TO.P,J5,32,Pin_32*%
%TO.N,CS*%
X208260000Y-100660000D03*
%TO.P,J5,33,Pin_33*%
%TO.N,INT*%
X210800000Y-103200000D03*
%TO.P,J5,34,Pin_34*%
%TO.N,RST*%
X208260000Y-103200000D03*
%TO.P,J5,35,Pin_35*%
%TO.N,unconnected-(J5-Pin_35-Pad35)*%
X210800000Y-105740000D03*
%TO.P,J5,36,Pin_36*%
%TO.N,unconnected-(J5-Pin_36-Pad36)*%
X208260000Y-105740000D03*
%TO.P,J5,37,Pin_37*%
%TO.N,unconnected-(J5-Pin_37-Pad37)*%
X210800000Y-108280000D03*
%TO.P,J5,38,Pin_38*%
%TO.N,unconnected-(J5-Pin_38-Pad38)*%
X208260000Y-108280000D03*
%TO.P,J5,39,Pin_39*%
%TO.N,unconnected-(J5-Pin_39-Pad39)*%
X210800000Y-110820000D03*
%TO.P,J5,40,Pin_40*%
%TO.N,unconnected-(J5-Pin_40-Pad40)*%
X208260000Y-110820000D03*
%TO.P,J5,41,Pin_41*%
%TO.N,unconnected-(J5-Pin_41-Pad41)*%
X210800000Y-113360000D03*
%TO.P,J5,42,Pin_42*%
%TO.N,unconnected-(J5-Pin_42-Pad42)*%
X208260000Y-113360000D03*
%TO.P,J5,43,Pin_43*%
%TO.N,GND*%
X210800000Y-115900000D03*
%TO.P,J5,44,Pin_44*%
X208260000Y-115900000D03*
%TO.P,J5,45,Pin_45*%
X210800000Y-118440000D03*
%TO.P,J5,46,Pin_46*%
X208260000Y-118440000D03*
%TD*%
D12*
%TO.P,J3,1,Pin_1*%
%TO.N,VBAT*%
X204000000Y-46300000D03*
D13*
%TO.P,J3,2,Pin_2*%
%TO.N,GND*%
X206500000Y-46300000D03*
%TD*%
D10*
%TO.P,J6,1,Pin_1*%
%TO.N,GND*%
X162800000Y-62610000D03*
D11*
%TO.P,J6,2,Pin_2*%
X160260000Y-62610000D03*
%TO.P,J6,3,Pin_3*%
%TO.N,+3V3*%
X162800000Y-65150000D03*
%TO.P,J6,4,Pin_4*%
X160260000Y-65150000D03*
%TO.P,J6,5,Pin_5*%
%TO.N,+5V*%
X162800000Y-67690000D03*
%TO.P,J6,6,Pin_6*%
X160260000Y-67690000D03*
%TO.P,J6,7,Pin_7*%
X162800000Y-70230000D03*
%TO.P,J6,8,Pin_8*%
X160260000Y-70230000D03*
%TO.P,J6,9,Pin_9*%
%TO.N,unconnected-(J6-Pin_9-Pad9)*%
X162800000Y-72770000D03*
%TO.P,J6,10,Pin_10*%
%TO.N,unconnected-(J6-Pin_10-Pad10)*%
X160260000Y-72770000D03*
%TO.P,J6,11,Pin_11*%
%TO.N,unconnected-(J6-Pin_11-Pad11)*%
X162800000Y-75310000D03*
%TO.P,J6,12,Pin_12*%
%TO.N,unconnected-(J6-Pin_12-Pad12)*%
X160260000Y-75310000D03*
%TO.P,J6,13,Pin_13*%
%TO.N,unconnected-(J6-Pin_13-Pad13)*%
X162800000Y-77850000D03*
%TO.P,J6,14,Pin_14*%
%TO.N,unconnected-(J6-Pin_14-Pad14)*%
X160260000Y-77850000D03*
%TO.P,J6,15,Pin_15*%
%TO.N,unconnected-(J6-Pin_15-Pad15)*%
X162800000Y-80390000D03*
%TO.P,J6,16,Pin_16*%
%TO.N,unconnected-(J6-Pin_16-Pad16)*%
X160260000Y-80390000D03*
%TO.P,J6,17,Pin_17*%
%TO.N,unconnected-(J6-Pin_17-Pad17)*%
X162800000Y-82930000D03*
%TO.P,J6,18,Pin_18*%
%TO.N,unconnected-(J6-Pin_18-Pad18)*%
X160260000Y-82930000D03*
%TO.P,J6,19,Pin_19*%
%TO.N,unconnected-(J6-Pin_19-Pad19)*%
X162800000Y-85470000D03*
%TO.P,J6,20,Pin_20*%
%TO.N,unconnected-(J6-Pin_20-Pad20)*%
X160260000Y-85470000D03*
%TO.P,J6,21,Pin_21*%
%TO.N,unconnected-(J6-Pin_21-Pad21)*%
X162800000Y-88010000D03*
%TO.P,J6,22,Pin_22*%
%TO.N,unconnected-(J6-Pin_22-Pad22)*%
X160260000Y-88010000D03*
%TO.P,J6,23,Pin_23*%
%TO.N,unconnected-(J6-Pin_23-Pad23)*%
X162800000Y-90550000D03*
%TO.P,J6,24,Pin_24*%
%TO.N,unconnected-(J6-Pin_24-Pad24)*%
X160260000Y-90550000D03*
%TO.P,J6,25,Pin_25*%
%TO.N,unconnected-(J6-Pin_25-Pad25)*%
X162800000Y-93090000D03*
%TO.P,J6,26,Pin_26*%
%TO.N,unconnected-(J6-Pin_26-Pad26)*%
X160260000Y-93090000D03*
%TO.P,J6,27,Pin_27*%
%TO.N,unconnected-(J6-Pin_27-Pad27)*%
X162800000Y-95630000D03*
%TO.P,J6,28,Pin_28*%
%TO.N,unconnected-(J6-Pin_28-Pad28)*%
X160260000Y-95630000D03*
%TO.P,J6,29,Pin_29*%
%TO.N,unconnected-(J6-Pin_29-Pad29)*%
X162800000Y-98170000D03*
%TO.P,J6,30,Pin_30*%
%TO.N,unconnected-(J6-Pin_30-Pad30)*%
X160260000Y-98170000D03*
%TO.P,J6,31,Pin_31*%
%TO.N,unconnected-(J6-Pin_31-Pad31)*%
X162800000Y-100710000D03*
%TO.P,J6,32,Pin_32*%
%TO.N,unconnected-(J6-Pin_32-Pad32)*%
X160260000Y-100710000D03*
%TO.P,J6,33,Pin_33*%
%TO.N,unconnected-(J6-Pin_33-Pad33)*%
X162800000Y-103250000D03*
%TO.P,J6,34,Pin_34*%
%TO.N,unconnected-(J6-Pin_34-Pad34)*%
X160260000Y-103250000D03*
%TO.P,J6,35,Pin_35*%
%TO.N,unconnected-(J6-Pin_35-Pad35)*%
X162800000Y-105790000D03*
%TO.P,J6,36,Pin_36*%
%TO.N,unconnected-(J6-Pin_36-Pad36)*%
X160260000Y-105790000D03*
%TO.P,J6,37,Pin_37*%
%TO.N,unconnected-(J6-Pin_37-Pad37)*%
X162800000Y-108330000D03*
%TO.P,J6,38,Pin_38*%
%TO.N,unconnected-(J6-Pin_38-Pad38)*%
X160260000Y-108330000D03*
%TO.P,J6,39,Pin_39*%
%TO.N,unconnected-(J6-Pin_39-Pad39)*%
X162800000Y-110870000D03*
%TO.P,J6,40,Pin_40*%
%TO.N,unconnected-(J6-Pin_40-Pad40)*%
X160260000Y-110870000D03*
%TO.P,J6,41,Pin_41*%
%TO.N,unconnected-(J6-Pin_41-Pad41)*%
X162800000Y-113410000D03*
%TO.P,J6,42,Pin_42*%
%TO.N,unconnected-(J6-Pin_42-Pad42)*%
X160260000Y-113410000D03*
%TO.P,J6,43,Pin_43*%
%TO.N,unconnected-(J6-Pin_43-Pad43)*%
X162800000Y-115950000D03*
%TO.P,J6,44,Pin_44*%
%TO.N,unconnected-(J6-Pin_44-Pad44)*%
X160260000Y-115950000D03*
%TO.P,J6,45,Pin_45*%
%TO.N,unconnected-(J6-Pin_45-Pad45)*%
X162800000Y-118490000D03*
%TO.P,J6,46,Pin_46*%
%TO.N,unconnected-(J6-Pin_46-Pad46)*%
X160260000Y-118490000D03*
%TD*%
D14*
%TO.P,J4,1,TD+*%
%TO.N,Net-(J4-TD+)*%
X192820000Y-59710000D03*
D15*
%TO.P,J4,2,TCT*%
%TO.N,Net-(J4-TCT)*%
X191550000Y-62250000D03*
%TO.P,J4,3,TD-*%
%TO.N,Net-(J4-TD-)*%
X190280000Y-59710000D03*
%TO.P,J4,4,RD+*%
%TO.N,Net-(J4-RD+)*%
X189010000Y-62250000D03*
%TO.P,J4,5,RCT*%
%TO.N,Net-(J4-RCT)*%
X187740000Y-59710000D03*
%TO.P,J4,6,RD-*%
%TO.N,Net-(J4-RD-)*%
X186470000Y-62250000D03*
%TO.P,J4,7,NC*%
%TO.N,unconnected-(J4-NC-Pad7)*%
X185200000Y-59710000D03*
%TO.P,J4,8*%
%TO.N,unconnected-(J4-Pad8)*%
X183930000Y-62250000D03*
D16*
%TO.P,J4,L1*%
%TO.N,VCCD*%
X195000000Y-49300000D03*
%TO.P,J4,L2*%
%TO.N,Net-(J4-PadL2)*%
X192460000Y-49300000D03*
%TO.P,J4,L3*%
%TO.N,VCCD*%
X184290000Y-49300000D03*
%TO.P,J4,L4*%
%TO.N,Net-(J4-PadL4)*%
X181750000Y-49300000D03*
D17*
%TO.P,J4,SH*%
%TO.N,GND*%
X196120000Y-56410000D03*
X180630000Y-56410000D03*
%TD*%
D18*
%TO.P,J2,1,Pin_1*%
%TO.N,Net-(D5-A)*%
X167000000Y-48000000D03*
D19*
%TO.P,J2,2,Pin_2*%
%TO.N,GND*%
X172000000Y-48000000D03*
%TD*%
D20*
%TO.N,GND*%
X202800000Y-62500000D03*
X176500000Y-98500000D03*
X202000000Y-81000000D03*
X173500000Y-96500000D03*
X195300000Y-64152000D03*
X174500000Y-83000000D03*
X180032000Y-60961800D03*
X196675000Y-115384000D03*
X170000000Y-80500000D03*
X194000000Y-86500000D03*
X199611000Y-62560000D03*
%TO.N,+5V*%
X205500000Y-120500000D03*
X178479999Y-78479999D03*
X206000000Y-59900000D03*
X178681000Y-72335300D03*
X176000000Y-84500000D03*
X178000000Y-107000000D03*
%TO.N,VBAT*%
X198890000Y-76316700D03*
X171290000Y-99340000D03*
%TO.N,Net-(D3-K)*%
X201500000Y-123000000D03*
X167717000Y-110758000D03*
X185100000Y-113580000D03*
%TO.N,+3V3*%
X187500000Y-80500000D03*
X192500000Y-91000000D03*
X180000000Y-127500000D03*
X177000000Y-94000000D03*
X188332000Y-87025100D03*
X182000000Y-118000000D03*
X185477000Y-98247400D03*
%TO.N,Net-(J4-RD+)*%
X201650000Y-65431500D03*
%TO.N,Net-(J4-RD-)*%
X191650000Y-68095200D03*
X203724000Y-68095200D03*
%TO.N,Net-(D4-K)*%
X170288000Y-116245000D03*
X188780000Y-116245000D03*
%TO.N,VCCD*%
X181000000Y-93500000D03*
X181000000Y-84000000D03*
X184000000Y-84000000D03*
%TO.N,Net-(D5-K)*%
X169500000Y-53000000D03*
X176575736Y-69075736D03*
%TO.N,MISO*%
X188775000Y-96947500D03*
%TO.N,MOSI*%
X189385000Y-98089600D03*
%TO.N,INT*%
X190446000Y-100160000D03*
%TO.N,CS*%
X189595000Y-100877000D03*
%TO.N,SCLK*%
X188763000Y-100806000D03*
%TO.N,RST*%
X191570000Y-103200000D03*
%TO.N,RXP*%
X186060000Y-85901200D03*
X186916795Y-89978542D03*
%TO.N,RXN*%
X185448000Y-86434500D03*
X187713000Y-89900700D03*
%TO.N,TXN*%
X190537000Y-90194900D03*
X191700000Y-81000000D03*
%TO.N,LINKLED*%
X176000000Y-76000000D03*
X176000000Y-70500000D03*
X182600000Y-101000000D03*
X178500000Y-62000000D03*
%TO.N,ACTLED*%
X199000000Y-48500000D03*
X205000000Y-69500000D03*
X184000000Y-101500000D03*
X205000000Y-66000000D03*
%TO.N,Net-(RN2-Pad7)*%
X202000000Y-100000000D03*
X202500000Y-105500000D03*
X181000000Y-98717590D03*
X199500000Y-100000000D03*
%TO.N,Net-(U3-VIN)*%
X187750000Y-115250000D03*
X179500000Y-115000000D03*
%TD*%
D21*
%TO.N,GND*%
X180630000Y-56410000D02*
X186500000Y-56410000D01*
X192500000Y-56410000D02*
X196120000Y-56410000D01*
X199611000Y-62560000D02*
X202740000Y-62560000D01*
X190871000Y-60961800D02*
X180032000Y-60961800D01*
X170000000Y-80500000D02*
X172000000Y-80500000D01*
X196892000Y-62560000D02*
X195300000Y-64152000D01*
X173500000Y-96500000D02*
X175500000Y-98500000D01*
X194000000Y-86500000D02*
X199500000Y-81000000D01*
X171050000Y-60961800D02*
X165600000Y-60961800D01*
X191568000Y-60264200D02*
X190871000Y-60961800D01*
X199611000Y-62560000D02*
X195509000Y-58458300D01*
X165600000Y-60961800D02*
X163952000Y-62610000D01*
X197191000Y-115900000D02*
X196675000Y-115384000D01*
X208260000Y-118440000D02*
X210800000Y-118440000D01*
X199611000Y-62560000D02*
X196892000Y-62560000D01*
X172000000Y-80500000D02*
X174500000Y-83000000D01*
X191745000Y-58458300D02*
X191568000Y-58635000D01*
X180032000Y-60961800D02*
X171050000Y-60961800D01*
X186500000Y-56410000D02*
X190000000Y-56410000D01*
X163952000Y-62610000D02*
X162800000Y-62610000D01*
X208260000Y-115900000D02*
X197191000Y-115900000D01*
X162800000Y-62610000D02*
X160260000Y-62610000D01*
X191568000Y-58635000D02*
X191568000Y-60264200D01*
X202740000Y-62560000D02*
X202800000Y-62500000D01*
X192500000Y-57958300D02*
X193000000Y-58458300D01*
X199500000Y-81000000D02*
X202000000Y-81000000D01*
X192500000Y-56410000D02*
X192500000Y-57958300D01*
X195509000Y-58458300D02*
X193000000Y-58458300D01*
X190000000Y-56410000D02*
X192500000Y-56410000D01*
X175500000Y-98500000D02*
X176500000Y-98500000D01*
X193000000Y-58458300D02*
X191745000Y-58458300D01*
%TO.N,+5V*%
X178479999Y-78479999D02*
X178479999Y-82020001D01*
X178000000Y-107000000D02*
X186000000Y-107000000D01*
X160260000Y-67690000D02*
X162800000Y-67690000D01*
X206000000Y-66667729D02*
X200332429Y-72335300D01*
X206000000Y-59900000D02*
X206000000Y-66667729D01*
X186000000Y-107000000D02*
X197500000Y-118500000D01*
X197500000Y-118500000D02*
X203500000Y-118500000D01*
X178479999Y-82020001D02*
X176000000Y-84500000D01*
X203500000Y-118500000D02*
X205500000Y-120500000D01*
X160260000Y-70230000D02*
X162800000Y-70230000D01*
X162800000Y-70230000D02*
X162800000Y-67690000D01*
X200332429Y-72335300D02*
X178681000Y-72335300D01*
D22*
%TO.N,VBAT*%
X171290000Y-93710000D02*
X171290000Y-99340000D01*
X198890000Y-76316700D02*
X190000000Y-76316700D01*
X190000000Y-81000000D02*
X186000000Y-85000000D01*
X190000000Y-76316700D02*
X190000000Y-81000000D01*
X180000000Y-85000000D02*
X171290000Y-93710000D01*
X186000000Y-85000000D02*
X180000000Y-85000000D01*
D21*
%TO.N,Net-(D3-K)*%
X170539000Y-113580000D02*
X185100000Y-113580000D01*
X190580000Y-113580000D02*
X199500000Y-122500000D01*
X167717000Y-110758000D02*
X170539000Y-113580000D01*
X200000000Y-123000000D02*
X201500000Y-123000000D01*
X185100000Y-113580000D02*
X190580000Y-113580000D01*
X199500000Y-122500000D02*
X200000000Y-123000000D01*
%TO.N,+3V3*%
X187750000Y-95250000D02*
X185477000Y-97523000D01*
X192500000Y-91000000D02*
X191922500Y-90422500D01*
X191000000Y-92000000D02*
X187750000Y-95250000D01*
X191577500Y-90422500D02*
X191000000Y-91000000D01*
X181435300Y-72935300D02*
X170585300Y-72935300D01*
X191000000Y-91000000D02*
X191000000Y-92000000D01*
X191608000Y-90422500D02*
X191577500Y-90422500D01*
X185477000Y-97523000D02*
X185477000Y-98247400D01*
X160260000Y-65150000D02*
X162800000Y-65150000D01*
X191608000Y-90300400D02*
X188332000Y-87025100D01*
X187500000Y-80500000D02*
X187500000Y-79000000D01*
X187500000Y-79000000D02*
X181435300Y-72935300D01*
X191922500Y-90422500D02*
X191608000Y-90422500D01*
X187750000Y-95250000D02*
X178250000Y-95250000D01*
X178250000Y-95250000D02*
X177000000Y-94000000D01*
X170585300Y-72935300D02*
X162800000Y-65150000D01*
X182000000Y-118000000D02*
X182000000Y-125500000D01*
X182000000Y-125500000D02*
X180000000Y-127500000D01*
X191608000Y-90422500D02*
X191608000Y-90300400D01*
%TO.N,Net-(J4-RD+)*%
X192192000Y-65431500D02*
X201650000Y-65431500D01*
X189010000Y-62250000D02*
X192192000Y-65431500D01*
%TO.N,Net-(J4-RD-)*%
X203724000Y-68095200D02*
X191650000Y-68095200D01*
X191650000Y-67430000D02*
X186470000Y-62250000D01*
X191650000Y-68095200D02*
X191650000Y-67430000D01*
%TO.N,Net-(D4-K)*%
X188780000Y-116245000D02*
X170288000Y-116245000D01*
%TO.N,VCCD*%
X184000000Y-84000000D02*
X181000000Y-84000000D01*
%TO.N,Net-(D5-K)*%
X176575736Y-69075736D02*
X171260000Y-63760000D01*
X169000000Y-52500000D02*
X169500000Y-53000000D01*
X159110000Y-63390000D02*
X159110000Y-53890000D01*
X160500000Y-52500000D02*
X169000000Y-52500000D01*
X171260000Y-63760000D02*
X159260000Y-63760000D01*
X159110000Y-53890000D02*
X160500000Y-52500000D01*
X159100000Y-63600000D02*
X159100000Y-63400000D01*
X159260000Y-63760000D02*
X159100000Y-63600000D01*
X159100000Y-63400000D02*
X159110000Y-63390000D01*
%TO.N,MISO*%
X209627500Y-96947500D02*
X210800000Y-98120000D01*
X188775000Y-96947500D02*
X209627500Y-96947500D01*
%TO.N,MOSI*%
X189385000Y-98089600D02*
X189295400Y-98000000D01*
X189385000Y-98089600D02*
X189415400Y-98120000D01*
X189415400Y-98120000D02*
X208260000Y-98120000D01*
%TO.N,INT*%
X187500000Y-100000000D02*
X187000000Y-100500000D01*
X187000000Y-100500000D02*
X187000000Y-103000000D01*
X188500000Y-104500000D02*
X209500000Y-104500000D01*
X190286000Y-100000000D02*
X187500000Y-100000000D01*
X187000000Y-103000000D02*
X188500000Y-104500000D01*
X190446000Y-100160000D02*
X190286000Y-100000000D01*
X209500000Y-104500000D02*
X210800000Y-103200000D01*
%TO.N,CS*%
X189595000Y-100877000D02*
X208043000Y-100877000D01*
X208043000Y-100877000D02*
X208260000Y-100660000D01*
%TO.N,SCLK*%
X188763000Y-100806000D02*
X188763000Y-100893529D01*
X189679471Y-101810000D02*
X209650000Y-101810000D01*
X188763000Y-100895000D02*
X188763000Y-100806000D01*
X209650000Y-101810000D02*
X210800000Y-100660000D01*
X188763000Y-100893529D02*
X189679471Y-101810000D01*
X188763000Y-100806000D02*
X188694000Y-100806000D01*
%TO.N,RST*%
X191570000Y-103200000D02*
X208260000Y-103200000D01*
%TO.N,RXP*%
X188348000Y-90153000D02*
X188348000Y-88932300D01*
X187999000Y-90502500D02*
X188348000Y-90153000D01*
X187440753Y-90502500D02*
X187999000Y-90502500D01*
X186060000Y-86643500D02*
X186060000Y-85901200D01*
X188348000Y-88932300D02*
X186060000Y-86643500D01*
X186916795Y-89978542D02*
X187440753Y-90502500D01*
%TO.N,RXN*%
X187713000Y-89900700D02*
X185448000Y-87635400D01*
X185448000Y-87635400D02*
X185448000Y-86434500D01*
%TO.N,TXN*%
X187731000Y-84769000D02*
X187731000Y-87388700D01*
X187731000Y-87388700D02*
X190537000Y-90194900D01*
X191500000Y-81000000D02*
X187731000Y-84769000D01*
X191700000Y-81000000D02*
X191500000Y-81000000D01*
%TO.N,LINKLED*%
X168500000Y-97539950D02*
X171460050Y-100500000D01*
X171460050Y-100500000D02*
X182100000Y-100500000D01*
X182100000Y-100500000D02*
X182600000Y-101000000D01*
X168500000Y-76500000D02*
X168500000Y-97539950D01*
X178500000Y-68000000D02*
X178500000Y-62000000D01*
X176000000Y-70500000D02*
X178500000Y-68000000D01*
X176000000Y-76000000D02*
X169000000Y-76000000D01*
X169000000Y-76000000D02*
X168500000Y-76500000D01*
%TO.N,ACTLED*%
X205000000Y-66000000D02*
X205000000Y-54500000D01*
X184000000Y-101500000D02*
X184000000Y-100873971D01*
X184000000Y-100873971D02*
X205000000Y-79873971D01*
X205000000Y-54500000D02*
X199000000Y-48500000D01*
X205000000Y-79873971D02*
X205000000Y-69500000D01*
%TO.N,Net-(J4-PadL4)*%
X181750000Y-49300000D02*
X181750000Y-49656928D01*
%TO.N,Net-(RN2-Pad7)*%
X183200000Y-100751471D02*
X183200000Y-101700000D01*
X202000000Y-100000000D02*
X199500000Y-100000000D01*
X187000000Y-105500000D02*
X202500000Y-105500000D01*
X183200000Y-101700000D02*
X187000000Y-105500000D01*
X181000000Y-98717590D02*
X181166119Y-98717590D01*
X181166119Y-98717590D02*
X183200000Y-100751471D01*
%TO.N,Net-(U3-VIN)*%
X179500000Y-115000000D02*
X187500000Y-115000000D01*
X187500000Y-115000000D02*
X187750000Y-115250000D01*
%TD*%
%TA.AperFunction,Conductor*%
%TO.N,GND*%
G36*
X208102702Y-43320617D02*
G01*
X208486771Y-43337386D01*
X208497506Y-43338326D01*
X208875971Y-43388152D01*
X208886597Y-43390025D01*
X209259284Y-43472648D01*
X209269710Y-43475442D01*
X209633765Y-43590227D01*
X209643911Y-43593920D01*
X209996578Y-43740000D01*
X210006369Y-43744566D01*
X210344942Y-43920816D01*
X210354310Y-43926224D01*
X210676244Y-44131318D01*
X210685105Y-44137523D01*
X210987930Y-44369889D01*
X210996217Y-44376843D01*
X211277635Y-44634715D01*
X211285284Y-44642364D01*
X211543156Y-44923782D01*
X211550110Y-44932069D01*
X211782476Y-45234894D01*
X211788681Y-45243755D01*
X211993775Y-45565689D01*
X211999183Y-45575057D01*
X212175430Y-45913623D01*
X212180002Y-45923427D01*
X212326075Y-46276078D01*
X212329775Y-46286244D01*
X212444554Y-46650278D01*
X212447354Y-46660727D01*
X212529971Y-47033389D01*
X212531849Y-47044042D01*
X212581671Y-47422473D01*
X212582614Y-47433249D01*
X212599382Y-47817297D01*
X212599500Y-47822706D01*
X212599500Y-124197293D01*
X212599382Y-124202702D01*
X212582614Y-124586750D01*
X212581671Y-124597526D01*
X212531849Y-124975957D01*
X212529971Y-124986610D01*
X212447354Y-125359272D01*
X212444554Y-125369721D01*
X212329775Y-125733755D01*
X212326075Y-125743921D01*
X212180002Y-126096572D01*
X212175430Y-126106376D01*
X211999183Y-126444942D01*
X211993775Y-126454310D01*
X211788681Y-126776244D01*
X211782476Y-126785105D01*
X211550110Y-127087930D01*
X211543156Y-127096217D01*
X211285284Y-127377635D01*
X211277635Y-127385284D01*
X210996217Y-127643156D01*
X210987930Y-127650110D01*
X210685105Y-127882476D01*
X210676244Y-127888681D01*
X210354310Y-128093775D01*
X210344942Y-128099183D01*
X210006376Y-128275430D01*
X209996572Y-128280002D01*
X209643921Y-128426075D01*
X209633755Y-128429775D01*
X209269721Y-128544554D01*
X209259272Y-128547354D01*
X208886610Y-128629971D01*
X208875957Y-128631849D01*
X208497526Y-128681671D01*
X208486750Y-128682614D01*
X208102703Y-128699382D01*
X208097294Y-128699500D01*
X163502706Y-128699500D01*
X163497297Y-128699382D01*
X163113249Y-128682614D01*
X163102473Y-128681671D01*
X162724042Y-128631849D01*
X162713389Y-128629971D01*
X162340727Y-128547354D01*
X162330278Y-128544554D01*
X161966244Y-128429775D01*
X161956078Y-128426075D01*
X161603427Y-128280002D01*
X161593623Y-128275430D01*
X161255057Y-128099183D01*
X161245689Y-128093775D01*
X160923755Y-127888681D01*
X160914894Y-127882476D01*
X160612069Y-127650110D01*
X160603782Y-127643156D01*
X160447550Y-127499996D01*
X179194435Y-127499996D01*
X179194435Y-127500003D01*
X179214630Y-127679249D01*
X179214631Y-127679254D01*
X179274211Y-127849523D01*
X179294917Y-127882476D01*
X179370184Y-128002262D01*
X179497738Y-128129816D01*
X179650478Y-128225789D01*
X179792344Y-128275430D01*
X179820745Y-128285368D01*
X179820750Y-128285369D01*
X179999996Y-128305565D01*
X180000000Y-128305565D01*
X180000004Y-128305565D01*
X180179249Y-128285369D01*
X180179252Y-128285368D01*
X180179255Y-128285368D01*
X180349522Y-128225789D01*
X180502262Y-128129816D01*
X180629816Y-128002262D01*
X180725789Y-127849522D01*
X180785368Y-127679255D01*
X180795161Y-127592329D01*
X180822226Y-127527918D01*
X180830690Y-127518543D01*
X182358506Y-125990728D01*
X182358511Y-125990724D01*
X182368714Y-125980520D01*
X182368716Y-125980520D01*
X182480520Y-125868716D01*
X182537032Y-125770834D01*
X182559577Y-125731785D01*
X182600500Y-125579057D01*
X182600500Y-125420943D01*
X182600500Y-118582412D01*
X182620185Y-118515373D01*
X182627555Y-118505097D01*
X182629810Y-118502267D01*
X182629816Y-118502262D01*
X182725789Y-118349522D01*
X182785368Y-118179255D01*
X182785369Y-118179249D01*
X182805565Y-118000003D01*
X182805565Y-117999996D01*
X182785369Y-117820750D01*
X182785368Y-117820745D01*
X182725788Y-117650476D01*
X182629815Y-117497737D01*
X182502262Y-117370184D01*
X182349523Y-117274211D01*
X182179254Y-117214631D01*
X182179249Y-117214630D01*
X182000004Y-117194435D01*
X181999996Y-117194435D01*
X181820750Y-117214630D01*
X181820745Y-117214631D01*
X181650476Y-117274211D01*
X181497737Y-117370184D01*
X181370184Y-117497737D01*
X181274211Y-117650476D01*
X181214631Y-117820745D01*
X181214630Y-117820750D01*
X181194435Y-117999996D01*
X181194435Y-118000003D01*
X181214630Y-118179249D01*
X181214631Y-118179254D01*
X181274211Y-118349523D01*
X181334515Y-118445496D01*
X181362479Y-118490000D01*
X181370185Y-118502263D01*
X181372445Y-118505097D01*
X181373334Y-118507275D01*
X181373889Y-118508158D01*
X181373734Y-118508255D01*
X181398855Y-118569783D01*
X181399500Y-118582412D01*
X181399500Y-125199902D01*
X181379815Y-125266941D01*
X181363181Y-125287583D01*
X179981465Y-126669298D01*
X179920142Y-126702783D01*
X179907668Y-126704837D01*
X179820750Y-126714630D01*
X179650478Y-126774210D01*
X179497737Y-126870184D01*
X179370184Y-126997737D01*
X179274211Y-127150476D01*
X179214631Y-127320745D01*
X179214630Y-127320750D01*
X179194435Y-127499996D01*
X160447550Y-127499996D01*
X160322364Y-127385284D01*
X160314715Y-127377635D01*
X160056843Y-127096217D01*
X160049889Y-127087930D01*
X159817523Y-126785105D01*
X159811318Y-126776244D01*
X159606224Y-126454310D01*
X159600816Y-126444942D01*
X159424569Y-126106376D01*
X159419997Y-126096572D01*
X159376157Y-125990732D01*
X159273920Y-125743911D01*
X159270224Y-125733755D01*
X159155442Y-125369710D01*
X159152648Y-125359284D01*
X159070025Y-124986597D01*
X159068152Y-124975971D01*
X159018326Y-124597506D01*
X159017386Y-124586771D01*
X159000618Y-124202702D01*
X159000500Y-124197293D01*
X159000500Y-119438704D01*
X159020185Y-119371665D01*
X159072989Y-119325910D01*
X159142147Y-119315966D01*
X159205703Y-119344991D01*
X159219490Y-119358999D01*
X159221501Y-119361396D01*
X159221505Y-119361401D01*
X159388599Y-119528495D01*
X159485384Y-119596265D01*
X159582165Y-119664032D01*
X159582167Y-119664033D01*
X159582170Y-119664035D01*
X159796337Y-119763903D01*
X159796343Y-119763904D01*
X159796344Y-119763905D01*
X159834804Y-119774210D01*
X160024592Y-119825063D01*
X160212918Y-119841539D01*
X160259999Y-119845659D01*
X160260000Y-119845659D01*
X160260001Y-119845659D01*
X160299234Y-119842226D01*
X160495408Y-119825063D01*
X160723663Y-119763903D01*
X160937830Y-119664035D01*
X161131401Y-119528495D01*
X161298495Y-119361401D01*
X161428425Y-119175842D01*
X161483002Y-119132217D01*
X161552500Y-119125023D01*
X161614855Y-119156546D01*
X161631575Y-119175842D01*
X161761500Y-119361395D01*
X161761505Y-119361401D01*
X161928599Y-119528495D01*
X162025384Y-119596265D01*
X162122165Y-119664032D01*
X162122167Y-119664033D01*
X162122170Y-119664035D01*
X162336337Y-119763903D01*
X162336343Y-119763904D01*
X162336344Y-119763905D01*
X162374804Y-119774210D01*
X162564592Y-119825063D01*
X162752918Y-119841539D01*
X162799999Y-119845659D01*
X162800000Y-119845659D01*
X162800001Y-119845659D01*
X162839234Y-119842226D01*
X163035408Y-119825063D01*
X163263663Y-119763903D01*
X163477830Y-119664035D01*
X163671401Y-119528495D01*
X163838495Y-119361401D01*
X163974035Y-119167830D01*
X164073903Y-118953663D01*
X164135063Y-118725408D01*
X164155659Y-118490000D01*
X164135063Y-118254592D01*
X164088626Y-118081285D01*
X164073905Y-118026344D01*
X164073904Y-118026343D01*
X164073903Y-118026337D01*
X163974035Y-117812171D01*
X163968425Y-117804158D01*
X163838494Y-117618597D01*
X163671402Y-117451506D01*
X163671396Y-117451501D01*
X163485842Y-117321575D01*
X163442217Y-117266998D01*
X163435023Y-117197500D01*
X163466546Y-117135145D01*
X163485842Y-117118425D01*
X163582756Y-117050565D01*
X163671401Y-116988495D01*
X163838495Y-116821401D01*
X163974035Y-116627830D01*
X164073903Y-116413663D01*
X164135063Y-116185408D01*
X164155659Y-115950000D01*
X164135063Y-115714592D01*
X164083396Y-115521764D01*
X164073905Y-115486344D01*
X164073904Y-115486343D01*
X164073903Y-115486337D01*
X163974035Y-115272171D01*
X163968425Y-115264158D01*
X163838494Y-115078597D01*
X163671402Y-114911506D01*
X163671396Y-114911501D01*
X163485842Y-114781575D01*
X163442217Y-114726998D01*
X163435023Y-114657500D01*
X163466546Y-114595145D01*
X163485842Y-114578425D01*
X163549237Y-114534035D01*
X163671401Y-114448495D01*
X163838495Y-114281401D01*
X163974035Y-114087830D01*
X164073903Y-113873663D01*
X164135063Y-113645408D01*
X164155659Y-113410000D01*
X164135063Y-113174592D01*
X164073903Y-112946337D01*
X163974035Y-112732171D01*
X163968425Y-112724158D01*
X163838494Y-112538597D01*
X163671402Y-112371506D01*
X163671396Y-112371501D01*
X163485842Y-112241575D01*
X163442217Y-112186998D01*
X163435023Y-112117500D01*
X163466546Y-112055145D01*
X163485842Y-112038425D01*
X163557249Y-111988425D01*
X163671401Y-111908495D01*
X163838495Y-111741401D01*
X163974035Y-111547830D01*
X164073903Y-111333663D01*
X164135063Y-111105408D01*
X164155659Y-110870000D01*
X164145860Y-110757996D01*
X166911435Y-110757996D01*
X166911435Y-110758003D01*
X166931630Y-110937249D01*
X166931631Y-110937254D01*
X166991211Y-111107523D01*
X167087184Y-111260262D01*
X167214738Y-111387816D01*
X167367478Y-111483789D01*
X167537745Y-111543368D01*
X167624669Y-111553161D01*
X167689080Y-111580226D01*
X167698464Y-111588699D01*
X170170284Y-114060520D01*
X170170286Y-114060521D01*
X170170290Y-114060524D01*
X170231464Y-114095842D01*
X170307216Y-114139577D01*
X170459943Y-114180501D01*
X170459945Y-114180501D01*
X170625654Y-114180501D01*
X170625670Y-114180500D01*
X178888060Y-114180500D01*
X178955099Y-114200185D01*
X179000854Y-114252989D01*
X179010798Y-114322147D01*
X178981773Y-114385703D01*
X178975741Y-114392181D01*
X178870184Y-114497737D01*
X178774211Y-114650476D01*
X178714631Y-114820745D01*
X178714630Y-114820750D01*
X178694435Y-114999996D01*
X178694435Y-115000003D01*
X178714630Y-115179249D01*
X178714631Y-115179254D01*
X178762123Y-115314977D01*
X178774211Y-115349522D01*
X178837391Y-115450073D01*
X178840191Y-115454528D01*
X178859191Y-115521764D01*
X178838824Y-115588600D01*
X178785556Y-115633814D01*
X178735197Y-115644500D01*
X170870412Y-115644500D01*
X170803373Y-115624815D01*
X170793097Y-115617445D01*
X170790263Y-115615185D01*
X170790262Y-115615184D01*
X170733496Y-115579515D01*
X170637523Y-115519211D01*
X170467254Y-115459631D01*
X170467249Y-115459630D01*
X170288004Y-115439435D01*
X170287996Y-115439435D01*
X170108750Y-115459630D01*
X170108745Y-115459631D01*
X169938476Y-115519211D01*
X169785737Y-115615184D01*
X169658184Y-115742737D01*
X169562211Y-115895476D01*
X169502631Y-116065745D01*
X169502630Y-116065750D01*
X169482435Y-116244996D01*
X169482435Y-116245003D01*
X169502630Y-116424249D01*
X169502631Y-116424254D01*
X169562211Y-116594523D01*
X169583142Y-116627834D01*
X169658184Y-116747262D01*
X169785738Y-116874816D01*
X169938478Y-116970789D01*
X170108745Y-117030368D01*
X170108750Y-117030369D01*
X170287996Y-117050565D01*
X170288000Y-117050565D01*
X170288004Y-117050565D01*
X170467249Y-117030369D01*
X170467252Y-117030368D01*
X170467255Y-117030368D01*
X170637522Y-116970789D01*
X170790262Y-116874816D01*
X170790267Y-116874810D01*
X170793097Y-116872555D01*
X170795275Y-116871665D01*
X170796158Y-116871111D01*
X170796255Y-116871265D01*
X170857783Y-116846145D01*
X170870412Y-116845500D01*
X188197588Y-116845500D01*
X188264627Y-116865185D01*
X188274903Y-116872555D01*
X188277736Y-116874814D01*
X188277738Y-116874816D01*
X188430478Y-116970789D01*
X188600745Y-117030368D01*
X188600750Y-117030369D01*
X188779996Y-117050565D01*
X188780000Y-117050565D01*
X188780004Y-117050565D01*
X188959249Y-117030369D01*
X188959252Y-117030368D01*
X188959255Y-117030368D01*
X189129522Y-116970789D01*
X189282262Y-116874816D01*
X189409816Y-116747262D01*
X189505789Y-116594522D01*
X189565368Y-116424255D01*
X189565369Y-116424249D01*
X189585565Y-116245003D01*
X189585565Y-116244996D01*
X189565369Y-116065750D01*
X189565368Y-116065745D01*
X189505788Y-115895476D01*
X189409815Y-115742737D01*
X189282262Y-115615184D01*
X189129523Y-115519211D01*
X188959254Y-115459631D01*
X188959249Y-115459630D01*
X188780004Y-115439435D01*
X188779995Y-115439435D01*
X188685572Y-115450073D01*
X188616751Y-115438018D01*
X188565372Y-115390669D01*
X188547748Y-115323058D01*
X188548470Y-115312969D01*
X188555565Y-115250002D01*
X188555565Y-115249996D01*
X188535369Y-115070750D01*
X188535368Y-115070745D01*
X188479648Y-114911506D01*
X188475789Y-114900478D01*
X188379816Y-114747738D01*
X188252262Y-114620184D01*
X188212413Y-114595145D01*
X188099523Y-114524211D01*
X187929254Y-114464631D01*
X187929250Y-114464630D01*
X187753638Y-114444844D01*
X187735429Y-114441399D01*
X187693194Y-114430082D01*
X187671519Y-114424274D01*
X187611859Y-114387910D01*
X187581330Y-114325064D01*
X187589624Y-114255688D01*
X187634110Y-114201810D01*
X187700661Y-114180535D01*
X187703613Y-114180500D01*
X190279903Y-114180500D01*
X190346942Y-114200185D01*
X190367584Y-114216819D01*
X199019481Y-122868716D01*
X199631284Y-123480520D01*
X199631286Y-123480521D01*
X199631290Y-123480524D01*
X199768209Y-123559573D01*
X199768216Y-123559577D01*
X199920943Y-123600501D01*
X199920945Y-123600501D01*
X200086654Y-123600501D01*
X200086670Y-123600500D01*
X200917588Y-123600500D01*
X200984627Y-123620185D01*
X200994903Y-123627555D01*
X200997736Y-123629814D01*
X200997738Y-123629816D01*
X201150478Y-123725789D01*
X201320745Y-123785368D01*
X201320750Y-123785369D01*
X201499996Y-123805565D01*
X201500000Y-123805565D01*
X201500004Y-123805565D01*
X201679249Y-123785369D01*
X201679252Y-123785368D01*
X201679255Y-123785368D01*
X201849522Y-123725789D01*
X202002262Y-123629816D01*
X202129816Y-123502262D01*
X202225789Y-123349522D01*
X202285368Y-123179255D01*
X202305565Y-123000000D01*
X202285368Y-122820745D01*
X202225789Y-122650478D01*
X202129816Y-122497738D01*
X202002262Y-122370184D01*
X201991117Y-122363181D01*
X201849523Y-122274211D01*
X201679254Y-122214631D01*
X201679249Y-122214630D01*
X201500004Y-122194435D01*
X201499996Y-122194435D01*
X201320750Y-122214630D01*
X201320745Y-122214631D01*
X201150476Y-122274211D01*
X200997736Y-122370185D01*
X200994903Y-122372445D01*
X200992724Y-122373334D01*
X200991842Y-122373889D01*
X200991744Y-122373734D01*
X200930217Y-122398855D01*
X200917588Y-122399500D01*
X200300098Y-122399500D01*
X200233059Y-122379815D01*
X200212417Y-122363181D01*
X199868716Y-122019481D01*
X197083860Y-119234625D01*
X197050375Y-119173302D01*
X197055359Y-119103610D01*
X197097231Y-119047677D01*
X197162695Y-119023260D01*
X197230968Y-119038112D01*
X197233525Y-119039548D01*
X197268215Y-119059577D01*
X197420943Y-119100501D01*
X197420946Y-119100501D01*
X197586653Y-119100501D01*
X197586669Y-119100500D01*
X203199903Y-119100500D01*
X203266942Y-119120185D01*
X203287584Y-119136819D01*
X204669298Y-120518533D01*
X204702783Y-120579856D01*
X204704837Y-120592330D01*
X204714630Y-120679249D01*
X204774210Y-120849521D01*
X204870184Y-121002262D01*
X204997738Y-121129816D01*
X205150478Y-121225789D01*
X205320745Y-121285368D01*
X205320750Y-121285369D01*
X205499996Y-121305565D01*
X205500000Y-121305565D01*
X205500004Y-121305565D01*
X205679249Y-121285369D01*
X205679252Y-121285368D01*
X205679255Y-121285368D01*
X205849522Y-121225789D01*
X206002262Y-121129816D01*
X206129816Y-121002262D01*
X206225789Y-120849522D01*
X206285368Y-120679255D01*
X206295162Y-120592330D01*
X206305565Y-120500003D01*
X206305565Y-120499996D01*
X206285369Y-120320750D01*
X206285368Y-120320745D01*
X206225788Y-120150476D01*
X206129815Y-119997737D01*
X206002262Y-119870184D01*
X205849521Y-119774210D01*
X205679249Y-119714630D01*
X205592330Y-119704837D01*
X205527916Y-119677770D01*
X205518533Y-119669298D01*
X203987590Y-118138355D01*
X203987588Y-118138352D01*
X203868717Y-118019481D01*
X203868716Y-118019480D01*
X203781904Y-117969360D01*
X203781904Y-117969359D01*
X203781900Y-117969358D01*
X203731785Y-117940423D01*
X203579057Y-117899499D01*
X203420943Y-117899499D01*
X203413347Y-117899499D01*
X203413331Y-117899500D01*
X197800097Y-117899500D01*
X197733058Y-117879815D01*
X197712416Y-117863181D01*
X186487590Y-106638355D01*
X186487588Y-106638352D01*
X186368717Y-106519481D01*
X186368709Y-106519475D01*
X186266936Y-106460717D01*
X186266934Y-106460716D01*
X186231790Y-106440425D01*
X186231789Y-106440424D01*
X186201160Y-106432217D01*
X186079057Y-106399499D01*
X185920943Y-106399499D01*
X185913347Y-106399499D01*
X185913331Y-106399500D01*
X178582412Y-106399500D01*
X178515373Y-106379815D01*
X178505097Y-106372445D01*
X178502263Y-106370185D01*
X178502262Y-106370184D01*
X178399422Y-106305565D01*
X178349523Y-106274211D01*
X178179254Y-106214631D01*
X178179249Y-106214630D01*
X178000004Y-106194435D01*
X177999996Y-106194435D01*
X177820750Y-106214630D01*
X177820745Y-106214631D01*
X177650476Y-106274211D01*
X177497737Y-106370184D01*
X177370184Y-106497737D01*
X177274211Y-106650476D01*
X177214631Y-106820745D01*
X177214630Y-106820750D01*
X177194435Y-106999996D01*
X177194435Y-107000003D01*
X177214630Y-107179249D01*
X177214631Y-107179254D01*
X177274211Y-107349523D01*
X177342747Y-107458597D01*
X177370184Y-107502262D01*
X177497738Y-107629816D01*
X177650478Y-107725789D01*
X177820745Y-107785368D01*
X177820750Y-107785369D01*
X177999996Y-107805565D01*
X178000000Y-107805565D01*
X178000004Y-107805565D01*
X178179249Y-107785369D01*
X178179252Y-107785368D01*
X178179255Y-107785368D01*
X178349522Y-107725789D01*
X178502262Y-107629816D01*
X178502267Y-107629810D01*
X178505097Y-107627555D01*
X178507275Y-107626665D01*
X178508158Y-107626111D01*
X178508255Y-107626265D01*
X178569783Y-107601145D01*
X178582412Y-107600500D01*
X185699903Y-107600500D01*
X185766942Y-107620185D01*
X185787584Y-107636819D01*
X190996138Y-112845373D01*
X191029623Y-112906696D01*
X191024639Y-112976388D01*
X190982767Y-113032321D01*
X190917303Y-113056738D01*
X190849030Y-113041886D01*
X190846456Y-113040440D01*
X190811790Y-113020425D01*
X190811789Y-113020424D01*
X190799263Y-113017067D01*
X190659057Y-112979499D01*
X190500943Y-112979499D01*
X190493347Y-112979499D01*
X190493331Y-112979500D01*
X185682412Y-112979500D01*
X185615373Y-112959815D01*
X185605097Y-112952445D01*
X185602263Y-112950185D01*
X185602262Y-112950184D01*
X185533051Y-112906696D01*
X185449523Y-112854211D01*
X185279254Y-112794631D01*
X185279249Y-112794630D01*
X185100004Y-112774435D01*
X185099996Y-112774435D01*
X184920750Y-112794630D01*
X184920745Y-112794631D01*
X184750476Y-112854211D01*
X184597736Y-112950185D01*
X184594903Y-112952445D01*
X184592724Y-112953334D01*
X184591842Y-112953889D01*
X184591744Y-112953734D01*
X184530217Y-112978855D01*
X184517588Y-112979500D01*
X170839098Y-112979500D01*
X170772059Y-112959815D01*
X170751417Y-112943181D01*
X168547700Y-110739465D01*
X168514215Y-110678142D01*
X168512163Y-110665686D01*
X168502368Y-110578745D01*
X168442789Y-110408478D01*
X168346816Y-110255738D01*
X168219262Y-110128184D01*
X168066523Y-110032211D01*
X167896254Y-109972631D01*
X167896249Y-109972630D01*
X167717004Y-109952435D01*
X167716996Y-109952435D01*
X167537750Y-109972630D01*
X167537745Y-109972631D01*
X167367476Y-110032211D01*
X167214737Y-110128184D01*
X167087184Y-110255737D01*
X166991211Y-110408476D01*
X166931631Y-110578745D01*
X166931630Y-110578750D01*
X166911435Y-110757996D01*
X164145860Y-110757996D01*
X164135063Y-110634592D01*
X164073903Y-110406337D01*
X163974035Y-110192171D01*
X163968425Y-110184158D01*
X163838494Y-109998597D01*
X163671402Y-109831506D01*
X163671396Y-109831501D01*
X163485842Y-109701575D01*
X163442217Y-109646998D01*
X163435023Y-109577500D01*
X163466546Y-109515145D01*
X163485842Y-109498425D01*
X163557249Y-109448425D01*
X163671401Y-109368495D01*
X163838495Y-109201401D01*
X163974035Y-109007830D01*
X164073903Y-108793663D01*
X164135063Y-108565408D01*
X164155659Y-108330000D01*
X164135063Y-108094592D01*
X164073903Y-107866337D01*
X163974035Y-107652171D01*
X163968425Y-107644158D01*
X163838494Y-107458597D01*
X163671402Y-107291506D01*
X163671396Y-107291501D01*
X163485842Y-107161575D01*
X163442217Y-107106998D01*
X163435023Y-107037500D01*
X163466546Y-106975145D01*
X163485842Y-106958425D01*
X163557249Y-106908425D01*
X163671401Y-106828495D01*
X163838495Y-106661401D01*
X163974035Y-106467830D01*
X164073903Y-106253663D01*
X164135063Y-106025408D01*
X164155659Y-105790000D01*
X164135063Y-105554592D01*
X164073903Y-105326337D01*
X163974035Y-105112171D01*
X163968425Y-105104158D01*
X163838494Y-104918597D01*
X163671402Y-104751506D01*
X163671396Y-104751501D01*
X163485842Y-104621575D01*
X163442217Y-104566998D01*
X163435023Y-104497500D01*
X163466546Y-104435145D01*
X163485842Y-104418425D01*
X163557249Y-104368425D01*
X163671401Y-104288495D01*
X163838495Y-104121401D01*
X163974035Y-103927830D01*
X164073903Y-103713663D01*
X164135063Y-103485408D01*
X164155659Y-103250000D01*
X164154065Y-103231786D01*
X164140703Y-103079054D01*
X164135063Y-103014592D01*
X164073903Y-102786337D01*
X163974035Y-102572171D01*
X163968425Y-102564158D01*
X163838494Y-102378597D01*
X163671402Y-102211506D01*
X163671396Y-102211501D01*
X163485842Y-102081575D01*
X163442217Y-102026998D01*
X163435023Y-101957500D01*
X163466546Y-101895145D01*
X163485842Y-101878425D01*
X163563664Y-101823933D01*
X163671401Y-101748495D01*
X163838495Y-101581401D01*
X163974035Y-101387830D01*
X164073903Y-101173663D01*
X164135063Y-100945408D01*
X164155659Y-100710000D01*
X164135063Y-100474592D01*
X164073903Y-100246337D01*
X163974035Y-100032171D01*
X163970099Y-100026549D01*
X163838494Y-99838597D01*
X163671402Y-99671506D01*
X163671396Y-99671501D01*
X163485842Y-99541575D01*
X163442217Y-99486998D01*
X163435023Y-99417500D01*
X163466546Y-99355145D01*
X163485842Y-99338425D01*
X163577549Y-99274211D01*
X163671401Y-99208495D01*
X163838495Y-99041401D01*
X163974035Y-98847830D01*
X164073903Y-98633663D01*
X164135063Y-98405408D01*
X164155659Y-98170000D01*
X164135063Y-97934592D01*
X164084300Y-97745138D01*
X164073905Y-97706344D01*
X164073904Y-97706343D01*
X164073903Y-97706337D01*
X163974035Y-97492171D01*
X163968425Y-97484158D01*
X163838494Y-97298597D01*
X163671402Y-97131506D01*
X163671396Y-97131501D01*
X163485842Y-97001575D01*
X163442217Y-96946998D01*
X163435023Y-96877500D01*
X163466546Y-96815145D01*
X163485842Y-96798425D01*
X163557249Y-96748425D01*
X163671401Y-96668495D01*
X163838495Y-96501401D01*
X163974035Y-96307830D01*
X164073903Y-96093663D01*
X164135063Y-95865408D01*
X164155659Y-95630000D01*
X164154671Y-95618713D01*
X164135063Y-95394596D01*
X164135063Y-95394592D01*
X164073903Y-95166337D01*
X163974035Y-94952171D01*
X163968425Y-94944158D01*
X163838494Y-94758597D01*
X163671402Y-94591506D01*
X163671396Y-94591501D01*
X163485842Y-94461575D01*
X163442217Y-94406998D01*
X163435023Y-94337500D01*
X163466546Y-94275145D01*
X163485842Y-94258425D01*
X163598908Y-94179255D01*
X163671401Y-94128495D01*
X163838495Y-93961401D01*
X163974035Y-93767830D01*
X164073903Y-93553663D01*
X164135063Y-93325408D01*
X164155659Y-93090000D01*
X164135063Y-92854592D01*
X164073903Y-92626337D01*
X163974035Y-92412171D01*
X163968425Y-92404158D01*
X163838494Y-92218597D01*
X163671402Y-92051506D01*
X163671396Y-92051501D01*
X163485842Y-91921575D01*
X163442217Y-91866998D01*
X163435023Y-91797500D01*
X163466546Y-91735145D01*
X163485842Y-91718425D01*
X163557249Y-91668425D01*
X163671401Y-91588495D01*
X163838495Y-91421401D01*
X163974035Y-91227830D01*
X164073903Y-91013663D01*
X164135063Y-90785408D01*
X164155659Y-90550000D01*
X164135063Y-90314592D01*
X164073903Y-90086337D01*
X163974035Y-89872171D01*
X163968425Y-89864158D01*
X163838494Y-89678597D01*
X163671402Y-89511506D01*
X163671396Y-89511501D01*
X163485842Y-89381575D01*
X163442217Y-89326998D01*
X163435023Y-89257500D01*
X163466546Y-89195145D01*
X163485842Y-89178425D01*
X163557249Y-89128425D01*
X163671401Y-89048495D01*
X163838495Y-88881401D01*
X163974035Y-88687830D01*
X164073903Y-88473663D01*
X164135063Y-88245408D01*
X164155659Y-88010000D01*
X164155141Y-88004085D01*
X164135864Y-87783750D01*
X164135063Y-87774592D01*
X164073903Y-87546337D01*
X163974035Y-87332171D01*
X163968425Y-87324158D01*
X163838494Y-87138597D01*
X163671402Y-86971506D01*
X163671396Y-86971501D01*
X163485842Y-86841575D01*
X163442217Y-86786998D01*
X163435023Y-86717500D01*
X163466546Y-86655145D01*
X163485842Y-86638425D01*
X163589912Y-86565554D01*
X163671401Y-86508495D01*
X163838495Y-86341401D01*
X163974035Y-86147830D01*
X164073903Y-85933663D01*
X164135063Y-85705408D01*
X164155659Y-85470000D01*
X164135063Y-85234592D01*
X164073903Y-85006337D01*
X163974035Y-84792171D01*
X163968425Y-84784158D01*
X163838494Y-84598597D01*
X163671402Y-84431506D01*
X163671396Y-84431501D01*
X163485842Y-84301575D01*
X163442217Y-84246998D01*
X163435023Y-84177500D01*
X163466546Y-84115145D01*
X163485842Y-84098425D01*
X163626407Y-84000000D01*
X163671401Y-83968495D01*
X163838495Y-83801401D01*
X163974035Y-83607830D01*
X164073903Y-83393663D01*
X164135063Y-83165408D01*
X164155659Y-82930000D01*
X164135063Y-82694592D01*
X164083063Y-82500522D01*
X164073905Y-82466344D01*
X164073904Y-82466343D01*
X164073903Y-82466337D01*
X163974035Y-82252171D01*
X163973766Y-82251786D01*
X163838494Y-82058597D01*
X163671402Y-81891506D01*
X163671396Y-81891501D01*
X163485842Y-81761575D01*
X163442217Y-81706998D01*
X163435023Y-81637500D01*
X163466546Y-81575145D01*
X163485842Y-81558425D01*
X163566051Y-81502262D01*
X163671401Y-81428495D01*
X163838495Y-81261401D01*
X163974035Y-81067830D01*
X164073903Y-80853663D01*
X164135063Y-80625408D01*
X164155659Y-80390000D01*
X164135063Y-80154592D01*
X164081054Y-79953025D01*
X164073905Y-79926344D01*
X164073904Y-79926343D01*
X164073903Y-79926337D01*
X163974035Y-79712171D01*
X163968425Y-79704158D01*
X163838494Y-79518597D01*
X163671402Y-79351506D01*
X163671396Y-79351501D01*
X163485842Y-79221575D01*
X163442217Y-79166998D01*
X163435023Y-79097500D01*
X163466546Y-79035145D01*
X163485842Y-79018425D01*
X163518765Y-78995372D01*
X163671401Y-78888495D01*
X163838495Y-78721401D01*
X163974035Y-78527830D01*
X164073903Y-78313663D01*
X164135063Y-78085408D01*
X164155659Y-77850000D01*
X164135063Y-77614592D01*
X164073903Y-77386337D01*
X163974035Y-77172171D01*
X163968425Y-77164158D01*
X163838494Y-76978597D01*
X163671402Y-76811506D01*
X163671396Y-76811501D01*
X163485842Y-76681575D01*
X163442217Y-76626998D01*
X163435023Y-76557500D01*
X163466546Y-76495145D01*
X163485842Y-76478425D01*
X163567932Y-76420945D01*
X163671401Y-76348495D01*
X163838495Y-76181401D01*
X163974035Y-75987830D01*
X164073903Y-75773663D01*
X164135063Y-75545408D01*
X164155659Y-75310000D01*
X164135063Y-75074592D01*
X164073903Y-74846337D01*
X163974035Y-74632171D01*
X163968425Y-74624158D01*
X163838494Y-74438597D01*
X163671402Y-74271506D01*
X163671396Y-74271501D01*
X163485842Y-74141575D01*
X163442217Y-74086998D01*
X163435023Y-74017500D01*
X163466546Y-73955145D01*
X163485842Y-73938425D01*
X163557249Y-73888425D01*
X163671401Y-73808495D01*
X163838495Y-73641401D01*
X163974035Y-73447830D01*
X164073903Y-73233663D01*
X164135063Y-73005408D01*
X164155659Y-72770000D01*
X164135063Y-72534592D01*
X164073903Y-72306337D01*
X163974035Y-72092171D01*
X163968425Y-72084158D01*
X163838494Y-71898597D01*
X163671402Y-71731506D01*
X163671396Y-71731501D01*
X163485842Y-71601575D01*
X163442217Y-71546998D01*
X163435023Y-71477500D01*
X163466546Y-71415145D01*
X163485842Y-71398425D01*
X163557249Y-71348425D01*
X163671401Y-71268495D01*
X163838495Y-71101401D01*
X163974035Y-70907830D01*
X164073903Y-70693663D01*
X164135063Y-70465408D01*
X164155659Y-70230000D01*
X164135063Y-69994592D01*
X164073903Y-69766337D01*
X163974035Y-69552171D01*
X163963961Y-69537783D01*
X163838494Y-69358597D01*
X163671402Y-69191506D01*
X163671396Y-69191501D01*
X163485842Y-69061575D01*
X163442217Y-69006998D01*
X163435023Y-68937500D01*
X163466546Y-68875145D01*
X163485842Y-68858425D01*
X163557249Y-68808425D01*
X163671401Y-68728495D01*
X163838495Y-68561401D01*
X163974035Y-68367830D01*
X164073903Y-68153663D01*
X164135063Y-67925408D01*
X164155659Y-67690000D01*
X164153222Y-67662154D01*
X164166987Y-67593657D01*
X164215601Y-67543473D01*
X164283629Y-67527538D01*
X164349473Y-67550911D01*
X164364431Y-67563666D01*
X170100439Y-73299674D01*
X170100449Y-73299685D01*
X170104779Y-73304015D01*
X170104780Y-73304016D01*
X170216584Y-73415820D01*
X170285906Y-73455842D01*
X170303395Y-73465939D01*
X170303397Y-73465941D01*
X170341451Y-73487911D01*
X170353515Y-73494877D01*
X170506243Y-73535801D01*
X170506246Y-73535801D01*
X170671953Y-73535801D01*
X170671969Y-73535800D01*
X181135203Y-73535800D01*
X181202242Y-73555485D01*
X181222884Y-73572119D01*
X186863181Y-79212416D01*
X186896666Y-79273739D01*
X186899500Y-79300097D01*
X186899500Y-79917587D01*
X186879815Y-79984626D01*
X186872450Y-79994896D01*
X186870186Y-79997734D01*
X186774211Y-80150476D01*
X186714631Y-80320745D01*
X186714630Y-80320750D01*
X186694435Y-80499996D01*
X186694435Y-80500003D01*
X186714630Y-80679249D01*
X186714631Y-80679254D01*
X186774211Y-80849523D01*
X186857589Y-80982217D01*
X186870184Y-81002262D01*
X186997738Y-81129816D01*
X187076410Y-81179249D01*
X187134844Y-81215966D01*
X187150478Y-81225789D01*
X187252254Y-81261402D01*
X187320745Y-81285368D01*
X187320750Y-81285369D01*
X187499996Y-81305565D01*
X187500000Y-81305565D01*
X187500004Y-81305565D01*
X187679249Y-81285369D01*
X187679252Y-81285368D01*
X187679255Y-81285368D01*
X187849522Y-81225789D01*
X188002262Y-81129816D01*
X188129816Y-81002262D01*
X188225789Y-80849522D01*
X188285368Y-80679255D01*
X188287625Y-80659222D01*
X188305565Y-80500003D01*
X188305565Y-80499996D01*
X188285369Y-80320750D01*
X188285368Y-80320745D01*
X188258054Y-80242687D01*
X188225789Y-80150478D01*
X188129816Y-79997738D01*
X188129814Y-79997736D01*
X188129813Y-79997734D01*
X188127550Y-79994896D01*
X188126659Y-79992715D01*
X188126111Y-79991842D01*
X188126264Y-79991745D01*
X188101144Y-79930209D01*
X188100500Y-79917587D01*
X188100500Y-79089059D01*
X188100501Y-79089046D01*
X188100501Y-78920945D01*
X188100501Y-78920943D01*
X188059577Y-78768215D01*
X187983714Y-78636817D01*
X187980520Y-78631284D01*
X187980516Y-78631279D01*
X187864397Y-78515160D01*
X187864374Y-78515139D01*
X182496716Y-73147481D01*
X182463231Y-73086158D01*
X182468215Y-73016466D01*
X182510087Y-72960533D01*
X182575551Y-72936116D01*
X182584397Y-72935800D01*
X200245760Y-72935800D01*
X200245776Y-72935801D01*
X200253372Y-72935801D01*
X200411483Y-72935801D01*
X200411486Y-72935801D01*
X200564214Y-72894877D01*
X200614333Y-72865939D01*
X200701145Y-72815820D01*
X200812949Y-72704016D01*
X200812949Y-72704014D01*
X200823157Y-72693807D01*
X200823159Y-72693804D01*
X203994393Y-69522569D01*
X204055714Y-69489086D01*
X204125406Y-69494070D01*
X204181339Y-69535942D01*
X204205292Y-69596368D01*
X204214630Y-69679250D01*
X204214631Y-69679254D01*
X204274211Y-69849523D01*
X204333950Y-69944596D01*
X204367341Y-69997738D01*
X204370185Y-70002263D01*
X204372445Y-70005097D01*
X204373334Y-70007275D01*
X204373889Y-70008158D01*
X204373734Y-70008255D01*
X204398855Y-70069783D01*
X204399500Y-70082412D01*
X204399500Y-79573873D01*
X204379815Y-79640912D01*
X204363181Y-79661554D01*
X193393028Y-90631706D01*
X193331705Y-90665191D01*
X193262013Y-90660207D01*
X193206080Y-90618335D01*
X193200353Y-90609997D01*
X193162654Y-90549999D01*
X193129816Y-90497738D01*
X193002262Y-90370184D01*
X192935230Y-90328065D01*
X192849521Y-90274210D01*
X192679249Y-90214630D01*
X192592330Y-90204837D01*
X192527916Y-90177770D01*
X192518533Y-90169298D01*
X192410090Y-90060855D01*
X192410088Y-90060852D01*
X192291217Y-89941981D01*
X192291216Y-89941980D01*
X192201836Y-89890377D01*
X192154285Y-89862923D01*
X192002585Y-89822274D01*
X191947008Y-89790191D01*
X189162698Y-87006475D01*
X189129207Y-86945155D01*
X189127150Y-86932666D01*
X189117369Y-86845850D01*
X189117368Y-86845845D01*
X189098378Y-86791575D01*
X189057789Y-86675578D01*
X188961816Y-86522838D01*
X188834262Y-86395284D01*
X188764843Y-86351665D01*
X188681523Y-86299311D01*
X188511254Y-86239731D01*
X188511250Y-86239730D01*
X188441616Y-86231885D01*
X188377202Y-86204819D01*
X188337647Y-86147224D01*
X188331500Y-86108665D01*
X188331500Y-85069096D01*
X188351185Y-85002057D01*
X188367814Y-84981420D01*
X191517276Y-81831957D01*
X191578597Y-81798474D01*
X191618838Y-81796420D01*
X191642085Y-81799039D01*
X191699998Y-81805565D01*
X191700000Y-81805565D01*
X191700003Y-81805565D01*
X191879249Y-81785369D01*
X191879252Y-81785368D01*
X191879255Y-81785368D01*
X192049522Y-81725789D01*
X192202262Y-81629816D01*
X192329816Y-81502262D01*
X192425789Y-81349522D01*
X192485368Y-81179255D01*
X192485369Y-81179249D01*
X192505565Y-81000003D01*
X192505565Y-80999996D01*
X192485369Y-80820750D01*
X192485368Y-80820745D01*
X192439824Y-80690589D01*
X192425789Y-80650478D01*
X192410036Y-80625408D01*
X192331237Y-80500000D01*
X192329816Y-80497738D01*
X192202262Y-80370184D01*
X192193526Y-80364695D01*
X192049523Y-80274211D01*
X191879254Y-80214631D01*
X191879249Y-80214630D01*
X191700004Y-80194435D01*
X191699996Y-80194435D01*
X191520750Y-80214630D01*
X191520745Y-80214631D01*
X191350476Y-80274211D01*
X191197737Y-80370184D01*
X191070184Y-80497737D01*
X191004494Y-80602283D01*
X190952159Y-80648574D01*
X190883106Y-80659222D01*
X190819257Y-80630847D01*
X190780885Y-80572457D01*
X190775500Y-80536311D01*
X190775500Y-77216200D01*
X190795185Y-77149161D01*
X190847989Y-77103406D01*
X190899500Y-77092200D01*
X198661477Y-77092200D01*
X198702430Y-77099158D01*
X198710745Y-77102068D01*
X198710749Y-77102068D01*
X198710753Y-77102069D01*
X198889996Y-77122265D01*
X198890000Y-77122265D01*
X198890004Y-77122265D01*
X199069249Y-77102069D01*
X199069252Y-77102068D01*
X199069255Y-77102068D01*
X199239522Y-77042489D01*
X199392262Y-76946516D01*
X199519816Y-76818962D01*
X199615789Y-76666222D01*
X199675368Y-76495955D01*
X199675369Y-76495949D01*
X199695565Y-76316703D01*
X199695565Y-76316696D01*
X199675369Y-76137450D01*
X199675368Y-76137445D01*
X199634090Y-76019480D01*
X199615789Y-75967178D01*
X199606388Y-75952217D01*
X199524786Y-75822348D01*
X199519816Y-75814438D01*
X199392262Y-75686884D01*
X199239523Y-75590911D01*
X199069254Y-75531331D01*
X199069249Y-75531330D01*
X198890004Y-75511135D01*
X198889996Y-75511135D01*
X198710753Y-75531330D01*
X198710746Y-75531331D01*
X198706016Y-75532986D01*
X198702430Y-75534241D01*
X198661477Y-75541200D01*
X189923615Y-75541200D01*
X189773802Y-75571000D01*
X189773794Y-75571002D01*
X189632665Y-75629459D01*
X189632656Y-75629464D01*
X189505648Y-75714329D01*
X189505644Y-75714332D01*
X189397632Y-75822344D01*
X189397629Y-75822348D01*
X189312764Y-75949356D01*
X189312759Y-75949365D01*
X189254302Y-76090494D01*
X189254300Y-76090502D01*
X189224500Y-76240315D01*
X189224500Y-80627415D01*
X189204815Y-80694454D01*
X189188181Y-80715096D01*
X185715097Y-84188181D01*
X185653774Y-84221666D01*
X185627416Y-84224500D01*
X184919026Y-84224500D01*
X184851987Y-84204815D01*
X184806232Y-84152011D01*
X184795806Y-84086616D01*
X184805565Y-84000002D01*
X184805565Y-83999996D01*
X184785369Y-83820750D01*
X184785368Y-83820745D01*
X184725788Y-83650476D01*
X184629815Y-83497737D01*
X184502262Y-83370184D01*
X184349523Y-83274211D01*
X184179254Y-83214631D01*
X184179249Y-83214630D01*
X184000004Y-83194435D01*
X183999996Y-83194435D01*
X183820750Y-83214630D01*
X183820745Y-83214631D01*
X183650476Y-83274211D01*
X183497736Y-83370185D01*
X183494903Y-83372445D01*
X183492724Y-83373334D01*
X183491842Y-83373889D01*
X183491744Y-83373734D01*
X183430217Y-83398855D01*
X183417588Y-83399500D01*
X181582412Y-83399500D01*
X181515373Y-83379815D01*
X181505097Y-83372445D01*
X181502263Y-83370185D01*
X181502262Y-83370184D01*
X181445496Y-83334515D01*
X181349523Y-83274211D01*
X181179254Y-83214631D01*
X181179249Y-83214630D01*
X181000004Y-83194435D01*
X180999996Y-83194435D01*
X180820750Y-83214630D01*
X180820745Y-83214631D01*
X180650476Y-83274211D01*
X180497737Y-83370184D01*
X180370184Y-83497737D01*
X180274211Y-83650476D01*
X180214631Y-83820745D01*
X180214630Y-83820750D01*
X180194435Y-83999996D01*
X180194435Y-84000002D01*
X180204194Y-84086616D01*
X180192140Y-84155438D01*
X180144791Y-84206818D01*
X180080974Y-84224500D01*
X179923615Y-84224500D01*
X179773802Y-84254300D01*
X179773794Y-84254302D01*
X179632660Y-84312761D01*
X179505651Y-84397626D01*
X179505643Y-84397632D01*
X172234853Y-91668425D01*
X170795648Y-93107630D01*
X170752802Y-93150476D01*
X170687628Y-93215649D01*
X170602764Y-93342656D01*
X170602759Y-93342665D01*
X170544302Y-93483794D01*
X170544300Y-93483802D01*
X170514500Y-93633615D01*
X170514500Y-98405853D01*
X170494815Y-98472892D01*
X170442011Y-98518647D01*
X170372853Y-98528591D01*
X170309297Y-98499566D01*
X170302819Y-98493534D01*
X169136819Y-97327534D01*
X169103334Y-97266211D01*
X169100500Y-97239853D01*
X169100500Y-84499996D01*
X175194435Y-84499996D01*
X175194435Y-84500003D01*
X175214630Y-84679249D01*
X175214631Y-84679254D01*
X175274211Y-84849523D01*
X175353336Y-84975449D01*
X175370184Y-85002262D01*
X175497738Y-85129816D01*
X175650478Y-85225789D01*
X175764203Y-85265583D01*
X175820745Y-85285368D01*
X175820750Y-85285369D01*
X175999996Y-85305565D01*
X176000000Y-85305565D01*
X176000004Y-85305565D01*
X176179249Y-85285369D01*
X176179252Y-85285368D01*
X176179255Y-85285368D01*
X176349522Y-85225789D01*
X176502262Y-85129816D01*
X176629816Y-85002262D01*
X176725789Y-84849522D01*
X176785368Y-84679255D01*
X176795161Y-84592329D01*
X176822226Y-84527918D01*
X176830690Y-84518543D01*
X178838505Y-82510729D01*
X178838510Y-82510725D01*
X178848713Y-82500521D01*
X178848715Y-82500521D01*
X178960519Y-82388717D01*
X179016232Y-82292218D01*
X179039576Y-82251786D01*
X179080499Y-82099059D01*
X179080499Y-81940944D01*
X179080499Y-79062411D01*
X179100184Y-78995372D01*
X179107554Y-78985096D01*
X179109809Y-78982266D01*
X179109815Y-78982261D01*
X179205788Y-78829521D01*
X179265367Y-78659254D01*
X179267896Y-78636807D01*
X179285564Y-78480002D01*
X179285564Y-78479995D01*
X179265368Y-78300749D01*
X179265367Y-78300744D01*
X179205787Y-78130475D01*
X179109814Y-77977736D01*
X178982261Y-77850183D01*
X178829522Y-77754210D01*
X178659253Y-77694630D01*
X178659248Y-77694629D01*
X178480003Y-77674434D01*
X178479995Y-77674434D01*
X178300749Y-77694629D01*
X178300744Y-77694630D01*
X178130475Y-77754210D01*
X177977736Y-77850183D01*
X177850183Y-77977736D01*
X177754210Y-78130475D01*
X177694630Y-78300744D01*
X177694629Y-78300749D01*
X177674434Y-78479995D01*
X177674434Y-78480002D01*
X177694629Y-78659248D01*
X177694630Y-78659253D01*
X177754210Y-78829522D01*
X177791266Y-78888495D01*
X177845014Y-78974035D01*
X177850184Y-78982262D01*
X177852444Y-78985096D01*
X177853333Y-78987274D01*
X177853888Y-78988157D01*
X177853733Y-78988254D01*
X177878854Y-79049782D01*
X177879499Y-79062411D01*
X177879499Y-81719903D01*
X177859814Y-81786942D01*
X177843180Y-81807584D01*
X175981465Y-83669298D01*
X175920142Y-83702783D01*
X175907668Y-83704837D01*
X175820750Y-83714630D01*
X175650478Y-83774210D01*
X175497737Y-83870184D01*
X175370184Y-83997737D01*
X175274211Y-84150476D01*
X175214631Y-84320745D01*
X175214630Y-84320750D01*
X175194435Y-84499996D01*
X169100500Y-84499996D01*
X169100500Y-76800098D01*
X169120185Y-76733059D01*
X169136819Y-76712416D01*
X169212418Y-76636818D01*
X169273742Y-76603334D01*
X169300099Y-76600500D01*
X175417588Y-76600500D01*
X175484627Y-76620185D01*
X175494903Y-76627555D01*
X175497736Y-76629814D01*
X175497738Y-76629816D01*
X175650478Y-76725789D01*
X175820745Y-76785368D01*
X175820750Y-76785369D01*
X175999996Y-76805565D01*
X176000000Y-76805565D01*
X176000004Y-76805565D01*
X176179249Y-76785369D01*
X176179252Y-76785368D01*
X176179255Y-76785368D01*
X176349522Y-76725789D01*
X176502262Y-76629816D01*
X176629816Y-76502262D01*
X176725789Y-76349522D01*
X176785368Y-76179255D01*
X176789125Y-76145910D01*
X176805565Y-76000003D01*
X176805565Y-75999996D01*
X176785369Y-75820750D01*
X176785368Y-75820745D01*
X176751398Y-75723664D01*
X176725789Y-75650478D01*
X176629816Y-75497738D01*
X176502262Y-75370184D01*
X176406480Y-75310000D01*
X176349523Y-75274211D01*
X176179254Y-75214631D01*
X176179249Y-75214630D01*
X176000004Y-75194435D01*
X175999996Y-75194435D01*
X175820750Y-75214630D01*
X175820745Y-75214631D01*
X175650476Y-75274211D01*
X175497736Y-75370185D01*
X175494903Y-75372445D01*
X175492724Y-75373334D01*
X175491842Y-75373889D01*
X175491744Y-75373734D01*
X175430217Y-75398855D01*
X175417588Y-75399500D01*
X169086670Y-75399500D01*
X169086654Y-75399499D01*
X169079058Y-75399499D01*
X168920943Y-75399499D01*
X168844579Y-75419961D01*
X168768214Y-75440423D01*
X168768209Y-75440426D01*
X168631290Y-75519475D01*
X168631282Y-75519481D01*
X168124217Y-76026546D01*
X168124214Y-76026548D01*
X168124215Y-76026549D01*
X168019478Y-76131286D01*
X168019475Y-76131290D01*
X167981752Y-76196630D01*
X167981752Y-76196632D01*
X167940423Y-76268214D01*
X167927432Y-76316696D01*
X167899499Y-76420943D01*
X167899499Y-76420945D01*
X167899499Y-76589046D01*
X167899500Y-76589059D01*
X167899500Y-97453280D01*
X167899499Y-97453298D01*
X167899499Y-97619004D01*
X167899498Y-97619004D01*
X167940423Y-97771735D01*
X167964171Y-97812866D01*
X167964172Y-97812870D01*
X167964173Y-97812870D01*
X168013250Y-97897876D01*
X168019479Y-97908664D01*
X168019481Y-97908667D01*
X168138349Y-98027535D01*
X168138355Y-98027540D01*
X170975189Y-100864374D01*
X170975199Y-100864385D01*
X170979529Y-100868715D01*
X170979530Y-100868716D01*
X171091334Y-100980520D01*
X171174813Y-101028716D01*
X171228265Y-101059577D01*
X171380993Y-101100501D01*
X171380996Y-101100501D01*
X171546703Y-101100501D01*
X171546719Y-101100500D01*
X181699091Y-101100500D01*
X181766130Y-101120185D01*
X181811885Y-101172989D01*
X181816133Y-101183545D01*
X181864139Y-101320737D01*
X181874211Y-101349522D01*
X181970184Y-101502262D01*
X182097738Y-101629816D01*
X182250478Y-101725789D01*
X182315377Y-101748498D01*
X182420745Y-101785368D01*
X182420749Y-101785369D01*
X182522797Y-101796867D01*
X182587210Y-101823933D01*
X182626766Y-101881528D01*
X182628687Y-101887991D01*
X182640421Y-101931781D01*
X182641647Y-101933904D01*
X182641650Y-101933910D01*
X182719477Y-102068712D01*
X182719481Y-102068717D01*
X182838349Y-102187585D01*
X182838354Y-102187589D01*
X186631284Y-105980520D01*
X186631286Y-105980521D01*
X186631290Y-105980524D01*
X186768209Y-106059573D01*
X186768216Y-106059577D01*
X186920943Y-106100501D01*
X186920945Y-106100501D01*
X187086654Y-106100501D01*
X187086670Y-106100500D01*
X201917588Y-106100500D01*
X201984627Y-106120185D01*
X201994903Y-106127555D01*
X201997736Y-106129814D01*
X201997738Y-106129816D01*
X202111270Y-106201152D01*
X202132718Y-106214630D01*
X202150478Y-106225789D01*
X202254055Y-106262032D01*
X202320745Y-106285368D01*
X202320750Y-106285369D01*
X202499996Y-106305565D01*
X202500000Y-106305565D01*
X202500004Y-106305565D01*
X202679249Y-106285369D01*
X202679252Y-106285368D01*
X202679255Y-106285368D01*
X202849522Y-106225789D01*
X203002262Y-106129816D01*
X203129816Y-106002262D01*
X203225789Y-105849522D01*
X203285368Y-105679255D01*
X203305048Y-105504592D01*
X203305565Y-105500003D01*
X203305565Y-105499996D01*
X203285369Y-105320750D01*
X203285366Y-105320737D01*
X203266022Y-105265455D01*
X203262460Y-105195676D01*
X203297188Y-105135049D01*
X203359182Y-105102821D01*
X203383063Y-105100500D01*
X206873450Y-105100500D01*
X206940489Y-105120185D01*
X206986244Y-105172989D01*
X206996188Y-105242147D01*
X206987558Y-105271114D01*
X206987947Y-105271256D01*
X206986094Y-105276344D01*
X206924938Y-105504586D01*
X206924936Y-105504596D01*
X206904341Y-105739999D01*
X206904341Y-105740000D01*
X206924936Y-105975403D01*
X206924938Y-105975413D01*
X206986094Y-106203655D01*
X206986096Y-106203659D01*
X206986097Y-106203663D01*
X207033615Y-106305565D01*
X207085965Y-106417830D01*
X207085967Y-106417834D01*
X207157141Y-106519480D01*
X207221501Y-106611396D01*
X207221506Y-106611402D01*
X207388597Y-106778493D01*
X207388603Y-106778498D01*
X207574158Y-106908425D01*
X207617783Y-106963002D01*
X207624977Y-107032500D01*
X207593454Y-107094855D01*
X207574158Y-107111575D01*
X207388597Y-107241505D01*
X207221505Y-107408597D01*
X207085965Y-107602169D01*
X207085964Y-107602171D01*
X206986098Y-107816335D01*
X206986094Y-107816344D01*
X206924938Y-108044586D01*
X206924936Y-108044596D01*
X206904341Y-108279999D01*
X206904341Y-108280000D01*
X206924936Y-108515403D01*
X206924938Y-108515413D01*
X206986094Y-108743655D01*
X206986096Y-108743659D01*
X206986097Y-108743663D01*
X207066004Y-108915023D01*
X207085965Y-108957830D01*
X207085967Y-108957834D01*
X207113074Y-108996546D01*
X207221501Y-109151396D01*
X207221506Y-109151402D01*
X207388597Y-109318493D01*
X207388603Y-109318498D01*
X207574158Y-109448425D01*
X207617783Y-109503002D01*
X207624977Y-109572500D01*
X207593454Y-109634855D01*
X207574158Y-109651575D01*
X207388597Y-109781505D01*
X207221505Y-109948597D01*
X207085965Y-110142169D01*
X207085964Y-110142171D01*
X206986098Y-110356335D01*
X206986094Y-110356344D01*
X206924938Y-110584586D01*
X206924936Y-110584596D01*
X206904341Y-110819999D01*
X206904341Y-110820000D01*
X206924936Y-111055403D01*
X206924938Y-111055413D01*
X206986094Y-111283655D01*
X206986096Y-111283659D01*
X206986097Y-111283663D01*
X207066004Y-111455023D01*
X207085965Y-111497830D01*
X207085967Y-111497834D01*
X207143659Y-111580226D01*
X207221501Y-111691396D01*
X207221506Y-111691402D01*
X207388597Y-111858493D01*
X207388603Y-111858498D01*
X207574158Y-111988425D01*
X207617783Y-112043002D01*
X207624977Y-112112500D01*
X207593454Y-112174855D01*
X207574158Y-112191575D01*
X207388597Y-112321505D01*
X207221505Y-112488597D01*
X207085965Y-112682169D01*
X207085964Y-112682171D01*
X206986098Y-112896335D01*
X206986094Y-112896344D01*
X206924938Y-113124586D01*
X206924936Y-113124596D01*
X206904341Y-113359999D01*
X206904341Y-113360000D01*
X206924936Y-113595403D01*
X206924938Y-113595413D01*
X206986094Y-113823655D01*
X206986096Y-113823659D01*
X206986097Y-113823663D01*
X207066004Y-113995023D01*
X207085965Y-114037830D01*
X207085967Y-114037834D01*
X207113074Y-114076546D01*
X207221501Y-114231396D01*
X207221506Y-114231402D01*
X207388597Y-114398493D01*
X207388603Y-114398498D01*
X207448478Y-114440423D01*
X207483049Y-114464630D01*
X207574594Y-114528730D01*
X207618219Y-114583307D01*
X207625413Y-114652805D01*
X207593890Y-114715160D01*
X207574595Y-114731880D01*
X207388922Y-114861890D01*
X207388920Y-114861891D01*
X207221891Y-115028920D01*
X207221886Y-115028926D01*
X207086400Y-115222420D01*
X207086399Y-115222422D01*
X206986570Y-115436507D01*
X206986567Y-115436513D01*
X206929364Y-115649999D01*
X206929364Y-115650000D01*
X207826988Y-115650000D01*
X207794075Y-115707007D01*
X207760000Y-115834174D01*
X207760000Y-115965826D01*
X207794075Y-116092993D01*
X207826988Y-116150000D01*
X206929364Y-116150000D01*
X206986567Y-116363486D01*
X206986570Y-116363492D01*
X207086399Y-116577578D01*
X207221894Y-116771082D01*
X207388917Y-116938105D01*
X207575031Y-117068425D01*
X207618656Y-117123003D01*
X207625848Y-117192501D01*
X207594326Y-117254856D01*
X207575031Y-117271575D01*
X207388922Y-117401890D01*
X207388920Y-117401891D01*
X207221891Y-117568920D01*
X207221886Y-117568926D01*
X207086400Y-117762420D01*
X207086399Y-117762422D01*
X206986570Y-117976507D01*
X206986567Y-117976513D01*
X206929364Y-118189999D01*
X206929364Y-118190000D01*
X207826988Y-118190000D01*
X207794075Y-118247007D01*
X207760000Y-118374174D01*
X207760000Y-118505826D01*
X207794075Y-118632993D01*
X207826988Y-118690000D01*
X206929364Y-118690000D01*
X206986567Y-118903486D01*
X206986570Y-118903492D01*
X207086399Y-119117578D01*
X207221894Y-119311082D01*
X207388917Y-119478105D01*
X207582421Y-119613600D01*
X207796507Y-119713429D01*
X207796516Y-119713433D01*
X208010000Y-119770634D01*
X208010000Y-118873012D01*
X208067007Y-118905925D01*
X208194174Y-118940000D01*
X208325826Y-118940000D01*
X208452993Y-118905925D01*
X208510000Y-118873012D01*
X208510000Y-119770633D01*
X208723483Y-119713433D01*
X208723492Y-119713429D01*
X208937578Y-119613600D01*
X209131082Y-119478105D01*
X209298105Y-119311082D01*
X209428425Y-119124968D01*
X209483002Y-119081344D01*
X209552501Y-119074151D01*
X209614855Y-119105673D01*
X209631575Y-119124968D01*
X209761894Y-119311082D01*
X209928917Y-119478105D01*
X210122421Y-119613600D01*
X210336507Y-119713429D01*
X210336516Y-119713433D01*
X210550000Y-119770634D01*
X210550000Y-118873012D01*
X210607007Y-118905925D01*
X210734174Y-118940000D01*
X210865826Y-118940000D01*
X210992993Y-118905925D01*
X211050000Y-118873012D01*
X211050000Y-119770633D01*
X211263483Y-119713433D01*
X211263492Y-119713429D01*
X211477578Y-119613600D01*
X211671082Y-119478105D01*
X211838105Y-119311082D01*
X211973600Y-119117578D01*
X212073429Y-118903492D01*
X212073432Y-118903486D01*
X212130636Y-118690000D01*
X211233012Y-118690000D01*
X211265925Y-118632993D01*
X211300000Y-118505826D01*
X211300000Y-118374174D01*
X211265925Y-118247007D01*
X211233012Y-118190000D01*
X212130636Y-118190000D01*
X212130635Y-118189999D01*
X212073432Y-117976513D01*
X212073429Y-117976507D01*
X211973600Y-117762422D01*
X211973599Y-117762420D01*
X211838113Y-117568926D01*
X211838108Y-117568920D01*
X211671082Y-117401894D01*
X211484968Y-117271575D01*
X211441344Y-117216998D01*
X211434151Y-117147499D01*
X211465673Y-117085145D01*
X211484968Y-117068425D01*
X211671082Y-116938105D01*
X211838105Y-116771082D01*
X211973600Y-116577578D01*
X212073429Y-116363492D01*
X212073432Y-116363486D01*
X212130636Y-116150000D01*
X211233012Y-116150000D01*
X211265925Y-116092993D01*
X211300000Y-115965826D01*
X211300000Y-115834174D01*
X211265925Y-115707007D01*
X211233012Y-115650000D01*
X212130636Y-115650000D01*
X212130635Y-115649999D01*
X212073432Y-115436513D01*
X212073429Y-115436507D01*
X211973600Y-115222422D01*
X211973599Y-115222420D01*
X211838113Y-115028926D01*
X211838108Y-115028920D01*
X211671078Y-114861890D01*
X211485405Y-114731879D01*
X211441780Y-114677302D01*
X211434588Y-114607804D01*
X211466110Y-114545449D01*
X211485406Y-114528730D01*
X211529667Y-114497738D01*
X211671401Y-114398495D01*
X211838495Y-114231401D01*
X211974035Y-114037830D01*
X212073903Y-113823663D01*
X212135063Y-113595408D01*
X212155659Y-113360000D01*
X212135063Y-113124592D01*
X212073903Y-112896337D01*
X211974035Y-112682171D01*
X211968425Y-112674158D01*
X211838494Y-112488597D01*
X211671402Y-112321506D01*
X211671396Y-112321501D01*
X211485842Y-112191575D01*
X211442217Y-112136998D01*
X211435023Y-112067500D01*
X211466546Y-112005145D01*
X211485842Y-111988425D01*
X211599989Y-111908498D01*
X211671401Y-111858495D01*
X211838495Y-111691401D01*
X211974035Y-111497830D01*
X212073903Y-111283663D01*
X212135063Y-111055408D01*
X212155659Y-110820000D01*
X212135063Y-110584592D01*
X212073903Y-110356337D01*
X211974035Y-110142171D01*
X211968425Y-110134158D01*
X211838494Y-109948597D01*
X211671402Y-109781506D01*
X211671396Y-109781501D01*
X211485842Y-109651575D01*
X211442217Y-109596998D01*
X211435023Y-109527500D01*
X211466546Y-109465145D01*
X211485842Y-109448425D01*
X211599989Y-109368498D01*
X211671401Y-109318495D01*
X211838495Y-109151401D01*
X211974035Y-108957830D01*
X212073903Y-108743663D01*
X212135063Y-108515408D01*
X212155659Y-108280000D01*
X212135063Y-108044592D01*
X212073903Y-107816337D01*
X211974035Y-107602171D01*
X211968425Y-107594158D01*
X211838494Y-107408597D01*
X211671402Y-107241506D01*
X211671396Y-107241501D01*
X211485842Y-107111575D01*
X211442217Y-107056998D01*
X211435023Y-106987500D01*
X211466546Y-106925145D01*
X211485842Y-106908425D01*
X211599989Y-106828498D01*
X211671401Y-106778495D01*
X211838495Y-106611401D01*
X211974035Y-106417830D01*
X212073903Y-106203663D01*
X212135063Y-105975408D01*
X212155659Y-105740000D01*
X212135063Y-105504592D01*
X212073903Y-105276337D01*
X211974035Y-105062171D01*
X211902288Y-104959704D01*
X211838494Y-104868597D01*
X211671402Y-104701506D01*
X211671396Y-104701501D01*
X211485842Y-104571575D01*
X211442217Y-104516998D01*
X211435023Y-104447500D01*
X211466546Y-104385145D01*
X211485842Y-104368425D01*
X211599989Y-104288498D01*
X211671401Y-104238495D01*
X211838495Y-104071401D01*
X211974035Y-103877830D01*
X212073903Y-103663663D01*
X212135063Y-103435408D01*
X212155659Y-103200000D01*
X212135063Y-102964592D01*
X212073903Y-102736337D01*
X211974035Y-102522171D01*
X211940454Y-102474211D01*
X211838494Y-102328597D01*
X211671402Y-102161506D01*
X211671396Y-102161501D01*
X211485842Y-102031575D01*
X211442217Y-101976998D01*
X211435023Y-101907500D01*
X211466546Y-101845145D01*
X211485842Y-101828425D01*
X211547332Y-101785369D01*
X211671401Y-101698495D01*
X211838495Y-101531401D01*
X211974035Y-101337830D01*
X212073903Y-101123663D01*
X212135063Y-100895408D01*
X212155659Y-100660000D01*
X212152749Y-100626745D01*
X212149451Y-100589046D01*
X212135063Y-100424592D01*
X212079024Y-100215449D01*
X212073905Y-100196344D01*
X212073904Y-100196343D01*
X212073903Y-100196337D01*
X211974035Y-99982171D01*
X211973040Y-99980749D01*
X211838494Y-99788597D01*
X211671402Y-99621506D01*
X211671396Y-99621501D01*
X211485842Y-99491575D01*
X211442217Y-99436998D01*
X211435023Y-99367500D01*
X211466546Y-99305145D01*
X211485842Y-99288425D01*
X211591229Y-99214632D01*
X211671401Y-99158495D01*
X211838495Y-98991401D01*
X211974035Y-98797830D01*
X212073903Y-98583663D01*
X212135063Y-98355408D01*
X212155659Y-98120000D01*
X212135063Y-97884592D01*
X212073903Y-97656337D01*
X211974035Y-97442171D01*
X211902288Y-97339704D01*
X211838494Y-97248597D01*
X211671402Y-97081506D01*
X211671396Y-97081501D01*
X211485842Y-96951575D01*
X211442217Y-96896998D01*
X211435023Y-96827500D01*
X211466546Y-96765145D01*
X211485842Y-96748425D01*
X211599989Y-96668498D01*
X211671401Y-96618495D01*
X211838495Y-96451401D01*
X211974035Y-96257830D01*
X212073903Y-96043663D01*
X212135063Y-95815408D01*
X212155659Y-95580000D01*
X212135063Y-95344592D01*
X212073903Y-95116337D01*
X211974035Y-94902171D01*
X211968425Y-94894158D01*
X211838494Y-94708597D01*
X211671402Y-94541506D01*
X211671396Y-94541501D01*
X211485842Y-94411575D01*
X211442217Y-94356998D01*
X211435023Y-94287500D01*
X211466546Y-94225145D01*
X211485842Y-94208425D01*
X211527502Y-94179254D01*
X211671401Y-94078495D01*
X211838495Y-93911401D01*
X211974035Y-93717830D01*
X212073903Y-93503663D01*
X212135063Y-93275408D01*
X212155659Y-93040000D01*
X212135063Y-92804592D01*
X212073903Y-92576337D01*
X211974035Y-92362171D01*
X211968425Y-92354158D01*
X211838494Y-92168597D01*
X211671402Y-92001506D01*
X211671396Y-92001501D01*
X211485842Y-91871575D01*
X211442217Y-91816998D01*
X211435023Y-91747500D01*
X211466546Y-91685145D01*
X211485842Y-91668425D01*
X211599989Y-91588498D01*
X211671401Y-91538495D01*
X211838495Y-91371401D01*
X211974035Y-91177830D01*
X212073903Y-90963663D01*
X212135063Y-90735408D01*
X212155659Y-90500000D01*
X212135063Y-90264592D01*
X212085058Y-90077967D01*
X212073905Y-90036344D01*
X212073904Y-90036343D01*
X212073903Y-90036337D01*
X211974035Y-89822171D01*
X211972419Y-89819862D01*
X211838494Y-89628597D01*
X211671402Y-89461506D01*
X211671396Y-89461501D01*
X211485842Y-89331575D01*
X211442217Y-89276998D01*
X211435023Y-89207500D01*
X211466546Y-89145145D01*
X211485842Y-89128425D01*
X211599989Y-89048498D01*
X211671401Y-88998495D01*
X211838495Y-88831401D01*
X211974035Y-88637830D01*
X212073903Y-88423663D01*
X212135063Y-88195408D01*
X212155659Y-87960000D01*
X212135063Y-87724592D01*
X212073903Y-87496337D01*
X211974035Y-87282171D01*
X211968425Y-87274158D01*
X211838494Y-87088597D01*
X211671402Y-86921506D01*
X211671396Y-86921501D01*
X211485842Y-86791575D01*
X211442217Y-86736998D01*
X211435023Y-86667500D01*
X211466546Y-86605145D01*
X211485842Y-86588425D01*
X211518505Y-86565554D01*
X211671401Y-86458495D01*
X211838495Y-86291401D01*
X211974035Y-86097830D01*
X212073903Y-85883663D01*
X212135063Y-85655408D01*
X212155659Y-85420000D01*
X212135063Y-85184592D01*
X212086208Y-85002262D01*
X212073905Y-84956344D01*
X212073904Y-84956343D01*
X212073903Y-84956337D01*
X211974035Y-84742171D01*
X211968425Y-84734158D01*
X211838494Y-84548597D01*
X211671402Y-84381506D01*
X211671396Y-84381501D01*
X211485842Y-84251575D01*
X211442217Y-84196998D01*
X211435023Y-84127500D01*
X211466546Y-84065145D01*
X211485842Y-84048425D01*
X211555000Y-84000000D01*
X211671401Y-83918495D01*
X211838495Y-83751401D01*
X211974035Y-83557830D01*
X212073903Y-83343663D01*
X212135063Y-83115408D01*
X212155659Y-82880000D01*
X212135063Y-82644592D01*
X212073903Y-82416337D01*
X211974035Y-82202171D01*
X211968425Y-82194158D01*
X211838494Y-82008597D01*
X211671402Y-81841506D01*
X211671396Y-81841501D01*
X211485842Y-81711575D01*
X211442217Y-81656998D01*
X211435023Y-81587500D01*
X211466546Y-81525145D01*
X211485842Y-81508425D01*
X211599989Y-81428498D01*
X211671401Y-81378495D01*
X211838495Y-81211401D01*
X211974035Y-81017830D01*
X212073903Y-80803663D01*
X212135063Y-80575408D01*
X212155659Y-80340000D01*
X212135063Y-80104592D01*
X212073903Y-79876337D01*
X211974035Y-79662171D01*
X211968425Y-79654158D01*
X211838494Y-79468597D01*
X211671402Y-79301506D01*
X211671396Y-79301501D01*
X211485842Y-79171575D01*
X211442217Y-79116998D01*
X211435023Y-79047500D01*
X211466546Y-78985145D01*
X211485842Y-78968425D01*
X211599989Y-78888498D01*
X211671401Y-78838495D01*
X211838495Y-78671401D01*
X211974035Y-78477830D01*
X212073903Y-78263663D01*
X212135063Y-78035408D01*
X212155659Y-77800000D01*
X212135063Y-77564592D01*
X212073903Y-77336337D01*
X211974035Y-77122171D01*
X211968425Y-77114158D01*
X211838494Y-76928597D01*
X211671402Y-76761506D01*
X211671396Y-76761501D01*
X211485842Y-76631575D01*
X211442217Y-76576998D01*
X211435023Y-76507500D01*
X211466546Y-76445145D01*
X211485842Y-76428425D01*
X211508026Y-76412891D01*
X211671401Y-76298495D01*
X211838495Y-76131401D01*
X211974035Y-75937830D01*
X212073903Y-75723663D01*
X212135063Y-75495408D01*
X212155659Y-75260000D01*
X212135063Y-75024592D01*
X212073903Y-74796337D01*
X211974035Y-74582171D01*
X211968425Y-74574158D01*
X211838494Y-74388597D01*
X211671402Y-74221506D01*
X211671396Y-74221501D01*
X211485842Y-74091575D01*
X211442217Y-74036998D01*
X211435023Y-73967500D01*
X211466546Y-73905145D01*
X211485842Y-73888425D01*
X211599989Y-73808498D01*
X211671401Y-73758495D01*
X211838495Y-73591401D01*
X211974035Y-73397830D01*
X212073903Y-73183663D01*
X212135063Y-72955408D01*
X212155659Y-72720000D01*
X212135063Y-72484592D01*
X212073903Y-72256337D01*
X211974035Y-72042171D01*
X211968425Y-72034158D01*
X211838494Y-71848597D01*
X211671402Y-71681506D01*
X211671396Y-71681501D01*
X211485842Y-71551575D01*
X211442217Y-71496998D01*
X211435023Y-71427500D01*
X211466546Y-71365145D01*
X211485842Y-71348425D01*
X211575895Y-71285369D01*
X211671401Y-71218495D01*
X211838495Y-71051401D01*
X211974035Y-70857830D01*
X212073903Y-70643663D01*
X212135063Y-70415408D01*
X212155659Y-70180000D01*
X212135063Y-69944592D01*
X212073903Y-69716337D01*
X211974035Y-69502171D01*
X211968425Y-69494158D01*
X211838494Y-69308597D01*
X211671402Y-69141506D01*
X211671396Y-69141501D01*
X211485842Y-69011575D01*
X211442217Y-68956998D01*
X211435023Y-68887500D01*
X211466546Y-68825145D01*
X211485842Y-68808425D01*
X211508026Y-68792891D01*
X211671401Y-68678495D01*
X211838495Y-68511401D01*
X211974035Y-68317830D01*
X212073903Y-68103663D01*
X212135063Y-67875408D01*
X212155659Y-67640000D01*
X212135063Y-67404592D01*
X212073903Y-67176337D01*
X211974035Y-66962171D01*
X211968425Y-66954158D01*
X211838494Y-66768597D01*
X211671402Y-66601506D01*
X211671396Y-66601501D01*
X211485842Y-66471575D01*
X211442217Y-66416998D01*
X211435023Y-66347500D01*
X211466546Y-66285145D01*
X211485842Y-66268425D01*
X211508026Y-66252891D01*
X211671401Y-66138495D01*
X211838495Y-65971401D01*
X211974035Y-65777830D01*
X212073903Y-65563663D01*
X212135063Y-65335408D01*
X212155659Y-65100000D01*
X212135063Y-64864592D01*
X212073903Y-64636337D01*
X211974035Y-64422171D01*
X211968424Y-64414158D01*
X211838496Y-64228600D01*
X211838493Y-64228597D01*
X211716179Y-64106283D01*
X211682696Y-64044963D01*
X211687680Y-63975271D01*
X211729551Y-63919337D01*
X211760529Y-63902422D01*
X211892086Y-63853354D01*
X211892093Y-63853350D01*
X212007187Y-63767190D01*
X212007190Y-63767187D01*
X212093350Y-63652093D01*
X212093354Y-63652086D01*
X212143596Y-63517379D01*
X212143598Y-63517372D01*
X212149999Y-63457844D01*
X212150000Y-63457827D01*
X212150000Y-62810000D01*
X211233012Y-62810000D01*
X211265925Y-62752993D01*
X211300000Y-62625826D01*
X211300000Y-62494174D01*
X211265925Y-62367007D01*
X211233012Y-62310000D01*
X212150000Y-62310000D01*
X212150000Y-61662172D01*
X212149999Y-61662155D01*
X212143598Y-61602627D01*
X212143596Y-61602620D01*
X212093354Y-61467913D01*
X212093350Y-61467906D01*
X212007190Y-61352812D01*
X212007187Y-61352809D01*
X211892093Y-61266649D01*
X211892086Y-61266645D01*
X211757379Y-61216403D01*
X211757372Y-61216401D01*
X211697844Y-61210000D01*
X211050000Y-61210000D01*
X211050000Y-62126988D01*
X210992993Y-62094075D01*
X210865826Y-62060000D01*
X210734174Y-62060000D01*
X210607007Y-62094075D01*
X210550000Y-62126988D01*
X210550000Y-61210000D01*
X209902155Y-61210000D01*
X209842627Y-61216401D01*
X209842620Y-61216403D01*
X209707913Y-61266645D01*
X209707906Y-61266649D01*
X209592812Y-61352809D01*
X209592809Y-61352812D01*
X209506649Y-61467906D01*
X209506646Y-61467911D01*
X209457385Y-61599987D01*
X209415513Y-61655920D01*
X209350049Y-61680337D01*
X209281776Y-61665485D01*
X209253522Y-61644334D01*
X209131082Y-61521894D01*
X208937578Y-61386399D01*
X208723492Y-61286570D01*
X208723486Y-61286567D01*
X208510000Y-61229364D01*
X208510000Y-62126988D01*
X208452993Y-62094075D01*
X208325826Y-62060000D01*
X208194174Y-62060000D01*
X208067007Y-62094075D01*
X208010000Y-62126988D01*
X208010000Y-61229364D01*
X208009999Y-61229364D01*
X207796513Y-61286567D01*
X207796507Y-61286570D01*
X207582422Y-61386399D01*
X207582420Y-61386400D01*
X207388926Y-61521886D01*
X207388920Y-61521891D01*
X207221891Y-61688920D01*
X207221886Y-61688926D01*
X207086400Y-61882420D01*
X207086399Y-61882422D01*
X206986570Y-62096507D01*
X206986567Y-62096513D01*
X206929364Y-62309999D01*
X206929364Y-62310000D01*
X207826988Y-62310000D01*
X207794075Y-62367007D01*
X207760000Y-62494174D01*
X207760000Y-62625826D01*
X207794075Y-62752993D01*
X207826988Y-62810000D01*
X206929364Y-62810000D01*
X206986567Y-63023486D01*
X206986570Y-63023492D01*
X207086399Y-63237578D01*
X207221894Y-63431082D01*
X207388917Y-63598105D01*
X207574595Y-63728119D01*
X207618219Y-63782696D01*
X207625412Y-63852195D01*
X207593890Y-63914549D01*
X207574595Y-63931269D01*
X207388594Y-64061508D01*
X207221505Y-64228597D01*
X207085965Y-64422169D01*
X207085964Y-64422171D01*
X206986098Y-64636335D01*
X206986094Y-64636344D01*
X206924938Y-64864586D01*
X206924936Y-64864596D01*
X206904341Y-65099999D01*
X206904341Y-65100000D01*
X206924936Y-65335403D01*
X206924938Y-65335413D01*
X206986094Y-65563655D01*
X206986096Y-65563659D01*
X206986097Y-65563663D01*
X207026579Y-65650476D01*
X207085965Y-65777830D01*
X207085967Y-65777834D01*
X207194281Y-65932521D01*
X207221501Y-65971396D01*
X207221506Y-65971402D01*
X207388597Y-66138493D01*
X207388603Y-66138498D01*
X207574158Y-66268425D01*
X207617783Y-66323002D01*
X207624977Y-66392500D01*
X207593454Y-66454855D01*
X207574158Y-66471575D01*
X207388597Y-66601505D01*
X207221505Y-66768597D01*
X207085965Y-66962169D01*
X207085964Y-66962171D01*
X206986098Y-67176335D01*
X206986094Y-67176344D01*
X206924938Y-67404586D01*
X206924936Y-67404596D01*
X206904341Y-67639999D01*
X206904341Y-67640000D01*
X206924936Y-67875403D01*
X206924938Y-67875413D01*
X206986094Y-68103655D01*
X206986096Y-68103659D01*
X206986097Y-68103663D01*
X207052020Y-68245034D01*
X207085965Y-68317830D01*
X207085967Y-68317834D01*
X207175655Y-68445920D01*
X207221501Y-68511396D01*
X207221506Y-68511402D01*
X207388597Y-68678493D01*
X207388603Y-68678498D01*
X207574158Y-68808425D01*
X207617783Y-68863002D01*
X207624977Y-68932500D01*
X207593454Y-68994855D01*
X207574158Y-69011575D01*
X207388597Y-69141505D01*
X207221505Y-69308597D01*
X207085965Y-69502169D01*
X207085964Y-69502171D01*
X206986098Y-69716335D01*
X206986094Y-69716344D01*
X206924938Y-69944586D01*
X206924936Y-69944596D01*
X206904341Y-70179999D01*
X206904341Y-70180000D01*
X206924936Y-70415403D01*
X206924938Y-70415413D01*
X206986094Y-70643655D01*
X206986096Y-70643659D01*
X206986097Y-70643663D01*
X207066004Y-70815023D01*
X207085965Y-70857830D01*
X207085967Y-70857834D01*
X207113074Y-70896546D01*
X207221501Y-71051396D01*
X207221506Y-71051402D01*
X207388597Y-71218493D01*
X207388603Y-71218498D01*
X207574158Y-71348425D01*
X207617783Y-71403002D01*
X207624977Y-71472500D01*
X207593454Y-71534855D01*
X207574158Y-71551575D01*
X207388597Y-71681505D01*
X207221505Y-71848597D01*
X207085965Y-72042169D01*
X207085964Y-72042171D01*
X206986098Y-72256335D01*
X206986094Y-72256344D01*
X206924938Y-72484586D01*
X206924936Y-72484596D01*
X206904341Y-72719999D01*
X206904341Y-72720000D01*
X206924936Y-72955403D01*
X206924938Y-72955413D01*
X206986094Y-73183655D01*
X206986096Y-73183659D01*
X206986097Y-73183663D01*
X207042219Y-73304016D01*
X207085965Y-73397830D01*
X207085967Y-73397834D01*
X207153918Y-73494877D01*
X207221501Y-73591396D01*
X207221506Y-73591402D01*
X207388597Y-73758493D01*
X207388603Y-73758498D01*
X207574158Y-73888425D01*
X207617783Y-73943002D01*
X207624977Y-74012500D01*
X207593454Y-74074855D01*
X207574158Y-74091575D01*
X207388597Y-74221505D01*
X207221505Y-74388597D01*
X207085965Y-74582169D01*
X207085964Y-74582171D01*
X206986098Y-74796335D01*
X206986094Y-74796344D01*
X206924938Y-75024586D01*
X206924936Y-75024596D01*
X206904341Y-75259999D01*
X206904341Y-75260000D01*
X206924936Y-75495403D01*
X206924938Y-75495413D01*
X206986094Y-75723655D01*
X206986096Y-75723659D01*
X206986097Y-75723663D01*
X207031370Y-75820750D01*
X207085965Y-75937830D01*
X207085967Y-75937834D01*
X207192862Y-76090494D01*
X207221501Y-76131396D01*
X207221506Y-76131402D01*
X207388597Y-76298493D01*
X207388603Y-76298498D01*
X207574158Y-76428425D01*
X207617783Y-76483002D01*
X207624977Y-76552500D01*
X207593454Y-76614855D01*
X207574158Y-76631575D01*
X207388597Y-76761505D01*
X207221505Y-76928597D01*
X207085965Y-77122169D01*
X207085964Y-77122171D01*
X206986098Y-77336335D01*
X206986094Y-77336344D01*
X206924938Y-77564586D01*
X206924936Y-77564596D01*
X206904341Y-77799999D01*
X206904341Y-77800000D01*
X206924936Y-78035403D01*
X206924938Y-78035413D01*
X206986094Y-78263655D01*
X206986096Y-78263659D01*
X206986097Y-78263663D01*
X207066004Y-78435023D01*
X207085965Y-78477830D01*
X207085967Y-78477834D01*
X207120975Y-78527830D01*
X207221501Y-78671396D01*
X207221506Y-78671402D01*
X207388597Y-78838493D01*
X207388603Y-78838498D01*
X207574158Y-78968425D01*
X207617783Y-79023002D01*
X207624977Y-79092500D01*
X207593454Y-79154855D01*
X207574158Y-79171575D01*
X207388597Y-79301505D01*
X207221505Y-79468597D01*
X207085965Y-79662169D01*
X207085964Y-79662171D01*
X206986098Y-79876335D01*
X206986094Y-79876344D01*
X206924938Y-80104586D01*
X206924936Y-80104596D01*
X206904341Y-80339999D01*
X206904341Y-80340000D01*
X206924936Y-80575403D01*
X206924938Y-80575413D01*
X206986094Y-80803655D01*
X206986096Y-80803659D01*
X206986097Y-80803663D01*
X207066004Y-80975023D01*
X207085965Y-81017830D01*
X207085967Y-81017834D01*
X207194281Y-81172521D01*
X207221501Y-81211396D01*
X207221506Y-81211402D01*
X207388597Y-81378493D01*
X207388603Y-81378498D01*
X207574158Y-81508425D01*
X207617783Y-81563002D01*
X207624977Y-81632500D01*
X207593454Y-81694855D01*
X207574158Y-81711575D01*
X207388597Y-81841505D01*
X207221505Y-82008597D01*
X207085965Y-82202169D01*
X207085964Y-82202171D01*
X206986098Y-82416335D01*
X206986094Y-82416344D01*
X206924938Y-82644586D01*
X206924936Y-82644596D01*
X206904341Y-82879999D01*
X206904341Y-82880000D01*
X206924936Y-83115403D01*
X206924938Y-83115413D01*
X206986094Y-83343655D01*
X206986096Y-83343659D01*
X206986097Y-83343663D01*
X207057943Y-83497737D01*
X207085965Y-83557830D01*
X207085967Y-83557834D01*
X207194281Y-83712521D01*
X207221501Y-83751396D01*
X207221506Y-83751402D01*
X207388597Y-83918493D01*
X207388603Y-83918498D01*
X207574158Y-84048425D01*
X207617783Y-84103002D01*
X207624977Y-84172500D01*
X207593454Y-84234855D01*
X207574158Y-84251575D01*
X207388597Y-84381505D01*
X207221505Y-84548597D01*
X207085965Y-84742169D01*
X207085964Y-84742171D01*
X206986098Y-84956335D01*
X206986094Y-84956344D01*
X206924938Y-85184586D01*
X206924936Y-85184596D01*
X206904341Y-85419999D01*
X206904341Y-85420000D01*
X206924936Y-85655403D01*
X206924938Y-85655413D01*
X206986094Y-85883655D01*
X206986096Y-85883659D01*
X206986097Y-85883663D01*
X207066004Y-86055023D01*
X207085965Y-86097830D01*
X207085967Y-86097834D01*
X207185325Y-86239731D01*
X207221501Y-86291396D01*
X207221506Y-86291402D01*
X207388597Y-86458493D01*
X207388603Y-86458498D01*
X207574158Y-86588425D01*
X207617783Y-86643002D01*
X207624977Y-86712500D01*
X207593454Y-86774855D01*
X207574158Y-86791575D01*
X207388597Y-86921505D01*
X207221505Y-87088597D01*
X207085965Y-87282169D01*
X207085964Y-87282171D01*
X206986098Y-87496335D01*
X206986094Y-87496344D01*
X206924938Y-87724586D01*
X206924936Y-87724596D01*
X206904341Y-87959999D01*
X206904341Y-87960000D01*
X206924936Y-88195403D01*
X206924938Y-88195413D01*
X206986094Y-88423655D01*
X206986096Y-88423659D01*
X206986097Y-88423663D01*
X207066004Y-88595023D01*
X207085965Y-88637830D01*
X207085967Y-88637834D01*
X207113074Y-88676546D01*
X207221501Y-88831396D01*
X207221506Y-88831402D01*
X207388597Y-88998493D01*
X207388603Y-88998498D01*
X207574158Y-89128425D01*
X207617783Y-89183002D01*
X207624977Y-89252500D01*
X207593454Y-89314855D01*
X207574158Y-89331575D01*
X207388597Y-89461505D01*
X207221505Y-89628597D01*
X207085965Y-89822169D01*
X207085964Y-89822171D01*
X206986098Y-90036335D01*
X206986094Y-90036344D01*
X206924938Y-90264586D01*
X206924936Y-90264596D01*
X206904341Y-90499999D01*
X206904341Y-90500000D01*
X206924936Y-90735403D01*
X206924938Y-90735413D01*
X206986094Y-90963655D01*
X206986096Y-90963659D01*
X206986097Y-90963663D01*
X207051044Y-91102942D01*
X207085965Y-91177830D01*
X207085967Y-91177834D01*
X207113074Y-91216546D01*
X207221501Y-91371396D01*
X207221506Y-91371402D01*
X207388597Y-91538493D01*
X207388603Y-91538498D01*
X207574158Y-91668425D01*
X207617783Y-91723002D01*
X207624977Y-91792500D01*
X207593454Y-91854855D01*
X207574158Y-91871575D01*
X207388597Y-92001505D01*
X207221505Y-92168597D01*
X207085965Y-92362169D01*
X207085964Y-92362171D01*
X206986098Y-92576335D01*
X206986094Y-92576344D01*
X206924938Y-92804586D01*
X206924936Y-92804596D01*
X206904341Y-93039999D01*
X206904341Y-93040000D01*
X206924936Y-93275403D01*
X206924938Y-93275413D01*
X206986094Y-93503655D01*
X206986096Y-93503659D01*
X206986097Y-93503663D01*
X207046695Y-93633615D01*
X207085965Y-93717830D01*
X207085967Y-93717834D01*
X207194281Y-93872521D01*
X207221501Y-93911396D01*
X207221506Y-93911402D01*
X207388597Y-94078493D01*
X207388603Y-94078498D01*
X207574158Y-94208425D01*
X207617783Y-94263002D01*
X207624977Y-94332500D01*
X207593454Y-94394855D01*
X207574158Y-94411575D01*
X207388597Y-94541505D01*
X207221505Y-94708597D01*
X207085965Y-94902169D01*
X207085964Y-94902171D01*
X206986098Y-95116335D01*
X206986094Y-95116344D01*
X206924938Y-95344586D01*
X206924936Y-95344596D01*
X206904341Y-95579999D01*
X206904341Y-95580000D01*
X206924936Y-95815403D01*
X206924938Y-95815413D01*
X206986094Y-96043655D01*
X206986097Y-96043664D01*
X207045287Y-96170595D01*
X207055779Y-96239672D01*
X207027259Y-96303456D01*
X206968783Y-96341696D01*
X206932905Y-96347000D01*
X189675568Y-96347000D01*
X189608529Y-96327315D01*
X189562774Y-96274511D01*
X189552830Y-96205353D01*
X189581855Y-96141797D01*
X189587887Y-96135319D01*
X193513229Y-92209977D01*
X205358506Y-80364698D01*
X205358511Y-80364695D01*
X205368714Y-80354491D01*
X205368716Y-80354491D01*
X205480520Y-80242687D01*
X205533756Y-80150478D01*
X205559577Y-80105756D01*
X205600501Y-79953028D01*
X205600501Y-79794913D01*
X205600501Y-79787318D01*
X205600500Y-79787300D01*
X205600500Y-70082412D01*
X205620185Y-70015373D01*
X205627555Y-70005097D01*
X205629810Y-70002267D01*
X205629816Y-70002262D01*
X205725789Y-69849522D01*
X205785368Y-69679255D01*
X205795136Y-69592565D01*
X205805565Y-69500003D01*
X205805565Y-69499996D01*
X205785369Y-69320750D01*
X205785368Y-69320745D01*
X205762360Y-69254991D01*
X205725789Y-69150478D01*
X205720148Y-69141501D01*
X205666402Y-69055965D01*
X205629816Y-68997738D01*
X205502262Y-68870184D01*
X205483548Y-68858425D01*
X205349523Y-68774211D01*
X205179254Y-68714631D01*
X205179250Y-68714630D01*
X205096369Y-68705292D01*
X205031955Y-68678225D01*
X204992400Y-68620630D01*
X204990263Y-68550793D01*
X205022570Y-68494393D01*
X206480520Y-67036445D01*
X206559577Y-66899513D01*
X206600501Y-66746786D01*
X206600501Y-66588671D01*
X206600501Y-66581076D01*
X206600500Y-66581058D01*
X206600500Y-60482412D01*
X206620185Y-60415373D01*
X206627555Y-60405097D01*
X206629810Y-60402267D01*
X206629816Y-60402262D01*
X206725789Y-60249522D01*
X206785368Y-60079255D01*
X206805565Y-59900000D01*
X206785368Y-59720745D01*
X206725789Y-59550478D01*
X206629816Y-59397738D01*
X206502262Y-59270184D01*
X206399500Y-59205614D01*
X206349523Y-59174211D01*
X206179254Y-59114631D01*
X206179249Y-59114630D01*
X206000004Y-59094435D01*
X205999996Y-59094435D01*
X205820750Y-59114630D01*
X205820739Y-59114633D01*
X205765453Y-59133978D01*
X205695674Y-59137539D01*
X205635047Y-59102809D01*
X205602821Y-59040816D01*
X205600500Y-59016936D01*
X205600500Y-54420945D01*
X205600500Y-54420943D01*
X205559577Y-54268216D01*
X205559573Y-54268209D01*
X205480524Y-54131290D01*
X205480521Y-54131286D01*
X205480520Y-54131284D01*
X205368716Y-54019480D01*
X205368715Y-54019479D01*
X205364385Y-54015149D01*
X205364374Y-54015139D01*
X199830700Y-48481465D01*
X199797215Y-48420142D01*
X199795163Y-48407686D01*
X199785368Y-48320745D01*
X199725789Y-48150478D01*
X199629816Y-47997738D01*
X199502262Y-47870184D01*
X199349523Y-47774211D01*
X199179254Y-47714631D01*
X199179249Y-47714630D01*
X199000004Y-47694435D01*
X198999996Y-47694435D01*
X198820750Y-47714630D01*
X198820745Y-47714631D01*
X198650476Y-47774211D01*
X198497737Y-47870184D01*
X198370184Y-47997737D01*
X198274211Y-48150476D01*
X198214631Y-48320745D01*
X198214630Y-48320750D01*
X198194435Y-48499996D01*
X198194435Y-48500003D01*
X198214630Y-48679249D01*
X198214631Y-48679254D01*
X198274211Y-48849523D01*
X198370184Y-49002262D01*
X198497738Y-49129816D01*
X198650478Y-49225789D01*
X198820745Y-49285368D01*
X198907669Y-49295161D01*
X198972080Y-49322226D01*
X198981465Y-49330700D01*
X204363181Y-54712416D01*
X204396666Y-54773739D01*
X204399500Y-54800097D01*
X204399500Y-65417587D01*
X204379815Y-65484626D01*
X204372450Y-65494896D01*
X204370186Y-65497734D01*
X204274211Y-65650476D01*
X204214631Y-65820745D01*
X204214630Y-65820750D01*
X204194435Y-65999996D01*
X204194435Y-66000003D01*
X204214630Y-66179249D01*
X204214631Y-66179254D01*
X204274211Y-66349523D01*
X204316609Y-66416998D01*
X204370184Y-66502262D01*
X204497738Y-66629816D01*
X204650478Y-66725789D01*
X204791801Y-66775240D01*
X204848577Y-66815962D01*
X204874325Y-66880915D01*
X204860869Y-66949476D01*
X204838528Y-66979963D01*
X204374084Y-67444407D01*
X204312761Y-67477892D01*
X204243069Y-67472908D01*
X204220431Y-67461720D01*
X204073523Y-67369411D01*
X203903254Y-67309831D01*
X203903249Y-67309830D01*
X203724004Y-67289635D01*
X203723996Y-67289635D01*
X203544750Y-67309830D01*
X203544745Y-67309831D01*
X203374476Y-67369411D01*
X203221736Y-67465385D01*
X203218903Y-67467645D01*
X203216724Y-67468534D01*
X203215842Y-67469089D01*
X203215744Y-67468934D01*
X203154217Y-67494055D01*
X203141588Y-67494700D01*
X192374500Y-67494700D01*
X192307461Y-67475015D01*
X192261706Y-67422211D01*
X192250500Y-67370700D01*
X192250500Y-67350943D01*
X192250499Y-67350939D01*
X192239485Y-67309833D01*
X192239485Y-67309832D01*
X192209577Y-67198215D01*
X192146810Y-67089500D01*
X192130520Y-67061284D01*
X192018716Y-66949480D01*
X192018715Y-66949479D01*
X192014385Y-66945149D01*
X192014374Y-66945139D01*
X188981416Y-63912181D01*
X188947931Y-63850858D01*
X188952915Y-63781166D01*
X188994787Y-63725233D01*
X189060251Y-63700816D01*
X189069097Y-63700500D01*
X189130191Y-63700500D01*
X189130192Y-63700500D01*
X189367297Y-63660934D01*
X189446367Y-63633788D01*
X189516163Y-63630639D01*
X189574302Y-63663381D01*
X191759734Y-65848470D01*
X191823284Y-65912020D01*
X191823287Y-65912023D01*
X191823318Y-65912047D01*
X191887725Y-65949225D01*
X191887724Y-65949225D01*
X191887730Y-65949227D01*
X191958786Y-65990251D01*
X191960267Y-65991137D01*
X191960279Y-65991142D01*
X191962330Y-65991649D01*
X192042212Y-66013048D01*
X192042219Y-66013052D01*
X192042220Y-66013050D01*
X192112943Y-66032000D01*
X192112947Y-66032000D01*
X192112983Y-66032005D01*
X192112990Y-66032007D01*
X192112995Y-66032006D01*
X192112996Y-66032007D01*
X192185966Y-66032001D01*
X192198129Y-66032000D01*
X201067588Y-66032000D01*
X201134627Y-66051685D01*
X201144903Y-66059055D01*
X201147736Y-66061314D01*
X201147738Y-66061316D01*
X201207241Y-66098704D01*
X201270567Y-66138495D01*
X201300478Y-66157289D01*
X201470745Y-66216868D01*
X201470750Y-66216869D01*
X201649996Y-66237065D01*
X201650000Y-66237065D01*
X201650004Y-66237065D01*
X201829249Y-66216869D01*
X201829252Y-66216868D01*
X201829255Y-66216868D01*
X201999522Y-66157289D01*
X202152262Y-66061316D01*
X202279816Y-65933762D01*
X202375789Y-65781022D01*
X202435368Y-65610755D01*
X202448102Y-65497738D01*
X202455565Y-65431503D01*
X202455565Y-65431496D01*
X202435369Y-65252250D01*
X202435368Y-65252245D01*
X202399591Y-65150000D01*
X202375789Y-65081978D01*
X202279816Y-64929238D01*
X202152262Y-64801684D01*
X202141128Y-64794688D01*
X201999523Y-64705711D01*
X201829254Y-64646131D01*
X201829249Y-64646130D01*
X201650004Y-64625935D01*
X201649996Y-64625935D01*
X201470750Y-64646130D01*
X201470745Y-64646131D01*
X201300476Y-64705711D01*
X201147736Y-64801685D01*
X201144903Y-64803945D01*
X201142724Y-64804834D01*
X201141842Y-64805389D01*
X201141744Y-64805234D01*
X201080217Y-64830355D01*
X201067588Y-64831000D01*
X192492064Y-64831000D01*
X192425025Y-64811315D01*
X192404390Y-64794688D01*
X192235610Y-64625935D01*
X191521750Y-63912187D01*
X191488261Y-63850868D01*
X191493240Y-63781176D01*
X191535107Y-63725239D01*
X191600569Y-63700817D01*
X191609425Y-63700500D01*
X191670191Y-63700500D01*
X191670192Y-63700500D01*
X191907297Y-63660934D01*
X192134656Y-63582882D01*
X192346067Y-63468472D01*
X192535764Y-63320825D01*
X192698571Y-63143969D01*
X192830049Y-62942728D01*
X192926610Y-62722591D01*
X192985620Y-62489563D01*
X193000499Y-62310000D01*
X193005471Y-62250005D01*
X193005471Y-62249994D01*
X192985620Y-62010440D01*
X192985620Y-62010437D01*
X192926610Y-61777409D01*
X192830049Y-61557272D01*
X192819999Y-61541890D01*
X192718412Y-61386400D01*
X192698571Y-61356031D01*
X192698570Y-61356030D01*
X192696147Y-61352321D01*
X192675959Y-61285432D01*
X192695138Y-61218246D01*
X192747597Y-61172095D01*
X192799955Y-61160499D01*
X193817871Y-61160499D01*
X193817872Y-61160499D01*
X193877483Y-61154091D01*
X194012331Y-61103796D01*
X194127546Y-61017546D01*
X194213796Y-60902331D01*
X194264091Y-60767483D01*
X194270500Y-60707873D01*
X194270499Y-58712128D01*
X194264091Y-58652517D01*
X194246315Y-58604858D01*
X194213797Y-58517671D01*
X194213793Y-58517664D01*
X194127547Y-58402455D01*
X194127544Y-58402452D01*
X194012335Y-58316206D01*
X194012328Y-58316202D01*
X193877482Y-58265908D01*
X193877483Y-58265908D01*
X193817883Y-58259501D01*
X193817881Y-58259500D01*
X193817873Y-58259500D01*
X193817864Y-58259500D01*
X191822129Y-58259500D01*
X191822123Y-58259501D01*
X191762516Y-58265908D01*
X191627671Y-58316202D01*
X191627664Y-58316206D01*
X191512455Y-58402452D01*
X191512452Y-58402455D01*
X191426206Y-58517664D01*
X191426201Y-58517674D01*
X191414017Y-58550340D01*
X191372145Y-58606273D01*
X191306680Y-58630689D01*
X191238408Y-58615836D01*
X191221673Y-58604858D01*
X191076069Y-58491529D01*
X190864657Y-58377118D01*
X190864652Y-58377116D01*
X190637300Y-58299066D01*
X190438593Y-58265908D01*
X190400192Y-58259500D01*
X190159808Y-58259500D01*
X190121407Y-58265908D01*
X189922699Y-58299066D01*
X189695347Y-58377116D01*
X189695342Y-58377118D01*
X189483930Y-58491529D01*
X189483924Y-58491533D01*
X189294242Y-58639169D01*
X189294239Y-58639172D01*
X189131430Y-58816029D01*
X189131429Y-58816031D01*
X189113807Y-58843003D01*
X189060660Y-58888358D01*
X188991429Y-58897780D01*
X188928093Y-58868277D01*
X188906193Y-58843003D01*
X188904154Y-58839883D01*
X188888571Y-58816031D01*
X188725764Y-58639175D01*
X188725759Y-58639171D01*
X188725757Y-58639169D01*
X188536075Y-58491533D01*
X188536069Y-58491529D01*
X188324657Y-58377118D01*
X188324652Y-58377116D01*
X188097300Y-58299066D01*
X187898593Y-58265908D01*
X187860192Y-58259500D01*
X187619808Y-58259500D01*
X187581407Y-58265908D01*
X187382699Y-58299066D01*
X187155347Y-58377116D01*
X187155342Y-58377118D01*
X186943930Y-58491529D01*
X186943924Y-58491533D01*
X186754242Y-58639169D01*
X186754239Y-58639172D01*
X186591430Y-58816029D01*
X186591429Y-58816031D01*
X186573807Y-58843003D01*
X186520660Y-58888358D01*
X186451429Y-58897780D01*
X186388093Y-58868277D01*
X186366193Y-58843003D01*
X186364154Y-58839883D01*
X186348571Y-58816031D01*
X186185764Y-58639175D01*
X186185759Y-58639171D01*
X186185757Y-58639169D01*
X185996075Y-58491533D01*
X185996069Y-58491529D01*
X185784657Y-58377118D01*
X185784652Y-58377116D01*
X185557300Y-58299066D01*
X185358593Y-58265908D01*
X185320192Y-58259500D01*
X185079808Y-58259500D01*
X185041407Y-58265908D01*
X184842699Y-58299066D01*
X184615347Y-58377116D01*
X184615342Y-58377118D01*
X184403930Y-58491529D01*
X184403924Y-58491533D01*
X184214242Y-58639169D01*
X184214239Y-58639172D01*
X184051430Y-58816029D01*
X184051427Y-58816033D01*
X183919951Y-59017270D01*
X183823389Y-59237410D01*
X183764379Y-59470440D01*
X183744529Y-59709994D01*
X183744529Y-59710005D01*
X183764379Y-59949559D01*
X183823389Y-60182589D01*
X183919951Y-60402729D01*
X184053852Y-60607678D01*
X184074040Y-60674568D01*
X184054861Y-60741753D01*
X184002402Y-60787904D01*
X183950044Y-60799500D01*
X183809808Y-60799500D01*
X183762387Y-60807413D01*
X183572699Y-60839066D01*
X183345347Y-60917116D01*
X183345342Y-60917118D01*
X183133930Y-61031529D01*
X183133924Y-61031533D01*
X182944242Y-61179169D01*
X182944239Y-61179172D01*
X182781430Y-61356029D01*
X182781427Y-61356033D01*
X182649951Y-61557270D01*
X182553389Y-61777410D01*
X182494379Y-62010440D01*
X182474529Y-62249994D01*
X182474529Y-62250005D01*
X182494379Y-62489559D01*
X182553389Y-62722589D01*
X182649951Y-62942729D01*
X182759236Y-63110000D01*
X182781429Y-63143969D01*
X182944236Y-63320825D01*
X182944239Y-63320827D01*
X182944242Y-63320830D01*
X183133924Y-63468466D01*
X183133930Y-63468470D01*
X183133933Y-63468472D01*
X183345344Y-63582882D01*
X183345347Y-63582883D01*
X183572699Y-63660933D01*
X183572701Y-63660933D01*
X183572703Y-63660934D01*
X183809808Y-63700500D01*
X183809809Y-63700500D01*
X184050191Y-63700500D01*
X184050192Y-63700500D01*
X184287297Y-63660934D01*
X184514656Y-63582882D01*
X184726067Y-63468472D01*
X184915764Y-63320825D01*
X185078571Y-63143969D01*
X185096193Y-63116995D01*
X185149337Y-63071641D01*
X185218568Y-63062217D01*
X185281904Y-63091718D01*
X185303804Y-63116992D01*
X185321429Y-63143969D01*
X185484236Y-63320825D01*
X185484239Y-63320827D01*
X185484242Y-63320830D01*
X185673924Y-63468466D01*
X185673930Y-63468470D01*
X185673933Y-63468472D01*
X185885344Y-63582882D01*
X185885347Y-63582883D01*
X186112699Y-63660933D01*
X186112701Y-63660933D01*
X186112703Y-63660934D01*
X186349808Y-63700500D01*
X186349809Y-63700500D01*
X186590191Y-63700500D01*
X186590192Y-63700500D01*
X186827297Y-63660934D01*
X186906251Y-63633828D01*
X186976048Y-63630679D01*
X187034194Y-63663429D01*
X190928465Y-67557700D01*
X190961950Y-67619023D01*
X190956966Y-67688715D01*
X190945778Y-67711352D01*
X190924213Y-67745672D01*
X190924209Y-67745681D01*
X190864633Y-67915937D01*
X190864630Y-67915950D01*
X190844435Y-68095196D01*
X190844435Y-68095203D01*
X190864630Y-68274449D01*
X190864631Y-68274454D01*
X190924211Y-68444723D01*
X191003975Y-68571665D01*
X191020184Y-68597462D01*
X191147738Y-68725016D01*
X191226031Y-68774211D01*
X191289410Y-68814035D01*
X191300478Y-68820989D01*
X191441069Y-68870184D01*
X191470745Y-68880568D01*
X191470750Y-68880569D01*
X191649996Y-68900765D01*
X191650000Y-68900765D01*
X191650004Y-68900765D01*
X191829249Y-68880569D01*
X191829252Y-68880568D01*
X191829255Y-68880568D01*
X191999522Y-68820989D01*
X192152262Y-68725016D01*
X192152267Y-68725010D01*
X192155097Y-68722755D01*
X192157275Y-68721865D01*
X192158158Y-68721311D01*
X192158255Y-68721465D01*
X192219783Y-68696345D01*
X192232412Y-68695700D01*
X202823431Y-68695700D01*
X202890470Y-68715385D01*
X202936225Y-68768189D01*
X202946169Y-68837347D01*
X202917144Y-68900903D01*
X202911112Y-68907381D01*
X200120013Y-71698481D01*
X200058690Y-71731966D01*
X200032332Y-71734800D01*
X179263412Y-71734800D01*
X179196373Y-71715115D01*
X179186097Y-71707745D01*
X179183263Y-71705485D01*
X179183262Y-71705484D01*
X179126496Y-71669815D01*
X179030523Y-71609511D01*
X178860254Y-71549931D01*
X178860249Y-71549930D01*
X178681004Y-71529735D01*
X178680996Y-71529735D01*
X178501750Y-71549930D01*
X178501745Y-71549931D01*
X178331476Y-71609511D01*
X178178737Y-71705484D01*
X178051184Y-71833037D01*
X177955210Y-71985778D01*
X177895630Y-72156050D01*
X177887898Y-72224683D01*
X177860832Y-72289097D01*
X177803237Y-72328652D01*
X177764678Y-72334800D01*
X170885397Y-72334800D01*
X170818358Y-72315115D01*
X170797716Y-72298481D01*
X164132766Y-65633531D01*
X164099281Y-65572208D01*
X164100672Y-65513757D01*
X164105726Y-65494896D01*
X164135063Y-65385408D01*
X164155659Y-65150000D01*
X164135063Y-64914592D01*
X164073903Y-64686337D01*
X164004220Y-64536904D01*
X163993729Y-64467828D01*
X164022249Y-64404044D01*
X164080725Y-64365804D01*
X164116603Y-64360500D01*
X170959903Y-64360500D01*
X171026942Y-64380185D01*
X171047584Y-64396819D01*
X175745034Y-69094269D01*
X175778519Y-69155592D01*
X175780573Y-69168066D01*
X175790366Y-69254985D01*
X175849946Y-69425257D01*
X175912826Y-69525329D01*
X175931826Y-69592565D01*
X175911458Y-69659401D01*
X175858191Y-69704615D01*
X175827511Y-69712949D01*
X175827541Y-69713080D01*
X175824337Y-69713811D01*
X175821729Y-69714520D01*
X175820751Y-69714630D01*
X175820745Y-69714631D01*
X175820745Y-69714632D01*
X175805343Y-69720021D01*
X175650478Y-69774210D01*
X175497737Y-69870184D01*
X175370184Y-69997737D01*
X175274211Y-70150476D01*
X175214631Y-70320745D01*
X175214630Y-70320750D01*
X175194435Y-70499996D01*
X175194435Y-70500003D01*
X175214630Y-70679249D01*
X175214631Y-70679254D01*
X175274211Y-70849523D01*
X175370184Y-71002262D01*
X175497738Y-71129816D01*
X175575543Y-71178704D01*
X175638869Y-71218495D01*
X175650478Y-71225789D01*
X175820745Y-71285368D01*
X175820750Y-71285369D01*
X175999996Y-71305565D01*
X176000000Y-71305565D01*
X176000004Y-71305565D01*
X176179249Y-71285369D01*
X176179252Y-71285368D01*
X176179255Y-71285368D01*
X176349522Y-71225789D01*
X176502262Y-71129816D01*
X176629816Y-71002262D01*
X176725789Y-70849522D01*
X176785368Y-70679255D01*
X176795161Y-70592329D01*
X176822226Y-70527918D01*
X176830690Y-70518543D01*
X178858506Y-68490728D01*
X178858511Y-68490724D01*
X178868714Y-68480520D01*
X178868716Y-68480520D01*
X178980520Y-68368716D01*
X179034941Y-68274455D01*
X179059577Y-68231785D01*
X179100501Y-68079057D01*
X179100501Y-67920943D01*
X179100501Y-67913348D01*
X179100500Y-67913330D01*
X179100500Y-62582412D01*
X179120185Y-62515373D01*
X179127555Y-62505097D01*
X179129810Y-62502267D01*
X179129816Y-62502262D01*
X179225789Y-62349522D01*
X179285368Y-62179255D01*
X179294691Y-62096513D01*
X179305565Y-62000003D01*
X179305565Y-61999996D01*
X179285369Y-61820750D01*
X179285368Y-61820745D01*
X179248536Y-61715485D01*
X179225789Y-61650478D01*
X179225480Y-61649987D01*
X179167222Y-61557270D01*
X179129816Y-61497738D01*
X179002262Y-61370184D01*
X178979738Y-61356031D01*
X178849523Y-61274211D01*
X178679254Y-61214631D01*
X178679249Y-61214630D01*
X178500004Y-61194435D01*
X178499996Y-61194435D01*
X178320750Y-61214630D01*
X178320745Y-61214631D01*
X178150476Y-61274211D01*
X177997737Y-61370184D01*
X177870184Y-61497737D01*
X177774211Y-61650476D01*
X177714631Y-61820745D01*
X177714630Y-61820750D01*
X177694435Y-61999996D01*
X177694435Y-62000003D01*
X177714630Y-62179249D01*
X177714631Y-62179254D01*
X177774211Y-62349523D01*
X177870185Y-62502263D01*
X177872445Y-62505097D01*
X177873334Y-62507275D01*
X177873889Y-62508158D01*
X177873734Y-62508255D01*
X177898855Y-62569783D01*
X177899500Y-62582412D01*
X177899500Y-67699902D01*
X177879815Y-67766941D01*
X177863181Y-67787583D01*
X177225820Y-68424943D01*
X177164497Y-68458428D01*
X177094805Y-68453444D01*
X177072167Y-68442256D01*
X176925257Y-68349946D01*
X176754985Y-68290366D01*
X176668066Y-68280573D01*
X176603652Y-68253506D01*
X176594269Y-68245034D01*
X171747590Y-63398355D01*
X171747588Y-63398352D01*
X171628717Y-63279481D01*
X171628716Y-63279480D01*
X171541904Y-63229360D01*
X171541904Y-63229359D01*
X171541900Y-63229358D01*
X171491785Y-63200423D01*
X171339057Y-63159499D01*
X171180943Y-63159499D01*
X171173347Y-63159499D01*
X171173331Y-63159500D01*
X164274000Y-63159500D01*
X164206961Y-63139815D01*
X164161206Y-63087011D01*
X164150000Y-63035500D01*
X164150000Y-62860000D01*
X163233012Y-62860000D01*
X163265925Y-62802993D01*
X163300000Y-62675826D01*
X163300000Y-62544174D01*
X163265925Y-62417007D01*
X163233012Y-62360000D01*
X164150000Y-62360000D01*
X164150000Y-61712172D01*
X164149999Y-61712155D01*
X164143598Y-61652627D01*
X164143596Y-61652620D01*
X164093354Y-61517913D01*
X164093350Y-61517906D01*
X164007190Y-61402812D01*
X164007187Y-61402809D01*
X163892093Y-61316649D01*
X163892086Y-61316645D01*
X163757379Y-61266403D01*
X163757372Y-61266401D01*
X163697844Y-61260000D01*
X163050000Y-61260000D01*
X163050000Y-62176988D01*
X162992993Y-62144075D01*
X162865826Y-62110000D01*
X162734174Y-62110000D01*
X162607007Y-62144075D01*
X162550000Y-62176988D01*
X162550000Y-61260000D01*
X161902155Y-61260000D01*
X161842627Y-61266401D01*
X161842620Y-61266403D01*
X161707913Y-61316645D01*
X161707906Y-61316649D01*
X161592812Y-61402809D01*
X161592809Y-61402812D01*
X161506649Y-61517906D01*
X161506646Y-61517911D01*
X161457385Y-61649987D01*
X161415513Y-61705920D01*
X161350049Y-61730337D01*
X161281776Y-61715485D01*
X161253522Y-61694334D01*
X161131082Y-61571894D01*
X160937578Y-61436399D01*
X160723492Y-61336570D01*
X160723486Y-61336567D01*
X160510000Y-61279364D01*
X160510000Y-62176988D01*
X160452993Y-62144075D01*
X160325826Y-62110000D01*
X160194174Y-62110000D01*
X160067007Y-62144075D01*
X160010000Y-62176988D01*
X160010000Y-61279364D01*
X160009999Y-61279363D01*
X159866593Y-61317789D01*
X159796743Y-61316126D01*
X159738881Y-61276963D01*
X159711377Y-61212735D01*
X159710500Y-61198014D01*
X159710500Y-56409995D01*
X178824953Y-56409995D01*
X178824953Y-56410004D01*
X178845113Y-56679026D01*
X178845113Y-56679028D01*
X178905142Y-56942033D01*
X178905148Y-56942052D01*
X179003709Y-57193181D01*
X179003708Y-57193181D01*
X179138600Y-57426818D01*
X179192294Y-57494150D01*
X179914152Y-56772291D01*
X179921049Y-56788942D01*
X180008599Y-56919970D01*
X180120030Y-57031401D01*
X180251058Y-57118951D01*
X180267706Y-57125846D01*
X179544848Y-57848703D01*
X179727476Y-57973216D01*
X179727485Y-57973221D01*
X179970539Y-58090269D01*
X179970537Y-58090269D01*
X180228337Y-58169790D01*
X180228343Y-58169792D01*
X180495101Y-58209999D01*
X180495110Y-58210000D01*
X180764890Y-58210000D01*
X180764898Y-58209999D01*
X181031656Y-58169792D01*
X181031662Y-58169790D01*
X181289461Y-58090269D01*
X181532516Y-57973221D01*
X181532517Y-57973220D01*
X181715150Y-57848703D01*
X180992293Y-57125847D01*
X181008942Y-57118951D01*
X181139970Y-57031401D01*
X181251401Y-56919970D01*
X181338951Y-56788942D01*
X181345847Y-56772293D01*
X182067703Y-57494150D01*
X182067704Y-57494149D01*
X182121400Y-57426818D01*
X182256290Y-57193181D01*
X182354851Y-56942052D01*
X182354857Y-56942033D01*
X182414886Y-56679028D01*
X182414886Y-56679026D01*
X182435047Y-56410004D01*
X182435047Y-56409995D01*
X182414886Y-56140973D01*
X182414886Y-56140971D01*
X182354857Y-55877966D01*
X182354851Y-55877947D01*
X182256290Y-55626818D01*
X182256291Y-55626818D01*
X182121399Y-55393180D01*
X182117166Y-55387872D01*
X182090757Y-55323186D01*
X182103512Y-55254490D01*
X182151382Y-55203596D01*
X182219168Y-55186661D01*
X182246196Y-55190781D01*
X182293323Y-55203409D01*
X182537073Y-55235500D01*
X182537080Y-55235500D01*
X182782920Y-55235500D01*
X182782927Y-55235500D01*
X183026677Y-55203409D01*
X183264153Y-55139778D01*
X183491292Y-55045694D01*
X183704208Y-54922767D01*
X183899256Y-54773101D01*
X184073101Y-54599256D01*
X184222767Y-54404208D01*
X184345694Y-54191292D01*
X184439778Y-53964153D01*
X184503409Y-53726677D01*
X184535500Y-53482927D01*
X184535500Y-53237073D01*
X184535499Y-53237065D01*
X192214500Y-53237065D01*
X192214500Y-53482934D01*
X192241227Y-53685939D01*
X192246591Y-53726677D01*
X192267729Y-53805565D01*
X192310222Y-53964152D01*
X192310225Y-53964162D01*
X192379452Y-54131290D01*
X192404306Y-54191292D01*
X192527233Y-54404208D01*
X192527235Y-54404210D01*
X192527236Y-54404212D01*
X192676897Y-54599254D01*
X192676903Y-54599261D01*
X192850738Y-54773096D01*
X192850744Y-54773101D01*
X193045792Y-54922767D01*
X193258708Y-55045694D01*
X193485847Y-55139778D01*
X193723323Y-55203409D01*
X193967073Y-55235500D01*
X193967080Y-55235500D01*
X194212920Y-55235500D01*
X194212927Y-55235500D01*
X194456677Y-55203409D01*
X194503797Y-55190783D01*
X194573642Y-55192446D01*
X194631505Y-55231608D01*
X194659010Y-55295836D01*
X194647424Y-55364738D01*
X194632838Y-55387865D01*
X194628603Y-55393175D01*
X194628602Y-55393177D01*
X194493709Y-55626818D01*
X194395148Y-55877947D01*
X194395142Y-55877966D01*
X194335113Y-56140971D01*
X194335113Y-56140973D01*
X194314953Y-56409995D01*
X194314953Y-56410004D01*
X194335113Y-56679026D01*
X194335113Y-56679028D01*
X194395142Y-56942033D01*
X194395148Y-56942052D01*
X194493709Y-57193181D01*
X194493708Y-57193181D01*
X194628600Y-57426818D01*
X194682294Y-57494150D01*
X195404152Y-56772292D01*
X195411049Y-56788942D01*
X195498599Y-56919970D01*
X195610030Y-57031401D01*
X195741058Y-57118951D01*
X195757706Y-57125846D01*
X195034848Y-57848703D01*
X195217476Y-57973216D01*
X195217485Y-57973221D01*
X195460539Y-58090269D01*
X195460537Y-58090269D01*
X195718337Y-58169790D01*
X195718343Y-58169792D01*
X195985101Y-58209999D01*
X195985110Y-58210000D01*
X196254890Y-58210000D01*
X196254898Y-58209999D01*
X196521656Y-58169792D01*
X196521662Y-58169790D01*
X196779461Y-58090269D01*
X197022516Y-57973221D01*
X197022517Y-57973220D01*
X197205150Y-57848703D01*
X196482293Y-57125847D01*
X196498942Y-57118951D01*
X196629970Y-57031401D01*
X196741401Y-56919970D01*
X196828951Y-56788942D01*
X196835847Y-56772293D01*
X197557703Y-57494150D01*
X197557704Y-57494149D01*
X197611400Y-57426818D01*
X197746290Y-57193181D01*
X197844851Y-56942052D01*
X197844857Y-56942033D01*
X197904886Y-56679028D01*
X197904886Y-56679026D01*
X197925047Y-56410004D01*
X197925047Y-56409995D01*
X197904886Y-56140973D01*
X197904886Y-56140971D01*
X197844857Y-55877966D01*
X197844851Y-55877947D01*
X197746290Y-55626818D01*
X197746291Y-55626818D01*
X197611400Y-55393182D01*
X197611393Y-55393171D01*
X197557704Y-55325849D01*
X197557703Y-55325848D01*
X196835846Y-56047705D01*
X196828951Y-56031058D01*
X196741401Y-55900030D01*
X196629970Y-55788599D01*
X196498942Y-55701049D01*
X196482292Y-55694152D01*
X197205150Y-54971295D01*
X197022524Y-54846783D01*
X197022516Y-54846778D01*
X196779460Y-54729730D01*
X196779462Y-54729730D01*
X196521662Y-54650209D01*
X196521656Y-54650207D01*
X196254898Y-54610000D01*
X195985101Y-54610000D01*
X195734769Y-54647731D01*
X195665544Y-54638258D01*
X195612431Y-54592863D01*
X195592291Y-54525959D01*
X195611519Y-54458787D01*
X195617897Y-54449651D01*
X195652767Y-54404208D01*
X195775694Y-54191292D01*
X195869778Y-53964153D01*
X195933409Y-53726677D01*
X195965500Y-53482927D01*
X195965500Y-53237073D01*
X195933409Y-52993323D01*
X195869778Y-52755847D01*
X195775694Y-52528708D01*
X195652767Y-52315792D01*
X195511190Y-52131286D01*
X195503102Y-52120745D01*
X195503096Y-52120738D01*
X195329261Y-51946903D01*
X195329254Y-51946897D01*
X195134212Y-51797236D01*
X195134211Y-51797235D01*
X195134208Y-51797233D01*
X194921292Y-51674306D01*
X194921285Y-51674303D01*
X194694162Y-51580225D01*
X194694155Y-51580223D01*
X194694153Y-51580222D01*
X194456677Y-51516591D01*
X194415939Y-51511227D01*
X194212934Y-51484500D01*
X194212927Y-51484500D01*
X193967073Y-51484500D01*
X193967065Y-51484500D01*
X193735059Y-51515045D01*
X193723323Y-51516591D01*
X193485847Y-51580222D01*
X193485837Y-51580225D01*
X193258714Y-51674303D01*
X193258705Y-51674307D01*
X193045787Y-51797236D01*
X192850745Y-51946897D01*
X192850738Y-51946903D01*
X192676903Y-52120738D01*
X192676897Y-52120745D01*
X192527236Y-52315787D01*
X192404307Y-52528705D01*
X192404303Y-52528714D01*
X192310225Y-52755837D01*
X192310222Y-52755847D01*
X192261259Y-52938583D01*
X192246592Y-52993320D01*
X192246590Y-52993331D01*
X192214500Y-53237065D01*
X184535499Y-53237065D01*
X184503409Y-52993323D01*
X184439778Y-52755847D01*
X184345694Y-52528708D01*
X184222767Y-52315792D01*
X184081190Y-52131286D01*
X184073102Y-52120745D01*
X184073096Y-52120738D01*
X183899261Y-51946903D01*
X183899254Y-51946897D01*
X183704212Y-51797236D01*
X183704211Y-51797235D01*
X183704208Y-51797233D01*
X183491292Y-51674306D01*
X183491285Y-51674303D01*
X183264162Y-51580225D01*
X183264155Y-51580223D01*
X183264153Y-51580222D01*
X183026677Y-51516591D01*
X182985939Y-51511227D01*
X182782934Y-51484500D01*
X182782927Y-51484500D01*
X182537073Y-51484500D01*
X182537065Y-51484500D01*
X182305059Y-51515045D01*
X182293323Y-51516591D01*
X182055847Y-51580222D01*
X182055837Y-51580225D01*
X181828714Y-51674303D01*
X181828705Y-51674307D01*
X181615787Y-51797236D01*
X181420745Y-51946897D01*
X181420738Y-51946903D01*
X181246903Y-52120738D01*
X181246897Y-52120745D01*
X181097236Y-52315787D01*
X180974307Y-52528705D01*
X180974303Y-52528714D01*
X180880225Y-52755837D01*
X180880222Y-52755847D01*
X180831259Y-52938583D01*
X180816592Y-52993320D01*
X180816590Y-52993331D01*
X180784500Y-53237065D01*
X180784500Y-53482934D01*
X180811227Y-53685939D01*
X180816591Y-53726677D01*
X180837729Y-53805565D01*
X180880222Y-53964152D01*
X180880225Y-53964162D01*
X180974303Y-54191285D01*
X180974307Y-54191294D01*
X181097236Y-54404213D01*
X181132086Y-54449629D01*
X181157281Y-54514798D01*
X181143243Y-54583243D01*
X181094430Y-54633233D01*
X181026338Y-54648897D01*
X181015230Y-54647731D01*
X180764898Y-54610000D01*
X180495101Y-54610000D01*
X180228343Y-54650207D01*
X180228337Y-54650209D01*
X179970538Y-54729730D01*
X179727482Y-54846780D01*
X179727469Y-54846787D01*
X179544848Y-54971294D01*
X180267706Y-55694152D01*
X180251058Y-55701049D01*
X180120030Y-55788599D01*
X180008599Y-55900030D01*
X179921049Y-56031058D01*
X179914152Y-56047706D01*
X179192294Y-55325848D01*
X179138602Y-55393177D01*
X179003709Y-55626818D01*
X178905148Y-55877947D01*
X178905142Y-55877966D01*
X178845113Y-56140971D01*
X178845113Y-56140973D01*
X178824953Y-56409995D01*
X159710500Y-56409995D01*
X159710500Y-54190097D01*
X159730185Y-54123058D01*
X159746819Y-54102416D01*
X160712416Y-53136819D01*
X160773739Y-53103334D01*
X160800097Y-53100500D01*
X168599091Y-53100500D01*
X168666130Y-53120185D01*
X168711885Y-53172989D01*
X168716133Y-53183545D01*
X168774211Y-53349522D01*
X168870184Y-53502262D01*
X168997738Y-53629816D01*
X169150478Y-53725789D01*
X169320745Y-53785368D01*
X169320750Y-53785369D01*
X169499996Y-53805565D01*
X169500000Y-53805565D01*
X169500004Y-53805565D01*
X169679249Y-53785369D01*
X169679252Y-53785368D01*
X169679255Y-53785368D01*
X169849522Y-53725789D01*
X170002262Y-53629816D01*
X170129816Y-53502262D01*
X170225789Y-53349522D01*
X170285368Y-53179255D01*
X170286074Y-53172989D01*
X170305565Y-53000003D01*
X170305565Y-52999996D01*
X170285369Y-52820750D01*
X170285368Y-52820745D01*
X170225788Y-52650476D01*
X170186582Y-52588080D01*
X170129816Y-52497738D01*
X170002262Y-52370184D01*
X169915690Y-52315787D01*
X169849521Y-52274210D01*
X169679249Y-52214630D01*
X169592332Y-52204837D01*
X169527918Y-52177770D01*
X169518535Y-52169298D01*
X169480523Y-52131286D01*
X169480520Y-52131284D01*
X169368717Y-52019481D01*
X169368716Y-52019480D01*
X169281904Y-51969360D01*
X169281904Y-51969359D01*
X169281900Y-51969358D01*
X169231785Y-51940423D01*
X169079057Y-51899499D01*
X168920943Y-51899499D01*
X168913347Y-51899499D01*
X168913331Y-51899500D01*
X160586669Y-51899500D01*
X160586653Y-51899499D01*
X160579057Y-51899499D01*
X160420943Y-51899499D01*
X160313587Y-51928265D01*
X160268210Y-51940424D01*
X160268209Y-51940425D01*
X160218096Y-51969359D01*
X160218095Y-51969360D01*
X160174689Y-51994420D01*
X160131285Y-52019479D01*
X160131282Y-52019481D01*
X159212181Y-52938583D01*
X159150858Y-52972068D01*
X159081166Y-52967084D01*
X159025233Y-52925212D01*
X159000816Y-52859748D01*
X159000500Y-52850902D01*
X159000500Y-47822706D01*
X159000618Y-47817297D01*
X159005100Y-47714632D01*
X159017386Y-47433226D01*
X159018326Y-47422495D01*
X159068152Y-47044025D01*
X159070025Y-47033405D01*
X159121773Y-46799984D01*
X165099500Y-46799984D01*
X165099500Y-49200015D01*
X165110000Y-49302795D01*
X165110001Y-49302796D01*
X165165186Y-49469335D01*
X165165187Y-49469337D01*
X165257286Y-49618651D01*
X165257289Y-49618655D01*
X165381344Y-49742710D01*
X165381348Y-49742713D01*
X165530662Y-49834812D01*
X165530664Y-49834813D01*
X165530666Y-49834814D01*
X165697203Y-49889999D01*
X165799992Y-49900500D01*
X165799997Y-49900500D01*
X168200003Y-49900500D01*
X168200008Y-49900500D01*
X168302797Y-49889999D01*
X168469334Y-49834814D01*
X168618655Y-49742711D01*
X168742711Y-49618655D01*
X168834814Y-49469334D01*
X168889999Y-49302797D01*
X168900500Y-49200008D01*
X168900500Y-47999998D01*
X170095147Y-47999998D01*
X170095147Y-48000001D01*
X170114536Y-48271090D01*
X170114537Y-48271097D01*
X170172305Y-48536654D01*
X170267285Y-48791306D01*
X170267287Y-48791310D01*
X170397532Y-49029835D01*
X170397537Y-49029843D01*
X170491321Y-49155123D01*
X170491322Y-49155124D01*
X171398958Y-48247488D01*
X171423978Y-48307890D01*
X171495112Y-48414351D01*
X171585649Y-48504888D01*
X171692110Y-48576022D01*
X171752511Y-48601041D01*
X170844874Y-49508676D01*
X170970163Y-49602466D01*
X170970164Y-49602467D01*
X171208689Y-49732712D01*
X171208693Y-49732714D01*
X171463345Y-49827694D01*
X171728902Y-49885462D01*
X171728909Y-49885463D01*
X171999999Y-49904853D01*
X172000001Y-49904853D01*
X172271090Y-49885463D01*
X172271097Y-49885462D01*
X172536654Y-49827694D01*
X172791306Y-49732714D01*
X172791310Y-49732712D01*
X173029844Y-49602462D01*
X173155123Y-49508677D01*
X173155124Y-49508676D01*
X172946448Y-49300000D01*
X180194706Y-49300000D01*
X180213853Y-49543297D01*
X180213853Y-49543300D01*
X180213854Y-49543302D01*
X180261728Y-49742710D01*
X180270830Y-49780619D01*
X180364222Y-50006089D01*
X180491737Y-50214173D01*
X180491738Y-50214176D01*
X180491741Y-50214179D01*
X180650241Y-50399759D01*
X180793897Y-50522453D01*
X180835823Y-50558261D01*
X180835826Y-50558262D01*
X181043910Y-50685777D01*
X181269381Y-50779169D01*
X181269378Y-50779169D01*
X181269384Y-50779170D01*
X181269388Y-50779172D01*
X181506698Y-50836146D01*
X181750000Y-50855294D01*
X181993302Y-50836146D01*
X182230612Y-50779172D01*
X182456089Y-50685777D01*
X182664179Y-50558259D01*
X182849759Y-50399759D01*
X182925710Y-50310832D01*
X182984216Y-50272638D01*
X183054084Y-50272139D01*
X183113131Y-50309493D01*
X183114290Y-50310832D01*
X183190241Y-50399759D01*
X183301589Y-50494859D01*
X183375823Y-50558261D01*
X183375826Y-50558262D01*
X183583910Y-50685777D01*
X183809381Y-50779169D01*
X183809378Y-50779169D01*
X183809384Y-50779170D01*
X183809388Y-50779172D01*
X184046698Y-50836146D01*
X184290000Y-50855294D01*
X184533302Y-50836146D01*
X184770612Y-50779172D01*
X184996089Y-50685777D01*
X185204179Y-50558259D01*
X185389759Y-50399759D01*
X185548259Y-50214179D01*
X185675777Y-50006089D01*
X185769172Y-49780612D01*
X185826146Y-49543302D01*
X185845294Y-49300000D01*
X190904706Y-49300000D01*
X190923853Y-49543297D01*
X190923853Y-49543300D01*
X190923854Y-49543302D01*
X190971728Y-49742710D01*
X190980830Y-49780619D01*
X191074222Y-50006089D01*
X191201737Y-50214173D01*
X191201738Y-50214176D01*
X191201741Y-50214179D01*
X191360241Y-50399759D01*
X191503897Y-50522453D01*
X191545823Y-50558261D01*
X191545826Y-50558262D01*
X191753910Y-50685777D01*
X191979381Y-50779169D01*
X191979378Y-50779169D01*
X191979384Y-50779170D01*
X191979388Y-50779172D01*
X192216698Y-50836146D01*
X192460000Y-50855294D01*
X192703302Y-50836146D01*
X192940612Y-50779172D01*
X193166089Y-50685777D01*
X193374179Y-50558259D01*
X193559759Y-50399759D01*
X193635710Y-50310832D01*
X193694216Y-50272638D01*
X193764084Y-50272139D01*
X193823131Y-50309493D01*
X193824290Y-50310832D01*
X193900241Y-50399759D01*
X194011589Y-50494859D01*
X194085823Y-50558261D01*
X194085826Y-50558262D01*
X194293910Y-50685777D01*
X194519381Y-50779169D01*
X194519378Y-50779169D01*
X194519384Y-50779170D01*
X194519388Y-50779172D01*
X194756698Y-50836146D01*
X195000000Y-50855294D01*
X195243302Y-50836146D01*
X195480612Y-50779172D01*
X195706089Y-50685777D01*
X195914179Y-50558259D01*
X196099759Y-50399759D01*
X196258259Y-50214179D01*
X196385777Y-50006089D01*
X196479172Y-49780612D01*
X196536146Y-49543302D01*
X196555294Y-49300000D01*
X196536146Y-49056698D01*
X196479172Y-48819388D01*
X196467540Y-48791306D01*
X196385777Y-48593910D01*
X196258262Y-48385826D01*
X196258261Y-48385823D01*
X196208755Y-48327859D01*
X196099759Y-48200241D01*
X195977063Y-48095449D01*
X195914176Y-48041738D01*
X195914173Y-48041737D01*
X195706089Y-47914222D01*
X195480618Y-47820830D01*
X195480621Y-47820830D01*
X195286441Y-47774211D01*
X195243302Y-47763854D01*
X195243300Y-47763853D01*
X195243297Y-47763853D01*
X195000000Y-47744706D01*
X194756702Y-47763853D01*
X194756698Y-47763854D01*
X194534096Y-47817297D01*
X194519380Y-47820830D01*
X194293910Y-47914222D01*
X194085826Y-48041737D01*
X194085823Y-48041738D01*
X193900241Y-48200241D01*
X193824290Y-48289168D01*
X193765783Y-48327361D01*
X193695915Y-48327859D01*
X193636869Y-48290505D01*
X193635710Y-48289168D01*
X193617844Y-48268250D01*
X193559759Y-48200241D01*
X193437063Y-48095449D01*
X193374176Y-48041738D01*
X193374173Y-48041737D01*
X193166089Y-47914222D01*
X192940618Y-47820830D01*
X192940621Y-47820830D01*
X192746441Y-47774211D01*
X192703302Y-47763854D01*
X192703300Y-47763853D01*
X192703297Y-47763853D01*
X192460000Y-47744706D01*
X192216702Y-47763853D01*
X192216698Y-47763854D01*
X191994096Y-47817297D01*
X191979380Y-47820830D01*
X191753910Y-47914222D01*
X191545826Y-48041737D01*
X191545823Y-48041738D01*
X191360241Y-48200241D01*
X191201738Y-48385823D01*
X191201737Y-48385826D01*
X191074222Y-48593910D01*
X190980830Y-48819380D01*
X190923853Y-49056702D01*
X190904706Y-49300000D01*
X185845294Y-49300000D01*
X185826146Y-49056698D01*
X185769172Y-48819388D01*
X185757540Y-48791306D01*
X185675777Y-48593910D01*
X185548262Y-48385826D01*
X185548261Y-48385823D01*
X185498755Y-48327859D01*
X185389759Y-48200241D01*
X185267063Y-48095449D01*
X185204176Y-48041738D01*
X185204173Y-48041737D01*
X184996089Y-47914222D01*
X184770618Y-47820830D01*
X184770621Y-47820830D01*
X184576441Y-47774211D01*
X184533302Y-47763854D01*
X184533300Y-47763853D01*
X184533297Y-47763853D01*
X184290000Y-47744706D01*
X184046702Y-47763853D01*
X184046698Y-47763854D01*
X183824096Y-47817297D01*
X183809380Y-47820830D01*
X183583910Y-47914222D01*
X183375826Y-48041737D01*
X183375823Y-48041738D01*
X183190241Y-48200241D01*
X183114290Y-48289168D01*
X183055783Y-48327361D01*
X182985915Y-48327859D01*
X182926869Y-48290505D01*
X182925710Y-48289168D01*
X182907844Y-48268250D01*
X182849759Y-48200241D01*
X182727063Y-48095449D01*
X182664176Y-48041738D01*
X182664173Y-48041737D01*
X182456089Y-47914222D01*
X182230618Y-47820830D01*
X182230621Y-47820830D01*
X182036441Y-47774211D01*
X181993302Y-47763854D01*
X181993300Y-47763853D01*
X181993297Y-47763853D01*
X181750000Y-47744706D01*
X181506702Y-47763853D01*
X181506698Y-47763854D01*
X181284096Y-47817297D01*
X181269380Y-47820830D01*
X181043910Y-47914222D01*
X180835826Y-48041737D01*
X180835823Y-48041738D01*
X180650241Y-48200241D01*
X180491738Y-48385823D01*
X180491737Y-48385826D01*
X180364222Y-48593910D01*
X180270830Y-48819380D01*
X180213853Y-49056702D01*
X180194706Y-49300000D01*
X172946448Y-49300000D01*
X172247488Y-48601041D01*
X172307890Y-48576022D01*
X172414351Y-48504888D01*
X172504888Y-48414351D01*
X172576022Y-48307890D01*
X172601041Y-48247489D01*
X173508676Y-49155124D01*
X173508677Y-49155123D01*
X173602462Y-49029844D01*
X173732712Y-48791310D01*
X173732714Y-48791306D01*
X173827694Y-48536654D01*
X173885462Y-48271097D01*
X173885463Y-48271090D01*
X173904853Y-48000001D01*
X173904853Y-47999998D01*
X173885463Y-47728909D01*
X173885462Y-47728902D01*
X173827694Y-47463345D01*
X173732714Y-47208693D01*
X173732712Y-47208689D01*
X173602467Y-46970164D01*
X173602466Y-46970163D01*
X173508676Y-46844874D01*
X172601041Y-47752510D01*
X172576022Y-47692110D01*
X172504888Y-47585649D01*
X172414351Y-47495112D01*
X172307890Y-47423978D01*
X172247487Y-47398957D01*
X173155124Y-46491322D01*
X173155123Y-46491321D01*
X173029843Y-46397537D01*
X173029835Y-46397532D01*
X172791310Y-46267287D01*
X172791306Y-46267285D01*
X172536654Y-46172305D01*
X172271097Y-46114537D01*
X172271090Y-46114536D01*
X172000001Y-46095147D01*
X171999999Y-46095147D01*
X171728909Y-46114536D01*
X171728902Y-46114537D01*
X171463345Y-46172305D01*
X171208693Y-46267285D01*
X171208689Y-46267287D01*
X170970164Y-46397532D01*
X170970156Y-46397537D01*
X170844875Y-46491321D01*
X170844874Y-46491322D01*
X171752511Y-47398958D01*
X171692110Y-47423978D01*
X171585649Y-47495112D01*
X171495112Y-47585649D01*
X171423978Y-47692110D01*
X171398958Y-47752511D01*
X170491322Y-46844874D01*
X170491321Y-46844875D01*
X170397537Y-46970156D01*
X170397532Y-46970164D01*
X170267287Y-47208689D01*
X170267285Y-47208693D01*
X170172305Y-47463345D01*
X170114537Y-47728902D01*
X170114536Y-47728909D01*
X170095147Y-47999998D01*
X168900500Y-47999998D01*
X168900500Y-46799992D01*
X168889999Y-46697203D01*
X168834814Y-46530666D01*
X168810546Y-46491322D01*
X168742713Y-46381348D01*
X168742710Y-46381344D01*
X168618655Y-46257289D01*
X168618651Y-46257286D01*
X168469337Y-46165187D01*
X168469335Y-46165186D01*
X168386065Y-46137593D01*
X168302797Y-46110001D01*
X168302795Y-46110000D01*
X168200015Y-46099500D01*
X168200008Y-46099500D01*
X165799992Y-46099500D01*
X165799984Y-46099500D01*
X165697204Y-46110000D01*
X165697203Y-46110001D01*
X165530664Y-46165186D01*
X165530662Y-46165187D01*
X165381348Y-46257286D01*
X165381344Y-46257289D01*
X165257289Y-46381344D01*
X165257286Y-46381348D01*
X165165187Y-46530662D01*
X165165186Y-46530664D01*
X165110001Y-46697203D01*
X165110000Y-46697204D01*
X165099500Y-46799984D01*
X159121773Y-46799984D01*
X159152649Y-46660709D01*
X159155440Y-46650295D01*
X159270230Y-46286227D01*
X159273917Y-46276095D01*
X159420003Y-45923412D01*
X159424561Y-45913638D01*
X159600822Y-45575045D01*
X159606217Y-45565700D01*
X159648083Y-45499983D01*
X202649500Y-45499983D01*
X202649500Y-47100001D01*
X202649501Y-47100018D01*
X202660000Y-47202796D01*
X202660001Y-47202799D01*
X202694031Y-47305493D01*
X202715186Y-47369334D01*
X202807288Y-47518656D01*
X202931344Y-47642712D01*
X203080666Y-47734814D01*
X203247203Y-47789999D01*
X203349991Y-47800500D01*
X204650008Y-47800499D01*
X204752797Y-47789999D01*
X204919334Y-47734814D01*
X205068656Y-47642712D01*
X205192712Y-47518656D01*
X205284814Y-47369334D01*
X205284814Y-47369331D01*
X205288448Y-47363441D01*
X205340395Y-47316716D01*
X205409358Y-47305493D01*
X205473440Y-47333336D01*
X205481668Y-47340856D01*
X205620535Y-47479723D01*
X205620540Y-47479727D01*
X205792442Y-47604620D01*
X205981782Y-47701095D01*
X206183871Y-47766757D01*
X206250000Y-47777231D01*
X206250000Y-46733012D01*
X206307007Y-46765925D01*
X206434174Y-46800000D01*
X206565826Y-46800000D01*
X206692993Y-46765925D01*
X206750000Y-46733012D01*
X206750000Y-47777230D01*
X206816126Y-47766757D01*
X206816129Y-47766757D01*
X207018217Y-47701095D01*
X207207557Y-47604620D01*
X207379459Y-47479727D01*
X207379464Y-47479723D01*
X207529723Y-47329464D01*
X207529727Y-47329459D01*
X207654620Y-47157557D01*
X207751095Y-46968217D01*
X207816757Y-46766130D01*
X207816757Y-46766127D01*
X207850000Y-46556246D01*
X207850000Y-46550000D01*
X206933012Y-46550000D01*
X206965925Y-46492993D01*
X207000000Y-46365826D01*
X207000000Y-46234174D01*
X206965925Y-46107007D01*
X206933012Y-46050000D01*
X207850000Y-46050000D01*
X207850000Y-46043753D01*
X207816757Y-45833872D01*
X207816757Y-45833869D01*
X207751095Y-45631782D01*
X207654620Y-45442442D01*
X207529727Y-45270540D01*
X207529723Y-45270535D01*
X207379464Y-45120276D01*
X207379459Y-45120272D01*
X207207557Y-44995379D01*
X207018215Y-44898903D01*
X206816124Y-44833241D01*
X206750000Y-44822768D01*
X206750000Y-45866988D01*
X206692993Y-45834075D01*
X206565826Y-45800000D01*
X206434174Y-45800000D01*
X206307007Y-45834075D01*
X206250000Y-45866988D01*
X206250000Y-44822768D01*
X206249999Y-44822768D01*
X206183875Y-44833241D01*
X205981784Y-44898903D01*
X205792442Y-44995379D01*
X205620541Y-45120271D01*
X205481668Y-45259144D01*
X205420345Y-45292628D01*
X205350653Y-45287644D01*
X205294720Y-45245772D01*
X205288448Y-45236558D01*
X205192712Y-45081344D01*
X205068657Y-44957289D01*
X205068656Y-44957288D01*
X204919334Y-44865186D01*
X204752797Y-44810001D01*
X204752795Y-44810000D01*
X204650010Y-44799500D01*
X203349998Y-44799500D01*
X203349981Y-44799501D01*
X203247203Y-44810000D01*
X203247200Y-44810001D01*
X203080668Y-44865185D01*
X203080663Y-44865187D01*
X202931342Y-44957289D01*
X202807289Y-45081342D01*
X202715187Y-45230663D01*
X202715185Y-45230668D01*
X202710180Y-45245772D01*
X202660001Y-45397203D01*
X202660001Y-45397204D01*
X202660000Y-45397204D01*
X202649500Y-45499983D01*
X159648083Y-45499983D01*
X159811325Y-45243744D01*
X159817515Y-45234905D01*
X160049896Y-44932060D01*
X160056834Y-44923791D01*
X160314726Y-44642352D01*
X160322352Y-44634726D01*
X160603791Y-44376834D01*
X160612060Y-44369896D01*
X160914905Y-44137515D01*
X160923744Y-44131325D01*
X161245700Y-43926217D01*
X161255045Y-43920822D01*
X161593638Y-43744561D01*
X161603412Y-43740003D01*
X161956095Y-43593917D01*
X161966227Y-43590230D01*
X162330295Y-43475440D01*
X162340709Y-43472649D01*
X162713405Y-43390025D01*
X162724025Y-43388152D01*
X163102495Y-43338326D01*
X163113226Y-43337386D01*
X163497297Y-43320617D01*
X163502706Y-43320500D01*
X163565892Y-43320500D01*
X208034108Y-43320500D01*
X208097294Y-43320500D01*
X208102702Y-43320617D01*
G37*
%TD.AperFunction*%
%TA.AperFunction,Conductor*%
G36*
X210334075Y-118247007D02*
G01*
X210300000Y-118374174D01*
X210300000Y-118505826D01*
X210334075Y-118632993D01*
X210366988Y-118690000D01*
X208693012Y-118690000D01*
X208725925Y-118632993D01*
X208760000Y-118505826D01*
X208760000Y-118374174D01*
X208725925Y-118247007D01*
X208693012Y-118190000D01*
X210366988Y-118190000D01*
X210334075Y-118247007D01*
G37*
%TD.AperFunction*%
%TA.AperFunction,Conductor*%
G36*
X208510000Y-118006988D02*
G01*
X208452993Y-117974075D01*
X208325826Y-117940000D01*
X208194174Y-117940000D01*
X208067007Y-117974075D01*
X208010000Y-118006988D01*
X208010000Y-116333012D01*
X208067007Y-116365925D01*
X208194174Y-116400000D01*
X208325826Y-116400000D01*
X208452993Y-116365925D01*
X208510000Y-116333012D01*
X208510000Y-118006988D01*
G37*
%TD.AperFunction*%
%TA.AperFunction,Conductor*%
G36*
X211050000Y-118006988D02*
G01*
X210992993Y-117974075D01*
X210865826Y-117940000D01*
X210734174Y-117940000D01*
X210607007Y-117974075D01*
X210550000Y-118006988D01*
X210550000Y-116333012D01*
X210607007Y-116365925D01*
X210734174Y-116400000D01*
X210865826Y-116400000D01*
X210992993Y-116365925D01*
X211050000Y-116333012D01*
X211050000Y-118006988D01*
G37*
%TD.AperFunction*%
%TA.AperFunction,Conductor*%
G36*
X210334075Y-115707007D02*
G01*
X210300000Y-115834174D01*
X210300000Y-115965826D01*
X210334075Y-116092993D01*
X210366988Y-116150000D01*
X208693012Y-116150000D01*
X208725925Y-116092993D01*
X208760000Y-115965826D01*
X208760000Y-115834174D01*
X208725925Y-115707007D01*
X208693012Y-115650000D01*
X210366988Y-115650000D01*
X210334075Y-115707007D01*
G37*
%TD.AperFunction*%
%TA.AperFunction,Conductor*%
G36*
X184759347Y-85795185D02*
G01*
X184805102Y-85847989D01*
X184815046Y-85917147D01*
X184797302Y-85965472D01*
X184722211Y-86084977D01*
X184662631Y-86255245D01*
X184662630Y-86255250D01*
X184642435Y-86434496D01*
X184642435Y-86434503D01*
X184662630Y-86613749D01*
X184662631Y-86613754D01*
X184722211Y-86784023D01*
X184747868Y-86824855D01*
X184815610Y-86932666D01*
X184818185Y-86936763D01*
X184820445Y-86939597D01*
X184821334Y-86941775D01*
X184821889Y-86942658D01*
X184821734Y-86942755D01*
X184846855Y-87004283D01*
X184847500Y-87016912D01*
X184847500Y-87628182D01*
X184847493Y-87714425D01*
X184847495Y-87714440D01*
X184866065Y-87783742D01*
X184866067Y-87783750D01*
X184888412Y-87867164D01*
X184888422Y-87867181D01*
X184888423Y-87867184D01*
X184928838Y-87937186D01*
X184928841Y-87937192D01*
X184967456Y-88004085D01*
X184967478Y-88004114D01*
X184967479Y-88004115D01*
X184967480Y-88004116D01*
X185027819Y-88064455D01*
X186276287Y-89313088D01*
X186309768Y-89374412D01*
X186304779Y-89444103D01*
X186290107Y-89470022D01*
X186290684Y-89470384D01*
X186191006Y-89629018D01*
X186131426Y-89799287D01*
X186131425Y-89799292D01*
X186111230Y-89978538D01*
X186111230Y-89978545D01*
X186131425Y-90157791D01*
X186131426Y-90157796D01*
X186191006Y-90328065D01*
X186226649Y-90384790D01*
X186286979Y-90480804D01*
X186414533Y-90608358D01*
X186567273Y-90704331D01*
X186737540Y-90763910D01*
X186824464Y-90773703D01*
X186888875Y-90800768D01*
X186898258Y-90809240D01*
X187072037Y-90983020D01*
X187072039Y-90983021D01*
X187072043Y-90983024D01*
X187125114Y-91013664D01*
X187208969Y-91062077D01*
X187361696Y-91103001D01*
X187361698Y-91103001D01*
X187527407Y-91103001D01*
X187527423Y-91103000D01*
X187911842Y-91103000D01*
X187912800Y-91103062D01*
X187920371Y-91103056D01*
X187920373Y-91103057D01*
X188000130Y-91103000D01*
X188078057Y-91103000D01*
X188078058Y-91103000D01*
X188078479Y-91102944D01*
X188078487Y-91102944D01*
X188155267Y-91082311D01*
X188230784Y-91062077D01*
X188230789Y-91062073D01*
X188231173Y-91061914D01*
X188231185Y-91061911D01*
X188299166Y-91022596D01*
X188299167Y-91022599D01*
X188299216Y-91022567D01*
X188367716Y-90983020D01*
X188367720Y-90983015D01*
X188368053Y-90982760D01*
X188368055Y-90982757D01*
X188368060Y-90982755D01*
X188423207Y-90927528D01*
X188423208Y-90927527D01*
X188423221Y-90927540D01*
X188423270Y-90927464D01*
X188479520Y-90871216D01*
X188479520Y-90871215D01*
X188484927Y-90865809D01*
X188485563Y-90865082D01*
X188772239Y-90577996D01*
X188828520Y-90521716D01*
X188828524Y-90521708D01*
X188828705Y-90521473D01*
X188828777Y-90521377D01*
X188828783Y-90521372D01*
X188867750Y-90453764D01*
X188867815Y-90453702D01*
X188867794Y-90453690D01*
X188888425Y-90417955D01*
X188907577Y-90384784D01*
X188907579Y-90384774D01*
X188907635Y-90384641D01*
X188907736Y-90384393D01*
X188907742Y-90384384D01*
X188928126Y-90308091D01*
X188948500Y-90232057D01*
X188948500Y-90232052D01*
X188948555Y-90231633D01*
X188948557Y-90231628D01*
X188948500Y-90151870D01*
X188948500Y-89754929D01*
X188968185Y-89687890D01*
X189020989Y-89642135D01*
X189090147Y-89632191D01*
X189153703Y-89661216D01*
X189160179Y-89667246D01*
X189365087Y-89872169D01*
X189706297Y-90213404D01*
X189739780Y-90274728D01*
X189741833Y-90287198D01*
X189751630Y-90374149D01*
X189811210Y-90544421D01*
X189866055Y-90631706D01*
X189907184Y-90697162D01*
X190034738Y-90824716D01*
X190187478Y-90920689D01*
X190316453Y-90965819D01*
X190373229Y-91006541D01*
X190398977Y-91071493D01*
X190399499Y-91082861D01*
X190399499Y-91089046D01*
X190399500Y-91089059D01*
X190399500Y-91699903D01*
X190379815Y-91766942D01*
X190363181Y-91787584D01*
X187537584Y-94613181D01*
X187476261Y-94646666D01*
X187449903Y-94649500D01*
X178550097Y-94649500D01*
X178483058Y-94629815D01*
X178462416Y-94613181D01*
X177830700Y-93981465D01*
X177797215Y-93920142D01*
X177795163Y-93907686D01*
X177785368Y-93820745D01*
X177725789Y-93650478D01*
X177631235Y-93499996D01*
X180194435Y-93499996D01*
X180194435Y-93500003D01*
X180214630Y-93679249D01*
X180214631Y-93679254D01*
X180274211Y-93849523D01*
X180357116Y-93981465D01*
X180370184Y-94002262D01*
X180497738Y-94129816D01*
X180576410Y-94179249D01*
X180631771Y-94214035D01*
X180650478Y-94225789D01*
X180756827Y-94263002D01*
X180820745Y-94285368D01*
X180820750Y-94285369D01*
X180999996Y-94305565D01*
X181000000Y-94305565D01*
X181000004Y-94305565D01*
X181179249Y-94285369D01*
X181179252Y-94285368D01*
X181179255Y-94285368D01*
X181349522Y-94225789D01*
X181502262Y-94129816D01*
X181629816Y-94002262D01*
X181725789Y-93849522D01*
X181785368Y-93679255D01*
X181785845Y-93675023D01*
X181805565Y-93500003D01*
X181805565Y-93499996D01*
X181785369Y-93320750D01*
X181785368Y-93320745D01*
X181725788Y-93150476D01*
X181629815Y-92997737D01*
X181502262Y-92870184D01*
X181349523Y-92774211D01*
X181179254Y-92714631D01*
X181179249Y-92714630D01*
X181000004Y-92694435D01*
X180999996Y-92694435D01*
X180820750Y-92714630D01*
X180820745Y-92714631D01*
X180650476Y-92774211D01*
X180497737Y-92870184D01*
X180370184Y-92997737D01*
X180274211Y-93150476D01*
X180214631Y-93320745D01*
X180214630Y-93320750D01*
X180194435Y-93499996D01*
X177631235Y-93499996D01*
X177629816Y-93497738D01*
X177502262Y-93370184D01*
X177458463Y-93342663D01*
X177349523Y-93274211D01*
X177179254Y-93214631D01*
X177179249Y-93214630D01*
X177000004Y-93194435D01*
X176999996Y-93194435D01*
X176820750Y-93214630D01*
X176820745Y-93214631D01*
X176650476Y-93274211D01*
X176497737Y-93370184D01*
X176370184Y-93497737D01*
X176274211Y-93650476D01*
X176214631Y-93820745D01*
X176214630Y-93820750D01*
X176194435Y-93999996D01*
X176194435Y-94000003D01*
X176214630Y-94179249D01*
X176214631Y-94179254D01*
X176274211Y-94349523D01*
X176370184Y-94502262D01*
X176497738Y-94629816D01*
X176650478Y-94725789D01*
X176820745Y-94785368D01*
X176907669Y-94795161D01*
X176972080Y-94822226D01*
X176981465Y-94830700D01*
X177765139Y-95614374D01*
X177765149Y-95614385D01*
X177769479Y-95618715D01*
X177769480Y-95618716D01*
X177881284Y-95730520D01*
X177968095Y-95780639D01*
X177968097Y-95780641D01*
X178006151Y-95802611D01*
X178018215Y-95809577D01*
X178170943Y-95850501D01*
X178170946Y-95850501D01*
X178336653Y-95850501D01*
X178336669Y-95850500D01*
X186000903Y-95850500D01*
X186067942Y-95870185D01*
X186113697Y-95922989D01*
X186123641Y-95992147D01*
X186094616Y-96055703D01*
X186088586Y-96062178D01*
X185572060Y-96578704D01*
X185108286Y-97042478D01*
X184996481Y-97154282D01*
X184996479Y-97154284D01*
X184974702Y-97192004D01*
X184965497Y-97207949D01*
X184917423Y-97291215D01*
X184876499Y-97443943D01*
X184876499Y-97443945D01*
X184876499Y-97612046D01*
X184876500Y-97612059D01*
X184876500Y-97664987D01*
X184856815Y-97732026D01*
X184849450Y-97742296D01*
X184847186Y-97745134D01*
X184751211Y-97897876D01*
X184691631Y-98068145D01*
X184691630Y-98068150D01*
X184671435Y-98247396D01*
X184671435Y-98247403D01*
X184691630Y-98426649D01*
X184691631Y-98426654D01*
X184751211Y-98596923D01*
X184847184Y-98749662D01*
X184973447Y-98875925D01*
X185006932Y-98937248D01*
X185001948Y-99006940D01*
X184973447Y-99051287D01*
X183748931Y-100275803D01*
X183687608Y-100309288D01*
X183617916Y-100304304D01*
X183573569Y-100275803D01*
X183564397Y-100266631D01*
X183564374Y-100266610D01*
X181778074Y-98480310D01*
X181748713Y-98433583D01*
X181746288Y-98426654D01*
X181725789Y-98368068D01*
X181717837Y-98355413D01*
X181663449Y-98268855D01*
X181629816Y-98215328D01*
X181502262Y-98087774D01*
X181471023Y-98068145D01*
X181349523Y-97991801D01*
X181179254Y-97932221D01*
X181179249Y-97932220D01*
X181000004Y-97912025D01*
X180999996Y-97912025D01*
X180820750Y-97932220D01*
X180820745Y-97932221D01*
X180650476Y-97991801D01*
X180497737Y-98087774D01*
X180370184Y-98215327D01*
X180274211Y-98368066D01*
X180214631Y-98538335D01*
X180214630Y-98538340D01*
X180194435Y-98717586D01*
X180194435Y-98717593D01*
X180214630Y-98896839D01*
X180214631Y-98896844D01*
X180274211Y-99067113D01*
X180333045Y-99160746D01*
X180370184Y-99219852D01*
X180497738Y-99347406D01*
X180549317Y-99379815D01*
X180645773Y-99440423D01*
X180650478Y-99443379D01*
X180772182Y-99485965D01*
X180820745Y-99502958D01*
X180820750Y-99502959D01*
X180999997Y-99523155D01*
X181000000Y-99523155D01*
X181000001Y-99523155D01*
X181011823Y-99521822D01*
X181050709Y-99517441D01*
X181119530Y-99529495D01*
X181152274Y-99552980D01*
X181287113Y-99687819D01*
X181320598Y-99749142D01*
X181315614Y-99818834D01*
X181273742Y-99874767D01*
X181208278Y-99899184D01*
X181199432Y-99899500D01*
X172108213Y-99899500D01*
X172041174Y-99879815D01*
X171995419Y-99827011D01*
X171985475Y-99757853D01*
X172003219Y-99709529D01*
X172015787Y-99689525D01*
X172015786Y-99689525D01*
X172015789Y-99689522D01*
X172075368Y-99519255D01*
X172075369Y-99519249D01*
X172095565Y-99340003D01*
X172095565Y-99339996D01*
X172075368Y-99160746D01*
X172075368Y-99160745D01*
X172072458Y-99152427D01*
X172065500Y-99111474D01*
X172065500Y-94082584D01*
X172085185Y-94015545D01*
X172101819Y-93994903D01*
X180284904Y-85811819D01*
X180346227Y-85778334D01*
X180372585Y-85775500D01*
X184692308Y-85775500D01*
X184759347Y-85795185D01*
G37*
%TD.AperFunction*%
%TA.AperFunction,Conductor*%
G36*
X162334075Y-62417007D02*
G01*
X162300000Y-62544174D01*
X162300000Y-62675826D01*
X162334075Y-62802993D01*
X162366988Y-62860000D01*
X160693012Y-62860000D01*
X160725925Y-62802993D01*
X160760000Y-62675826D01*
X160760000Y-62544174D01*
X160725925Y-62417007D01*
X160693012Y-62360000D01*
X162366988Y-62360000D01*
X162334075Y-62417007D01*
G37*
%TD.AperFunction*%
%TA.AperFunction,Conductor*%
G36*
X210334075Y-62367007D02*
G01*
X210300000Y-62494174D01*
X210300000Y-62625826D01*
X210334075Y-62752993D01*
X210366988Y-62810000D01*
X208693012Y-62810000D01*
X208725925Y-62752993D01*
X208760000Y-62625826D01*
X208760000Y-62494174D01*
X208725925Y-62367007D01*
X208693012Y-62310000D01*
X210366988Y-62310000D01*
X210334075Y-62367007D01*
G37*
%TD.AperFunction*%
%TD*%
M02*
