%TF.GenerationSoftware,KiCad,Pcbnew,8.0.8*%
%TF.CreationDate,2025-05-06T17:48:01+03:00*%
%TF.ProjectId,s0-base-board,73302d62-6173-4652-9d62-6f6172642e6b,rev?*%
%TF.SameCoordinates,Original*%
%TF.FileFunction,Legend,Bot*%
%TF.FilePolarity,Positive*%
%FSLAX46Y46*%
G04 Gerber Fmt 4.6, Leading zero omitted, Abs format (unit mm)*
G04 Created by KiCad (PCBNEW 8.0.8) date 2025-05-06 17:48:01*
%MOMM*%
%LPD*%
G01*
G04 APERTURE LIST*
G04 Aperture macros list*
%AMRoundRect*
0 Rectangle with rounded corners*
0 $1 Rounding radius*
0 $2 $3 $4 $5 $6 $7 $8 $9 X,Y pos of 4 corners*
0 Add a 4 corners polygon primitive as box body*
4,1,4,$2,$3,$4,$5,$6,$7,$8,$9,$2,$3,0*
0 Add four circle primitives for the rounded corners*
1,1,$1+$1,$2,$3*
1,1,$1+$1,$4,$5*
1,1,$1+$1,$6,$7*
1,1,$1+$1,$8,$9*
0 Add four rect primitives between the rounded corners*
20,1,$1+$1,$2,$3,$4,$5,0*
20,1,$1+$1,$4,$5,$6,$7,0*
20,1,$1+$1,$6,$7,$8,$9,0*
20,1,$1+$1,$8,$9,$2,$3,0*%
G04 Aperture macros list end*
%ADD10C,0.000000*%
%ADD11R,1.700000X1.700000*%
%ADD12O,1.700000X1.700000*%
%ADD13RoundRect,0.250000X-0.600000X-0.750000X0.600000X-0.750000X0.600000X0.750000X-0.600000X0.750000X0*%
%ADD14O,1.700000X2.000000*%
%ADD15C,3.250000*%
%ADD16R,1.900000X1.900000*%
%ADD17C,1.900000*%
%ADD18C,2.100000*%
%ADD19C,2.600000*%
%ADD20RoundRect,0.250001X-1.149999X-1.149999X1.149999X-1.149999X1.149999X1.149999X-1.149999X1.149999X0*%
%ADD21C,2.800000*%
G04 APERTURE END LIST*
D10*
%TO.C,G\u002A\u002A\u002A*%
G36*
X180950152Y-95998684D02*
G01*
X180950152Y-96337350D01*
X179668057Y-96337350D01*
X178385962Y-96337350D01*
X178385962Y-95998684D01*
X178385962Y-95660017D01*
X179668057Y-95660017D01*
X180950152Y-95660017D01*
X180950152Y-95998684D01*
G37*
G36*
X179281009Y-85185541D02*
G01*
X179281009Y-85306493D01*
X179172152Y-85306493D01*
X179063295Y-85306493D01*
X179063295Y-85185541D01*
X179063295Y-85064588D01*
X179172152Y-85064588D01*
X179281009Y-85064588D01*
X179281009Y-85185541D01*
G37*
G36*
X179281009Y-86165255D02*
G01*
X179281009Y-86878874D01*
X179172152Y-86878874D01*
X179063295Y-86878874D01*
X179063295Y-86165255D01*
X179063295Y-85451636D01*
X179172152Y-85451636D01*
X179281009Y-85451636D01*
X179281009Y-86165255D01*
G37*
G36*
X180490533Y-91596017D02*
G01*
X180490533Y-91692779D01*
X180393771Y-91692779D01*
X180297009Y-91692779D01*
X180297009Y-91596017D01*
X180297009Y-91499255D01*
X180393771Y-91499255D01*
X180490533Y-91499255D01*
X180490533Y-91596017D01*
G37*
G36*
X183006343Y-95998684D02*
G01*
X183006343Y-96337350D01*
X182667676Y-96337350D01*
X182329009Y-96337350D01*
X182329009Y-95998684D01*
X182329009Y-95660017D01*
X182667676Y-95660017D01*
X183006343Y-95660017D01*
X183006343Y-95998684D01*
G37*
G36*
X187118724Y-95998885D02*
G01*
X187118724Y-96337753D01*
X185758009Y-96331504D01*
X184397295Y-96325255D01*
X184390565Y-95992636D01*
X184383835Y-95660017D01*
X185751279Y-95660017D01*
X187118724Y-95660017D01*
X187118724Y-95998885D01*
G37*
G36*
X187215486Y-104296017D02*
G01*
X187215486Y-104683064D01*
X185848724Y-104683064D01*
X184481962Y-104683064D01*
X184481962Y-104296017D01*
X184481962Y-103908969D01*
X185848724Y-103908969D01*
X187215486Y-103908969D01*
X187215486Y-104296017D01*
G37*
G36*
X189174914Y-95998684D02*
G01*
X189174914Y-96337350D01*
X188848343Y-96337350D01*
X188521771Y-96337350D01*
X188521771Y-95998684D01*
X188521771Y-95660017D01*
X188848343Y-95660017D01*
X189174914Y-95660017D01*
X189174914Y-95998684D01*
G37*
G36*
X189223295Y-91596017D02*
G01*
X189223295Y-91692779D01*
X189126533Y-91692779D01*
X189029771Y-91692779D01*
X189029771Y-91596017D01*
X189029771Y-91499255D01*
X189126533Y-91499255D01*
X189223295Y-91499255D01*
X189223295Y-91596017D01*
G37*
G36*
X193287295Y-95998684D02*
G01*
X193287295Y-96337350D01*
X191932629Y-96337350D01*
X190577962Y-96337350D01*
X190577962Y-95998684D01*
X190577962Y-95660017D01*
X191932629Y-95660017D01*
X193287295Y-95660017D01*
X193287295Y-95998684D01*
G37*
G36*
X192464819Y-103642874D02*
G01*
X192464819Y-104247636D01*
X191896343Y-104247636D01*
X191327867Y-104247636D01*
X191327867Y-103642874D01*
X191327867Y-103038112D01*
X191896343Y-103038112D01*
X192464819Y-103038112D01*
X192464819Y-103642874D01*
G37*
G36*
X190780204Y-85443686D02*
G01*
X190828714Y-85447341D01*
X190911371Y-85470478D01*
X190991871Y-85523445D01*
X191085962Y-85599059D01*
X191085962Y-85525347D01*
X191086587Y-85496974D01*
X191096192Y-85465856D01*
X191127891Y-85453708D01*
X191194819Y-85451636D01*
X191303676Y-85451636D01*
X191303676Y-86165255D01*
X191303676Y-86878874D01*
X191194819Y-86878874D01*
X191085962Y-86878874D01*
X191085962Y-86360635D01*
X191085962Y-85842396D01*
X191023931Y-85768676D01*
X190940762Y-85701184D01*
X190831541Y-85661905D01*
X190718819Y-85661741D01*
X190647612Y-85675982D01*
X190655120Y-85557761D01*
X190662629Y-85439541D01*
X190780204Y-85443686D01*
G37*
G36*
X176185144Y-70060445D02*
G01*
X176185185Y-70103057D01*
X176185903Y-70322487D01*
X176187444Y-70582398D01*
X176189738Y-70876336D01*
X176192714Y-71197842D01*
X176196301Y-71540463D01*
X176200429Y-71897740D01*
X176205029Y-72263219D01*
X176210029Y-72630443D01*
X176215359Y-72992956D01*
X176220949Y-73344303D01*
X176223801Y-73525652D01*
X176228644Y-73876871D01*
X176233262Y-74265816D01*
X176237607Y-74685710D01*
X176241630Y-75129774D01*
X176245284Y-75591231D01*
X176248519Y-76063303D01*
X176251287Y-76539214D01*
X176253539Y-77012185D01*
X176255228Y-77475438D01*
X176256304Y-77922197D01*
X176256719Y-78345684D01*
X176257200Y-81218303D01*
X175495200Y-81218303D01*
X174733200Y-81218303D01*
X174733200Y-75061826D01*
X174733200Y-68905350D01*
X175458914Y-68905350D01*
X176184629Y-68905350D01*
X176185144Y-70060445D01*
G37*
G36*
X181651676Y-90967064D02*
G01*
X181651676Y-91692779D01*
X181567009Y-91692779D01*
X181482343Y-91692779D01*
X181482252Y-91335969D01*
X181481887Y-91228310D01*
X181479778Y-91115225D01*
X181474886Y-91034841D01*
X181466193Y-90978077D01*
X181452684Y-90935852D01*
X181433342Y-90899085D01*
X181368148Y-90824385D01*
X181280444Y-90775519D01*
X181185805Y-90760537D01*
X181096055Y-90781167D01*
X181023019Y-90839136D01*
X181017214Y-90846765D01*
X181000546Y-90874677D01*
X180988829Y-90910693D01*
X180981207Y-90962870D01*
X180976823Y-91039260D01*
X180974820Y-91147918D01*
X180974343Y-91296898D01*
X180974343Y-91692779D01*
X180901771Y-91692779D01*
X180829200Y-91692779D01*
X180829200Y-91245637D01*
X180829200Y-90798494D01*
X180895724Y-90724048D01*
X180971858Y-90666203D01*
X181079021Y-90632215D01*
X181196508Y-90630433D01*
X181310715Y-90660871D01*
X181408039Y-90723541D01*
X181482343Y-90792952D01*
X181482343Y-90517151D01*
X181482343Y-90241350D01*
X181567009Y-90241350D01*
X181651676Y-90241350D01*
X181651676Y-90967064D01*
G37*
G36*
X180780819Y-85874969D02*
G01*
X180780819Y-86878874D01*
X180671962Y-86878874D01*
X180563105Y-86878874D01*
X180563105Y-86355933D01*
X180563105Y-85832992D01*
X180471435Y-85741321D01*
X180419087Y-85696249D01*
X180304623Y-85638621D01*
X180183526Y-85626352D01*
X180062354Y-85660736D01*
X180061383Y-85661212D01*
X180016338Y-85687029D01*
X179981350Y-85718958D01*
X179955145Y-85763036D01*
X179936452Y-85825297D01*
X179923996Y-85911780D01*
X179916506Y-86028521D01*
X179912707Y-86181556D01*
X179911327Y-86376922D01*
X179909962Y-86878874D01*
X179801105Y-86878874D01*
X179692248Y-86878874D01*
X179692248Y-86343442D01*
X179692798Y-86213509D01*
X179695949Y-86029800D01*
X179701739Y-85882624D01*
X179709992Y-85775915D01*
X179720532Y-85713606D01*
X179763023Y-85621166D01*
X179846296Y-85530121D01*
X179954976Y-85468379D01*
X180080494Y-85437788D01*
X180214282Y-85440197D01*
X180347770Y-85477454D01*
X180472390Y-85551408D01*
X180563105Y-85623249D01*
X180563105Y-85247157D01*
X180563105Y-84871064D01*
X180671962Y-84871064D01*
X180780819Y-84871064D01*
X180780819Y-85874969D01*
G37*
G36*
X178192438Y-91023963D02*
G01*
X178192462Y-91066742D01*
X178193255Y-91198552D01*
X178195976Y-91293214D01*
X178201706Y-91359587D01*
X178211526Y-91406527D01*
X178226514Y-91442890D01*
X178247751Y-91477535D01*
X178276768Y-91514367D01*
X178363906Y-91579190D01*
X178464344Y-91604274D01*
X178566716Y-91585762D01*
X178573207Y-91582933D01*
X178634705Y-91545206D01*
X178674300Y-91502893D01*
X178677659Y-91494083D01*
X178687047Y-91436728D01*
X178694230Y-91339734D01*
X178698822Y-91209725D01*
X178700438Y-91053321D01*
X178700438Y-90652588D01*
X178773009Y-90652588D01*
X178845581Y-90652588D01*
X178845581Y-91106825D01*
X178845339Y-91220098D01*
X178843164Y-91368214D01*
X178837272Y-91478872D01*
X178825926Y-91558820D01*
X178807390Y-91614801D01*
X178779929Y-91653562D01*
X178741806Y-91681846D01*
X178691287Y-91706400D01*
X178614911Y-91731194D01*
X178479011Y-91738698D01*
X178348436Y-91703034D01*
X178234771Y-91626238D01*
X178168248Y-91562775D01*
X178168248Y-91627777D01*
X178166289Y-91658699D01*
X178147317Y-91686503D01*
X178095676Y-91692779D01*
X178023105Y-91692779D01*
X178023105Y-91172684D01*
X178023105Y-90652588D01*
X178107771Y-90652588D01*
X178192438Y-90652588D01*
X178192438Y-91023963D01*
G37*
G36*
X178066215Y-85435662D02*
G01*
X178203155Y-85473850D01*
X178323293Y-85549717D01*
X178346524Y-85569592D01*
X178393740Y-85606380D01*
X178419393Y-85620969D01*
X178421342Y-85620248D01*
X178430584Y-85592293D01*
X178434343Y-85536303D01*
X178435014Y-85498626D01*
X178444640Y-85465693D01*
X178476313Y-85453443D01*
X178543200Y-85451636D01*
X178652057Y-85451636D01*
X178652057Y-86165255D01*
X178652057Y-86878874D01*
X178531105Y-86878874D01*
X178410152Y-86878874D01*
X178410152Y-86350216D01*
X178410015Y-86178583D01*
X178409170Y-86046990D01*
X178406971Y-85950465D01*
X178402769Y-85882324D01*
X178395919Y-85835881D01*
X178385772Y-85804451D01*
X178371681Y-85781349D01*
X178353000Y-85759889D01*
X178266549Y-85686806D01*
X178155529Y-85636175D01*
X178042532Y-85623566D01*
X177937033Y-85649809D01*
X177848509Y-85715734D01*
X177781200Y-85791066D01*
X177781200Y-86334970D01*
X177781200Y-86878874D01*
X177660248Y-86878874D01*
X177539295Y-86878874D01*
X177539295Y-86361557D01*
X177539544Y-86268287D01*
X177542566Y-86074317D01*
X177549890Y-85920150D01*
X177562610Y-85799774D01*
X177581816Y-85707177D01*
X177608602Y-85636347D01*
X177644060Y-85581272D01*
X177689282Y-85535939D01*
X177789574Y-85473359D01*
X177924385Y-85435412D01*
X178066215Y-85435662D01*
G37*
G36*
X179181908Y-111558615D02*
G01*
X179281313Y-111565439D01*
X179352150Y-111576965D01*
X179355535Y-111577899D01*
X179464679Y-111631862D01*
X179565414Y-111725984D01*
X179649135Y-111852288D01*
X179700916Y-111952303D01*
X179735087Y-111764826D01*
X179769257Y-111577350D01*
X179887990Y-111577350D01*
X179929470Y-111577733D01*
X179984893Y-111579920D01*
X180006523Y-111583398D01*
X180004200Y-111602342D01*
X179996611Y-111660579D01*
X179985012Y-111748288D01*
X179970709Y-111855541D01*
X179967532Y-111880745D01*
X179954038Y-112027399D01*
X179943723Y-112209306D01*
X179937085Y-112415668D01*
X179934625Y-112635684D01*
X179934152Y-113149731D01*
X179815050Y-113149731D01*
X179695947Y-113149731D01*
X179688050Y-112684064D01*
X179686480Y-112593415D01*
X179683511Y-112454303D01*
X179679614Y-112350761D01*
X179673686Y-112274406D01*
X179664623Y-112216859D01*
X179651320Y-112169739D01*
X179632674Y-112124664D01*
X179607581Y-112073255D01*
X179602530Y-112063294D01*
X179524323Y-111941967D01*
X179429961Y-111855541D01*
X179421294Y-111849577D01*
X179372039Y-111818310D01*
X179326781Y-111798898D01*
X179272429Y-111788678D01*
X179195892Y-111784986D01*
X179084079Y-111785158D01*
X178843245Y-111787347D01*
X178850461Y-111676301D01*
X178857676Y-111565255D01*
X179057087Y-111558232D01*
X179073625Y-111557745D01*
X179181908Y-111558615D01*
G37*
G36*
X187481581Y-85282303D02*
G01*
X187481581Y-85451636D01*
X187614629Y-85451636D01*
X187747676Y-85451636D01*
X187747676Y-85548398D01*
X187747676Y-85645160D01*
X187614629Y-85645160D01*
X187481581Y-85645160D01*
X187481581Y-86161678D01*
X187481499Y-86283151D01*
X187480776Y-86425592D01*
X187478755Y-86531507D01*
X187474786Y-86607949D01*
X187468219Y-86661971D01*
X187458403Y-86700624D01*
X187444689Y-86730963D01*
X187426426Y-86760039D01*
X187418038Y-86771902D01*
X187364475Y-86831948D01*
X187311522Y-86872117D01*
X187288922Y-86881443D01*
X187204527Y-86898872D01*
X187111252Y-86901715D01*
X187036036Y-86888381D01*
X187009361Y-86860065D01*
X186997771Y-86791619D01*
X186997778Y-86786828D01*
X187002391Y-86734316D01*
X187025673Y-86713341D01*
X187082438Y-86709541D01*
X187145719Y-86700429D01*
X187215486Y-86661160D01*
X187218863Y-86657713D01*
X187234562Y-86637727D01*
X187246127Y-86610710D01*
X187254184Y-86569772D01*
X187259360Y-86508020D01*
X187262281Y-86418564D01*
X187263575Y-86294510D01*
X187263867Y-86128969D01*
X187263867Y-85645160D01*
X187130819Y-85645160D01*
X186997771Y-85645160D01*
X186997771Y-85548398D01*
X186997771Y-85451636D01*
X187130819Y-85451636D01*
X187263867Y-85451636D01*
X187263867Y-85282303D01*
X187263867Y-85112969D01*
X187372724Y-85112969D01*
X187481581Y-85112969D01*
X187481581Y-85282303D01*
G37*
G36*
X192101962Y-85282303D02*
G01*
X192101962Y-85451636D01*
X192235009Y-85451636D01*
X192368057Y-85451636D01*
X192368057Y-85548398D01*
X192368057Y-85645160D01*
X192235009Y-85645160D01*
X192101962Y-85645160D01*
X192101962Y-86161678D01*
X192101880Y-86283151D01*
X192101157Y-86425592D01*
X192099136Y-86531507D01*
X192095167Y-86607949D01*
X192088600Y-86661971D01*
X192078784Y-86700624D01*
X192065070Y-86730963D01*
X192046807Y-86760039D01*
X192038419Y-86771902D01*
X191984856Y-86831948D01*
X191931902Y-86872117D01*
X191851466Y-86895589D01*
X191748170Y-86901562D01*
X191648390Y-86887818D01*
X191630426Y-86881597D01*
X191601605Y-86852054D01*
X191593962Y-86791386D01*
X191594168Y-86768543D01*
X191601219Y-86727905D01*
X191628759Y-86712167D01*
X191690724Y-86709541D01*
X191761226Y-86701589D01*
X191835867Y-86661160D01*
X191839244Y-86657713D01*
X191854943Y-86637727D01*
X191866508Y-86610710D01*
X191874565Y-86569772D01*
X191879741Y-86508020D01*
X191882662Y-86418564D01*
X191883956Y-86294510D01*
X191884248Y-86128969D01*
X191884248Y-85645160D01*
X191751200Y-85645160D01*
X191618152Y-85645160D01*
X191618152Y-85548398D01*
X191618152Y-85451636D01*
X191751200Y-85451636D01*
X191884248Y-85451636D01*
X191884248Y-85282303D01*
X191884248Y-85112969D01*
X191993105Y-85112969D01*
X192101962Y-85112969D01*
X192101962Y-85282303D01*
G37*
G36*
X182367311Y-90642064D02*
G01*
X182492685Y-90684164D01*
X182591371Y-90764160D01*
X182669516Y-90886198D01*
X182678869Y-90907014D01*
X182715915Y-91041555D01*
X182727827Y-91194529D01*
X182714411Y-91346414D01*
X182675468Y-91477688D01*
X182653684Y-91519034D01*
X182583589Y-91610654D01*
X182498730Y-91683473D01*
X182413676Y-91723794D01*
X182399240Y-91727110D01*
X182250223Y-91738832D01*
X182114352Y-91710197D01*
X181998700Y-91645054D01*
X181910343Y-91547251D01*
X181856354Y-91420636D01*
X181855126Y-91415608D01*
X181849558Y-91373805D01*
X181868804Y-91357126D01*
X181924622Y-91354112D01*
X181966607Y-91356267D01*
X182005722Y-91373395D01*
X182024990Y-91416672D01*
X182026956Y-91424052D01*
X182075626Y-91515460D01*
X182156719Y-91574845D01*
X182262051Y-91596017D01*
X182278973Y-91595720D01*
X182383564Y-91574819D01*
X182462835Y-91517165D01*
X182524620Y-91417431D01*
X182551178Y-91341931D01*
X182569728Y-91204898D01*
X182557725Y-91066344D01*
X182517041Y-90940593D01*
X182449542Y-90841971D01*
X182420062Y-90815161D01*
X182358141Y-90782248D01*
X182275777Y-90773541D01*
X182173621Y-90786808D01*
X182093279Y-90833611D01*
X182039123Y-90917720D01*
X182030125Y-90937616D01*
X181994702Y-90980052D01*
X181939027Y-90991255D01*
X181915178Y-90990376D01*
X181878476Y-90975826D01*
X181869390Y-90934356D01*
X181878474Y-90885027D01*
X181920396Y-90803352D01*
X181985919Y-90726181D01*
X182063396Y-90669423D01*
X182097818Y-90654018D01*
X182183083Y-90634896D01*
X182295867Y-90634099D01*
X182367311Y-90642064D01*
G37*
G36*
X187626724Y-91692779D02*
G01*
X187554152Y-91692779D01*
X187519629Y-91691024D01*
X187488587Y-91674032D01*
X187481581Y-91627777D01*
X187481581Y-91562775D01*
X187415057Y-91626390D01*
X187409832Y-91631289D01*
X187347106Y-91680576D01*
X187288057Y-91714049D01*
X187201742Y-91738449D01*
X187069323Y-91738532D01*
X186945217Y-91694835D01*
X186836001Y-91610123D01*
X186748251Y-91487160D01*
X186738611Y-91466874D01*
X186707982Y-91358051D01*
X186693861Y-91225108D01*
X186694536Y-91184779D01*
X186852629Y-91184779D01*
X186856373Y-91257180D01*
X186885966Y-91388902D01*
X186942040Y-91492253D01*
X187020998Y-91559233D01*
X187021245Y-91559360D01*
X187121506Y-91590889D01*
X187223976Y-91589884D01*
X187309483Y-91556526D01*
X187336695Y-91534148D01*
X187398980Y-91447529D01*
X187437874Y-91336611D01*
X187453653Y-91212649D01*
X187446594Y-91086895D01*
X187416975Y-90970604D01*
X187365071Y-90875032D01*
X187291159Y-90811431D01*
X187283192Y-90807423D01*
X187172250Y-90775046D01*
X187070383Y-90786394D01*
X186982539Y-90837255D01*
X186913665Y-90923415D01*
X186868713Y-91040660D01*
X186852629Y-91184779D01*
X186694536Y-91184779D01*
X186696200Y-91085310D01*
X186714948Y-90955919D01*
X186750058Y-90854197D01*
X186797100Y-90778242D01*
X186879436Y-90698060D01*
X186984103Y-90653971D01*
X187120607Y-90640493D01*
X187179292Y-90641385D01*
X187254308Y-90649346D01*
X187311061Y-90669902D01*
X187368559Y-90708248D01*
X187457390Y-90776003D01*
X187457390Y-90508676D01*
X187457390Y-90241350D01*
X187542057Y-90241350D01*
X187626724Y-90241350D01*
X187626724Y-90967064D01*
X187626724Y-91212649D01*
X187626724Y-91692779D01*
G37*
G36*
X184257632Y-84972769D02*
G01*
X184420350Y-84979922D01*
X184723299Y-85747274D01*
X184779685Y-85889484D01*
X184847579Y-86059008D01*
X184908549Y-86209345D01*
X184960458Y-86335320D01*
X185001169Y-86431757D01*
X185028545Y-86493483D01*
X185040450Y-86515321D01*
X185048953Y-86500971D01*
X185073786Y-86446600D01*
X185112478Y-86356532D01*
X185162889Y-86235900D01*
X185222879Y-86089833D01*
X185290308Y-85923463D01*
X185363035Y-85741922D01*
X185671418Y-84967826D01*
X185838690Y-84967826D01*
X186005962Y-84967826D01*
X186005962Y-85923350D01*
X186005962Y-86878874D01*
X185882960Y-86878874D01*
X185759957Y-86878874D01*
X185768055Y-86106769D01*
X185769087Y-85997346D01*
X185770237Y-85819384D01*
X185770593Y-85661710D01*
X185770181Y-85529943D01*
X185769026Y-85429699D01*
X185767154Y-85366596D01*
X185764589Y-85346252D01*
X185757930Y-85359772D01*
X185734719Y-85413413D01*
X185697232Y-85502819D01*
X185647652Y-85622702D01*
X185588165Y-85767771D01*
X185520954Y-85932737D01*
X185448206Y-86112310D01*
X185143385Y-86866779D01*
X185048531Y-86873411D01*
X184953676Y-86880043D01*
X184642121Y-86105363D01*
X184581476Y-85954929D01*
X184512810Y-85785521D01*
X184451565Y-85635433D01*
X184399852Y-85509786D01*
X184359780Y-85413698D01*
X184333457Y-85352290D01*
X184322994Y-85330684D01*
X184322069Y-85338455D01*
X184321224Y-85386840D01*
X184321311Y-85474590D01*
X184322279Y-85595982D01*
X184324076Y-85745293D01*
X184326650Y-85916800D01*
X184329951Y-86104779D01*
X184344481Y-86878874D01*
X184219698Y-86878874D01*
X184094914Y-86878874D01*
X184094914Y-85922245D01*
X184094914Y-84965616D01*
X184257632Y-84972769D01*
G37*
G36*
X188637548Y-85470999D02*
G01*
X188777543Y-85543902D01*
X188895461Y-85653253D01*
X188983959Y-85796552D01*
X188988237Y-85806476D01*
X189024636Y-85935028D01*
X189042478Y-86089193D01*
X189041752Y-86251507D01*
X189022442Y-86404501D01*
X188984535Y-86530710D01*
X188958751Y-86582560D01*
X188869860Y-86707659D01*
X188759898Y-86806475D01*
X188640137Y-86867970D01*
X188491945Y-86896821D01*
X188331642Y-86888937D01*
X188180804Y-86843509D01*
X188049362Y-86763626D01*
X187947248Y-86652378D01*
X187911268Y-86595990D01*
X187874501Y-86521780D01*
X187871894Y-86474984D01*
X187904016Y-86450686D01*
X187971438Y-86443969D01*
X187980281Y-86444043D01*
X188044445Y-86449833D01*
X188081503Y-86472354D01*
X188110533Y-86522359D01*
X188121537Y-86543801D01*
X188198523Y-86633675D01*
X188306824Y-86690024D01*
X188440612Y-86709541D01*
X188468629Y-86709269D01*
X188542800Y-86701643D01*
X188599578Y-86676797D01*
X188662751Y-86625758D01*
X188694371Y-86594840D01*
X188750722Y-86518166D01*
X188786958Y-86425269D01*
X188806323Y-86305805D01*
X188812057Y-86149431D01*
X188809221Y-86067012D01*
X188781808Y-85903522D01*
X188726261Y-85776241D01*
X188643796Y-85686722D01*
X188535628Y-85636517D01*
X188402973Y-85627175D01*
X188363320Y-85630972D01*
X188294411Y-85645740D01*
X188240365Y-85677564D01*
X188179211Y-85737250D01*
X188142790Y-85780270D01*
X188102150Y-85841743D01*
X188086343Y-85886128D01*
X188086185Y-85892964D01*
X188076631Y-85920171D01*
X188043438Y-85932528D01*
X187974321Y-85935445D01*
X187862298Y-85935445D01*
X187876957Y-85845114D01*
X187886633Y-85803481D01*
X187941387Y-85687797D01*
X188028016Y-85584096D01*
X188134945Y-85507520D01*
X188158560Y-85495989D01*
X188320712Y-85444542D01*
X188482823Y-85437046D01*
X188637548Y-85470999D01*
G37*
G36*
X181781863Y-85451042D02*
G01*
X181837860Y-85464992D01*
X181982004Y-85529669D01*
X182096692Y-85631555D01*
X182185519Y-85773522D01*
X182199242Y-85803091D01*
X182229251Y-85877803D01*
X182246560Y-85948212D01*
X182254504Y-86031854D01*
X182256419Y-86146267D01*
X182255449Y-86207592D01*
X182234830Y-86406567D01*
X182185967Y-86568935D01*
X182106972Y-86698068D01*
X181995956Y-86797341D01*
X181851028Y-86870127D01*
X181840229Y-86873877D01*
X181734032Y-86892916D01*
X181608219Y-86893277D01*
X181484475Y-86876222D01*
X181384488Y-86843010D01*
X181262870Y-86765350D01*
X181158082Y-86651466D01*
X181094328Y-86512645D01*
X181086580Y-86483712D01*
X181087542Y-86455551D01*
X181115247Y-86445024D01*
X181180516Y-86443445D01*
X181196547Y-86443536D01*
X181258736Y-86449517D01*
X181295181Y-86472262D01*
X181324770Y-86522064D01*
X181330173Y-86532795D01*
X181399143Y-86623616D01*
X181495881Y-86679625D01*
X181626387Y-86704448D01*
X181630203Y-86704710D01*
X181718296Y-86705881D01*
X181781926Y-86691659D01*
X181843096Y-86657253D01*
X181890971Y-86620210D01*
X181955310Y-86545361D01*
X181997149Y-86450530D01*
X182019813Y-86326801D01*
X182026629Y-86165255D01*
X182026158Y-86089066D01*
X182022324Y-85995039D01*
X182012612Y-85927131D01*
X181994640Y-85871547D01*
X181966023Y-85814493D01*
X181954360Y-85794745D01*
X181869922Y-85697975D01*
X181768171Y-85639862D01*
X181657783Y-85619376D01*
X181547440Y-85635489D01*
X181445819Y-85687168D01*
X181361600Y-85773386D01*
X181303462Y-85893112D01*
X181294001Y-85910897D01*
X181256582Y-85929985D01*
X181183269Y-85935445D01*
X181076200Y-85935445D01*
X181094005Y-85856826D01*
X181125419Y-85758372D01*
X181204629Y-85626706D01*
X181315328Y-85526926D01*
X181452066Y-85462245D01*
X181609394Y-85435879D01*
X181781863Y-85451042D01*
G37*
G36*
X184467847Y-90636327D02*
G01*
X184558641Y-90668003D01*
X184643883Y-90731118D01*
X184696948Y-90779411D01*
X184754164Y-90712893D01*
X184789167Y-90678904D01*
X184848588Y-90649323D01*
X184936677Y-90634336D01*
X185053559Y-90634859D01*
X185169629Y-90670156D01*
X185256877Y-90743792D01*
X185304438Y-90804256D01*
X185304438Y-90728422D01*
X185307092Y-90685163D01*
X185326369Y-90658190D01*
X185377009Y-90652588D01*
X185449581Y-90652588D01*
X185449581Y-91172684D01*
X185449581Y-91692779D01*
X185379181Y-91692779D01*
X185308780Y-91692779D01*
X185300562Y-91319539D01*
X185296951Y-91180197D01*
X185292263Y-91073288D01*
X185285536Y-90998131D01*
X185275636Y-90946215D01*
X185261431Y-90909030D01*
X185241786Y-90878063D01*
X185236994Y-90871724D01*
X185155114Y-90794759D01*
X185065298Y-90760092D01*
X184975228Y-90768944D01*
X184892585Y-90822537D01*
X184883384Y-90832443D01*
X184868310Y-90855892D01*
X184857748Y-90889787D01*
X184850907Y-90941712D01*
X184846999Y-91019255D01*
X184845232Y-91130002D01*
X184844819Y-91281541D01*
X184844819Y-91692779D01*
X184760152Y-91692779D01*
X184675486Y-91692779D01*
X184675395Y-91323874D01*
X184675031Y-91215237D01*
X184672948Y-91098659D01*
X184668205Y-91015467D01*
X184659890Y-90956925D01*
X184647088Y-90914296D01*
X184628887Y-90878844D01*
X184565670Y-90809853D01*
X184483875Y-90770381D01*
X184397327Y-90763448D01*
X184318608Y-90790005D01*
X184260298Y-90851002D01*
X184248318Y-90889208D01*
X184235863Y-90979858D01*
X184226412Y-91117015D01*
X184220055Y-91299684D01*
X184210894Y-91692779D01*
X184139343Y-91692779D01*
X184067791Y-91692779D01*
X184075305Y-91231124D01*
X184082819Y-90769468D01*
X184161820Y-90698933D01*
X184215715Y-90657588D01*
X184277619Y-90634288D01*
X184362981Y-90628398D01*
X184467847Y-90636327D01*
G37*
G36*
X196782845Y-86290485D02*
G01*
X196839918Y-86439945D01*
X196885919Y-86560113D01*
X196917806Y-86643017D01*
X197008981Y-86878874D01*
X196883005Y-86878874D01*
X196757029Y-86878874D01*
X196670270Y-86630922D01*
X196583512Y-86382969D01*
X196174456Y-86376373D01*
X195765400Y-86369777D01*
X195673098Y-86624326D01*
X195580795Y-86878874D01*
X195460510Y-86878874D01*
X195432279Y-86878679D01*
X195374886Y-86874510D01*
X195352264Y-86861813D01*
X195354250Y-86836541D01*
X195356170Y-86831108D01*
X195372837Y-86786272D01*
X195404239Y-86702968D01*
X195448448Y-86586272D01*
X195503536Y-86441258D01*
X195567577Y-86273001D01*
X195612737Y-86154534D01*
X195851486Y-86154534D01*
X195852052Y-86155981D01*
X195881781Y-86164564D01*
X195951371Y-86171327D01*
X196053450Y-86175759D01*
X196180645Y-86177350D01*
X196300026Y-86177014D01*
X196394616Y-86175267D01*
X196454151Y-86171149D01*
X196485680Y-86163705D01*
X196496254Y-86151980D01*
X196492921Y-86135017D01*
X196482392Y-86107110D01*
X196457343Y-86039083D01*
X196421455Y-85940814D01*
X196377739Y-85820551D01*
X196329206Y-85686544D01*
X196284781Y-85566878D01*
X196240850Y-85455312D01*
X196204065Y-85369021D01*
X196177340Y-85314814D01*
X196163588Y-85299496D01*
X196162905Y-85300330D01*
X196147906Y-85331981D01*
X196120595Y-85399484D01*
X196084243Y-85493876D01*
X196042123Y-85606192D01*
X195997506Y-85727469D01*
X195953664Y-85848744D01*
X195913869Y-85961051D01*
X195881393Y-86055428D01*
X195859508Y-86122910D01*
X195851486Y-86154534D01*
X195612737Y-86154534D01*
X195638642Y-86086579D01*
X195714805Y-85887064D01*
X196061335Y-84979922D01*
X196170260Y-84972706D01*
X196279184Y-84965491D01*
X196552908Y-85686325D01*
X196575605Y-85746083D01*
X196647648Y-85935581D01*
X196717741Y-86119706D01*
X196730044Y-86151980D01*
X196782845Y-86290485D01*
G37*
G36*
X177213438Y-86029922D02*
G01*
X177219918Y-86247544D01*
X177219389Y-86257630D01*
X177204627Y-86402338D01*
X177174678Y-86515318D01*
X177123919Y-86611435D01*
X177046730Y-86705557D01*
X176927955Y-86804927D01*
X176765357Y-86881911D01*
X176706253Y-86893038D01*
X176603964Y-86895959D01*
X176490068Y-86887598D01*
X176384048Y-86869579D01*
X176305388Y-86843529D01*
X176256456Y-86814331D01*
X176190291Y-86765830D01*
X176128028Y-86712806D01*
X176081784Y-86665714D01*
X176063676Y-86635006D01*
X176063684Y-86634736D01*
X176082446Y-86610852D01*
X176126447Y-86577214D01*
X176168942Y-86552494D01*
X176201537Y-86552555D01*
X176241352Y-86583698D01*
X176253569Y-86594450D01*
X176372248Y-86667842D01*
X176505821Y-86705346D01*
X176641270Y-86704952D01*
X176765577Y-86664650D01*
X176830733Y-86615583D01*
X176904426Y-86526593D01*
X176960644Y-86422784D01*
X176987495Y-86322493D01*
X176995009Y-86237826D01*
X176517248Y-86231267D01*
X176039486Y-86224708D01*
X176039486Y-86083921D01*
X176041943Y-86044303D01*
X176269295Y-86044303D01*
X176626105Y-86050997D01*
X176982914Y-86057691D01*
X176982914Y-86001694D01*
X176980344Y-85979638D01*
X176960852Y-85913075D01*
X176928486Y-85837957D01*
X176853535Y-85730259D01*
X176759137Y-85658307D01*
X176655135Y-85623957D01*
X176549667Y-85625662D01*
X176450874Y-85661873D01*
X176366893Y-85731042D01*
X176305864Y-85831621D01*
X176275926Y-85962063D01*
X176269295Y-86044303D01*
X176041943Y-86044303D01*
X176047578Y-85953441D01*
X176089478Y-85782194D01*
X176165625Y-85642775D01*
X176274371Y-85537152D01*
X176414065Y-85467294D01*
X176583060Y-85435168D01*
X176613337Y-85433364D01*
X176699838Y-85434916D01*
X176773663Y-85453042D01*
X176861043Y-85493219D01*
X176974556Y-85566289D01*
X177090840Y-85689469D01*
X177170440Y-85843955D01*
X177206911Y-86001694D01*
X177213438Y-86029922D01*
G37*
G36*
X195101581Y-85861549D02*
G01*
X195101581Y-86878874D01*
X194992724Y-86878874D01*
X194951656Y-86878464D01*
X194905242Y-86872064D01*
X194887022Y-86850928D01*
X194883867Y-86806303D01*
X194883286Y-86781253D01*
X194873682Y-86741603D01*
X194847125Y-86743138D01*
X194797005Y-86784174D01*
X194789637Y-86790679D01*
X194725636Y-86832984D01*
X194650303Y-86867779D01*
X194574250Y-86889685D01*
X194419652Y-86901403D01*
X194276534Y-86868625D01*
X194149977Y-86793874D01*
X194045060Y-86679671D01*
X193966865Y-86528537D01*
X193943353Y-86446607D01*
X193921742Y-86300161D01*
X193918095Y-86201853D01*
X194139723Y-86201853D01*
X194157549Y-86347207D01*
X194196099Y-86479055D01*
X194254502Y-86586945D01*
X194331888Y-86660424D01*
X194366923Y-86678728D01*
X194483230Y-86707149D01*
X194605042Y-86697803D01*
X194717888Y-86653258D01*
X194807299Y-86576079D01*
X194827763Y-86546594D01*
X194842226Y-86512733D01*
X194851533Y-86465968D01*
X194856800Y-86397432D01*
X194859143Y-86298257D01*
X194859676Y-86159574D01*
X194859676Y-85809655D01*
X194779599Y-85729578D01*
X194769367Y-85719804D01*
X194671404Y-85657730D01*
X194558102Y-85628394D01*
X194442332Y-85631653D01*
X194336962Y-85667366D01*
X194254860Y-85735390D01*
X194219285Y-85789277D01*
X194169720Y-85912436D01*
X194143489Y-86053445D01*
X194139723Y-86201853D01*
X193918095Y-86201853D01*
X193915763Y-86139011D01*
X193925815Y-85981765D01*
X193952295Y-85847033D01*
X193982810Y-85765002D01*
X194047376Y-85647864D01*
X194125536Y-85550694D01*
X194207357Y-85487496D01*
X194256784Y-85465789D01*
X194393829Y-85435426D01*
X194537684Y-85438321D01*
X194673235Y-85473142D01*
X194785366Y-85538552D01*
X194858399Y-85600005D01*
X194865085Y-85229487D01*
X194871771Y-84858969D01*
X194986676Y-84851596D01*
X195101581Y-84844223D01*
X195101581Y-85809655D01*
X195101581Y-85861549D01*
G37*
G36*
X190593022Y-91172304D02*
G01*
X190444914Y-91694572D01*
X190349104Y-91687628D01*
X190253295Y-91680684D01*
X190156318Y-91287588D01*
X190131494Y-91188737D01*
X190100777Y-91071564D01*
X190074806Y-90978329D01*
X190055749Y-90916736D01*
X190045771Y-90894493D01*
X190039234Y-90907161D01*
X190022249Y-90959611D01*
X189997808Y-91045636D01*
X189968078Y-91157531D01*
X189935225Y-91287588D01*
X189838248Y-91680684D01*
X189742438Y-91687707D01*
X189646629Y-91694731D01*
X189504102Y-91203898D01*
X189490755Y-91157970D01*
X189448774Y-91014009D01*
X189411576Y-90887177D01*
X189381324Y-90784812D01*
X189360185Y-90714250D01*
X189350324Y-90682826D01*
X189349315Y-90679393D01*
X189365036Y-90659140D01*
X189425189Y-90652588D01*
X189444339Y-90652063D01*
X189469388Y-90651487D01*
X189488939Y-90656386D01*
X189505600Y-90672646D01*
X189521977Y-90706152D01*
X189540676Y-90762788D01*
X189564304Y-90848440D01*
X189595466Y-90968993D01*
X189636770Y-91130332D01*
X189646005Y-91165922D01*
X189676185Y-91277813D01*
X189702329Y-91368271D01*
X189721900Y-91428788D01*
X189732359Y-91450856D01*
X189732557Y-91450826D01*
X189743313Y-91427280D01*
X189762299Y-91366011D01*
X189786891Y-91276102D01*
X189814466Y-91166636D01*
X189826862Y-91115517D01*
X189864906Y-90959711D01*
X189894661Y-90843473D01*
X189918710Y-90761011D01*
X189939638Y-90706531D01*
X189960031Y-90674242D01*
X189982473Y-90658350D01*
X190009549Y-90653063D01*
X190043845Y-90652588D01*
X190136805Y-90652588D01*
X190240657Y-91069291D01*
X190272101Y-91192176D01*
X190302690Y-91304846D01*
X190327994Y-91390761D01*
X190346014Y-91443158D01*
X190354750Y-91455272D01*
X190359554Y-91439002D01*
X190375800Y-91380672D01*
X190400650Y-91289750D01*
X190431754Y-91174858D01*
X190466759Y-91044616D01*
X190568527Y-90664684D01*
X190654828Y-90657359D01*
X190741129Y-90650035D01*
X190593022Y-91172304D01*
G37*
G36*
X183795906Y-112515976D02*
G01*
X183760863Y-112717647D01*
X183693813Y-112883670D01*
X183594937Y-113013732D01*
X183464418Y-113107515D01*
X183302438Y-113164705D01*
X183184274Y-113182104D01*
X183007412Y-113178282D01*
X182841609Y-113140498D01*
X182696762Y-113071382D01*
X182582771Y-112973562D01*
X182518176Y-112886472D01*
X182468434Y-112785780D01*
X182436259Y-112667705D01*
X182418987Y-112522233D01*
X182414618Y-112363541D01*
X182679851Y-112363541D01*
X182679856Y-112368604D01*
X182685779Y-112544946D01*
X182704555Y-112681888D01*
X182738645Y-112787101D01*
X182790512Y-112868256D01*
X182862616Y-112933025D01*
X182944943Y-112974047D01*
X183065135Y-112999053D01*
X183189023Y-112996046D01*
X183296146Y-112963582D01*
X183388034Y-112898309D01*
X183460238Y-112801622D01*
X183507768Y-112672853D01*
X183532041Y-112508077D01*
X183534474Y-112303367D01*
X183532011Y-112242351D01*
X183524764Y-112136818D01*
X183512946Y-112060346D01*
X183494027Y-111999650D01*
X183465471Y-111941444D01*
X183444190Y-111906343D01*
X183355906Y-111809653D01*
X183243722Y-111753530D01*
X183103105Y-111735395D01*
X183030009Y-111739319D01*
X182908751Y-111772195D01*
X182814494Y-111841929D01*
X182740248Y-111952708D01*
X182733282Y-111966782D01*
X182709277Y-112021903D01*
X182693708Y-112077057D01*
X182684798Y-112144327D01*
X182680771Y-112235794D01*
X182679851Y-112363541D01*
X182414618Y-112363541D01*
X182413952Y-112339350D01*
X182415074Y-112217247D01*
X182419547Y-112120128D01*
X182429030Y-112047752D01*
X182445185Y-111987840D01*
X182469678Y-111928112D01*
X182510655Y-111848534D01*
X182604084Y-111723906D01*
X182720390Y-111636564D01*
X182865625Y-111582622D01*
X183045844Y-111558193D01*
X183192111Y-111558718D01*
X183367468Y-111589951D01*
X183512840Y-111657711D01*
X183630518Y-111763180D01*
X183722792Y-111907540D01*
X183739026Y-111942029D01*
X183765346Y-112010614D01*
X183782351Y-112083727D01*
X183792896Y-112175984D01*
X183799836Y-112301999D01*
X183799811Y-112303367D01*
X183795906Y-112515976D01*
G37*
G36*
X186117946Y-90628510D02*
G01*
X186253865Y-90647755D01*
X186365904Y-90696058D01*
X186449164Y-90767656D01*
X186498745Y-90856790D01*
X186509746Y-90957697D01*
X186477267Y-91064618D01*
X186453739Y-91102165D01*
X186410226Y-91144267D01*
X186345184Y-91180845D01*
X186249902Y-91216507D01*
X186115669Y-91255860D01*
X186089589Y-91263132D01*
X185999185Y-91290816D01*
X185928810Y-91316086D01*
X185891907Y-91334236D01*
X185873367Y-91356625D01*
X185860129Y-91418656D01*
X185878099Y-91487618D01*
X185924558Y-91545880D01*
X185968654Y-91572120D01*
X186058187Y-91595103D01*
X186154822Y-91593225D01*
X186245260Y-91569025D01*
X186316202Y-91525041D01*
X186354350Y-91463814D01*
X186364306Y-91434949D01*
X186393848Y-91408870D01*
X186453947Y-91402493D01*
X186499127Y-91404816D01*
X186530776Y-91420320D01*
X186531504Y-91458903D01*
X186505205Y-91530270D01*
X186487667Y-91566519D01*
X186410619Y-91660613D01*
X186304894Y-91716287D01*
X186185673Y-91739804D01*
X186046924Y-91737831D01*
X185920647Y-91706164D01*
X185815133Y-91648219D01*
X185738677Y-91567408D01*
X185699573Y-91467145D01*
X185695527Y-91435523D01*
X185701229Y-91341901D01*
X185739705Y-91265361D01*
X185814841Y-91202274D01*
X185930521Y-91149014D01*
X186090629Y-91101953D01*
X186092393Y-91101517D01*
X186182812Y-91075366D01*
X186258164Y-91046835D01*
X186302295Y-91022026D01*
X186318677Y-91004775D01*
X186343937Y-90943534D01*
X186330238Y-90881539D01*
X186283735Y-90827041D01*
X186210584Y-90788291D01*
X186116939Y-90773541D01*
X186077209Y-90775734D01*
X185990884Y-90798339D01*
X185931374Y-90840447D01*
X185909200Y-90895865D01*
X185906654Y-90915966D01*
X185883118Y-90937306D01*
X185824533Y-90942874D01*
X185787971Y-90941431D01*
X185749796Y-90928297D01*
X185739867Y-90895631D01*
X185744591Y-90849675D01*
X185785895Y-90760063D01*
X185864320Y-90690115D01*
X185973286Y-90644627D01*
X186106218Y-90628398D01*
X186117946Y-90628510D01*
G37*
G36*
X192957808Y-90657434D02*
G01*
X193056026Y-90664684D01*
X193155000Y-91075922D01*
X193174629Y-91156138D01*
X193210493Y-91293708D01*
X193238560Y-91387510D01*
X193258433Y-91436285D01*
X193269715Y-91438779D01*
X193276796Y-91415209D01*
X193296874Y-91343927D01*
X193326467Y-91236075D01*
X193363881Y-91097882D01*
X193407424Y-90935580D01*
X193455403Y-90755398D01*
X193463571Y-90725770D01*
X193483813Y-90676422D01*
X193514156Y-90656374D01*
X193569006Y-90652588D01*
X193579619Y-90652700D01*
X193633718Y-90660909D01*
X193643849Y-90682826D01*
X193642235Y-90687579D01*
X193628934Y-90731333D01*
X193605194Y-90812106D01*
X193573154Y-90922536D01*
X193534953Y-91055261D01*
X193492729Y-91202922D01*
X193353087Y-91692779D01*
X193260647Y-91692779D01*
X193242113Y-91693148D01*
X193214201Y-91693466D01*
X193192537Y-91688306D01*
X193174497Y-91671759D01*
X193157455Y-91637918D01*
X193138785Y-91580873D01*
X193115862Y-91494718D01*
X193086060Y-91373543D01*
X193046755Y-91211440D01*
X193042943Y-91195833D01*
X193014919Y-91083846D01*
X192990580Y-90991165D01*
X192972422Y-90927046D01*
X192962942Y-90900743D01*
X192958247Y-90900103D01*
X192950144Y-90912763D01*
X192938263Y-90945557D01*
X192921038Y-91003852D01*
X192896906Y-91093014D01*
X192864302Y-91218412D01*
X192821661Y-91385412D01*
X192743009Y-91694903D01*
X192648691Y-91687793D01*
X192554372Y-91680684D01*
X192498537Y-91487160D01*
X192498080Y-91485577D01*
X192468850Y-91384975D01*
X192430792Y-91254951D01*
X192388782Y-91112124D01*
X192347698Y-90973112D01*
X192252694Y-90652588D01*
X192341404Y-90652588D01*
X192430114Y-90652588D01*
X192523249Y-91033588D01*
X192544086Y-91118000D01*
X192574923Y-91239808D01*
X192601360Y-91340533D01*
X192621108Y-91411517D01*
X192631875Y-91444107D01*
X192641013Y-91434767D01*
X192660182Y-91385781D01*
X192686760Y-91302768D01*
X192718581Y-91192538D01*
X192753477Y-91061904D01*
X192859590Y-90650184D01*
X192957808Y-90657434D01*
G37*
G36*
X180010567Y-91054108D02*
G01*
X180024086Y-91185935D01*
X180008854Y-91347052D01*
X179958861Y-91488939D01*
X179876845Y-91604523D01*
X179765546Y-91686731D01*
X179662366Y-91724887D01*
X179547105Y-91741160D01*
X179485931Y-91736915D01*
X179356429Y-91699831D01*
X179245640Y-91630358D01*
X179166602Y-91535541D01*
X179158179Y-91520427D01*
X179124486Y-91454701D01*
X179118017Y-91419417D01*
X179140763Y-91405154D01*
X179194713Y-91402493D01*
X179208481Y-91402726D01*
X179266156Y-91414969D01*
X179292904Y-91450243D01*
X179303797Y-91475942D01*
X179361351Y-91539658D01*
X179445884Y-91581134D01*
X179544079Y-91597515D01*
X179642623Y-91585947D01*
X179728202Y-91543574D01*
X179731920Y-91540581D01*
X179796128Y-91466430D01*
X179843261Y-91372678D01*
X179861581Y-91282318D01*
X179860802Y-91269358D01*
X179853507Y-91254610D01*
X179832669Y-91244528D01*
X179791320Y-91238227D01*
X179722493Y-91234822D01*
X179619220Y-91233428D01*
X179474533Y-91233160D01*
X179087486Y-91233160D01*
X179087486Y-91127912D01*
X179088482Y-91090601D01*
X179093826Y-91061435D01*
X179256819Y-91061435D01*
X179257942Y-91078053D01*
X179267093Y-91094127D01*
X179292382Y-91104162D01*
X179341869Y-91109576D01*
X179423613Y-91111786D01*
X179545677Y-91112207D01*
X179645902Y-91110929D01*
X179749250Y-91106017D01*
X179819800Y-91098012D01*
X179849778Y-91087544D01*
X179852052Y-91083142D01*
X179853064Y-91032429D01*
X179829567Y-90963623D01*
X179788590Y-90892492D01*
X179737158Y-90834808D01*
X179721316Y-90822631D01*
X179623711Y-90780714D01*
X179512512Y-90775666D01*
X179404023Y-90808761D01*
X179379179Y-90825085D01*
X179319352Y-90891732D01*
X179274490Y-90977511D01*
X179256819Y-91061435D01*
X179093826Y-91061435D01*
X179116727Y-90936458D01*
X179180816Y-90808822D01*
X179276644Y-90712143D01*
X179400108Y-90650873D01*
X179547105Y-90629460D01*
X179641727Y-90637741D01*
X179774910Y-90684784D01*
X179882458Y-90771399D01*
X179961851Y-90895277D01*
X180003918Y-91032429D01*
X180010567Y-91054108D01*
G37*
G36*
X189242905Y-112259058D02*
G01*
X189245047Y-112455104D01*
X189221834Y-112638009D01*
X189186766Y-112754976D01*
X189105001Y-112908089D01*
X188992699Y-113032797D01*
X188855803Y-113123007D01*
X188700259Y-113172628D01*
X188597812Y-113183588D01*
X188415515Y-113176319D01*
X188241251Y-113138126D01*
X188091583Y-113071754D01*
X188061415Y-113049838D01*
X188004898Y-112996138D01*
X187950296Y-112932807D01*
X187909104Y-112873677D01*
X187892819Y-112832582D01*
X187896483Y-112827487D01*
X187932270Y-112810197D01*
X187993855Y-112791304D01*
X188049988Y-112778877D01*
X188091979Y-112781029D01*
X188131293Y-112805744D01*
X188185835Y-112859369D01*
X188227228Y-112897774D01*
X188346679Y-112970772D01*
X188472899Y-113002537D01*
X188598903Y-112996202D01*
X188717707Y-112954898D01*
X188822328Y-112881757D01*
X188905782Y-112779912D01*
X188961086Y-112652494D01*
X188981256Y-112502636D01*
X188981390Y-112424017D01*
X188412914Y-112424017D01*
X187844438Y-112424017D01*
X187844438Y-112343793D01*
X187848265Y-112269782D01*
X187854368Y-112230493D01*
X188106281Y-112230493D01*
X188543836Y-112230493D01*
X188586581Y-112230488D01*
X188730717Y-112230169D01*
X188834666Y-112228789D01*
X188904994Y-112225574D01*
X188948265Y-112219749D01*
X188971045Y-112210540D01*
X188979898Y-112197172D01*
X188981390Y-112178871D01*
X188978264Y-112129998D01*
X188943286Y-112004480D01*
X188876149Y-111891353D01*
X188785185Y-111802436D01*
X188678727Y-111749547D01*
X188643277Y-111740288D01*
X188540035Y-111724811D01*
X188450097Y-111736410D01*
X188351516Y-111776922D01*
X188347623Y-111778913D01*
X188242217Y-111860217D01*
X188166519Y-111977705D01*
X188122934Y-112127684D01*
X188106281Y-112230493D01*
X187854368Y-112230493D01*
X187870574Y-112126173D01*
X187908026Y-111982965D01*
X187955107Y-111864061D01*
X187967243Y-111841252D01*
X188062454Y-111715687D01*
X188188124Y-111626417D01*
X188345444Y-111572807D01*
X188535605Y-111554221D01*
X188722677Y-111569796D01*
X188888264Y-111622219D01*
X189022608Y-111711562D01*
X189125672Y-111837799D01*
X189197414Y-112000904D01*
X189216284Y-112072723D01*
X189231449Y-112178871D01*
X189242905Y-112259058D01*
G37*
G36*
X178355882Y-112412181D02*
G01*
X178341929Y-112597832D01*
X178307069Y-112772379D01*
X178250732Y-112925386D01*
X178193676Y-113021721D01*
X178104841Y-113109434D01*
X177986819Y-113168563D01*
X177966737Y-113174904D01*
X177853082Y-113193086D01*
X177724418Y-113192357D01*
X177605158Y-113172467D01*
X177600992Y-113171268D01*
X177519290Y-113134567D01*
X177437274Y-113078115D01*
X177370170Y-113014101D01*
X177333203Y-112954717D01*
X177312558Y-112912762D01*
X177293042Y-112913117D01*
X177278748Y-112953240D01*
X177273200Y-113028779D01*
X177273200Y-113149731D01*
X177152248Y-113149731D01*
X177031295Y-113149731D01*
X177031295Y-112363541D01*
X177297390Y-112363541D01*
X177304755Y-112530624D01*
X177334371Y-112697332D01*
X177387817Y-112825768D01*
X177466320Y-112918690D01*
X177571108Y-112978859D01*
X177601947Y-112989170D01*
X177731715Y-113004258D01*
X177852921Y-112975303D01*
X177956948Y-112905651D01*
X178035177Y-112798650D01*
X178035615Y-112797774D01*
X178056165Y-112749408D01*
X178069997Y-112694730D01*
X178078348Y-112623231D01*
X178082456Y-112524401D01*
X178083558Y-112387731D01*
X178082949Y-112312075D01*
X178077573Y-112167115D01*
X178067119Y-112055498D01*
X178052168Y-111984664D01*
X178042077Y-111958708D01*
X177971389Y-111847177D01*
X177872747Y-111773040D01*
X177751704Y-111739282D01*
X177613811Y-111748891D01*
X177575227Y-111759189D01*
X177470768Y-111810861D01*
X177392419Y-111893899D01*
X177338516Y-112011536D01*
X177307394Y-112167006D01*
X177297390Y-112363541D01*
X177031295Y-112363541D01*
X177031295Y-112061160D01*
X177031295Y-110972588D01*
X177165446Y-110972588D01*
X177299596Y-110972588D01*
X177292446Y-111383857D01*
X177290814Y-111491923D01*
X177289661Y-111612792D01*
X177289525Y-111708845D01*
X177290407Y-111772230D01*
X177292312Y-111795095D01*
X177302408Y-111787402D01*
X177338053Y-111753226D01*
X177389074Y-111700979D01*
X177396512Y-111693368D01*
X177512271Y-111609669D01*
X177648189Y-111562435D01*
X177793870Y-111551280D01*
X177938922Y-111575821D01*
X178072950Y-111635672D01*
X178185560Y-111730450D01*
X178214014Y-111767296D01*
X178277995Y-111892985D01*
X178323346Y-112049321D01*
X178349498Y-112225865D01*
X178355044Y-112387731D01*
X178355882Y-112412181D01*
G37*
G36*
X192148783Y-90814492D02*
G01*
X192142573Y-90836145D01*
X192115253Y-90931822D01*
X192079880Y-91056142D01*
X192040344Y-91195420D01*
X192000536Y-91335969D01*
X191899605Y-91692779D01*
X191808192Y-91692779D01*
X191784372Y-91693498D01*
X191758917Y-91693842D01*
X191738982Y-91688150D01*
X191722003Y-91670604D01*
X191705420Y-91635387D01*
X191686669Y-91576680D01*
X191663187Y-91488667D01*
X191632414Y-91365528D01*
X191591785Y-91201447D01*
X191584487Y-91172520D01*
X191555259Y-91064421D01*
X191529179Y-90979510D01*
X191508856Y-90925765D01*
X191496897Y-90911162D01*
X191490500Y-90925401D01*
X191472989Y-90980782D01*
X191448172Y-91069404D01*
X191418362Y-91182899D01*
X191385870Y-91312899D01*
X191292609Y-91695020D01*
X191196281Y-91687852D01*
X191099953Y-91680684D01*
X190950601Y-91172684D01*
X190801248Y-90664684D01*
X190874110Y-90656874D01*
X190930256Y-90657124D01*
X190965025Y-90668969D01*
X190971395Y-90683017D01*
X190988940Y-90738221D01*
X191013782Y-90826691D01*
X191043598Y-90940039D01*
X191076063Y-91069874D01*
X191097924Y-91157684D01*
X191128432Y-91274196D01*
X191154606Y-91367125D01*
X191174204Y-91428630D01*
X191184986Y-91450874D01*
X191186508Y-91449887D01*
X191199889Y-91419184D01*
X191221288Y-91351907D01*
X191248089Y-91256759D01*
X191277678Y-91142445D01*
X191308829Y-91016669D01*
X191341813Y-90883793D01*
X191366880Y-90787523D01*
X191386637Y-90722035D01*
X191403690Y-90681510D01*
X191420646Y-90660124D01*
X191440111Y-90652056D01*
X191464692Y-90651485D01*
X191496995Y-90652588D01*
X191517845Y-90652211D01*
X191546305Y-90652336D01*
X191568558Y-90658463D01*
X191587192Y-90676435D01*
X191604795Y-90712092D01*
X191623956Y-90771276D01*
X191647261Y-90859828D01*
X191677298Y-90983590D01*
X191716657Y-91148404D01*
X191726814Y-91190357D01*
X191754806Y-91301408D01*
X191778700Y-91389697D01*
X191796229Y-91447098D01*
X191805126Y-91465488D01*
X191811089Y-91449900D01*
X191827905Y-91393985D01*
X191852879Y-91305108D01*
X191883805Y-91191164D01*
X191918473Y-91060051D01*
X192021750Y-90664684D01*
X192108924Y-90657254D01*
X192196099Y-90649824D01*
X192148783Y-90814492D01*
G37*
G36*
X193222605Y-85451438D02*
G01*
X193363945Y-85502098D01*
X193448372Y-85558315D01*
X193531046Y-85652348D01*
X193580024Y-85761192D01*
X193591224Y-85874855D01*
X193560564Y-85983344D01*
X193560029Y-85984377D01*
X193520522Y-86046927D01*
X193468939Y-86098880D01*
X193398150Y-86143938D01*
X193301023Y-86185804D01*
X193170428Y-86228179D01*
X192999235Y-86274766D01*
X192923881Y-86300721D01*
X192831861Y-86359873D01*
X192778226Y-86432473D01*
X192761993Y-86510301D01*
X192782174Y-86585141D01*
X192837786Y-86648773D01*
X192927843Y-86692979D01*
X193051360Y-86709541D01*
X193090264Y-86708411D01*
X193221403Y-86682996D01*
X193319359Y-86625082D01*
X193381739Y-86535927D01*
X193390594Y-86515315D01*
X193418565Y-86467301D01*
X193456339Y-86447608D01*
X193523152Y-86443691D01*
X193543999Y-86443763D01*
X193598409Y-86448496D01*
X193621293Y-86466297D01*
X193625962Y-86505123D01*
X193604045Y-86609314D01*
X193539528Y-86708924D01*
X193438299Y-86794301D01*
X193306269Y-86858904D01*
X193171623Y-86890802D01*
X193014070Y-86894784D01*
X192860809Y-86867748D01*
X192724421Y-86812048D01*
X192617484Y-86730038D01*
X192588664Y-86690687D01*
X192548593Y-86594151D01*
X192530293Y-86486174D01*
X192538996Y-86389465D01*
X192574800Y-86306844D01*
X192638986Y-86231941D01*
X192735174Y-86167814D01*
X192868822Y-86110885D01*
X193045390Y-86057576D01*
X193078694Y-86048340D01*
X193176771Y-86016024D01*
X193257298Y-85982287D01*
X193305438Y-85953092D01*
X193315003Y-85943572D01*
X193354172Y-85869932D01*
X193350306Y-85786354D01*
X193303489Y-85703267D01*
X193260048Y-85663224D01*
X193202840Y-85639564D01*
X193116013Y-85628000D01*
X193061075Y-85626970D01*
X192943039Y-85649767D01*
X192852366Y-85705728D01*
X192795629Y-85791500D01*
X192787028Y-85812737D01*
X192763912Y-85845944D01*
X192724596Y-85859980D01*
X192653039Y-85862874D01*
X192644733Y-85862847D01*
X192574174Y-85857124D01*
X192541417Y-85835391D01*
X192541803Y-85788949D01*
X192570671Y-85709097D01*
X192593983Y-85663464D01*
X192677896Y-85567210D01*
X192792134Y-85495422D01*
X192927279Y-85450558D01*
X193073909Y-85435078D01*
X193222605Y-85451438D01*
G37*
G36*
X175420348Y-85466064D02*
G01*
X175539577Y-85519684D01*
X175636848Y-85593760D01*
X175706890Y-85683669D01*
X175744435Y-85784791D01*
X175744212Y-85892505D01*
X175700950Y-86002190D01*
X175661855Y-86056713D01*
X175609649Y-86105524D01*
X175539440Y-86148090D01*
X175443815Y-86188054D01*
X175315361Y-86229064D01*
X175146663Y-86274766D01*
X175064763Y-86304919D01*
X174977134Y-86364807D01*
X174921894Y-86439564D01*
X174907025Y-86520987D01*
X174914166Y-86556318D01*
X174957948Y-86627357D01*
X175031255Y-86676875D01*
X175124291Y-86704863D01*
X175227260Y-86711311D01*
X175330365Y-86696212D01*
X175423810Y-86659557D01*
X175497799Y-86601338D01*
X175542536Y-86521545D01*
X175552306Y-86491446D01*
X175572880Y-86458983D01*
X175610827Y-86445881D01*
X175681631Y-86443445D01*
X175709020Y-86443705D01*
X175768476Y-86450397D01*
X175792788Y-86472866D01*
X175785927Y-86520000D01*
X175751860Y-86600684D01*
X175683673Y-86711185D01*
X175587010Y-86795687D01*
X175453698Y-86858809D01*
X175343705Y-86886942D01*
X175186067Y-86897254D01*
X175032423Y-86877241D01*
X174900374Y-86827887D01*
X174861637Y-86804708D01*
X174761376Y-86716478D01*
X174703451Y-86607680D01*
X174684819Y-86473308D01*
X174685650Y-86423635D01*
X174695020Y-86359154D01*
X174722237Y-86308481D01*
X174776367Y-86249444D01*
X174788652Y-86237504D01*
X174832561Y-86201146D01*
X174885736Y-86168780D01*
X174955723Y-86137311D01*
X175050067Y-86103641D01*
X175176316Y-86064673D01*
X175342015Y-86017311D01*
X175409921Y-85987460D01*
X175474295Y-85925533D01*
X175504294Y-85848661D01*
X175496377Y-85767752D01*
X175447005Y-85693715D01*
X175388985Y-85654044D01*
X175289908Y-85625700D01*
X175182796Y-85627792D01*
X175080630Y-85657802D01*
X174996390Y-85713211D01*
X174943058Y-85791500D01*
X174934456Y-85812737D01*
X174911340Y-85845944D01*
X174872024Y-85859980D01*
X174800468Y-85862874D01*
X174769725Y-85862538D01*
X174712439Y-85855497D01*
X174689479Y-85832467D01*
X174696985Y-85784545D01*
X174731098Y-85702828D01*
X174731586Y-85701758D01*
X174809990Y-85586785D01*
X174924466Y-85501677D01*
X175070747Y-85449616D01*
X175137096Y-85438670D01*
X175284431Y-85437518D01*
X175420348Y-85466064D01*
G37*
G36*
X194641962Y-112169950D02*
G01*
X194641962Y-112579333D01*
X194641962Y-113153297D01*
X194152105Y-113145467D01*
X194018699Y-113143260D01*
X193885227Y-113140344D01*
X193785805Y-113136376D01*
X193712396Y-113130335D01*
X193656963Y-113121203D01*
X193611469Y-113107960D01*
X193567879Y-113089587D01*
X193518156Y-113065064D01*
X193407003Y-112999456D01*
X193306622Y-112907297D01*
X193245706Y-112798430D01*
X193219444Y-112666432D01*
X193217691Y-112611679D01*
X193487526Y-112611679D01*
X193488285Y-112620891D01*
X193518146Y-112742078D01*
X193584833Y-112833155D01*
X193691709Y-112898849D01*
X193697023Y-112900977D01*
X193775279Y-112918254D01*
X193900323Y-112928584D01*
X194072709Y-112932017D01*
X194375867Y-112932017D01*
X194375867Y-112579333D01*
X194375867Y-112226648D01*
X194067438Y-112234618D01*
X193997164Y-112236743D01*
X193874136Y-112243137D01*
X193784626Y-112253065D01*
X193718454Y-112267904D01*
X193665439Y-112289033D01*
X193629916Y-112308525D01*
X193542134Y-112384962D01*
X193495499Y-112484512D01*
X193487526Y-112611679D01*
X193217691Y-112611679D01*
X193215700Y-112549524D01*
X193227437Y-112461242D01*
X193259221Y-112388203D01*
X193315426Y-112314368D01*
X193368632Y-112259959D01*
X193480743Y-112183588D01*
X193619128Y-112137487D01*
X193710629Y-112117482D01*
X193614197Y-112076071D01*
X193501688Y-112013755D01*
X193407782Y-111919416D01*
X193353283Y-111798769D01*
X193339499Y-111680696D01*
X193601771Y-111680696D01*
X193621182Y-111801792D01*
X193680364Y-111897878D01*
X193778757Y-111965767D01*
X193824970Y-111983621D01*
X193898965Y-112000433D01*
X193995708Y-112009411D01*
X194127914Y-112012247D01*
X194375867Y-112012779D01*
X194375867Y-111694679D01*
X194375867Y-111376578D01*
X194113488Y-111390420D01*
X193973740Y-111401295D01*
X193828257Y-111425425D01*
X193722659Y-111462968D01*
X193652605Y-111516386D01*
X193613757Y-111588141D01*
X193601771Y-111680696D01*
X193339499Y-111680696D01*
X193335676Y-111647945D01*
X193340701Y-111569954D01*
X193378533Y-111445868D01*
X193456034Y-111346966D01*
X193576298Y-111268370D01*
X193592099Y-111260662D01*
X193638507Y-111239655D01*
X193683407Y-111224206D01*
X193735114Y-111213291D01*
X193801943Y-111205886D01*
X193892206Y-111200969D01*
X194014219Y-111197515D01*
X194176295Y-111194501D01*
X194641962Y-111186603D01*
X194641962Y-111694679D01*
X194641962Y-112169950D01*
G37*
G36*
X190495657Y-111563231D02*
G01*
X190657586Y-111603490D01*
X190788166Y-111672440D01*
X190883497Y-111767877D01*
X190939681Y-111887598D01*
X190940751Y-111891631D01*
X190956138Y-112029317D01*
X190926652Y-112150023D01*
X190853139Y-112252555D01*
X190736448Y-112335718D01*
X190577426Y-112398316D01*
X190472317Y-112428739D01*
X190345968Y-112465470D01*
X190236985Y-112497305D01*
X190146222Y-112528805D01*
X190035878Y-112590247D01*
X189970531Y-112665291D01*
X189949009Y-112754987D01*
X189949204Y-112764294D01*
X189975051Y-112854180D01*
X190041515Y-112924307D01*
X190144523Y-112972689D01*
X190279999Y-112997338D01*
X190443870Y-112996269D01*
X190522657Y-112986880D01*
X190634014Y-112956277D01*
X190712618Y-112904253D01*
X190767131Y-112826253D01*
X190792572Y-112785234D01*
X190826848Y-112770466D01*
X190888084Y-112776934D01*
X190957846Y-112793182D01*
X190996175Y-112819265D01*
X190995823Y-112863380D01*
X190961546Y-112935810D01*
X190945534Y-112962372D01*
X190850889Y-113062613D01*
X190718558Y-113132561D01*
X190548507Y-113172234D01*
X190475271Y-113181719D01*
X190407625Y-113190413D01*
X190372343Y-113194862D01*
X190368542Y-113195247D01*
X190298721Y-113191568D01*
X190202743Y-113174755D01*
X190098118Y-113149066D01*
X190002358Y-113118755D01*
X189932972Y-113088078D01*
X189871364Y-113044997D01*
X189781299Y-112943048D01*
X189728988Y-112822427D01*
X189717670Y-112692469D01*
X189750585Y-112562510D01*
X189765829Y-112530230D01*
X189805798Y-112465787D01*
X189857975Y-112412547D01*
X189929424Y-112366466D01*
X190027212Y-112323498D01*
X190158402Y-112279598D01*
X190330060Y-112230721D01*
X190401837Y-112210760D01*
X190523654Y-112172604D01*
X190608424Y-112137053D01*
X190663313Y-112099846D01*
X190695481Y-112056720D01*
X190712093Y-112003414D01*
X190716220Y-111932038D01*
X190686267Y-111849040D01*
X190614367Y-111789387D01*
X190500937Y-111753377D01*
X190346391Y-111741308D01*
X190273704Y-111743679D01*
X190145294Y-111765712D01*
X190055124Y-111811953D01*
X189999970Y-111883729D01*
X189996295Y-111891294D01*
X189959543Y-111929410D01*
X189895100Y-111939837D01*
X189830300Y-111936052D01*
X189779963Y-111917066D01*
X189768776Y-111876875D01*
X189792181Y-111809713D01*
X189806048Y-111783544D01*
X189890466Y-111685960D01*
X190011953Y-111613608D01*
X190165877Y-111568628D01*
X190347606Y-111553160D01*
X190495657Y-111563231D01*
G37*
G36*
X183819943Y-91505051D02*
G01*
X183771807Y-91603835D01*
X183683324Y-91688146D01*
X183590608Y-91728289D01*
X183470658Y-91739430D01*
X183345329Y-91717349D01*
X183229348Y-91662866D01*
X183133502Y-91599438D01*
X183107031Y-91657536D01*
X183099710Y-91670985D01*
X183051951Y-91715191D01*
X182987690Y-91738595D01*
X182921475Y-91740261D01*
X182867853Y-91719254D01*
X182841375Y-91674636D01*
X182844870Y-91633630D01*
X182878870Y-91620207D01*
X182896138Y-91619537D01*
X182929050Y-91610467D01*
X182952423Y-91585614D01*
X182967855Y-91538464D01*
X182976947Y-91462502D01*
X182981299Y-91351214D01*
X182981701Y-91300349D01*
X183127295Y-91300349D01*
X183139516Y-91404718D01*
X183185179Y-91493783D01*
X183267859Y-91556956D01*
X183292775Y-91568880D01*
X183403905Y-91602930D01*
X183504023Y-91604829D01*
X183585210Y-91576923D01*
X183639547Y-91521557D01*
X183659115Y-91441077D01*
X183658376Y-91417609D01*
X183646463Y-91358360D01*
X183614532Y-91313753D01*
X183555535Y-91279101D01*
X183462426Y-91249715D01*
X183328158Y-91220908D01*
X183303341Y-91216170D01*
X183218781Y-91200189D01*
X183158192Y-91188999D01*
X183133343Y-91184783D01*
X183131325Y-91191439D01*
X183128432Y-91233110D01*
X183127295Y-91300349D01*
X182981701Y-91300349D01*
X182982509Y-91198084D01*
X182983378Y-91090358D01*
X182988599Y-90937101D01*
X182998508Y-90831394D01*
X183013084Y-90773541D01*
X183047115Y-90726735D01*
X183128339Y-90672099D01*
X183234134Y-90639444D01*
X183353382Y-90628448D01*
X183474966Y-90638790D01*
X183587767Y-90670148D01*
X183680667Y-90722202D01*
X183742548Y-90794629D01*
X183764156Y-90840228D01*
X183779550Y-90900808D01*
X183761036Y-90933246D01*
X183707348Y-90942874D01*
X183645616Y-90930343D01*
X183607919Y-90885065D01*
X183598542Y-90867531D01*
X183541030Y-90811270D01*
X183461494Y-90779608D01*
X183371188Y-90771192D01*
X183281363Y-90784667D01*
X183203271Y-90818680D01*
X183148165Y-90871876D01*
X183127295Y-90942902D01*
X183128799Y-90961058D01*
X183147564Y-91018801D01*
X183179008Y-91067515D01*
X183211939Y-91088017D01*
X183259253Y-91091339D01*
X183343084Y-91102892D01*
X183440768Y-91119910D01*
X183536850Y-91139436D01*
X183615878Y-91158515D01*
X183662399Y-91174190D01*
X183726117Y-91216330D01*
X183796714Y-91301851D01*
X183828117Y-91401240D01*
X183824980Y-91441077D01*
X183819943Y-91505051D01*
G37*
G36*
X185570533Y-112169950D02*
G01*
X185570533Y-112578881D01*
X185570533Y-113153297D01*
X185080676Y-113145467D01*
X185068338Y-113145268D01*
X184902583Y-113142188D01*
X184776777Y-113138491D01*
X184683002Y-113133352D01*
X184613341Y-113125949D01*
X184559877Y-113115457D01*
X184514691Y-113101052D01*
X184469867Y-113081910D01*
X184365068Y-113024642D01*
X184249248Y-112928263D01*
X184176602Y-112817889D01*
X184168249Y-112795191D01*
X184149302Y-112698696D01*
X184144726Y-112587481D01*
X184151319Y-112515779D01*
X184415971Y-112515779D01*
X184416097Y-112611679D01*
X184416857Y-112620891D01*
X184446717Y-112742078D01*
X184513405Y-112833155D01*
X184620280Y-112898849D01*
X184625594Y-112900977D01*
X184703850Y-112918254D01*
X184828895Y-112928584D01*
X185001280Y-112932017D01*
X185304438Y-112932017D01*
X185304438Y-112578881D01*
X185304438Y-112225746D01*
X184983914Y-112234793D01*
X184845881Y-112240482D01*
X184718010Y-112252340D01*
X184623277Y-112272235D01*
X184553427Y-112302858D01*
X184500205Y-112346899D01*
X184455355Y-112407048D01*
X184435452Y-112443574D01*
X184415971Y-112515779D01*
X184151319Y-112515779D01*
X184154436Y-112481876D01*
X184178345Y-112402216D01*
X184204561Y-112358682D01*
X184302649Y-112255441D01*
X184434311Y-112176472D01*
X184590819Y-112127585D01*
X184611844Y-112118977D01*
X184598194Y-112103213D01*
X184542768Y-112076473D01*
X184427419Y-112012752D01*
X184334540Y-111920636D01*
X184281263Y-111803662D01*
X184271996Y-111723676D01*
X184535923Y-111723676D01*
X184539036Y-111749559D01*
X184572945Y-111858923D01*
X184640352Y-111935573D01*
X184745678Y-111985018D01*
X184769916Y-111990765D01*
X184851805Y-112002043D01*
X184957876Y-112009857D01*
X185071387Y-112012779D01*
X185304438Y-112012779D01*
X185304438Y-111694679D01*
X185304438Y-111376578D01*
X185042060Y-111390420D01*
X185016660Y-111391852D01*
X184843175Y-111408617D01*
X184712591Y-111437139D01*
X184620741Y-111480163D01*
X184563458Y-111540431D01*
X184536574Y-111620687D01*
X184535923Y-111723676D01*
X184271996Y-111723676D01*
X184264248Y-111656793D01*
X184273433Y-111537215D01*
X184310448Y-111430862D01*
X184382050Y-111347076D01*
X184494813Y-111274969D01*
X184524358Y-111259851D01*
X184569593Y-111238606D01*
X184613500Y-111223158D01*
X184664361Y-111212409D01*
X184730461Y-111205266D01*
X184820084Y-111200630D01*
X184941514Y-111197407D01*
X185103034Y-111194501D01*
X185570533Y-111186603D01*
X185570533Y-111694679D01*
X185570533Y-112169950D01*
G37*
G36*
X190481200Y-86477693D02*
G01*
X190477913Y-86550236D01*
X190452043Y-86661949D01*
X190395486Y-86750260D01*
X190302346Y-86822853D01*
X190166724Y-86887412D01*
X190140842Y-86892582D01*
X190075190Y-86896340D01*
X189992960Y-86894972D01*
X189943751Y-86891003D01*
X189838881Y-86866319D01*
X189734410Y-86812854D01*
X189613339Y-86737592D01*
X189597824Y-86808233D01*
X189589988Y-86838291D01*
X189571607Y-86865661D01*
X189533059Y-86876777D01*
X189460254Y-86878874D01*
X189338200Y-86878874D01*
X189356018Y-86800255D01*
X189357484Y-86792382D01*
X189363769Y-86733940D01*
X189370572Y-86637865D01*
X189377412Y-86512704D01*
X189383809Y-86367004D01*
X189389280Y-86209313D01*
X189390482Y-86170189D01*
X189610343Y-86170189D01*
X189610343Y-86327745D01*
X189617445Y-86432950D01*
X189649282Y-86531125D01*
X189712666Y-86604478D01*
X189814061Y-86663667D01*
X189897210Y-86693914D01*
X190019353Y-86706450D01*
X190125041Y-86674823D01*
X190211764Y-86599437D01*
X190212318Y-86598729D01*
X190254384Y-86510827D01*
X190259172Y-86414334D01*
X190225732Y-86327737D01*
X190175101Y-86274293D01*
X190093682Y-86230046D01*
X189979787Y-86200894D01*
X189825958Y-86184158D01*
X189610343Y-86170189D01*
X189390482Y-86170189D01*
X189391589Y-86134134D01*
X189397809Y-85965729D01*
X189405874Y-85836358D01*
X189417918Y-85739245D01*
X189436074Y-85667615D01*
X189462476Y-85614691D01*
X189499256Y-85573699D01*
X189548548Y-85537863D01*
X189612486Y-85500407D01*
X189662681Y-85474758D01*
X189726889Y-85453394D01*
X189804428Y-85443273D01*
X189912724Y-85440945D01*
X190070393Y-85454102D01*
X190220575Y-85500930D01*
X190337763Y-85582179D01*
X190423022Y-85698387D01*
X190449583Y-85756696D01*
X190455301Y-85806838D01*
X190423947Y-85831870D01*
X190352035Y-85838684D01*
X190286613Y-85834902D01*
X190245399Y-85817329D01*
X190219481Y-85778152D01*
X190196580Y-85741057D01*
X190122538Y-85678279D01*
X190024148Y-85636465D01*
X189915694Y-85618788D01*
X189811462Y-85628419D01*
X189725737Y-85668530D01*
X189675625Y-85720113D01*
X189625321Y-85822691D01*
X189614644Y-85938624D01*
X189622438Y-86020112D01*
X189888533Y-86033002D01*
X189953906Y-86036500D01*
X190062680Y-86045326D01*
X190141869Y-86058129D01*
X190204238Y-86077386D01*
X190262549Y-86105573D01*
X190325007Y-86144592D01*
X190415200Y-86231889D01*
X190465555Y-86340013D01*
X190474000Y-86414334D01*
X190481200Y-86477693D01*
G37*
G36*
X188732203Y-91554056D02*
G01*
X188674032Y-91643770D01*
X188586469Y-91705863D01*
X188474922Y-91734423D01*
X188341261Y-91731289D01*
X188212468Y-91694937D01*
X188105986Y-91628187D01*
X188081179Y-91608196D01*
X188059547Y-91610154D01*
X188039433Y-91652625D01*
X188030610Y-91670538D01*
X187984113Y-91715053D01*
X187920986Y-91738927D01*
X187855669Y-91740954D01*
X187802604Y-91719926D01*
X187776232Y-91674636D01*
X187777498Y-91639259D01*
X187804742Y-91620207D01*
X187832796Y-91613138D01*
X187878996Y-91582194D01*
X187884638Y-91575718D01*
X187898148Y-91547970D01*
X187907444Y-91501589D01*
X187913222Y-91429146D01*
X187916179Y-91323206D01*
X187916233Y-91313690D01*
X188062152Y-91313690D01*
X188063013Y-91365487D01*
X188071924Y-91426935D01*
X188097374Y-91472048D01*
X188147661Y-91520939D01*
X188173833Y-91542265D01*
X188233909Y-91580763D01*
X188278730Y-91596017D01*
X188304730Y-91597251D01*
X188356507Y-91605904D01*
X188389378Y-91609295D01*
X188459839Y-91594874D01*
X188528106Y-91562656D01*
X188571085Y-91521702D01*
X188590643Y-91452321D01*
X188575338Y-91368904D01*
X188521494Y-91301661D01*
X188477025Y-91278594D01*
X188396076Y-91251771D01*
X188303780Y-91231828D01*
X188225390Y-91218776D01*
X188149721Y-91204648D01*
X188104486Y-91194327D01*
X188090518Y-91191421D01*
X188072388Y-91200587D01*
X188064119Y-91238001D01*
X188062152Y-91313690D01*
X187916233Y-91313690D01*
X187917009Y-91176338D01*
X187917068Y-91131957D01*
X187918509Y-90995150D01*
X187922433Y-90896670D01*
X187929576Y-90828616D01*
X187940672Y-90783086D01*
X187956457Y-90752177D01*
X187971134Y-90733636D01*
X188052885Y-90673188D01*
X188160269Y-90637666D01*
X188281661Y-90626223D01*
X188405434Y-90638017D01*
X188519965Y-90672201D01*
X188613627Y-90727933D01*
X188674797Y-90804366D01*
X188703507Y-90870965D01*
X188710663Y-90916794D01*
X188687308Y-90937824D01*
X188630629Y-90942874D01*
X188567134Y-90934480D01*
X188545962Y-90908344D01*
X188528561Y-90862179D01*
X188473216Y-90816992D01*
X188390980Y-90785418D01*
X188293261Y-90773541D01*
X188228444Y-90777522D01*
X188135461Y-90807068D01*
X188080330Y-90866012D01*
X188062152Y-90955060D01*
X188062185Y-90960264D01*
X188068849Y-91011391D01*
X188092533Y-91047935D01*
X188141051Y-91074311D01*
X188222221Y-91094937D01*
X188343857Y-91114227D01*
X188369403Y-91117909D01*
X188501508Y-91143497D01*
X188596924Y-91177393D01*
X188665638Y-91224260D01*
X188717636Y-91288763D01*
X188743758Y-91344605D01*
X188756830Y-91449930D01*
X188756265Y-91452321D01*
X188732203Y-91554056D01*
G37*
G36*
X183707867Y-86492251D02*
G01*
X183701342Y-86564387D01*
X183655240Y-86686529D01*
X183567612Y-86788040D01*
X183441599Y-86864529D01*
X183437587Y-86866242D01*
X183305224Y-86898709D01*
X183162245Y-86895502D01*
X183025135Y-86858896D01*
X182910382Y-86791169D01*
X182866192Y-86755206D01*
X182840989Y-86747936D01*
X182823344Y-86775210D01*
X182801483Y-86842588D01*
X182791942Y-86857186D01*
X182748764Y-86873796D01*
X182665847Y-86878874D01*
X182625737Y-86878518D01*
X182573477Y-86874072D01*
X182555229Y-86861383D01*
X182561332Y-86836541D01*
X182563449Y-86829379D01*
X182570072Y-86778768D01*
X182576908Y-86690175D01*
X182583503Y-86571360D01*
X182589404Y-86430086D01*
X182594159Y-86274112D01*
X182595081Y-86238079D01*
X182597134Y-86170164D01*
X182837009Y-86170164D01*
X182837009Y-86338345D01*
X182837061Y-86363158D01*
X182839773Y-86444948D01*
X182850345Y-86497894D01*
X182873917Y-86537833D01*
X182915629Y-86580599D01*
X182931176Y-86594424D01*
X183005104Y-86647027D01*
X183076476Y-86682106D01*
X183158957Y-86703238D01*
X183263359Y-86702813D01*
X183359032Y-86663930D01*
X183377305Y-86651941D01*
X183450302Y-86575026D01*
X183479428Y-86481244D01*
X183462564Y-86376484D01*
X183448414Y-86344829D01*
X183396505Y-86279965D01*
X183316098Y-86233599D01*
X183200903Y-86202844D01*
X183044629Y-86184816D01*
X182837009Y-86170164D01*
X182597134Y-86170164D01*
X182600316Y-86064883D01*
X182606163Y-85932456D01*
X182613202Y-85834349D01*
X182622008Y-85764111D01*
X182633160Y-85715293D01*
X182647235Y-85681445D01*
X182692627Y-85614828D01*
X182797521Y-85521837D01*
X182927230Y-85460246D01*
X183073089Y-85431326D01*
X183226436Y-85436347D01*
X183378607Y-85476581D01*
X183520938Y-85553297D01*
X183531297Y-85561382D01*
X183581639Y-85615791D01*
X183631072Y-85687553D01*
X183668711Y-85759266D01*
X183683676Y-85813529D01*
X183676648Y-85822154D01*
X183634155Y-85834050D01*
X183565346Y-85838684D01*
X183531521Y-85838359D01*
X183474663Y-85832570D01*
X183446125Y-85814445D01*
X183431649Y-85777457D01*
X183419620Y-85747793D01*
X183363790Y-85689011D01*
X183278838Y-85645969D01*
X183177359Y-85622262D01*
X183071946Y-85621481D01*
X182975193Y-85647221D01*
X182970827Y-85649292D01*
X182901435Y-85708157D01*
X182854354Y-85798486D01*
X182837009Y-85906352D01*
X182837305Y-85928837D01*
X182843763Y-85976649D01*
X182865097Y-86006917D01*
X182909675Y-86023617D01*
X182985867Y-86030722D01*
X183102042Y-86032207D01*
X183221373Y-86038094D01*
X183391206Y-86072663D01*
X183526761Y-86136874D01*
X183626049Y-86229216D01*
X183687081Y-86348179D01*
X183706279Y-86481244D01*
X183707867Y-86492251D01*
G37*
G36*
X186586533Y-73017433D02*
G01*
X186586533Y-77130112D01*
X185824533Y-77130112D01*
X185062533Y-77130112D01*
X185062369Y-76241112D01*
X185062542Y-76122195D01*
X185063538Y-75902656D01*
X185065344Y-75647707D01*
X185067876Y-75365235D01*
X185071049Y-75063124D01*
X185074777Y-74749262D01*
X185078977Y-74431532D01*
X185083563Y-74117822D01*
X185088451Y-73816017D01*
X185089228Y-73770271D01*
X185093645Y-73499272D01*
X185097562Y-73240091D01*
X185100927Y-72997298D01*
X185103692Y-72775462D01*
X185105806Y-72579152D01*
X185107220Y-72412938D01*
X185107883Y-72281388D01*
X185107746Y-72189073D01*
X185106758Y-72140561D01*
X185105938Y-72127906D01*
X185104316Y-72114623D01*
X185101337Y-72105992D01*
X185096245Y-72103751D01*
X185088286Y-72109636D01*
X185076704Y-72125385D01*
X185060744Y-72152734D01*
X185039650Y-72193423D01*
X185012666Y-72249186D01*
X184979038Y-72321763D01*
X184938010Y-72412889D01*
X184888827Y-72524302D01*
X184830732Y-72657739D01*
X184762972Y-72814938D01*
X184684789Y-72997635D01*
X184595430Y-73207569D01*
X184494138Y-73446475D01*
X184380158Y-73716091D01*
X184252734Y-74018155D01*
X184111112Y-74354404D01*
X183954536Y-74726574D01*
X183782250Y-75136403D01*
X183593499Y-75585629D01*
X183387528Y-76075988D01*
X183163581Y-76609218D01*
X181228343Y-81217235D01*
X180668987Y-81217769D01*
X180109631Y-81218303D01*
X179176198Y-78998826D01*
X179104789Y-78829030D01*
X178975662Y-78521969D01*
X178852018Y-78227924D01*
X178735187Y-77950052D01*
X178626494Y-77691512D01*
X178527268Y-77455462D01*
X178438836Y-77245060D01*
X178362525Y-77063464D01*
X178299662Y-76913831D01*
X178251576Y-76799321D01*
X178219593Y-76723092D01*
X178205041Y-76688300D01*
X178167318Y-76597250D01*
X178944964Y-76603633D01*
X179722610Y-76610017D01*
X180185465Y-77719141D01*
X180202843Y-77760740D01*
X180293426Y-77976116D01*
X180378618Y-78176312D01*
X180456555Y-78357104D01*
X180525376Y-78514272D01*
X180583218Y-78643595D01*
X180628217Y-78740849D01*
X180658510Y-78801814D01*
X180672236Y-78822269D01*
X180673683Y-78820216D01*
X180690341Y-78785005D01*
X180724455Y-78707708D01*
X180775179Y-78590340D01*
X180841667Y-78434913D01*
X180923073Y-78243440D01*
X181018550Y-78017933D01*
X181127252Y-77760406D01*
X181248333Y-77472872D01*
X181380947Y-77157343D01*
X181524248Y-76815832D01*
X181677388Y-76450353D01*
X181839523Y-76062918D01*
X182009806Y-75655540D01*
X182187390Y-75230233D01*
X182371430Y-74789008D01*
X182561078Y-74333879D01*
X182755490Y-73866859D01*
X184814827Y-68917445D01*
X185700680Y-68911100D01*
X186586533Y-68904754D01*
X186586533Y-73017433D01*
G37*
G36*
X192883616Y-112772227D02*
G01*
X192860112Y-112897416D01*
X192812677Y-113008146D01*
X192742948Y-113094407D01*
X192652562Y-113146191D01*
X192582658Y-113166811D01*
X192525295Y-113181892D01*
X192464535Y-113186664D01*
X192371971Y-113181333D01*
X192270846Y-113167097D01*
X192180953Y-113146020D01*
X192133098Y-113121628D01*
X192060347Y-113065129D01*
X191984658Y-112989587D01*
X191866609Y-112857139D01*
X191851695Y-112950408D01*
X191842665Y-112989370D01*
X191791576Y-113080826D01*
X191707254Y-113142494D01*
X191595537Y-113171177D01*
X191462266Y-113163676D01*
X191410866Y-113150561D01*
X191382526Y-113125392D01*
X191376248Y-113076064D01*
X191378054Y-113041642D01*
X191395694Y-113011308D01*
X191444196Y-113004588D01*
X191498963Y-112996505D01*
X191559100Y-112970299D01*
X191566031Y-112964787D01*
X191579989Y-112947861D01*
X191590665Y-112920633D01*
X191598727Y-112876758D01*
X191604840Y-112809890D01*
X191609672Y-112713683D01*
X191613887Y-112581792D01*
X191618152Y-112407871D01*
X191619023Y-112370414D01*
X191619032Y-112370102D01*
X191854756Y-112370102D01*
X191871887Y-112499869D01*
X191875989Y-112528107D01*
X191920197Y-112695589D01*
X191994117Y-112825521D01*
X192098728Y-112919190D01*
X192235009Y-112977887D01*
X192283197Y-112990323D01*
X192354050Y-113001503D01*
X192412693Y-112994758D01*
X192481057Y-112969324D01*
X192507643Y-112956286D01*
X192570379Y-112902798D01*
X192604130Y-112823610D01*
X192613631Y-112709436D01*
X192605111Y-112613362D01*
X192573335Y-112526799D01*
X192513472Y-112463364D01*
X192420730Y-112419878D01*
X192290321Y-112393160D01*
X192117454Y-112380030D01*
X191854756Y-112370102D01*
X191619032Y-112370102D01*
X191624053Y-112189115D01*
X191630546Y-112048124D01*
X191640063Y-111940598D01*
X191654168Y-111859698D01*
X191674423Y-111798582D01*
X191702392Y-111750410D01*
X191739635Y-111708341D01*
X191787717Y-111665535D01*
X191847399Y-111623794D01*
X191957340Y-111579663D01*
X192096048Y-111558408D01*
X192271295Y-111558305D01*
X192370024Y-111567163D01*
X192535143Y-111605809D01*
X192661017Y-111672507D01*
X192747542Y-111767190D01*
X192794612Y-111889791D01*
X192800395Y-111926479D01*
X192793521Y-111957215D01*
X192761152Y-111964398D01*
X192708483Y-111968362D01*
X192638642Y-111979224D01*
X192635585Y-111979829D01*
X192586264Y-111983992D01*
X192556321Y-111963868D01*
X192528781Y-111908534D01*
X192504224Y-111859840D01*
X192441151Y-111791339D01*
X192350770Y-111752976D01*
X192224982Y-111740267D01*
X192154577Y-111742940D01*
X192037052Y-111770840D01*
X191954217Y-111831265D01*
X191902994Y-111927083D01*
X191880306Y-112061160D01*
X191872152Y-112194207D01*
X192186629Y-112208708D01*
X192264751Y-112212891D01*
X192422567Y-112227071D01*
X192544180Y-112249124D01*
X192638068Y-112281631D01*
X192712707Y-112327171D01*
X192776574Y-112388327D01*
X192794157Y-112409990D01*
X192852276Y-112518505D01*
X192881550Y-112642587D01*
X192882615Y-112709436D01*
X192883616Y-112772227D01*
G37*
G36*
X181995079Y-112742489D02*
G01*
X181994312Y-112768250D01*
X181969337Y-112918921D01*
X181909559Y-113036104D01*
X181814687Y-113120199D01*
X181684431Y-113171610D01*
X181681203Y-113172360D01*
X181564411Y-113184138D01*
X181429607Y-113175179D01*
X181300914Y-113147031D01*
X181260930Y-113131133D01*
X181152916Y-113055527D01*
X181048540Y-112934448D01*
X180990089Y-112852213D01*
X180958516Y-112960493D01*
X180949017Y-112989282D01*
X180915987Y-113061735D01*
X180881072Y-113110286D01*
X180870252Y-113119074D01*
X180790570Y-113155176D01*
X180686693Y-113171092D01*
X180576552Y-113163676D01*
X180525152Y-113150561D01*
X180496812Y-113125392D01*
X180490533Y-113076064D01*
X180492340Y-113041642D01*
X180509980Y-113011308D01*
X180558481Y-113004588D01*
X180613249Y-112996501D01*
X180673386Y-112970283D01*
X180680311Y-112964773D01*
X180694270Y-112947843D01*
X180704948Y-112920613D01*
X180713012Y-112876737D01*
X180719128Y-112809869D01*
X180723962Y-112713663D01*
X180728181Y-112581774D01*
X180732451Y-112407854D01*
X180733201Y-112375636D01*
X180968768Y-112375636D01*
X180986115Y-112514478D01*
X180987177Y-112522679D01*
X181028449Y-112689449D01*
X181102728Y-112821123D01*
X181209761Y-112917377D01*
X181349295Y-112977887D01*
X181397483Y-112990323D01*
X181468335Y-113001503D01*
X181526979Y-112994758D01*
X181595343Y-112969324D01*
X181645217Y-112942144D01*
X181692635Y-112890652D01*
X181717223Y-112814226D01*
X181724248Y-112701937D01*
X181723920Y-112669106D01*
X181717125Y-112595936D01*
X181696580Y-112545026D01*
X181655817Y-112497008D01*
X181641939Y-112483831D01*
X181567738Y-112433303D01*
X181472336Y-112399935D01*
X181347057Y-112381499D01*
X181183222Y-112375771D01*
X180968768Y-112375636D01*
X180733201Y-112375636D01*
X180733321Y-112370499D01*
X180738355Y-112189175D01*
X180744851Y-112048162D01*
X180754370Y-111940619D01*
X180768475Y-111859705D01*
X180788728Y-111798580D01*
X180816692Y-111750404D01*
X180853930Y-111708336D01*
X180902002Y-111665535D01*
X180963786Y-111622614D01*
X181073461Y-111579217D01*
X181212011Y-111558187D01*
X181387269Y-111557784D01*
X181475140Y-111563400D01*
X181565438Y-111575874D01*
X181636283Y-111597433D01*
X181704361Y-111631981D01*
X181787872Y-111689938D01*
X181867698Y-111781569D01*
X181909325Y-111891930D01*
X181914652Y-111925334D01*
X181908092Y-111956930D01*
X181875438Y-111964398D01*
X181822769Y-111968362D01*
X181752927Y-111979224D01*
X181749871Y-111979829D01*
X181700549Y-111983992D01*
X181670607Y-111963868D01*
X181643067Y-111908534D01*
X181630483Y-111881436D01*
X181568827Y-111802463D01*
X181479386Y-111756634D01*
X181355415Y-111739996D01*
X181259380Y-111743347D01*
X181145152Y-111772129D01*
X181065487Y-111832451D01*
X181016612Y-111927675D01*
X180994753Y-112061160D01*
X180986438Y-112194207D01*
X181300914Y-112208411D01*
X181349924Y-112210834D01*
X181509876Y-112223298D01*
X181633170Y-112242764D01*
X181728984Y-112271795D01*
X181806495Y-112312957D01*
X181874879Y-112368814D01*
X181942820Y-112459911D01*
X181983550Y-112583897D01*
X181992131Y-112701937D01*
X181995079Y-112742489D01*
G37*
G36*
X193099389Y-68959393D02*
G01*
X193754385Y-68965826D01*
X195285930Y-73029826D01*
X195376452Y-73270060D01*
X195534312Y-73689132D01*
X195687052Y-74094789D01*
X195833820Y-74484755D01*
X195973760Y-74856755D01*
X196106020Y-75208514D01*
X196229745Y-75537756D01*
X196344080Y-75842207D01*
X196448173Y-76119591D01*
X196541169Y-76367634D01*
X196622215Y-76584060D01*
X196690455Y-76766593D01*
X196745037Y-76912960D01*
X196785106Y-77020884D01*
X196809808Y-77088090D01*
X196818289Y-77112304D01*
X196810341Y-77114895D01*
X196761684Y-77118762D01*
X196673692Y-77121834D01*
X196552073Y-77124022D01*
X196402534Y-77125239D01*
X196230781Y-77125394D01*
X196042523Y-77124400D01*
X195265942Y-77118017D01*
X194187168Y-74172287D01*
X194092742Y-73914692D01*
X193949873Y-73525939D01*
X193815330Y-73161075D01*
X193689853Y-72822066D01*
X193574182Y-72510876D01*
X193469055Y-72229468D01*
X193375213Y-71979807D01*
X193293393Y-71763856D01*
X193224335Y-71583581D01*
X193168779Y-71440944D01*
X193127464Y-71337911D01*
X193101128Y-71276445D01*
X193090512Y-71258510D01*
X193090206Y-71259159D01*
X193078410Y-71289661D01*
X193050786Y-71363258D01*
X193008102Y-71477871D01*
X192951126Y-71631419D01*
X192880624Y-71821823D01*
X192797364Y-72047001D01*
X192702113Y-72304873D01*
X192595639Y-72593360D01*
X192478708Y-72910380D01*
X192352089Y-73253855D01*
X192216548Y-73621703D01*
X192072852Y-74011845D01*
X191921770Y-74422199D01*
X191764068Y-74850687D01*
X191600513Y-75295227D01*
X191431874Y-75753740D01*
X191258916Y-76224145D01*
X191241151Y-76272470D01*
X191068428Y-76742295D01*
X190900039Y-77200299D01*
X190736758Y-77644383D01*
X190579355Y-78072449D01*
X190428604Y-78482397D01*
X190285276Y-78872126D01*
X190150145Y-79239538D01*
X190023982Y-79582534D01*
X189907559Y-79899014D01*
X189801649Y-80186879D01*
X189707024Y-80444028D01*
X189624457Y-80668364D01*
X189554720Y-80857786D01*
X189498585Y-81010195D01*
X189456824Y-81123492D01*
X189430209Y-81195576D01*
X189419514Y-81224350D01*
X189393826Y-81290874D01*
X188595540Y-81290874D01*
X187797255Y-81290874D01*
X187822659Y-81224350D01*
X187826158Y-81215111D01*
X187845521Y-81163800D01*
X187880646Y-81070640D01*
X187930670Y-80937916D01*
X187994734Y-80767912D01*
X188071977Y-80562916D01*
X188161537Y-80325213D01*
X188262554Y-80057089D01*
X188374166Y-79760828D01*
X188495514Y-79438718D01*
X188625735Y-79093044D01*
X188763968Y-78726091D01*
X188909354Y-78340146D01*
X189061031Y-77937493D01*
X189218137Y-77520419D01*
X189379813Y-77091210D01*
X189545197Y-76652151D01*
X189713428Y-76205528D01*
X189883645Y-75753626D01*
X190054987Y-75298732D01*
X190226594Y-74843131D01*
X190397604Y-74389109D01*
X190567157Y-73938952D01*
X190734391Y-73494945D01*
X190898445Y-73059374D01*
X191058459Y-72634525D01*
X191213572Y-72222683D01*
X191362922Y-71826135D01*
X191505649Y-71447166D01*
X191640892Y-71088062D01*
X191767789Y-70751108D01*
X191885481Y-70438590D01*
X191993105Y-70152794D01*
X192089802Y-69896006D01*
X192174709Y-69670512D01*
X192246967Y-69478596D01*
X192305713Y-69322546D01*
X192350088Y-69204646D01*
X192379230Y-69127182D01*
X192392279Y-69092441D01*
X192444393Y-68952960D01*
X193099389Y-68959393D01*
G37*
G36*
X194289496Y-104016485D02*
G01*
X194262817Y-104406346D01*
X194217615Y-104773311D01*
X194154093Y-105106398D01*
X194093792Y-105337198D01*
X193972431Y-105686600D01*
X193824033Y-105996379D01*
X193648725Y-106266352D01*
X193446632Y-106496334D01*
X193217881Y-106686144D01*
X192962598Y-106835597D01*
X192861473Y-106882143D01*
X192645300Y-106964165D01*
X192428879Y-107018786D01*
X192189933Y-107052252D01*
X192162786Y-107054890D01*
X192072001Y-107063819D01*
X192002977Y-107070770D01*
X191968914Y-107074418D01*
X191963264Y-107075018D01*
X191894236Y-107074770D01*
X191791380Y-107066727D01*
X191666766Y-107052549D01*
X191532464Y-107033895D01*
X191400543Y-107012422D01*
X191283074Y-106989791D01*
X191192126Y-106967659D01*
X190964556Y-106889850D01*
X190753415Y-106786971D01*
X190560303Y-106655013D01*
X190370362Y-106485255D01*
X190208511Y-106309711D01*
X190047954Y-106093113D01*
X189911612Y-105854123D01*
X189794839Y-105584446D01*
X189692991Y-105275786D01*
X189623163Y-104992703D01*
X189562347Y-104637551D01*
X189521438Y-104255712D01*
X189500652Y-103856540D01*
X189500338Y-103568159D01*
X190396654Y-103568159D01*
X190397613Y-103810839D01*
X190402357Y-104045403D01*
X190410890Y-104261823D01*
X190423216Y-104450070D01*
X190439337Y-104600114D01*
X190492806Y-104911523D01*
X190573517Y-105233934D01*
X190674429Y-105513509D01*
X190795957Y-105751038D01*
X190938517Y-105947316D01*
X191102524Y-106103132D01*
X191288393Y-106219281D01*
X191290763Y-106220439D01*
X191394986Y-106265935D01*
X191502794Y-106304554D01*
X191591216Y-106328046D01*
X191673023Y-106339528D01*
X191826881Y-106348781D01*
X191992513Y-106347311D01*
X192150181Y-106335525D01*
X192280147Y-106313830D01*
X192332156Y-106300060D01*
X192544428Y-106215784D01*
X192732909Y-106091848D01*
X192897811Y-105927830D01*
X193039346Y-105723306D01*
X193157728Y-105477854D01*
X193253169Y-105191051D01*
X193325882Y-104862473D01*
X193376080Y-104491698D01*
X193403974Y-104078303D01*
X193408002Y-103949805D01*
X193411186Y-103690020D01*
X193408612Y-103424651D01*
X193400665Y-103164461D01*
X193387729Y-102920213D01*
X193370187Y-102702668D01*
X193348425Y-102522589D01*
X193347624Y-102517287D01*
X193282406Y-102180532D01*
X193194933Y-101886296D01*
X193084454Y-101633763D01*
X192950216Y-101422120D01*
X192791468Y-101250550D01*
X192607458Y-101118240D01*
X192397435Y-101024375D01*
X192160647Y-100968140D01*
X191896343Y-100948721D01*
X191721633Y-100954479D01*
X191504011Y-100986657D01*
X191312215Y-101049896D01*
X191137321Y-101147411D01*
X190970403Y-101282419D01*
X190892898Y-101363103D01*
X190768187Y-101536804D01*
X190661261Y-101749252D01*
X190571407Y-102002265D01*
X190497915Y-102297659D01*
X190440073Y-102637253D01*
X190430590Y-102716863D01*
X190416447Y-102891716D01*
X190406075Y-103098568D01*
X190399475Y-103327392D01*
X190396654Y-103568159D01*
X189500338Y-103568159D01*
X189500209Y-103449393D01*
X189520325Y-103043626D01*
X189561218Y-102648595D01*
X189623107Y-102273655D01*
X189652240Y-102139048D01*
X189754365Y-101778716D01*
X189884003Y-101454699D01*
X190040444Y-101168015D01*
X190222975Y-100919684D01*
X190430884Y-100710725D01*
X190663462Y-100542159D01*
X190919996Y-100415004D01*
X191146941Y-100339184D01*
X191458519Y-100273444D01*
X191781624Y-100244088D01*
X192107244Y-100250815D01*
X192426371Y-100293327D01*
X192729994Y-100371324D01*
X193009105Y-100484505D01*
X193120996Y-100544408D01*
X193354506Y-100703957D01*
X193560163Y-100897375D01*
X193738898Y-101126175D01*
X193891642Y-101391872D01*
X194019327Y-101695980D01*
X194122884Y-102040014D01*
X194203246Y-102425486D01*
X194206971Y-102447702D01*
X194256391Y-102819335D01*
X194286485Y-103211998D01*
X194297453Y-103614708D01*
X194295961Y-103690020D01*
X194289496Y-104016485D01*
G37*
G36*
X175966914Y-103668226D02*
G01*
X175966914Y-105045922D01*
X175966914Y-106986745D01*
X174582009Y-106974584D01*
X174285866Y-106971776D01*
X174014899Y-106968664D01*
X173784317Y-106965287D01*
X173590001Y-106961514D01*
X173427836Y-106957217D01*
X173293706Y-106952266D01*
X173183493Y-106946531D01*
X173093083Y-106939883D01*
X173018357Y-106932191D01*
X172955200Y-106923325D01*
X172902843Y-106914506D01*
X172555420Y-106836017D01*
X172242060Y-106728818D01*
X171964163Y-106593827D01*
X171723126Y-106431961D01*
X171520349Y-106244138D01*
X171357228Y-106031276D01*
X171235163Y-105794294D01*
X171205899Y-105710695D01*
X171167056Y-105563621D01*
X171134802Y-105400893D01*
X171112779Y-105241731D01*
X171105468Y-105119399D01*
X172055060Y-105119399D01*
X172084428Y-105338203D01*
X172148813Y-105544470D01*
X172248400Y-105721529D01*
X172384437Y-105870455D01*
X172558173Y-105992321D01*
X172770857Y-106088202D01*
X173023735Y-106159173D01*
X173318057Y-106206307D01*
X173336211Y-106208122D01*
X173428431Y-106214214D01*
X173558450Y-106219677D01*
X173718028Y-106224302D01*
X173898927Y-106227880D01*
X174092905Y-106230201D01*
X174291724Y-106231056D01*
X175047676Y-106231255D01*
X175047676Y-105045922D01*
X175047676Y-103860588D01*
X174321008Y-103860588D01*
X174305429Y-103860591D01*
X174030441Y-103861851D01*
X173797184Y-103865746D01*
X173599380Y-103872779D01*
X173430751Y-103883453D01*
X173285021Y-103898269D01*
X173155910Y-103917732D01*
X173037143Y-103942344D01*
X172922440Y-103972607D01*
X172746321Y-104030786D01*
X172592796Y-104100860D01*
X172461023Y-104186708D01*
X172337273Y-104295916D01*
X172277766Y-104359393D01*
X172165172Y-104518554D01*
X172091992Y-104693989D01*
X172056022Y-104892128D01*
X172055060Y-105119399D01*
X171105468Y-105119399D01*
X171104629Y-105105357D01*
X171107124Y-105025400D01*
X171141220Y-104786621D01*
X171211472Y-104549124D01*
X171313031Y-104326912D01*
X171441046Y-104133985D01*
X171492653Y-104074599D01*
X171645331Y-103933445D01*
X171826182Y-103804177D01*
X172020991Y-103697493D01*
X172032670Y-103692143D01*
X172142048Y-103647979D01*
X172271335Y-103603643D01*
X172407578Y-103562793D01*
X172537820Y-103529086D01*
X172649110Y-103506179D01*
X172728492Y-103497731D01*
X172742616Y-103497521D01*
X172789131Y-103490287D01*
X172791561Y-103474887D01*
X172752317Y-103454252D01*
X172673811Y-103431308D01*
X172666037Y-103429433D01*
X172450827Y-103356386D01*
X172236981Y-103246625D01*
X172039757Y-103109272D01*
X171874413Y-102953445D01*
X171831981Y-102903874D01*
X171702157Y-102716996D01*
X171609373Y-102514719D01*
X171550549Y-102288978D01*
X171528084Y-102082129D01*
X172443556Y-102082129D01*
X172458104Y-102242745D01*
X172486813Y-102379111D01*
X172560573Y-102571248D01*
X172670309Y-102733957D01*
X172817831Y-102869156D01*
X173004948Y-102978762D01*
X173233469Y-103064692D01*
X173246952Y-103068686D01*
X173298384Y-103082758D01*
X173350343Y-103094087D01*
X173408809Y-103103055D01*
X173479765Y-103110050D01*
X173569192Y-103115454D01*
X173683072Y-103119653D01*
X173827387Y-103123031D01*
X174008118Y-103125974D01*
X174231248Y-103128865D01*
X175047676Y-103138790D01*
X175047676Y-102106286D01*
X175047676Y-101073782D01*
X174255438Y-101085447D01*
X174134660Y-101087352D01*
X173901222Y-101092203D01*
X173707287Y-101098588D01*
X173546750Y-101107275D01*
X173413508Y-101119034D01*
X173301458Y-101134634D01*
X173204496Y-101154844D01*
X173116519Y-101180434D01*
X173031423Y-101212172D01*
X172943105Y-101250828D01*
X172876060Y-101284356D01*
X172714819Y-101395192D01*
X172592987Y-101532497D01*
X172508158Y-101699487D01*
X172457928Y-101899377D01*
X172454185Y-101924879D01*
X172443556Y-102082129D01*
X171528084Y-102082129D01*
X171522608Y-102031708D01*
X171525121Y-101764835D01*
X171562447Y-101523048D01*
X171636485Y-101306763D01*
X171748873Y-101111220D01*
X171901252Y-100931654D01*
X171978290Y-100859231D01*
X172154432Y-100726221D01*
X172355475Y-100617412D01*
X172592500Y-100526304D01*
X172608093Y-100521225D01*
X172705846Y-100490084D01*
X172795962Y-100463466D01*
X172883110Y-100440986D01*
X172971957Y-100422259D01*
X173067171Y-100406897D01*
X173173422Y-100394517D01*
X173295376Y-100384731D01*
X173437701Y-100377155D01*
X173605067Y-100371402D01*
X173802142Y-100367087D01*
X174033592Y-100363824D01*
X174304087Y-100361228D01*
X174618295Y-100358912D01*
X175966914Y-100349707D01*
X175966914Y-102106286D01*
X175966914Y-103668226D01*
G37*
G36*
X182014533Y-103668226D02*
G01*
X182014533Y-105045922D01*
X182014533Y-106986745D01*
X180629629Y-106974536D01*
X180617651Y-106974430D01*
X180292031Y-106971299D01*
X180010135Y-106967849D01*
X179767463Y-106963725D01*
X179559510Y-106958573D01*
X179381775Y-106952038D01*
X179229757Y-106943766D01*
X179098952Y-106933402D01*
X178984859Y-106920592D01*
X178882976Y-106904982D01*
X178788800Y-106886216D01*
X178697829Y-106863941D01*
X178605561Y-106837802D01*
X178507493Y-106807444D01*
X178291873Y-106729742D01*
X178009759Y-106593570D01*
X177768062Y-106430858D01*
X177566684Y-106241493D01*
X177405532Y-106025362D01*
X177284509Y-105782354D01*
X177203522Y-105512356D01*
X177162475Y-105215255D01*
X177162366Y-105213634D01*
X177165057Y-105020477D01*
X178107853Y-105020477D01*
X178110016Y-105136383D01*
X178125206Y-105307649D01*
X178157662Y-105451419D01*
X178210595Y-105579952D01*
X178287213Y-105705506D01*
X178333194Y-105766114D01*
X178469789Y-105901052D01*
X178638157Y-106011064D01*
X178841476Y-106097627D01*
X179082923Y-106162216D01*
X179365676Y-106206307D01*
X179383830Y-106208122D01*
X179476050Y-106214214D01*
X179606069Y-106219677D01*
X179765647Y-106224302D01*
X179946546Y-106227880D01*
X180140524Y-106230201D01*
X180339343Y-106231056D01*
X181095295Y-106231255D01*
X181095295Y-105045922D01*
X181095295Y-103860588D01*
X180368627Y-103860588D01*
X180353048Y-103860591D01*
X180078060Y-103861851D01*
X179844803Y-103865746D01*
X179646999Y-103872779D01*
X179478370Y-103883453D01*
X179332640Y-103898269D01*
X179203529Y-103917732D01*
X179084762Y-103942344D01*
X178970059Y-103972607D01*
X178793525Y-104031843D01*
X178595083Y-104126434D01*
X178433391Y-104242742D01*
X178303103Y-104384815D01*
X178198870Y-104556706D01*
X178168308Y-104619373D01*
X178139243Y-104686153D01*
X178121391Y-104745767D01*
X178112025Y-104812101D01*
X178108421Y-104899042D01*
X178107853Y-105020477D01*
X177165057Y-105020477D01*
X177166251Y-104934740D01*
X177215010Y-104671565D01*
X177306833Y-104427139D01*
X177439912Y-104204490D01*
X177612441Y-104006647D01*
X177822609Y-103836639D01*
X178068610Y-103697493D01*
X178080289Y-103692143D01*
X178189667Y-103647979D01*
X178318954Y-103603643D01*
X178455197Y-103562793D01*
X178585439Y-103529086D01*
X178696729Y-103506179D01*
X178776111Y-103497731D01*
X178792352Y-103497452D01*
X178837499Y-103489994D01*
X178838630Y-103474484D01*
X178798180Y-103453761D01*
X178718581Y-103430662D01*
X178651802Y-103412493D01*
X178452586Y-103334607D01*
X178253943Y-103225818D01*
X178071703Y-103095605D01*
X177921691Y-102953445D01*
X177878984Y-102903359D01*
X177749327Y-102716192D01*
X177656741Y-102514013D01*
X177598086Y-102288594D01*
X177570227Y-102031708D01*
X177570496Y-102003164D01*
X178493677Y-102003164D01*
X178505960Y-102231879D01*
X178533964Y-102373530D01*
X178606550Y-102566525D01*
X178716143Y-102730620D01*
X178864156Y-102867335D01*
X179052000Y-102978187D01*
X179281088Y-103064692D01*
X179294571Y-103068686D01*
X179346003Y-103082758D01*
X179397962Y-103094087D01*
X179456428Y-103103055D01*
X179527384Y-103110050D01*
X179616811Y-103115454D01*
X179730691Y-103119653D01*
X179875006Y-103123031D01*
X180055737Y-103125974D01*
X180278867Y-103128865D01*
X181095295Y-103138790D01*
X181095295Y-102106286D01*
X181095295Y-101073782D01*
X180303057Y-101085447D01*
X180182279Y-101087352D01*
X179948841Y-101092203D01*
X179754906Y-101098588D01*
X179594369Y-101107275D01*
X179461127Y-101119034D01*
X179349077Y-101134634D01*
X179252115Y-101154844D01*
X179164138Y-101180434D01*
X179079042Y-101212172D01*
X178990724Y-101250828D01*
X178849748Y-101330151D01*
X178701727Y-101458531D01*
X178592448Y-101614692D01*
X178522802Y-101796836D01*
X178493677Y-102003164D01*
X177570496Y-102003164D01*
X177572740Y-101764835D01*
X177610066Y-101523048D01*
X177684104Y-101306763D01*
X177796492Y-101111220D01*
X177948871Y-100931654D01*
X178025909Y-100859231D01*
X178202052Y-100726221D01*
X178403094Y-100617412D01*
X178640119Y-100526304D01*
X178655712Y-100521225D01*
X178753465Y-100490084D01*
X178843581Y-100463466D01*
X178930729Y-100440986D01*
X179019576Y-100422259D01*
X179114791Y-100406897D01*
X179221041Y-100394517D01*
X179342995Y-100384731D01*
X179485320Y-100377155D01*
X179652686Y-100371402D01*
X179849761Y-100367087D01*
X180081211Y-100363824D01*
X180351706Y-100361228D01*
X180665914Y-100358912D01*
X182014533Y-100349707D01*
X182014533Y-102106286D01*
X182014533Y-103668226D01*
G37*
G36*
X198377122Y-100262259D02*
G01*
X198726774Y-100313114D01*
X199044645Y-100396356D01*
X199329380Y-100511623D01*
X199579626Y-100658552D01*
X199794027Y-100836779D01*
X199841633Y-100885561D01*
X199990692Y-101069711D01*
X200102311Y-101267811D01*
X200178915Y-101486281D01*
X200222925Y-101731542D01*
X200236766Y-102010017D01*
X200229664Y-102211194D01*
X200199592Y-102434168D01*
X200142953Y-102632564D01*
X200056514Y-102817048D01*
X199937038Y-102998286D01*
X199934926Y-103001101D01*
X199843678Y-103110357D01*
X199739282Y-103210710D01*
X199617881Y-103303937D01*
X199475619Y-103391817D01*
X199308640Y-103476129D01*
X199113086Y-103558651D01*
X198885101Y-103641162D01*
X198620830Y-103725441D01*
X198316415Y-103813267D01*
X197967999Y-103906417D01*
X197758649Y-103961744D01*
X197517379Y-104029357D01*
X197314313Y-104092082D01*
X197144107Y-104152211D01*
X197001419Y-104212039D01*
X196880907Y-104273860D01*
X196777228Y-104339968D01*
X196685040Y-104412657D01*
X196599001Y-104494220D01*
X196507816Y-104605480D01*
X196414890Y-104779297D01*
X196358748Y-104970909D01*
X196339251Y-105172602D01*
X196356260Y-105376663D01*
X196409634Y-105575377D01*
X196499234Y-105761032D01*
X196624920Y-105925913D01*
X196738967Y-106030049D01*
X196913154Y-106142181D01*
X197119819Y-106229110D01*
X197362710Y-106292332D01*
X197645575Y-106333344D01*
X197864783Y-106347485D01*
X198165418Y-106340635D01*
X198448730Y-106303377D01*
X198709734Y-106237076D01*
X198943446Y-106143097D01*
X199144882Y-106022808D01*
X199309056Y-105877572D01*
X199381502Y-105788635D01*
X199484893Y-105628653D01*
X199573729Y-105452601D01*
X199637436Y-105279736D01*
X199655848Y-105219470D01*
X199677176Y-105169181D01*
X199699690Y-105149610D01*
X199730320Y-105151164D01*
X199750374Y-105155587D01*
X199815737Y-105169080D01*
X199913476Y-105188735D01*
X200034224Y-105212672D01*
X200168613Y-105239016D01*
X200257539Y-105256569D01*
X200377067Y-105280923D01*
X200473571Y-105301511D01*
X200538885Y-105316575D01*
X200564839Y-105324355D01*
X200565372Y-105332563D01*
X200556563Y-105377903D01*
X200536978Y-105452971D01*
X200509309Y-105546974D01*
X200420908Y-105788047D01*
X200279125Y-106061107D01*
X200102924Y-106300956D01*
X199892017Y-106507790D01*
X199646116Y-106681806D01*
X199364934Y-106823201D01*
X199048182Y-106932171D01*
X198695573Y-107008915D01*
X198306819Y-107053628D01*
X198296924Y-107054315D01*
X197998949Y-107064282D01*
X197690513Y-107055741D01*
X197385828Y-107029885D01*
X197099106Y-106987904D01*
X196844560Y-106930991D01*
X196831874Y-106927447D01*
X196667006Y-106871186D01*
X196488936Y-106794728D01*
X196312789Y-106705672D01*
X196153688Y-106611614D01*
X196026758Y-106520154D01*
X195865885Y-106367557D01*
X195694527Y-106146882D01*
X195562112Y-105900067D01*
X195471729Y-105632056D01*
X195463100Y-105592503D01*
X195443611Y-105452019D01*
X195432659Y-105285961D01*
X195430215Y-105108973D01*
X195436250Y-104935700D01*
X195450736Y-104780785D01*
X195473642Y-104658874D01*
X195510349Y-104539891D01*
X195623339Y-104287658D01*
X195777284Y-104061136D01*
X195972207Y-103860297D01*
X196208134Y-103685116D01*
X196485087Y-103535566D01*
X196603272Y-103484268D01*
X196751499Y-103427310D01*
X196921907Y-103369228D01*
X197120823Y-103307989D01*
X197354574Y-103241560D01*
X197629486Y-103167909D01*
X197771137Y-103130752D01*
X197982572Y-103074899D01*
X198155872Y-103028349D01*
X198296579Y-102989411D01*
X198410232Y-102956395D01*
X198502375Y-102927610D01*
X198578549Y-102901366D01*
X198644293Y-102875971D01*
X198705152Y-102849735D01*
X198766664Y-102820969D01*
X198827813Y-102790233D01*
X199008894Y-102677372D01*
X199148200Y-102550454D01*
X199250174Y-102405662D01*
X199265051Y-102377729D01*
X199294648Y-102311680D01*
X199313162Y-102244035D01*
X199324041Y-102159201D01*
X199330738Y-102041585D01*
X199327966Y-101863528D01*
X199290685Y-101647466D01*
X199214586Y-101460122D01*
X199099408Y-101301159D01*
X198944890Y-101170240D01*
X198750769Y-101067027D01*
X198516784Y-100991182D01*
X198397487Y-100969455D01*
X198237958Y-100953369D01*
X198059573Y-100944975D01*
X197875652Y-100944303D01*
X197699514Y-100951381D01*
X197544479Y-100966236D01*
X197423867Y-100988895D01*
X197320132Y-101020077D01*
X197095988Y-101116358D01*
X196908023Y-101243834D01*
X196754019Y-101404627D01*
X196631757Y-101600854D01*
X196539022Y-101834636D01*
X196516819Y-101897415D01*
X196490688Y-101952518D01*
X196470947Y-101973731D01*
X196467773Y-101973550D01*
X196427288Y-101968001D01*
X196351819Y-101955904D01*
X196250555Y-101938882D01*
X196132681Y-101918559D01*
X196007387Y-101896559D01*
X195883860Y-101874505D01*
X195771286Y-101854022D01*
X195678854Y-101836734D01*
X195615751Y-101824263D01*
X195591164Y-101818235D01*
X195590251Y-101814914D01*
X195596846Y-101777914D01*
X195615983Y-101710176D01*
X195643936Y-101622977D01*
X195676981Y-101527589D01*
X195711393Y-101435288D01*
X195743445Y-101357347D01*
X195755510Y-101330518D01*
X195885418Y-101088983D01*
X196040139Y-100881019D01*
X196222183Y-100705162D01*
X196434064Y-100559946D01*
X196678293Y-100443903D01*
X196957381Y-100355569D01*
X197273841Y-100293476D01*
X197630185Y-100256160D01*
X197997043Y-100244157D01*
X198377122Y-100262259D01*
G37*
%TD*%
%LPC*%
D11*
%TO.C,J5*%
X210800000Y-62560000D03*
D12*
X208260000Y-62560000D03*
X210800000Y-65100000D03*
X208260000Y-65100000D03*
X210800000Y-67640000D03*
X208260000Y-67640000D03*
X210800000Y-70180000D03*
X208260000Y-70180000D03*
X210800000Y-72720000D03*
X208260000Y-72720000D03*
X210800000Y-75260000D03*
X208260000Y-75260000D03*
X210800000Y-77800000D03*
X208260000Y-77800000D03*
X210800000Y-80340000D03*
X208260000Y-80340000D03*
X210800000Y-82880000D03*
X208260000Y-82880000D03*
X210800000Y-85420000D03*
X208260000Y-85420000D03*
X210800000Y-87960000D03*
X208260000Y-87960000D03*
X210800000Y-90500000D03*
X208260000Y-90500000D03*
X210800000Y-93040000D03*
X208260000Y-93040000D03*
X210800000Y-95580000D03*
X208260000Y-95580000D03*
X210800000Y-98120000D03*
X208260000Y-98120000D03*
X210800000Y-100660000D03*
X208260000Y-100660000D03*
X210800000Y-103200000D03*
X208260000Y-103200000D03*
X210800000Y-105740000D03*
X208260000Y-105740000D03*
X210800000Y-108280000D03*
X208260000Y-108280000D03*
X210800000Y-110820000D03*
X208260000Y-110820000D03*
X210800000Y-113360000D03*
X208260000Y-113360000D03*
X210800000Y-115900000D03*
X208260000Y-115900000D03*
X210800000Y-118440000D03*
X208260000Y-118440000D03*
%TD*%
D13*
%TO.C,J3*%
X204000000Y-46300000D03*
D14*
X206500000Y-46300000D03*
%TD*%
D11*
%TO.C,J6*%
X162800000Y-62610000D03*
D12*
X160260000Y-62610000D03*
X162800000Y-65150000D03*
X160260000Y-65150000D03*
X162800000Y-67690000D03*
X160260000Y-67690000D03*
X162800000Y-70230000D03*
X160260000Y-70230000D03*
X162800000Y-72770000D03*
X160260000Y-72770000D03*
X162800000Y-75310000D03*
X160260000Y-75310000D03*
X162800000Y-77850000D03*
X160260000Y-77850000D03*
X162800000Y-80390000D03*
X160260000Y-80390000D03*
X162800000Y-82930000D03*
X160260000Y-82930000D03*
X162800000Y-85470000D03*
X160260000Y-85470000D03*
X162800000Y-88010000D03*
X160260000Y-88010000D03*
X162800000Y-90550000D03*
X160260000Y-90550000D03*
X162800000Y-93090000D03*
X160260000Y-93090000D03*
X162800000Y-95630000D03*
X160260000Y-95630000D03*
X162800000Y-98170000D03*
X160260000Y-98170000D03*
X162800000Y-100710000D03*
X160260000Y-100710000D03*
X162800000Y-103250000D03*
X160260000Y-103250000D03*
X162800000Y-105790000D03*
X160260000Y-105790000D03*
X162800000Y-108330000D03*
X160260000Y-108330000D03*
X162800000Y-110870000D03*
X160260000Y-110870000D03*
X162800000Y-113410000D03*
X160260000Y-113410000D03*
X162800000Y-115950000D03*
X160260000Y-115950000D03*
X162800000Y-118490000D03*
X160260000Y-118490000D03*
%TD*%
D15*
%TO.C,J4*%
X194090000Y-53360000D03*
X182660000Y-53360000D03*
D16*
X192820000Y-59710000D03*
D17*
X191550000Y-62250000D03*
X190280000Y-59710000D03*
X189010000Y-62250000D03*
X187740000Y-59710000D03*
X186470000Y-62250000D03*
X185200000Y-59710000D03*
X183930000Y-62250000D03*
D18*
X195000000Y-49300000D03*
X192460000Y-49300000D03*
X184290000Y-49300000D03*
X181750000Y-49300000D03*
D19*
X196120000Y-56410000D03*
X180630000Y-56410000D03*
%TD*%
D20*
%TO.C,J2*%
X167000000Y-48000000D03*
D21*
X172000000Y-48000000D03*
%TD*%
%LPD*%
M02*
