%TF.GenerationSoftware,KiCad,Pcbnew,8.0.8*%
%TF.CreationDate,2025-05-06T17:48:01+03:00*%
%TF.ProjectId,s0-base-board,73302d62-6173-4652-9d62-6f6172642e6b,rev?*%
%TF.SameCoordinates,Original*%
%TF.FileFunction,Legend,Top*%
%TF.FilePolarity,Positive*%
%FSLAX46Y46*%
G04 Gerber Fmt 4.6, Leading zero omitted, Abs format (unit mm)*
G04 Created by KiCad (PCBNEW 8.0.8) date 2025-05-06 17:48:01*
%MOMM*%
%LPD*%
G01*
G04 APERTURE LIST*
G04 Aperture macros list*
%AMRoundRect*
0 Rectangle with rounded corners*
0 $1 Rounding radius*
0 $2 $3 $4 $5 $6 $7 $8 $9 X,Y pos of 4 corners*
0 Add a 4 corners polygon primitive as box body*
4,1,4,$2,$3,$4,$5,$6,$7,$8,$9,$2,$3,0*
0 Add four circle primitives for the rounded corners*
1,1,$1+$1,$2,$3*
1,1,$1+$1,$4,$5*
1,1,$1+$1,$6,$7*
1,1,$1+$1,$8,$9*
0 Add four rect primitives between the rounded corners*
20,1,$1+$1,$2,$3,$4,$5,0*
20,1,$1+$1,$4,$5,$6,$7,0*
20,1,$1+$1,$6,$7,$8,$9,0*
20,1,$1+$1,$8,$9,$2,$3,0*%
%AMOutline4P*
0 Free polygon, 4 corners , with rotation*
0 The origin of the aperture is its center*
0 number of corners: always 4*
0 $1 to $8 corner X, Y*
0 $9 Rotation angle, in degrees counterclockwise*
0 create outline with 4 corners*
4,1,4,$1,$2,$3,$4,$5,$6,$7,$8,$1,$2,$9*%
%AMFreePoly0*
4,1,19,0.500000,-0.750000,0.000000,-0.750000,0.000000,-0.744911,-0.071157,-0.744911,-0.207708,-0.704816,-0.327430,-0.627875,-0.420627,-0.520320,-0.479746,-0.390866,-0.500000,-0.250000,-0.500000,0.250000,-0.479746,0.390866,-0.420627,0.520320,-0.327430,0.627875,-0.207708,0.704816,-0.071157,0.744911,0.000000,0.744911,0.000000,0.750000,0.500000,0.750000,0.500000,-0.750000,0.500000,-0.750000,
$1*%
%AMFreePoly1*
4,1,19,0.000000,0.744911,0.071157,0.744911,0.207708,0.704816,0.327430,0.627875,0.420627,0.520320,0.479746,0.390866,0.500000,0.250000,0.500000,-0.250000,0.479746,-0.390866,0.420627,-0.520320,0.327430,-0.627875,0.207708,-0.704816,0.071157,-0.744911,0.000000,-0.744911,0.000000,-0.750000,-0.500000,-0.750000,-0.500000,0.750000,0.000000,0.750000,0.000000,0.744911,0.000000,0.744911,
$1*%
G04 Aperture macros list end*
%ADD10C,0.300000*%
%ADD11C,0.098425*%
%ADD12C,0.120000*%
%ADD13C,0.000000*%
%ADD14C,0.127000*%
%ADD15C,0.200000*%
%ADD16C,0.206153*%
%ADD17C,0.010000*%
%ADD18RoundRect,0.250000X-0.925000X-1.500000X0.925000X-1.500000X0.925000X1.500000X-0.925000X1.500000X0*%
%ADD19RoundRect,0.250000X-0.325000X-0.650000X0.325000X-0.650000X0.325000X0.650000X-0.325000X0.650000X0*%
%ADD20Outline4P,-1.800000X-1.150000X1.800000X-0.550000X1.800000X0.550000X-1.800000X1.150000X0.000000*%
%ADD21Outline4P,-1.800000X-1.150000X1.800000X-0.550000X1.800000X0.550000X-1.800000X1.150000X180.000000*%
%ADD22C,1.000000*%
%ADD23R,1.700000X1.700000*%
%ADD24O,1.700000X1.700000*%
%ADD25R,1.400000X1.200000*%
%ADD26RoundRect,0.250000X1.500000X-0.925000X1.500000X0.925000X-1.500000X0.925000X-1.500000X-0.925000X0*%
%ADD27RoundRect,0.075000X-0.075000X0.662500X-0.075000X-0.662500X0.075000X-0.662500X0.075000X0.662500X0*%
%ADD28RoundRect,0.075000X-0.662500X0.075000X-0.662500X-0.075000X0.662500X-0.075000X0.662500X0.075000X0*%
%ADD29RoundRect,0.200000X0.200000X0.275000X-0.200000X0.275000X-0.200000X-0.275000X0.200000X-0.275000X0*%
%ADD30RoundRect,0.250000X-0.600000X-0.750000X0.600000X-0.750000X0.600000X0.750000X-0.600000X0.750000X0*%
%ADD31O,1.700000X2.000000*%
%ADD32RoundRect,0.225000X0.250000X-0.225000X0.250000X0.225000X-0.250000X0.225000X-0.250000X-0.225000X0*%
%ADD33RoundRect,0.200000X-0.275000X0.200000X-0.275000X-0.200000X0.275000X-0.200000X0.275000X0.200000X0*%
%ADD34RoundRect,0.150000X-0.512500X-0.150000X0.512500X-0.150000X0.512500X0.150000X-0.512500X0.150000X0*%
%ADD35RoundRect,0.135000X-0.135000X-0.185000X0.135000X-0.185000X0.135000X0.185000X-0.135000X0.185000X0*%
%ADD36RoundRect,0.091750X0.275250X-0.495250X0.275250X0.495250X-0.275250X0.495250X-0.275250X-0.495250X0*%
%ADD37RoundRect,0.225000X0.225000X0.250000X-0.225000X0.250000X-0.225000X-0.250000X0.225000X-0.250000X0*%
%ADD38RoundRect,0.135000X-0.185000X0.135000X-0.185000X-0.135000X0.185000X-0.135000X0.185000X0.135000X0*%
%ADD39RoundRect,0.102000X1.040000X-1.905000X1.040000X1.905000X-1.040000X1.905000X-1.040000X-1.905000X0*%
%ADD40RoundRect,0.102000X5.715000X-4.445000X5.715000X4.445000X-5.715000X4.445000X-5.715000X-4.445000X0*%
%ADD41FreePoly0,180.000000*%
%ADD42FreePoly1,180.000000*%
%ADD43RoundRect,0.250000X-2.050000X-0.300000X2.050000X-0.300000X2.050000X0.300000X-2.050000X0.300000X0*%
%ADD44RoundRect,0.250002X-4.449998X-5.149998X4.449998X-5.149998X4.449998X5.149998X-4.449998X5.149998X0*%
%ADD45RoundRect,0.200000X0.275000X-0.200000X0.275000X0.200000X-0.275000X0.200000X-0.275000X-0.200000X0*%
%ADD46RoundRect,0.250000X0.250000X0.475000X-0.250000X0.475000X-0.250000X-0.475000X0.250000X-0.475000X0*%
%ADD47RoundRect,0.218750X-0.256250X0.218750X-0.256250X-0.218750X0.256250X-0.218750X0.256250X0.218750X0*%
%ADD48RoundRect,0.140000X0.170000X-0.140000X0.170000X0.140000X-0.170000X0.140000X-0.170000X-0.140000X0*%
%ADD49RoundRect,0.135000X0.135000X0.185000X-0.135000X0.185000X-0.135000X-0.185000X0.135000X-0.185000X0*%
%ADD50RoundRect,0.225000X-0.250000X0.225000X-0.250000X-0.225000X0.250000X-0.225000X0.250000X0.225000X0*%
%ADD51RoundRect,0.250000X-0.475000X0.250000X-0.475000X-0.250000X0.475000X-0.250000X0.475000X0.250000X0*%
%ADD52RoundRect,0.150000X0.587500X0.150000X-0.587500X0.150000X-0.587500X-0.150000X0.587500X-0.150000X0*%
%ADD53RoundRect,0.150000X-0.825000X-0.150000X0.825000X-0.150000X0.825000X0.150000X-0.825000X0.150000X0*%
%ADD54RoundRect,0.102000X-0.700000X-0.910000X0.700000X-0.910000X0.700000X0.910000X-0.700000X0.910000X0*%
%ADD55C,3.250000*%
%ADD56R,1.900000X1.900000*%
%ADD57C,1.900000*%
%ADD58C,2.100000*%
%ADD59C,2.600000*%
%ADD60RoundRect,0.102000X-0.825000X-1.015000X0.825000X-1.015000X0.825000X1.015000X-0.825000X1.015000X0*%
%ADD61RoundRect,0.250000X0.650000X-0.325000X0.650000X0.325000X-0.650000X0.325000X-0.650000X-0.325000X0*%
%ADD62RoundRect,0.140000X0.140000X0.170000X-0.140000X0.170000X-0.140000X-0.170000X0.140000X-0.170000X0*%
%ADD63RoundRect,0.135000X0.185000X-0.135000X0.185000X0.135000X-0.185000X0.135000X-0.185000X-0.135000X0*%
%ADD64RoundRect,0.250000X0.475000X-0.250000X0.475000X0.250000X-0.475000X0.250000X-0.475000X-0.250000X0*%
%ADD65RoundRect,0.100000X-0.225000X-0.100000X0.225000X-0.100000X0.225000X0.100000X-0.225000X0.100000X0*%
%ADD66RoundRect,0.250001X-1.149999X-1.149999X1.149999X-1.149999X1.149999X1.149999X-1.149999X1.149999X0*%
%ADD67C,2.800000*%
%ADD68RoundRect,0.218750X-0.218750X-0.256250X0.218750X-0.256250X0.218750X0.256250X-0.218750X0.256250X0*%
%ADD69RoundRect,0.225000X-0.225000X-0.250000X0.225000X-0.250000X0.225000X0.250000X-0.225000X0.250000X0*%
%ADD70RoundRect,0.250000X0.400000X0.600000X-0.400000X0.600000X-0.400000X-0.600000X0.400000X-0.600000X0*%
%ADD71RoundRect,0.200000X-0.200000X-0.275000X0.200000X-0.275000X0.200000X0.275000X-0.200000X0.275000X0*%
G04 APERTURE END LIST*
D10*
X181533082Y-44990828D02*
X181533082Y-46062257D01*
X181533082Y-46062257D02*
X181461653Y-46276542D01*
X181461653Y-46276542D02*
X181318796Y-46419400D01*
X181318796Y-46419400D02*
X181104510Y-46490828D01*
X181104510Y-46490828D02*
X180961653Y-46490828D01*
X182961653Y-46490828D02*
X182247367Y-46490828D01*
X182247367Y-46490828D02*
X182247367Y-44990828D01*
X184318796Y-46347971D02*
X184247368Y-46419400D01*
X184247368Y-46419400D02*
X184033082Y-46490828D01*
X184033082Y-46490828D02*
X183890225Y-46490828D01*
X183890225Y-46490828D02*
X183675939Y-46419400D01*
X183675939Y-46419400D02*
X183533082Y-46276542D01*
X183533082Y-46276542D02*
X183461653Y-46133685D01*
X183461653Y-46133685D02*
X183390225Y-45847971D01*
X183390225Y-45847971D02*
X183390225Y-45633685D01*
X183390225Y-45633685D02*
X183461653Y-45347971D01*
X183461653Y-45347971D02*
X183533082Y-45205114D01*
X183533082Y-45205114D02*
X183675939Y-45062257D01*
X183675939Y-45062257D02*
X183890225Y-44990828D01*
X183890225Y-44990828D02*
X184033082Y-44990828D01*
X184033082Y-44990828D02*
X184247368Y-45062257D01*
X184247368Y-45062257D02*
X184318796Y-45133685D01*
X185390225Y-44990828D02*
X185390225Y-46062257D01*
X185390225Y-46062257D02*
X185318796Y-46276542D01*
X185318796Y-46276542D02*
X185175939Y-46419400D01*
X185175939Y-46419400D02*
X184961653Y-46490828D01*
X184961653Y-46490828D02*
X184818796Y-46490828D01*
X186818796Y-46490828D02*
X186104510Y-46490828D01*
X186104510Y-46490828D02*
X186104510Y-44990828D01*
X188175939Y-46347971D02*
X188104511Y-46419400D01*
X188104511Y-46419400D02*
X187890225Y-46490828D01*
X187890225Y-46490828D02*
X187747368Y-46490828D01*
X187747368Y-46490828D02*
X187533082Y-46419400D01*
X187533082Y-46419400D02*
X187390225Y-46276542D01*
X187390225Y-46276542D02*
X187318796Y-46133685D01*
X187318796Y-46133685D02*
X187247368Y-45847971D01*
X187247368Y-45847971D02*
X187247368Y-45633685D01*
X187247368Y-45633685D02*
X187318796Y-45347971D01*
X187318796Y-45347971D02*
X187390225Y-45205114D01*
X187390225Y-45205114D02*
X187533082Y-45062257D01*
X187533082Y-45062257D02*
X187747368Y-44990828D01*
X187747368Y-44990828D02*
X187890225Y-44990828D01*
X187890225Y-44990828D02*
X188104511Y-45062257D01*
X188104511Y-45062257D02*
X188175939Y-45133685D01*
X189247368Y-44990828D02*
X189247368Y-46062257D01*
X189247368Y-46062257D02*
X189175939Y-46276542D01*
X189175939Y-46276542D02*
X189033082Y-46419400D01*
X189033082Y-46419400D02*
X188818796Y-46490828D01*
X188818796Y-46490828D02*
X188675939Y-46490828D01*
X190675939Y-46490828D02*
X189961653Y-46490828D01*
X189961653Y-46490828D02*
X189961653Y-44990828D01*
X192033082Y-46347971D02*
X191961654Y-46419400D01*
X191961654Y-46419400D02*
X191747368Y-46490828D01*
X191747368Y-46490828D02*
X191604511Y-46490828D01*
X191604511Y-46490828D02*
X191390225Y-46419400D01*
X191390225Y-46419400D02*
X191247368Y-46276542D01*
X191247368Y-46276542D02*
X191175939Y-46133685D01*
X191175939Y-46133685D02*
X191104511Y-45847971D01*
X191104511Y-45847971D02*
X191104511Y-45633685D01*
X191104511Y-45633685D02*
X191175939Y-45347971D01*
X191175939Y-45347971D02*
X191247368Y-45205114D01*
X191247368Y-45205114D02*
X191390225Y-45062257D01*
X191390225Y-45062257D02*
X191604511Y-44990828D01*
X191604511Y-44990828D02*
X191747368Y-44990828D01*
X191747368Y-44990828D02*
X191961654Y-45062257D01*
X191961654Y-45062257D02*
X192033082Y-45133685D01*
X193104511Y-44990828D02*
X193104511Y-46062257D01*
X193104511Y-46062257D02*
X193033082Y-46276542D01*
X193033082Y-46276542D02*
X192890225Y-46419400D01*
X192890225Y-46419400D02*
X192675939Y-46490828D01*
X192675939Y-46490828D02*
X192533082Y-46490828D01*
X194533082Y-46490828D02*
X193818796Y-46490828D01*
X193818796Y-46490828D02*
X193818796Y-44990828D01*
X195890225Y-46347971D02*
X195818797Y-46419400D01*
X195818797Y-46419400D02*
X195604511Y-46490828D01*
X195604511Y-46490828D02*
X195461654Y-46490828D01*
X195461654Y-46490828D02*
X195247368Y-46419400D01*
X195247368Y-46419400D02*
X195104511Y-46276542D01*
X195104511Y-46276542D02*
X195033082Y-46133685D01*
X195033082Y-46133685D02*
X194961654Y-45847971D01*
X194961654Y-45847971D02*
X194961654Y-45633685D01*
X194961654Y-45633685D02*
X195033082Y-45347971D01*
X195033082Y-45347971D02*
X195104511Y-45205114D01*
X195104511Y-45205114D02*
X195247368Y-45062257D01*
X195247368Y-45062257D02*
X195461654Y-44990828D01*
X195461654Y-44990828D02*
X195604511Y-44990828D01*
X195604511Y-44990828D02*
X195818797Y-45062257D01*
X195818797Y-45062257D02*
X195890225Y-45133685D01*
D11*
X177374384Y-123677014D02*
X177186907Y-123677014D01*
X177186907Y-123677014D02*
X177186907Y-123283313D01*
X177693094Y-123283313D02*
X177505617Y-123283313D01*
X177505617Y-123283313D02*
X177486869Y-123470790D01*
X177486869Y-123470790D02*
X177505617Y-123452042D01*
X177505617Y-123452042D02*
X177543112Y-123433295D01*
X177543112Y-123433295D02*
X177636851Y-123433295D01*
X177636851Y-123433295D02*
X177674346Y-123452042D01*
X177674346Y-123452042D02*
X177693094Y-123470790D01*
X177693094Y-123470790D02*
X177711841Y-123508285D01*
X177711841Y-123508285D02*
X177711841Y-123602024D01*
X177711841Y-123602024D02*
X177693094Y-123639519D01*
X177693094Y-123639519D02*
X177674346Y-123658267D01*
X177674346Y-123658267D02*
X177636851Y-123677014D01*
X177636851Y-123677014D02*
X177543112Y-123677014D01*
X177543112Y-123677014D02*
X177505617Y-123658267D01*
X177505617Y-123658267D02*
X177486869Y-123639519D01*
D12*
%TO.C,L2*%
X193990000Y-106590000D02*
X193990000Y-108140000D01*
X193990000Y-106590000D02*
X201810000Y-106590000D01*
X193990000Y-113710000D02*
X193990000Y-112160000D01*
X193990000Y-113710000D02*
X201810000Y-113710000D01*
X201810000Y-106590000D02*
X201810000Y-108140000D01*
X201810000Y-113710000D02*
X201810000Y-112160000D01*
D13*
%TO.C,kibuzzard-67D30CF0*%
G36*
X203376204Y-94861551D02*
G01*
X203442843Y-94894265D01*
X203485735Y-94953150D01*
X203500032Y-95042569D01*
X203485493Y-95136834D01*
X203441874Y-95198627D01*
X203369661Y-95232795D01*
X203269338Y-95244184D01*
X203172407Y-95244184D01*
X203172407Y-94856462D01*
X203231535Y-94851616D01*
X203290662Y-94850646D01*
X203376204Y-94861551D01*
G37*
G36*
X206211478Y-94496427D02*
G01*
X206355613Y-94540150D01*
X206488448Y-94611152D01*
X206604879Y-94706704D01*
X206700431Y-94823135D01*
X206771433Y-94955971D01*
X206815156Y-95100105D01*
X206829919Y-95250000D01*
X206815156Y-95399895D01*
X206771433Y-95544029D01*
X206700431Y-95676865D01*
X206604879Y-95793296D01*
X206488448Y-95888848D01*
X206355613Y-95959850D01*
X206211478Y-96003573D01*
X206061583Y-96018336D01*
X205657706Y-96018336D01*
X204723296Y-96018336D01*
X203172407Y-96018336D01*
X202933958Y-96018336D01*
X202530081Y-96018336D01*
X202530081Y-94672294D01*
X202933958Y-94672294D01*
X202933958Y-95856785D01*
X203172407Y-95856785D01*
X203843166Y-95856785D01*
X204062229Y-95856785D01*
X204052536Y-94924313D01*
X204194055Y-95432229D01*
X204368530Y-95432229D01*
X204515864Y-94924313D01*
X204504233Y-95856785D01*
X204723296Y-95856785D01*
X204718934Y-95703393D01*
X204713603Y-95553393D01*
X204707060Y-95405574D01*
X204699063Y-95258724D01*
X204689370Y-95111632D01*
X204677738Y-94963086D01*
X204672963Y-94906866D01*
X204860937Y-94906866D01*
X204938481Y-95104604D01*
X205056737Y-95057108D01*
X205180808Y-94988288D01*
X205180808Y-95659047D01*
X204928788Y-95659047D01*
X204928788Y-95856785D01*
X205657706Y-95856785D01*
X205657706Y-95659047D01*
X205419257Y-95659047D01*
X205419257Y-94656785D01*
X205256414Y-94656785D01*
X205173053Y-94732391D01*
X205070307Y-94802181D01*
X204961745Y-94862278D01*
X204860937Y-94906866D01*
X204672963Y-94906866D01*
X204664895Y-94811874D01*
X204651567Y-94656785D01*
X204453829Y-94656785D01*
X204418934Y-94759532D01*
X204376284Y-94892326D01*
X204327819Y-95039661D01*
X204279354Y-95187964D01*
X204234766Y-95048384D01*
X204188239Y-94899111D01*
X204144620Y-94761470D01*
X204110695Y-94656785D01*
X203912956Y-94656785D01*
X203900113Y-94788126D01*
X203888724Y-94930129D01*
X203878788Y-95079887D01*
X203870307Y-95234491D01*
X203862795Y-95392003D01*
X203855767Y-95550485D01*
X203849225Y-95706543D01*
X203843166Y-95856785D01*
X203172407Y-95856785D01*
X203172407Y-95451616D01*
X203257706Y-95451616D01*
X203401055Y-95440953D01*
X203520926Y-95408966D01*
X203617318Y-95355654D01*
X203687862Y-95278433D01*
X203730188Y-95174717D01*
X203744297Y-95044507D01*
X203730296Y-94915590D01*
X203688293Y-94813166D01*
X203618288Y-94737237D01*
X203522865Y-94685003D01*
X203404610Y-94653662D01*
X203263522Y-94643215D01*
X203187916Y-94645153D01*
X203100679Y-94650000D01*
X203012472Y-94658724D01*
X202933958Y-94672294D01*
X202530081Y-94672294D01*
X202530081Y-94481664D01*
X202933958Y-94481664D01*
X205657706Y-94481664D01*
X206061583Y-94481664D01*
X206211478Y-94496427D01*
G37*
D12*
%TO.C,C6*%
X179288748Y-75090000D02*
X180711252Y-75090000D01*
X179288748Y-76910000D02*
X180711252Y-76910000D01*
%TO.C,D2*%
X165440000Y-91850000D02*
X165440000Y-96150000D01*
X165440000Y-91850000D02*
X173100000Y-91850000D01*
X165440000Y-96150000D02*
X173100000Y-96150000D01*
%TO.C,TP1*%
X209200000Y-123000000D02*
G75*
G02*
X207800000Y-123000000I-700000J0D01*
G01*
X207800000Y-123000000D02*
G75*
G02*
X209200000Y-123000000I700000J0D01*
G01*
%TO.C,J5*%
X206930000Y-61230000D02*
X206930000Y-119770000D01*
X206930000Y-61230000D02*
X209530000Y-61230000D01*
X206930000Y-119770000D02*
X212130000Y-119770000D01*
X209530000Y-61230000D02*
X209530000Y-63830000D01*
X209530000Y-63830000D02*
X212130000Y-63830000D01*
X210800000Y-61230000D02*
X212130000Y-61230000D01*
X212130000Y-61230000D02*
X212130000Y-62560000D01*
X212130000Y-63830000D02*
X212130000Y-119770000D01*
%TO.C,Y1*%
X185150000Y-102200000D02*
X185150000Y-105500000D01*
X185150000Y-105500000D02*
X189150000Y-105500000D01*
%TO.C,L1*%
X165940000Y-81565000D02*
X167490000Y-81565000D01*
X165940000Y-89385000D02*
X165940000Y-81565000D01*
X165940000Y-89385000D02*
X167490000Y-89385000D01*
X173060000Y-81565000D02*
X171510000Y-81565000D01*
X173060000Y-89385000D02*
X171510000Y-89385000D01*
X173060000Y-89385000D02*
X173060000Y-81565000D01*
%TO.C,U4*%
X183415000Y-91765000D02*
X183865000Y-91765000D01*
X183415000Y-92215000D02*
X183415000Y-91765000D01*
X183415000Y-98535000D02*
X183415000Y-98985000D01*
X183415000Y-98985000D02*
X183865000Y-98985000D01*
X190635000Y-91765000D02*
X190185000Y-91765000D01*
X190635000Y-92215000D02*
X190635000Y-91765000D01*
X190635000Y-98535000D02*
X190635000Y-98985000D01*
X190635000Y-98985000D02*
X190185000Y-98985000D01*
X190655000Y-91515000D02*
X190185000Y-91175000D01*
X190655000Y-90835000D01*
X190655000Y-91515000D01*
G36*
X190655000Y-91515000D02*
G01*
X190185000Y-91175000D01*
X190655000Y-90835000D01*
X190655000Y-91515000D01*
G37*
%TO.C,R12*%
X187612258Y-71927500D02*
X187137742Y-71927500D01*
X187612258Y-72972500D02*
X187137742Y-72972500D01*
%TO.C,R15*%
X187612258Y-70027500D02*
X187137742Y-70027500D01*
X187612258Y-71072500D02*
X187137742Y-71072500D01*
%TO.C,J3*%
X201090000Y-46410000D02*
X201090000Y-48910000D01*
X201090000Y-48910000D02*
X203590000Y-48910000D01*
X201390000Y-44590000D02*
X201390000Y-48610000D01*
X201390000Y-46300000D02*
X201890000Y-46300000D01*
X201390000Y-47110000D02*
X202390000Y-47110000D01*
X201390000Y-48610000D02*
X209110000Y-48610000D01*
X201890000Y-45090000D02*
X208610000Y-45090000D01*
X201890000Y-46300000D02*
X201890000Y-45090000D01*
X202390000Y-47110000D02*
X202390000Y-48610000D01*
X208110000Y-47110000D02*
X208110000Y-48610000D01*
X208610000Y-45090000D02*
X208610000Y-46300000D01*
X208610000Y-46300000D02*
X209110000Y-46300000D01*
X209110000Y-44590000D02*
X201390000Y-44590000D01*
X209110000Y-47110000D02*
X208110000Y-47110000D01*
X209110000Y-48610000D02*
X209110000Y-44590000D01*
%TO.C,C11*%
X189665000Y-103990580D02*
X189665000Y-103709420D01*
X190685000Y-103990580D02*
X190685000Y-103709420D01*
%TO.C,R9*%
X184802500Y-87937742D02*
X184802500Y-88412258D01*
X185847500Y-87937742D02*
X185847500Y-88412258D01*
%TO.C,U1*%
X203137500Y-55390000D02*
X202337500Y-55390000D01*
X203137500Y-55390000D02*
X203937500Y-55390000D01*
X203137500Y-58510000D02*
X202337500Y-58510000D01*
X203137500Y-58510000D02*
X203937500Y-58510000D01*
X201837500Y-55440000D02*
X201597500Y-55110000D01*
X202077500Y-55110000D01*
X201837500Y-55440000D01*
G36*
X201837500Y-55440000D02*
G01*
X201597500Y-55110000D01*
X202077500Y-55110000D01*
X201837500Y-55440000D01*
G37*
D13*
%TO.C,kibuzzard-67D30BB5*%
G36*
X176356220Y-45307754D02*
G01*
X176236672Y-45280291D01*
X176133279Y-45222132D01*
X176062197Y-45128433D01*
X176036349Y-44994346D01*
X176063813Y-44858643D01*
X176136511Y-44768174D01*
X176238288Y-44716478D01*
X176356220Y-44700323D01*
X176356220Y-45307754D01*
G37*
G36*
X177565697Y-46806947D02*
G01*
X177565697Y-47798869D01*
X177565697Y-48684168D01*
X177565697Y-49357297D01*
X175434303Y-49357297D01*
X175434303Y-48684168D01*
X175434303Y-47798869D01*
X176236672Y-47798869D01*
X176236672Y-48684168D01*
X176627625Y-48684168D01*
X176627625Y-47798869D01*
X176236672Y-47798869D01*
X175434303Y-47798869D01*
X175434303Y-45863489D01*
X175742326Y-45863489D01*
X175742326Y-46267367D01*
X175869144Y-46300889D01*
X176004039Y-46343296D01*
X176143376Y-46390953D01*
X176283522Y-46440226D01*
X176422052Y-46490711D01*
X176556543Y-46542003D01*
X176798869Y-46635703D01*
X176556543Y-46724556D01*
X176422052Y-46771002D01*
X176283522Y-46816640D01*
X176143376Y-46860662D01*
X176004039Y-46902262D01*
X175869144Y-46939822D01*
X175742326Y-46971729D01*
X175742326Y-47388530D01*
X175967185Y-47319770D01*
X176182956Y-47249192D01*
X176389641Y-47176797D01*
X176587237Y-47102585D01*
X176833692Y-47002962D01*
X177058248Y-46904416D01*
X177260905Y-46806947D01*
X177260905Y-46474152D01*
X177058248Y-46375067D01*
X176833692Y-46271675D01*
X176587237Y-46163974D01*
X176389641Y-46083401D01*
X176182956Y-46006462D01*
X175967185Y-45933158D01*
X175742326Y-45863489D01*
X175434303Y-45863489D01*
X175434303Y-45000808D01*
X175703554Y-45000808D01*
X175716478Y-45134895D01*
X175755250Y-45265751D01*
X175819467Y-45387722D01*
X175908724Y-45495153D01*
X176023021Y-45585622D01*
X176162359Y-45656704D01*
X176326333Y-45702746D01*
X176514540Y-45718094D01*
X176696284Y-45703554D01*
X176853796Y-45659935D01*
X176987480Y-45589257D01*
X177097738Y-45493538D01*
X177184168Y-45373990D01*
X177246365Y-45231826D01*
X177283926Y-45068255D01*
X177296446Y-44884491D01*
X177272213Y-44622779D01*
X177212439Y-44403069D01*
X176873183Y-44457997D01*
X176924879Y-44640549D01*
X176950727Y-44868336D01*
X176929321Y-45044426D01*
X176865105Y-45184976D01*
X176763732Y-45277060D01*
X176630856Y-45307754D01*
X176630856Y-44322294D01*
X176563005Y-44317447D01*
X176482229Y-44315832D01*
X176248340Y-44335218D01*
X176055017Y-44393376D01*
X175902262Y-44490307D01*
X175791869Y-44624574D01*
X175725633Y-44794741D01*
X175703554Y-45000808D01*
X175434303Y-45000808D01*
X175434303Y-44315832D01*
X175434303Y-43642703D01*
X177565697Y-43642703D01*
X177565697Y-44315832D01*
X177565697Y-44884491D01*
X177565697Y-46806947D01*
G37*
D12*
%TO.C,R2*%
X171846359Y-53620000D02*
X172153641Y-53620000D01*
X171846359Y-54380000D02*
X172153641Y-54380000D01*
D14*
%TO.C,RN1*%
X192100000Y-102275000D02*
X192100000Y-100475000D01*
X195500000Y-100475000D02*
X195500000Y-102275000D01*
D15*
X192400000Y-103275000D02*
G75*
G02*
X192200000Y-103275000I-100000J0D01*
G01*
X192200000Y-103275000D02*
G75*
G02*
X192400000Y-103275000I100000J0D01*
G01*
D12*
%TO.C,C15*%
X179165580Y-97165000D02*
X178884420Y-97165000D01*
X179165580Y-98185000D02*
X178884420Y-98185000D01*
%TO.C,C1*%
X203715580Y-59390000D02*
X203434420Y-59390000D01*
X203715580Y-60410000D02*
X203434420Y-60410000D01*
D13*
%TO.C,kibuzzard-67ED74E9*%
G36*
X167337500Y-125125000D02*
G01*
X167389041Y-125163014D01*
X167419349Y-125229452D01*
X167429452Y-125327397D01*
X167419349Y-125432705D01*
X167389041Y-125502055D01*
X167337500Y-125540582D01*
X167263699Y-125553425D01*
X167184247Y-125543836D01*
X167184247Y-125123288D01*
X167263699Y-125112329D01*
X167337500Y-125125000D01*
G37*
G36*
X168699658Y-125123116D02*
G01*
X168751370Y-125155479D01*
X168782192Y-125211130D01*
X168792466Y-125291781D01*
X168781507Y-125376027D01*
X168748630Y-125431507D01*
X168689726Y-125462329D01*
X168600685Y-125472603D01*
X168547260Y-125472603D01*
X168547260Y-125123288D01*
X168626712Y-125112329D01*
X168699658Y-125123116D01*
G37*
G36*
X169197489Y-126235160D02*
G01*
X168969178Y-126235160D01*
X168213014Y-126235160D01*
X167184247Y-126235160D01*
X167030822Y-126235160D01*
X166802511Y-126235160D01*
X166802511Y-125020548D01*
X167030822Y-125020548D01*
X167030822Y-126006849D01*
X167184247Y-126006849D01*
X167184247Y-125664384D01*
X167263699Y-125671233D01*
X167361339Y-125662100D01*
X167440563Y-125634703D01*
X167501370Y-125589041D01*
X167544368Y-125523440D01*
X167570167Y-125436225D01*
X167578767Y-125327397D01*
X167570396Y-125220472D01*
X167545282Y-125135312D01*
X167503425Y-125071918D01*
X167443303Y-125028158D01*
X167378448Y-125006849D01*
X167644521Y-125006849D01*
X167733562Y-126006849D01*
X167881507Y-126006849D01*
X167962329Y-125335616D01*
X167966438Y-125335616D01*
X168034932Y-126006849D01*
X168213014Y-126006849D01*
X168300835Y-125020548D01*
X168393836Y-125020548D01*
X168393836Y-126006849D01*
X168547260Y-126006849D01*
X168547260Y-125591781D01*
X168600685Y-125591781D01*
X168683562Y-125618493D01*
X168709760Y-125657021D01*
X168732192Y-125719178D01*
X168811644Y-126006849D01*
X168969178Y-126006849D01*
X168884247Y-125727397D01*
X168840411Y-125619863D01*
X168788356Y-125552055D01*
X168788356Y-125549315D01*
X168855479Y-125510103D01*
X168903425Y-125454110D01*
X168932192Y-125381336D01*
X168941781Y-125291781D01*
X168933333Y-125197793D01*
X168907991Y-125122222D01*
X168865753Y-125065068D01*
X168805403Y-125025114D01*
X168725723Y-125001142D01*
X168626712Y-124993151D01*
X168547869Y-124996195D01*
X168470244Y-125005327D01*
X168393836Y-125020548D01*
X168300835Y-125020548D01*
X168302055Y-125006849D01*
X168165068Y-125006849D01*
X168114384Y-125863014D01*
X168111644Y-125863014D01*
X168039041Y-125171233D01*
X167917123Y-125171233D01*
X167841781Y-125767123D01*
X167839041Y-125767123D01*
X167791096Y-125006849D01*
X167644521Y-125006849D01*
X167378448Y-125006849D01*
X167363394Y-125001903D01*
X167263699Y-124993151D01*
X167184855Y-124996195D01*
X167107230Y-125005327D01*
X167030822Y-125020548D01*
X166802511Y-125020548D01*
X166802511Y-124764840D01*
X167030822Y-124764840D01*
X168969178Y-124764840D01*
X169197489Y-124764840D01*
X169197489Y-126235160D01*
G37*
D12*
%TO.C,R21*%
X198620000Y-45846359D02*
X198620000Y-46153641D01*
X199380000Y-45846359D02*
X199380000Y-46153641D01*
D14*
%TO.C,Q3*%
X165920000Y-70295000D02*
X165920000Y-67820000D01*
X176080000Y-67820000D02*
X176080000Y-70295000D01*
X176080000Y-70295000D02*
X165920000Y-70295000D01*
D15*
X168560000Y-77390000D02*
G75*
G02*
X168360000Y-77390000I-100000J0D01*
G01*
X168360000Y-77390000D02*
G75*
G02*
X168560000Y-77390000I100000J0D01*
G01*
D12*
%TO.C,JP3*%
X199375000Y-98175000D02*
X199375000Y-97575000D01*
X200075000Y-96875000D02*
X201475000Y-96875000D01*
X201475000Y-98875000D02*
X200075000Y-98875000D01*
X202175000Y-97575000D02*
X202175000Y-98175000D01*
X199375000Y-97575000D02*
G75*
G02*
X200075000Y-96875000I700000J0D01*
G01*
X200075000Y-98875000D02*
G75*
G02*
X199375000Y-98175000I0J700000D01*
G01*
X201475000Y-96875000D02*
G75*
G02*
X202175000Y-97575000I1J-699999D01*
G01*
X202175000Y-98175000D02*
G75*
G02*
X201475000Y-98875000I-699999J-1D01*
G01*
%TO.C,U3*%
X187925000Y-116100000D02*
X187925000Y-117050000D01*
X187925000Y-126500000D02*
X187925000Y-125550000D01*
X189290000Y-116100000D02*
X187925000Y-116100000D01*
X189290000Y-126500000D02*
X187925000Y-126500000D01*
X185100000Y-117090000D02*
X184760000Y-116620000D01*
X185440000Y-116620000D01*
X185100000Y-117090000D01*
G36*
X185100000Y-117090000D02*
G01*
X184760000Y-116620000D01*
X185440000Y-116620000D01*
X185100000Y-117090000D01*
G37*
%TO.C,R6*%
X196902500Y-95512258D02*
X196902500Y-95037742D01*
X197947500Y-95512258D02*
X197947500Y-95037742D01*
%TO.C,R14*%
X191177500Y-78287742D02*
X191177500Y-78762258D01*
X192222500Y-78287742D02*
X192222500Y-78762258D01*
%TO.C,R3*%
X173620000Y-53346359D02*
X173620000Y-53653641D01*
X174380000Y-53346359D02*
X174380000Y-53653641D01*
%TO.C,C12*%
X181311252Y-102040000D02*
X180788748Y-102040000D01*
X181311252Y-103510000D02*
X180788748Y-103510000D01*
%TO.C,R18*%
X194777500Y-77262258D02*
X194777500Y-76787742D01*
X195822500Y-77262258D02*
X195822500Y-76787742D01*
%TO.C,L3*%
X186490000Y-87937221D02*
X186490000Y-88262779D01*
X187510000Y-87937221D02*
X187510000Y-88262779D01*
%TO.C,R10*%
X187637258Y-73727500D02*
X187162742Y-73727500D01*
X187637258Y-74772500D02*
X187162742Y-74772500D01*
%TO.C,TP4*%
X204200000Y-123000000D02*
G75*
G02*
X202800000Y-123000000I-700000J0D01*
G01*
X202800000Y-123000000D02*
G75*
G02*
X204200000Y-123000000I700000J0D01*
G01*
%TO.C,C10*%
X180140000Y-90607836D02*
X180140000Y-90392164D01*
X180860000Y-90607836D02*
X180860000Y-90392164D01*
%TO.C,R22*%
X162836359Y-59620000D02*
X163143641Y-59620000D01*
X162836359Y-60380000D02*
X163143641Y-60380000D01*
%TO.C,R4*%
X203228641Y-53020000D02*
X202921359Y-53020000D01*
X203228641Y-53780000D02*
X202921359Y-53780000D01*
%TO.C,R17*%
X196477500Y-77287258D02*
X196477500Y-76812742D01*
X197522500Y-77287258D02*
X197522500Y-76812742D01*
%TO.C,C20*%
X194790000Y-73434420D02*
X194790000Y-73715580D01*
X195810000Y-73434420D02*
X195810000Y-73715580D01*
%TO.C,C3*%
X197290000Y-69690580D02*
X197290000Y-69409420D01*
X198310000Y-69690580D02*
X198310000Y-69409420D01*
%TO.C,C25*%
X197640000Y-86607836D02*
X197640000Y-86392164D01*
X198360000Y-86607836D02*
X198360000Y-86392164D01*
D13*
%TO.C,kibuzzard-67D30CFC*%
G36*
X203439903Y-97558336D02*
G01*
X203506543Y-97591050D01*
X203549435Y-97649935D01*
X203563732Y-97739354D01*
X203549192Y-97833619D01*
X203505574Y-97895412D01*
X203433360Y-97929580D01*
X203333037Y-97940969D01*
X203236107Y-97940969D01*
X203236107Y-97553247D01*
X203295234Y-97548401D01*
X203354362Y-97547431D01*
X203439903Y-97558336D01*
G37*
G36*
X206282317Y-97179773D02*
G01*
X206427725Y-97223881D01*
X206561733Y-97295510D01*
X206679192Y-97391907D01*
X206775588Y-97509366D01*
X206847217Y-97643374D01*
X206891326Y-97788781D01*
X206906220Y-97940000D01*
X206891326Y-98091219D01*
X206847217Y-98236626D01*
X206775588Y-98370634D01*
X206679192Y-98488093D01*
X206561733Y-98584490D01*
X206427725Y-98656119D01*
X206282317Y-98700227D01*
X206131099Y-98715121D01*
X205727221Y-98715121D01*
X204786995Y-98715121D01*
X203236107Y-98715121D01*
X202997658Y-98715121D01*
X202593780Y-98715121D01*
X202593780Y-97369079D01*
X202997658Y-97369079D01*
X202997658Y-98553570D01*
X203236107Y-98553570D01*
X203906866Y-98553570D01*
X204125929Y-98553570D01*
X204116236Y-97621099D01*
X204257754Y-98129015D01*
X204432229Y-98129015D01*
X204579564Y-97621099D01*
X204567932Y-98553570D01*
X204786995Y-98553570D01*
X204782633Y-98400178D01*
X204777302Y-98250178D01*
X204770759Y-98102359D01*
X204762763Y-97955509D01*
X204753069Y-97808417D01*
X204741438Y-97659871D01*
X204728595Y-97508659D01*
X204726596Y-97485396D01*
X204914943Y-97485396D01*
X205033199Y-97652116D01*
X205155331Y-97561002D01*
X205273586Y-97533861D01*
X205386026Y-97573603D01*
X205430614Y-97687011D01*
X205394750Y-97789758D01*
X205303635Y-97894443D01*
X205246446Y-97949935D01*
X205185380Y-98007851D01*
X205124313Y-98069402D01*
X205067124Y-98135800D01*
X205016721Y-98207771D01*
X204976010Y-98286042D01*
X204949111Y-98371341D01*
X204940145Y-98464394D01*
X204939176Y-98505105D01*
X204944023Y-98553570D01*
X205727221Y-98553570D01*
X205727221Y-98355832D01*
X205211551Y-98355832D01*
X205231906Y-98291858D01*
X205281341Y-98223037D01*
X205343376Y-98157124D01*
X205401535Y-98101874D01*
X205500404Y-98004943D01*
X205587641Y-97900258D01*
X205649677Y-97788788D01*
X205672940Y-97669564D01*
X205641922Y-97519321D01*
X205558562Y-97411729D01*
X205438368Y-97347754D01*
X205296850Y-97326430D01*
X205195800Y-97336123D01*
X205094265Y-97365202D01*
X204998546Y-97414637D01*
X204914943Y-97485396D01*
X204726596Y-97485396D01*
X204715267Y-97353570D01*
X204517528Y-97353570D01*
X204482633Y-97456317D01*
X204439984Y-97589111D01*
X204391519Y-97736446D01*
X204343053Y-97884750D01*
X204298465Y-97745170D01*
X204251939Y-97595897D01*
X204208320Y-97458255D01*
X204174394Y-97353570D01*
X203976656Y-97353570D01*
X203963813Y-97484911D01*
X203952423Y-97626914D01*
X203942488Y-97776672D01*
X203934006Y-97931276D01*
X203926494Y-98088788D01*
X203919467Y-98247270D01*
X203912924Y-98403328D01*
X203906866Y-98553570D01*
X203236107Y-98553570D01*
X203236107Y-98148401D01*
X203321405Y-98148401D01*
X203464755Y-98137738D01*
X203584626Y-98105751D01*
X203681018Y-98052439D01*
X203751562Y-97975218D01*
X203793888Y-97871502D01*
X203807997Y-97741292D01*
X203793996Y-97612375D01*
X203751992Y-97509952D01*
X203681987Y-97434023D01*
X203586564Y-97381788D01*
X203468309Y-97350447D01*
X203327221Y-97340000D01*
X203251616Y-97341939D01*
X203164378Y-97346785D01*
X203076171Y-97355509D01*
X202997658Y-97369079D01*
X202593780Y-97369079D01*
X202593780Y-97164879D01*
X202997658Y-97164879D01*
X205727221Y-97164879D01*
X206131099Y-97164879D01*
X206282317Y-97179773D01*
G37*
%TO.C,kibuzzard-67D30BA5*%
G36*
X161864297Y-46689822D02*
G01*
X161744750Y-46662359D01*
X161641357Y-46604200D01*
X161570275Y-46510501D01*
X161544426Y-46376414D01*
X161571890Y-46240711D01*
X161644588Y-46150242D01*
X161746365Y-46098546D01*
X161864297Y-46082391D01*
X161864297Y-46689822D01*
G37*
G36*
X163073775Y-48189015D02*
G01*
X163073775Y-49452342D01*
X163073775Y-50302100D01*
X163073775Y-50975229D01*
X160926225Y-50975229D01*
X160926225Y-50302100D01*
X160926225Y-49452342D01*
X161195477Y-49452342D01*
X161195477Y-49794830D01*
X161757674Y-49794830D01*
X161757674Y-50302100D01*
X162084006Y-50302100D01*
X162084006Y-49794830D01*
X162646204Y-49794830D01*
X162646204Y-49452342D01*
X162084006Y-49452342D01*
X162084006Y-48945073D01*
X161757674Y-48945073D01*
X161757674Y-49452342D01*
X161195477Y-49452342D01*
X160926225Y-49452342D01*
X160926225Y-47245557D01*
X161250404Y-47245557D01*
X161250404Y-47649435D01*
X161377221Y-47682956D01*
X161512116Y-47725363D01*
X161651454Y-47773021D01*
X161791599Y-47822294D01*
X161930129Y-47872779D01*
X162064620Y-47924071D01*
X162306947Y-48017771D01*
X162064620Y-48106624D01*
X161930129Y-48153069D01*
X161791599Y-48198708D01*
X161651454Y-48242730D01*
X161512116Y-48284330D01*
X161377221Y-48321890D01*
X161250404Y-48353796D01*
X161250404Y-48770598D01*
X161475263Y-48701838D01*
X161691034Y-48631260D01*
X161897718Y-48558865D01*
X162095315Y-48484653D01*
X162341770Y-48385030D01*
X162566326Y-48286484D01*
X162768982Y-48189015D01*
X162768982Y-47856220D01*
X162566326Y-47757135D01*
X162341770Y-47653743D01*
X162095315Y-47546042D01*
X161897718Y-47465468D01*
X161691034Y-47388530D01*
X161475263Y-47315226D01*
X161250404Y-47245557D01*
X160926225Y-47245557D01*
X160926225Y-46382876D01*
X161211632Y-46382876D01*
X161224556Y-46516963D01*
X161263328Y-46647819D01*
X161327544Y-46769790D01*
X161416801Y-46877221D01*
X161531099Y-46967690D01*
X161670436Y-47038772D01*
X161834410Y-47084814D01*
X162022617Y-47100162D01*
X162204362Y-47085622D01*
X162361874Y-47042003D01*
X162495557Y-46971325D01*
X162605816Y-46875606D01*
X162692246Y-46756058D01*
X162754443Y-46613893D01*
X162792003Y-46450323D01*
X162804523Y-46266559D01*
X162780291Y-46004847D01*
X162720517Y-45785137D01*
X162381260Y-45840065D01*
X162432956Y-46022617D01*
X162458805Y-46250404D01*
X162437399Y-46426494D01*
X162373183Y-46567044D01*
X162271809Y-46659128D01*
X162138934Y-46689822D01*
X162138934Y-45704362D01*
X162071082Y-45699515D01*
X161990307Y-45697900D01*
X161756417Y-45717286D01*
X161563095Y-45775444D01*
X161410339Y-45872375D01*
X161299946Y-46006642D01*
X161233710Y-46176808D01*
X161211632Y-46382876D01*
X160926225Y-46382876D01*
X160926225Y-45697900D01*
X160926225Y-45024771D01*
X163073775Y-45024771D01*
X163073775Y-45697900D01*
X163073775Y-46266559D01*
X163073775Y-48189015D01*
G37*
D12*
%TO.C,TP3*%
X211700000Y-123000000D02*
G75*
G02*
X210300000Y-123000000I-700000J0D01*
G01*
X210300000Y-123000000D02*
G75*
G02*
X211700000Y-123000000I700000J0D01*
G01*
%TO.C,J6*%
X158930000Y-61280000D02*
X158930000Y-119820000D01*
X158930000Y-61280000D02*
X161530000Y-61280000D01*
X158930000Y-119820000D02*
X164130000Y-119820000D01*
X161530000Y-61280000D02*
X161530000Y-63880000D01*
X161530000Y-63880000D02*
X164130000Y-63880000D01*
X162800000Y-61280000D02*
X164130000Y-61280000D01*
X164130000Y-61280000D02*
X164130000Y-62610000D01*
X164130000Y-63880000D02*
X164130000Y-119820000D01*
D13*
%TO.C,kibuzzard-67D30C33*%
G36*
X208118002Y-49420630D02*
G01*
X208184238Y-49495751D01*
X208218164Y-49603990D01*
X208227857Y-49730000D01*
X208224828Y-49801284D01*
X208215740Y-49866511D01*
X208175353Y-49973942D01*
X208101039Y-50045024D01*
X207987146Y-50070872D01*
X207969375Y-50070872D01*
X207951605Y-50069257D01*
X207951605Y-49397205D01*
X207980684Y-49393166D01*
X208009763Y-49392359D01*
X208118002Y-49420630D01*
G37*
G36*
X208894424Y-49086178D02*
G01*
X209017567Y-49123533D01*
X209131056Y-49184194D01*
X209230529Y-49265830D01*
X209312166Y-49365304D01*
X209372827Y-49478793D01*
X209410182Y-49601936D01*
X209422795Y-49730000D01*
X209410182Y-49858064D01*
X209372827Y-49981207D01*
X209312166Y-50094696D01*
X209230529Y-50194170D01*
X209131056Y-50275806D01*
X209017567Y-50336467D01*
X208894424Y-50373822D01*
X208766360Y-50386435D01*
X208429795Y-50386435D01*
X207966144Y-50386435D01*
X207431411Y-50386435D01*
X206502493Y-50386435D01*
X206093770Y-50386435D01*
X205757205Y-50386435D01*
X205757205Y-49730000D01*
X206093770Y-49730000D01*
X206101039Y-49851365D01*
X206122849Y-49956979D01*
X206157986Y-50046640D01*
X206205240Y-50120145D01*
X206264004Y-50177496D01*
X206333673Y-50218691D01*
X206413438Y-50243530D01*
X206502493Y-50251809D01*
X206601241Y-50247771D01*
X206684238Y-50235654D01*
X206702680Y-50230808D01*
X206932219Y-50230808D01*
X207111540Y-50230808D01*
X207111540Y-49566834D01*
X207171583Y-49677675D01*
X207228934Y-49788338D01*
X207283592Y-49898821D01*
X207335557Y-50009304D01*
X207384830Y-50119966D01*
X207431411Y-50230808D01*
X207591346Y-50230808D01*
X207591346Y-49243732D01*
X207752897Y-49243732D01*
X207752897Y-50219499D01*
X207861944Y-50238078D01*
X207966144Y-50243732D01*
X208063681Y-50236664D01*
X208152736Y-50215460D01*
X208231694Y-50178910D01*
X208298939Y-50125800D01*
X208353665Y-50055323D01*
X208395062Y-49966672D01*
X208421112Y-49858635D01*
X208429795Y-49730000D01*
X208421920Y-49604192D01*
X208398293Y-49498174D01*
X208360530Y-49410533D01*
X208310248Y-49339855D01*
X208247445Y-49285937D01*
X208172122Y-49248578D01*
X208086298Y-49226769D01*
X207991992Y-49219499D01*
X207880522Y-49224346D01*
X207752897Y-49243732D01*
X207591346Y-49243732D01*
X207591346Y-49230808D01*
X207412025Y-49230808D01*
X207412025Y-49846317D01*
X207383551Y-49783312D01*
X207349828Y-49710614D01*
X207311863Y-49631858D01*
X207270668Y-49550679D01*
X207227251Y-49468086D01*
X207182623Y-49385089D01*
X207137388Y-49304919D01*
X207092154Y-49230808D01*
X206932219Y-49230808D01*
X206932219Y-50230808D01*
X206702680Y-50230808D01*
X206794900Y-50206575D01*
X206794900Y-49707383D01*
X206596193Y-49707383D01*
X206596193Y-50072488D01*
X206557421Y-50077334D01*
X206518648Y-50078950D01*
X206422122Y-50057746D01*
X206352251Y-49994136D01*
X206320838Y-49927092D01*
X206301991Y-49839047D01*
X206295708Y-49730000D01*
X206299141Y-49655889D01*
X206309440Y-49588643D01*
X206354674Y-49478788D01*
X206434642Y-49406898D01*
X206554190Y-49381050D01*
X206660813Y-49398821D01*
X206748051Y-49439208D01*
X206799747Y-49280889D01*
X206766629Y-49261502D01*
X206710894Y-49237270D01*
X206630926Y-49217076D01*
X206526726Y-49208191D01*
X206439085Y-49216470D01*
X206357097Y-49241309D01*
X206283188Y-49282706D01*
X206219779Y-49340662D01*
X206167679Y-49414774D01*
X206127695Y-49504637D01*
X206102251Y-49609847D01*
X206093770Y-49730000D01*
X205757205Y-49730000D01*
X205757205Y-49073565D01*
X206093770Y-49073565D01*
X208429795Y-49073565D01*
X208766360Y-49073565D01*
X208894424Y-49086178D01*
G37*
D12*
%TO.C,JP2*%
X199325000Y-95475000D02*
X199325000Y-94875000D01*
X200025000Y-94175000D02*
X201425000Y-94175000D01*
X201425000Y-96175000D02*
X200025000Y-96175000D01*
X202125000Y-94875000D02*
X202125000Y-95475000D01*
X199325000Y-94875000D02*
G75*
G02*
X200025000Y-94175000I700000J0D01*
G01*
X200025000Y-96175000D02*
G75*
G02*
X199325000Y-95475000I0J700000D01*
G01*
X201425000Y-94175000D02*
G75*
G02*
X202125000Y-94875000I1J-699999D01*
G01*
X202125000Y-95475000D02*
G75*
G02*
X201425000Y-96175000I-699999J-1D01*
G01*
%TO.C,C21*%
X193390000Y-87807836D02*
X193390000Y-87592164D01*
X194110000Y-87807836D02*
X194110000Y-87592164D01*
%TO.C,C5*%
X178715000Y-118638748D02*
X178715000Y-119161252D01*
X180185000Y-118638748D02*
X180185000Y-119161252D01*
%TO.C,Q1*%
X169012500Y-96830000D02*
X168362500Y-96830000D01*
X169012500Y-96830000D02*
X169662500Y-96830000D01*
X169012500Y-99950000D02*
X168362500Y-99950000D01*
X169012500Y-99950000D02*
X169662500Y-99950000D01*
X170415000Y-100230000D02*
X169935000Y-100230000D01*
X170175000Y-99900000D01*
X170415000Y-100230000D01*
G36*
X170415000Y-100230000D02*
G01*
X169935000Y-100230000D01*
X170175000Y-99900000D01*
X170415000Y-100230000D01*
G37*
D13*
%TO.C,kibuzzard-67ED70ED*%
G36*
X209242009Y-124551370D02*
G01*
X209242009Y-126448630D01*
X209242009Y-126676941D01*
X207757991Y-126676941D01*
X207757991Y-126448630D01*
X207757991Y-126140411D01*
X207986301Y-126140411D01*
X207994673Y-126234589D01*
X208019787Y-126311644D01*
X208061644Y-126371575D01*
X208120244Y-126414384D01*
X208195586Y-126440068D01*
X208287671Y-126448630D01*
X208383904Y-126437500D01*
X208457534Y-126404110D01*
X208508562Y-126348459D01*
X208536986Y-126270548D01*
X208538356Y-126270548D01*
X208573202Y-126342466D01*
X208625685Y-126393836D01*
X208695805Y-126424658D01*
X208783562Y-126434932D01*
X208879966Y-126417808D01*
X208952740Y-126366438D01*
X208998459Y-126283219D01*
X209013699Y-126170548D01*
X209008371Y-126096271D01*
X208992390Y-126019559D01*
X208965753Y-125940411D01*
X208838356Y-125940411D01*
X208881507Y-126046575D01*
X208895890Y-126143151D01*
X208881279Y-126222298D01*
X208837443Y-126269787D01*
X208764384Y-126285616D01*
X208687329Y-126273288D01*
X208634247Y-126236301D01*
X208603425Y-126171575D01*
X208593151Y-126076027D01*
X208593151Y-126048630D01*
X208472603Y-126048630D01*
X208472603Y-126076027D01*
X208462158Y-126178767D01*
X208430822Y-126245890D01*
X208375856Y-126282877D01*
X208294521Y-126295205D01*
X208211815Y-126284418D01*
X208152740Y-126252055D01*
X208117295Y-126198116D01*
X208105479Y-126122603D01*
X208119521Y-126020890D01*
X208161644Y-125921233D01*
X208030137Y-125921233D01*
X207997260Y-126028767D01*
X207986301Y-126140411D01*
X207757991Y-126140411D01*
X207757991Y-125588356D01*
X207757991Y-125410274D01*
X208000000Y-125410274D01*
X208000000Y-125588356D01*
X209000000Y-125811644D01*
X209000000Y-125659589D01*
X208136986Y-125503425D01*
X208136986Y-125502055D01*
X209000000Y-125345890D01*
X209000000Y-125188356D01*
X208000000Y-125410274D01*
X207757991Y-125410274D01*
X207757991Y-124770548D01*
X207986301Y-124770548D01*
X207994673Y-124864726D01*
X208019787Y-124941781D01*
X208061644Y-125001712D01*
X208120244Y-125044521D01*
X208195586Y-125070205D01*
X208287671Y-125078767D01*
X208383904Y-125067637D01*
X208457534Y-125034247D01*
X208508562Y-124978596D01*
X208536986Y-124900685D01*
X208538356Y-124900685D01*
X208573202Y-124972603D01*
X208625685Y-125023973D01*
X208695805Y-125054795D01*
X208783562Y-125065068D01*
X208879966Y-125047945D01*
X208952740Y-124996575D01*
X208998459Y-124913356D01*
X209013699Y-124800685D01*
X209008371Y-124726408D01*
X208992390Y-124649696D01*
X208965753Y-124570548D01*
X208838356Y-124570548D01*
X208881507Y-124676712D01*
X208895890Y-124773288D01*
X208881279Y-124852435D01*
X208837443Y-124899924D01*
X208764384Y-124915753D01*
X208687329Y-124903425D01*
X208634247Y-124866438D01*
X208603425Y-124801712D01*
X208593151Y-124706164D01*
X208593151Y-124678767D01*
X208472603Y-124678767D01*
X208472603Y-124706164D01*
X208462158Y-124808904D01*
X208430822Y-124876027D01*
X208375856Y-124913014D01*
X208294521Y-124925342D01*
X208211815Y-124914555D01*
X208152740Y-124882192D01*
X208117295Y-124828253D01*
X208105479Y-124752740D01*
X208119521Y-124651027D01*
X208161644Y-124551370D01*
X208030137Y-124551370D01*
X207997260Y-124658904D01*
X207986301Y-124770548D01*
X207757991Y-124770548D01*
X207757991Y-124551370D01*
X207757991Y-124323059D01*
X209242009Y-124323059D01*
X209242009Y-124551370D01*
G37*
D12*
%TO.C,U2*%
X179000000Y-77535000D02*
X177050000Y-77535000D01*
X179000000Y-77535000D02*
X180950000Y-77535000D01*
X179000000Y-82655000D02*
X177050000Y-82655000D01*
X179000000Y-82655000D02*
X180950000Y-82655000D01*
X176300000Y-77630000D02*
X176060000Y-77300000D01*
X176540000Y-77300000D01*
X176300000Y-77630000D01*
G36*
X176300000Y-77630000D02*
G01*
X176060000Y-77300000D01*
X176540000Y-77300000D01*
X176300000Y-77630000D01*
G37*
%TO.C,R7*%
X196902500Y-98712258D02*
X196902500Y-98237742D01*
X197947500Y-98712258D02*
X197947500Y-98237742D01*
%TO.C,C17*%
X179140580Y-95240000D02*
X178859420Y-95240000D01*
X179140580Y-96260000D02*
X178859420Y-96260000D01*
D14*
%TO.C,L5*%
X178160000Y-124100000D02*
X178840000Y-124100000D01*
X178160000Y-125900000D02*
X178840000Y-125900000D01*
D12*
%TO.C,C8*%
X183665000Y-103990580D02*
X183665000Y-103709420D01*
X184685000Y-103990580D02*
X184685000Y-103709420D01*
%TO.C,J4*%
X180200000Y-42470000D02*
X196550000Y-42470000D01*
X180200000Y-54820000D02*
X180200000Y-42470000D01*
X180200000Y-64260000D02*
X180205000Y-58020000D01*
X196550000Y-42470000D02*
X196550000Y-54820000D01*
X196550000Y-58020000D02*
X196550000Y-64260000D01*
X196550000Y-64260000D02*
X180200000Y-64260000D01*
X196735000Y-60710000D02*
X196735000Y-58710000D01*
%TO.C,C16*%
X189640000Y-87607836D02*
X189640000Y-87392164D01*
X190360000Y-87607836D02*
X190360000Y-87392164D01*
%TO.C,C7*%
X175090000Y-120711252D02*
X175090000Y-119288748D01*
X176910000Y-120711252D02*
X176910000Y-119288748D01*
%TO.C,C26*%
X196140000Y-86607836D02*
X196140000Y-86392164D01*
X196860000Y-86607836D02*
X196860000Y-86392164D01*
%TO.C,D4*%
X166490000Y-110400000D02*
X166490000Y-114700000D01*
X166490000Y-110400000D02*
X174150000Y-110400000D01*
X166490000Y-114700000D02*
X174150000Y-114700000D01*
%TO.C,R20*%
X177620000Y-50846359D02*
X177620000Y-51153641D01*
X178380000Y-50846359D02*
X178380000Y-51153641D01*
%TO.C,C23*%
X199140000Y-86607836D02*
X199140000Y-86392164D01*
X199860000Y-86607836D02*
X199860000Y-86392164D01*
%TO.C,C14*%
X181157836Y-100515000D02*
X180942164Y-100515000D01*
X181157836Y-101235000D02*
X180942164Y-101235000D01*
D14*
%TO.C,RN2*%
X196900000Y-103900000D02*
X196900000Y-102100000D01*
X200300000Y-102100000D02*
X200300000Y-103900000D01*
D15*
X197200000Y-104900000D02*
G75*
G02*
X197000000Y-104900000I-100000J0D01*
G01*
X197000000Y-104900000D02*
G75*
G02*
X197200000Y-104900000I100000J0D01*
G01*
D12*
%TO.C,R19*%
X174070000Y-98393641D02*
X174070000Y-98086359D01*
X174830000Y-98393641D02*
X174830000Y-98086359D01*
D15*
%TO.C,Q2*%
X179850000Y-67550000D02*
X179850000Y-68450000D01*
X180300000Y-66550000D02*
X181150000Y-66550000D01*
X181150000Y-66550000D02*
X181150000Y-67500000D01*
X181150000Y-68500000D02*
X181150000Y-69450000D01*
X181150000Y-69450000D02*
X180300000Y-69450000D01*
D16*
X179553076Y-66400000D02*
G75*
G02*
X179346924Y-66400000I-103076J0D01*
G01*
X179346924Y-66400000D02*
G75*
G02*
X179553076Y-66400000I103076J0D01*
G01*
D12*
%TO.C,C13*%
X191265000Y-87711252D02*
X191265000Y-87188748D01*
X192735000Y-87711252D02*
X192735000Y-87188748D01*
%TO.C,R13*%
X198377500Y-78062742D02*
X198377500Y-78537258D01*
X199422500Y-78062742D02*
X199422500Y-78537258D01*
%TO.C,D3*%
X166390000Y-104650000D02*
X166390000Y-108950000D01*
X166390000Y-104650000D02*
X174050000Y-104650000D01*
X166390000Y-108950000D02*
X174050000Y-108950000D01*
%TO.C,U5*%
X201890000Y-72115000D02*
X203300000Y-72115000D01*
X201900000Y-74435000D02*
X203300000Y-74435000D01*
X201520000Y-72165000D02*
X201280000Y-71835000D01*
X201760000Y-71835000D01*
X201520000Y-72165000D01*
G36*
X201520000Y-72165000D02*
G01*
X201280000Y-71835000D01*
X201760000Y-71835000D01*
X201520000Y-72165000D01*
G37*
%TO.C,C24*%
X194640000Y-86607836D02*
X194640000Y-86392164D01*
X195360000Y-86607836D02*
X195360000Y-86392164D01*
%TO.C,J2*%
X163880000Y-43880000D02*
X163880000Y-51920000D01*
X163880000Y-43880000D02*
X174620000Y-43880000D01*
X163880000Y-47500000D02*
X165120000Y-47500000D01*
X163880000Y-48500000D02*
X165120000Y-48500000D01*
X163880000Y-49800000D02*
X165120000Y-49800000D01*
X163880000Y-51920000D02*
X166700000Y-51920000D01*
X167300000Y-51920000D02*
X174620000Y-51920000D01*
X168880000Y-47500000D02*
X170188000Y-47500000D01*
X168880000Y-48500000D02*
X170188000Y-48500000D01*
X168880000Y-49800000D02*
X171457000Y-49800000D01*
X170556000Y-49204000D02*
X170513000Y-49247000D01*
X170795000Y-49443000D02*
X170752000Y-49486000D01*
X172543000Y-49800000D02*
X174620000Y-49800000D01*
X173247000Y-46514000D02*
X173204000Y-46557000D01*
X173487000Y-46753000D02*
X173444000Y-46796000D01*
X173812000Y-47500000D02*
X174620000Y-47500000D01*
X173812000Y-48500000D02*
X174620000Y-48500000D01*
X174620000Y-43880000D02*
X174620000Y-51920000D01*
X165120000Y-48554000D02*
G75*
G02*
X165120139Y-47445528I1879990J554000D01*
G01*
X166446000Y-46120000D02*
G75*
G02*
X167554472Y-46120139I554000J-1880000D01*
G01*
X167554000Y-49880000D02*
G75*
G02*
X166445528Y-49879861I-554000J1879990D01*
G01*
X168880000Y-47446000D02*
G75*
G02*
X168879861Y-48554472I-1880000J-554000D01*
G01*
X173960000Y-48000000D02*
G75*
G02*
X170040000Y-48000000I-1960000J0D01*
G01*
X170040000Y-48000000D02*
G75*
G02*
X173960000Y-48000000I1960000J0D01*
G01*
X167440000Y-52530000D02*
X166560000Y-52530000D01*
X167000000Y-51920000D01*
X167440000Y-52530000D01*
G36*
X167440000Y-52530000D02*
G01*
X166560000Y-52530000D01*
X167000000Y-51920000D01*
X167440000Y-52530000D01*
G37*
%TO.C,D1*%
X204852500Y-52765000D02*
X204852500Y-54235000D01*
X204852500Y-54235000D02*
X207137500Y-54235000D01*
X207137500Y-52765000D02*
X204852500Y-52765000D01*
D13*
%TO.C,kibuzzard-67ED70F9*%
G36*
X211394521Y-126123973D02*
G01*
X211373288Y-126218836D01*
X211309589Y-126284247D01*
X211238965Y-126312405D01*
X211140335Y-126329300D01*
X211013699Y-126334932D01*
X210873820Y-126329376D01*
X210766514Y-126312709D01*
X210691781Y-126284932D01*
X210626027Y-126219692D01*
X210604110Y-126123973D01*
X210616438Y-126062329D01*
X211382192Y-126062329D01*
X211394521Y-126123973D01*
G37*
G36*
X211742009Y-124515753D02*
G01*
X211742009Y-126484247D01*
X211742009Y-126712557D01*
X210257991Y-126712557D01*
X210257991Y-126484247D01*
X210257991Y-126123973D01*
X210486301Y-126123973D01*
X210498116Y-126237671D01*
X210533562Y-126326712D01*
X210598116Y-126394349D01*
X210697260Y-126443836D01*
X210784170Y-126466286D01*
X210889650Y-126479756D01*
X211013699Y-126484247D01*
X211141738Y-126478981D01*
X211249144Y-126463185D01*
X211335916Y-126436858D01*
X211402055Y-126400000D01*
X211464079Y-126331887D01*
X211501294Y-126239878D01*
X211513699Y-126123973D01*
X211506849Y-126016096D01*
X211486301Y-125908904D01*
X210513699Y-125908904D01*
X210493151Y-126011986D01*
X210486301Y-126123973D01*
X210257991Y-126123973D01*
X210257991Y-125385616D01*
X210500000Y-125385616D01*
X211226027Y-125385616D01*
X211226027Y-125388356D01*
X210500000Y-125602055D01*
X210500000Y-125755479D01*
X211500000Y-125755479D01*
X211500000Y-125611644D01*
X210773973Y-125611644D01*
X210773973Y-125607534D01*
X211500000Y-125393836D01*
X211500000Y-125234932D01*
X210500000Y-125234932D01*
X210500000Y-125385616D01*
X210257991Y-125385616D01*
X210257991Y-125234932D01*
X210257991Y-124858219D01*
X210486301Y-124858219D01*
X210491629Y-124940107D01*
X210507610Y-125017732D01*
X210534247Y-125091096D01*
X211095890Y-125091096D01*
X211095890Y-124771918D01*
X210979452Y-124771918D01*
X210979452Y-124944521D01*
X210620548Y-124944521D01*
X210604110Y-124862329D01*
X210627397Y-124778767D01*
X210697260Y-124717123D01*
X210773059Y-124688965D01*
X210876256Y-124672070D01*
X211006849Y-124666438D01*
X211134475Y-124672374D01*
X211234247Y-124690183D01*
X211306164Y-124719863D01*
X211371404Y-124788014D01*
X211393151Y-124885616D01*
X211384932Y-124969521D01*
X211360274Y-125056849D01*
X211483562Y-125056849D01*
X211506164Y-124972945D01*
X211513699Y-124885616D01*
X211500152Y-124772603D01*
X211459513Y-124680137D01*
X211391781Y-124608219D01*
X211322003Y-124567765D01*
X211234589Y-124538870D01*
X211129538Y-124521533D01*
X211006849Y-124515753D01*
X210884846Y-124521104D01*
X210779110Y-124537158D01*
X210689640Y-124563913D01*
X210616438Y-124601370D01*
X210559503Y-124649529D01*
X210518836Y-124708390D01*
X210494435Y-124777954D01*
X210486301Y-124858219D01*
X210257991Y-124858219D01*
X210257991Y-124515753D01*
X210257991Y-124287443D01*
X211742009Y-124287443D01*
X211742009Y-124515753D01*
G37*
D12*
%TO.C,R11*%
X187537258Y-68127500D02*
X187062742Y-68127500D01*
X187537258Y-69172500D02*
X187062742Y-69172500D01*
%TO.C,R5*%
X196902500Y-91937742D02*
X196902500Y-92412258D01*
X197947500Y-91937742D02*
X197947500Y-92412258D01*
%TO.C,D5*%
X170560000Y-53350000D02*
X162900000Y-53350000D01*
X170560000Y-57650000D02*
X162900000Y-57650000D01*
X170560000Y-57650000D02*
X170560000Y-53350000D01*
%TO.C,C22*%
X187259420Y-75540000D02*
X187540580Y-75540000D01*
X187259420Y-76560000D02*
X187540580Y-76560000D01*
%TO.C,R16*%
X193077500Y-77237258D02*
X193077500Y-76762742D01*
X194122500Y-77237258D02*
X194122500Y-76762742D01*
%TO.C,R1*%
X206195000Y-57253641D02*
X206195000Y-56946359D01*
X206955000Y-57253641D02*
X206955000Y-56946359D01*
%TO.C,R23*%
X167633859Y-120120000D02*
X167941141Y-120120000D01*
X167633859Y-120880000D02*
X167941141Y-120880000D01*
D13*
%TO.C,kibuzzard-67ED70B8*%
G36*
X203887671Y-126126712D02*
G01*
X203876884Y-126199658D01*
X203844521Y-126251370D01*
X203788870Y-126282192D01*
X203708219Y-126292466D01*
X203623973Y-126281507D01*
X203568493Y-126248630D01*
X203537671Y-126189726D01*
X203527397Y-126100685D01*
X203527397Y-126047260D01*
X203876712Y-126047260D01*
X203887671Y-126126712D01*
G37*
G36*
X203887671Y-124763699D02*
G01*
X203875000Y-124837500D01*
X203836986Y-124889041D01*
X203770548Y-124919349D01*
X203672603Y-124929452D01*
X203567295Y-124919349D01*
X203497945Y-124889041D01*
X203459418Y-124837500D01*
X203446575Y-124763699D01*
X203456164Y-124684247D01*
X203876712Y-124684247D01*
X203887671Y-124763699D01*
G37*
G36*
X204235160Y-124530822D02*
G01*
X204235160Y-126469178D01*
X204235160Y-126697489D01*
X202764840Y-126697489D01*
X202764840Y-126469178D01*
X202764840Y-125893836D01*
X202993151Y-125893836D01*
X202993151Y-126047260D01*
X203408219Y-126047260D01*
X203408219Y-126100685D01*
X203381507Y-126183562D01*
X203342979Y-126209760D01*
X203280822Y-126232192D01*
X202993151Y-126311644D01*
X202993151Y-126469178D01*
X203272603Y-126384247D01*
X203380137Y-126340411D01*
X203447945Y-126288356D01*
X203450685Y-126288356D01*
X203489897Y-126355479D01*
X203545890Y-126403425D01*
X203618664Y-126432192D01*
X203708219Y-126441781D01*
X203802207Y-126433333D01*
X203877778Y-126407991D01*
X203934932Y-126365753D01*
X203974886Y-126305403D01*
X203998858Y-126225723D01*
X204006849Y-126126712D01*
X204003805Y-126047869D01*
X203994673Y-125970244D01*
X203979452Y-125893836D01*
X202993151Y-125893836D01*
X202764840Y-125893836D01*
X202764840Y-125713014D01*
X202764840Y-125233562D01*
X202993151Y-125233562D01*
X202993151Y-125381507D01*
X203664384Y-125462329D01*
X203664384Y-125466438D01*
X202993151Y-125534932D01*
X202993151Y-125713014D01*
X203993151Y-125802055D01*
X203993151Y-125665068D01*
X203136986Y-125614384D01*
X203136986Y-125611644D01*
X203828767Y-125539041D01*
X203828767Y-125417123D01*
X203232877Y-125341781D01*
X203232877Y-125339041D01*
X203993151Y-125291096D01*
X203993151Y-125144521D01*
X202993151Y-125233562D01*
X202764840Y-125233562D01*
X202764840Y-124684247D01*
X202764840Y-124530822D01*
X202993151Y-124530822D01*
X202993151Y-124684247D01*
X203335616Y-124684247D01*
X203328767Y-124763699D01*
X203337900Y-124861339D01*
X203365297Y-124940563D01*
X203410959Y-125001370D01*
X203476560Y-125044368D01*
X203563775Y-125070167D01*
X203672603Y-125078767D01*
X203779528Y-125070396D01*
X203864688Y-125045282D01*
X203928082Y-125003425D01*
X203971842Y-124943303D01*
X203998097Y-124863394D01*
X204006849Y-124763699D01*
X204003805Y-124684855D01*
X203994673Y-124607230D01*
X203979452Y-124530822D01*
X202993151Y-124530822D01*
X202764840Y-124530822D01*
X202764840Y-124302511D01*
X204235160Y-124302511D01*
X204235160Y-124530822D01*
G37*
D12*
%TO.C,C9*%
X188140000Y-88592836D02*
X188140000Y-88377164D01*
X188860000Y-88592836D02*
X188860000Y-88377164D01*
%TO.C,C2*%
X198990000Y-69715580D02*
X198990000Y-69434420D01*
X200010000Y-69715580D02*
X200010000Y-69434420D01*
%TO.C,C18*%
X190734420Y-71940000D02*
X191015580Y-71940000D01*
X190734420Y-72960000D02*
X191015580Y-72960000D01*
%TO.C,L4*%
X178837221Y-92990000D02*
X179162779Y-92990000D01*
X178837221Y-94010000D02*
X179162779Y-94010000D01*
%TO.C,JP1*%
X199275000Y-92875000D02*
X199275000Y-92275000D01*
X199975000Y-91575000D02*
X201375000Y-91575000D01*
X201375000Y-93575000D02*
X199975000Y-93575000D01*
X202075000Y-92275000D02*
X202075000Y-92875000D01*
X199275000Y-92275000D02*
G75*
G02*
X199975000Y-91575000I700000J0D01*
G01*
X199975000Y-93575000D02*
G75*
G02*
X199275000Y-92875000I0J700000D01*
G01*
X201375000Y-91575000D02*
G75*
G02*
X202075000Y-92275000I1J-699999D01*
G01*
X202075000Y-92875000D02*
G75*
G02*
X201375000Y-93575000I-699999J-1D01*
G01*
D13*
%TO.C,kibuzzard-67ED70E0*%
G36*
X206097412Y-126036758D02*
G01*
X206179604Y-126042237D01*
X206246575Y-126051370D01*
X206321233Y-126070377D01*
X206367123Y-126094521D01*
X206398630Y-126166438D01*
X206374658Y-126230822D01*
X206293151Y-126271918D01*
X205886301Y-126037671D01*
X206000000Y-126034932D01*
X206097412Y-126036758D01*
G37*
G36*
X206138356Y-126293836D02*
G01*
X206074315Y-126296918D01*
X206000000Y-126297945D01*
X205902588Y-126296119D01*
X205820396Y-126290639D01*
X205753425Y-126281507D01*
X205678767Y-126262500D01*
X205632877Y-126238356D01*
X205601370Y-126166438D01*
X205629452Y-126097945D01*
X205726027Y-126055479D01*
X206138356Y-126293836D01*
G37*
G36*
X206742009Y-124559589D02*
G01*
X206742009Y-126440411D01*
X206742009Y-126668721D01*
X205257991Y-126668721D01*
X205257991Y-126440411D01*
X205257991Y-126166438D01*
X205486301Y-126166438D01*
X205497432Y-126251712D01*
X205530822Y-126318493D01*
X205592808Y-126369692D01*
X205689726Y-126408219D01*
X205775038Y-126426104D01*
X205878463Y-126436834D01*
X206000000Y-126440411D01*
X206121537Y-126436834D01*
X206224962Y-126426104D01*
X206310274Y-126408219D01*
X206407192Y-126369692D01*
X206469178Y-126318493D01*
X206502568Y-126251712D01*
X206513699Y-126166438D01*
X206502568Y-126081164D01*
X206469178Y-126014384D01*
X206407192Y-125963185D01*
X206310274Y-125924658D01*
X206224962Y-125906773D01*
X206121537Y-125896043D01*
X206000000Y-125892466D01*
X205878463Y-125896043D01*
X205775038Y-125906773D01*
X205689726Y-125924658D01*
X205592808Y-125963185D01*
X205530822Y-126014384D01*
X205497432Y-126081164D01*
X205486301Y-126166438D01*
X205257991Y-126166438D01*
X205257991Y-125569178D01*
X205257991Y-125391096D01*
X205500000Y-125391096D01*
X205500000Y-125569178D01*
X206500000Y-125792466D01*
X206500000Y-125640411D01*
X205636986Y-125484247D01*
X205636986Y-125482877D01*
X206500000Y-125326712D01*
X206500000Y-125169178D01*
X205500000Y-125391096D01*
X205257991Y-125391096D01*
X205257991Y-124755479D01*
X205486301Y-124755479D01*
X205494825Y-124849391D01*
X205520396Y-124924734D01*
X205563014Y-124981507D01*
X205625419Y-125021081D01*
X205710350Y-125044825D01*
X205817808Y-125052740D01*
X205933699Y-125043973D01*
X206023836Y-125017671D01*
X206088219Y-124973836D01*
X206126849Y-124912466D01*
X206139726Y-124833562D01*
X206131164Y-124768493D01*
X206105479Y-124713014D01*
X206105479Y-124710274D01*
X206382192Y-124719863D01*
X206382192Y-125025342D01*
X206500000Y-125025342D01*
X206500000Y-124580137D01*
X205968493Y-124566438D01*
X205968493Y-124692466D01*
X206009589Y-124740068D01*
X206023288Y-124792466D01*
X205976027Y-124873288D01*
X205912842Y-124892808D01*
X205817808Y-124899315D01*
X205717637Y-124890068D01*
X205652740Y-124862329D01*
X205617295Y-124814384D01*
X205605479Y-124744521D01*
X205618493Y-124653082D01*
X205657534Y-124559589D01*
X205527397Y-124559589D01*
X205496575Y-124653767D01*
X205486301Y-124755479D01*
X205257991Y-124755479D01*
X205257991Y-124559589D01*
X205257991Y-124331279D01*
X206742009Y-124331279D01*
X206742009Y-124559589D01*
G37*
D12*
%TO.C,D7*%
X166515000Y-122765000D02*
X166515000Y-124235000D01*
X166515000Y-124235000D02*
X168800000Y-124235000D01*
X168800000Y-122765000D02*
X166515000Y-122765000D01*
%TO.C,C19*%
X190734420Y-70040000D02*
X191015580Y-70040000D01*
X190734420Y-71060000D02*
X191015580Y-71060000D01*
D13*
%TO.C,kibuzzard-67D30CE3*%
G36*
X203370695Y-92255735D02*
G01*
X203437334Y-92288449D01*
X203480226Y-92347334D01*
X203494523Y-92436753D01*
X203479984Y-92531018D01*
X203436365Y-92592811D01*
X203364152Y-92626979D01*
X203263829Y-92638368D01*
X203166898Y-92638368D01*
X203166898Y-92250646D01*
X203226026Y-92245800D01*
X203285153Y-92244830D01*
X203370695Y-92255735D01*
G37*
G36*
X205334023Y-92254281D02*
G01*
X205397270Y-92334976D01*
X205425810Y-92417582D01*
X205442935Y-92521944D01*
X205448643Y-92648061D01*
X205442935Y-92775256D01*
X205425810Y-92880264D01*
X205397270Y-92963086D01*
X205334023Y-93043780D01*
X205248966Y-93070079D01*
X205247027Y-93070679D01*
X205161244Y-93043780D01*
X205097754Y-92963086D01*
X205068675Y-92880264D01*
X205051228Y-92775256D01*
X205045412Y-92648061D01*
X205046306Y-92628675D01*
X205140404Y-92628675D01*
X205169483Y-92718821D01*
X205248966Y-92756624D01*
X205325541Y-92718821D01*
X205355590Y-92628675D01*
X205325541Y-92537561D01*
X205248966Y-92498788D01*
X205169483Y-92537561D01*
X205140404Y-92628675D01*
X205046306Y-92628675D01*
X205051228Y-92521944D01*
X205068675Y-92417582D01*
X205097754Y-92334976D01*
X205161244Y-92254281D01*
X205247027Y-92227383D01*
X205334023Y-92254281D01*
G37*
G36*
X206221383Y-91877414D02*
G01*
X206369154Y-91922240D01*
X206505341Y-91995033D01*
X206624710Y-92092996D01*
X206722673Y-92212365D01*
X206795466Y-92348552D01*
X206840292Y-92496323D01*
X206855428Y-92650000D01*
X206840292Y-92803677D01*
X206795466Y-92951448D01*
X206722673Y-93087635D01*
X206624710Y-93207004D01*
X206505341Y-93304967D01*
X206369154Y-93377760D01*
X206221383Y-93422586D01*
X206067706Y-93437722D01*
X205663829Y-93437722D01*
X205247027Y-93437722D01*
X204717787Y-93437722D01*
X203166898Y-93437722D01*
X202928449Y-93437722D01*
X202524572Y-93437722D01*
X202524572Y-92066478D01*
X202928449Y-92066478D01*
X202928449Y-93250969D01*
X203166898Y-93250969D01*
X203837658Y-93250969D01*
X204056721Y-93250969D01*
X204047027Y-92318498D01*
X204188546Y-92826414D01*
X204363021Y-92826414D01*
X204510355Y-92318498D01*
X204498724Y-93250969D01*
X204717787Y-93250969D01*
X204713425Y-93097577D01*
X204708094Y-92947577D01*
X204701551Y-92799758D01*
X204693554Y-92652908D01*
X204693235Y-92648061D01*
X204830226Y-92648061D01*
X204836890Y-92796850D01*
X204856882Y-92925283D01*
X204890202Y-93033360D01*
X204936850Y-93121082D01*
X205018702Y-93207243D01*
X205122095Y-93258939D01*
X205247027Y-93276171D01*
X205371960Y-93258939D01*
X205475353Y-93207243D01*
X205557205Y-93121082D01*
X205603853Y-93033360D01*
X205637173Y-92925283D01*
X205657165Y-92796850D01*
X205663829Y-92648061D01*
X205657165Y-92500182D01*
X205637173Y-92372536D01*
X205603853Y-92265125D01*
X205557205Y-92177948D01*
X205475353Y-92092326D01*
X205371960Y-92040953D01*
X205247027Y-92023829D01*
X205124033Y-92041061D01*
X205021287Y-92092757D01*
X204938788Y-92178918D01*
X204891292Y-92266397D01*
X204857367Y-92373748D01*
X204837011Y-92500969D01*
X204830226Y-92648061D01*
X204693235Y-92648061D01*
X204683861Y-92505816D01*
X204672229Y-92357270D01*
X204659386Y-92206058D01*
X204646058Y-92050969D01*
X204448320Y-92050969D01*
X204413425Y-92153716D01*
X204370775Y-92286511D01*
X204322310Y-92433845D01*
X204273845Y-92582149D01*
X204229257Y-92442569D01*
X204182730Y-92293296D01*
X204139111Y-92155654D01*
X204105186Y-92050969D01*
X203907448Y-92050969D01*
X203894604Y-92182310D01*
X203883215Y-92324313D01*
X203873280Y-92474071D01*
X203864798Y-92628675D01*
X203857286Y-92786187D01*
X203850258Y-92944669D01*
X203843716Y-93100727D01*
X203837658Y-93250969D01*
X203166898Y-93250969D01*
X203166898Y-92845800D01*
X203252197Y-92845800D01*
X203395547Y-92835137D01*
X203515417Y-92803150D01*
X203611809Y-92749838D01*
X203682353Y-92672617D01*
X203724680Y-92568901D01*
X203738788Y-92438691D01*
X203724787Y-92309774D01*
X203682784Y-92207351D01*
X203612779Y-92131422D01*
X203517356Y-92079187D01*
X203399101Y-92047846D01*
X203258013Y-92037399D01*
X203182407Y-92039338D01*
X203095170Y-92044184D01*
X203006963Y-92052908D01*
X202928449Y-92066478D01*
X202524572Y-92066478D01*
X202524572Y-91862278D01*
X202928449Y-91862278D01*
X205663829Y-91862278D01*
X206067706Y-91862278D01*
X206221383Y-91877414D01*
G37*
D12*
%TO.C,TP2*%
X206700000Y-123000000D02*
G75*
G02*
X205300000Y-123000000I-700000J0D01*
G01*
X205300000Y-123000000D02*
G75*
G02*
X206700000Y-123000000I700000J0D01*
G01*
%TO.C,D6*%
X172250000Y-57610000D02*
X176660000Y-57610000D01*
X176660000Y-55390000D02*
X172250000Y-55390000D01*
X176660000Y-57610000D02*
X176660000Y-55390000D01*
%TO.C,C4*%
X169261252Y-78265000D02*
X168738748Y-78265000D01*
X169261252Y-79735000D02*
X168738748Y-79735000D01*
D13*
%TO.C,kibuzzard-67D30C9E*%
G36*
X204447706Y-49473134D02*
G01*
X204501987Y-49516753D01*
X204533005Y-49577819D01*
X204542698Y-49648578D01*
X204178239Y-49648578D01*
X204194717Y-49576850D01*
X204229612Y-49514814D01*
X204285832Y-49472165D01*
X204366284Y-49456656D01*
X204447706Y-49473134D01*
G37*
G36*
X205177270Y-50374265D02*
G01*
X204773393Y-50374265D01*
X204432197Y-50374265D01*
X203278724Y-50374265D01*
X202520727Y-50374265D01*
X202010872Y-50374265D01*
X201606995Y-50374265D01*
X201481305Y-50361886D01*
X201360446Y-50325223D01*
X201249061Y-50265687D01*
X201151431Y-50185564D01*
X201071308Y-50087934D01*
X201011772Y-49976550D01*
X200975110Y-49855690D01*
X200962730Y-49730000D01*
X200975110Y-49604310D01*
X200981088Y-49584604D01*
X202010872Y-49584604D01*
X202010872Y-49780404D01*
X202315234Y-49780404D01*
X202315234Y-50117722D01*
X202520727Y-50117722D01*
X202520727Y-49780404D01*
X202825089Y-49780404D01*
X202825089Y-49584604D01*
X202520727Y-49584604D01*
X202520727Y-49280242D01*
X202929774Y-49280242D01*
X202971030Y-49415158D01*
X203013376Y-49544620D01*
X203056813Y-49668631D01*
X203101341Y-49787189D01*
X203161115Y-49935062D01*
X203220242Y-50069795D01*
X203278724Y-50191389D01*
X203478401Y-50191389D01*
X203537851Y-50069795D01*
X203599887Y-49935062D01*
X203664507Y-49787189D01*
X203682293Y-49743570D01*
X203932036Y-49743570D01*
X203940759Y-49852617D01*
X203966931Y-49947124D01*
X204009338Y-50027334D01*
X204066769Y-50093489D01*
X204138498Y-50145347D01*
X204223796Y-50182666D01*
X204321939Y-50205202D01*
X204432197Y-50212714D01*
X204589225Y-50198174D01*
X204721050Y-50162310D01*
X204688094Y-49958756D01*
X204578562Y-49989774D01*
X204441890Y-50005283D01*
X204336236Y-49992439D01*
X204251906Y-49953910D01*
X204196656Y-49893086D01*
X204178239Y-49813360D01*
X204769515Y-49813360D01*
X204772423Y-49772649D01*
X204773393Y-49724184D01*
X204761761Y-49583850D01*
X204726866Y-49467857D01*
X204668708Y-49376204D01*
X204588148Y-49309968D01*
X204486047Y-49270226D01*
X204362407Y-49256979D01*
X204281955Y-49264733D01*
X204203441Y-49287997D01*
X204130258Y-49326527D01*
X204065800Y-49380081D01*
X204011519Y-49448659D01*
X203968869Y-49532262D01*
X203941244Y-49630646D01*
X203932036Y-49743570D01*
X203682293Y-49743570D01*
X203712851Y-49668631D01*
X203759015Y-49544620D01*
X203802997Y-49415158D01*
X203844798Y-49280242D01*
X203602472Y-49280242D01*
X203582359Y-49356333D01*
X203556914Y-49437270D01*
X203528320Y-49520872D01*
X203498756Y-49604960D01*
X203468465Y-49688078D01*
X203437690Y-49768772D01*
X203381470Y-49914168D01*
X203328158Y-49768772D01*
X203300291Y-49688078D01*
X203272908Y-49604960D01*
X203246494Y-49520872D01*
X203221535Y-49437270D01*
X203198998Y-49356333D01*
X203179855Y-49280242D01*
X202929774Y-49280242D01*
X202520727Y-49280242D01*
X202520727Y-49247286D01*
X202315234Y-49247286D01*
X202315234Y-49584604D01*
X202010872Y-49584604D01*
X200981088Y-49584604D01*
X201011772Y-49483450D01*
X201071308Y-49372066D01*
X201151431Y-49274436D01*
X201249061Y-49194313D01*
X201360446Y-49134777D01*
X201481305Y-49098114D01*
X201606995Y-49085735D01*
X202010872Y-49085735D01*
X204773393Y-49085735D01*
X205177270Y-49085735D01*
X205177270Y-50374265D01*
G37*
D12*
%TO.C,R8*%
X186937742Y-107027500D02*
X187412258Y-107027500D01*
X186937742Y-108072500D02*
X187412258Y-108072500D01*
%TD*%
%LPC*%
D17*
%TO.C,Q2*%
X180125000Y-67350000D02*
X178875000Y-67350000D01*
X178875000Y-66750000D01*
X180125000Y-66750000D01*
X180125000Y-67350000D01*
G36*
X180125000Y-67350000D02*
G01*
X178875000Y-67350000D01*
X178875000Y-66750000D01*
X180125000Y-66750000D01*
X180125000Y-67350000D01*
G37*
X180125000Y-69250000D02*
X178875000Y-69250000D01*
X178875000Y-68650000D01*
X180125000Y-68650000D01*
X180125000Y-69250000D01*
G36*
X180125000Y-69250000D02*
G01*
X178875000Y-69250000D01*
X178875000Y-68650000D01*
X180125000Y-68650000D01*
X180125000Y-69250000D01*
G37*
X182125000Y-68300000D02*
X180875000Y-68300000D01*
X180875000Y-67700000D01*
X182125000Y-67700000D01*
X182125000Y-68300000D01*
G36*
X182125000Y-68300000D02*
G01*
X180875000Y-68300000D01*
X180875000Y-67700000D01*
X182125000Y-67700000D01*
X182125000Y-68300000D01*
G37*
%TD*%
D18*
%TO.C,L2*%
X194875000Y-110150000D03*
X200925000Y-110150000D03*
%TD*%
D19*
%TO.C,C6*%
X178525000Y-76000000D03*
X181475000Y-76000000D03*
%TD*%
D20*
%TO.C,D2*%
X167500000Y-94000000D03*
D21*
X173300000Y-94000000D03*
%TD*%
D22*
%TO.C,TP1*%
X208500000Y-123000000D03*
%TD*%
D23*
%TO.C,J5*%
X210800000Y-62560000D03*
D24*
X208260000Y-62560000D03*
X210800000Y-65100000D03*
X208260000Y-65100000D03*
X210800000Y-67640000D03*
X208260000Y-67640000D03*
X210800000Y-70180000D03*
X208260000Y-70180000D03*
X210800000Y-72720000D03*
X208260000Y-72720000D03*
X210800000Y-75260000D03*
X208260000Y-75260000D03*
X210800000Y-77800000D03*
X208260000Y-77800000D03*
X210800000Y-80340000D03*
X208260000Y-80340000D03*
X210800000Y-82880000D03*
X208260000Y-82880000D03*
X210800000Y-85420000D03*
X208260000Y-85420000D03*
X210800000Y-87960000D03*
X208260000Y-87960000D03*
X210800000Y-90500000D03*
X208260000Y-90500000D03*
X210800000Y-93040000D03*
X208260000Y-93040000D03*
X210800000Y-95580000D03*
X208260000Y-95580000D03*
X210800000Y-98120000D03*
X208260000Y-98120000D03*
X210800000Y-100660000D03*
X208260000Y-100660000D03*
X210800000Y-103200000D03*
X208260000Y-103200000D03*
X210800000Y-105740000D03*
X208260000Y-105740000D03*
X210800000Y-108280000D03*
X208260000Y-108280000D03*
X210800000Y-110820000D03*
X208260000Y-110820000D03*
X210800000Y-113360000D03*
X208260000Y-113360000D03*
X210800000Y-115900000D03*
X208260000Y-115900000D03*
X210800000Y-118440000D03*
X208260000Y-118440000D03*
%TD*%
D25*
%TO.C,Y1*%
X186050000Y-104700000D03*
X188250000Y-104700000D03*
X188250000Y-103000000D03*
X186050000Y-103000000D03*
%TD*%
D26*
%TO.C,L1*%
X169500000Y-88500000D03*
X169500000Y-82450000D03*
%TD*%
D27*
%TO.C,U4*%
X189775000Y-91212500D03*
X189275000Y-91212500D03*
X188775000Y-91212500D03*
X188275000Y-91212500D03*
X187775000Y-91212500D03*
X187275000Y-91212500D03*
X186775000Y-91212500D03*
X186275000Y-91212500D03*
X185775000Y-91212500D03*
X185275000Y-91212500D03*
X184775000Y-91212500D03*
X184275000Y-91212500D03*
D28*
X182862500Y-92625000D03*
X182862500Y-93125000D03*
X182862500Y-93625000D03*
X182862500Y-94125000D03*
X182862500Y-94625000D03*
X182862500Y-95125000D03*
X182862500Y-95625000D03*
X182862500Y-96125000D03*
X182862500Y-96625000D03*
X182862500Y-97125000D03*
X182862500Y-97625000D03*
X182862500Y-98125000D03*
D27*
X184275000Y-99537500D03*
X184775000Y-99537500D03*
X185275000Y-99537500D03*
X185775000Y-99537500D03*
X186275000Y-99537500D03*
X186775000Y-99537500D03*
X187275000Y-99537500D03*
X187775000Y-99537500D03*
X188275000Y-99537500D03*
X188775000Y-99537500D03*
X189275000Y-99537500D03*
X189775000Y-99537500D03*
D28*
X191187500Y-98125000D03*
X191187500Y-97625000D03*
X191187500Y-97125000D03*
X191187500Y-96625000D03*
X191187500Y-96125000D03*
X191187500Y-95625000D03*
X191187500Y-95125000D03*
X191187500Y-94625000D03*
X191187500Y-94125000D03*
X191187500Y-93625000D03*
X191187500Y-93125000D03*
X191187500Y-92625000D03*
%TD*%
D29*
%TO.C,R12*%
X188200000Y-72450000D03*
X186550000Y-72450000D03*
%TD*%
%TO.C,R15*%
X188200000Y-70550000D03*
X186550000Y-70550000D03*
%TD*%
D30*
%TO.C,J3*%
X204000000Y-46300000D03*
D31*
X206500000Y-46300000D03*
%TD*%
D32*
%TO.C,C11*%
X190175000Y-104625000D03*
X190175000Y-103075000D03*
%TD*%
D33*
%TO.C,R9*%
X185325000Y-87350000D03*
X185325000Y-89000000D03*
%TD*%
D34*
%TO.C,U1*%
X202000000Y-56000000D03*
X202000000Y-56950000D03*
X202000000Y-57900000D03*
X204275000Y-57900000D03*
X204275000Y-56000000D03*
%TD*%
D35*
%TO.C,R2*%
X171490000Y-54000000D03*
X172510000Y-54000000D03*
%TD*%
D36*
%TO.C,RN1*%
X192600000Y-102250000D03*
X193400000Y-102250000D03*
X194200000Y-102250000D03*
X195000000Y-102250000D03*
X195000000Y-100500000D03*
X194200000Y-100500000D03*
X193400000Y-100500000D03*
X192600000Y-100500000D03*
%TD*%
D37*
%TO.C,C15*%
X179800000Y-97675000D03*
X178250000Y-97675000D03*
%TD*%
%TO.C,C1*%
X204350000Y-59900000D03*
X202800000Y-59900000D03*
%TD*%
D38*
%TO.C,R21*%
X199000000Y-45490000D03*
X199000000Y-46510000D03*
%TD*%
D39*
%TO.C,Q3*%
X168460000Y-74485000D03*
D40*
X171000000Y-63055000D03*
D39*
X173540000Y-74485000D03*
%TD*%
D41*
%TO.C,JP3*%
X201425000Y-97875000D03*
D42*
X200125000Y-97875000D03*
%TD*%
D43*
%TO.C,U3*%
X185100000Y-117900000D03*
X185100000Y-119600000D03*
X185100000Y-121300000D03*
D44*
X194250000Y-121300000D03*
D43*
X185100000Y-123000000D03*
X185100000Y-124700000D03*
%TD*%
D45*
%TO.C,R6*%
X197425000Y-96100000D03*
X197425000Y-94450000D03*
%TD*%
D33*
%TO.C,R14*%
X191700000Y-77700000D03*
X191700000Y-79350000D03*
%TD*%
D38*
%TO.C,R3*%
X174000000Y-52990000D03*
X174000000Y-54010000D03*
%TD*%
D46*
%TO.C,C12*%
X182000000Y-102775000D03*
X180100000Y-102775000D03*
%TD*%
D45*
%TO.C,R18*%
X195300000Y-77850000D03*
X195300000Y-76200000D03*
%TD*%
D47*
%TO.C,L3*%
X187000000Y-87312500D03*
X187000000Y-88887500D03*
%TD*%
D29*
%TO.C,R10*%
X188225000Y-74250000D03*
X186575000Y-74250000D03*
%TD*%
D22*
%TO.C,TP4*%
X203500000Y-123000000D03*
%TD*%
D48*
%TO.C,C10*%
X180500000Y-90980000D03*
X180500000Y-90020000D03*
%TD*%
D35*
%TO.C,R22*%
X162480000Y-60000000D03*
X163500000Y-60000000D03*
%TD*%
D49*
%TO.C,R4*%
X203585000Y-53400000D03*
X202565000Y-53400000D03*
%TD*%
D45*
%TO.C,R17*%
X197000000Y-77875000D03*
X197000000Y-76225000D03*
%TD*%
D50*
%TO.C,C20*%
X195300000Y-72800000D03*
X195300000Y-74350000D03*
%TD*%
D32*
%TO.C,C3*%
X197800000Y-70325000D03*
X197800000Y-68775000D03*
%TD*%
D48*
%TO.C,C25*%
X198000000Y-86980000D03*
X198000000Y-86020000D03*
%TD*%
D22*
%TO.C,TP3*%
X211000000Y-123000000D03*
%TD*%
D23*
%TO.C,J6*%
X162800000Y-62610000D03*
D24*
X160260000Y-62610000D03*
X162800000Y-65150000D03*
X160260000Y-65150000D03*
X162800000Y-67690000D03*
X160260000Y-67690000D03*
X162800000Y-70230000D03*
X160260000Y-70230000D03*
X162800000Y-72770000D03*
X160260000Y-72770000D03*
X162800000Y-75310000D03*
X160260000Y-75310000D03*
X162800000Y-77850000D03*
X160260000Y-77850000D03*
X162800000Y-80390000D03*
X160260000Y-80390000D03*
X162800000Y-82930000D03*
X160260000Y-82930000D03*
X162800000Y-85470000D03*
X160260000Y-85470000D03*
X162800000Y-88010000D03*
X160260000Y-88010000D03*
X162800000Y-90550000D03*
X160260000Y-90550000D03*
X162800000Y-93090000D03*
X160260000Y-93090000D03*
X162800000Y-95630000D03*
X160260000Y-95630000D03*
X162800000Y-98170000D03*
X160260000Y-98170000D03*
X162800000Y-100710000D03*
X160260000Y-100710000D03*
X162800000Y-103250000D03*
X160260000Y-103250000D03*
X162800000Y-105790000D03*
X160260000Y-105790000D03*
X162800000Y-108330000D03*
X160260000Y-108330000D03*
X162800000Y-110870000D03*
X160260000Y-110870000D03*
X162800000Y-113410000D03*
X160260000Y-113410000D03*
X162800000Y-115950000D03*
X160260000Y-115950000D03*
X162800000Y-118490000D03*
X160260000Y-118490000D03*
%TD*%
D41*
%TO.C,JP2*%
X201375000Y-95175000D03*
D42*
X200075000Y-95175000D03*
%TD*%
D48*
%TO.C,C21*%
X193750000Y-88180000D03*
X193750000Y-87220000D03*
%TD*%
D51*
%TO.C,C5*%
X179450000Y-117950000D03*
X179450000Y-119850000D03*
%TD*%
D52*
%TO.C,Q1*%
X169950000Y-99340000D03*
X169950000Y-97440000D03*
X168075000Y-98390000D03*
%TD*%
D53*
%TO.C,U2*%
X176525000Y-78190000D03*
X176525000Y-79460000D03*
X176525000Y-80730000D03*
X176525000Y-82000000D03*
X181475000Y-82000000D03*
X181475000Y-80730000D03*
X181475000Y-79460000D03*
X181475000Y-78190000D03*
%TD*%
D45*
%TO.C,R7*%
X197425000Y-99300000D03*
X197425000Y-97650000D03*
%TD*%
D37*
%TO.C,C17*%
X179775000Y-95750000D03*
X178225000Y-95750000D03*
%TD*%
D54*
%TO.C,L5*%
X177140000Y-125000000D03*
X179860000Y-125000000D03*
%TD*%
D32*
%TO.C,C8*%
X184175000Y-104625000D03*
X184175000Y-103075000D03*
%TD*%
D55*
%TO.C,J4*%
X194090000Y-53360000D03*
X182660000Y-53360000D03*
D56*
X192820000Y-59710000D03*
D57*
X191550000Y-62250000D03*
X190280000Y-59710000D03*
X189010000Y-62250000D03*
X187740000Y-59710000D03*
X186470000Y-62250000D03*
X185200000Y-59710000D03*
X183930000Y-62250000D03*
D58*
X195000000Y-49300000D03*
X192460000Y-49300000D03*
X184290000Y-49300000D03*
X181750000Y-49300000D03*
D59*
X196120000Y-56410000D03*
X180630000Y-56410000D03*
%TD*%
D48*
%TO.C,C16*%
X190000000Y-87980000D03*
X190000000Y-87020000D03*
%TD*%
D60*
%TO.C,F1*%
X185410000Y-111500000D03*
X188590000Y-111500000D03*
%TD*%
D61*
%TO.C,C7*%
X176000000Y-121475000D03*
X176000000Y-118525000D03*
%TD*%
D48*
%TO.C,C26*%
X196500000Y-86980000D03*
X196500000Y-86020000D03*
%TD*%
D20*
%TO.C,D4*%
X168550000Y-112550000D03*
D21*
X174350000Y-112550000D03*
%TD*%
D38*
%TO.C,R20*%
X178000000Y-50490000D03*
X178000000Y-51510000D03*
%TD*%
D48*
%TO.C,C23*%
X199500000Y-86980000D03*
X199500000Y-86020000D03*
%TD*%
D62*
%TO.C,C14*%
X181530000Y-100875000D03*
X180570000Y-100875000D03*
%TD*%
D36*
%TO.C,RN2*%
X197400000Y-103875000D03*
X198200000Y-103875000D03*
X199000000Y-103875000D03*
X199800000Y-103875000D03*
X199800000Y-102125000D03*
X199000000Y-102125000D03*
X198200000Y-102125000D03*
X197400000Y-102125000D03*
%TD*%
D63*
%TO.C,R19*%
X174450000Y-98750000D03*
X174450000Y-97730000D03*
%TD*%
D64*
%TO.C,C13*%
X192000000Y-88400000D03*
X192000000Y-86500000D03*
%TD*%
D33*
%TO.C,R13*%
X198900000Y-77475000D03*
X198900000Y-79125000D03*
%TD*%
D20*
%TO.C,D3*%
X168450000Y-106800000D03*
D21*
X174250000Y-106800000D03*
%TD*%
D65*
%TO.C,U5*%
X201650000Y-72625000D03*
X201650000Y-73275000D03*
X201650000Y-73925000D03*
X203550000Y-73925000D03*
X203550000Y-73275000D03*
X203550000Y-72625000D03*
%TD*%
D48*
%TO.C,C24*%
X195000000Y-86980000D03*
X195000000Y-86020000D03*
%TD*%
D66*
%TO.C,J2*%
X167000000Y-48000000D03*
D67*
X172000000Y-48000000D03*
%TD*%
D68*
%TO.C,D1*%
X205550000Y-53500000D03*
X207125000Y-53500000D03*
%TD*%
D29*
%TO.C,R11*%
X188125000Y-68650000D03*
X186475000Y-68650000D03*
%TD*%
D33*
%TO.C,R5*%
X197425000Y-91350000D03*
X197425000Y-93000000D03*
%TD*%
D21*
%TO.C,D5*%
X168500000Y-55500000D03*
D20*
X162700000Y-55500000D03*
%TD*%
D69*
%TO.C,C22*%
X186625000Y-76050000D03*
X188175000Y-76050000D03*
%TD*%
D45*
%TO.C,R16*%
X193600000Y-77825000D03*
X193600000Y-76175000D03*
%TD*%
D63*
%TO.C,R1*%
X206575000Y-57610000D03*
X206575000Y-56590000D03*
%TD*%
D35*
%TO.C,R23*%
X167277500Y-120500000D03*
X168297500Y-120500000D03*
%TD*%
D48*
%TO.C,C9*%
X188500000Y-88965000D03*
X188500000Y-88005000D03*
%TD*%
D32*
%TO.C,C2*%
X199500000Y-70350000D03*
X199500000Y-68800000D03*
%TD*%
D69*
%TO.C,C18*%
X190100000Y-72450000D03*
X191650000Y-72450000D03*
%TD*%
D68*
%TO.C,L4*%
X178212500Y-93500000D03*
X179787500Y-93500000D03*
%TD*%
D41*
%TO.C,JP1*%
X201325000Y-92575000D03*
D42*
X200025000Y-92575000D03*
%TD*%
D68*
%TO.C,D7*%
X167212500Y-123500000D03*
X168787500Y-123500000D03*
%TD*%
D69*
%TO.C,C19*%
X190100000Y-70550000D03*
X191650000Y-70550000D03*
%TD*%
D22*
%TO.C,TP2*%
X206000000Y-123000000D03*
%TD*%
D70*
%TO.C,D6*%
X175750000Y-56500000D03*
X172250000Y-56500000D03*
%TD*%
D46*
%TO.C,C4*%
X169950000Y-79000000D03*
X168050000Y-79000000D03*
%TD*%
D71*
%TO.C,R8*%
X186350000Y-107550000D03*
X188000000Y-107550000D03*
%TD*%
%LPD*%
M02*
