%TF.GenerationSoftware,KiCad,Pcbnew,8.0.8*%
%TF.CreationDate,2025-03-18T13:34:47+03:00*%
%TF.ProjectId,s0-base-board,73302d62-6173-4652-9d62-6f6172642e6b,rev?*%
%TF.SameCoordinates,Original*%
%TF.FileFunction,Soldermask,Top*%
%TF.FilePolarity,Negative*%
%FSLAX46Y46*%
G04 Gerber Fmt 4.6, Leading zero omitted, Abs format (unit mm)*
G04 Created by KiCad (PCBNEW 8.0.8) date 2025-03-18 13:34:47*
%MOMM*%
%LPD*%
G01*
G04 APERTURE LIST*
G04 Aperture macros list*
%AMRoundRect*
0 Rectangle with rounded corners*
0 $1 Rounding radius*
0 $2 $3 $4 $5 $6 $7 $8 $9 X,Y pos of 4 corners*
0 Add a 4 corners polygon primitive as box body*
4,1,4,$2,$3,$4,$5,$6,$7,$8,$9,$2,$3,0*
0 Add four circle primitives for the rounded corners*
1,1,$1+$1,$2,$3*
1,1,$1+$1,$4,$5*
1,1,$1+$1,$6,$7*
1,1,$1+$1,$8,$9*
0 Add four rect primitives between the rounded corners*
20,1,$1+$1,$2,$3,$4,$5,0*
20,1,$1+$1,$4,$5,$6,$7,0*
20,1,$1+$1,$6,$7,$8,$9,0*
20,1,$1+$1,$8,$9,$2,$3,0*%
%AMOutline4P*
0 Free polygon, 4 corners , with rotation*
0 The origin of the aperture is its center*
0 number of corners: always 4*
0 $1 to $8 corner X, Y*
0 $9 Rotation angle, in degrees counterclockwise*
0 create outline with 4 corners*
4,1,4,$1,$2,$3,$4,$5,$6,$7,$8,$1,$2,$9*%
%AMFreePoly0*
4,1,19,0.500000,-0.750000,0.000000,-0.750000,0.000000,-0.744911,-0.071157,-0.744911,-0.207708,-0.704816,-0.327430,-0.627875,-0.420627,-0.520320,-0.479746,-0.390866,-0.500000,-0.250000,-0.500000,0.250000,-0.479746,0.390866,-0.420627,0.520320,-0.327430,0.627875,-0.207708,0.704816,-0.071157,0.744911,0.000000,0.744911,0.000000,0.750000,0.500000,0.750000,0.500000,-0.750000,0.500000,-0.750000,
$1*%
%AMFreePoly1*
4,1,19,0.000000,0.744911,0.071157,0.744911,0.207708,0.704816,0.327430,0.627875,0.420627,0.520320,0.479746,0.390866,0.500000,0.250000,0.500000,-0.250000,0.479746,-0.390866,0.420627,-0.520320,0.327430,-0.627875,0.207708,-0.704816,0.071157,-0.744911,0.000000,-0.744911,0.000000,-0.750000,-0.500000,-0.750000,-0.500000,0.750000,0.000000,0.750000,0.000000,0.744911,0.000000,0.744911,
$1*%
G04 Aperture macros list end*
%ADD10RoundRect,0.250000X-0.925000X-1.500000X0.925000X-1.500000X0.925000X1.500000X-0.925000X1.500000X0*%
%ADD11RoundRect,0.250000X-0.325000X-0.650000X0.325000X-0.650000X0.325000X0.650000X-0.325000X0.650000X0*%
%ADD12Outline4P,-1.800000X-1.150000X1.800000X-0.550000X1.800000X0.550000X-1.800000X1.150000X0.000000*%
%ADD13Outline4P,-1.800000X-1.150000X1.800000X-0.550000X1.800000X0.550000X-1.800000X1.150000X180.000000*%
%ADD14R,1.700000X1.700000*%
%ADD15O,1.700000X1.700000*%
%ADD16R,1.400000X1.200000*%
%ADD17RoundRect,0.250000X1.500000X-0.925000X1.500000X0.925000X-1.500000X0.925000X-1.500000X-0.925000X0*%
%ADD18RoundRect,0.075000X-0.075000X0.662500X-0.075000X-0.662500X0.075000X-0.662500X0.075000X0.662500X0*%
%ADD19RoundRect,0.075000X-0.662500X0.075000X-0.662500X-0.075000X0.662500X-0.075000X0.662500X0.075000X0*%
%ADD20RoundRect,0.200000X0.200000X0.275000X-0.200000X0.275000X-0.200000X-0.275000X0.200000X-0.275000X0*%
%ADD21RoundRect,0.250000X-0.600000X-0.750000X0.600000X-0.750000X0.600000X0.750000X-0.600000X0.750000X0*%
%ADD22O,1.700000X2.000000*%
%ADD23RoundRect,0.225000X0.250000X-0.225000X0.250000X0.225000X-0.250000X0.225000X-0.250000X-0.225000X0*%
%ADD24RoundRect,0.200000X-0.275000X0.200000X-0.275000X-0.200000X0.275000X-0.200000X0.275000X0.200000X0*%
%ADD25RoundRect,0.150000X-0.512500X-0.150000X0.512500X-0.150000X0.512500X0.150000X-0.512500X0.150000X0*%
%ADD26RoundRect,0.225000X0.225000X0.250000X-0.225000X0.250000X-0.225000X-0.250000X0.225000X-0.250000X0*%
%ADD27RoundRect,0.140000X0.170000X-0.140000X0.170000X0.140000X-0.170000X0.140000X-0.170000X-0.140000X0*%
%ADD28FreePoly0,180.000000*%
%ADD29FreePoly1,180.000000*%
%ADD30RoundRect,0.250000X-2.050000X-0.300000X2.050000X-0.300000X2.050000X0.300000X-2.050000X0.300000X0*%
%ADD31RoundRect,0.250002X-4.449998X-5.149998X4.449998X-5.149998X4.449998X5.149998X-4.449998X5.149998X0*%
%ADD32RoundRect,0.200000X0.275000X-0.200000X0.275000X0.200000X-0.275000X0.200000X-0.275000X-0.200000X0*%
%ADD33RoundRect,0.250000X0.250000X0.475000X-0.250000X0.475000X-0.250000X-0.475000X0.250000X-0.475000X0*%
%ADD34RoundRect,0.218750X-0.256250X0.218750X-0.256250X-0.218750X0.256250X-0.218750X0.256250X0.218750X0*%
%ADD35RoundRect,0.135000X0.135000X0.185000X-0.135000X0.185000X-0.135000X-0.185000X0.135000X-0.185000X0*%
%ADD36RoundRect,0.225000X-0.250000X0.225000X-0.250000X-0.225000X0.250000X-0.225000X0.250000X0.225000X0*%
%ADD37RoundRect,0.250000X0.475000X-0.250000X0.475000X0.250000X-0.475000X0.250000X-0.475000X-0.250000X0*%
%ADD38RoundRect,0.250000X-0.475000X0.250000X-0.475000X-0.250000X0.475000X-0.250000X0.475000X0.250000X0*%
%ADD39RoundRect,0.150000X0.587500X0.150000X-0.587500X0.150000X-0.587500X-0.150000X0.587500X-0.150000X0*%
%ADD40RoundRect,0.150000X-0.825000X-0.150000X0.825000X-0.150000X0.825000X0.150000X-0.825000X0.150000X0*%
%ADD41C,3.250000*%
%ADD42R,1.900000X1.900000*%
%ADD43C,1.900000*%
%ADD44C,2.100000*%
%ADD45C,2.600000*%
%ADD46RoundRect,0.250000X0.325000X0.650000X-0.325000X0.650000X-0.325000X-0.650000X0.325000X-0.650000X0*%
%ADD47RoundRect,0.140000X0.140000X0.170000X-0.140000X0.170000X-0.140000X-0.170000X0.140000X-0.170000X0*%
%ADD48RoundRect,0.135000X0.185000X-0.135000X0.185000X0.135000X-0.185000X0.135000X-0.185000X-0.135000X0*%
%ADD49RoundRect,0.100000X-0.225000X-0.100000X0.225000X-0.100000X0.225000X0.100000X-0.225000X0.100000X0*%
%ADD50RoundRect,0.250001X-1.149999X-1.149999X1.149999X-1.149999X1.149999X1.149999X-1.149999X1.149999X0*%
%ADD51C,2.800000*%
%ADD52RoundRect,0.218750X-0.218750X-0.256250X0.218750X-0.256250X0.218750X0.256250X-0.218750X0.256250X0*%
%ADD53RoundRect,0.225000X-0.225000X-0.250000X0.225000X-0.250000X0.225000X0.250000X-0.225000X0.250000X0*%
%ADD54RoundRect,0.200000X-0.200000X-0.275000X0.200000X-0.275000X0.200000X0.275000X-0.200000X0.275000X0*%
G04 APERTURE END LIST*
D10*
%TO.C,L2*%
X194875000Y-110150000D03*
X200925000Y-110150000D03*
%TD*%
D11*
%TO.C,C6*%
X177600000Y-71900000D03*
X180550000Y-71900000D03*
%TD*%
D12*
%TO.C,D2*%
X169700000Y-86800000D03*
D13*
X175500000Y-86800000D03*
%TD*%
D14*
%TO.C,J5*%
X210800000Y-62560000D03*
D15*
X208260000Y-62560000D03*
X210800000Y-65100000D03*
X208260000Y-65100000D03*
X210800000Y-67640000D03*
X208260000Y-67640000D03*
X210800000Y-70180000D03*
X208260000Y-70180000D03*
X210800000Y-72720000D03*
X208260000Y-72720000D03*
X210800000Y-75260000D03*
X208260000Y-75260000D03*
X210800000Y-77800000D03*
X208260000Y-77800000D03*
X210800000Y-80340000D03*
X208260000Y-80340000D03*
X210800000Y-82880000D03*
X208260000Y-82880000D03*
X210800000Y-85420000D03*
X208260000Y-85420000D03*
X210800000Y-87960000D03*
X208260000Y-87960000D03*
X210800000Y-90500000D03*
X208260000Y-90500000D03*
X210800000Y-93040000D03*
X208260000Y-93040000D03*
X210800000Y-95580000D03*
X208260000Y-95580000D03*
X210800000Y-98120000D03*
X208260000Y-98120000D03*
X210800000Y-100660000D03*
X208260000Y-100660000D03*
X210800000Y-103200000D03*
X208260000Y-103200000D03*
X210800000Y-105740000D03*
X208260000Y-105740000D03*
X210800000Y-108280000D03*
X208260000Y-108280000D03*
X210800000Y-110820000D03*
X208260000Y-110820000D03*
X210800000Y-113360000D03*
X208260000Y-113360000D03*
X210800000Y-115900000D03*
X208260000Y-115900000D03*
X210800000Y-118440000D03*
X208260000Y-118440000D03*
%TD*%
D16*
%TO.C,Y1*%
X186050000Y-104700000D03*
X188250000Y-104700000D03*
X188250000Y-103000000D03*
X186050000Y-103000000D03*
%TD*%
D17*
%TO.C,L1*%
X169850000Y-80925000D03*
X169850000Y-74875000D03*
%TD*%
D18*
%TO.C,U4*%
X189775000Y-91212500D03*
X189275000Y-91212500D03*
X188775000Y-91212500D03*
X188275000Y-91212500D03*
X187775000Y-91212500D03*
X187275000Y-91212500D03*
X186775000Y-91212500D03*
X186275000Y-91212500D03*
X185775000Y-91212500D03*
X185275000Y-91212500D03*
X184775000Y-91212500D03*
X184275000Y-91212500D03*
D19*
X182862500Y-92625000D03*
X182862500Y-93125000D03*
X182862500Y-93625000D03*
X182862500Y-94125000D03*
X182862500Y-94625000D03*
X182862500Y-95125000D03*
X182862500Y-95625000D03*
X182862500Y-96125000D03*
X182862500Y-96625000D03*
X182862500Y-97125000D03*
X182862500Y-97625000D03*
X182862500Y-98125000D03*
D18*
X184275000Y-99537500D03*
X184775000Y-99537500D03*
X185275000Y-99537500D03*
X185775000Y-99537500D03*
X186275000Y-99537500D03*
X186775000Y-99537500D03*
X187275000Y-99537500D03*
X187775000Y-99537500D03*
X188275000Y-99537500D03*
X188775000Y-99537500D03*
X189275000Y-99537500D03*
X189775000Y-99537500D03*
D19*
X191187500Y-98125000D03*
X191187500Y-97625000D03*
X191187500Y-97125000D03*
X191187500Y-96625000D03*
X191187500Y-96125000D03*
X191187500Y-95625000D03*
X191187500Y-95125000D03*
X191187500Y-94625000D03*
X191187500Y-94125000D03*
X191187500Y-93625000D03*
X191187500Y-93125000D03*
X191187500Y-92625000D03*
%TD*%
D20*
%TO.C,R12*%
X188200000Y-72450000D03*
X186550000Y-72450000D03*
%TD*%
%TO.C,R15*%
X188200000Y-70550000D03*
X186550000Y-70550000D03*
%TD*%
D21*
%TO.C,J3*%
X204000000Y-46300000D03*
D22*
X206500000Y-46300000D03*
%TD*%
D23*
%TO.C,C11*%
X190175000Y-104625000D03*
X190175000Y-103075000D03*
%TD*%
D24*
%TO.C,R9*%
X185325000Y-87350000D03*
X185325000Y-89000000D03*
%TD*%
D25*
%TO.C,U1*%
X202000000Y-56000000D03*
X202000000Y-56950000D03*
X202000000Y-57900000D03*
X204275000Y-57900000D03*
X204275000Y-56000000D03*
%TD*%
D26*
%TO.C,C15*%
X179800000Y-97675000D03*
X178250000Y-97675000D03*
%TD*%
%TO.C,C1*%
X204350000Y-59900000D03*
X202800000Y-59900000D03*
%TD*%
D27*
%TO.C,C10*%
X189650000Y-88985000D03*
X189650000Y-88025000D03*
%TD*%
D28*
%TO.C,JP3*%
X201425000Y-97875000D03*
D29*
X200125000Y-97875000D03*
%TD*%
D30*
%TO.C,U3*%
X185100000Y-117900000D03*
X185100000Y-119600000D03*
X185100000Y-121300000D03*
D31*
X194250000Y-121300000D03*
D30*
X185100000Y-123000000D03*
X185100000Y-124700000D03*
%TD*%
D32*
%TO.C,R6*%
X197425000Y-96100000D03*
X197425000Y-94450000D03*
%TD*%
D24*
%TO.C,R14*%
X191700000Y-77700000D03*
X191700000Y-79350000D03*
%TD*%
D33*
%TO.C,C12*%
X182000000Y-102775000D03*
X180100000Y-102775000D03*
%TD*%
D32*
%TO.C,R18*%
X195300000Y-77850000D03*
X195300000Y-76200000D03*
%TD*%
D34*
%TO.C,L3*%
X187000000Y-87312500D03*
X187000000Y-88887500D03*
%TD*%
D20*
%TO.C,R10*%
X188225000Y-74250000D03*
X186575000Y-74250000D03*
%TD*%
D35*
%TO.C,R4*%
X203585000Y-53400000D03*
X202565000Y-53400000D03*
%TD*%
D32*
%TO.C,R17*%
X197000000Y-77875000D03*
X197000000Y-76225000D03*
%TD*%
D36*
%TO.C,C20*%
X195300000Y-72800000D03*
X195300000Y-74350000D03*
%TD*%
D23*
%TO.C,C3*%
X197800000Y-70325000D03*
X197800000Y-68775000D03*
%TD*%
D14*
%TO.C,J6*%
X162800000Y-62610000D03*
D15*
X160260000Y-62610000D03*
X162800000Y-65150000D03*
X160260000Y-65150000D03*
X162800000Y-67690000D03*
X160260000Y-67690000D03*
X162800000Y-70230000D03*
X160260000Y-70230000D03*
X162800000Y-72770000D03*
X160260000Y-72770000D03*
X162800000Y-75310000D03*
X160260000Y-75310000D03*
X162800000Y-77850000D03*
X160260000Y-77850000D03*
X162800000Y-80390000D03*
X160260000Y-80390000D03*
X162800000Y-82930000D03*
X160260000Y-82930000D03*
X162800000Y-85470000D03*
X160260000Y-85470000D03*
X162800000Y-88010000D03*
X160260000Y-88010000D03*
X162800000Y-90550000D03*
X160260000Y-90550000D03*
X162800000Y-93090000D03*
X160260000Y-93090000D03*
X162800000Y-95630000D03*
X160260000Y-95630000D03*
X162800000Y-98170000D03*
X160260000Y-98170000D03*
X162800000Y-100710000D03*
X160260000Y-100710000D03*
X162800000Y-103250000D03*
X160260000Y-103250000D03*
X162800000Y-105790000D03*
X160260000Y-105790000D03*
X162800000Y-108330000D03*
X160260000Y-108330000D03*
X162800000Y-110870000D03*
X160260000Y-110870000D03*
X162800000Y-113410000D03*
X160260000Y-113410000D03*
X162800000Y-115950000D03*
X160260000Y-115950000D03*
X162800000Y-118490000D03*
X160260000Y-118490000D03*
%TD*%
D28*
%TO.C,JP2*%
X201375000Y-95175000D03*
D29*
X200075000Y-95175000D03*
%TD*%
D37*
%TO.C,C21*%
X193750000Y-88650000D03*
X193750000Y-86750000D03*
%TD*%
D38*
%TO.C,C5*%
X179450000Y-117950000D03*
X179450000Y-119850000D03*
%TD*%
D39*
%TO.C,Q1*%
X169950000Y-99340000D03*
X169950000Y-97440000D03*
X168075000Y-98390000D03*
%TD*%
D40*
%TO.C,U2*%
X176950000Y-76840000D03*
X176950000Y-78110000D03*
X176950000Y-79380000D03*
X176950000Y-80650000D03*
X181900000Y-80650000D03*
X181900000Y-79380000D03*
X181900000Y-78110000D03*
X181900000Y-76840000D03*
%TD*%
D32*
%TO.C,R7*%
X197425000Y-99300000D03*
X197425000Y-97650000D03*
%TD*%
D26*
%TO.C,C17*%
X179775000Y-95750000D03*
X178225000Y-95750000D03*
%TD*%
D23*
%TO.C,C8*%
X184175000Y-104625000D03*
X184175000Y-103075000D03*
%TD*%
D41*
%TO.C,J4*%
X194090000Y-53360000D03*
X182660000Y-53360000D03*
D42*
X192820000Y-59710000D03*
D43*
X191550000Y-62250000D03*
X190280000Y-59710000D03*
X189010000Y-62250000D03*
X187740000Y-59710000D03*
X186470000Y-62250000D03*
X185200000Y-59710000D03*
X183930000Y-62250000D03*
D44*
X195000000Y-49300000D03*
X192460000Y-49300000D03*
X184290000Y-49300000D03*
X181750000Y-49300000D03*
D45*
X196120000Y-56410000D03*
X180630000Y-56410000D03*
%TD*%
D46*
%TO.C,C7*%
X180675000Y-123050000D03*
X177725000Y-123050000D03*
%TD*%
D12*
%TO.C,D4*%
X168550000Y-112550000D03*
D13*
X174350000Y-112550000D03*
%TD*%
D47*
%TO.C,C14*%
X181530000Y-100875000D03*
X180570000Y-100875000D03*
%TD*%
D48*
%TO.C,R19*%
X174450000Y-98750000D03*
X174450000Y-97730000D03*
%TD*%
D27*
%TO.C,C13*%
X190800000Y-89000000D03*
X190800000Y-88040000D03*
%TD*%
D24*
%TO.C,R13*%
X198900000Y-77475000D03*
X198900000Y-79125000D03*
%TD*%
D12*
%TO.C,D3*%
X168450000Y-106800000D03*
D13*
X174250000Y-106800000D03*
%TD*%
D49*
%TO.C,U5*%
X201650000Y-72625000D03*
X201650000Y-73275000D03*
X201650000Y-73925000D03*
X203550000Y-73925000D03*
X203550000Y-73275000D03*
X203550000Y-72625000D03*
%TD*%
D50*
%TO.C,J2*%
X166050000Y-49300000D03*
D51*
X171050000Y-49300000D03*
%TD*%
D52*
%TO.C,D1*%
X205550000Y-53500000D03*
X207125000Y-53500000D03*
%TD*%
D20*
%TO.C,R11*%
X188125000Y-68650000D03*
X186475000Y-68650000D03*
%TD*%
D24*
%TO.C,R5*%
X197425000Y-91350000D03*
X197425000Y-93000000D03*
%TD*%
D53*
%TO.C,C22*%
X186625000Y-76050000D03*
X188175000Y-76050000D03*
%TD*%
D32*
%TO.C,R16*%
X193600000Y-77825000D03*
X193600000Y-76175000D03*
%TD*%
D48*
%TO.C,R1*%
X206575000Y-57610000D03*
X206575000Y-56590000D03*
%TD*%
D27*
%TO.C,C16*%
X191950000Y-89000000D03*
X191950000Y-88040000D03*
%TD*%
%TO.C,C9*%
X188500000Y-88965000D03*
X188500000Y-88005000D03*
%TD*%
D23*
%TO.C,C2*%
X199500000Y-70350000D03*
X199500000Y-68800000D03*
%TD*%
D53*
%TO.C,C18*%
X190100000Y-72450000D03*
X191650000Y-72450000D03*
%TD*%
D28*
%TO.C,JP1*%
X201325000Y-92575000D03*
D29*
X200025000Y-92575000D03*
%TD*%
D53*
%TO.C,C19*%
X190100000Y-70550000D03*
X191650000Y-70550000D03*
%TD*%
D38*
%TO.C,C4*%
X172100000Y-62567500D03*
X172100000Y-64467500D03*
%TD*%
D54*
%TO.C,R8*%
X186350000Y-107550000D03*
X188000000Y-107550000D03*
%TD*%
M02*
